<?xml version="1.0" encoding="UTF-8"?>
<svg width="48px" height="48px" viewBox="0 0 48 48" version="1.1" xmlns="http://www.w3.org/2000/svg" xmlns:xlink="http://www.w3.org/1999/xlink">
    <title>Camera</title>
    <defs>
        <path d="M3.29011743,0.471761159 L3.41357291,0.585272083 L15.1815729,12.3532721 C15.2566335,12.4283933 15.353202,12.4770538 15.4567911,12.4932785 L15.5355729,12.4992721 L30.9995729,12.4992721 C32.5972538,12.4992721 33.9032338,13.748192 33.9944802,15.3229993 L33.9995729,15.4992721 L33.9995729,30.9632721 C33.9992064,31.069466 34.0327694,31.1722612 34.0942868,31.2571703 L34.1455729,31.3172721 L47.4135729,44.5852721 C48.1715173,45.3700299 48.1606777,46.6174416 47.3892101,47.3889092 C46.658346,48.1197733 45.5003188,48.1679685 44.71319,47.5265599 L44.5855729,47.4132721 L0.585572907,3.41327208 C-0.195190969,2.63227238 -0.195190969,1.36627179 0.585572907,0.585272083 C0.675520067,0.49529175 0.773980847,0.414245802 0.879572907,0.343272083 C1.62649847,-0.161813396 2.61179258,-0.101623568 3.29011743,0.471761159 Z M6.26226837,12.8072527 L6.32957291,12.8632721 L29.1115729,35.6452721 C29.2549497,35.7882863 29.297903,36.0036615 29.2203572,36.1907354 C29.1538894,36.3510844 29.0101436,36.4634956 28.8429025,36.492113 L28.7575729,36.4992729 L6.99957279,36.4992729 C5.40189202,36.4992729 4.09591192,35.2503522 4.00466548,33.6755449 L3.99957279,33.4992721 L3.99957279,15.4992721 C3.99923987,14.3172049 4.69307259,13.2451316 5.77157291,12.7612721 C5.9337666,12.6889154 6.11978114,12.7083459 6.26226837,12.8072527 Z M43.4735729,14.9012721 C44.388,14.360454 45.520263,14.3435961 46.4503854,14.8569513 C47.3805078,15.3703065 47.9697581,16.3373059 47.9995729,17.3992721 L47.9995729,17.3992721 L47.9995729,31.5992721 C47.9697581,32.6612383 47.3805078,33.6282377 46.4503854,34.1415929 C45.520263,34.6549481 44.388,34.6380902 43.4735729,34.0972721 L43.4735729,34.0972721 L37.4735729,30.6752721 C36.5703066,30.1657131 36.0081854,29.2123189 35.9995729,28.1752721 L35.9995729,28.1752721 L35.9995729,20.8232721 C36.0073578,19.7859959 36.5697053,18.8322179 37.4735729,18.3232721 L37.4735729,18.3232721 Z" id="path-1"></path>
    </defs>
    <g id="Televisits" stroke="none" stroke-width="1" fill="none" fill-rule="evenodd">
        <g id="Icons-for-DEV" transform="translate(-312.000000, -48.000000)">
            <g id="Camera" transform="translate(312.000427, 48.000728)">
                <mask id="mask-2" fill="white">
                    <use xlink:href="#path-1"></use>
                </mask>
                <use id="controls-camera-off" fill="#000000" fill-rule="nonzero" xlink:href="#path-1"></use>
                <g id="color/9-#000000" mask="url(#mask-2)" fill="#595959">
                    <g transform="translate(-0.000427, -0.000728)" id="Rectangle">
                        <rect x="0" y="0" width="48" height="48"></rect>
                    </g>
                </g>
            </g>
        </g>
    </g>
</svg>