<?xml version="1.0" encoding="UTF-8"?>
<svg width="48px" height="48px" viewBox="0 0 48 48" version="1.1" xmlns="http://www.w3.org/2000/svg" xmlns:xlink="http://www.w3.org/1999/xlink">
    <title>End call</title>
    <defs>
        <path d="M21.2060738,15.7986464 L18.8605777,13.4485449 C18.3561695,12.9424245 17.6714889,12.6580109 16.9574926,12.6580109 C16.2434963,12.6580109 15.5588157,12.9424245 15.0544075,13.4485449 L14.5761253,13.9275709 C12.2189043,11.9494333 10.0415213,9.76577908 8.06957359,7.402279 L8.54785583,6.92325302 C9.59646054,5.86993654 9.59646054,4.16543879 8.54785583,3.11212231 L6.19757686,0.764894995 C5.13168991,-0.254964998 3.45346743,-0.254964998 2.38758047,0.764894995 L1.10578405,2.05443294 C-0.163745949,3.33509175 -0.363328901,5.33162609 0.627501797,6.83894445 C4.44906836,12.6062515 9.38385783,17.5496918 15.1414549,21.3783411 C16.6507862,22.3610937 18.6391362,22.1619495 19.9242774,20.8993151 L21.2108566,19.6097771 C21.7160753,19.104912 22,18.4194839 22,17.7046908 C22,16.9898977 21.7160753,16.3044696 21.2108566,15.7996045 L21.2060738,15.7986464 Z" id="path-1"></path>
    </defs>
    <g id="Televisits" stroke="none" stroke-width="1" fill="none" fill-rule="evenodd">
        <g id="Icons-for-DEV" transform="translate(-488.000000, -48.000000)">
            <g id="End-call" transform="translate(488.000000, 48.000000)">
                <circle id="Oval-Copy-4" stroke="#595959" stroke-width="3" cx="24" cy="24" r="22.5"></circle>
                <g id="Utility-Icons-/-call" transform="translate(24.000000, 24.000000) rotate(-225.000000) translate(-24.000000, -24.000000) translate(13.000000, 13.000000)">
                    <mask id="mask-2" fill="white">
                        <use xlink:href="#path-1"></use>
                    </mask>
                    <use id="phone" fill="#000000" fill-rule="nonzero" xlink:href="#path-1"></use>
                    <g id="color/9-#000000" mask="url(#mask-2)" fill="#595959">
                        <rect id="Rectangle" x="0" y="0" width="22" height="22"></rect>
                    </g>
                </g>
            </g>
        </g>
    </g>
</svg>