<?xml version="1.0" encoding="UTF-8"?>
<svg width="48px" height="48px" viewBox="0 0 48 48" version="1.1" xmlns="http://www.w3.org/2000/svg" xmlns:xlink="http://www.w3.org/1999/xlink">
    <title>Hourglass</title>
    <g id="Televisits" stroke="none" stroke-width="1" fill="none" fill-rule="evenodd">
        <g id="Icons-for-DEV" transform="translate(-224.000000, -48.000000)">
            <g id="Hourglass" transform="translate(224.000000, 48.000000)">
                <rect id="Rectangle" opacity="0" x="0" y="0" width="48" height="48"></rect>
                <g id="hourglass-alternate" transform="translate(5.000000, 0.000000)" fill="#595959" fill-rule="nonzero">
                    <path d="M36,44 L34,44 L34,37 C33.9968384,31.633592 31.1289508,26.6771257 26.478,24 C31.1304626,21.3243899 33.9989058,16.3669634 34,11 L34,4 L36,4 C37.1045695,4 38,3.1045695 38,2 C38,0.8954305 37.1045695,0 36,0 L2,0 C0.8954305,0 0,0.8954305 0,2 C0,3.1045695 0.8954305,4 2,4 L4,4 L4,11 C4.00109419,16.3669634 6.8695374,21.3243899 11.522,24 C6.87104924,26.6771257 4.00316155,31.633592 4,37 L4,44 L2,44 C0.8954305,44 0,44.8954305 0,46 C0,47.1045695 0.8954305,48 2,48 L36,48 C37.1045695,48 38,47.1045695 38,46 C38,44.8954305 37.1045695,44 36,44 Z M8,37 C8.00398698,33.8920757 9.32086037,30.9304934 11.6258242,28.8457029 C13.930788,26.7609125 17.0092744,25.746986 20.102,26.054 C25.8353325,26.7863383 30.0996096,31.7149431 30,37.494 L30,43 C30,43.5522847 29.5522847,44 29,44 L9,44 C8.44771525,44 8,43.5522847 8,43 L8,37 Z M9,4 L29,4 C29.5522847,4 30,4.44771525 30,5 L30,10.512 C30.0984673,16.2898741 25.8342511,21.2166851 20.102,21.948 C17.0087869,22.2556876 13.9296115,21.2417206 11.6244281,19.1563505 C9.31924464,17.0709804 8.00280053,14.1084773 8,11 L8,5 C8,4.44771525 8.44771525,4 9,4 Z" id="Shape"></path>
                    <path d="M19,19.252 C21.8999433,19.1456187 24.5203863,17.4930526 25.866,14.922 C26.0456565,14.6124805 26.0462105,14.2305494 25.8674527,13.9205099 C25.688695,13.6104705 25.3578807,13.4195946 25,13.4199994 L13,13.4199994 C12.6421193,13.4195946 12.311305,13.6104705 12.1325473,13.9205099 C11.9537895,14.2305494 11.9543435,14.6124805 12.134,14.922 C13.4796137,17.4930526 16.1000567,19.1456187 19,19.252 L19,19.252 Z" id="Path"></path>
                    <path d="M20.496,31.18 C20.1052408,30.7691069 19.5630325,30.5364992 18.996,30.5364992 C18.4289675,30.5364992 17.8867592,30.7691069 17.496,31.18 L10.85,38.674 C10.3288945,39.2623953 10.2007317,40.1014631 10.522426,40.8185912 C10.8441203,41.5357194 11.5560256,41.9979436 12.342,42 L25.658,42 C26.4451423,41.9994235 27.1587468,41.5371908 27.4811162,40.8190882 C27.8034856,40.1009856 27.6746628,39.2605719 27.152,38.672 L20.496,31.18 Z" id="Path"></path>
                </g>
            </g>
        </g>
    </g>
</svg>