<?xml version="1.0" encoding="UTF-8"?>
<svg width="48px" height="48px" viewBox="0 0 48 48" version="1.1" xmlns="http://www.w3.org/2000/svg" xmlns:xlink="http://www.w3.org/1999/xlink">
    <title>Microphone</title>
    <defs>
        <path d="M6.99957291,17.995691 C8.10414241,17.995691 8.99957291,18.8911215 8.99957291,19.995691 L8.99957291,19.995691 L8.99957291,24.995691 C9.00839146,33.2763067 15.7189572,39.9868725 23.9995729,39.995691 C26.6176046,39.9979601 29.1899948,39.3101958 31.4575729,38.001691 C31.6528297,37.8905149 31.8982665,37.9232398 32.0575729,38.081691 L32.0575729,38.081691 L34.2395729,40.263691 C34.3469634,40.3710613 34.3997376,40.5214182 34.3830103,40.6723529 C34.366283,40.8232876 34.2818672,40.9584405 34.1535729,41.039691 C31.81765,42.5282886 29.1825939,43.484256 26.4355729,43.839691 C26.1857516,43.8710353 25.9986254,44.0839128 25.9995729,44.335691 L25.9995729,44.335691 L25.9995729,45.995691 C25.9995729,47.1002605 25.1041424,47.995691 23.9995729,47.995691 C22.8950034,47.995691 21.9995729,47.1002605 21.9995729,45.995691 L21.9995729,45.995691 L21.9995729,44.335691 C22.0005204,44.0839128 21.8133943,43.8710353 21.5635729,43.839691 C12.0966204,42.6033815 5.01151041,34.5430209 4.99957291,24.995691 L4.99957291,24.995691 L4.99957291,19.995691 C4.99957291,18.8911215 5.89500341,17.995691 6.99957291,17.995691 Z M12.4875729,8.61369101 C14.171457,2.89088751 19.803463,-0.726086153 25.708087,0.123243483 C31.612711,0.97257312 35.9969362,6.03029592 35.9995729,11.995691 L35.9995729,11.995691 L35.9995729,24.995691 C36.0062261,27.1142005 35.4484368,29.1962458 34.3835729,31.027691 C34.2725846,31.2226522 34.3044262,31.4675874 34.4615729,31.627691 L34.4615729,31.627691 L35.9175729,33.081691 C36.0225819,33.1870625 36.1696286,33.239264 36.3175729,33.223691 C36.4685849,33.2077705 36.6040821,33.1238212 36.6855729,32.995691 C38.2006891,30.6027548 39.0033006,27.8279528 38.9995729,24.995691 L38.9995729,24.995691 L38.9995729,19.995691 C38.9995729,18.8911215 39.8950034,17.995691 40.9995729,17.995691 C42.1041424,17.995691 42.9995729,18.8911215 42.9995729,19.995691 L42.9995729,19.995691 L42.9995729,24.995691 C43.0068069,28.959928 41.7677418,32.8261469 39.4575729,36.047691 C39.313543,36.245758 39.3356301,36.5192989 39.5095729,36.691691 L39.5095729,36.691691 L47.4135729,44.595691 L47.3995729,44.587691 C48.1235608,45.3713871 48.1049045,46.5853982 47.3571773,47.3464778 C46.60945,48.1075573 45.3959592,48.1476959 44.5995729,47.437691 L44.5995729,47.437691 L0.585572907,3.42369101 C-0.195190969,2.64269131 -0.195190969,1.37669072 0.585572907,0.595691012 C1.37233531,-0.171031249 2.62681051,-0.171031249 3.41357291,0.595691012 L3.41357291,0.595691012 L11.6535729,8.82569101 C11.7787486,8.94969071 11.9597701,8.99898733 12.130535,8.95557948 C12.3012998,8.91217163 12.4368065,8.78241459 12.4875729,8.61369101 Z M12.3090334,18.7805242 C12.4959256,18.7034914 12.7108158,18.7465716 12.8535729,18.889691 L12.8535729,18.889691 L29.0895729,35.129691 C29.2016398,35.2458797 29.2507168,35.409026 29.221351,35.56776 C29.1919853,35.7264939 29.0877899,35.8612848 28.9415729,35.929691 C25.2280277,37.607986 20.9165267,37.2869328 17.4925052,35.0771435 C14.0684837,32.8673541 11.9999499,29.070871 11.9995729,24.995691 L11.9995729,24.995691 L11.9995729,19.241691 C12.0000196,19.0395462 12.1221413,18.8575571 12.3090334,18.7805242 Z" id="path-1"></path>
    </defs>
    <g id="Televisits" stroke="none" stroke-width="1" fill="none" fill-rule="evenodd">
        <g id="Icons-for-DEV" transform="translate(-400.000000, -48.000000)">
            <g id="Microphone" transform="translate(400.000427, 48.004309)">
                <mask id="mask-2" fill="white">
                    <use xlink:href="#path-1"></use>
                </mask>
                <use id="microphone-off" fill="#000000" fill-rule="nonzero" xlink:href="#path-1"></use>
                <g id="color/9-#000000" mask="url(#mask-2)" fill="#595959">
                    <g transform="translate(-0.000427, -0.004309)" id="Rectangle">
                        <rect x="0" y="0" width="48" height="48"></rect>
                    </g>
                </g>
            </g>
        </g>
    </g>
</svg>