<?xml version="1.0" encoding="UTF-8"?>
<svg width="48px" height="48px" viewBox="0 0 48 48" version="1.1" xmlns="http://www.w3.org/2000/svg" xmlns:xlink="http://www.w3.org/1999/xlink">
    <title>People</title>
    <defs>
        <path d="M24.0923077,5.11578947 C28.6153846,5.11578947 31.1076923,8.81052632 31.1076923,13.0736842 C31.1076923,15.3473684 30.2769231,17.3368421 28.8,18.7578947 C27.9692308,19.5157895 27.2307692,20.5578947 27.2307692,21.6947368 C27.2307692,22.7368421 27.6923077,23.7789474 30.1846154,24.9157895 C30.364728,24.998973 30.5444012,25.082382 30.7232602,25.1661814 L31.2570191,25.4189156 C34.5288427,26.9866996 37.393621,28.7445443 37.4769231,31.7368421 C37.4769231,33.9416268 35.9145582,35.7900826 33.8840098,35.9000857 L33.6923077,35.9052632 L14.4923077,35.9052632 C12.3692308,35.9052632 10.7076923,34.0105263 10.7076923,31.7368421 C10.8,28.3263158 14.3076923,26.5263158 18,24.9157895 C20.5846154,23.7789474 20.9538462,22.8315789 20.9538462,21.6947368 C20.9538462,20.6526316 20.2153846,19.6105263 19.3846154,18.7578947 C17.9076923,17.3368421 17.0769231,15.3473684 17.0769231,13.0736842 C17.0769231,8.81052632 19.5692308,5.11578947 24.0923077,5.11578947 Z M12.0923077,1.77635684e-15 C14.4923077,1.77635684e-15 16.3384615,1.23157895 17.2615385,2.93684211 C14.4923077,5.11578947 12.7384615,8.71578947 12.7384615,13.0736842 C12.7384615,15.6315789 13.3846154,17.9052632 14.6769231,19.8947368 C15.1384615,20.5578947 14.9538462,21.6 14.1230769,21.9789474 C11.8153846,23.2105263 9.04615385,24.9157895 7.56923077,27.6631579 C7.32,28.0894737 6.92123077,28.3623158 6.50750769,28.4126211 L6.36923077,28.4210526 L3.32307692,28.4210526 C1.38461538,28.4210526 0.0923076923,26.8105263 0,24.7263158 C0.0923076923,21.6 3.13846154,19.5157895 6.46153846,18 C8.76923077,16.9578947 9.13846154,16.0105263 9.13846154,15.0631579 C9.13846154,14.1157895 8.49230769,13.1684211 7.75384615,12.4105263 C6.36923077,11.1789474 5.72307692,9.37894737 5.72307692,7.29473684 C5.72307692,3.41052632 8.03076923,1.77635684e-15 12.0923077,1.77635684e-15 Z M36,-1.77635684e-15 C40.1538462,-1.77635684e-15 42.3692308,3.41052632 42.3692308,7.29473684 C42.3692308,9.37894737 41.7230769,11.0842105 40.3384615,12.4105263 C39.6,13.0736842 38.9538462,14.0210526 38.9538462,15.0631579 C38.9538462,16.1052632 39.3230769,16.9578947 41.6307692,18 C44.9538462,19.5157895 48,21.6 47.9076923,24.7263158 C47.9076923,26.8105263 46.6153846,28.4210526 44.6769231,28.4210526 L44.6769231,28.4210526 L41.6307692,28.4210526 C41.1692308,28.4210526 40.7076923,28.1368421 40.4307692,27.6631579 C38.9538462,24.9157895 36.1846154,23.1157895 33.8769231,21.9789474 C33.1384615,21.6 32.8615385,20.6526316 33.3230769,19.8947368 C34.6153846,17.9052632 35.2615385,15.6315789 35.2615385,13.0736842 C35.2615385,8.71578947 33.5076923,5.11578947 30.7384615,2.93684211 C31.7538462,1.23157895 33.6,-1.77635684e-15 36,-1.77635684e-15 Z" id="path-1"></path>
    </defs>
    <g id="Televisits" stroke="none" stroke-width="1" fill="none" fill-rule="evenodd">
        <g id="Icons-for-DEV" transform="translate(-48.000000, -48.000000)">
            <g id="People" transform="translate(48.000000, 48.000000)">
                <rect id="Rectangle" opacity="0" x="0" y="0" width="48" height="48"></rect>
                <g id="Utility-Icons-/-check-Copy" transform="translate(0.000000, 6.000000)">
                    <mask id="mask-2" fill="white">
                        <use xlink:href="#path-1"></use>
                    </mask>
                    <use id="🎨-Icon-Color" fill="#595959" xlink:href="#path-1"></use>
                </g>
            </g>
        </g>
    </g>
</svg>