<?xml version="1.0" encoding="UTF-8"?>
<svg width="48px" height="48px" viewBox="0 0 48 48" version="1.1" xmlns="http://www.w3.org/2000/svg" xmlns:xlink="http://www.w3.org/1999/xlink">
    <title>Settings</title>
    <defs>
        <path d="M44.841243,19.5220902 L42.309243,18.6240902 C41.5760276,18.3634413 40.9876967,17.8041501 40.6902982,17.0850557 C40.3928997,16.3659614 40.4143205,15.5544929 40.749243,14.8520902 L40.749243,14.8520902 L41.901243,12.4260902 C42.7622803,10.610779 42.3886014,8.45011889 40.9679078,7.02942534 C39.5472143,5.60873178 37.3865542,5.23505287 35.571243,6.09609023 L33.145243,7.25009023 C32.4424374,7.58349407 31.6313081,7.6036567 30.9128056,7.30558298 C30.1943032,7.00750927 29.6356482,6.41908604 29.375243,5.68609023 L28.475243,3.15609023 C27.8004809,1.26360553 26.0084224,0 23.999243,0 C21.9900635,0 20.198005,1.26360553 19.523243,3.15609023 L18.623243,5.68809023 C18.3624204,6.42072642 17.8035923,7.0086763 17.0851388,7.30634855 C16.3666853,7.60402079 15.555787,7.58358087 14.853243,7.25009023 L12.427243,6.09609023 C10.6119317,5.23505287 8.45127162,5.60873178 7.03057807,7.02942534 C5.60988451,8.45011889 5.23620559,10.610779 6.09724296,12.4260902 L7.24924296,14.8520902 C7.5835105,15.5545766 7.60459688,16.3657752 7.30727711,17.0846791 C7.00995734,17.8035831 6.42205379,18.3629194 5.68924296,18.6240902 L3.15724296,19.5240902 C1.26427076,20.1978433 0,21.9897901 0,23.9990902 C0,26.0083903 1.26427076,27.8003372 3.15724296,28.4740902 L5.68924296,29.3740902 C6.42192343,29.6348088 7.00982669,30.1937647 7.30717616,30.9123592 C7.60452563,31.6309538 7.58347462,32.4418908 7.24924296,33.1440902 L6.09724296,35.5700902 C5.23620559,37.3854015 5.60988451,39.5460616 7.03057807,40.9667551 C8.45127162,42.3874487 10.6119317,42.7611276 12.427243,41.9000902 L14.853243,40.7480902 C15.5556202,40.4132891 16.3670591,40.3921805 17.0858935,40.6900105 C17.8047279,40.9878406 18.3634652,41.5766455 18.623243,42.3100902 L19.523243,44.8400902 C20.198005,46.7325749 21.9900635,47.9961805 23.999243,47.9961805 C26.0084224,47.9961805 27.8004809,46.7325749 28.475243,44.8400902 L29.375243,42.3080902 C29.6359615,41.5754098 30.1949174,40.9875065 30.913512,40.690157 C31.6321065,40.3928076 32.4430435,40.4138586 33.145243,40.7480902 L35.571243,41.9000902 C37.3865542,42.7611276 39.5472143,42.3874487 40.9679078,40.9667551 C42.3886014,39.5460616 42.7622803,37.3854015 41.901243,35.5700902 L40.749243,33.1440902 C40.4150113,32.4418908 40.3939603,31.6309538 40.6913098,30.9123592 C40.9886592,30.1937647 41.5765625,29.6348088 42.309243,29.3740902 L44.841243,28.4720902 C46.7342152,27.7983372 47.9984859,26.0063903 47.9984859,23.9970902 C47.9984859,21.9877901 46.7342152,20.1958433 44.841243,19.5220902 Z M23.999243,33.5660902 C20.1416147,33.5101277 16.6710066,31.2094138 15.117243,27.6780902 C13.091659,22.7732501 15.4176207,17.1542633 20.317243,15.1160902 C25.2218771,13.1546377 30.7958885,15.4619821 32.879243,20.3160902 C34.9048269,25.2209304 32.5788652,30.8399172 27.679243,32.8780902 C26.5128751,33.3578273 25.2601509,33.5920323 23.999243,33.5660902 Z" id="path-1"></path>
    </defs>
    <g id="Televisits" stroke="none" stroke-width="1" fill="none" fill-rule="evenodd">
        <g id="Icons-for-DEV" transform="translate(-576.000000, -48.000000)">
            <g id="icon" transform="translate(576.000000, 48.000000)">
                <mask id="mask-2" fill="white">
                    <use xlink:href="#path-1"></use>
                </mask>
                <use id="Mask" fill="#000000" fill-rule="nonzero" xlink:href="#path-1"></use>
                <g id="color" mask="url(#mask-2)" fill="#595959">
                    <rect id="Rectangle" x="0" y="0" width="48" height="48"></rect>
                </g>
            </g>
        </g>
    </g>
</svg>