<!-- Created By Leonid Bartenev -->

<svg xmlns="http://www.w3.org/2000/svg" xmlns:xlink="http://www.w3.org/1999/xlink" display="none">
    <symbol id="custom-fasting" name="Fasting" viewBox="0 0 26.31 25.9" version="1.1" xmlns="http://www.w3.org/2000/svg"
            xmlns:xlink="http://www.w3.org/1999/xlink">
        <path class="cls-1" d="M12.83.85a1,1,0,0,0-1,1v5a2,2,0,0,1-.57,1.4.24.24,0,0,1-.35,0,.23.23,0,0,1-.08-.17V1.85a1,1,0,1,0-2,0V8.08a.25.25,0,0,1-.25.25.25.25,0,0,1-.18-.08,2,2,0,0,1-.57-1.4v-5a1,1,0,1,0-2,0v5A4,4,0,0,0,8.5,10.63a.49.49,0,0,1,.33.47V23.85a1,1,0,0,0,2,0V11.1a.5.5,0,0,1,.33-.47,4,4,0,0,0,2.67-3.78v-5A1,1,0,0,0,12.83.85Z"/>
        <path class="cls-1" d="M19.33.85a4,4,0,0,0-4,4v2A4,4,0,0,0,18,10.63a.49.49,0,0,1,.33.47V23.85a1,1,0,0,0,2,0V11.1a.5.5,0,0,1,.33-.47,4,4,0,0,0,2.67-3.78v-2A4,4,0,0,0,19.33.85Zm-.5,2.5a1,1,0,0,0-1,1,.5.5,0,0,1-.5.5.5.5,0,0,1-.5-.5,2,2,0,0,1,2-2,.5.5,0,0,1,.5.5A.5.5,0,0,1,18.83,3.35Z"/>
        <rect class="cls-2" x="12.71" y="-4.34" width="1" height="34.38" transform="translate(-5.22 13.34) rotate(-45.73)"/>
    </symbol>
    <symbol id="Hand-X-Ray" name="Hand and feet X-rays" viewBox="0 0 24 24" version="1.1" xmlns="http://www.w3.org/2000/svg"
            xmlns:xlink="http://www.w3.org/1999/xlink">
        <path d="M23,8.5a1,1,0,0,0-1,1v8a1,1,0,1,0,2,0v-8A1,1,0,0,0,23,8.5Z"/>
        <path d="M17.446,6.583l1.5,1a1,1,0,1,0,1.109-1.664l-1.5-1a1,1,0,0,0-1.109,1.664Z"/>
        <path d="M14.481,3.447A1,1,0,0,0,13.7,2.27l-2.5-.5A1,1,0,0,0,10.8,3.731l2.5.5a.964.964,0,0,0,.2.02A1,1,0,0,0,14.481,3.447Z"/>
        <path d="M16.511,8.859a1,1,0,0,0,.848,1.132l3,.429a1,1,0,0,0,.283-1.981l-3-.428A1,1,0,0,0,16.511,8.859Z"/>
        <path d="M20.359,16.582l-3,.429a1,1,0,0,0,.283,1.98l3-.429a1,1,0,0,0-.283-1.98Z"/>
        <path d="M20.5,12.5h-3a1,1,0,0,0,0,2h3a1,1,0,0,0,0-2Z"/>
        <path d="M15,8a1,1,0,0,0-1,1v9.25a1,1,0,0,0,2,0V9A1,1,0,0,0,15,8Z"/>
        <circle cx="16.001" cy="4.001" r="1.25"/>
        <path d="M6.607,8.251l.065,0a1.244,1.244,0,1,0-.065,0Z"/>
        <path d="M4.851,11.491A1.25,1.25,0,1,0,5.51,9.85,1.247,1.247,0,0,0,4.851,11.491Z"/>
        <path d="M.769,6.724l2.878.8a.968.968,0,0,0,.232.028A1,1,0,0,0,4.11,5.582l-2.878-.8A1,1,0,1,0,.769,6.724Z"/>
        <path d="M12.514,7.547,9.161,6.5a1,1,0,1,0-.6,1.908l3.353,1.048a1,1,0,1,0,.6-1.908Z"/>
        <path d="M1,12H3.5a1,1,0,1,0,0-2H1a1,1,0,0,0,0,2Z"/>
        <path d="M11.815,10.506,8.6,10.184a1,1,0,0,0-.2,1.991l3.215.321c.034,0,.067,0,.1,0a1,1,0,0,0,.1-1.995Z"/>
        <path d="M6.672,18.753a1.25,1.25,0,1,0-.129,2.5l.066,0a1.25,1.25,0,0,0,.063-2.5Z"/>
        <path d="M7.151,16.491a1.25,1.25,0,1,0-1.64.66A1.25,1.25,0,0,0,7.151,16.491Z"/>
        <path d="M3.647,19.475l-2.878.8A1,1,0,0,0,1,22.251a1.036,1.036,0,0,0,.233-.027l2.878-.8a1,1,0,1,0-.463-1.945Z"/>
        <path d="M11.917,17.547,8.564,18.6a1,1,0,1,0,.6,1.908l3.353-1.048a1,1,0,1,0-.6-1.908Z"/>
        <path d="M1,17H3.5a1,1,0,0,0,0-2H1a1,1,0,0,0,0,2Z"/>
        <path d="M11.616,14.506,8.4,14.827a1,1,0,0,0,.1,1.995c.033,0,.066,0,.1,0l3.215-.321a1,1,0,1,0-.2-1.99Z"/>
    </symbol>
	<symbol id="Icon_Eye" name="Eye" xmlns="http://www.w3.org/2000/svg" xmlns:xlink="http://www.w3.org/1999/xlink" viewBox="0 0 24 24" version="1.1">
        <path d="M23.092,9.665C20.463,6.77,16.594,4.2,12.584,4.012,12.389,4,12.2,4,12,4,7.747,4.034,3.876,6.47,1.058,9.5c-.05.054-.1.109-.15.164a3.457,3.457,0,0,0,0,4.669C2.113,15.662,6.471,20,11.872,20h.256c5.4,0,9.759-4.338,10.966-5.667A3.456,3.456,0,0,0,23.092,9.665Zm-1.478,3.322c-2.17,2.388-5.32,4.655-8.642,4.968A8.317,8.317,0,0,1,12,18c-3.63-.085-6.84-2.11-9.286-4.658q-.167-.174-.329-.353a1.476,1.476,0,0,1,0-1.978C4.752,8.4,8.332,5.915,12,6a9.407,9.407,0,0,1,3.747.774,15.249,15.249,0,0,1,3.4,1.977,18.091,18.091,0,0,1,2.47,2.257A1.476,1.476,0,0,1,21.614,12.987Z"/>
		<path d="M12,8a3.9,3.9,0,0,0-.392.02.249.249,0,0,0-.183.385A1.994,1.994,0,0,1,8.5,11.049a.25.25,0,0,0-.4.137A3.584,3.584,0,0,0,8,12a4,4,0,1,0,4-4Z"/>
    </symbol>
	<symbol id="Icon_Ultrasound" name="Basic Ultrasound" xmlns="http://www.w3.org/2000/svg" xmlns:xlink="http://www.w3.org/1999/xlink" viewBox="0 0 24 24" version="1.1"> 
		<g>
			<path id="Combined-Shape" d="M15.5,3.8c0.6,0,1,0.5,1,1v11.3c0,0.6-0.5,1-1,1c-2.2,0-3.9,0-5,0c-2.1,0-5.3,0-9.5,0
				c-0.6,0-1-0.5-1-1V4.8c0-0.6,0.5-1,1-1H15.5z M14.8,5.2H1.8c-0.2,0-0.3,0.2-0.3,0.4l0,0v8.4c0,0.2,0.1,0.4,0.3,0.4l0,0h13.1
				c0.2,0,0.3-0.2,0.3-0.4l0,0V5.5C15.2,5.3,15,5.2,14.8,5.2L14.8,5.2z"/>
			<path id="Path" d="M23.9,5.1c-0.8-0.8-1.9-1.3-3-1.3l0,0c-1.1,0-2.2,0.5-3,1.3c-0.1,0.1-0.1,0.2-0.1,0.4c0,0.1,0.1,0.2,0.3,0.3
				s0.3,0,0.3-0.1c0.6-0.7,1.5-1,2.5-1l0,0c0.9,0,1.8,0.4,2.5,1c0.1,0.2,0.4,0.2,0.5,0C24,5.4,24,5.2,23.9,5.1L23.9,5.1z"/>
			<path id="Path_00000039102310892861173510000011164684234016504193_" d="M19.7,6.7c0.6-0.6,1.6-0.6,2.3,0c0.1,0.1,0.4,0.1,0.5,0
				c0.1-0.1,0.1-0.4,0-0.5c-0.9-0.9-2.4-0.9-3.3,0c-0.1,0.1-0.1,0.2-0.1,0.4c0,0.1,0.1,0.2,0.2,0.3C19.5,6.8,19.6,6.8,19.7,6.7z"/>
			<path id="Path_00000114761100216482018390000007466223055152969913_" d="M9.9,18.3c-0.1-0.1-0.1-0.1-0.2-0.1H7
				c-0.1,0-0.2,0.1-0.2,0.1L5.3,20c-0.1,0.1-0.1,0.3,0,0.4c0,0.1,0.2,0.2,0.3,0.2H11c0.1,0,0.2-0.1,0.3-0.2c0-0.1,0-0.3,0-0.4
				L9.9,18.3z"/>
			<path id="Combined-Shape_00000106105383031122822620000003441763923304504755_" d="M22.8,9.9c-0.3,0.3-0.6,0.9-0.7,2l0,0.2
				c0,0,0,0.1,0,0.1l0,0.2l0,0.2v0.2v0.2V13c0,0,0,0.1,0,0.1v0.2c0,0,0,0.1,0,0.1v0.2v0.2c0,0.1,0,0.1,0,0.2c0,0.4-0.3,0.7-0.7,0.7
				h-0.5c-0.4,0-0.7-0.3-0.7-0.7v-0.2c0,0,0-0.1,0-0.1v-0.2v-0.2v-0.2v-0.2v-0.2l0-0.2l0-0.2l0-0.2l0-0.2l-0.1-0.2l0-0.2
				c0-0.1,0-0.1,0-0.2l0-0.1c0-0.1,0-0.2-0.1-0.3l0-0.1c-0.1-0.6-0.3-0.9-0.5-1.1L22.8,9.9L22.8,9.9z M20.9,11.3
				c-0.1,0-0.2,0.1-0.2,0.3l0,0v0.9c0,0.2,0.1,0.3,0.2,0.3c0.1,0,0.2-0.1,0.2-0.3l0,0v-0.9C21.2,11.4,21.1,11.3,20.9,11.3z"/>
			<path id="Combined-Shape_00000183214610962846984950000010193411316059680136_" d="M20.9,7.8c0.5,0,1.1,0.1,1.6,0.3
				c0.3,0.1,0.4,0.4,0.4,0.7v0.7c0,0.6-0.5,1.1-1.1,1.1h-1.6c-0.6,0-1.1-0.5-1.1-1.1V8.8c0-0.3,0.1-0.5,0.4-0.7
				C19.9,7.9,20.4,7.8,20.9,7.8z M20.9,8.3c-0.4,0-0.9,0.1-1.3,0.3c0,0-0.1,0.1-0.1,0.2v0v0.7c0,0.3,0.3,0.6,0.6,0.6h0h1.6
				c0.3,0,0.6-0.3,0.6-0.6v0V8.8c0-0.1,0-0.1-0.1-0.2C21.8,8.4,21.4,8.3,20.9,8.3z"/>
			<path id="Rectangle_00000175296731252728058060000015615289206613432741_" d="M19,8.9h3.9v0.4c0,0.8-0.6,1.4-1.4,1.4h-1.1
				c-0.8,0-1.4-0.6-1.4-1.4V8.9z"/>
			<path id="Path-3" d="M17.5,14.2c0.5,0,0.9,0.3,1,0.7c0,0.1,0.1,0.2,0.1,0.4c0,0.1,0,0.1,0,0.1v0.1v0.1v2c0,0.6,0.4,1,1,1s1-0.4,1-1
				v-0.1v-3h0.5v2.9c0,0.9-0.7,1.5-1.5,1.5c-0.8,0-1.5-0.6-1.5-1.5v-0.1v-2c0-0.2,0-0.3-0.1-0.4c-0.1-0.2-0.2-0.3-0.5-0.3h0h-1.6v-0.5
				h1.1H17.5z"/>
			<g id="pregnancy-ultrasound" transform="translate(14.999778, 30.000000)">
				<path id="Shape" d="M-5.2-22.6c-0.1-0.1-0.2-0.1-0.3,0c-0.8,0.6-1.9,0.6-2.6,0c-0.1-0.1-0.2-0.1-0.3,0l-2.6,2.7
					c0,0.1-0.1,0.1-0.1,0.2s0,0.2,0.1,0.2c2.4,2.3,6.1,2.3,8.5,0c0-0.1,0.1-0.1,0.1-0.2s0-0.2-0.1-0.2L-5.2-22.6z M-5.5-19.2
					c-0.9,0.5-1.9,0.5-2.7,0c-0.2-0.1-0.3-0.4-0.2-0.6c0.1-0.2,0.4-0.3,0.6-0.2c0.6,0.4,1.3,0.4,2,0c0.2-0.1,0.5,0,0.6,0.2
					C-5.2-19.6-5.3-19.3-5.5-19.2L-5.5-19.2z"/>
			</g>
		</g>
    </symbol>

<symbol id="Icon_Echocardiogram" name="Echocardiogram" mlns="http://www.w3.org/2000/svg" xmlns:xlink="http://www.w3.org/1999/xlink" viewBox="0 0 24 24" version="1.1">
	<g>
		<path id="Combined-Shape" d="M15.5,3.7c0.6,0,1,0.5,1,1V16c0,0.6-0.5,1-1,1H1c-0.6,0-1-0.5-1-1V4.8c0-0.6,0.4-1,1-1H15.5z
			 M14.8,5.1H1.7c-0.2,0-0.3,0.2-0.3,0.4l0,0v8.4c0,0.2,0.1,0.4,0.3,0.4l0,0h13.1c0.2,0,0.3-0.2,0.3-0.4l0,0V5.5
			C15.1,5.3,15,5.1,14.8,5.1L14.8,5.1z"/>
		<path id="Path" d="M9.7,7.2c-0.5-0.1-1,0.1-1.3,0.4L8.4,7.7c0,0,0,0.1-0.1,0.1c0,0-0.1,0-0.1-0.1L8.1,7.7c-0.6-0.6-1.5-0.6-2.1,0
			c-0.6,0.6-0.6,1.6,0,2.2l1.9,2.1C8,12,8.1,12.1,8.3,12.1c0.1,0,0.3-0.1,0.4-0.2l0,0l1.9-2.1c0.4-0.4,0.5-1,0.4-1.6
			C10.8,7.7,10.3,7.3,9.7,7.2L9.7,7.2z"/>
		<path id="Path_00000047770985160900975890000008584438815899893399_" d="M23.8,5c-0.8-0.8-1.9-1.3-3-1.3l0,0c-1.1,0-2.2,0.5-3,1.3
			c-0.1,0.1-0.1,0.2-0.1,0.4c0,0.1,0.1,0.2,0.3,0.3c0.1,0.1,0.3,0,0.3-0.1c0.6-0.7,1.5-1,2.5-1l0,0c0.9,0,1.8,0.4,2.5,1
			c0.1,0.2,0.4,0.2,0.5,0C24,5.4,23.9,5.1,23.8,5L23.8,5z"/>
		<path id="Path_00000067918928351750006680000003627968868799675804_" d="M19.7,6.7c0.6-0.6,1.6-0.6,2.3,0c0.1,0.1,0.4,0.1,0.5,0
			c0.1-0.1,0.1-0.4,0-0.5c-0.9-0.9-2.4-0.9-3.3,0C19,6.2,19,6.4,19,6.5c0,0.1,0.1,0.2,0.2,0.3C19.4,6.8,19.6,6.7,19.7,6.7z"/>
		<path id="Path_00000065038059878808203720000010931495350404401555_" d="M9.8,18.2c-0.1-0.1-0.1-0.1-0.2-0.1H6.9
			c-0.1,0-0.2,0.1-0.2,0.1L5.2,20c-0.1,0.1-0.1,0.3,0,0.4c0,0.1,0.2,0.2,0.3,0.2H11c0.1,0,0.2-0.1,0.3-0.2c0-0.1,0-0.3,0-0.4
			L9.8,18.2z"/>
		<path id="Combined-Shape_00000176727338392808865570000017373965045190631605_" d="M22.7,9.9c-0.3,0.3-0.6,0.9-0.7,2l0,0.2
			c0,0,0,0.1,0,0.1l0,0.2l0,0.2v0.2v0.2v0.2c0,0,0,0.1,0,0.1v0.2c0,0,0,0.1,0,0.1v0.2v0.2c0,0.1,0,0.1,0,0.2c0,0.4-0.3,0.7-0.7,0.7
			h-0.5c-0.4,0-0.7-0.3-0.7-0.7v-0.2c0,0,0-0.1,0-0.1v-0.2v-0.2V13v-0.2v-0.2l0-0.2l0-0.2l0-0.2l0-0.2l-0.1-0.2l0-0.2
			c0-0.1,0-0.1,0-0.2l0-0.1c0-0.1,0-0.2-0.1-0.3l0-0.1c-0.1-0.6-0.3-0.9-0.5-1.1L22.7,9.9L22.7,9.9z M20.9,11.3
			c-0.1,0-0.2,0.1-0.2,0.3l0,0v0.9c0,0.2,0.1,0.3,0.2,0.3c0.1,0,0.2-0.1,0.2-0.3l0,0v-0.9C21.1,11.4,21,11.3,20.9,11.3z"/>
		<path id="Combined-Shape_00000138562256042955692640000018258602760456083377_" d="M20.8,7.8c0.5,0,1.1,0.1,1.6,0.3
			c0.3,0.1,0.4,0.4,0.4,0.7v0.7c0,0.6-0.5,1.1-1.1,1.1h-1.6c-0.6,0-1.1-0.5-1.1-1.1V8.8c0-0.3,0.1-0.5,0.4-0.7
			C19.8,7.9,20.3,7.8,20.8,7.8z M20.8,8.3c-0.4,0-0.9,0.1-1.3,0.3c0,0-0.1,0.1-0.1,0.2v0v0.7c0,0.3,0.3,0.6,0.6,0.6h0h1.6
			c0.3,0,0.6-0.3,0.6-0.6v0V8.8c0-0.1,0-0.1-0.1-0.2C21.8,8.4,21.3,8.3,20.8,8.3z"/>
		<path id="Rectangle_00000036971265693608852410000012927221524280623788_" d="M18.9,8.8h3.9v0.4c0,0.8-0.6,1.4-1.4,1.4h-1.1
			c-0.8,0-1.4-0.6-1.4-1.4V8.8z"/>
		<path id="Path-3" d="M17.5,14.2c0.5,0,0.9,0.3,1,0.7c0,0.1,0.1,0.2,0.1,0.4c0,0.1,0,0.1,0,0.1v0.1v0.1v2c0,0.6,0.4,1,1,1
			c0.6,0,1-0.4,1-1v-0.1v-3h0.5v2.9c0,0.9-0.7,1.5-1.5,1.5c-0.8,0-1.5-0.6-1.5-1.5v-0.1v-2c0-0.2,0-0.3-0.1-0.4
			c-0.1-0.2-0.2-0.3-0.5-0.3h0h-1.6v-0.5h1.1H17.5z"/>
	</g>
</symbol>

    <symbol id="cancel" name="No study visit" xmlns="http://www.w3.org/2000/svg" xmlns:xlink="http://www.w3.org/1999/xlink"
            viewBox="0 0 24 24" version="1.1">
        <path d="M20.485,3.534a12,12,0,0,0-16.97,16.98,12.136,12.136,0,0,0,16.684.277,12.072,12.072,0,0,0,2.471-3.26,11.936,11.936,0,0,0,1.2-3.744A12.238,12.238,0,0,0,24,12.024,11.932,11.932,0,0,0,20.485,3.534ZM5.292,5.292a9.623,9.623,0,0,1,12.23-1.023.264.264,0,0,1,.031.4L4.667,17.561a.265.265,0,0,1-.4-.031A9.5,9.5,0,0,1,5.292,5.292ZM18.749,18.756A9.518,9.518,0,0,1,6.518,19.779a.264.264,0,0,1-.032-.4L19.373,6.486a.265.265,0,0,1,.4.031,9.5,9.5,0,0,1-1.023,12.239Z"/>
    </symbol>
    <symbol id="clickboard" name="Questionnaires" xmlns="http://www.w3.org/2000/svg" xmlns:xlink="http://www.w3.org/1999/xlink"
            viewBox="0 0 24 24" version="1.1">
        <path d="M6.47,10.97a.75.75,0,1,0,1.06,1.06l1-1a.681.681,0,0,1,.94,0,2.215,2.215,0,0,0,3.06,0,.681.681,0,0,1,.94,0,2.215,2.215,0,0,0,3.06,0l1-1a.75.75,0,0,0-1.06-1.06l-1,1a.681.681,0,0,1-.94,0,2.215,2.215,0,0,0-3.06,0,.681.681,0,0,1-.94,0,2.215,2.215,0,0,0-3.06,0Z"/>
        <path d="M11.47,14.97a.681.681,0,0,1-.94,0,2.215,2.215,0,0,0-3.06,0l-1,1a.75.75,0,1,0,1.06,1.06l1-1a.681.681,0,0,1,.94,0,2.216,2.216,0,0,0,3.061,0A.654.654,0,0,1,13,15.836a.75.75,0,0,0,0-1.5A2.141,2.141,0,0,0,11.47,14.97Z"/>
        <path d="M10,6.5h4a1,1,0,0,0,1-1V3A3.008,3.008,0,0,0,11.192.107,3.047,3.047,0,0,0,9,3.088V5.5A1,1,0,0,0,10,6.5Zm1.25-3.75A.75.75,0,1,1,12,3.5.75.75,0,0,1,11.25,2.75Z"/>
        <path d="M19.5,3H16.75a.25.25,0,0,0-.25.25v1.5a.25.25,0,0,0,.25.25H19a.5.5,0,0,1,.5.5V18.337a.5.5,0,0,1-.146.353l-3.163,3.163a.5.5,0,0,1-.354.147H5a.5.5,0,0,1-.5-.5V5.5A.5.5,0,0,1,5,5H7.25a.25.25,0,0,0,.25-.25V3.25A.25.25,0,0,0,7.25,3H4.5a2,2,0,0,0-2,2V22a2,2,0,0,0,2,2h15a2,2,0,0,0,2-2V5A2,2,0,0,0,19.5,3Z"/>
    </symbol>
    <symbol id="health_checkup" name="Physical examination" xmlns="http://www.w3.org/2000/svg" xmlns:xlink="http://www.w3.org/1999/xlink"
            viewBox="0 0 24 24" version="1.1">
        <path d="M5.5,10a5,5,0,1,0-5-5A5.006,5.006,0,0,0,5.5,10Zm0-8a3,3,0,1,1-3,3A3,3,0,0,1,5.5,2Z"/>
        <path d="M5.5,6.3H6.586a.75.75,0,0,0,0-1.5H6.25V3.934a.75.75,0,0,0-1.5,0V5.553A.75.75,0,0,0,5.5,6.3Z"/>
        <path d="M14.5,17.646a.251.251,0,0,0-.182-.241,2.506,2.506,0,0,1-1.808-2.178A.249.249,0,0,0,12.261,15H7.734L5.117,11.325A2,2,0,0,0,1.88,13.674l3.216,4.5A2.007,2.007,0,0,0,6.713,19H14.25a.25.25,0,0,0,.25-.25Z"/>
        <path d="M22.5,20h-.75a.25.25,0,0,0-.25.25V23a2.437,2.437,0,0,1-.1.681.252.252,0,0,0,.041.219.249.249,0,0,0,.2.1H23a.5.5,0,0,0,.5-.5V21A1,1,0,0,0,22.5,20Z"/>
        <path d="M14.5,23V20.25a.25.25,0,0,0-.25-.25H2a1,1,0,0,0-1,1v2.5a.5.5,0,0,0,.5.5H14.356a.252.252,0,0,0,.2-.1.248.248,0,0,0,.04-.219A2.473,2.473,0,0,1,14.5,23Z"/>
        <circle cx="18" cy="3.5" r="2.5"/>
        <path d="M20,23V16h1a1,1,0,0,0,1-1V10a2,2,0,0,0-2-2H16a2,2,0,0,0-2,2v5a1,1,0,0,0,1,1h1v7a1,1,0,0,0,1,1h2A1,1,0,0,0,20,23Z"/>
    </symbol>
    <symbol id="heart_pulse" name="Vital signs" xmlns="http://www.w3.org/2000/svg" xmlns:xlink="http://www.w3.org/1999/xlink"
            viewBox="0 0 24 24" version="1.1">
        <path d="M21.566,12.133H16.431a.5.5,0,0,0-.457.3l-1.159,2.606a1.5,1.5,0,0,1-1.358.891h-.015a1.5,1.5,0,0,1-1.357-.868l-2.1-4.489a.251.251,0,0,0-.435-.033l-.618.929a1.5,1.5,0,0,1-1.249.668H2.434a.25.25,0,0,0-.179.424l9,9.263a1.046,1.046,0,0,0,1.5,0l9-9.263a.25.25,0,0,0-.179-.424Z"/>
        <path d="M23.361,5.166A6.093,6.093,0,0,0,13.67,3.614L12.337,4.829a.5.5,0,0,1-.674,0L10.33,3.614A6.093,6.093,0,0,0,.639,5.166,5.9,5.9,0,0,0,.336,9.8a.5.5,0,0,0,.471.335H7.153a.5.5,0,0,0,.416-.223L8.631,8.318a1.482,1.482,0,0,1,1.362-.664,1.5,1.5,0,0,1,1.246.861L13.2,12.722a.25.25,0,0,0,.455,0l.754-1.7a1.5,1.5,0,0,1,1.37-.89h7.411a.5.5,0,0,0,.472-.334A5.9,5.9,0,0,0,23.361,5.166Z"/>
    </symbol>
    <symbol id="leg" name="Joint assessment"  xmlns="http://www.w3.org/2000/svg" xmlns:xlink="http://www.w3.org/1999/xlink" viewBox="0 0 24 24" version="1.1">
        <path d="M15.573,2.476,1.587.007a.505.505,0,0,0-.408.11A.5.5,0,0,0,1,.5V4.683a.5.5,0,0,0,.391.488l14.283,3.2a1,1,0,0,0,.681-.088A2.464,2.464,0,0,1,17.5,8a2.5,2.5,0,1,1-2.177,3.709,1,1,0,0,0-.656-.492L1.609,8.3A.5.5,0,0,0,1,8.783V12.5A.5.5,0,0,0,1.433,13l9.27,1.264A1.506,1.506,0,0,1,12,15.746V23.5a.5.5,0,0,0,.5.5H16a.5.5,0,0,0,.5-.5V21.307a15.523,15.523,0,0,0-1.115-5.827.5.5,0,0,1,.584-.665,6.333,6.333,0,0,0,3.035,0,.5.5,0,0,1,.585.663A15.636,15.636,0,0,0,18.5,21.307V23.5a.5.5,0,0,0,.5.5h3.5a.5.5,0,0,0,.5-.5V12.468C23,7.4,20.165,3.568,15.573,2.476Z"/>
    </symbol>
    <symbol id="lungs" name="Lung function test"  xmlns="http://www.w3.org/2000/svg" xmlns:xlink="http://www.w3.org/1999/xlink" viewBox="0 0 24 24" version="1.1">
        <path d="M14.32,14.468a.5.5,0,0,1,.18.384v4.2a3.17,3.17,0,0,0,1.55,2.734c1.583.936,4,2.216,5.34,2.216a2.112,2.112,0,0,0,2.11-2.153C23.246,9,18.517,5.038,16.019,3.837a1.061,1.061,0,0,0-1.519.956V11.48a.25.25,0,0,1-.41.192l-.91-.758A.5.5,0,0,1,13,10.53V1a1,1,0,0,0-2,0v9.53a.5.5,0,0,1-.18.384l-.91.758a.25.25,0,0,1-.41-.192V4.793a1.06,1.06,0,0,0-1.519-.956C5.483,5.038.755,9,.5,21.847A2.112,2.112,0,0,0,2.61,24c1.345,0,3.757-1.28,5.34-2.216A3.17,3.17,0,0,0,9.5,19.05v-4.2a.5.5,0,0,1,.18-.384l2-1.667a.5.5,0,0,1,.64,0Z"/>
    </symbol>
    <symbol id="pills" name="Receive study medication" xmlns="http://www.w3.org/2000/svg" xmlns:xlink="http://www.w3.org/1999/xlink" viewBox="0 0 24 24" version="1.1">
        <path d="M21.89,2.113a7.218,7.218,0,0,0-10.2,0L2.12,11.687A7.2,7.2,0,0,0,7.21,24h0a7.156,7.156,0,0,0,5.095-2.105l9.581-9.581a7.231,7.231,0,0,0,0-10.2ZM20.476,10.9,16.75,14.622a.5.5,0,0,1-.707,0L9.382,7.961a.5.5,0,0,1,0-.707l3.726-3.727a5.2,5.2,0,0,1,8.885,3.692A5.159,5.159,0,0,1,20.476,10.9Z"/>
        <path d="M16.634,3.159a4.091,4.091,0,0,0-2.91,1.205.75.75,0,0,0,1.06,1.061,2.678,2.678,0,0,1,3.7,0,.75.75,0,0,0,1.061-1.061A4.09,4.09,0,0,0,16.634,3.159Z"/>
    </symbol>
    <symbol id="pregnant" name="Pregnancy test"  xmlns="http://www.w3.org/2000/svg" xmlns:xlink="http://www.w3.org/1999/xlink" viewBox="0 0 24 24" version="1.1">
        <g id="pregnancy" stroke="none" stroke-width="1" fill-rule="evenodd">
            <path d="M15.2476245,8.00617225 C15.4267631,7.98534087 15.6098372,8.01771157 15.7563458,8.09612309 C16.8105221,8.66953508 17.5474012,9.50247445 17.831789,10.4421231 L17.831789,10.4421231 L19.9835954,17.4551231 C20.0287094,17.6032336 19.9796528,17.7583539 19.850246,17.8767831 C19.7208391,17.9952122 19.5250895,18.0641309 19.3181445,18.0641231 L19.3181445,18.0641231 L17.1363383,18.0641231 C16.7901038,18.0679318 16.5027485,18.2614579 16.4681601,18.5141231 L16.4681601,18.5141231 L15.9090722,22.6141231 C15.8739302,22.8705737 15.5787182,23.0654147 15.2272578,23.0641295 L15.2272578,23.0641295 L9.7727422,23.0641295 C9.4212818,23.0654147 9.12606982,22.8705737 9.09092775,22.6141231 L9.09092775,22.6141231 L8.54547619,18.5141231 C8.51033412,18.2576724 8.21512214,18.0628315 7.86366174,18.0641231 L7.86366174,18.0641231 L5.6818555,18.0641231 C5.47491048,18.0641309 5.27916089,17.9952122 5.14975405,17.8767831 C5.02034721,17.7583539 4.97129058,17.6032336 5.0164046,17.4551231 L5.0164046,17.4551231 L7.168211,10.4421231 C7.45435023,9.50173482 8.19374416,8.66868945 9.25047233,8.09612309 C9.39698097,8.01771157 9.58005502,7.98534087 9.75919366,8.00617225 C9.9383323,8.02700363 10.0987696,8.09932001 10.2050126,8.20712309 L10.2050126,8.20712309 L12.2190924,10.2791231 C12.2827763,10.3448708 12.3859376,10.3839288 12.4959091,10.3839288 C12.6058806,10.3839288 12.709042,10.3448708 12.7727258,10.2791231 L12.7727258,10.2791231 L14.8018056,8.20712309 C14.9080486,8.09932001 15.0684858,8.02700363 15.2476245,8.00617225 Z M12.5,11 C10.5670034,11 9,12.5670034 9,14.5 C9,16.4329966 10.5670034,18 12.5,18 C14.4329966,18 16,16.4329966 16,14.5 C16,12.5670034 14.4329966,11 12.5,11 Z" id="Combined-Shape" fill-rule="nonzero"></path>
            <path d="M14.5851465,15.2558346 C14.9609638,14.9054023 15.0947586,14.387891 14.9315479,13.9159726 C14.7683372,13.4440543 14.3356515,13.0973329 13.8113038,13.018294 C13.361998,12.9472907 12.9038579,13.0855223 12.5840228,13.3885933 C12.5374858,13.4299136 12.4644241,13.4299136 12.4178871,13.3885933 C11.8659819,12.8716806 10.9697687,12.8703751 10.4161388,13.3856775 C9.86250893,13.9009799 9.86111078,14.7377556 10.413016,15.2546683 L11.9994249,16.8005948 C12.1307123,16.9280028 12.3119074,17 12.5012672,17 C12.6906271,17 12.8718222,16.9280028 13.0031096,16.8005948 L14.5851465,15.2558346 Z" id="Path" fill-rule="nonzero"></path>
            <circle id="Oval" cx="12.5" cy="4.5" r="3.5"></circle>
        </g>
    </symbol>
    <symbol id="pulse_filled" name="Electrocardiogram (ECG)"  xmlns="http://www.w3.org/2000/svg" xmlns:xlink="http://www.w3.org/1999/xlink" viewBox="0 0 24 24" version="1.1">
        <path d="M19.354,14.531A2.807,2.807,0,0,1,16.8,13.063a.5.5,0,0,0-.9.164l-1.4,5.852a1.5,1.5,0,0,1-2.93-.049L9.521,9.049a.5.5,0,0,0-.98.009,24.423,24.423,0,0,1-.749,3.062,3.108,3.108,0,0,1-1.938,2.294,3.678,3.678,0,0,1-.98.117H.5a.5.5,0,0,0-.5.5V21.5A2.5,2.5,0,0,0,2.5,24h19A2.5,2.5,0,0,0,24,21.5v-6.47a.5.5,0,0,0-.5-.5Z"/>
        <path d="M4.874,12.531c.822,0,1-.3,1.866-4.851.213-1.115.464-2.433.788-3.985a1.5,1.5,0,0,1,2.937,0l2.16,10.533a.5.5,0,0,0,.976.016l1.06-4.419a1.5,1.5,0,0,1,2.853-.205c.119.3.228.594.333.88.6,1.622.836,2.03,1.507,2.03H23.5a.5.5,0,0,0,.5-.5V2.5A2.5,2.5,0,0,0,21.5,0H2.5A2.5,2.5,0,0,0,0,2.5v9.53a.5.5,0,0,0,.5.5Z"/>
    </symbol>
    <symbol id="question" name="Questions about your health and medications"  xmlns="http://www.w3.org/2000/svg" xmlns:xlink="http://www.w3.org/1999/xlink" viewBox="0 0 24 24" version="1.1">
        <path d="M22,1.5H2A1.5,1.5,0,0,0,.5,3V16.552A1.459,1.459,0,0,0,2,18H5v4a.5.5,0,0,0,.785.411L12.156,18H22a1.5,1.5,0,0,0,1.5-1.5V3A1.5,1.5,0,0,0,22,1.5Zm-8.75,9.056V11a.75.75,0,0,1-1.5,0v-.444A2.085,2.085,0,0,1,13,8.646,1.25,1.25,0,1,0,11.25,7.5a.75.75,0,0,1-1.5,0,2.75,2.75,0,1,1,3.85,2.521A.584.584,0,0,0,13.25,10.556ZM13.5,13.5a1,1,0,1,1-1-1A1,1,0,0,1,13.5,13.5Z"/>
    </symbol>
    <symbol id="stethoscope" name="Lung health check" xmlns="http://www.w3.org/2000/svg" xmlns:xlink="http://www.w3.org/1999/xlink" viewBox="0 0 24 24" version="1.1">
        <path d="M19.207,15.23c-.151.013-.3.02-.457.02s-.306-.007-.457-.02a.5.5,0,0,0-.543.5V16.75a5.25,5.25,0,0,1-10.5,0V13.91a6.006,6.006,0,0,0,5-5.91V5A3.994,3.994,0,0,0,9.363,1.173a.156.156,0,0,1-.113-.15V1a1,1,0,0,0-2,0V3.5a1,1,0,0,0,2,0,.119.119,0,0,1,.066-.107.12.12,0,0,1,.125.011A1.986,1.986,0,0,1,10.25,5V8a4,4,0,0,1-8,0V5a1.986,1.986,0,0,1,.809-1.6.12.12,0,0,1,.125-.011A.119.119,0,0,1,3.25,3.5a1,1,0,0,0,2,0V1a1,1,0,0,0-2,0v.023a.155.155,0,0,1-.113.15A3.994,3.994,0,0,0,.25,5V8a6.006,6.006,0,0,0,5,5.91v2.84a7.25,7.25,0,0,0,14.5,0V15.729a.5.5,0,0,0-.543-.5Z"/>
        <path d="M18.75,4.25a5,5,0,1,0,5,5A5.006,5.006,0,0,0,18.75,4.25Zm0,8a3,3,0,1,1,3-3A3,3,0,0,1,18.75,12.25Z"/>
        <circle cx="18.75" cy="9.25" r="1.5"/>
    </symbol>
    <symbol id="syringe" name="Receive study medication"  xmlns="http://www.w3.org/2000/svg" xmlns:xlink="http://www.w3.org/1999/xlink" viewBox="0 0 24 24" version="1.1">
        <path d="M8.5,2h1a.5.5,0,0,1,.5.5V3a.5.5,0,0,0,.5.5h3A.5.5,0,0,0,14,3V2.5a.5.5,0,0,1,.5-.5h1a1,1,0,0,0,0-2h-7a1,1,0,0,0,0,2Z"/>
        <path d="M18.5,5H5.5a1,1,0,0,0,0,2H7.751A.249.249,0,0,1,8,7.25v1a.5.5,0,0,0,.5.5h3a.75.75,0,0,1,0,1.5h-3a.5.5,0,0,0-.5.5v1.5a.5.5,0,0,0,.5.5h3a.75.75,0,0,1,0,1.5h-3a.5.5,0,0,0-.5.5v.75a4.5,4.5,0,0,0,2.6,4.192.25.25,0,0,1,.152.23V22.75a1.25,1.25,0,0,0,2.5,0V19.922a.251.251,0,0,1,.153-.23A4.5,4.5,0,0,0,16,15.5V7.25A.25.25,0,0,1,16.25,7H18.5a1,1,0,0,0,0-2Z"/>
    </symbol>
    <symbol id="test_tube" name="Blood tests"  xmlns="http://www.w3.org/2000/svg" xmlns:xlink="http://www.w3.org/1999/xlink" viewBox="0 0 24 24" version="1.1">
        <g id="blood-sample-copy" stroke="none" stroke-width="1" fill-rule="evenodd">
            <g id="Group-13" transform="translate(-2.000000, -1.500000)">
                <path d="M22.9644742,11.3444812 C22.8981435,11.2456659 22.7912767,11.187057 22.6774287,11.187057 C22.5635807,11.187057 22.4567139,11.2456659 22.3903833,11.3444812 C22.3658378,11.384893 19.950156,15.4541057 19.950156,17.0017681 C19.950156,18.6103315 21.1711976,19.9143297 22.6774287,19.9143297 C24.1836598,19.9143297 25.4047014,18.6103315 25.4047014,17.0017681 C25.4047014,15.4544698 22.9890196,11.384893 22.9644742,11.3444812 Z" id="Shape" fill-rule="nonzero"/>
                <path d="M19.0574285,10.0491239 C13.6255644,18.5606695 10.2057973,23.1340057 8.79812727,23.7691327 C6.24872639,24.9193975 3.84523696,22.4331162 3.43169692,20.4875632 C3.19856923,19.3907837 4.61311938,16.7177493 7.67534736,12.46846 L16.4419582,10.6051239 L8.41092465,21.1573566 C8.40898135,21.1599099 8.40705296,21.1624745 8.40513957,21.1650502 L8.3994445,21.1728106 C8.13156081,21.5423355 8.21395734,22.0590573 8.5834823,22.326941 C8.964271,22.6029902 9.49579128,22.524571 9.78063565,22.1503159 L9.78063565,22.1503159 L18.9779582,10.0661239 L19.0574285,10.0491239 Z" id="Combined-Shape"/>
                <path d="m 14.914316,1.3407131 c -0.444166,0.048052 -0.862664,0.2176118 -1.19569,0.4338601 -0.333026,0.2162483 -0.616358,0.4880736 -0.831581,0.8316949 -0.215224,0.3436215 -0.381689,0.7970434 -0.270236,1.3213889 0.07534,0.3544454 0.241985,0.6294061 0.327902,0.7629508 0.08592,0.133545 0.06043,0.1152031 0.0417,0.027079 -0.03746,-0.1762489 0.04877,-0.014115 -0.516856,0.8187106 -0.542238,0.7983864 -2.392087,3.1619061 -4.1713296,5.42927 -1.7792432,2.267365 -3.4567387,4.382059 -4.024566,5.274276 -0.05157,0.08103 -0.5251403,0.722686 -0.943072,1.434453 -0.4179316,0.711766 -0.8654996,1.53567 -0.8924813,2.517924 -0.034619,1.260283 0.2595748,2.171942 0.6143404,2.758728 0.7390901,1.222462 1.7777411,1.941716 2.7772958,2.263035 0.9995549,0.321321 1.9363695,0.28249 2.6629083,0.08093 1.2166765,-0.337532 1.7942864,-1.249747 2.5815974,-2.058286 1.142774,-1.173584 3.18481,-3.95781 5.219678,-6.678437 1.017434,-1.360313 2.014863,-2.688487 2.834955,-3.731509 0.82009,-1.043022 1.579426,-1.868072 1.663743,-1.933076 0.562167,-0.433398 0.770407,-0.449292 1.155064,-0.531053 0.384657,-0.08176 1.152103,-0.35123 1.598647,-1.0087177 0.498164,-0.7334906 0.508203,-1.74327 0.112827,-2.4001248 C 23.332074,6.4104133 22.865667,6.0520487 22.37206,5.7457976 21.979702,5.5023646 20.6525,4.6009301 19.359336,3.718502 18.066172,2.8360736 16.806343,1.9742923 16.272483,1.6430665 15.828675,1.3677126 15.358482,1.2926613 14.914316,1.3407131 Z m 0.303347,2.0001704 c 0.392358,0.2434329 1.719966,1.146778 3.013131,2.029206 1.293163,0.8824284 2.552992,1.7442098 3.086852,2.0754356 0.345059,0.2140865 0.566262,0.4371682 0.627832,0.5394579 0.07443,0.1236466 0.118392,-0.0084 -0.05374,0.245044 -0.165864,0.2442168 0.02478,0.09457 -0.359874,0.1763314 -0.384657,0.081761 -1.140821,0.2720714 -1.960377,0.9039006 -0.606543,0.4676088 -1.172284,1.209458 -2.015036,2.281301 -0.842752,1.071844 -1.843921,2.407081 -2.862846,3.769387 C 12.655754,18.085558 10.47484,20.986325 9.6416302,21.842 8.7547388,22.752804 8.2993193,23.273358 7.9591887,23.367717 7.626704,23.459957 7.0254768,23.496844 6.4411527,23.309005 5.8568287,23.121167 5.2643406,22.74502 4.7634013,21.916462 4.6367152,21.706921 4.411236,21.164819 4.4364539,20.246779 4.4439832,19.972685 4.7067103,19.278896 5.0550741,18.685608 5.4034378,18.09232 5.7519715,17.64188 5.961349,17.312889 6.2939872,16.79022 8.0938651,14.467151 9.872562,12.200484 11.651258,9.9338164 13.441569,7.6653283 14.124148,6.6603067 14.783336,5.6897243 15.097845,5.031748 14.942703,4.3018631 14.86634,3.9426027 14.698313,3.7213139 14.631858,3.6191508 c 0.04174,-0.050677 0.09166,-0.1123847 0.176111,-0.1672231 0.217138,-0.1409975 0.371091,-0.1349949 0.409694,-0.1110442 z" id="Path-5"/>
            </g>
        </g>
    </symbol>
    <symbol id="urine_collection" name="Urine tests"  xmlns="http://www.w3.org/2000/svg" xmlns:xlink="http://www.w3.org/1999/xlink" viewBox="0 0 24 24" version="1.1">
        <g id="urine-sample" stroke="none" stroke-width="1" fill-rule="evenodd">
            <g id="drugs-pills-box" transform="translate(4.000000, 0.000000)" fill-rule="nonzero">
                <path d="M14.5714286,0.6 L2.42857143,0.6 C1.08730846,0.6 0,1.6745166 0,3 L0,3.6 C0,4.2627417 0.543654232,4.8 1.21428571,4.8 L15.7857143,4.8 C16.4563458,4.8 17,4.2627417 17,3.6 L17,3 C17,1.6745166 15.9126915,0.6 14.5714286,0.6 Z" id="Path"></path>
                <path d="M14.5714286,6.6 L2.42857143,6.6 C1.75793995,6.6 1.21428571,7.1372583 1.21428571,7.8 L1.21428571,20.4 C1.21428571,22.0568542 2.5734213,23.4 4.25,23.4 L12.75,23.4 C14.4265787,23.4 15.7857143,22.0568542 15.7857143,20.4 L15.7857143,7.8 C15.7857143,7.1372583 15.2420601,6.6 14.5714286,6.6 Z M12.75,16.2 C12.75,16.5313708 12.4781729,16.8 12.1428571,16.8 L4.85714286,16.8 C4.52182712,16.8 4.25,16.5313708 4.25,16.2 L4.25,12 C4.25,11.6686292 4.52182712,11.4 4.85714286,11.4 L12.1428571,11.4 C12.4781729,11.4 12.75,11.6686292 12.75,12 L12.75,16.2 Z" id="Shape"></path>
            </g>
        </g>
    </symbol>
    <symbol id="xray" name="Chest X-rays" xmlns="http://www.w3.org/2000/svg" xmlns:xlink="http://www.w3.org/1999/xlink" viewBox="0 0 24 24" version="1.1">
        <path d="M18.5,8.5H5.5A1.5,1.5,0,0,0,4,10v8a1.5,1.5,0,0,0,1.5,1.5h13A1.5,1.5,0,0,0,20,18V10A1.5,1.5,0,0,0,18.5,8.5Zm-.783,3.468A.751.751,0,0,1,17,12.5a.739.739,0,0,1-.22-.033l-1.616-.494a10.793,10.793,0,0,0-2.14-.421.25.25,0,0,0-.274.249v1.26a.249.249,0,0,0,.223.248,8.742,8.742,0,0,1,2.2.535l1.309.507a.75.75,0,0,1-.271,1.449.761.761,0,0,1-.271-.051l-1.309-.507a7.181,7.181,0,0,0-1.593-.412.249.249,0,0,0-.2.058.254.254,0,0,0-.086.189V16.25a.25.25,0,0,0,.25.25h1A.75.75,0,0,1,14,18H10a.75.75,0,0,1,0-1.5h1a.25.25,0,0,0,.25-.25V15.076a.249.249,0,0,0-.285-.247,7.181,7.181,0,0,0-1.593.412l-1.309.507a.75.75,0,0,1-.542-1.4l1.309-.507a8.742,8.742,0,0,1,2.2-.535.249.249,0,0,0,.223-.248V11.8a.25.25,0,0,0-.274-.249,10.793,10.793,0,0,0-2.14.421l-1.616.494a.75.75,0,0,1-.44-1.434L8.4,10.538a12.379,12.379,0,0,1,7.208,0l1.616.494A.75.75,0,0,1,17.717,11.968Z"/>
        <path d="M14.083,21H9.917a.5.5,0,0,0-.5.521l.083,2A.5.5,0,0,0,10,24h4a.5.5,0,0,0,.5-.479l.083-2a.5.5,0,0,0-.5-.521Z"/>
        <circle cx="12" cy="3.5" r="3.5"/>
    </symbol>
    <symbol id="laboratory-test-stool-cup" name="Stool sample" xmlns="http://www.w3.org/2000/svg" xmlns:xlink="http://www.w3.org/1999/xlink" viewBox="0 0 24 24" version="1.1">
        <path d="M22.5.25H1.5A1.5,1.5,0,0,0,0,1.75v2a.5.5,0,0,0,.5.5h23a.5.5,0,0,0,.5-.5v-2A1.5,1.5,0,0,0,22.5.25Z"/>
        <path d="M8.182,16.25A2.1,2.1,0,0,0,6,18.25a2.1,2.1,0,0,0,2.182,2h7.636a2.1,2.1,0,0,0,2.182-2,2.1,2.1,0,0,0-2.182-2A.2.2,0,0,1,15.7,15.9a1.368,1.368,0,0,0,.266-.28c1.958-2.758-.984-5.1-2.412-6.111a.25.25,0,0,0-.395.205,2.679,2.679,0,0,1-2.665,2.679H9.642a1.982,1.982,0,0,0-1.967,1.546,1.945,1.945,0,0,0,.663,1.884.244.244,0,0,1-.156.431Z"/>
        <path d="M22,5.75H21a.5.5,0,0,0-.5.5v13.5a2,2,0,0,1-2,2H5.5a2,2,0,0,1-2-2V6.25a.5.5,0,0,0-.5-.5H2a.5.5,0,0,0-.5.5v13.5a4,4,0,0,0,4,4h13a4,4,0,0,0,4-4V6.25A.5.5,0,0,0,22,5.75Z"/>
    </symbol>
    <symbol id="medical-specialty-intestine" name="Colonoscopy" xmlns="http://www.w3.org/2000/svg" xmlns:xlink="http://www.w3.org/1999/xlink" viewBox="0 0 24 24" version="1.1">
        <path d="M24,14.25a3.734,3.734,0,0,0-1.72-3.139.5.5,0,0,1-.164-.666,2.913,2.913,0,0,0-.075-3.015.5.5,0,0,1,.053-.6A3.457,3.457,0,0,0,23,4.5,3.5,3.5,0,0,0,19.5,1a3.463,3.463,0,0,0-2.037.662.5.5,0,0,1-.677-.085,2.975,2.975,0,0,0-4.428-.172.5.5,0,0,1-.716,0,2.975,2.975,0,0,0-4.428.172.5.5,0,0,1-.677.085A3.463,3.463,0,0,0,4.5,1,3.5,3.5,0,0,0,1,4.5a3.457,3.457,0,0,0,.906,2.328.5.5,0,0,1,.053.6,2.913,2.913,0,0,0-.075,3.015.5.5,0,0,1-.164.666,3.725,3.725,0,0,0,.486,6.54.5.5,0,0,1,.294.455V20.5a1.5,1.5,0,0,0,3,0V17.834a.5.5,0,0,1,.234-.424,3.7,3.7,0,0,0,.846-5.6.5.5,0,0,1,.025-.684A2.982,2.982,0,0,0,7.5,9a2.933,2.933,0,0,0-.458-1.569.5.5,0,0,1,.054-.6,3.638,3.638,0,0,0,.378-.5.5.5,0,0,1,.655-.175A2.922,2.922,0,0,0,9.5,6.5,2.983,2.983,0,0,0,11.642,5.6a.5.5,0,0,1,.716,0A2.983,2.983,0,0,0,14.5,6.5a2.922,2.922,0,0,0,1.371-.342.5.5,0,0,1,.655.175,3.638,3.638,0,0,0,.378.5.5.5,0,0,1,.054.6A2.933,2.933,0,0,0,16.5,9a2.982,2.982,0,0,0,.895,2.129.5.5,0,0,1,.025.684,3.7,3.7,0,0,0,.766,5.546.5.5,0,0,1,.143.69.988.988,0,0,1-.829.451H16.036a3.975,3.975,0,0,0-2.829,1.172l-1.268,1.267a1.5,1.5,0,0,0,2.122,2.122l1.267-1.267a.992.992,0,0,1,.708-.294H17.5a3.992,3.992,0,0,0,3.942-3.437.5.5,0,0,1,.3-.388A3.738,3.738,0,0,0,24,14.25Z"/>
    </symbol>
    <symbol id="team-meeting-chat" name="Exit interview" xmlns="http://www.w3.org/2000/svg" xmlns:xlink="http://www.w3.org/1999/xlink" viewBox="0 0 24 24" version="1.1">
        <path d="M10.652,13.746a.984.984,0,0,0,.613.214.994.994,0,0,0,.425-.1.981.981,0,0,0,.555-.884v-.773a.218.218,0,0,1,.2-.217,1.964,1.964,0,0,0,1.764-1.952V2.2A1.963,1.963,0,0,0,12.245.235H1.951A1.963,1.963,0,0,0-.01,2.2v7.842A1.963,1.963,0,0,0,1.951,12H8.382a.256.256,0,0,1,.157.055Zm-8.7-11.3A.25.25,0,0,1,2.2,2.2H12a.25.25,0,0,1,.25.25V9.788a.249.249,0,0,1-.25.25h-.73a.982.982,0,0,0-.893.574.251.251,0,0,1-.383.092l-.563-.45a.974.974,0,0,0-.612-.216H2.2a.249.249,0,0,1-.25-.25Z"/>
        <path d="M3.912,4.892h6.372a.736.736,0,1,0,0-1.471H3.912a.736.736,0,1,0,0,1.471Z"/>
        <path d="M7.343,6.362H3.912a.736.736,0,1,0,0,1.471H7.343a.736.736,0,0,0,0-1.471Z"/>
        <path d="M11.5,21.509a.248.248,0,0,0-.076-.252,4.693,4.693,0,0,0-.723-.522.249.249,0,0,1-.034-.407A3.69,3.69,0,1,0,6,20.362a.25.25,0,0,1-.028.408A4.668,4.668,0,0,0,4.024,23.1a.49.49,0,0,0,.458.664h6.54a.247.247,0,0,0,.181-.078.251.251,0,0,0,.069-.186c0-.075-.007-.15-.007-.226A6.845,6.845,0,0,1,11.5,21.509ZM6.642,17.061a.248.248,0,0,1,.145-.164.25.25,0,0,1,.22.013,4.287,4.287,0,0,0,2.941.519.068.068,0,0,1,.058.016.07.07,0,0,1,.026.054,1.725,1.725,0,0,1-3.45,0A1.625,1.625,0,0,1,6.642,17.061Z"/>
        <path d="M15.779,17.793a.251.251,0,0,1-.029.428,5.679,5.679,0,0,0-3.1,5.053.49.49,0,0,0,.49.49H23.52a.49.49,0,0,0,.49-.49,5.679,5.679,0,0,0-3.174-5.09.249.249,0,0,1-.034-.428,4.144,4.144,0,0,0,.6-.514,4.358,4.358,0,1,0-6.357-.094A4.254,4.254,0,0,0,15.779,17.793Zm3.289,3.566a.736.736,0,0,1-1.471,0V20.151a.736.736,0,0,1,1.471,0Zm-3.2-7.115a2.294,2.294,0,0,1,.13-.758.251.251,0,0,1,.372-.128,5.523,5.523,0,0,0,4.136.768.12.12,0,0,1,.144.118,2.424,2.424,0,0,1-2.392,2.391,2.358,2.358,0,0,1-.9-.179A2.391,2.391,0,0,1,15.871,14.244Z"/>
    </symbol>
    <symbol id="shipment-package" name="Supply of study medication" xmlns="http://www.w3.org/2000/svg" xmlns:xlink="http://www.w3.org/1999/xlink" viewBox="0 0 24 24" version="1.1">
        <path d="M15.973,8.271a.25.25,0,0,0,0-.455L6.216,3.368a.5.5,0,0,0-.406,0L1.993,5.024a.25.25,0,0,0,0,.46l10.29,4.288a.5.5,0,0,0,.4-.006Z"/>
        <path d="M22.062,5.5a.25.25,0,0,0,0-.456L12.4.847a1,1,0,0,0-.8,0L8.38,2.247a.25.25,0,0,0,0,.457l9.7,4.422a.5.5,0,0,0,.414,0Z"/>
        <path d="M.846,6.63A.25.25,0,0,0,.5,6.861V18.007a1,1,0,0,0,.615.923L11.4,23.217a.25.25,0,0,0,.346-.231V11.34a.251.251,0,0,0-.154-.231Z"/>
        <path d="M13.25,22.944a.251.251,0,0,0,.353.228l9.311-4.232a1,1,0,0,0,.586-.91V6.886a.25.25,0,0,0-.353-.228L13.4,11.09a.248.248,0,0,0-.147.227Z"/>
    </symbol>
    <symbol id="notes-diary-alternate" name="eDiary review" xmlns="http://www.w3.org/2000/svg" xmlns:xlink="http://www.w3.org/1999/xlink" viewBox="0 0 24 24" version="1.1">
        <path d="M20.25,0h-12A.75.75,0,0,0,7.5.75v22.5a.75.75,0,0,0,.75.75h12A1.752,1.752,0,0,0,22,22.25V1.75A1.752,1.752,0,0,0,20.25,0ZM17.5,6.5v1A1.5,1.5,0,0,1,16,9H12.5A1.5,1.5,0,0,1,11,7.5v-1A1.5,1.5,0,0,1,12.5,5H16A1.5,1.5,0,0,1,17.5,6.5Z"/>
        <path d="M5.25,0H3.75A1.752,1.752,0,0,0,2,1.75v20.5A1.752,1.752,0,0,0,3.75,24h1.5A.75.75,0,0,0,6,23.25V.75A.75.75,0,0,0,5.25,0Z"/>
    </symbol>
    <symbol id="biopsy" name="Biopsy" xmlns="http://www.w3.org/2000/svg" xmlns:xlink="http://www.w3.org/1999/xlink" viewBox="0 0 24 24" version="1.1">
        <g id="biopsy" stroke="none" stroke-width="1" fill-rule="evenodd">
            <g id="Group-11" transform="translate(0.000000, -5.000000)">
                <g id="Group-9" transform="translate(14.500000, 14.500000) rotate(10.000000) translate(-14.500000, -14.500000) translate(2.000000, 2.500000)">
                    <path d="M13.413685,2.94581736 C13.1683115,3.36616835 13.3349109,3.89234237 13.78588,4.12132828 L14.60547,4.53489106 C14.7144436,4.59024454 14.7951667,4.68388099 14.8296826,4.79497084 C14.8651181,4.90519027 14.8520754,5.02400942 14.7934282,5.12524728 L14.5711261,5.50665489 C14.44907,5.7166277 14.5322882,5.97906988 14.7572236,6.09354347 L16.3917521,6.9198018 C16.6173143,7.03416194 16.8996246,6.95657895 17.0224539,6.74647578 L17.2438257,6.36506809 C17.366655,6.15496492 17.6489653,6.07738193 17.8745275,6.19174207 L18.6913266,6.60443776 C19.1415976,6.82250174 19.6962777,6.66411898 19.9380662,6.24844511 C20.1798546,5.83277124 20.0195458,5.31316528 19.5777443,5.08054084 L14.6750885,2.59743158 C14.4582175,2.48772791 14.2034732,2.46280218 13.966908,2.52813889 C13.7303428,2.5934756 13.5313393,2.74372149 13.413685,2.94581736 Z" id="Path-Copy-4" fill-rule="nonzero" transform="translate(16.675540, 4.732499) rotate(-1.000000) translate(-16.675540, -4.732499) "></path>
                    <g id="Group-8" transform="translate(12.586824, 12.150101) rotate(-19.000000) translate(-12.586824, -12.150101) translate(3.086824, 3.150101)" fill-rule="nonzero">
                        <path d="M12.6813193,4.40786117 L12.5163465,4.24448558 C12.4059582,4.13543378 12.3740117,3.97068136 12.4357608,3.82889421 C12.5779818,3.50822427 12.6519955,3.16198486 12.6531903,2.81174941 C12.6551771,2.11248091 12.374576,1.44149151 11.873941,0.948364229 C10.82077,-0.0460155468 9.16466844,-0.0460155468 8.11149743,0.948364229 C7.61051169,1.44131953 7.32961731,2.11235548 7.33148791,2.81174941 C7.33148791,3.22755516 7.67186038,3.56463232 8.09173111,3.56463232 C8.51160183,3.56463232 8.85197431,3.22755516 8.85197431,2.81174941 C8.85097401,2.51208571 8.97148794,2.22456751 9.18648132,2.01369354 C9.6375519,1.58681783 10.3478866,1.58681783 10.7989572,2.01369354 C11.2426171,2.45443467 11.2426171,3.16755839 10.7989572,3.60829952 L7.67435759,6.58444564 C6.76778121,7.48658161 6.53328579,8.85640841 7.08897032,10.0040398 C7.13493984,10.1002492 5.06555814,12.2517439 0.880825229,16.4585238 C0.617689183,16.7568558 0.632988133,17.2060859 0.91582311,17.4861826 C1.19865809,17.7662793 1.65227987,17.7814301 1.95352839,17.5208416 C6.24674725,13.393924 8.43650079,11.3623886 8.522789,11.4262356 C9.8335766,12.3961224 11.5381127,11.9072401 12.4478127,11.0077941 L15.5731725,8.03240083 C15.9386737,7.67203351 16.5029154,7.59947163 16.949235,7.8554382 C17.3955545,8.11140478 17.6128329,8.63217245 17.4791296,9.12547708 C17.3454262,9.61878171 16.894029,9.96180647 16.37827,9.96203971 C15.9583993,9.96203971 15.6180268,10.2991169 15.6180268,10.7149226 C15.6180268,11.1307284 15.9583993,11.4678055 16.37827,11.4678055 C17.4563144,11.4712853 18.4295676,10.8291634 18.841575,9.84259446 C19.2535823,8.85602548 18.549863,7.5579109 17.7842556,6.80628768 C17.0186481,6.05466445 15.8702513,5.83583269 14.8776619,6.25242428 C14.7351743,6.3120114 14.5704367,6.2801569 14.4610487,6.17186581 L14.2937952,6.00623157 C14.1454025,5.85923124 12.8297568,4.55481711 12.6813193,4.40786117 Z M13.4627448,6.04824058 C13.6111374,6.19524091 13.6111374,6.43352846 13.4627448,6.58052879 L12.5405698,7.49302287 C12.3921324,7.63997881 12.1515153,7.63997881 12.0030778,7.49302287 L11.1964598,6.69496699 L10.3913622,5.89691112 C10.2429696,5.74991079 10.2429696,5.51162324 10.3913622,5.3646229 L11.3112565,4.45363459 C11.4596939,4.30667865 11.700311,4.30667865 11.8487485,4.45363459 L13.4627448,6.04824058 Z" id="Shape"></path>
                    </g>
                    <polygon id="Path-11" points="12.6210722 6.2601924 11.4210722 9.8601924 15.0210722 12.2601924 16.9030942 8.17733585"></polygon>
                </g>
                <g id="Group-7" transform="translate(0.000000, 20.000000)" fill-rule="nonzero">
                    <path d="M15.7365,1.34603794 C15.5014362,1.20637045 15.2102924,1.20708436 14.9758955,1.347903 C14.7414986,1.48872164 14.6006877,1.74751308 14.6080313,2.02398804 C14.6153748,2.30046301 14.7697187,2.55116897 15.01125,2.67895003 C15.957,3.2113532 16.5,3.84810435 16.5,4.43001569 C16.5,5.86879908 13.293,7.4766719 9,7.4766719 C4.707,7.4766719 1.5,5.86879908 1.5,4.43001569 C1.5,3.35835436 3.375,1.97441078 6.84525,1.52122067 C7.12187094,1.50017824 7.36446609,1.32579607 7.47596962,1.06784697 C7.58747316,0.809897882 7.54967414,0.510510533 7.37769651,0.289474127 C7.20571888,0.0684377218 6.92765029,-0.0381477182 6.65475,0.0123641807 C2.6115,0.537912377 0,2.27298309 0,4.43001569 C0,7.03566841 3.86925,9 9,9 C14.13075,9 18,7.03566841 18,4.43001569 C18,3.25933804 17.196,2.16406513 15.7365,1.34603794 Z" id="Path"></path>
                    <circle id="Oval" cx="4.95" cy="4.05" r="1.35"></circle>
                    <circle id="Oval" cx="11.7" cy="5.4" r="1"></circle>
                    <circle id="Oval" cx="14.4" cy="4.5" r="1"></circle>
                </g>
            </g>
        </g>
    </symbol>
    <symbol id="cancer-treatments" name="Cancer treatments" xmlns="http://www.w3.org/2000/svg" xmlns:xlink="http://www.w3.org/1999/xlink" viewBox="0 0 24 24" version="1.1" >
        <g id="cancer-treatments" stroke="none" stroke-width="1" fill-rule="evenodd">
            <path d="M11,0 C12.8685634,0 14.3951264,1.48888731 14.4948211,3.36356084 L14.5,3.55882353 L14.5,11.997 L11.6385187,14.4403791 C10.3638754,15.5283174 10.0656005,17.3404552 10.842418,18.7592262 L9.09090909,18.7582353 C8.937148,18.7582353 8.80886086,18.8691353 8.7791916,19.0165622 L8.77272727,19.0817647 L8.77272727,20.7058824 C8.77272727,21.1343506 8.56794101,21.5141845 8.25246192,21.7497093 C8.79393133,22.5469765 9.63620874,22.9525962 10.7885639,22.9960779 L11,23 L11,24 C9.20979762,24 7.9429344,23.3055312 7.21883816,21.9682415 C6.69198367,21.8471935 6.28943946,21.3948413 6.23384367,20.8381984 L6.22727273,20.7058824 L6.22727273,19.0882353 C6.22727273,18.93189 6.11820573,18.8014468 5.97321564,18.7712789 L5.90909091,18.7647059 L3.68181818,18.7647059 C1.98514403,18.7647059 0.598640351,17.4143889 0.505036857,15.7130012 L0.5,15.5294118 L0.5,3.55882353 C0.5,1.6588557 1.9642776,0.106636132 3.8079648,0.00526590244 L4,0 L11,0 Z M7.5,10.5 C7.41651148,10.5 7.33814248,10.533578 7.2895,10.590191 C7.2715,10.6133436 5.5,12.9446633 5.5,13.8313449 C5.5,14.7529177 6.3954305,15.5 7.5,15.5 C8.6045695,15.5 9.5,14.7529177 9.5,13.8313449 C9.5,12.9448719 7.7285,10.6133436 7.7105,10.590191 C7.66185752,10.533578 7.58348852,10.5 7.5,10.5 Z M10.3636364,2.54811765 L4.63636364,2.54811765 C3.80654185,2.54811765 3.12510959,3.19412653 3.05195607,4.01852585 L3.04545455,4.16576471 L3.04545455,5.13635294 C3.04545455,5.46122632 3.28091711,5.73018019 3.58778103,5.77639599 L3.68181818,5.78341176 L11.3181818,5.78341176 C11.6376854,5.78341176 11.9021937,5.54399184 11.9476456,5.23197055 L11.9545455,5.13635294 L11.9545455,4.16576471 C11.9545455,3.2723629 11.2422712,2.54811765 10.3636364,2.54811765 Z" id="Combined-Shape" fill-rule="nonzero"></path>
            <g id="Group-5" transform="translate(10.500000, 8.500000)" fill-rule="nonzero">
                <g id="pill-copy" transform="translate(7.000000, 7.000000) rotate(5.000000) translate(-7.000000, -7.000000) translate(1.000000, 1.000000)">
                    <path d="M10.8030066,1.0175368 C9.41302897,-0.339178933 7.16167765,-0.339178933 5.77169998,1.0175368 L1.05115049,5.63409141 C0.0277626939,6.62594233 -0.281054192,8.12400553 0.269488355,9.4259154 C0.820030901,10.7278253 2.12077628,11.5754509 3.56187117,11.5714063 L3.56187117,11.5714063 C4.50464797,11.574714 5.40960922,11.2092186 6.07505817,10.556359 L10.8010336,5.93642896 C12.1853698,4.57621821 12.1853698,2.37822975 10.8010336,1.018019 L10.8030066,1.0175368 Z M10.1055294,5.25460233 L8.26762269,7.04933977 C8.17131267,7.14346028 8.01519411,7.14346028 7.91888409,7.04933977 L4.63324353,3.83742518 C4.53696258,3.74327624 4.53696258,3.5906608 4.63324353,3.49651186 L6.47115026,1.69936343 C7.20530404,0.978512198 8.31220721,0.762668659 9.27309836,1.15299008 C10.2339895,1.54331151 10.8584472,2.46244723 10.8538479,3.47963496 C10.8573785,4.14533315 10.5878558,4.78465487 10.1055294,5.25460233 Z" id="Shape"></path>
                    <path d="M8.21910713,1.92857143 C7.64467668,1.92713698 7.09349793,2.15154331 6.68826596,2.55184537 C6.53866908,2.70398909 6.54069066,2.94594207 6.69280958,3.0956488 C6.8449285,3.24535552 7.09100993,3.24757132 7.24589195,3.10062893 C7.79040959,2.58910746 8.64780467,2.58910746 9.19232231,3.10062893 C9.34645175,3.25217131 9.59634492,3.25217131 9.75047435,3.10062892 C9.90460378,2.94908653 9.90460379,2.70338777 9.75047437,2.55184537 C9.34514723,2.15136686 8.79373136,1.92694112 8.21910713,1.92857143 Z" id="Path"></path>
                </g>
            </g>
        </g>
    </symbol>
    <symbol id="medical-ribbon-cancer" name="Cancer type" xmlns="http://www.w3.org/2000/svg" viewBox="0 0 24 24">
        <path d="M18.12,20.119a27.617,27.617,0,0,1-3.064-2.455.5.5,0,0,1-.046-.685C17.439,14.038,19,11.551,19,8.4c0-4.36-3.14-7.9-7-7.9S5,4.039,5,8.4c0,3.3,1.717,5.831,3.99,8.58a.5.5,0,0,1-.046.685A27.5,27.5,0,0,1,5.88,20.119a.5.5,0,0,0-.14.69l1.63,2.47a.535.535,0,0,0,.32.21.463.463,0,0,0,.38-.08,30.872,30.872,0,0,0,3.591-2.861.5.5,0,0,1,.678,0,30.987,30.987,0,0,0,3.591,2.862.463.463,0,0,0,.38.08.535.535,0,0,0,.32-.21l1.63-2.47A.5.5,0,0,0,18.12,20.119ZM9,8.949c-.31-2.47,1.34-4.5,3-4.5s3.31,2.03,3,4.5A11.22,11.22,0,0,1,12.391,14a.5.5,0,0,1-.782,0A11.215,11.215,0,0,1,9,8.949Z"/>
    </symbol>
    <symbol id="task-checklist-check" name="Check if the study is right for you" xmlns="http://www.w3.org/2000/svg" viewBox="0 0 24 24">
        <path d="M17.5,11A6.5,6.5,0,1,0,24,17.5,6.508,6.508,0,0,0,17.5,11Zm3,4.576L17.6,19.45a1.5,1.5,0,0,1-2.262.158l-1.5-1.5a.75.75,0,1,1,1.06-1.06l1.3,1.3a.248.248,0,0,0,.376-.027l2.732-3.643a.75.75,0,1,1,1.2.9Z"/>
        <path d="M5,10.249h6.5a.75.75,0,0,0,0-1.5H5a.75.75,0,0,0,0,1.5Z"/>
        <path d="M5,13.749H8a.75.75,0,0,0,0-1.5H5a.75.75,0,0,0,0,1.5Z"/>
        <path d="M5,17.25H7.75a.75.75,0,0,0,0-1.5H5a.75.75,0,0,0,0,1.5Z"/>
        <path d="M5.25,6.249h8.5A.25.25,0,0,0,14,6V3a.251.251,0,0,0-.25-.25H12V2.5A2.509,2.509,0,0,0,8.821.09,2.559,2.559,0,0,0,7,2.587v.162H5.25A.251.251,0,0,0,5,3V6A.25.25,0,0,0,5.25,6.249ZM9.5,1.5a.75.75,0,1,1-.75.75A.75.75,0,0,1,9.5,1.5Z"/>
        <path d="M10.96,22.105a.251.251,0,0,0-.2-.106H2.5a.5.5,0,0,1-.5-.5V5.249a.5.5,0,0,1,.5-.5h.75A.25.25,0,0,0,3.5,4.5V3a.251.251,0,0,0-.25-.25H2a2,2,0,0,0-2,2V22a2,2,0,0,0,2,2H12.125a.25.25,0,0,0,.162-.44A8,8,0,0,1,10.96,22.105Z"/>
        <path d="M18.711,9.6A.251.251,0,0,0,19,9.348v-4.6a2,2,0,0,0-2-2H15.75A.251.251,0,0,0,15.5,3V4.5a.25.25,0,0,0,.25.25h.75a.5.5,0,0,1,.5.5V9.257a.25.25,0,0,0,.264.25c.079,0,.157-.008.236-.008A7.8,7.8,0,0,1,18.711,9.6Z"/>
    </symbol>
    <symbol id="ct-scan-or-mri-scan" name="CT scan or MRI scan" xmlns="http://www.w3.org/2000/svg" xmlns:xlink="http://www.w3.org/1999/xlink"  viewBox="0 0 28 24" version="1.1">
        <g id="ct-scan-or-mri-scan" stroke="none" stroke-width="1" fill-rule="evenodd">
            <g id="Group-6" transform="translate(0.500000, 0.000000)">
                <ellipse id="Oval" cx="17.28" cy="12" rx="3.24" ry="3.27272727"></ellipse>
                <path d="M0.5,15.2727273 L10.114168,15.2727273 C11.6858776,15.2727095 12.96,13.9985871 12.96,12.4268775 C12.96,12.4268775 12.96,12.4268775 12.96,12.4268775 C12.96,11.0039526 12.384,10.1343874 11.232,9.81818182 L6.67013276,9.81818182 C5.89927803,9.81818182 5.13886192,9.99641589 4.44829584,10.3389586 L0.277816308,12.4076488 C0.107642676,12.4920604 -2.32632516e-17,12.6656123 0,12.8555712 L0,14.7727273 C-2.16934637e-17,15.0488696 0.223857625,15.2727273 0.5,15.2727273 Z" id="Path-4"></path>
                <rect id="Rectangle-Copy-3" x="0" y="16.3636364" width="19.44" height="2.18181818" rx="1"></rect>
                <path d="M10.6828775,0.0258911319 C15.4305144,-0.15047529 19.0303686,0.574194058 21.4824401,2.19989917 C24.6903783,4.32673828 26.2943474,7.51699694 26.8290038,10.7072556 C27.1590723,12.6767523 27.0113003,16.8073091 26.3856877,23.098926 C26.3348526,23.6103824 25.9045717,24 25.3905951,24 L10.72,24 C10.1677153,24 9.72,23.5522847 9.72,23 L9.72,20.7463218 C9.72,20.194037 10.1677153,19.7463218 10.72,19.7463218 L14.0665637,19.7463218 C14.6188484,19.7463218 15.0665637,20.194037 15.0665637,20.7463218 L15.0665637,20.8097413 C15.0665637,21.2880397 15.4543011,21.6757772 15.9325995,21.6757772 C16.0002492,21.6757772 16.0676658,21.6678507 16.1334617,21.6521225 C21.1251976,20.4618646 23.6210656,17.5225219 23.6210656,12.8340947 C23.6210656,8.13398461 21.1127435,4.87987464 16.0960993,3.0717648 C15.6966431,2.92774085 15.2560888,3.13485945 15.1121101,3.53433193 C15.0819741,3.61794506 15.0665637,3.70615029 15.0665637,3.7950285 L15.0665637,3.85844805 C15.0665637,4.4107328 14.6188484,4.85844805 14.0665637,4.85844805 L10.72,4.85844805 C10.1677153,4.85844805 9.72,4.4107328 9.72,3.85844805 L9.72,1.02519832 C9.72000353,0.48736097 10.1454109,0.0458570788 10.6828775,0.0258911319 Z" id="Path-9"></path>
            </g>
        </g>
    </symbol>
    <symbol id="multiple-users-2" name="Demographics" xmlns="http://www.w3.org/2000/svg" viewBox="0 0 24 24">
        <path d="M13.273,11.866a.25.25,0,0,1-.017-.467,3.21,3.21,0,1,0-2.512,0,.25.25,0,0,1-.017.467A3.956,3.956,0,0,0,8.05,15.605v2.963a.494.494,0,0,0,.493.494h.882a.246.246,0,0,1,.246.227l.356,4.259a.493.493,0,0,0,.492.452h2.962a.493.493,0,0,0,.492-.452l.356-4.259a.246.246,0,0,1,.246-.227h.882a.494.494,0,0,0,.493-.494V15.605A3.956,3.956,0,0,0,13.273,11.866Z"/>
        <path d="M4.63,5.636a.25.25,0,0,1-.022-.461,2.716,2.716,0,1,0-2.3,0,.25.25,0,0,1-.021.461A3.463,3.463,0,0,0,0,8.887V10.37a.5.5,0,0,0,.494.494h.819a.246.246,0,0,1,.245.219l.42,3.787a.494.494,0,0,0,.491.439H4.444a.494.494,0,0,0,.491-.439l.421-3.787a.246.246,0,0,1,.245-.219h.818a.494.494,0,0,0,.494-.494V8.886A3.46,3.46,0,0,0,4.63,5.636Z"/>
        <path d="M21.716,5.636a.25.25,0,0,1-.021-.461,2.716,2.716,0,1,0-2.3,0,.25.25,0,0,1,.143.238.247.247,0,0,1-.164.223,3.461,3.461,0,0,0-2.284,3.251V10.37a.5.5,0,0,0,.494.494H18.4a.246.246,0,0,1,.246.219l.42,3.787a.494.494,0,0,0,.491.439h1.975a.494.494,0,0,0,.491-.439l.421-3.787a.246.246,0,0,1,.245-.219h.818A.494.494,0,0,0,24,10.37V8.886A3.46,3.46,0,0,0,21.716,5.636Z"/>
        <path d="M13.273,11.866a.25.25,0,0,1-.017-.467,3.21,3.21,0,1,0-2.512,0,.25.25,0,0,1-.017.467A3.956,3.956,0,0,0,8.05,15.605v2.963a.494.494,0,0,0,.493.494h.882a.246.246,0,0,1,.246.227l.356,4.259a.493.493,0,0,0,.492.452h2.962a.493.493,0,0,0,.492-.452l.356-4.259a.246.246,0,0,1,.246-.227h.882a.494.494,0,0,0,.493-.494V15.605A3.956,3.956,0,0,0,13.273,11.866Z"/>
        <path d="M4.63,5.636a.25.25,0,0,1-.022-.461,2.716,2.716,0,1,0-2.3,0,.25.25,0,0,1-.021.461A3.463,3.463,0,0,0,0,8.887V10.37a.5.5,0,0,0,.494.494h.819a.246.246,0,0,1,.245.219l.42,3.787a.494.494,0,0,0,.491.439H4.444a.494.494,0,0,0,.491-.439l.421-3.787a.246.246,0,0,1,.245-.219h.818a.494.494,0,0,0,.494-.494V8.886A3.46,3.46,0,0,0,4.63,5.636Z"/>
        <path d="M21.716,5.636a.25.25,0,0,1-.021-.461,2.716,2.716,0,1,0-2.3,0,.25.25,0,0,1,.143.238.247.247,0,0,1-.164.223,3.461,3.461,0,0,0-2.284,3.251V10.37a.5.5,0,0,0,.494.494H18.4a.246.246,0,0,1,.246.219l.42,3.787a.494.494,0,0,0,.491.439h1.975a.494.494,0,0,0,.491-.439l.421-3.787a.246.246,0,0,1,.245-.219h.818A.494.494,0,0,0,24,10.37V8.886A3.46,3.46,0,0,0,21.716,5.636Z"/>
    </symbol>
    <symbol id="height-and-weight" name="Height and weight" xmlns="http://www.w3.org/2000/svg" xmlns:xlink="http://www.w3.org/1999/xlink"  viewBox="0 0 24 24" version="1.1">
        <g id="height-and-weight" stroke-width="1" fill-rule="evenodd">
            <g id="Group-4" transform="translate(2.500000, 0.500000)">
                <path d="M3.12982163,18.5 L15.4419978,18.5 C15.8246883,18.5 16.1738189,18.7184055 16.3412329,19.0625343 L17.8006924,22.0625343 C18.042298,22.5591681 17.8355568,23.1576294 17.338923,23.3992351 C17.2026222,23.4655436 17.0530313,23.5 16.9014573,23.5 L1.96225406,23.5 C1.40996931,23.5 0.962254064,23.0522847 0.962254064,22.5 C0.962254064,22.3759263 0.985343768,22.2529362 1.03034396,22.1373107 L2.19791153,19.1373107 C2.34745501,18.753067 2.71750324,18.5 3.12982163,18.5 Z" id="Rectangle"/>
                <path d="M17.6666667,6 C18.126904,6 18.5,6.37309604 18.5,6.83333333 C18.5,7.33420074 18.1882305,7.78213685 17.7185427,7.9560953 L12,10.073 L12,18.5 L7,18.5 L7,10.074 L1.2814573,7.9560953 C0.811769506,7.78213685 0.5,7.33420074 0.5,6.83333333 C0.5,6.37309604 0.873096042,6 1.33333333,6 L17.6666667,6 Z" id="Combined-Shape"/>
                <path d="m 2,-0.875 c -0.7490275,0 -1.375,0.62597251 -1.375,1.375 v 3 c 0,0.7490275 0.6259725,1.375 1.375,1.375 h 15 c 0.749027,0 1.375,-0.6259726 1.375,-1.375 v -3 c 0,-0.74902742 -0.625973,-1.375 -1.375,-1.375 z m 0.375,1.75 h 14.25 v 2.25 H 2.375 Z" id="Path-3"/>
                <rect id="Rectangle" x="4" y="1.5" width="3" height="5" rx="1"/>
                <rect id="Rectangle-Copy" x="9" y="1.5" width="2" height="5" rx="1"/>
            </g>
        </g>
    </symbol>
    <symbol id="informed-consent" name="Informed Consent Form" xmlns="http://www.w3.org/2000/svg" xmlns:xlink="http://www.w3.org/1999/xlink"  viewBox="0 0 24 24" version="1.1">
        <g id="informed-consent" stroke="none" stroke-width="1" fill-rule="evenodd">
            <g id="Group-10" transform="translate(0.500000, 0.000000)">
                <path d="M14.25,10 C14.6642136,10 15,9.66421356 15,9.25 C15,8.83578644 14.6642136,8.5 14.25,8.5 L4.25,8.5 C3.83578644,8.5 3.5,8.83578644 3.5,9.25 C3.5,9.66421356 3.83578644,10 4.25,10 L14.25,10 Z" id="Path-Copy" fill-rule="nonzero"></path>
                <path d="M12.75,13 C13.1642136,13 13.5,12.6642136 13.5,12.25 C13.5,11.8357864 13.1642136,11.5 12.75,11.5 L4.25,11.5 C3.83578644,11.5 3.5,11.8357864 3.5,12.25 C3.5,12.6642136 3.83578644,13 4.25,13 L12.75,13 Z" id="Path-Copy-2" fill-rule="nonzero"></path>
                <path d="M11.75,16 C12.1642136,16 12.5,15.6642136 12.5,15.25 C12.5,14.8357864 12.1642136,14.5 11.75,14.5 L4.25,14.5 C3.83578644,14.5 3.5,14.8357864 3.5,15.25 C3.5,15.6642136 3.83578644,16 4.25,16 L11.75,16 Z" id="Path-Copy-3" fill-rule="nonzero"></path>
                <path d="M7.5,4.48574846 L7.5,5.51425123 C7.5,5.65631306 7.61515236,5.77147693 7.7572,5.77147693 L8.5288,5.77147693 C8.63925695,5.77147693 8.7288,5.86102893 8.7288,5.97149692 L8.7288,6.74317402 C8.72869361,6.81132099 8.75571509,6.87670744 8.80389751,6.92489467 C8.85207993,6.97308191 8.91745985,7.00010608 8.9856,7 L10.0144,7 C10.0825769,7.00010589 10.1479978,6.97309444 10.1962437,6.92491877 C10.2444895,6.8767431 10.2716001,6.81135779 10.2716,6.74317402 L10.2716,5.97149692 C10.2716,5.86102893 10.3611431,5.77147693 10.4716,5.77147693 L11.2428,5.77147693 C11.3848476,5.77147693 11.5,5.65631306 11.5,5.51425123 L11.5,4.48574846 C11.5,4.41752796 11.4729022,4.3521016 11.4246679,4.30386242 C11.3764335,4.25562324 11.3110137,4.22852276 11.2428,4.22852276 L10.4716,4.22852276 C10.3611431,4.22852276 10.2716,4.13897076 10.2716,4.02850277 L10.2716,3.25682566 C10.2713793,3.11492008 10.1562916,3 10.0144,3 L8.9856,3 C8.91742304,3 8.85204427,3.02711316 8.80387341,3.07536388 C8.75570255,3.12361459 8.72869381,3.18904202 8.7288,3.2572257 L8.7288,4.02890281 C8.7288,4.1393708 8.63925695,4.2289228 8.5288,4.2289228 L7.7572,4.2289228 C7.61530843,4.22892262 7.50022067,4.34384288 7.5,4.48574846 Z" id="Path" fill-rule="nonzero"></path>
                <path d="M4.75,0 C4.88807119,0 5,0.111928813 5,0.25 L5,0.25 L5,1.75 C5.00026715,1.81638566 4.97401373,1.88012947 4.9270716,1.9270716 C4.88012947,1.97401373 4.81638566,2.00026715 4.75,2 L4.75,2 L2.5,2 C2.22385763,2 2,2.22385763 2,2.5 L2,2.5 L2,21.5 C2,21.7761424 2.22385763,22 2.5,22 L2.5,22 L16.5,22 C16.7761424,22 17,21.7761424 17,21.5 L17,21.5 L17,18.558 L19,16.693 L19,22 C19,23.0543618 18.1841222,23.9181651 17.1492623,23.9945143 L17,24 L2,24 C0.8954305,24 0,23.1045695 0,22 L0,22 L0,2 C0,0.8954305 0.8954305,0 2,0 L2,0 Z M17,0 C18.1045695,0 19,0.8954305 19,2 L19,2 L19,8.489 L17,10.354 L17,2.5 C17,2.25454011 16.8231248,2.05039163 16.5898756,2.00805567 L16.5,2 L14.25,2 C14.1836143,2.00026715 14.1198705,1.97401373 14.0729284,1.9270716 C14.0259863,1.88012947 13.9997329,1.81638566 14,1.75 L14,1.75 L14,0.25 C14,0.111928813 14.1119288,0 14.25,0 L14.25,0 Z" id="Combined-Shape" fill-rule="nonzero"></path>
                <rect id="Rectangle" x="4.5" y="0" width="11" height="2"></rect>
                <path d="M14.2887964,16.1830065 C13.9111629,16.2631964 13.5914337,16.4528626 13.4000117,16.7102413 C13.0646684,17.1601822 13.1839016,19.1036577 13.2306464,19.5561435 C13.2334772,19.5872099 13.2568937,19.6151292 13.2929728,19.630455 C13.3295092,19.6446718 13.3729597,19.6446718 13.4094961,19.630455 C13.951465,19.4232989 15.6451177,18.7443158 15.9838483,18.2943749 C16.3814923,17.7585519 16.1262007,16.5820024 15.413426,16.2826957 C15.0710013,16.1386786 14.6664298,16.1028166 14.2887964,16.1830065 Z M14.3723153,17.6791382 C14.1941929,17.5793319 14.1306157,17.3540627 14.2302714,17.1758427 C14.3299272,16.9976227 14.555122,16.9338618 14.7334008,17.0333884 C14.8191927,17.0812829 14.8824065,17.161346 14.9090964,17.2559146 C14.9357862,17.3504831 14.9237588,17.451786 14.8756677,17.5374741 C14.7757323,17.7155374 14.5504377,17.7789446 14.3723153,17.6791382 Z" id="Shape" fill-rule="nonzero" transform="translate(14.671409, 17.891118) rotate(17.000000) translate(-14.671409, -17.891118) "></path>
                <path d="M21.5534128,9.5591123 C21.1182086,9.334231 20.5828175,9.35962754 20.174602,9.62451685 C20.1436285,9.5930768 20.1087338,9.56516691 20.0706536,9.54137547 L19.879484,9.44216008 C19.1720672,9.07651383 18.2791554,9.31045212 17.8823591,9.96539654 L16.2974436,12.5937729 C16.220102,12.7221022 16.2008843,12.8736844 16.2440196,13.015162 C16.287155,13.1566397 16.3891086,13.2764195 16.5274445,13.3481425 C16.8165541,13.4910252 17.1756862,13.3962785 17.3405127,13.1336377 L18.9260256,10.5052613 C18.9993169,10.3838258 19.1646301,10.3402158 19.2958193,10.4077087 L19.4857941,10.5069241 L16.3070021,15.7775338 C16.1315263,16.069306 16.2437827,16.4378065 16.5579122,16.6011878 L17.6965661,17.192046 C17.8478747,17.2708267 18.0267752,17.2904381 18.1937059,17.2465435 C18.3606367,17.2026489 18.5018442,17.0988647 18.5861021,16.9581415 L22.055233,11.2069746 C22.4069443,10.6233421 22.1823068,9.88568403 21.5534128,9.5591123 Z" id="Path" fill-rule="nonzero" transform="translate(19.221461, 13.269480) rotate(17.000000) translate(-19.221461, -13.269480) "></path>
                <path d="M10.4696498,18.1956436 C10.246779,17.9351162 9.88550538,17.9351162 9.66263456,18.1956436 L8.92467788,19.0585474 L8.18672121,18.1956436 C7.97792365,17.951314 7.64419078,17.9336549 7.41737426,18.1549343 L5.7051778,19.8233484 C5.58888073,19.9367674 5.51590062,20.0995823 5.50230595,20.2759453 C5.48871129,20.4523082 5.53561673,20.6277586 5.63269481,20.7636665 C5.83682234,21.0418879 6.19319411,21.0797438 6.43685642,20.8490893 L7.74954038,19.5704168 L8.52231171,20.4740298 C8.74518253,20.7345573 9.10645616,20.7345573 9.32932698,20.4740298 L10.0661422,19.6111261 L10.5187328,20.140347 C10.6620291,20.3138331 10.8742292,20.38341 11.073774,20.3223357 C11.2733188,20.2612615 11.4291543,20.0790407 11.4813851,19.84571 C11.5336159,19.6123793 11.4741136,19.3642505 11.3257481,19.1966921 L10.4696498,18.1956436 Z" id="Path" fill-rule="nonzero"></path>
            </g>
        </g>
    </symbol>
    <symbol id="medical-notes" name="Medical chart review" xmlns="http://www.w3.org/2000/svg" viewBox="0 0 24 24">
        <path d="M7,12.714v2.571a.643.643,0,0,0,.643.643H9.572a.5.5,0,0,1,.5.5v1.929a.641.641,0,0,0,.642.642h2.572a.642.642,0,0,0,.643-.642V16.428a.5.5,0,0,1,.5-.5h1.928A.643.643,0,0,0,17,15.285V12.714a.643.643,0,0,0-.643-.643H14.429a.5.5,0,0,1-.5-.5V9.642A.643.643,0,0,0,13.286,9H10.714a.642.642,0,0,0-.642.643v1.929a.5.5,0,0,1-.5.5H7.643A.643.643,0,0,0,7,12.714Z"/>
        <path d="M19.5,3H16.75a.25.25,0,0,0-.25.25v1.5a.249.249,0,0,0,.25.25H19a.5.5,0,0,1,.5.5v16a.5.5,0,0,1-.5.5H5a.5.5,0,0,1-.5-.5V5.5A.5.5,0,0,1,5,5H7.25a.249.249,0,0,0,.25-.25v-1.5A.25.25,0,0,0,7.25,3H4.5a2,2,0,0,0-2,2V22a2,2,0,0,0,2,2h15a2,2,0,0,0,2-2V5A2,2,0,0,0,19.5,3Z"/>
        <path d="M10,6.5h4a1,1,0,0,0,1-1V3A3.009,3.009,0,0,0,11.192.107,3.046,3.046,0,0,0,9,3.087V5.5A1,1,0,0,0,10,6.5ZM12,2a.75.75,0,1,1-.75.75A.75.75,0,0,1,12,2Z"/>
    </symbol>
    <symbol id="medical-folder" name="Medical history" xmlns="http://www.w3.org/2000/svg" viewBox="0 0 24 24">
        <path d="M24,9a1.5,1.5,0,0,0-1.5-1.5H6.5A1.5,1.5,0,0,0,5,9V19a1.5,1.5,0,0,1-3,0V4a.5.5,0,0,1,.5-.5H6.586L8.5,5.414A1.986,1.986,0,0,0,9.914,6H20.5a1,1,0,0,0,0-2H9.914L8,2.086A1.986,1.986,0,0,0,6.586,1.5H1.5A1.5,1.5,0,0,0,0,3V19a3.5,3.5,0,0,0,3.5,3.5H20a4,4,0,0,0,4-4Zm-5.5,7a.5.5,0,0,1-.5.5H16.5a.5.5,0,0,0-.5.5v1.5a.5.5,0,0,1-.5.5h-2a.5.5,0,0,1-.5-.5V17a.5.5,0,0,0-.5-.5H11a.5.5,0,0,1-.5-.5V14a.5.5,0,0,1,.5-.5h1.5A.5.5,0,0,0,13,13V11.5a.5.5,0,0,1,.5-.5h2a.5.5,0,0,1,.5.5V13a.5.5,0,0,0,.5.5H18a.5.5,0,0,1,.5.5Z"/>
    </symbol>
    <symbol id="single-neutral-actions-text" name="Study discussion" xmlns="http://www.w3.org/2000/svg" viewBox="0 0 24 24">
        <path d="M9.5,12.5a2.884,2.884,0,0,1,.184-1.008.5.5,0,0,0-.319-.652,7.211,7.211,0,0,0-2.159-.34A7.543,7.543,0,0,0,.021,15.857.5.5,0,0,0,.5,16.5H9a.5.5,0,0,0,.5-.5Z"/>
        <circle cx="7" cy="4.75" r="4.75"/>
        <path d="M22,11H13a2,2,0,0,0-2,2v9a2,2,0,0,0,2,2h9a2,2,0,0,0,2-2V13A2,2,0,0,0,22,11Zm-9,2.25a.25.25,0,0,1,.25-.25h8.5a.25.25,0,0,1,.25.25v8.5a.249.249,0,0,1-.25.25h-8.5a.25.25,0,0,1-.25-.25Z"/>
        <path d="M20,15H15.25a.75.75,0,0,0,0,1.5H20A.75.75,0,0,0,20,15Z"/>
        <path d="M17.5,19.5a.75.75,0,0,0,0-1.5H15.25a.75.75,0,0,0,0,1.5Z"/>
    </symbol>
	<symbol id="report_experience" name="Report experience" xmlns="http://www.w3.org/2000/svg" xmlns:xlink="http://www.w3.org/1999/xlink"  viewBox="0 0 24 24">
		<g id="Tablet-Icon" stroke="none" stroke-width="1" fill-rule="evenodd">
			<g id="Group" transform="translate(1.500000, 0.000000)">
				<path d="M3.19847206,0 C1.431625,0 0,1.431625 0,3.19847206 L0,19.7226508 C0,21.4584121 1.38457629,22.8631521 3.10857542,22.9118811 L3.10857542,22.9202827 L3.19847206,22.9202827 L4.63429784,22.9202827 L5.91805547,22.9202827 C6.50700449,22.9202827 6.98421283,22.4439145 6.98421283,21.8549655 C6.98421283,21.2660165 6.50700449,20.7888082 5.91805547,20.7888082 L4.63429784,20.7888082 L3.20015237,20.7888082 C2.61120335,20.7888082 2.13399502,20.3115998 2.13399502,19.7226508 L2.13399502,3.19847206 C2.13399502,2.60952304 2.61120335,2.13231471 3.20015237,2.13231471 L14.9270431,2.13231471 C15.5159921,2.13231471 15.9932005,2.60952304 15.9932005,3.19847206 L15.9932005,12.333483 C15.9932005,12.6191359 16.1074616,12.8930266 16.3107792,13.0938238 C16.617436,13.3937593 17.0744806,13.4811355 17.4693537,13.3156248 C17.8650669,13.149274 18.1229947,12.7619623 18.1238348,12.333483 L18.1238348,3.19847206 C18.1238348,1.431625 16.6913697,0 14.9253628,0 L3.19847206,0 Z" id="Fill-1"></path>
				<path d="M15.5866492,18.8347239 C15.4707077,18.8347239 15.3766103,18.7406265 15.3766103,18.624685 L15.3766103,14.8423048 C15.3766103,13.7988317 14.5305737,12.9519549 13.4862604,12.9519549 C12.4427872,12.9519549 11.5959105,13.7988317 11.5959105,14.8423048 L11.5959105,19.7740177 C11.5959105,19.8504719 11.5547429,19.921045 11.4875304,19.9580118 C11.420318,19.9949786 11.3388229,19.9924582 11.2741309,19.9512906 C10.3760047,19.3841856 9.18886492,19.6521952 8.62091979,20.5503214 C8.23780887,21.1569137 8.22436639,21.9264962 8.58563326,22.5456908 L9.14685715,23.6530158 C9.30480638,23.9630332 9.68371652,24.0873762 9.99457406,23.9294269 C10.3045915,23.7723179 10.4289345,23.3934077 10.2709852,23.0825502 L9.68287637,21.9264962 C9.48880044,21.6164788 9.58289786,21.2064829 9.8937554,21.012407 C10.1794083,20.8334539 10.5541176,20.8973057 10.7641565,21.1611145 L11.7378968,22.3768195 C11.9580175,22.6465095 12.3545709,22.6868369 12.625101,22.4667162 C12.7696077,22.3482543 12.8544634,22.1709814 12.8561438,21.9836268 L12.8561438,14.8423048 C12.8561438,14.4944805 13.138436,14.2121882 13.4862604,14.2121882 C13.8340848,14.2121882 14.116377,14.4944805 14.116377,14.8423048 L14.116377,19.4631602 C14.116377,19.8109846 14.3986693,20.0932768 14.7464937,20.0932768 L17.4669172,20.0932768 C18.4213339,20.1495673 19.1648715,20.9435142 19.1573101,21.8996112 L19.1573101,23.3698834 C19.1573101,23.7177077 19.4396024,24 19.7874268,24 C20.1352512,24 20.4176464,23.7177077 20.4176464,23.3698834 L20.4176464,21.8996112 C20.4309859,20.2503859 19.1262244,18.889334 17.4769991,18.8347239 L15.5866492,18.8347239 Z" id="Fill-4"></path>
				<path d="M4.22690643,7.44910432 C3.83539396,7.44910432 3.51865533,7.13236569 3.51865533,6.74085321 L3.51865533,5.00929269 C3.51865533,4.61862037 3.83539396,4.30104159 4.22690643,4.30104159 L5.95846695,4.30104159 C6.34913927,4.30104159 6.66671806,4.61862037 6.66671806,5.00929269 L6.66671806,6.74085321 C6.66671806,7.13236569 6.34913927,7.44910432 5.95846695,7.44910432 L4.22690643,7.44910432 Z" id="Fill-6"></path>
				<path d="M8.14950853,7.44910432 C7.75883621,7.44910432 7.44209758,7.13236569 7.44209758,6.74085321 L7.44209758,5.00929269 C7.44209758,4.61862037 7.75883621,4.30104159 8.14950853,4.30104159 L9.88190921,4.30104159 C10.2725815,4.30104159 10.5893202,4.61862037 10.5893202,5.00929269 L10.5893202,6.74085321 C10.5893202,7.13236569 10.2725815,7.44910432 9.88190921,7.44910432 L8.14950853,7.44910432 Z" id="Fill-8"></path>
				<path d="M12.1641077,7.44910432 C11.7734353,7.44910432 11.4566967,7.13236569 11.4566967,6.74085321 L11.4566967,5.00929269 C11.4566967,4.61862037 11.7734353,4.30104159 12.1641077,4.30104159 L13.8965083,4.30104159 C14.2871807,4.30104159 14.6047594,4.61862037 14.6047594,5.00929269 L14.6047594,6.74085321 C14.6047594,7.13236569 14.2871807,7.44910432 13.8965083,7.44910432 L12.1641077,7.44910432 Z" id="Fill-10"></path>
				<path d="M4.22690643,12.2037124 C3.83539396,12.2037124 3.51865533,11.8869738 3.51865533,11.4954613 L3.51865533,9.7639008 C3.51865533,9.37322848 3.83539396,9.0556497 4.22690643,9.0556497 L5.95846695,9.0556497 C6.34913927,9.0556497 6.66671806,9.37322848 6.66671806,9.7639008 L6.66671806,11.4954613 C6.66671806,11.8869738 6.34913927,12.2037124 5.95846695,12.2037124 L4.22690643,12.2037124 Z" id="Fill-12"></path>
				<path d="M4.22690643,16.9583205 C3.83539396,16.9583205 3.51865533,16.6415819 3.51865533,16.2500694 L3.51865533,14.5185089 C3.51865533,14.1278366 3.83539396,13.8102578 4.22690643,13.8102578 L5.95846695,13.8102578 C6.34913927,13.8102578 6.66671806,14.1278366 6.66671806,14.5185089 L6.66671806,16.2500694 C6.66671806,16.6415819 6.34913927,16.9583205 5.95846695,16.9583205 L4.22690643,16.9583205 Z" id="Fill-14"></path>
				<path d="M8.19504496,16.9583205 C7.80437264,16.9583205 7.48763401,16.6415819 7.48763401,16.2500694 L7.48763401,14.5185089 C7.48763401,14.1278366 7.80437264,13.8102578 8.19504496,13.8102578 L9.92744564,13.8102578 C10.318118,13.8102578 10.6356967,14.1278366 10.6356967,14.5185089 L10.6356967,16.2500694 C10.6356967,16.6415819 10.318118,16.9583205 9.92744564,16.9583205 L8.19504496,16.9583205 Z" id="Fill-16"></path>
				<path d="M8.14950853,12.2037124 C7.75883621,12.2037124 7.44209758,11.8869738 7.44209758,11.4954613 L7.44209758,9.7639008 C7.44209758,9.37322848 7.75883621,9.0556497 8.14950853,9.0556497 L9.88190921,9.0556497 C10.2725815,9.0556497 10.5893202,9.37322848 10.5893202,9.7639008 L10.5893202,11.4954613 C10.5893202,11.8869738 10.2725815,12.2037124 9.88190921,12.2037124 L8.14950853,12.2037124 Z" id="Fill-18"></path>
				<path d="M12.1641077,12.2037124 C11.7734353,12.2037124 11.4566967,11.8869738 11.4566967,11.4954613 L11.4566967,9.7639008 C11.4566967,9.37322848 11.7734353,9.0556497 12.1641077,9.0556497 L13.8965083,9.0556497 C14.2871807,9.0556497 14.6047594,9.37322848 14.6047594,9.7639008 L14.6047594,11.4954613 C14.6047594,11.8869738 14.2871807,12.2037124 13.8965083,12.2037124 L12.1641077,12.2037124 Z" id="Fill-20"></path>
			</g>
		</g>
	</symbol>
	<symbol id="skin_swab" name="Skin swabs" xmlns="http://www.w3.org/2000/svg" viewBox="0 0 24 24"  xmlns:xlink="http://www.w3.org/1999/xlink">
		<g id="Medical-Swab-Icon" stroke="none" stroke-width="1" fill-rule="evenodd">
			<g id="Group-8" transform="translate(5.000000, -0.351524)">
				<path d="M7.43192396,14.6674478 C7.43192396,14.6352745 7.71111667,14.7889914 7.71111667,14.7568181 C7.77510578,14.7889914 7.81800351,14.8068654 7.85375161,14.8247395 L7.85375161,7.08777695 L5.94122795,7.09027932 L5.94122795,14.8926609 C5.97340125,14.8676372 5.9987824,14.8604876 6.05562189,14.8175899 C6.05562189,14.8426136 6.42382738,14.6316997 6.42382738,14.6567234 C6.75270995,14.5423295 7.08516734,14.5530539 7.43192396,14.6674478 Z"></path>
				<g id="Group-5" transform="translate(0.000000, 0.355086)">
					<path d="M11.0676136,6.01515503 C11.0676136,6.41195901 10.7458806,6.73011715 10.3526515,6.73011715 L10.0380681,6.73011715 L8.78152221,6.73154707 C8.77794739,7.64240881 8.7722277,8.55470047 8.76901037,9.46484725 C8.76543556,11.4595916 8.76543556,13.4507611 8.75828594,15.4455054 C9.13006624,16.056798 9.36600374,16.811083 9.53044502,17.490297 C9.66271301,18.037243 9.73063442,18.5913387 9.6233901,19.1454343 C9.31238158,20.7540991 7.95752837,21.7589783 6.44180868,21.5012345 C5.13700281,21.2795962 4.16465433,20.0856095 4.13605585,18.6270868 C4.12533142,18.1337629 4.2218513,17.6583131 4.3576941,17.1900129 C4.51498577,16.6394921 4.73304922,16.1247194 5.01545925,15.6492696 C5.01903406,14.5446531 5.01903406,13.4364618 5.01903406,12.3282705 C5.02260887,11.8957184 5.02260887,11.4595916 5.02260887,11.0270395 C5.02618368,10.1476361 5.02618368,9.26465786 5.02975849,8.38525445 C5.03226086,7.83544858 5.03476323,7.2860002 5.03690812,6.73619433 L4.12890623,6.73726677 L3.45684184,6.73726677 C3.06003786,6.73726677 2.74187972,6.41553382 2.74187972,6.02230465 L2.74187972,2.47251774 C2.74187972,2.07571377 3.06361267,1.75755562 3.45684184,1.75755562 L10.3526515,1.75755562 C10.7494554,1.75755562 11.0676136,2.07928858 11.0676136,2.47251774 L11.0676136,6.01515503 Z M13.9310369,0.481348245 C13.9310369,0.156040482 13.7165482,0.00589843747 13.2410984,0.00589843747 C12.4260416,0.00589843747 11.6113423,0.00947324805 10.795928,0.00947324805 C9.04069597,0.00589843747 7.28188916,0.00232362688 5.52308236,0.00232362688 L3.97518937,0.00232362688 L0.604142989,0.00232362688 C0.221638256,0.00232362688 0,0.163190103 0,0.427726087 L0,7.57019764 C0,7.83115881 0.228787878,7.98487567 0.61129261,7.98487567 L1.3155303,7.98487567 L1.31910511,7.98487567 L1.31910511,7.9956001 L2.38797347,7.9956001 L2.38797347,8.7391607 C2.38797347,12.6249798 2.38439866,16.5107989 2.38797347,20.3930432 C2.38797347,20.5932326 2.40584752,20.7969968 2.44874525,20.9936114 C2.64535983,21.8551407 3.16370737,22.5736777 4.02523672,23.1281308 C5.20492421,23.8820583 6.54905299,24.1215707 8.01830015,23.832011 C10.0452177,23.4316322 11.4215198,22.0052828 11.417945,20.3576526 C11.4143702,18.3411019 11.417945,16.3249088 11.417945,14.3087156 L11.417945,7.98845048 L11.475142,7.98845048 L11.475142,7.9956001 L12.6155066,7.9956001 L12.6155066,7.98487567 C12.8442944,7.98487567 13.0516335,7.97772605 13.2553977,7.98845048 C13.6522016,8.00989934 13.9381865,7.81685957 13.934996,7.51657548 C13.927462,5.17149973 13.9310369,2.82642399 13.9310369,0.481348245 L13.9310369,0.481348245 Z"></path>
				</g>
				<path d="M7.56086738,15.8077052 C7.38570166,15.6364717 7.18908708,15.4966966 6.94242515,15.4863297 C6.67788917,15.4720305 6.46661786,15.6110906 6.27751038,15.7862563 C5.9128797,16.1262208 5.66228548,16.5512658 5.45887876,17.0124163 C5.19434277,17.6129845 5.00487781,18.2385764 4.97627933,18.9535385 C4.99057857,19.0643576 4.99415338,19.2255816 5.02632668,19.3753661 C5.28013823,20.5550536 6.34185697,21.2414173 7.42859939,20.9196843 C8.29370355,20.6622979 8.86889058,19.8007686 8.82635033,18.8319949 C8.80132666,18.3279466 8.6758508,17.8453472 8.50104257,17.3774045 C8.27940431,16.7907781 8.00378641,16.2402572 7.56086738,15.8077052"></path>
			</g>
		</g>
	</symbol>
	<symbol id="camera_icon" name="Photographs" viewBox="0 0 24 24">
		<circle cx="14.75" cy="13.125" r="3.75"/>
		<path d="M21.444,6.125H20.128a.534.534,0,0,1-.481-.346C19.029,4.475,18.39,3.125,17,3.125H12c-1.071,0-1.636.778-2.659,2.191-.384.527-.51.809-.844.809h-6C.434,6.125,0,7.334,0,8.348V18.736a2.254,2.254,0,0,0,2.556,2.389H21.444A2.254,2.254,0,0,0,24,18.736V8.348C24,7.334,23.557,6.125,21.444,6.125Zm-.944,7a5.75,5.75,0,1,1-5.75-5.75A5.756,5.756,0,0,1,20.5,13.125ZM5,9.875a1.25,1.25,0,1,1-1.25-1.25A1.25,1.25,0,0,1,5,9.875Z"/>
		<path d="M2.5,5.109l3,.016h0a.5.5,0,0,0,.5-.5v-.25a1.5,1.5,0,0,0-1.5-1.5h-1A1.5,1.5,0,0,0,2,4.375v.234A.5.5,0,0,0,2.5,5.109Z"/>
    </symbol>
    <symbol id="initial-visit" name="task-list-heart" viewBox="0 0 24 24" version="1.1" xmlns="http://www.w3.org/2000/svg"
		xmlns:xlink="http://www.w3.org/1999/xlink">
		<path d="M12.75,8.5a.75.75,0,0,0-.75-.75H6a.75.75,0,0,0,0,1.5h6A.75.75,0,0,0,12.75,8.5Z"/>
		<path d="M10.542,19.078A.236.236,0,0,0,10.36,19H3.5a.5.5,0,0,1-.5-.5V5.5A.5.5,0,0,1,3.5,5h11a.5.5,0,0,1,.5.5v5.338a.253.253,0,0,0,.2.243c.881.218,2.218,1.224,2.736.679A.257.257,0,0,0,18,11.582V3.5A1.5,1.5,0,0,0,16.5,2h-4a.239.239,0,0,1-.207-.121,3.828,3.828,0,0,0-6.589,0A.239.239,0,0,1,5.5,2h-4A1.5,1.5,0,0,0,0,3.5v17A1.5,1.5,0,0,0,1.5,22H12.709a.249.249,0,0,0,.185-.419C12.213,20.864,10.87,19.447,10.542,19.078Z"/>
		<path d="M6,14.749a.75.75,0,1,0,0,1.5H9.265A.244.244,0,0,0,9.508,16a5.089,5.089,0,0,1,.1-.95.247.247,0,0,0-.239-.3Z"/>
		<path d="M10.789,12.669a5.038,5.038,0,0,1,1.186-.967c.165-.1.212-.453.025-.453H6a.75.75,0,0,0,0,1.5h4.612A.235.235,0,0,0,10.789,12.669Z"/><path d="M23.628,14.449a3.509,3.509,0,0,0-3.045-1.95,3.669,3.669,0,0,0-2.695,1.126l-.212.212a.249.249,0,0,1-.353,0l-.212-.212A3.669,3.669,0,0,0,14.416,12.5a3.528,3.528,0,0,0-2.391,6.012l5.113,5.335a.5.5,0,0,0,.723,0l5.106-5.328A3.523,3.523,0,0,0,23.628,14.449Z"/>
    </symbol>
    <symbol viewBox="0 0 98 96" id="televisit" name="Televisit" xmlns="http://www.w3.org/2000/svg">
        <g fill-rule="nonzero">
            <path d="M90.497 0H66.038a7.338 7.338 0 0 0-7.337 7.338v44.025a7.338 7.338 0 0 0 7.337 7.338h24.459a7.338 7.338 0 0 0 7.337-7.338V7.338A7.338 7.338 0 0 0 90.497 0ZM63.592 46.471V8.561c0-.676.548-1.223 1.223-1.223H91.72c.675 0 1.223.547 1.223 1.223v37.91c0 .676-.548 1.223-1.223 1.223H64.815a1.223 1.223 0 0 1-1.223-1.223Z"/>
            <path d="M77.375 26.223a.255.255 0 0 0-.13.222v1.103a.255.255 0 0 0 .342.239c.216-.08.445-.121.676-.121h.481a.255.255 0 0 0 .176-.438 7.617 7.617 0 0 0-1.287-1 .257.257 0 0 0-.258-.005Z"/>
            <path d="M76.124 25.534a5.727 5.727 0 1 0-5.133-.022c.086.043.14.131.14.227v2.87c.001.098.058.188.147.23a1.528 1.528 0 1 1-1.31 0 .257.257 0 0 0 .145-.23v-2.165a.254.254 0 0 0-.387-.217 7.64 7.64 0 0 0-3.688 6.532c0 .282.228.51.51.51h9.423c.14 0 .255-.114.255-.255V25.68a.149.149 0 0 0-.102-.145ZM73.577 24.1a3.694 3.694 0 0 1-3.687-3.69c.002-.478.1-.951.288-1.391a.257.257 0 0 1 .385-.102 7.764 7.764 0 0 0 4.585 1.5 7.713 7.713 0 0 0 1.834-.227.227.227 0 0 1 .197.044.23.23 0 0 1 .089.181 3.694 3.694 0 0 1-3.691 3.685ZM88.96 28.946h-1.783a.51.51 0 0 1-.51-.51v-.508a1.785 1.785 0 0 0-1.782-1.783h-2.038a1.785 1.785 0 0 0-1.782 1.783v.509a.51.51 0 0 1-.51.51h-1.782c-.844 0-1.529.683-1.529 1.527v7.132c0 .844.685 1.528 1.529 1.528H88.96c.844 0 1.528-.684 1.528-1.528v-7.132c0-.844-.684-1.528-1.528-1.528Zm-6.367-1.018c0-.141.114-.255.254-.255h2.038c.14 0 .255.114.255.255v.509a.51.51 0 0 1-.51.51h-1.528a.51.51 0 0 1-.51-.51v-.51Zm3.82 6.876c0 .14-.114.255-.255.255h-.764a.51.51 0 0 0-.509.51v.763c0 .14-.114.255-.255.255h-1.528a.255.255 0 0 1-.255-.255v-.764a.51.51 0 0 0-.509-.51h-.764a.255.255 0 0 1-.255-.254v-1.528c0-.14.114-.255.255-.255h.764a.51.51 0 0 0 .51-.51v-.763c0-.14.114-.255.254-.255h1.528c.14 0 .255.114.255.255v.764c0 .281.228.51.51.51h.763c.141 0 .255.113.255.254v1.528Z"/>
            <circle cx="30.56" cy="39.442" r="19.875"/>
            <path d="M24.646 66.004C10.783 68.739.597 80.611 0 94.728A1.218 1.218 0 0 0 1.224 96h58.662c.334 0 .653-.136.885-.377.23-.24.352-.563.338-.895-.595-14.112-10.774-25.983-24.63-28.724a30.867 30.867 0 0 0-11.833 0Z"/>
        </g>
    </symbol>
</svg>
