<!-- Created By Leonid Bartenev -->

<svg xmlns="http://www.w3.org/2000/svg" xmlns:xlink="http://www.w3.org/1999/xlink" display="none">
    <symbol id="custom-fasting" viewBox="0 0 98 98" version="1.1" fill="#999999" xmlns="http://www.w3.org/2000/svg"
            xmlns:xlink="http://www.w3.org/1999/xlink">
        <g id="Artboard" stroke="none" stroke-width="1" fill="none" fill-rule="evenodd">
            <g id="icons8-food" transform="translate(4.000000, 4.000000)" fill="#999999" fill-rule="nonzero">
                <path d="M65.1286765,1.67668269 C65.0528488,1.69020433 64.9770229,1.71048669 64.9080882,1.73076923 C64.0877753,1.91331173 63.5087312,2.63671962 63.5294118,3.46153846 L63.5294118,27.6923077 C63.5225188,28.3143029 63.8534012,28.895734 64.4048718,29.2134912 C64.9563424,29.5244896 65.6318929,29.5244896 66.1833635,29.2134912 C66.7348341,28.895734 67.0657165,28.3143029 67.0588235,27.6923077 L67.0588235,3.46153846 C67.0795041,2.96123885 66.8727018,2.48122038 66.5073529,2.14317865 C66.1351112,1.7983774 65.6318929,1.62935688 65.1286765,1.67668269 Z M75.7169118,1.67668269 C75.6410841,1.69020433 75.5652582,1.71048669 75.4963235,1.73076923 C74.6760106,1.91331173 74.0969665,2.63671962 74.1176471,3.46153846 L74.1176471,27.6923077 C74.1107541,28.3143029 74.4416365,28.895734 74.9931071,29.2134912 C75.5445776,29.5244896 76.2201282,29.5244896 76.7715988,29.2134912 C77.3230694,28.895734 77.6539518,28.3143029 77.6470588,27.6923077 L77.6470588,3.46153846 C77.6677394,2.96123885 77.4609371,2.48122038 77.0955882,2.14317865 C76.7233465,1.7983774 76.2201282,1.62935688 75.7169118,1.67668269 Z M86.3051471,1.67668269 C86.2293194,1.69020433 86.1534935,1.71048669 86.0845588,1.73076923 C85.2642459,1.91331173 84.6852018,2.63671962 84.7058824,3.46153846 L84.7058824,34.6153846 C84.7058824,39.4155658 80.7766553,43.2692308 75.8823529,43.2692308 C74.9103865,43.2692308 74.1176471,44.0467252 74.1176471,45 L74.1176471,86.5384615 C74.1107541,87.1604567 74.4416365,87.7418879 74.9931071,88.059645 C75.5445776,88.3706435 76.2201282,88.3706435 76.7715988,88.059645 C77.3230694,87.7418879 77.6539518,87.1604567 77.6470588,86.5384615 L77.6470588,46.3521635 C83.5822606,45.4732581 88.2352941,40.6730769 88.2352941,34.6153846 L88.2352941,3.46153846 C88.2559747,2.96123885 88.0491724,2.48122038 87.6838235,2.14317865 C87.3115818,1.7983774 86.8083635,1.62935688 86.3051471,1.67668269 Z M1.43382353,1.73076923 C0.592831765,1.88626812 -0.0137867647,2.61643673 2.3510382e-15,3.46153846 L2.3510382e-15,32.8846154 C2.3510382e-15,45.7301683 9.05101059,56.378456 21.1764706,59.4951923 L21.1764706,76.1538462 C21.1764706,79.2029752 20.15625,81.1230473 18.1985294,82.5360577 C16.2408088,83.9490681 13.1112141,84.8076923 8.82352941,84.8076923 C8.18933824,84.8009319 7.59650824,85.1254512 7.27251882,85.6663165 C6.95542235,86.2071819 6.95542235,86.8697412 7.27251882,87.4106065 C7.59650824,87.9514719 8.18933824,88.2759912 8.82352941,88.2692308 C13.5730694,88.2692308 17.4540441,87.3970858 20.2941176,85.3485577 C23.1341912,83.3000296 24.7058824,80.027794 24.7058824,76.1538462 L24.7058824,58.3052885 C24.6920965,57.4804696 24.0923718,56.784105 23.2720588,56.6286058 C12.0013782,54.3840144 3.52941176,44.6281546 3.52941176,32.8846154 L3.52941176,5.19230769 L52.9411765,5.19230769 L52.9411765,32.8846154 C52.9411765,44.6281546 44.46921,54.3840144 33.1985294,56.6286058 C32.3782165,56.784105 31.7784935,57.4804696 31.7647059,58.3052885 L31.7647059,76.1538462 C31.7647059,80.027794 33.3363971,83.3000296 36.1764706,85.3485577 C39.0165441,87.3970858 42.8975188,88.2692308 47.6470588,88.2692308 C48.28125,88.2759912 48.8740818,87.9514719 49.1980694,87.4106065 C49.5151659,86.8697412 49.5151659,86.2071819 49.1980694,85.6663165 C48.8740818,85.1254512 48.28125,84.8009319 47.6470588,84.8076923 C43.3593759,84.8076923 40.2297794,83.9490681 38.2720588,82.5360577 C36.3143382,81.1230473 35.2941176,79.2029752 35.2941176,76.1538462 L35.2941176,59.4951923 C47.4195776,56.378456 56.4705882,45.7301683 56.4705882,32.8846154 L56.4705882,3.46153846 C56.4705882,2.50826365 55.6778488,1.73076923 54.7058824,1.73076923 L1.76470588,1.73076923 C1.70955882,1.73076923 1.65441176,1.73076923 1.59926471,1.73076923 C1.54411765,1.73076923 1.48897059,1.73076923 1.43382353,1.73076923 Z"
                      id="Shape"></path>
            </g>
            <path d="M4,4 L94,94" id="Line" stroke="#979797" stroke-width="4" stroke-linecap="square"></path>
        </g>
    </symbol>

    <symbol id="Hand-X-Ray" viewBox="0 0 112 112" version="1.1" xmlns="http://www.w3.org/2000/svg"
            xmlns:xlink="http://www.w3.org/1999/xlink">
        <g id="Hand-X-Ray" stroke="none" stroke-width="1" fill="none" fill-rule="evenodd">
            <g id="icons8-hand" transform="translate(18.000000, 11.000000)" fill="#878787" fill-rule="nonzero">
                <path d="M39.6,0 C35.1703134,0 32.4,3.740625 32.4,7.2 L32.4,8.26875 C31.2679692,7.6289058 30.0375,7.2 28.8,7.2 C25.425,7.2 21.6632808,9.7242192 21.43125,14.11875 C21.43125,14.1539058 21.43125,14.1960942 21.43125,14.23125 L21.43125,52.875 L15.58125,45.84375 C15.5671884,45.8085942 15.5460942,45.7664058 15.525,45.73125 C12.515625,42.4898442 7.3546884,42.5460942 4.1625,45.675 C4.1484384,45.6890634 4.1765634,45.7171884 4.1625,45.73125 C0.984375,48.7195308 0.9632808,53.7398442 3.99375,56.925 L4.10625,57.09375 L24.8625,83.7 C27.9,87.75 32.6039058,90 37.63125,90 L52.2,90 C61.1015634,90 68.4,82.7015634 68.4,73.8 L68.4,21.6 C68.4,20.2570308 68.3296884,18.2039058 67.3875,16.25625 C66.4453134,14.3085942 64.2796884,12.6 61.2,12.6 C59.7726558,12.6 58.6125,13.078125 57.6,13.66875 L57.6,12.6 C57.6,9.8648442 57.121875,7.6640634 55.85625,6.01875 C54.590625,4.3734384 52.5585942,3.6 50.4,3.6 C48.76875,3.6 47.4679692,4.134375 46.35,4.8375 C45.421875,2.2289058 43.0171884,0 39.6,0 Z M39.6,3.6 C42.0117192,3.6 43.2,5.625 43.2,7.2 L43.2,39.6 L46.8,39.6 L46.8,10.8 C46.8,9.8367192 47.0390634,8.8804692 47.53125,8.26875 C48.0234384,7.6570308 48.7476558,7.2 50.4,7.2 C51.8414058,7.2 52.509375,7.5164058 53.04375,8.2125 C53.578125,8.9085942 54,10.29375 54,12.6 L54,43.2 L57.6,43.2 L57.6,21.6 C57.6,20.4257808 57.7195308,18.8578134 58.21875,17.83125 C58.7179692,16.8046884 59.2382808,16.2 61.2,16.2 C63.1617192,16.2 63.6820308,16.8046884 64.18125,17.83125 C64.6804692,18.8578134 64.8,20.4257808 64.8,21.6 L64.8,73.8 C64.8,80.7398442 59.1398442,86.4 52.2,86.4 L37.63125,86.4 C33.6585942,86.4 30.09375,84.7125 27.73125,81.5625 C27.7101558,81.5414058 27.6960942,81.5273442 27.675,81.50625 L6.80625,54.675 C6.7710942,54.61875 6.7359384,54.5625 6.69375,54.50625 C4.8375,52.65 4.8585942,49.9710942 6.6375,48.31875 C6.6585942,48.2976558 6.6726558,48.2835942 6.69375,48.2625 C8.5289058,46.4273442 11.165625,46.4273442 12.825,48.15 C12.8460942,48.1710942 12.8601558,48.1851558 12.88125,48.20625 L21.825,58.95 C22.3101558,59.5546884 23.1257808,59.7867192 23.8570308,59.5195308 C24.58125,59.2453134 25.059375,58.5421884 25.03125,57.76875 L25.03125,14.23125 C25.1929692,11.8265634 27.1546884,10.8 28.8,10.8 C29.6296884,10.8 30.6,11.1164058 31.275,11.7 C31.95,12.2835942 32.4,13.078125 32.4,14.4 L32.4,41.4 L36,41.4 L36,7.2 C36,5.625 37.1882808,3.6 39.6,3.6 Z"
                      id="Shape"></path>
            </g>
            <polyline id="Line-6" stroke="#878787" stroke-width="4" stroke-linecap="round"
                      points="46.5 25 46.5 28.6386719 46.5 31.5"></polyline>
            <polyline id="Line-6" stroke="#878787" stroke-width="4" stroke-linecap="round"
                      points="46.5 37 46.5 37.5597957 46.5 38"></polyline>
            <polyline id="Line-6" stroke="#878787" stroke-width="4" stroke-linecap="round"
                      points="46.5 44 46.5 47.6386719 46.5 50.5"></polyline>
            <polyline id="Line-6" stroke="#878787" stroke-width="4" stroke-linecap="round"
                      points="57.5 39 57.5 44.5979567 57.5 49"></polyline>
            <polyline id="Line-6" stroke="#878787" stroke-width="4" stroke-linecap="round"
                      points="68.5 43 68.5 46.0788762 68.5 48.5"></polyline>
            <polyline id="Line-6" stroke="#878787" stroke-width="4" stroke-linecap="round"
                      points="79.5 49 79.5 51.5190805 79.5 53.5"></polyline>
            <polyline id="Line-6" stroke="#878787" stroke-width="4" stroke-linecap="round"
                      transform="translate(51.142809, 75.131334) rotate(-14.000000) translate(-51.142809, -75.131334) "
                      points="51.1428086 63.1313337 51.1428086 76.5664299 51.1428086 87.1313337"></polyline>
            <polyline id="Line-6" stroke="#878787" stroke-width="4" stroke-linecap="round"
                      transform="translate(58.753725, 73.127660) rotate(-3.000000) translate(-58.753725, -73.127660) "
                      points="58.7537248 60.1276596 58.7537248 74.6823471 58.7537248 86.1276596"></polyline>
            <polyline id="Line-6" stroke="#878787" stroke-width="4" stroke-linecap="round"
                      transform="translate(67.064221, 74.480973) rotate(5.000000) translate(-67.064221, -74.480973) "
                      points="67.0642213 61.9809735 67.0642213 75.9758653 67.0642213 86.9809735"></polyline>
            <polyline id="Line-6" stroke="#878787" stroke-width="4" stroke-linecap="round"
                      transform="translate(74.876265, 76.434443) rotate(12.000000) translate(-74.876265, -76.434443) "
                      points="74.8762649 65.9344428 74.8762649 77.6901519 74.8762649 86.9344428"></polyline>
            <polyline id="Line-6" stroke="#878787" stroke-width="4" stroke-linecap="round"
                      transform="translate(28.899318, 63.949092) rotate(-37.000000) translate(-28.899318, -63.949092) "
                      points="28.8993178 60.6990925 28.8993178 64.3377644 28.8993178 67.1990925"></polyline>
            <polyline id="Line-6" stroke="#878787" stroke-width="4" stroke-linecap="round"
                      transform="translate(28.899318, 63.949092) rotate(-37.000000) translate(-28.899318, -63.949092) "
                      points="28.8993178 60.6990925 28.8993178 64.3377644 28.8993178 67.1990925"></polyline>
            <polyline id="Line-6" stroke="#878787" stroke-width="4" stroke-linecap="round"
                      transform="translate(45.000000, 84.000000) rotate(-37.000000) translate(-45.000000, -84.000000) "
                      points="45 75 45 85.0763221 45 93"></polyline>
            <polyline id="Line-6" stroke="#878787" stroke-width="4" stroke-linecap="round"
                      points="57.5 18 57.5 21.6386719 57.5 24.5"></polyline>
            <polyline id="Line-6" stroke="#878787" stroke-width="4" stroke-linecap="round"
                      points="68.5 22 68.5 25.6386719 68.5 28.5"></polyline>
            <polyline id="Line-6" stroke="#878787" stroke-width="4" stroke-linecap="round"
                      points="79.5 31 79.5 34.6386719 79.5 37.5"></polyline>
            <polyline id="Line-6" stroke="#878787" stroke-width="4" stroke-linecap="round"
                      points="79.5 31 79.5 34.0788762 79.5 36.5"></polyline>
            <polyline id="Line-6" stroke="#878787" stroke-width="4" stroke-linecap="round"
                      points="57.5 31 57.5 31.5597957 57.5 32"></polyline>
            <polyline id="Line-6" stroke="#878787" stroke-width="4" stroke-linecap="round"
                      points="68.5 35 68.5 35.5597957 68.5 36"></polyline>
            <polyline id="Line-6" stroke="#878787" stroke-width="4" stroke-linecap="round"
                      points="79.5 43 79.5 43.5597957 79.5 44"></polyline>
            <polyline id="Line-6" stroke="#878787" stroke-width="4" stroke-linecap="round"
                      points="46.5 56 46.5 56.5597957 46.5 57"></polyline>
            <polyline id="Line-6" stroke="#878787" stroke-width="4" stroke-linecap="round"
                      points="57.5 54 57.5 54.5597957 57.5 55"></polyline>
            <polyline id="Line-6" stroke="#878787" stroke-width="4" stroke-linecap="round"
                      points="68.5 55 68.5 55.5597957 68.5 56"></polyline>
            <polyline id="Line-6" stroke="#878787" stroke-width="4" stroke-linecap="round"
                      points="78.5 60 78.5 60.5597957 78.5 61"></polyline>
            <polyline id="Line-6" stroke="#878787" stroke-width="4" stroke-linecap="round"
                      transform="translate(35.500000, 71.500000) rotate(-39.000000) translate(-35.500000, -71.500000) "
                      points="35.5 71 35.5 71.5597957 35.5 72"></polyline>
        </g>
    </symbol>

    <symbol id='cancel' xmlns="http://www.w3.org/2000/svg" xmlns:xlink="http://www.w3.org/1999/xlink"
            viewBox="0 0 24 24" version="1.1"
            fill="#878787">
        <g>
            <path style=" "
                  d="M 12 0 C 5.382813 0 0 5.382813 0 12 C 0 18.617188 5.382813 24 12 24 C 18.617188 24 24 18.617188 24 12 C 24 5.382813 18.617188 0 12 0 Z M 12 2 C 17.535156 2 22 6.464844 22 12 C 22 14.398438 21.148438 16.59375 19.75 18.3125 L 5.6875 4.25 C 7.40625 2.851563 9.601563 2 12 2 Z M 4.25 5.6875 L 18.3125 19.75 C 16.59375 21.148438 14.398438 22 12 22 C 6.464844 22 2 17.535156 2 12 C 2 9.601563 2.851563 7.40625 4.25 5.6875 Z "
                  fill="#878787"/>
        </g>

    </symbol>
    <symbol id="clickboard" xmlns="http://www.w3.org/2000/svg" xmlns:xlink="http://www.w3.org/1999/xlink"
            viewBox="0 0 50 50" version="1.1"
            fill="#999999">
        <g id="surface1" fill="#999999">
            <path style=" "
                  d="M 19 1 C 18.476563 1 17.941406 1.183594 17.5625 1.5625 C 17.183594 1.941406 17 2.476563 17 3 L 9 3 C 7.355469 3 6 4.355469 6 6 L 6 44 C 6 45.644531 7.355469 47 9 47 L 41 47 C 42.644531 47 44 45.644531 44 44 L 44 6 C 44 4.355469 42.644531 3 41 3 L 33 3 C 33 2.476563 32.816406 1.941406 32.4375 1.5625 C 32.058594 1.183594 31.523438 1 31 1 Z M 19 3 L 31 3 L 31 9 L 19 9 Z M 9 5 L 17 5 L 17 7 L 10 7 L 10 43 L 40 43 L 40 7 L 33 7 L 33 5 L 41 5 C 41.554688 5 42 5.445313 42 6 L 42 44 C 42 44.554688 41.554688 45 41 45 L 9 45 C 8.445313 45 8 44.554688 8 44 L 8 6 C 8 5.445313 8.445313 5 9 5 Z M 12 9 L 17 9 C 17 9.523438 17.183594 10.058594 17.5625 10.4375 C 17.941406 10.816406 18.476563 11 19 11 L 31 11 C 31.523438 11 32.058594 10.816406 32.4375 10.4375 C 32.816406 10.058594 33 9.523438 33 9 L 38 9 L 38 41 L 12 41 Z M 16 19 L 16 21 L 34 21 L 34 19 Z M 16 25 L 16 27 L 34 27 L 34 25 Z M 16 31 L 16 33 L 34 33 L 34 31 Z "
                  fill="#999999"/>
        </g>
    </symbol>
    <symbol id="food" xmlns="http://www.w3.org/2000/svg" xmlns:xlink="http://www.w3.org/1999/xlink" viewBox="0 0 50 50"
            version="1.1"
            fill="#999999">
        <g id="food" fill="#999999">
            <path style=" "
                  d="M 36.90625 -0.03125 C 36.863281 -0.0234375 36.820313 -0.0117188 36.78125 0 C 36.316406 0.105469 35.988281 0.523438 36 1 L 36 15 C 35.996094 15.359375 36.183594 15.695313 36.496094 15.878906 C 36.808594 16.058594 37.191406 16.058594 37.503906 15.878906 C 37.816406 15.695313 38.003906 15.359375 38 15 L 38 1 C 38.011719 0.710938 37.894531 0.433594 37.6875 0.238281 C 37.476563 0.0390625 37.191406 -0.0585938 36.90625 -0.03125 Z M 42.90625 -0.03125 C 42.863281 -0.0234375 42.820313 -0.0117188 42.78125 0 C 42.316406 0.105469 41.988281 0.523438 42 1 L 42 15 C 41.996094 15.359375 42.183594 15.695313 42.496094 15.878906 C 42.808594 16.058594 43.191406 16.058594 43.503906 15.878906 C 43.816406 15.695313 44.003906 15.359375 44 15 L 44 1 C 44.011719 0.710938 43.894531 0.433594 43.6875 0.238281 C 43.476563 0.0390625 43.191406 -0.0585938 42.90625 -0.03125 Z M 48.90625 -0.03125 C 48.863281 -0.0234375 48.820313 -0.0117188 48.78125 0 C 48.316406 0.105469 47.988281 0.523438 48 1 L 48 19 C 48 21.773438 45.773438 24 43 24 C 42.449219 24 42 24.449219 42 25 L 42 49 C 41.996094 49.359375 42.183594 49.695313 42.496094 49.878906 C 42.808594 50.058594 43.191406 50.058594 43.503906 49.878906 C 43.816406 49.695313 44.003906 49.359375 44 49 L 44 25.78125 C 47.363281 25.273438 50 22.5 50 19 L 50 1 C 50.011719 0.710938 49.894531 0.433594 49.6875 0.238281 C 49.476563 0.0390625 49.191406 -0.0585938 48.90625 -0.03125 Z M 0.8125 0 C 0.335938 0.0898438 -0.0078125 0.511719 0 1 L 0 18 C 0 25.421875 5.128906 31.574219 12 33.375 L 12 43 C 12 44.761719 11.421875 45.871094 10.3125 46.6875 C 9.203125 47.503906 7.429688 48 5 48 C 4.640625 47.996094 4.304688 48.183594 4.121094 48.496094 C 3.941406 48.808594 3.941406 49.191406 4.121094 49.503906 C 4.304688 49.816406 4.640625 50.003906 5 50 C 7.691406 50 9.890625 49.496094 11.5 48.3125 C 13.109375 47.128906 14 45.238281 14 43 L 14 32.6875 C 13.992188 32.210938 13.652344 31.808594 13.1875 31.71875 C 6.800781 30.421875 2 24.785156 2 18 L 2 2 L 30 2 L 30 18 C 30 24.785156 25.199219 30.421875 18.8125 31.71875 C 18.347656 31.808594 18.007813 32.210938 18 32.6875 L 18 43 C 18 45.238281 18.890625 47.128906 20.5 48.3125 C 22.109375 49.496094 24.308594 50 27 50 C 27.359375 50.003906 27.695313 49.816406 27.878906 49.503906 C 28.058594 49.191406 28.058594 48.808594 27.878906 48.496094 C 27.695313 48.183594 27.359375 47.996094 27 48 C 24.570313 48 22.796875 47.503906 21.6875 46.6875 C 20.578125 45.871094 20 44.761719 20 43 L 20 33.375 C 26.871094 31.574219 32 25.421875 32 18 L 32 1 C 32 0.449219 31.550781 0 31 0 L 1 0 C 0.96875 0 0.9375 0 0.90625 0 C 0.875 0 0.84375 0 0.8125 0 Z "
                  fill="#999999"/>
        </g>
    </symbol>
    <symbol id="health_checkup" xmlns="http://www.w3.org/2000/svg" xmlns:xlink="http://www.w3.org/1999/xlink"
            viewBox="0 0 50 50" version="1.1"
            fill="#999999">
        <path style="line-height:normal;text-indent:0;text-align:start;text-decoration-line:none;text-decoration-style:solid;text-decoration-color:#000;text-transform:none;block-progression:tb;isolation:auto;mix-blend-mode:normal"
              d="M 38 3 C 35.250421 3 33 5.2504209 33 8 C 33 10.749579 35.250421 13 38 13 C 40.749579 13 43 10.749579 43 8 C 43 5.2504209 40.749579 3 38 3 z M 8 5 A 2 2 0 0 0 6.2695312 6 L 3 6 A 1.0001 1.0001 0 0 0 2 7 L 2 15 C 2 21.278497 6.8526955 26.438848 13.001953 26.949219 A 1.0001 1.0001 0 0 0 13 27 C 13 29.492799 13.119187 32.938847 14.927734 35.865234 C 16.736282 38.791621 20.290171 41 26.443359 41 C 29.194236 41 31.388226 40.409719 33.115234 39.486328 A 1.0001 1.0001 0 0 0 33.503906 39.251953 C 35.091442 38.315552 36.267678 37.099139 37.072266 35.804688 C 38.780979 33.055644 39 30.120311 39 28.857422 L 39 26.855469 C 40.7157 26.405545 42 24.850107 42 23 C 42 20.802937 40.197063 19 38 19 C 35.802264 19 34 20.80334 34 23 C 34 24.849768 35.284049 26.405463 37 26.855469 L 37 28.857422 C 37 29.858533 36.775584 32.493544 35.373047 34.75 C 34.941139 35.444869 34.389796 36.104754 33.710938 36.699219 L 33.449219 31.703125 L 30 30.322266 L 30 24 C 30 19.569334 33.569334 16 38 16 C 42.430666 16 46 19.569334 46 24 L 46 30.322266 L 42.550781 31.703125 L 41.851562 45 L 34.152344 45 L 33.949219 41.320312 C 33.349219 41.650312 32.7 41.929922 32 42.169922 L 32.101562 44.103516 A 1.0004143 1.0004143 0 0 0 32.101562 44.177734 L 32.251953 47 L 43.748047 47 L 44.480469 33.083984 L 48 31.677734 L 48 24 C 48 18.488666 43.511334 14 38 14 C 32.488666 14 28 18.488666 28 24 L 28 31.677734 L 31.519531 33.083984 L 31.775391 37.951172 C 30.414635 38.589991 28.69687 39 26.443359 39 C 20.745548 39 18.079609 37.161816 16.628906 34.814453 C 15.178204 32.46709 15 29.412201 15 27 A 1.0001 1.0001 0 0 0 14.998047 26.949219 C 21.147304 26.438848 26 21.278497 26 15 L 26 7 A 1.0001 1.0001 0 0 0 25 6 L 21.728516 6 A 2 2 0 0 0 20 5 A 2 2 0 0 0 18 7 A 2 2 0 0 0 20 9 A 2 2 0 0 0 21.730469 8 L 24 8 L 24 15 C 24 20.534534 19.534534 25 14 25 C 8.4654664 25 4 20.534534 4 15 L 4 8 L 6.2714844 8 A 2 2 0 0 0 8 9 A 2 2 0 0 0 10 7 A 2 2 0 0 0 8 5 z M 38 5 C 39.668699 5 41 6.3313011 41 8 C 41 9.6686989 39.668699 11 38 11 C 36.331301 11 35 9.6686989 35 8 C 35 6.3313011 36.331301 5 38 5 z M 38 21 C 39.114937 21 40 21.885063 40 23 C 40 24.084092 39.16108 24.943105 38.089844 24.990234 A 1.0001 1.0001 0 0 0 37.984375 24.986328 A 1.0001 1.0001 0 0 0 37.908203 24.990234 C 36.836762 24.942153 36 24.08382 36 23 C 36 21.88466 36.883736 21 38 21 z"
              font-weight="400" font-family="sans-serif" white-space="normal" overflow="visible" fill="#999999"/>
    </symbol>
    <symbol  id="heart_pulse" xmlns="http://www.w3.org/2000/svg" xmlns:xlink="http://www.w3.org/1999/xlink"
            viewBox="0 0 50 50" version="1.1"
            fill="#999999">
        <path style="line-height:normal;text-indent:0;text-align:start;text-decoration-line:none;text-decoration-style:solid;text-decoration-color:#000;text-transform:none;block-progression:tb;isolation:auto;mix-blend-mode:normal"
              d="M 14.130859 4 C 6.3388594 4 0 10.367359 0 18.193359 C 0 19.519359 0.12751563 20.785 0.35351562 22 L 2.4003906 22 C 2.1443906 20.787 2 19.521359 2 18.193359 C 2 11.470359 7.4408594 6 14.130859 6 C 17.820859 6 20.949687 7.5625781 23.429688 10.642578 C 23.621688 10.882578 24.189453 11.613281 24.189453 11.613281 C 24.568453 12.101281 25.390531 12.101281 25.769531 11.613281 C 25.769531 11.612281 26.334297 10.885531 26.529297 10.644531 C 28.973297 7.6055313 32.203141 6 35.869141 6 C 42.559141 6 48 11.470359 48 18.193359 C 48 29.792359 37.458719 36.881641 29.761719 42.056641 C 27.955719 43.270641 26.322094 44.595219 24.996094 45.699219 C 23.937094 44.829219 21.801328 43.106687 20.236328 42.054688 C 14.996328 38.530687 8.4401094 34.118 4.7871094 28 L 2.46875 28 C 6.18775 35.011 13.400094 39.868797 19.121094 43.716797 C 21.145094 45.076797 24.325422 47.738625 24.357422 47.765625 C 24.529422 47.910625 24.750609 47.978516 24.974609 47.978516 C 25.233609 47.978516 25.496266 47.887703 25.697266 47.720703 C 27.030266 46.604703 28.856953 45.074797 30.876953 43.716797 C 38.947953 38.288797 50 30.857359 50 18.193359 C 50 10.367359 43.661141 4 35.869141 4 C 31.580141 4 27.814516 5.8608594 24.978516 9.3808594 C 22.143516 5.8608594 18.391859 4 14.130859 4 z M 17.490234 11 A 1.0001 1.0001 0 0 0 16.521484 11.798828 L 13.720703 25.40625 L 11.935547 20.648438 A 1.0001 1.0001 0 0 0 10.105469 20.552734 L 8.3828125 24 L 2 24 A 1.0001 1.0001 0 1 0 2 26 L 9 26 A 1.0001 1.0001 0 0 0 9.8945312 25.447266 L 10.869141 23.498047 L 13.064453 29.351562 A 1.0001 1.0001 0 0 0 14.978516 29.201172 L 17.4375 17.253906 L 20.515625 34.179688 A 1.0001 1.0001 0 0 0 22.433594 34.359375 L 26.488281 23.816406 L 28.564453 29.351562 A 1.0001 1.0001 0 0 0 30.347656 29.529297 L 32.554688 26 L 37.271484 26 A 2 2 0 0 0 39 27 A 2 2 0 0 0 41 25 A 2 2 0 0 0 39 23 A 2 2 0 0 0 37.269531 24 L 32 24 A 1.0001 1.0001 0 0 0 31.152344 24.470703 L 29.724609 26.753906 L 27.435547 20.648438 A 1.0001 1.0001 0 0 0 25.566406 20.640625 L 21.845703 30.3125 L 18.484375 11.820312 A 1.0001 1.0001 0 0 0 17.490234 11 z"
              font-weight="400" font-family="sans-serif" white-space="normal" overflow="visible" fill="#999999"/>
    </symbol>
    <symbol  id="hospital" xmlns="http://www.w3.org/2000/svg" xmlns:xlink="http://www.w3.org/1999/xlink"
             viewBox="0 0 65 65" version="1.1"
             fill="#999999">
        <g id="surface1" fill="#999999">
            <path style=" "
                  d="M 23 8 C 21.347656 8 20 9.347656 20 11 L 20 16 L 16 16 L 16 14.058594 C 16 13.503906 15.554688 13.058594 15 13.058594 C 14.445313 13.058594 14 13.503906 14 14.058594 L 14 16 L 12 16 L 12 9.054688 C 12 8.503906 11.554688 8.054688 11 8.054688 C 10.445313 8.054688 10 8.503906 10 9.054688 L 10 16 L 9.535156 16 C 8.863281 16 8.242188 16.332031 7.871094 16.890625 L 4.425781 22.058594 C 3.046875 22.328125 2 23.542969 2 25 C 2 26.300781 2.839844 27.402344 4 27.816406 L 4 60 L 1 60 C 0.445313 60 0 60.449219 0 61 C 0 61.550781 0.445313 62 1 62 L 61 62 C 61.554688 62 62 61.550781 62 61 C 62 60.449219 61.554688 60 61 60 L 58 60 L 58 27.816406 C 59.160156 27.402344 60 26.300781 60 25 C 60 23.542969 58.953125 22.328125 57.574219 22.058594 L 54.128906 16.890625 C 53.757813 16.332031 53.136719 16 52.464844 16 L 42 16 L 42 11 C 42 9.347656 40.652344 8 39 8 Z M 23 10 L 39 10 C 39.550781 10 40 10.449219 40 11 L 40 27 C 40 27.550781 39.550781 28 39 28 L 23 28 C 22.449219 28 22 27.550781 22 27 L 22 11 C 22 10.449219 22.449219 10 23 10 Z M 30 12 C 28.898438 12 28 12.898438 28 14 L 28 16 L 26 16 C 24.898438 16 24 16.898438 24 18 L 24 20 C 24 21.101563 24.898438 22 26 22 L 28 22 L 28 24 C 28 25.101563 28.898438 26 30 26 L 32 26 C 33.101563 26 34 25.101563 34 24 L 34 22 L 36 22 C 37.101563 22 38 21.101563 38 20 L 38 18 C 38 16.898438 37.101563 16 36 16 L 34 16 L 34 14 C 34 12.898438 33.101563 12 32 12 Z M 30 14 L 32 14 L 32 16 C 32 17.101563 32.898438 18 34 18 L 36 18 L 36 20 L 34 20 C 32.898438 20 32 20.898438 32 22 L 32 24 L 30 24 L 30 22 C 30 20.898438 29.101563 20 28 20 L 26 20 L 26 18 L 28 18 C 29.101563 18 30 17.101563 30 16 Z M 9.535156 18 L 10 18 L 10 19.058594 C 10 19.609375 10.445313 20.058594 11 20.058594 C 11.554688 20.058594 12 19.609375 12 19.058594 L 12 18 L 14 18 L 14 19.058594 C 14 19.609375 14.445313 20.058594 15 20.058594 C 15.554688 20.058594 16 19.609375 16 19.058594 L 16 18 L 20 18 L 20 22 L 6.867188 22 Z M 42 18 L 52.464844 18 L 55.132813 22 L 42 22 Z M 5 24 L 20 24 L 20 26 L 5 26 C 4.449219 26 4 25.550781 4 25 C 4 24.449219 4.449219 24 5 24 Z M 42 24 L 57 24 C 57.550781 24 58 24.449219 58 25 C 58 25.550781 57.550781 26 57 26 L 42 26 Z M 6 28 L 20.183594 28 C 20.597656 29.160156 21.699219 30 23 30 L 39 30 C 40.300781 30 41.402344 29.160156 41.816406 28 L 56 28 L 56 60 L 38 60 L 38 49.949219 C 38 48.847656 37.101563 47.949219 36 47.949219 L 26 47.949219 C 24.898438 47.949219 24 48.847656 24 49.949219 L 24 60 L 6 60 L 6 46 L 46 46 C 46.554688 46 47 45.550781 47 45 C 47 44.449219 46.554688 44 46 44 L 6 44 Z M 11 34 C 10.445313 34 10 34.449219 10 35 C 10 35.550781 10.445313 36 11 36 L 13 36 C 13.554688 36 14 35.550781 14 35 C 14 34.449219 13.554688 34 13 34 Z M 17 34 C 16.445313 34 16 34.449219 16 35 C 16 35.550781 16.445313 36 17 36 L 19 36 C 19.554688 36 20 35.550781 20 35 C 20 34.449219 19.554688 34 19 34 Z M 27 34 C 26.445313 34 26 34.449219 26 35 C 26 35.550781 26.445313 36 27 36 L 29 36 C 29.554688 36 30 35.550781 30 35 C 30 34.449219 29.554688 34 29 34 Z M 33 34 C 32.445313 34 32 34.449219 32 35 C 32 35.550781 32.445313 36 33 36 L 35 36 C 35.554688 36 36 35.550781 36 35 C 36 34.449219 35.554688 34 35 34 Z M 43 34 C 42.445313 34 42 34.449219 42 35 C 42 35.550781 42.445313 36 43 36 L 45 36 C 45.554688 36 46 35.550781 46 35 C 46 34.449219 45.554688 34 45 34 Z M 49 34 C 48.445313 34 48 34.449219 48 35 C 48 35.550781 48.445313 36 49 36 L 51 36 C 51.554688 36 52 35.550781 52 35 C 52 34.449219 51.554688 34 51 34 Z M 11 38 C 10.445313 38 10 38.449219 10 39 C 10 39.550781 10.445313 40 11 40 L 13 40 C 13.554688 40 14 39.550781 14 39 C 14 38.449219 13.554688 38 13 38 Z M 17 38 C 16.445313 38 16 38.449219 16 39 C 16 39.550781 16.445313 40 17 40 L 19 40 C 19.554688 40 20 39.550781 20 39 C 20 38.449219 19.554688 38 19 38 Z M 27 38 C 26.445313 38 26 38.449219 26 39 C 26 39.550781 26.445313 40 27 40 L 29 40 C 29.554688 40 30 39.550781 30 39 C 30 38.449219 29.554688 38 29 38 Z M 33 38 C 32.445313 38 32 38.449219 32 39 C 32 39.550781 32.445313 40 33 40 L 35 40 C 35.554688 40 36 39.550781 36 39 C 36 38.449219 35.554688 38 35 38 Z M 43 38 C 42.445313 38 42 38.449219 42 39 C 42 39.550781 42.445313 40 43 40 L 45 40 C 45.554688 40 46 39.550781 46 39 C 46 38.449219 45.554688 38 45 38 Z M 49 38 C 48.445313 38 48 38.449219 48 39 C 48 39.550781 48.445313 40 49 40 L 51 40 C 51.554688 40 52 39.550781 52 39 C 52 38.449219 51.554688 38 51 38 Z M 49 44 C 48.445313 44 48 44.449219 48 45 C 48 45.550781 48.445313 46 49 46 L 53 46 C 53.554688 46 54 45.550781 54 45 C 54 44.449219 53.554688 44 53 44 Z M 26 49.949219 L 30 49.949219 L 30 59.949219 L 26 59.949219 Z M 32 49.949219 L 36 49.949219 L 36 59.949219 L 32 59.949219 Z M 11 50 C 10.445313 50 10 50.449219 10 51 C 10 51.550781 10.445313 52 11 52 L 13 52 C 13.554688 52 14 51.550781 14 51 C 14 50.449219 13.554688 50 13 50 Z M 17 50 C 16.445313 50 16 50.449219 16 51 C 16 51.550781 16.445313 52 17 52 L 19 52 C 19.554688 52 20 51.550781 20 51 C 20 50.449219 19.554688 50 19 50 Z M 43 50 C 42.445313 50 42 50.449219 42 51 C 42 51.550781 42.445313 52 43 52 L 45 52 C 45.554688 52 46 51.550781 46 51 C 46 50.449219 45.554688 50 45 50 Z M 49 50 C 48.445313 50 48 50.449219 48 51 C 48 51.550781 48.445313 52 49 52 L 51 52 C 51.554688 52 52 51.550781 52 51 C 52 50.449219 51.554688 50 51 50 Z M 11 54 C 10.445313 54 10 54.449219 10 55 C 10 55.550781 10.445313 56 11 56 L 13 56 C 13.554688 56 14 55.550781 14 55 C 14 54.449219 13.554688 54 13 54 Z M 17 54 C 16.445313 54 16 54.449219 16 55 C 16 55.550781 16.445313 56 17 56 L 19 56 C 19.554688 56 20 55.550781 20 55 C 20 54.449219 19.554688 54 19 54 Z M 43 54 C 42.445313 54 42 54.449219 42 55 C 42 55.550781 42.445313 56 43 56 L 45 56 C 45.554688 56 46 55.550781 46 55 C 46 54.449219 45.554688 54 45 54 Z M 49 54 C 48.445313 54 48 54.449219 48 55 C 48 55.550781 48.445313 56 49 56 L 51 56 C 51.554688 56 52 55.550781 52 55 C 52 54.449219 51.554688 54 51 54 Z "
                  fill="#999999"/>
        </g>
    </symbol>

    <symbol id="leg"  xmlns="http://www.w3.org/2000/svg" xmlns:xlink="http://www.w3.org/1999/xlink" viewBox="0 0 50 50" version="1.1"
             fill="#999999">
        <g id="surface1" fill="#999999">
            <path style=" "
                  d="M 23.90625 0 C 23.71875 0.0351563 23.546875 0.121094 23.40625 0.25 C 20.835938 2.570313 17.585938 7.894531 16.625 12.0625 C 15.648438 13.179688 15.074219 14.425781 15.03125 15.71875 C 14.984375 17.101563 15.457031 18.441406 16.28125 19.84375 C 17.183594 21.371094 16.988281 23.480469 17.53125 26.03125 C 17.996094 28.179688 19.191406 30.191406 19.84375 31.9375 C 19.84375 31.949219 19.84375 31.957031 19.84375 31.96875 C 20.621094 34.042969 21.394531 36.246094 21.8125 38.125 C 22.230469 40.003906 22.199219 41.542969 21.90625 42.0625 C 21.429688 42.914063 21.011719 43.117188 20.34375 43.34375 C 19.675781 43.570313 18.71875 43.710938 17.59375 44.1875 C 15.574219 45.050781 14.316406 45.410156 13.65625 45.53125 C 12.628906 45.722656 12.167969 45.808594 11.65625 46.15625 C 11.398438 46.328125 11.113281 46.699219 11.0625 47 C 11.011719 47.300781 11.0625 47.414063 11.0625 47.40625 C 11.0625 48.902344 12.378906 49.96875 13.78125 49.96875 C 14.277344 49.96875 14.730469 49.792969 15.1875 49.625 C 15.855469 49.925781 16.554688 50 17.125 50 C 19.949219 50 21.332031 49.855469 22.28125 49.71875 C 23.230469 49.582031 23.59375 49.46875 24.5625 49.46875 C 24.796875 49.46875 25.492188 49.585938 26.3125 49.71875 C 27.132813 49.851563 28.125 50 29.21875 50 C 30.464844 50 31.488281 49.492188 32.09375 48.75 C 32.699219 48.007813 32.90625 47.140625 32.90625 46.34375 C 32.90625 44.917969 32.226563 43.941406 31.59375 42.6875 C 30.960938 41.433594 30.25 39.765625 29.8125 36.71875 C 28.898438 30.371094 30.746094 26.691406 30.21875 23.34375 C 29.855469 21.019531 28.984375 19.378906 28.25 18.25 C 27.882813 17.683594 27.535156 17.226563 27.34375 16.9375 C 27.296875 16.867188 27.300781 16.859375 27.28125 16.8125 C 27.339844 16.671875 27.492188 16.316406 27.875 15.90625 C 28.3125 15.4375 28.917969 14.925781 29.625 14.59375 C 30.746094 14.066406 33.464844 12.480469 36.3125 10.15625 C 39.160156 7.832031 42.109375 4.839844 43.34375 1.34375 C 43.535156 0.816406 43.261719 0.238281 42.734375 0.046875 C 42.207031 -0.144531 41.628906 0.128906 41.4375 0.65625 C 40.421875 3.53125 37.765625 6.421875 35.0625 8.625 C 32.359375 10.828125 29.609375 12.390625 28.78125 12.78125 C 27.808594 13.242188 27.003906 13.886719 26.40625 14.53125 C 25.808594 15.175781 25.375 15.78125 25.21875 16.5 C 25.050781 17.273438 25.433594 17.648438 25.6875 18.03125 C 25.941406 18.414063 26.238281 18.816406 26.5625 19.3125 C 27.210938 20.308594 27.9375 21.667969 28.25 23.65625 C 28.601563 25.886719 26.863281 30.1875 27.84375 37 C 28.3125 40.253906 29.128906 42.234375 29.8125 43.59375 C 30.496094 44.953125 30.90625 45.578125 30.90625 46.34375 C 30.90625 46.78125 30.761719 47.214844 30.53125 47.5 C 30.300781 47.785156 29.992188 48 29.21875 48 C 28.296875 48 27.40625 47.875 26.625 47.75 C 25.84375 47.625 25.195313 47.46875 24.5625 47.46875 C 23.429688 47.46875 22.859375 47.625 22 47.75 C 21.140625 47.875 19.886719 48 17.125 48 C 16.476563 48 16.125 47.976563 15.84375 47.78125 C 15.53125 47.558594 15.117188 47.535156 14.78125 47.71875 C 14.578125 47.835938 14.117188 47.96875 13.78125 47.96875 C 13.53125 47.96875 13.503906 47.78125 13.375 47.65625 C 13.582031 47.59375 13.53125 47.59375 14.03125 47.5 C 14.925781 47.335938 16.269531 46.933594 18.375 46.03125 C 19.214844 45.671875 20.0625 45.570313 21 45.25 C 21.9375 44.929688 22.960938 44.273438 23.65625 43.03125 C 24.476563 41.570313 24.207031 39.742188 23.75 37.6875 C 23.292969 35.632813 22.507813 33.359375 21.71875 31.25 C 20.980469 29.273438 19.867188 27.292969 19.5 25.625 C 19.496094 25.613281 19.503906 25.605469 19.5 25.59375 C 19.046875 23.433594 19.3125 21.066406 18 18.84375 C 17.289063 17.636719 17.003906 16.640625 17.03125 15.78125 C 17.058594 14.921875 17.382813 14.109375 18.25 13.1875 C 18.375 13.058594 18.460938 12.894531 18.5 12.71875 C 19.234375 9.242188 22.683594 3.585938 24.71875 1.75 C 25.0625 1.460938 25.171875 0.972656 24.980469 0.566406 C 24.789063 0.15625 24.351563 -0.0742188 23.90625 0 Z "
                  fill="#999999"/>
        </g>
    </symbol>

    <symbol id="lungs"  xmlns="http://www.w3.org/2000/svg" xmlns:xlink="http://www.w3.org/1999/xlink" viewBox="0 0 50 50" version="1.1"
            fill="#999999">
        <g id="surface1" fill="#999999">
            <path style=" "
                  d="M 22.8125 0 C 22.335938 0.0898438 21.992188 0.511719 22 1 L 22 3.6875 C 21.941406 3.882813 21.941406 4.085938 22 4.28125 L 22 6.53125 C 21.867188 6.808594 21.867188 7.128906 22 7.40625 L 22 9.53125 C 21.867188 9.808594 21.867188 10.128906 22 10.40625 L 22 12.8125 C 22 12.84375 22 12.875 22 12.90625 L 22 13 C 22 13.011719 22 13.019531 22 13.03125 C 22 13.050781 22 13.074219 22 13.09375 L 22.15625 16.5 L 22.15625 16.53125 C 22.15625 18.261719 21.929688 19.667969 21.59375 20.84375 C 21.5625 19.523438 21.527344 17.980469 21.5 17.5 C 21.375 15.1875 20.667969 13.304688 19.46875 12.125 C 18.871094 11.535156 18.125 11.164063 17.3125 11.0625 C 17.109375 11.035156 16.894531 11.023438 16.6875 11.03125 C 16.0625 11.054688 15.429688 11.242188 14.84375 11.59375 C 13.871094 12.179688 12.667969 13.390625 11.15625 15.125 C 9.644531 16.859375 7.925781 19.105469 6.28125 21.59375 C 2.996094 26.566406 0 32.5 0 37.6875 C 0 39.175781 -0.0234375 40.417969 0.0625 41.5 C 0.148438 42.582031 0.347656 43.578125 0.96875 44.375 C 1.589844 45.171875 2.566406 45.636719 3.78125 45.84375 C 4.996094 46.050781 6.507813 46.035156 8.53125 45.90625 L 11.15625 45.75 C 17.128906 45.371094 21.953125 40.320313 21.96875 34.40625 C 21.96875 34.394531 21.96875 34.386719 21.96875 34.375 C 21.96875 34.339844 22 30.644531 22 27.90625 C 23.054688 27.335938 24.144531 26.5625 25 25.46875 C 25.855469 26.5625 26.945313 27.335938 28 27.90625 C 28 30.644531 28.03125 34.339844 28.03125 34.375 C 28.03125 34.386719 28.03125 34.394531 28.03125 34.40625 C 28.046875 40.320313 32.871094 45.371094 38.84375 45.75 L 41.46875 45.90625 C 43.492188 46.035156 45.003906 46.050781 46.21875 45.84375 C 47.433594 45.636719 48.410156 45.171875 49.03125 44.375 C 49.652344 43.578125 49.851563 42.582031 49.9375 41.5 C 50.023438 40.417969 50 39.175781 50 37.6875 C 50 32.5 47.003906 26.566406 43.71875 21.59375 C 42.074219 19.105469 40.355469 16.859375 38.84375 15.125 C 37.332031 13.390625 36.128906 12.179688 35.15625 11.59375 C 34.375 11.125 33.5 10.960938 32.6875 11.0625 C 31.875 11.164063 31.128906 11.535156 30.53125 12.125 C 29.335938 13.304688 28.625 15.1875 28.5 17.5 C 28.46875 18.058594 28.441406 19.8125 28.40625 21.375 C 28.0625 20.160156 27.84375 18.613281 27.84375 16.53125 L 27.84375 16.5 L 28 13.15625 C 28.003906 13.113281 28.003906 13.074219 28 13.03125 C 28.007813 12.96875 28.007813 12.90625 28 12.84375 L 28 10.1875 C 28.027344 10.054688 28.027344 9.914063 28 9.78125 L 28 7.1875 C 28.027344 7.054688 28.027344 6.914063 28 6.78125 L 28 4.1875 C 28.027344 4.054688 28.027344 3.914063 28 3.78125 L 28 1 C 28 0.449219 27.550781 0 27 0 L 23 0 C 22.96875 0 22.9375 0 22.90625 0 C 22.875 0 22.84375 0 22.8125 0 Z M 24 2 L 26 2 L 26 3 L 24 3 Z M 24 5 L 26 5 L 26 6 L 24 6 Z M 24 8 L 26 8 L 26 9 L 24 9 Z M 24 11 L 26 11 L 26 12 L 24 12 Z M 16.78125 12.96875 C 17.234375 12.929688 17.632813 13.140625 18.0625 13.5625 C 18.75 14.238281 19.394531 15.667969 19.5 17.625 C 19.542969 18.410156 19.632813 22.613281 19.6875 24.59375 C 18.800781 25.71875 17.886719 26.488281 17.1875 27.34375 L 15.5 26.3125 L 14.40625 23.875 L 15.125 20.40625 C 15.179688 20.160156 15.113281 19.902344 14.945313 19.710938 C 14.78125 19.519531 14.535156 19.417969 14.28125 19.4375 C 14.25 19.4375 14.21875 19.4375 14.1875 19.4375 C 13.863281 19.503906 13.613281 19.765625 13.5625 20.09375 L 12.78125 23.78125 C 12.738281 23.945313 12.75 24.121094 12.8125 24.28125 L 13.65625 26.15625 L 10.28125 26.5 C 10.183594 26.511719 10.085938 26.546875 10 26.59375 L 7 28.15625 C 6.699219 28.253906 6.480469 28.519531 6.449219 28.835938 C 6.414063 29.148438 6.570313 29.453125 6.847656 29.613281 C 7.121094 29.769531 7.464844 29.75 7.71875 29.5625 L 10.5625 28.09375 L 14.65625 27.6875 L 16.59375 28.84375 L 14.9375 31.34375 L 10.375 31.46875 C 10.234375 31.464844 10.09375 31.496094 9.96875 31.5625 L 6.09375 33.84375 C 5.800781 33.957031 5.597656 34.230469 5.578125 34.546875 C 5.5625 34.859375 5.730469 35.15625 6.007813 35.300781 C 6.289063 35.445313 6.628906 35.414063 6.875 35.21875 L 10.5625 33.0625 L 13.875 32.96875 L 12.09375 35.6875 L 9.4375 36.53125 C 9.234375 36.597656 9.0625 36.746094 8.96875 36.9375 L 7.25 40.40625 C 7.050781 40.804688 7.210938 41.285156 7.609375 41.484375 C 8.007813 41.683594 8.488281 41.523438 8.6875 41.125 L 10.25 37.96875 L 12.84375 37.09375 C 13.019531 37.042969 13.175781 36.933594 13.28125 36.78125 L 15.09375 34 L 15.1875 36.03125 L 14.40625 38.78125 C 14.285156 39.210938 14.539063 39.660156 14.96875 39.78125 C 15.398438 39.902344 15.847656 39.648438 15.96875 39.21875 L 16.78125 36.375 C 16.808594 36.285156 16.820313 36.1875 16.8125 36.09375 L 16.625 32.28125 C 16.621094 32.136719 16.578125 31.996094 16.5 31.875 L 18.21875 29.28125 C 18.40625 29.246094 19.101563 29.089844 20 28.78125 C 19.992188 31.300781 19.96875 34.375 19.96875 34.375 C 19.96875 39.207031 15.957031 43.4375 11.03125 43.75 L 8.40625 43.90625 C 6.453125 44.03125 5.023438 44.035156 4.09375 43.875 C 3.164063 43.714844 2.78125 43.445313 2.53125 43.125 C 2.28125 42.804688 2.101563 42.257813 2.03125 41.34375 C 1.960938 40.429688 2 39.203125 2 37.6875 C 2 33.300781 4.753906 27.503906 7.9375 22.6875 C 9.527344 20.28125 11.238281 18.097656 12.6875 16.4375 C 14.136719 14.777344 15.417969 13.589844 15.875 13.3125 C 16.222656 13.101563 16.507813 12.992188 16.78125 12.96875 Z M 32.9375 12.96875 C 33.28125 12.921875 33.660156 13.03125 34.125 13.3125 C 34.582031 13.589844 35.863281 14.777344 37.3125 16.4375 C 38.761719 18.097656 40.472656 20.28125 42.0625 22.6875 C 45.246094 27.503906 48 33.300781 48 37.6875 C 48 39.203125 48.039063 40.429688 47.96875 41.34375 C 47.898438 42.257813 47.71875 42.804688 47.46875 43.125 C 47.21875 43.445313 46.835938 43.714844 45.90625 43.875 C 44.976563 44.035156 43.546875 44.03125 41.59375 43.90625 L 38.96875 43.75 C 34.042969 43.4375 30.03125 39.207031 30.03125 34.375 C 30.03125 34.375 30.007813 31.300781 30 28.78125 C 30.769531 29.042969 31.285156 29.164063 31.5625 29.21875 C 31.65625 29.324219 31.773438 29.410156 31.90625 29.46875 L 33.5 31.875 C 33.421875 31.996094 33.378906 32.136719 33.375 32.28125 L 33.1875 36.09375 C 33.179688 36.1875 33.191406 36.285156 33.21875 36.375 L 34.03125 39.21875 C 34.152344 39.648438 34.601563 39.902344 35.03125 39.78125 C 35.460938 39.660156 35.714844 39.210938 35.59375 38.78125 L 34.8125 36.03125 L 34.90625 34 L 36.71875 36.78125 C 36.824219 36.933594 36.980469 37.042969 37.15625 37.09375 L 39.75 37.96875 L 41.3125 41.125 C 41.511719 41.523438 41.992188 41.683594 42.390625 41.484375 C 42.789063 41.285156 42.949219 40.804688 42.75 40.40625 L 41.03125 36.9375 C 40.9375 36.746094 40.765625 36.597656 40.5625 36.53125 L 37.90625 35.6875 L 36.03125 32.84375 L 38.84375 32.6875 L 42.5 34.40625 C 42.90625 34.597656 43.386719 34.421875 43.578125 34.015625 C 43.769531 33.609375 43.59375 33.128906 43.1875 32.9375 L 39.34375 31.1875 C 39.226563 31.125 39.097656 31.09375 38.96875 31.09375 L 35.03125 31.3125 L 33.40625 28.84375 L 35.03125 27.875 L 39.28125 27.78125 L 42.21875 29.5625 C 42.597656 29.796875 43.09375 29.675781 43.328125 29.296875 C 43.5625 28.917969 43.441406 28.421875 43.0625 28.1875 L 39.96875 26.3125 C 39.839844 26.230469 39.6875 26.1875 39.53125 26.1875 L 36.15625 26.25 L 37.09375 24.46875 C 37.175781 24.304688 37.195313 24.117188 37.15625 23.9375 L 36.4375 20.25 C 36.402344 20.039063 36.285156 19.847656 36.105469 19.722656 C 35.929688 19.601563 35.710938 19.554688 35.5 19.59375 C 35.285156 19.636719 35.097656 19.761719 34.980469 19.945313 C 34.863281 20.128906 34.824219 20.351563 34.875 20.5625 L 35.53125 24 L 34.1875 26.5 L 34.15625 26.5 C 34.132813 26.53125 34.113281 26.5625 34.09375 26.59375 L 32.6875 27.40625 C 31.917969 26.429688 31.074219 25.695313 30.3125 24.84375 C 30.308594 24.835938 30.316406 24.820313 30.3125 24.8125 C 30.367188 22.925781 30.457031 18.433594 30.5 17.625 C 30.605469 15.667969 31.25 14.238281 31.9375 13.5625 C 32.28125 13.222656 32.59375 13.015625 32.9375 12.96875 Z M 24.03125 14 L 25.96875 14 L 25.84375 16.46875 C 25.84375 16.480469 25.84375 16.488281 25.84375 16.5 L 25.84375 16.53125 C 25.84375 22.277344 27.605469 24.863281 29.28125 26.6875 C 27.914063 26.023438 26.472656 25.03125 25.71875 23.625 C 25.71875 23.613281 25.71875 23.605469 25.71875 23.59375 C 25.707031 23.582031 25.699219 23.574219 25.6875 23.5625 C 25.6875 23.550781 25.6875 23.542969 25.6875 23.53125 C 25.660156 23.496094 25.628906 23.464844 25.59375 23.4375 C 25.574219 23.414063 25.554688 23.394531 25.53125 23.375 C 25.464844 23.320313 25.390625 23.28125 25.3125 23.25 C 25.273438 23.226563 25.230469 23.203125 25.1875 23.1875 C 25.175781 23.1875 25.167969 23.1875 25.15625 23.1875 C 25.074219 23.175781 24.988281 23.175781 24.90625 23.1875 C 24.875 23.1875 24.84375 23.1875 24.8125 23.1875 C 24.660156 23.21875 24.515625 23.296875 24.40625 23.40625 C 24.40625 23.417969 24.40625 23.425781 24.40625 23.4375 C 24.386719 23.445313 24.363281 23.457031 24.34375 23.46875 C 24.34375 23.480469 24.34375 23.488281 24.34375 23.5 C 24.332031 23.511719 24.324219 23.519531 24.3125 23.53125 C 24.3125 23.542969 24.3125 23.550781 24.3125 23.5625 C 24.257813 23.628906 24.21875 23.703125 24.1875 23.78125 C 23.375 25.167969 21.898438 26.140625 20.53125 26.78125 C 20.917969 26.351563 21.296875 25.867188 21.6875 25.3125 C 23.011719 23.421875 24.15625 20.65625 24.15625 16.53125 L 24.15625 16.5 C 24.15625 16.488281 24.15625 16.480469 24.15625 16.46875 Z "
                  fill="#999999"/>
        </g>
    </symbol>

    <symbol id="palm_scan_1"  xmlns="http://www.w3.org/2000/svg" xmlns:xlink="http://www.w3.org/1999/xlink" viewBox="0 0 26 26" version="1.1"
            fill="#999999">
        <g id="surface1" fill="#999999">
            <path style=" "
                  d="M 0.8125 0 C 0.335938 0.0898438 -0.0078125 0.511719 0 1 L 0 4 C -0.00390625 4.359375 0.183594 4.695313 0.496094 4.878906 C 0.808594 5.058594 1.191406 5.058594 1.503906 4.878906 C 1.816406 4.695313 2.003906 4.359375 2 4 L 2 2 L 4 2 C 4.359375 2.003906 4.695313 1.816406 4.878906 1.503906 C 5.058594 1.191406 5.058594 0.808594 4.878906 0.496094 C 4.695313 0.183594 4.359375 -0.00390625 4 0 L 1 0 C 0.96875 0 0.9375 0 0.90625 0 C 0.875 0 0.84375 0 0.8125 0 Z M 21.8125 0 C 21.261719 0.0507813 20.855469 0.542969 20.90625 1.09375 C 20.957031 1.644531 21.449219 2.050781 22 2 L 24 2 L 24 4 C 23.996094 4.359375 24.183594 4.695313 24.496094 4.878906 C 24.808594 5.058594 25.191406 5.058594 25.503906 4.878906 C 25.816406 4.695313 26.003906 4.359375 26 4 L 26 1 C 26 0.449219 25.550781 0 25 0 L 22 0 C 21.96875 0 21.9375 0 21.90625 0 C 21.875 0 21.84375 0 21.8125 0 Z M 12.0625 1.125 C 11.164063 1.253906 10.585938 2.464844 11.78125 5.09375 C 11.394531 5.25 11.320313 6.066406 11.34375 6.5625 C 11.402344 7.734375 11.359375 8.890625 11.28125 10.0625 C 11.269531 10.246094 11.339844 11.164063 11.1875 11.28125 C 10.894531 11.507813 10.574219 10.699219 10.40625 10.46875 C 9.960938 9.859375 9.757813 9.878906 9.0625 10.09375 C 10.261719 9.535156 9.640625 8.410156 9.21875 7.5 C 8.980469 6.988281 8.722656 7.007813 8.1875 7.125 C 7.792969 7.210938 7.117188 7.324219 6.90625 7.71875 C 6.609375 8.277344 7.144531 9.097656 7.28125 9.625 C 7.496094 10.441406 7.691406 11.28125 7.75 12.125 C 7.761719 12.277344 7.675781 12.859375 7.59375 13 C 7.441406 13.085938 7.1875 12.757813 6.96875 12.59375 C 6.726563 12.40625 5.992188 12.164063 5.53125 12.375 C 5.65625 12.097656 5.769531 11.992188 5.78125 11.6875 C 5.792969 11.300781 4.925781 9.847656 4.375 9.9375 C 4.027344 9.996094 3.1875 10.539063 3.1875 10.90625 C 3.1875 11.367188 3.804688 12.207031 4.03125 12.875 C 4.085938 13.035156 4.773438 14.214844 5.3125 15 L 1 15 C 0.96875 15 0.9375 15 0.90625 15 C 0.355469 15.027344 -0.0742188 15.496094 -0.046875 16.046875 C -0.0195313 16.597656 0.449219 17.027344 1 17 L 25 17 C 25.359375 17.003906 25.695313 16.816406 25.878906 16.503906 C 26.058594 16.191406 26.058594 15.808594 25.878906 15.496094 C 25.695313 15.183594 25.359375 14.996094 25 15 L 23.4375 15 C 23.84375 13.984375 23.894531 13.054688 23.1875 12.75 C 22.453125 12.433594 21.207031 12.910156 20.75 13.96875 C 20.605469 14.304688 20.570313 14.664063 20.59375 15 L 17.03125 15 C 17.160156 14.824219 17.289063 14.636719 17.375 14.40625 C 17.554688 13.925781 17.21875 11.984375 16.625 12.03125 C 17.390625 10.84375 17.109375 9.894531 16.0625 9.1875 C 16.195313 8.882813 17.195313 9.261719 17.53125 8.875 C 17.902344 8.445313 18.199219 7.152344 17.9375 6.75 C 17.742188 6.445313 16.617188 5.933594 16.25 6.1875 C 15.734375 6.542969 15.121094 8.628906 15.71875 8.9375 C 15.308594 9.113281 15.007813 9.3125 14.78125 9.90625 C 14.683594 10.15625 14.429688 11.367188 14.03125 11.34375 C 13.929688 11.335938 13.71875 9.605469 13.59375 9.40625 C 13.359375 9.035156 12.980469 9.0625 12.71875 8.78125 C 13.625 8.441406 13.75 7.949219 13.71875 6.96875 C 13.707031 6.539063 13.726563 5.863281 13.4375 5.53125 C 13.121094 5.164063 12.804688 5.242188 12.40625 5.125 C 12.890625 4.835938 12.832031 4.425781 13.09375 3.875 C 13.566406 2.875 13.453125 0.929688 12.0625 1.125 Z M 18 2.875 C 17.386719 2.902344 16.957031 3.691406 16.75 4.34375 C 16.515625 5.089844 16.867188 5.421875 17.40625 5.59375 C 17.941406 5.765625 18.453125 5.683594 18.6875 4.9375 C 18.921875 4.191406 19.042969 3.148438 18.28125 2.90625 C 18.1875 2.875 18.085938 2.871094 18 2.875 Z M 6.40625 3.25 C 4.976563 3.390625 5.757813 5.433594 6.25 6.15625 C 6.59375 6.660156 7.402344 6.523438 7.8125 6.15625 C 8.339844 5.6875 7.6875 4.429688 7.40625 3.90625 C 7.199219 3.519531 6.820313 3.210938 6.40625 3.25 Z M 2.40625 7.28125 C 2.285156 7.265625 2.179688 7.289063 2.0625 7.34375 C 1.292969 7.695313 1.980469 8.960938 2.21875 9.34375 C 2.359375 9.574219 2.519531 9.839844 2.78125 9.9375 C 3.125 10.066406 3.207031 9.792969 3.53125 9.65625 C 3.808594 9.539063 4.207031 9.625 4.1875 9.25 C 4.171875 8.964844 3.261719 7.378906 2.40625 7.28125 Z M 5.84375 18 C 6.46875 20.464844 8.328125 23.96875 8.96875 24.5 C 9.871094 25.257813 11.324219 25.195313 12.5 24.125 C 14.242188 25.921875 18.054688 23.753906 19.15625 22.25 C 19.71875 21.484375 19.929688 20.78125 20.46875 20 C 20.632813 19.761719 21.523438 18.613281 21.6875 18 L 18.65625 18 C 17.941406 18.347656 17.285156 18.839844 17.46875 19.375 C 17.222656 18.921875 16.644531 18.445313 15.9375 18 Z M 0.90625 20.96875 C 0.863281 20.976563 0.820313 20.988281 0.78125 21 C 0.316406 21.105469 -0.0117188 21.523438 0 22 L 0 25 C 0 25.550781 0.449219 26 1 26 L 4 26 C 4.359375 26.003906 4.695313 25.816406 4.878906 25.503906 C 5.058594 25.191406 5.058594 24.808594 4.878906 24.496094 C 4.695313 24.183594 4.359375 23.996094 4 24 L 2 24 L 2 22 C 2.011719 21.710938 1.894531 21.433594 1.6875 21.238281 C 1.476563 21.039063 1.191406 20.941406 0.90625 20.96875 Z M 24.90625 20.96875 C 24.863281 20.976563 24.820313 20.988281 24.78125 21 C 24.316406 21.105469 23.988281 21.523438 24 22 L 24 24 L 22 24 C 21.640625 23.996094 21.304688 24.183594 21.121094 24.496094 C 20.941406 24.808594 20.941406 25.191406 21.121094 25.503906 C 21.304688 25.816406 21.640625 26.003906 22 26 L 25 26 C 25.550781 26 26 25.550781 26 25 L 26 22 C 26.011719 21.710938 25.894531 21.433594 25.6875 21.238281 C 25.476563 21.039063 25.191406 20.941406 24.90625 20.96875 Z "
                  fill="#878787"/>
        </g>
    </symbol>

    <symbol id="palm_scan_2"  xmlns="http://www.w3.org/2000/svg" xmlns:xlink="http://www.w3.org/1999/xlink" viewBox="0 0 50 50" version="1.1"
            fill="#878787">
        <g id="surface1" fill="#878787">
            <path style="line-height:normal;text-indent:0;text-align:start;text-decoration-line:none;text-decoration-style:solid;text-decoration-color:#000;text-transform:none;block-progression:tb;isolation:auto;mix-blend-mode:normal"
                  d="M 4 4 L 4 10 A 1.0001 1.0001 0 1 0 6 10 L 6 6 L 10 6 A 1.0001 1.0001 0 1 0 10 4 L 4 4 z M 24.5 4 C 23.432457 4 22.492177 4.4485316 21.888672 5.140625 C 21.285166 5.8327184 21 6.7244091 21 7.625 L 21 14.820312 C 20.542713 12.819991 19.988133 10.398223 19.982422 10.373047 C 19.786393 9.3279489 19.371976 8.4815295 18.744141 7.8964844 C 18.116305 7.3114392 17.296421 7.0371094 16.503906 7.0371094 C 15.647893 7.0371094 14.755068 7.364781 14.060547 8.0585938 C 13.366026 8.7524064 12.936428 9.8453527 13.074219 11.109375 A 1.0001 1.0001 0 0 0 13.083984 11.167969 C 13.083984 11.167969 13.766373 15.187035 14.449219 19.363281 C 14.743377 21.162339 15.018773 22.89686 15.257812 24.443359 L 14.826172 23.835938 C 13.710232 22.099354 11.431206 21.458625 9.7207031 22.525391 A 1.0001 1.0001 0 0 0 9.7109375 22.53125 C 8.0017788 23.624278 7.4886 25.997626 8.625 27.783203 L 8.5761719 27.699219 C 8.5761719 27.699219 9.0409232 28.579964 9.2792969 29.039062 L 4.8398438 29.039062 A 1.0001 1.0001 0 1 0 4.8398438 31.039062 L 10.806641 31.039062 A 1.0001 1.0001 0 0 0 11.070312 31.039062 L 45.160156 31.039062 A 1.0001 1.0001 0 1 0 45.160156 29.039062 L 38 29.039062 L 38 25.427734 L 38.869141 17.230469 A 1.0001 1.0001 0 0 0 38.871094 17.201172 C 38.931134 16.420609 39.067479 15.457149 38.925781 14.488281 C 38.854931 14.003847 38.707624 13.497509 38.375 13.044922 C 38.042376 12.592335 37.510699 12.239459 36.902344 12.09375 C 36.262974 11.940437 35.615946 11.981758 35.085938 12.232422 C 34.602066 12.461266 34.283202 12.842731 34.027344 13.222656 C 34.050324 13.007846 34.157805 12.005686 34.158203 12.001953 L 34.158203 11.998047 C 34.317804 10.73145 34.364223 9.7025829 33.947266 8.7714844 C 33.529842 7.8393451 32.56275 7.258383 31.462891 7.0761719 C 30.237127 6.8729703 29.115637 7.3441058 28.451172 8.1054688 C 28.171041 8.4264506 28.162855 8.8455629 28 9.21875 L 28 7.875 C 28 6.8325714 27.737995 5.8669949 27.121094 5.1367188 C 26.504193 4.4064426 25.541839 4 24.5 4 z M 40 4 A 1.0001 1.0001 0 1 0 40 6 L 44 6 L 44 10 A 1.0001 1.0001 0 1 0 46 10 L 46 4 L 40 4 z M 24.5 6 C 25.079161 6 25.365901 6.1560574 25.59375 6.4257812 C 25.821599 6.6955051 26 7.1674286 26 7.875 L 26 23.242188 A 1.0001 1.0001 0 0 0 27.994141 23.353516 L 29.369141 10.976562 C 29.442691 10.344672 29.671747 9.7468089 29.957031 9.4199219 C 30.242316 9.0930348 30.492483 8.9420297 31.136719 9.0488281 C 31.871859 9.170617 31.990221 9.2912799 32.123047 9.5878906 C 32.255873 9.8845014 32.317747 10.609543 32.173828 11.75 A 1.0001 1.0001 0 0 0 32.171875 11.769531 C 32.171875 11.769531 31.841352 14.86553 31.496094 18.048828 C 31.323465 19.640477 31.146316 21.252852 31.005859 22.511719 C 30.865403 23.770585 30.739787 24.795693 30.738281 24.804688 A 1.0001 1.0001 0 0 0 32.695312 25.208984 L 34.876953 16.371094 C 35.141786 15.581648 35.369 14.78198 35.623047 14.375 C 35.751951 14.168498 35.856978 14.080945 35.941406 14.041016 C 36.025836 14.001086 36.132417 13.966423 36.435547 14.039062 C 36.649692 14.090352 36.69642 14.138962 36.763672 14.230469 C 36.830922 14.321979 36.904663 14.501356 36.945312 14.779297 C 37.026052 15.331355 36.943716 16.19425 36.878906 17.033203 L 36.005859 25.269531 A 1.0001 1.0001 0 0 0 36 25.375 L 36 29.039062 L 17.537109 29.039062 A 1.0001 1.0001 0 0 0 17.802734 28.361328 C 17.802734 28.023305 17.753924 27.689977 17.677734 27.117188 C 17.601544 26.544397 17.493918 25.806162 17.365234 24.958984 C 17.107866 23.26463 16.765905 21.133143 16.423828 19.041016 C 15.744241 14.884697 15.073493 10.941855 15.064453 10.888672 C 14.985143 10.147921 15.189212 9.7577629 15.474609 9.4726562 C 15.760838 9.1867192 16.193919 9.0371094 16.503906 9.0371094 C 16.876392 9.0371094 17.135695 9.1309204 17.380859 9.359375 C 17.626024 9.5878298 17.878607 10.001283 18.017578 10.742188 A 1.0001 1.0001 0 0 0 18.025391 10.777344 C 18.025391 10.777344 18.774897 14.086435 19.525391 17.345703 C 19.900637 18.975337 20.276267 20.592138 20.558594 21.78125 C 20.699757 22.375806 20.81773 22.861103 20.902344 23.195312 C 20.944654 23.362417 20.976204 23.48824 21.005859 23.589844 C 21.020689 23.640644 21.023932 23.665104 21.070312 23.775391 C 21.081913 23.802961 21.094049 23.834601 21.136719 23.90625 C 21.158059 23.94207 21.249551 24.061997 21.25 24.0625 C 21.250449 24.063003 21.726204 24.359273 21.726562 24.359375 C 21.726924 24.359477 22.743869 24.064756 22.744141 24.064453 C 22.744412 24.06415 22.968568 23.643289 22.96875 23.642578 C 22.968932 23.641868 22.993024 23.512346 22.996094 23.474609 C 22.999176 23.436859 23 23.410086 23 23.388672 L 23 7.625 C 23 7.1505909 23.15524 6.7297816 23.396484 6.453125 C 23.637729 6.1764684 23.946543 6 24.5 6 z M 11.691406 24.015625 C 12.230048 24.057305 12.784609 24.358939 13.142578 24.916016 A 1.0001 1.0001 0 0 0 13.167969 24.953125 L 15.986328 28.939453 A 1.0001 1.0001 0 0 0 16.068359 29.039062 L 11.537109 29.039062 C 10.933671 27.897622 10.359375 26.792969 10.359375 26.792969 A 1.0001 1.0001 0 0 0 10.3125 26.708984 C 9.7803403 25.872825 10.090292 24.672466 10.785156 24.222656 C 11.050501 24.058777 11.368221 23.990617 11.691406 24.015625 z M 37.037109 32.986328 A 1.0001 1.0001 0 0 0 36.001953 33.949219 C 35.832156 37.309382 34.876838 39.877739 33.677734 41.5625 C 32.478631 43.247261 31.060556 44 30 44 A 1.0001 1.0001 0 1 0 30 46 C 31.939444 46 33.844744 44.776645 35.306641 42.722656 C 36.768537 40.668667 37.811844 37.735618 37.998047 34.050781 A 1.0001 1.0001 0 0 0 37.037109 32.986328 z M 12.835938 32.990234 A 1.0001 1.0001 0 0 0 12.023438 34.505859 C 12.163115 34.745011 12.620235 35.663956 13.244141 36.783203 C 13.868047 37.90245 14.688593 39.272253 15.691406 40.613281 C 17.697033 43.295337 20.464944 46 24 46 A 1.0001 1.0001 0 1 0 24 44 C 21.535056 44 19.146045 41.889506 17.294922 39.414062 C 16.36936 38.176341 15.587422 36.881863 14.990234 35.810547 C 14.393047 34.739231 14.00982 33.940943 13.75 33.496094 A 1.0001 1.0001 0 0 0 12.835938 32.990234 z M 4.984375 38.986328 A 1.0001 1.0001 0 0 0 4 40 L 4 46 L 10 46 A 1.0001 1.0001 0 1 0 10 44 L 6 44 L 6 40 A 1.0001 1.0001 0 0 0 4.984375 38.986328 z M 44.984375 38.986328 A 1.0001 1.0001 0 0 0 44 40 L 44 44 L 40 44 A 1.0001 1.0001 0 1 0 40 46 L 46 46 L 46 40 A 1.0001 1.0001 0 0 0 44.984375 38.986328 z"
                  fill="#878787"/>
        </g>
    </symbol>

    <symbol id="palm_scan_3"  xmlns="http://www.w3.org/2000/svg" xmlns:xlink="http://www.w3.org/1999/xlink" viewBox="0 0 50 50" version="1.1"
            fill="#878787">
        <g id="surface1" fill="#878787">
            <path d="M 4 4 L 4 30.880859 L 46 30.880859 L 46 4 L 4 4 z M 6 6 L 12 6 C 12.55 6 13 6.45 13 7 C 13 7.55 12.55 8 12 8 L 8 8 L 8 12 C 8 12.55 7.55 13 7 13 C 6.45 13 6 12.55 6 12 L 6 6 z M 38 6 L 44 6 L 44 12 C 44 12.55 43.55 13 43 13 C 42.45 13 42 12.55 42 12 L 42 8 L 38 8 C 37.45 8 37 7.55 37 7 C 37 6.45 37.45 6 38 6 z M 24.25 7 C 24.79 7 25.325 7.18 25.625 7.5 C 25.925 7.83 26.085156 8.3092188 26.035156 8.9492188 L 26 21 L 26 23.146484 C 26 23.750484 26.375 24 26.75 24 C 27.131 24 27.259453 23.896406 27.439453 23.566406 C 27.489453 23.466406 27.519297 23.355859 27.529297 23.255859 L 29.210938 11.111328 C 29.270937 10.621328 29.471406 8.6607812 31.191406 9.0507812 C 32.921406 9.4307813 32.470859 11.241406 32.380859 11.941406 C 31.820859 16.821406 30.843672 24.509531 30.763672 25.019531 C 30.683672 25.459531 30.972344 25.878516 31.402344 25.978516 C 31.832344 26.078516 32.272578 25.818672 32.392578 25.388672 L 34.125 16.464844 C 34.625 14.249844 35.25 14 36.125 14 C 37.125 14 37.125 15.125 36.875 17.125 L 36.009766 25.289062 C 36.006766 25.332062 36.003 25.376922 36 25.419922 L 36 29 L 17.15625 29 C 17.34125 28.842 17.460937 28.612375 17.460938 28.359375 C 17.460938 27.049375 15.25 12.670312 15 11.070312 C 14.93 10.460313 15.060625 9.9598438 15.390625 9.5898438 C 15.760625 9.1898437 16.269141 9.0390625 16.619141 9.0390625 C 17.509141 9.0390625 18.080312 9.6608594 18.320312 10.880859 C 18.320312 10.880859 18.930781 14.029453 19.550781 17.189453 C 20.220781 20.579453 20.49 22.235 20.75 23.125 C 20.75 23.125 20.875 24 21.625 24 C 22.125 24 22.5 23.595 22.5 23.125 L 22.5 8.75 C 22.53 7.95 22.96 7 24.25 7 z M 11.666016 24 C 12.356016 24 12.995781 24.330234 13.425781 24.990234 L 15.949219 28.869141 C 15.992219 28.925141 16.055375 28.957 16.109375 29 L 11.507812 29 C 10.828812 27.739 10.403234 26.896078 10.365234 26.830078 C 10.065234 26.360078 9.9561719 25.809062 10.076172 25.289062 C 10.176172 24.839063 10.436875 24.470234 10.796875 24.240234 C 11.046875 24.080234 11.356016 24 11.666016 24 z M 4 33 L 4 46 L 46 46 L 46 33 L 36 33 L 36 33.380859 C 35.83 39.460859 33.665312 42.699063 30.195312 43.039062 L 24.154297 43.060547 L 24.125 43 L 24.134766 43.060547 C 20.494766 43.060547 18.005 39.490312 16.625 37.570312 C 16.485 37.370312 16.354141 37.189297 16.244141 37.029297 C 15.614141 36.179297 14.754609 34.82 13.724609 33 L 4 33 z M 7 37 C 7.55 37 8 37.45 8 38 L 8 42 L 12 42 C 12.55 42 13 42.45 13 43 C 13 43.55 12.55 44 12 44 L 6 44 L 6 38 C 6 37.45 6.45 37 7 37 z M 43 37 C 43.55 37 44 37.45 44 38 L 44 44 L 38 44 C 37.45 44 37 43.55 37 43 C 37 42.45 37.45 42 38 42 L 42 42 L 42 38 C 42 37.45 42.45 37 43 37 z"
                  fill="#878787"/>
        </g>
    </symbol>

    <symbol id="palm_scan_4"  xmlns="http://www.w3.org/2000/svg" xmlns:xlink="http://www.w3.org/1999/xlink" viewBox="0 0 64 64" version="1.1"
            fill="#878787">
        <g id="surface1" fill="#878787">
            <path d="M 5 4 C 4.447 4 4 4.448 4 5 L 4 11 C 4 11.552 4.447 12 5 12 C 5.553 12 6 11.552 6 11 L 6 6 L 11 6 C 11.553 6 12 5.552 12 5 C 12 4.448 11.553 4 11 4 L 5 4 z M 53 4 C 52.447 4 52 4.448 52 5 C 52 5.552 52.447 6 53 6 L 58 6 L 58 11 C 58 11.552 58.447 12 59 12 C 59.553 12 60 11.552 60 11 L 60 5 C 60 4.448 59.553 4 59 4 L 53 4 z M 31.292969 7.9804688 C 29.460969 7.9804688 27.980781 9.4151406 27.925781 11.244141 L 27.904297 11.900391 C 27.258297 11.356391 26.424672 11.027344 25.513672 11.027344 C 23.480672 11.027344 21.849781 12.620391 21.800781 14.650391 L 21.302734 33.398438 L 21.222656 33.203125 C 20.488656 31.397125 18.992187 30.055531 17.117188 29.519531 C 16.302187 29.286531 15.459734 29.437594 14.802734 29.933594 C 14.156734 30.420594 13.785156 31.176859 13.785156 32.005859 L 13.785156 36 L 1 36 C 0.447 36 0 36.448 0 37 C 0 37.552 0.447 38 1 38 L 21.685547 38 L 21.6875 38 L 21.691406 38 L 63 38 C 63.553 38 64 37.552 64 37 C 64 36.448 63.553 36 63 36 L 47.697266 36 L 46.996094 19.228516 C 46.891094 17.235516 45.245094 15.673828 43.246094 15.673828 C 42.339094 15.673828 41.507422 15.997156 40.857422 16.535156 L 40.800781 14.625 C 40.743781 12.597 39.111031 11.009766 37.082031 11.009766 C 36.170031 11.009766 35.333547 11.338766 34.685547 11.884766 L 34.664062 11.244141 C 34.607062 9.4131406 33.129969 7.9804688 31.292969 7.9804688 z M 31.300781 9.9804688 C 32.043781 9.9804688 32.644969 10.563594 32.667969 11.308594 L 33.287109 30.505859 C 33.304109 31.045859 33.821328 31.472656 34.361328 31.472656 C 34.914328 31.472656 35.361328 31.024656 35.361328 30.472656 L 35.361328 14.728516 C 35.361328 13.779516 36.132031 13.009766 37.082031 13.009766 C 38.020031 13.009766 38.776734 13.742641 38.802734 14.681641 L 39.265625 30.501953 C 39.282625 31.042953 39.724625 31.472656 40.265625 31.472656 L 40.494141 31.472656 C 41.047141 31.472656 41.494141 31.024656 41.494141 30.472656 L 41.494141 19.427734 C 41.494141 18.461734 42.279047 17.675781 43.248047 17.675781 C 44.180047 17.675781 44.949047 18.404219 44.998047 19.324219 L 45.697266 36 L 23.234375 36 L 23.800781 14.701172 C 23.822781 13.763172 24.575578 13.029297 25.517578 13.029297 C 26.462578 13.029297 27.230469 13.798188 27.230469 14.742188 L 27.230469 30.472656 C 27.230469 31.024656 27.753641 31.472656 28.306641 31.472656 C 28.846641 31.472656 29.289641 31.043906 29.306641 30.503906 L 29.925781 11.306641 C 29.947781 10.562641 30.549781 9.9804688 31.300781 9.9804688 z M 16.267578 31.421875 C 16.363453 31.407125 16.465359 31.413859 16.568359 31.443359 C 17.847359 31.808359 18.870094 32.725984 19.371094 33.958984 L 20.201172 36 L 15.785156 36 L 15.785156 32.005859 C 15.785156 31.751859 15.906812 31.60725 16.007812 31.53125 C 16.083312 31.47375 16.171703 31.436625 16.267578 31.421875 z M 46.849609 39.650391 C 46.297609 39.673391 45.869578 40.139406 45.892578 40.691406 L 45.980469 42.789062 C 46.074469 44.562063 46.106156 46.581063 45.660156 48.039062 L 45.376953 48.775391 C 44.139953 51.949391 41.140375 54 37.734375 54 L 28.648438 54 C 26.107437 54 23.669906 52.792484 22.128906 50.771484 L 18.839844 46.457031 C 17.197844 44.408031 16.294156 42.561703 15.910156 40.470703 C 15.811156 39.927703 15.300094 39.570969 14.746094 39.667969 C 14.203094 39.766969 13.844359 40.287078 13.943359 40.830078 C 14.389359 43.265078 15.418672 45.386453 17.263672 47.689453 L 20.537109 51.986328 C 22.456109 54.499328 25.487438 56 28.648438 56 L 37.734375 56 C 41.970375 56 45.700281 53.449 47.238281 49.5 L 47.548828 48.695312 C 48.108828 46.875312 48.085516 44.729359 47.978516 42.693359 L 47.890625 40.607422 C 47.868625 40.055422 47.401609 39.632391 46.849609 39.650391 z M 23.556641 39.662109 C 23.303766 39.622734 23.035 39.68075 22.8125 39.84375 C 22.3665 40.16975 22.270703 40.795234 22.595703 41.240234 C 23.866703 42.979234 25.876703 44.369984 27.970703 44.958984 C 28.061703 44.984984 28.153187 44.996094 28.242188 44.996094 C 28.679188 44.996094 29.078125 44.707578 29.203125 44.267578 C 29.352125 43.736578 29.044672 43.184156 28.513672 43.035156 C 26.834672 42.562156 25.226938 41.450547 24.210938 40.060547 C 24.047937 39.838047 23.809516 39.701484 23.556641 39.662109 z M 32 42 C 31.447 42 31 42.448 31 43 L 31 45 C 31 45.552 31.447 46 32 46 C 32.553 46 33 45.552 33 45 L 33 43 C 33 42.448 32.553 42 32 42 z M 37 42 C 36.447 42 36 42.448 36 43 L 36 45 C 36 45.552 36.447 46 37 46 C 37.553 46 38 45.552 38 45 L 38 43 C 38 42.448 37.553 42 37 42 z M 42 42 C 41.447 42 41 42.448 41 43 L 41 45 C 41 45.552 41.447 46 42 46 C 42.553 46 43 45.552 43 45 L 43 43 C 43 42.448 42.553 42 42 42 z M 5 52 C 4.447 52 4 52.448 4 53 L 4 59 C 4 59.552 4.447 60 5 60 L 11 60 C 11.553 60 12 59.552 12 59 C 12 58.448 11.553 58 11 58 L 6 58 L 6 53 C 6 52.448 5.553 52 5 52 z M 59 52 C 58.447 52 58 52.448 58 53 L 58 58 L 53 58 C 52.447 58 52 58.448 52 59 C 52 59.552 52.447 60 53 60 L 59 60 C 59.553 60 60 59.552 60 59 L 60 53 C 60 52.448 59.553 52 59 52 z"
                  fill="#878787"/>
        </g>
    </symbol>

    <symbol id="pharmacy"  xmlns="http://www.w3.org/2000/svg" xmlns:xlink="http://www.w3.org/1999/xlink" viewBox="0 0 50 50" version="1.1"
            fill="#999999">
        <g id="surface1" fill="#999999">
            <path d="M 7 4 L 7 23 L 7 30 L 13 30 L 13 23 L 18.701172 23 L 25.994141 34.740234 L 19 46 L 26.064453 46 L 31 38.054688 L 35.935547 46 L 43 46 L 35.855469 34.5 L 43 23 L 35.935547 23 L 30.849609 31.185547 L 25.042969 21.839844 C 27.993969 20.225844 30 17.093 30 13.5 C 30 8.262 25.738 4 20.5 4 L 13 4 L 7 4 z M 9 6 L 13 6 L 20.5 6 C 24.635 6 28 9.365 28 13.5 C 28 16.241 26.498984 18.764937 24.083984 20.085938 L 22.228516 21.099609 L 23.345703 22.896484 L 29.152344 32.242188 L 30.244141 34 L 31.457031 34 L 32.548828 32.242188 L 37.048828 25 L 39.402344 25 L 34.15625 33.445312 L 33.501953 34.5 L 34.15625 35.554688 L 39.402344 44 L 37.048828 44 L 32.699219 36.998047 L 32.078125 36 L 29.921875 36 L 29.300781 36.998047 L 24.951172 44 L 22.597656 44 L 27.693359 35.796875 L 28.349609 34.740234 L 27.693359 33.685547 L 20.400391 21.945312 L 19.8125 21 L 18.701172 21 L 13 21 L 11 21 L 11 23 L 11 28 L 9 28 L 9 23 L 9 6 z M 11 8 L 11 10 L 11 17 L 11 19 L 13 19 L 20.5 19 C 23.533 19 26 16.533 26 13.5 C 26 10.467 23.533 8 20.5 8 L 13 8 L 11 8 z M 13 10 L 20.5 10 C 22.43 10 24 11.57 24 13.5 C 24 15.43 22.43 17 20.5 17 L 13 17 L 13 10 z"
                  fill="#999999"/>
        </g>
    </symbol>

    <symbol id="pills"  xmlns="http://www.w3.org/2000/svg" xmlns:xlink="http://www.w3.org/1999/xlink" viewBox="0 0 50 50" version="1.1"
            fill="#999999">
        <g id="surface1" fill="#999999">
            <path style="line-height:normal;text-indent:0;text-align:start;text-decoration-line:none;text-decoration-style:solid;text-decoration-color:#000;text-transform:none;block-progression:tb;isolation:auto;mix-blend-mode:normal"
                  d="M 13 3 C 6.9348577 3.0021963 2.0010969 7.9572142 2 14.042969 L 2 14.044922 C 2.00193 14.937307 2.00187 35.257887 2 35.953125 L 2 35.955078 C 2.0011 38.996883 3.2320438 41.764265 5.2207031 43.761719 C 7.2092342 45.75895 9.9675781 46.998902 13 47 C 16.75368 47 20.075166 45.110677 22.060547 42.230469 C 24.799518 45.157585 28.6835 47 33 47 C 41.272427 47 48 40.272427 48 32 C 48 23.727573 41.272427 17 33 17 C 29.621076 17 26.51027 18.135713 24 20.027344 C 23.999241 17.905265 23.998496 14.731807 24 14.044922 L 24 14.042969 C 23.998903 7.957135 19.06424 3.0021964 13 3 z M 13 5 C 17.979097 5.0018 21.998027 9.0318169 22 14.041016 C 21.998042 14.954406 21.998123 20.872228 22 21.835938 C 21.370292 22.516972 20.803992 23.257403 20.306641 24.044922 A 1.0001 1.0001 0 0 0 20 24 L 4 24 C 3.9999062 19.252578 4.0009399 14.475262 4 14.041016 C 4.0019727 9.0316968 8.0198055 5.0018034 13 5 z M 33 19 C 40.191546 19 46 24.808454 46 32 C 46 39.191546 40.191546 45 33 45 C 25.808454 45 20 39.191546 20 32 C 20 24.808454 25.808454 19 33 19 z M 40.050781 23.919922 A 1.0001 1.0001 0 0 0 39.363281 24.222656 L 25.222656 38.363281 A 1.0001 1.0001 0 1 0 26.636719 39.777344 L 40.777344 25.636719 A 1.0001 1.0001 0 0 0 40.050781 23.919922 z M 4 26 L 19.277344 26 C 18.465223 27.83857 18 29.862789 18 32 C 18 33.420421 18.211573 34.790659 18.582031 36.09375 A 1 1 0 0 0 18 37 A 1 1 0 0 0 19 38 A 1 1 0 0 0 19.244141 37.96875 C 19.647975 38.896 20.146092 39.770899 20.720703 40.589844 C 20.383771 41.155703 19.976764 41.672753 19.529297 42.150391 A 1 1 0 0 0 19 42 A 1 1 0 0 0 18 43 A 1 1 0 0 0 18.082031 43.396484 C 16.638422 44.397697 14.897124 45 13 45 C 11.106299 44.999314 9.3573656 44.410484 7.9101562 43.410156 A 1 1 0 0 0 8 43 A 1 1 0 0 0 7 42 A 1 1 0 0 0 6.4628906 42.158203 C 4.9406479 40.539294 4.0013849 38.36644 4 35.957031 L 4 35.955078 C 4.0000929 35.920382 3.9999155 35.105074 4 35 A 1 1 0 0 0 5 34 A 1 1 0 0 0 4 33 C 4.0002816 32.02935 3.9998617 30.679941 4 29 A 1 1 0 0 0 5 28 A 1 1 0 0 0 4 27 C 4.0000169 26.535338 3.9999919 26.476005 4 26 z M 10 27 A 1 1 0 0 0 9 28 A 1 1 0 0 0 10 29 A 1 1 0 0 0 11 28 A 1 1 0 0 0 10 27 z M 16 27 A 1 1 0 0 0 15 28 A 1 1 0 0 0 16 29 A 1 1 0 0 0 17 28 A 1 1 0 0 0 16 27 z M 7 30 A 1 1 0 0 0 6 31 A 1 1 0 0 0 7 32 A 1 1 0 0 0 8 31 A 1 1 0 0 0 7 30 z M 13 30 A 1 1 0 0 0 12 31 A 1 1 0 0 0 13 32 A 1 1 0 0 0 14 31 A 1 1 0 0 0 13 30 z M 10 33 A 1 1 0 0 0 9 34 A 1 1 0 0 0 10 35 A 1 1 0 0 0 11 34 A 1 1 0 0 0 10 33 z M 16 33 A 1 1 0 0 0 15 34 A 1 1 0 0 0 16 35 A 1 1 0 0 0 17 34 A 1 1 0 0 0 16 33 z M 7 36 A 1 1 0 0 0 6 37 A 1 1 0 0 0 7 38 A 1 1 0 0 0 8 37 A 1 1 0 0 0 7 36 z M 13 36 A 1 1 0 0 0 12 37 A 1 1 0 0 0 13 38 A 1 1 0 0 0 14 37 A 1 1 0 0 0 13 36 z M 10 39 A 1 1 0 0 0 9 40 A 1 1 0 0 0 10 41 A 1 1 0 0 0 11 40 A 1 1 0 0 0 10 39 z M 16 39 A 1 1 0 0 0 15 40 A 1 1 0 0 0 16 41 A 1 1 0 0 0 17 40 A 1 1 0 0 0 16 39 z M 13 42 A 1 1 0 0 0 12 43 A 1 1 0 0 0 13 44 A 1 1 0 0 0 14 43 A 1 1 0 0 0 13 42 z"
                  fill="#999999"/>
        </g>
    </symbol>

    <symbol id="pregnant"  xmlns="http://www.w3.org/2000/svg" xmlns:xlink="http://www.w3.org/1999/xlink" viewBox="0 0 50 50" version="1.1"
            fill="#999999">
        <g id="surface1" fill="#999999">
            <path style=" "
                  d="M 25 0 C 21.699219 0 19 2.699219 19 6 C 19 9.300781 21.699219 12 25 12 C 28.300781 12 31 9.300781 31 6 C 31 2.699219 28.300781 0 25 0 Z M 25 2 C 27.222656 2 29 3.777344 29 6 C 29 8.222656 27.222656 10 25 10 C 22.777344 10 21 8.222656 21 6 C 21 3.777344 22.777344 2 25 2 Z M 21 13 C 19.46875 13 18.277344 13.675781 17.53125 14.46875 C 16.785156 15.261719 16.429688 16.144531 16.25 16.6875 C 16.25 16.6875 13.160156 26.136719 12.25 28.96875 C 12.246094 28.976563 12.253906 28.992188 12.25 29 C 11.921875 29.941406 12.015625 30.945313 12.5 31.71875 C 12.886719 32.339844 13.554688 32.75 14.3125 32.90625 C 14.144531 33.902344 14 34.96875 14 36 C 14 36.550781 14.449219 37 15 37 L 20 37 L 20 47 C 20 48.644531 21.355469 50 23 50 C 23.765625 50 24.46875 49.699219 25 49.21875 C 25.53125 49.699219 26.234375 50 27 50 C 28.644531 50 30 48.644531 30 47 L 30 37 L 35 37 C 35.550781 37 36 36.550781 36 36 C 36 34.96875 35.855469 33.902344 35.6875 32.90625 C 36.445313 32.75 37.113281 32.339844 37.5 31.71875 C 37.984375 30.945313 38.078125 29.941406 37.75 29 C 37.746094 28.992188 37.753906 28.976563 37.75 28.96875 C 36.839844 26.136719 33.75 16.6875 33.75 16.6875 C 33.570313 16.144531 33.214844 15.261719 32.46875 14.46875 C 31.722656 13.675781 30.53125 13 29 13 L 25.0625 13 C 25.042969 13 25.019531 13 25 13 Z M 21 15 L 25 15 C 25.03125 15 25.0625 15 25.09375 15 L 29 15 C 29.96875 15 30.542969 15.359375 31 15.84375 C 31.457031 16.328125 31.726563 16.957031 31.84375 17.3125 C 31.84375 17.3125 34.945313 26.804688 35.84375 29.59375 C 35.84375 29.605469 35.84375 29.613281 35.84375 29.625 C 36.003906 30.074219 35.949219 30.4375 35.8125 30.65625 C 35.707031 30.828125 35.554688 30.925781 35.3125 30.96875 C 34.980469 29.570313 34.65625 28.59375 34.65625 28.59375 C 34.527344 28.152344 34.113281 27.855469 33.65625 27.875 C 33.335938 27.886719 33.039063 28.050781 32.859375 28.316406 C 32.679688 28.582031 32.640625 28.917969 32.75 29.21875 C 32.75 29.21875 33.65625 32.265625 33.875 35 L 16.125 35 C 16.34375 32.265625 17.25 29.21875 17.25 29.21875 C 17.363281 28.914063 17.316406 28.570313 17.132813 28.304688 C 16.945313 28.035156 16.640625 27.875 16.3125 27.875 C 15.863281 27.871094 15.46875 28.164063 15.34375 28.59375 C 15.34375 28.59375 15.019531 29.570313 14.6875 30.96875 C 14.445313 30.925781 14.292969 30.828125 14.1875 30.65625 C 14.050781 30.4375 13.996094 30.074219 14.15625 29.625 C 14.15625 29.613281 14.15625 29.605469 14.15625 29.59375 C 15.054688 26.804688 18.15625 17.3125 18.15625 17.3125 C 18.273438 16.957031 18.542969 16.328125 19 15.84375 C 19.457031 15.359375 20.03125 15 21 15 Z M 25 19 C 21.144531 19 18 22.144531 18 26 C 18 29.855469 21.144531 33 25 33 C 28.855469 33 32 29.855469 32 26 C 32 22.144531 28.855469 19 25 19 Z M 25 21 C 27.773438 21 30 23.226563 30 26 C 30 28.773438 27.773438 31 25 31 C 22.226563 31 20 28.773438 20 26 C 20 23.226563 22.226563 21 25 21 Z M 23.5 23.59375 C 22.5 23.59375 21.6875 24.40625 21.6875 25.40625 C 21.6875 27.507813 24.101563 28.511719 25 29.3125 C 25.898438 28.613281 28.3125 27.507813 28.3125 25.40625 C 28.3125 24.40625 27.5 23.59375 26.5 23.59375 C 25.898438 23.59375 25.300781 23.90625 25 24.40625 C 24.699219 23.90625 24.101563 23.59375 23.5 23.59375 Z M 22 37 L 24 37 L 24 47 C 24 47.554688 23.554688 48 23 48 C 22.445313 48 22 47.554688 22 47 Z M 26 37 L 28 37 L 28 47 C 28 47.554688 27.554688 48 27 48 C 26.445313 48 26 47.554688 26 47 Z "
                  fill="#999999"/>
        </g>
    </symbol>

    <symbol id="pulse_filled"  xmlns="http://www.w3.org/2000/svg" xmlns:xlink="http://www.w3.org/1999/xlink" viewBox="0 0 50 50" version="1.1"
            fill="#999999">
        <g id="surface1" fill="#999999">
            <path style=" "
                  d="M 21.488281 12 C 21.019531 12.003906 20.617188 12.335938 20.519531 12.796875 L 17.71875 26.40625 L 15.9375 21.648438 C 15.796875 21.277344 15.449219 21.023438 15.050781 21.003906 C 14.65625 20.980469 14.285156 21.199219 14.105469 21.550781 L 12.382813 25 L 9 25 C 8.914063 25 8.828125 25.011719 8.746094 25.03125 C 8.394531 24.394531 7.726563 24 7 24 C 5.894531 24 5 24.894531 5 26 C 5 27.105469 5.894531 28 7 28 C 7.726563 28 8.394531 27.605469 8.75 26.96875 C 8.832031 26.992188 8.914063 27 9 27 L 13 27 C 13.378906 27 13.726563 26.785156 13.894531 26.449219 L 14.871094 24.5 L 17.0625 30.351563 C 17.222656 30.765625 17.636719 31.027344 18.078125 30.992188 C 18.519531 30.960938 18.886719 30.636719 18.980469 30.203125 L 21.4375 18.253906 L 24.515625 35.179688 C 24.59375 35.621094 24.960938 35.957031 25.40625 35.996094 C 25.851563 36.039063 26.273438 35.777344 26.433594 35.359375 L 30.488281 24.816406 L 32.5625 30.351563 C 32.699219 30.707031 33.023438 30.957031 33.402344 30.992188 C 33.777344 31.03125 34.144531 30.851563 34.347656 30.53125 L 36.554688 27 L 41.269531 27 C 41.628906 27.617188 42.285156 28 43 28 C 44.105469 28 45 27.105469 45 26 C 45 24.894531 44.105469 24 43 24 C 42.285156 24 41.625 24.382813 41.269531 25 L 36 25 C 35.65625 25 35.335938 25.179688 35.152344 25.46875 L 33.722656 27.753906 L 31.4375 21.648438 C 31.289063 21.261719 30.917969 21.003906 30.503906 21 C 30.089844 21 29.714844 21.253906 29.566406 21.640625 L 25.84375 31.3125 L 22.484375 12.820313 C 22.398438 12.339844 21.976563 11.996094 21.488281 12 Z "
                  fill="#999999"/>
        </g>
    </symbol>

    <symbol id="question"  xmlns="http://www.w3.org/2000/svg" xmlns:xlink="http://www.w3.org/1999/xlink" viewBox="0 0 50 50" version="1.1"
            fill="#999999">
        <g id="surface1" fill="#999999">
            <path style=" "
                  d="M 25 4 C 12.328125 4 2 12.878906 2 23.996094 C 2 30.445313 5.53125 36.0625 10.960938 39.730469 C 10.953125 39.945313 10.96875 40.296875 10.6875 41.34375 C 10.335938 42.644531 9.625 44.472656 8.1875 46.535156 L 7.164063 48 L 8.953125 48 C 15.140625 48 18.722656 43.964844 19.277344 43.316406 C 21.121094 43.75 23.015625 43.984375 25 43.984375 C 37.667969 43.984375 48 35.105469 48 23.992188 C 48 12.878906 37.671875 4 25 4 Z M 25 6 C 36.578125 6 46 14.070313 46 23.996094 C 46 33.917969 36.578125 41.988281 25 41.988281 C 23.230469 41.988281 21.507813 41.785156 19.734375 41.371094 L 18.546875 41.09375 L 17.757813 42.015625 C 17.074219 42.816406 14.773438 45.167969 10.984375 45.828125 C 11.710938 44.523438 12.257813 43.195313 12.613281 41.863281 C 12.894531 40.832031 12.945313 40.289063 12.957031 39.8125 L 13.003906 38.699219 L 12.078125 38.074219 C 6.945313 34.601563 4 29.46875 4 23.996094 C 4 14.070313 13.421875 6 25 6 Z M 25 13.597656 C 23 13.597656 21.402344 14.199219 20.300781 15.402344 C 19.101563 16.601563 18.601563 18.199219 18.5 20.097656 L 21 20.097656 C 21.101563 19 21.300781 18 21.597656 17.402344 C 22.199219 16.300781 23.300781 15.699219 24.902344 15.699219 C 26.101563 15.699219 27.097656 16 27.597656 16.699219 C 28.097656 17.300781 28.402344 18.101563 28.402344 19 C 28.402344 19.699219 28.199219 20.300781 27.800781 20.902344 C 27.601563 21.300781 27.300781 21.601563 27 21.902344 L 25.902344 23 C 24.800781 24.101563 24.101563 25 23.800781 25.800781 C 23.5 26.601563 23.300781 27.699219 23.300781 29 L 25.800781 29 C 25.800781 27.800781 25.898438 27 26.199219 26.5 C 26.5 25.898438 27.101563 25.199219 28 24.300781 C 29.300781 23.101563 30.101563 22.199219 30.5 21.597656 C 30.898438 21 31.097656 20.199219 31.097656 19.199219 C 31.097656 17.597656 30.5 16.199219 29.402344 15.199219 C 28.300781 14.097656 26.800781 13.597656 25 13.597656 Z M 23.300781 31.300781 L 23.300781 34.199219 L 26 34.199219 L 26 31.300781 Z "
                  fill="#999999"/>
        </g>
    </symbol>

    <symbol id="stethoscope"  xmlns="http://www.w3.org/2000/svg" xmlns:xlink="http://www.w3.org/1999/xlink" viewBox="0 0 50 50" version="1.1"
            fill="#999999">
        <g id="surface1" fill="#999999">
            <path style=" "
                  d="M 8 0 C 7.207031 0 6.511719 0.453125 6.1875 1.125 C 5.773438 1.214844 5.21875 1.355469 4.65625 1.5625 C 4.09375 1.769531 3.515625 2.042969 3 2.46875 C 2.484375 2.894531 2 3.550781 2 4.375 C 2 4.734375 2.058594 5.148438 2.15625 5.8125 C 2.253906 6.476563 2.394531 7.355469 2.59375 8.34375 C 2.988281 10.320313 3.597656 12.835938 4.40625 15.4375 C 6 20.570313 8.277344 26.074219 12.03125 28.34375 C 12.027344 28.425781 12 28.507813 12 28.59375 C 12 29.789063 12.355469 31.214844 12.96875 32.46875 C 13.273438 33.09375 13.648438 33.652344 14.125 34.125 C 14.378906 34.378906 14.691406 34.621094 15.03125 34.78125 C 15.066406 37.382813 15.316406 40.679688 17.15625 43.53125 C 19.175781 46.664063 23.117188 49 30 49 C 36.265625 49 39.933594 46.410156 41.84375 43.46875 C 43.414063 41.050781 43.859375 38.53125 43.96875 36.9375 C 47.367188 36.464844 50 33.527344 50 30 C 50 26.148438 46.851563 23 43 23 C 39.144531 23 36 26.148438 36 30 C 36 33.492188 38.585938 36.390625 41.9375 36.90625 C 41.816406 38.269531 41.414063 40.433594 40.15625 42.375 C 38.566406 44.824219 35.734375 47 30 47 C 23.550781 47 20.488281 44.984375 18.84375 42.4375 C 17.347656 40.121094 17.074219 37.214844 17.03125 34.75 C 17.34375 34.589844 17.636719 34.359375 17.875 34.125 C 18.347656 33.652344 18.726563 33.09375 19.03125 32.46875 C 19.644531 31.214844 20 29.789063 20 28.59375 C 20 28.507813 19.972656 28.425781 19.96875 28.34375 C 23.722656 26.074219 26 20.570313 27.59375 15.4375 C 28.402344 12.835938 29.011719 10.320313 29.40625 8.34375 C 29.605469 7.355469 29.746094 6.476563 29.84375 5.8125 C 29.941406 5.148438 30 4.734375 30 4.375 C 30 3.550781 29.515625 2.894531 29 2.46875 C 28.484375 2.042969 27.90625 1.769531 27.34375 1.5625 C 26.78125 1.355469 26.226563 1.214844 25.8125 1.125 C 25.792969 1.121094 25.800781 1.128906 25.78125 1.125 C 25.457031 0.460938 24.789063 0 24 0 C 22.894531 0 22 0.894531 22 2 C 22 3.105469 22.894531 4 24 4 C 24.675781 4 25.261719 3.667969 25.625 3.15625 C 25.933594 3.226563 26.292969 3.304688 26.65625 3.4375 C 27.09375 3.597656 27.515625 3.804688 27.75 4 C 27.984375 4.195313 28 4.273438 28 4.375 C 28 4.414063 27.96875 4.90625 27.875 5.53125 C 27.78125 6.15625 27.628906 6.976563 27.4375 7.9375 C 27.054688 9.855469 26.46875 12.328125 25.6875 14.84375 C 24.175781 19.710938 21.777344 24.71875 19.09375 26.5 C 18.863281 26.328125 18.617188 26.191406 18.375 26.125 C 17.503906 25.882813 16.753906 26.03125 16 26.03125 C 15.246094 26.03125 14.496094 25.886719 13.625 26.125 C 13.382813 26.191406 13.136719 26.328125 12.90625 26.5 C 10.222656 24.71875 7.824219 19.710938 6.3125 14.84375 C 5.53125 12.328125 4.945313 9.855469 4.5625 7.9375 C 4.371094 6.976563 4.21875 6.15625 4.125 5.53125 C 4.03125 4.90625 4 4.414063 4 4.375 C 4 4.273438 4.015625 4.195313 4.25 4 C 4.484375 3.804688 4.90625 3.597656 5.34375 3.4375 C 5.707031 3.304688 6.066406 3.226563 6.375 3.15625 C 6.738281 3.667969 7.324219 4 8 4 C 9.105469 4 10 3.105469 10 2 C 10 0.894531 9.105469 0 8 0 Z M 43 25 C 45.769531 25 48 27.230469 48 30 C 48 32.738281 45.820313 34.949219 43.09375 35 C 43.0625 35 43.03125 35 43 35 C 40.226563 35 38 32.769531 38 30 C 38 27.230469 40.226563 25 43 25 Z M 43 27 C 41.355469 27 40 28.355469 40 30 C 40 31.644531 41.355469 33 43 33 C 44.644531 33 46 31.644531 46 30 C 46 28.355469 44.644531 27 43 27 Z M 14.8125 28.03125 C 15.132813 28.03125 15.550781 28.03125 16 28.03125 C 16.902344 28.03125 17.628906 28.003906 17.84375 28.0625 C 17.953125 28.09375 17.929688 28.050781 17.9375 28.0625 C 17.945313 28.074219 18 28.226563 18 28.59375 C 18 29.324219 17.691406 30.625 17.21875 31.59375 C 16.980469 32.078125 16.710938 32.476563 16.46875 32.71875 C 16.277344 32.910156 16.144531 32.949219 16.0625 32.96875 C 16.019531 32.964844 15.980469 32.964844 15.9375 32.96875 C 15.855469 32.949219 15.722656 32.910156 15.53125 32.71875 C 15.289063 32.476563 15.019531 32.078125 14.78125 31.59375 C 14.308594 30.625 14 29.324219 14 28.59375 C 14 28.226563 14.054688 28.074219 14.0625 28.0625 C 14.070313 28.050781 14.046875 28.09375 14.15625 28.0625 C 14.265625 28.03125 14.492188 28.03125 14.8125 28.03125 Z M 43 29 C 43.566406 29 44 29.433594 44 30 C 44 30.566406 43.566406 31 43 31 C 42.433594 31 42 30.566406 42 30 C 42 29.433594 42.433594 29 43 29 Z "
                  fill="#999999"/>
        </g>
    </symbol>

    <symbol id="syringe"  xmlns="http://www.w3.org/2000/svg" xmlns:xlink="http://www.w3.org/1999/xlink" viewBox="0 0 50 50" version="1.1"
            fill="#999999">
        <g id="surface1" fill="#999999">
            <path style=" "
                  d="M 37.90625 -0.03125 C 37.863281 -0.0234375 37.820313 -0.0117188 37.78125 0 C 37.40625 0.0664063 37.105469 0.339844 37 0.703125 C 36.894531 1.070313 37.003906 1.460938 37.28125 1.71875 L 38.5625 3 L 31 10.5625 L 29.9375 9.53125 C 29.886719 9.4375 29.824219 9.355469 29.75 9.28125 L 29.59375 9.15625 C 29.5625 9.132813 29.53125 9.113281 29.5 9.09375 L 26.71875 6.28125 C 26.511719 6.058594 26.210938 5.945313 25.90625 5.96875 C 25.863281 5.976563 25.820313 5.988281 25.78125 6 C 25.40625 6.066406 25.105469 6.339844 25 6.703125 C 24.894531 7.070313 25.003906 7.460938 25.28125 7.71875 L 27.5625 10 L 6.28125 31.28125 C 6.03125 31.535156 5.933594 31.90625 6.03125 32.25 L 7.78125 39.21875 L 1 46 L 1 50 L 9.78125 41.21875 L 16.75 42.96875 C 17.09375 43.066406 17.464844 42.96875 17.71875 42.71875 L 39 21.4375 L 41.28125 23.71875 C 41.679688 24.117188 42.320313 24.117188 42.71875 23.71875 C 43.117188 23.320313 43.117188 22.679688 42.71875 22.28125 L 39.84375 19.40625 C 39.761719 19.292969 39.652344 19.195313 39.53125 19.125 L 38.4375 18 L 46 10.4375 L 47.28125 11.71875 C 47.679688 12.117188 48.320313 12.117188 48.71875 11.71875 C 49.117188 11.320313 49.117188 10.679688 48.71875 10.28125 L 38.71875 0.28125 C 38.511719 0.0585938 38.210938 -0.0546875 37.90625 -0.03125 Z M 40 4.4375 L 44.5625 9 L 37 16.5625 L 32.4375 12 Z M 29 11.4375 L 37.5625 20 L 16.6875 40.875 L 9.8125 39.1875 L 8.125 32.3125 L 9.5 30.9375 C 9.53125 30.960938 9.5625 30.980469 9.59375 31 L 13.28125 34.71875 C 13.679688 35.117188 14.320313 35.117188 14.71875 34.71875 C 15.117188 34.320313 15.117188 33.679688 14.71875 33.28125 L 11 29.59375 C 10.980469 29.570313 10.960938 29.550781 10.9375 29.53125 L 13.5 26.9375 C 13.511719 26.9375 13.519531 26.9375 13.53125 26.9375 C 13.550781 26.960938 13.570313 26.980469 13.59375 27 L 15.28125 28.71875 C 15.679688 29.117188 16.320313 29.117188 16.71875 28.71875 C 17.117188 28.320313 17.117188 27.679688 16.71875 27.28125 L 15 25.59375 C 14.980469 25.570313 14.960938 25.550781 14.9375 25.53125 L 17.53125 22.9375 C 17.550781 22.960938 17.570313 22.980469 17.59375 23 L 21.28125 26.71875 C 21.679688 27.117188 22.320313 27.117188 22.71875 26.71875 C 23.117188 26.320313 23.117188 25.679688 22.71875 25.28125 L 19 21.59375 C 18.980469 21.570313 18.960938 21.550781 18.9375 21.53125 L 21.53125 18.9375 C 21.550781 18.960938 21.570313 18.980469 21.59375 19 L 23.28125 20.71875 C 23.679688 21.117188 24.320313 21.117188 24.71875 20.71875 C 25.117188 20.320313 25.117188 19.679688 24.71875 19.28125 L 23 17.59375 C 22.980469 17.570313 22.960938 17.550781 22.9375 17.53125 L 25.53125 14.9375 C 25.550781 14.960938 25.570313 14.980469 25.59375 15 L 29.28125 18.71875 C 29.679688 19.117188 30.320313 19.117188 30.71875 18.71875 C 31.117188 18.320313 31.117188 17.679688 30.71875 17.28125 L 27 13.59375 C 26.980469 13.570313 26.960938 13.550781 26.9375 13.53125 Z "
                  fill="#999999"/>
        </g>
    </symbol>

    <symbol id="test_tube"  xmlns="http://www.w3.org/2000/svg" xmlns:xlink="http://www.w3.org/1999/xlink" viewBox="0 0 50 50" version="1.1"
            fill="#999999">
        <g id="surface1" fill="#999999">
            <path style="line-height:normal;text-indent:0;text-align:start;text-decoration-line:none;text-decoration-style:solid;text-decoration-color:#000;text-transform:none;block-progression:tb;isolation:auto;mix-blend-mode:normal"
                  d="M 27.416016 2.0097656 C 27.250611 2.0208363 27.087615 2.0480981 26.927734 2.0898438 C 26.288211 2.256826 25.712977 2.6637207 25.355469 3.2714844 C 24.640216 4.4874145 25.062633 6.0836028 26.283203 6.7910156 L 26.291016 6.796875 L 8.9550781 37.470703 C 8.9543205 37.472003 8.953875 37.473309 8.953125 37.474609 C 7.0127771 40.802797 8.1444296 45.102173 11.470703 47.044922 C 14.798389 48.987332 19.101326 47.858184 21.044922 44.529297 L 21.048828 44.523438 L 38.416016 13.785156 C 39.587438 14.275968 40.987542 13.848717 41.646484 12.728516 C 42.361737 11.512585 41.937367 9.9163972 40.716797 9.2089844 L 28.880859 2.3496094 C 28.42315 2.0846835 27.912231 1.9765535 27.416016 2.0097656 z M 27.654297 4.0019531 C 27.730048 4.012492 27.806546 4.0381954 27.878906 4.0800781 L 39.714844 10.939453 C 40.002273 11.10604 40.086622 11.434774 39.921875 11.714844 C 39.757269 11.994674 39.412082 12.085882 39.123047 11.919922 L 32.503906 8.0839844 L 31.5 9.8144531 L 36.669922 12.810547 L 19.314453 43.525391 C 17.914736 45.916633 14.871171 46.713028 12.478516 45.316406 L 12.478516 45.318359 C 10.084086 43.919865 9.283142 40.873789 10.681641 38.478516 L 10.685547 38.472656 L 28.021484 7.7988281 L 29.501953 8.65625 L 30.505859 6.9257812 L 27.287109 5.0605469 C 26.99968 4.8939597 26.913378 4.5652262 27.078125 4.2851562 C 27.201863 4.0748017 27.427043 3.9703365 27.654297 4.0019531 z"
                  font-weight="400" font-family="sans-serif" white-space="normal" overflow="visible" fill="#999999"/>
        </g>
    </symbol>

    <symbol id="urine_collection"  xmlns="http://www.w3.org/2000/svg" xmlns:xlink="http://www.w3.org/1999/xlink" viewBox="0 0 50 50" version="1.1"
            fill="#999999">
        <g id="surface1" fill="#999999">
            <path style=" "
                  d="M 6 4 C 4.355469 4 3 5.355469 3 7 L 3 13 C 3 14.644531 4.355469 16 6 16 L 6.125 16 L 10 45.125 C 10.0625 45.628906 10.492188 46.003906 11 46 L 39 46 C 39.507813 46.003906 39.9375 45.628906 40 45.125 L 43.875 16 L 44 16 C 45.644531 16 47 14.644531 47 13 L 47 7 C 47 5.355469 45.644531 4 44 4 L 25 4 L 25 6 L 44 6 C 44.554688 6 45 6.445313 45 7 L 45 13 C 45 13.554688 44.554688 14 44 14 L 25 14 L 25 16 L 41.84375 16 L 38.125 44 L 11.875 44 L 8.15625 16 L 14 16 L 14 34 C 14 35.644531 15.355469 37 17 37 L 33 37 C 34.644531 37 36 35.644531 36 34 L 36 24 C 36 22.355469 34.644531 21 33 21 L 24 21 L 24 4 Z M 6 6 L 14 6 L 14 14 L 6 14 C 5.445313 14 5 13.554688 5 13 L 5 7 C 5 6.445313 5.445313 6 6 6 Z M 16 6 L 22 6 L 22 23 L 33 23 C 33.554688 23 34 23.445313 34 24 L 34 34 C 34 34.554688 33.554688 35 33 35 L 17 35 C 16.445313 35 16 34.554688 16 34 Z M 19 26 L 19 28 L 31 28 L 31 26 Z M 19 30 L 19 32 L 31 32 L 31 30 Z "
                  fill="#999999"/>
        </g>
    </symbol>

    <symbol id="xray"  xmlns="http://www.w3.org/2000/svg" xmlns:xlink="http://www.w3.org/1999/xlink" viewBox="0 0 50 50" version="1.1"
            fill="#999999">
        <g id="surface1" fill="#999999">
            <path style=" "
                  d="M 8 2 C 5.800781 2 4 3.800781 4 6 L 4 44 C 4 46.195313 5.800781 48 8 48 L 42 48 C 44.199219 48 46 46.195313 46 44 L 46 6 C 46 3.800781 44.199219 2 42 2 Z M 8 4 L 42 4 C 43.117188 4 44 4.882813 44 6 L 44 44 C 44 45.117188 43.117188 46 42 46 L 8 46 C 6.882813 46 6 45.117188 6 44 L 6 6 C 6 4.882813 6.882813 4 8 4 Z M 24.71875 5.375 L 24.0625 6 L 24 6.34375 L 24 6.84375 L 24.40625 7.65625 L 25.28125 7.8125 L 25.9375 7.1875 L 26 6.84375 L 26 6.34375 L 25.59375 5.53125 Z M 24.71875 7.875 L 24.0625 8.5 L 24 8.84375 L 24 9.1875 C 23.777344 8.808594 23.335938 8.617188 22.90625 8.71875 C 22.757813 8.75 22.621094 8.8125 22.5 8.90625 C 22.5 8.90625 22.136719 9.136719 21.15625 9.28125 C 20.175781 9.425781 18.664063 9.441406 16.53125 8.8125 C 16.371094 8.761719 16.199219 8.75 16.03125 8.78125 C 15.582031 8.871094 15.25 9.253906 15.230469 9.714844 C 15.207031 10.171875 15.5 10.585938 15.9375 10.71875 C 18.328125 11.425781 20.199219 11.4375 21.46875 11.25 C 22.738281 11.0625 23.5 10.625 23.5 10.625 C 23.894531 10.480469 24.15625 10.105469 24.15625 9.6875 L 24.40625 10.15625 L 25.28125 10.3125 L 25.9375 9.6875 L 26 9.34375 L 26 8.84375 L 25.59375 8.03125 Z M 33.71875 8.75 C 33.632813 8.761719 33.550781 8.78125 33.46875 8.8125 C 31.335938 9.441406 29.824219 9.425781 28.84375 9.28125 C 27.863281 9.136719 27.5 8.90625 27.5 8.90625 C 27.300781 8.789063 27.070313 8.746094 26.84375 8.78125 C 26.429688 8.851563 26.105469 9.171875 26.03125 9.582031 C 25.953125 9.996094 26.140625 10.410156 26.5 10.625 C 26.5 10.625 27.261719 11.0625 28.53125 11.25 C 29.800781 11.4375 31.671875 11.425781 34.0625 10.71875 C 34.585938 10.605469 34.929688 10.097656 34.835938 9.570313 C 34.742188 9.039063 34.25 8.679688 33.71875 8.75 Z M 24.71875 10.375 L 24.0625 11 L 24 11.34375 L 24 11.84375 L 24.40625 12.65625 L 25.28125 12.8125 L 25.9375 12.1875 L 26 11.84375 L 26 11.34375 L 25.59375 10.53125 Z M 14.15625 12.75 C 14.113281 12.757813 14.070313 12.769531 14.03125 12.78125 C 13.582031 12.871094 13.25 13.253906 13.230469 13.714844 C 13.207031 14.171875 13.5 14.585938 13.9375 14.71875 C 18.800781 16.152344 23.3125 14.71875 23.3125 14.71875 C 23.679688 14.601563 23.945313 14.285156 24 13.90625 L 24 14.34375 L 24.40625 15.15625 L 25.28125 15.3125 L 25.9375 14.6875 L 26 14.34375 L 26 13.96875 C 26.074219 14.324219 26.339844 14.613281 26.6875 14.71875 C 26.6875 14.71875 31.199219 16.152344 36.0625 14.71875 C 36.421875 14.628906 36.707031 14.347656 36.792969 13.988281 C 36.882813 13.625 36.765625 13.246094 36.488281 13 C 36.207031 12.753906 35.816406 12.679688 35.46875 12.8125 C 31.28125 14.050781 27.3125 12.8125 27.3125 12.8125 C 27.222656 12.777344 27.128906 12.757813 27.03125 12.75 C 26.957031 12.753906 26.882813 12.761719 26.8125 12.78125 C 26.308594 12.875 25.960938 13.332031 26 13.84375 L 25.59375 13.03125 L 24.71875 12.875 L 24.0625 13.5 L 24 13.71875 C 23.984375 13.40625 23.824219 13.117188 23.566406 12.941406 C 23.3125 12.761719 22.984375 12.714844 22.6875 12.8125 C 22.6875 12.8125 18.71875 14.050781 14.53125 12.8125 C 14.441406 12.777344 14.347656 12.757813 14.25 12.75 C 14.21875 12.75 14.1875 12.75 14.15625 12.75 Z M 24.71875 15.375 L 24.0625 16 L 24 16.34375 L 24 16.84375 L 24.40625 17.65625 L 25.28125 17.8125 L 25.9375 17.1875 L 26 16.84375 L 26 16.34375 L 25.59375 15.53125 Z M 22.96875 16.71875 C 22.835938 16.746094 22.707031 16.796875 22.59375 16.875 C 22.59375 16.875 17.265625 19.191406 11.625 16.84375 C 11.4375 16.761719 11.230469 16.742188 11.03125 16.78125 C 10.597656 16.867188 10.273438 17.226563 10.230469 17.664063 C 10.1875 18.105469 10.433594 18.519531 10.84375 18.6875 C 17.332031 21.386719 23.40625 18.6875 23.40625 18.6875 C 23.894531 18.5625 24.214844 18.09375 24.148438 17.59375 C 24.085938 17.09375 23.660156 16.71875 23.15625 16.71875 C 23.09375 16.710938 23.03125 16.710938 22.96875 16.71875 Z M 26.8125 16.78125 C 26.390625 16.855469 26.0625 17.191406 25.996094 17.617188 C 25.933594 18.042969 26.148438 18.460938 26.53125 18.65625 C 26.53125 18.65625 27.757813 19.296875 29.875 19.59375 C 31.992188 19.890625 35.097656 19.90625 39.0625 18.75 C 39.597656 18.59375 39.90625 18.035156 39.75 17.5 C 39.59375 16.964844 39.035156 16.65625 38.5 16.8125 C 34.796875 17.890625 32.003906 17.886719 30.15625 17.625 C 28.308594 17.363281 27.46875 16.90625 27.46875 16.90625 C 27.269531 16.789063 27.039063 16.746094 26.8125 16.78125 Z M 24.71875 17.875 L 24.0625 18.5 L 24 18.84375 L 24 19.34375 L 24.40625 20.15625 L 25.28125 20.3125 L 25.9375 19.6875 L 26 19.34375 L 26 18.84375 L 25.59375 18.03125 Z M 24.71875 20.375 L 24.0625 21 L 24 21.34375 L 24 21.84375 L 24.40625 22.65625 L 25.28125 22.8125 L 25.9375 22.1875 L 26 21.84375 L 26 21.34375 L 25.59375 20.53125 Z M 15.0625 21.75 C 14.601563 21.804688 14.238281 22.167969 14.183594 22.632813 C 14.132813 23.09375 14.40625 23.53125 14.84375 23.6875 C 17.691406 24.863281 19.867188 24.917969 21.34375 24.59375 C 22.820313 24.269531 23.6875 23.5 23.6875 23.5 C 24.003906 23.222656 24.109375 22.777344 23.957031 22.382813 C 23.804688 21.992188 23.421875 21.738281 23 21.75 C 22.742188 21.753906 22.496094 21.851563 22.3125 22.03125 C 22.3125 22.03125 21.964844 22.390625 20.90625 22.625 C 19.847656 22.859375 18.160156 22.890625 15.625 21.84375 C 15.507813 21.789063 15.378906 21.757813 15.25 21.75 C 15.1875 21.742188 15.125 21.742188 15.0625 21.75 Z M 26.875 21.75 C 26.832031 21.757813 26.789063 21.769531 26.75 21.78125 C 26.386719 21.867188 26.101563 22.148438 26.011719 22.507813 C 25.917969 22.871094 26.035156 23.25 26.3125 23.5 C 26.3125 23.5 27.179688 24.269531 28.65625 24.59375 C 30.132813 24.917969 32.308594 24.863281 35.15625 23.6875 C 35.664063 23.472656 35.902344 22.882813 35.6875 22.375 C 35.472656 21.867188 34.882813 21.628906 34.375 21.84375 C 31.839844 22.890625 30.152344 22.859375 29.09375 22.625 C 28.035156 22.390625 27.6875 22.03125 27.6875 22.03125 C 27.472656 21.820313 27.175781 21.714844 26.875 21.75 Z M 24.71875 22.875 L 24.0625 23.5 L 24 23.84375 L 24 24.34375 L 24.40625 25.15625 L 25.28125 25.3125 L 25.9375 24.6875 L 26 24.34375 L 26 23.84375 L 25.59375 23.03125 Z M 24.71875 25.375 L 24.0625 26 L 24 26.34375 L 24 26.84375 L 24.40625 27.65625 L 25.28125 27.8125 L 25.9375 27.1875 L 26 26.84375 L 26 26.34375 L 25.59375 25.53125 Z M 24.71875 27.875 L 24.0625 28.5 L 24 28.84375 L 24 29.34375 L 24.25 29.84375 C 22.988281 29.597656 21.191406 29.160156 20.3125 28.90625 C 19.300781 28.617188 18.375 28 17.0625 28 C 15.640625 28 14.433594 28.648438 13.65625 29.65625 C 12.878906 30.664063 12.5 31.988281 12.5 33.375 C 12.5 34.789063 13.015625 36.042969 14.03125 36.84375 C 15.046875 37.644531 16.390625 38.054688 18.125 38.375 C 19.730469 38.671875 20.195313 39.15625 20.8125 40.71875 C 21.492188 42.449219 22.96875 43.828125 24.71875 43.96875 C 24.8125 43.976563 24.902344 44 25 44 C 25.03125 44 25.0625 44 25.09375 44 C 25.105469 44 25.113281 44 25.125 44 C 25.179688 44 25.226563 43.972656 25.28125 43.96875 C 27.03125 43.828125 28.507813 42.449219 29.1875 40.71875 C 29.804688 39.15625 30.269531 38.671875 31.875 38.375 C 33.609375 38.054688 34.953125 37.644531 35.96875 36.84375 C 36.984375 36.042969 37.5 34.789063 37.5 33.375 C 37.5 31.988281 37.121094 30.664063 36.34375 29.65625 C 35.566406 28.648438 34.359375 28 32.9375 28 C 31.625 28 30.699219 28.617188 29.6875 28.90625 C 28.816406 29.15625 27.039063 29.597656 25.78125 29.84375 L 25.9375 29.6875 L 26 29.34375 L 26 28.84375 L 25.59375 28.03125 Z M 17.0625 30 C 17.585938 30 18.480469 30.472656 19.78125 30.84375 C 20.941406 31.175781 23.261719 31.761719 24.6875 31.96875 C 24.746094 31.976563 24.820313 31.992188 24.875 32 C 24.9375 32.003906 25 32.003906 25.0625 32 C 25.074219 32 25.082031 32 25.09375 32 C 25.105469 32 25.113281 32 25.125 32 C 25.171875 31.996094 25.234375 31.976563 25.28125 31.96875 C 25.3125 31.960938 25.34375 31.949219 25.375 31.9375 C 26.804688 31.722656 29.074219 31.171875 30.21875 30.84375 C 31.523438 30.472656 32.414063 30 32.9375 30 C 33.785156 30 34.339844 30.332031 34.78125 30.90625 C 35.222656 31.480469 35.5 32.347656 35.5 33.375 C 35.5 34.378906 35.28125 34.808594 34.71875 35.25 C 34.15625 35.691406 33.101563 36.109375 31.5 36.40625 C 29.394531 36.796875 28.058594 38.078125 27.3125 39.96875 C 26.890625 41.039063 25.667969 41.945313 25.0625 42 C 25.042969 42 25.019531 42 25 42 C 24.972656 42 24.9375 42.003906 24.90625 42 C 24.289063 41.917969 23.101563 41.019531 22.6875 39.96875 C 21.941406 38.078125 20.605469 36.796875 18.5 36.40625 C 16.898438 36.109375 15.84375 35.691406 15.28125 35.25 C 14.71875 34.808594 14.5 34.378906 14.5 33.375 C 14.5 32.347656 14.777344 31.480469 15.21875 30.90625 C 15.660156 30.332031 16.214844 30 17.0625 30 Z M 18.15625 31.53125 C 17.558594 31.511719 16.972656 31.785156 16.65625 32.3125 C 16.148438 33.160156 16.480469 34.328125 17.375 34.9375 C 18.269531 35.542969 19.398438 35.375 19.90625 34.53125 C 20.414063 33.6875 20.117188 32.484375 19.21875 31.875 C 18.882813 31.648438 18.515625 31.542969 18.15625 31.53125 Z M 31.84375 31.53125 C 31.484375 31.542969 31.117188 31.679688 30.78125 31.90625 C 29.882813 32.515625 29.585938 33.683594 30.09375 34.53125 C 30.601563 35.375 31.730469 35.542969 32.625 34.9375 C 33.519531 34.328125 33.851563 33.160156 33.34375 32.3125 C 33.027344 31.785156 32.441406 31.511719 31.84375 31.53125 Z "
                  fill="#999999"/>
        </g>
    </symbol>



</svg>
