<!-- Created By Leonid Bartenev -->

<svg xmlns="http://www.w3.org/2000/svg" xmlns:xlink="http://www.w3.org/1999/xlink" display="none">
    <symbol id="icon-blood-test" viewBox="0 0 50 50" fill="#999999">
        <path style="line-height:normal;text-indent:0;text-align:start;text-decoration-line:none;text-decoration-style:solid;text-decoration-color:#000;text-transform:none;block-progression:tb;isolation:auto;mix-blend-mode:normal"
              d="M 27.416016 2.0097656 C 27.250611 2.0208363 27.087615 2.0480981 26.927734 2.0898438
              C 26.288211 2.256826 25.712977 2.6637207 25.355469 3.2714844
              C 24.640216 4.4874145 25.062633 6.0836028 26.283203 6.7910156
              L 26.291016 6.796875 L 8.9550781 37.470703
              C 8.9543205 37.472003 8.953875 37.473309 8.953125 37.474609
              C 7.0127771 40.802797 8.1444296 45.102173 11.470703 47.044922
              C 14.798389 48.987332 19.101326 47.858184 21.044922 44.529297
              L 21.048828 44.523438 L 38.416016 13.785156 C 39.587438 14.275968 40.987542 13.848717 41.646484 12.728516
              C 42.361737 11.512585 41.937367 9.9163972 40.716797 9.2089844 L 28.880859 2.3496094
              C 28.42315 2.0846835 27.912231 1.9765535 27.416016 2.0097656 z M 27.654297 4.0019531
              C 27.730048 4.012492 27.806546 4.0381954 27.878906 4.0800781 L 39.714844 10.939453
              C 40.002273 11.10604 40.086622 11.434774 39.921875 11.714844
              C 39.757269 11.994674 39.412082 12.085882 39.123047 11.919922 L 32.503906 8.0839844 L 31.5 9.8144531
              L 36.669922 12.810547 L 19.314453 43.525391 C 17.914736 45.916633 14.871171 46.713028 12.478516 45.316406
              L 12.478516 45.318359 C 10.084086 43.919865 9.283142 40.873789 10.681641 38.478516 L 10.685547 38.472656
              L 28.021484 7.7988281 L 29.501953 8.65625 L 30.505859 6.9257812 L 27.287109 5.0605469
              C 26.99968 4.8939597 26.913378 4.5652262 27.078125 4.2851562
              C 27.201863 4.0748017 27.427043 3.9703365 27.654297 4.0019531 z"
              font-weight="400" font-family="sans-serif" white-space="normal" overflow="visible" fill="#999999"/>
    </symbol>

    <symbol id="icon-brief-ph-ex" viewBox="0 0 50 50" fill="#999999">
        <path style="line-height:normal;text-indent:0;text-align:start;text-decoration-line:none;text-decoration-style:solid;text-decoration-color:#000;text-transform:none;block-progression:tb;isolation:auto;mix-blend-mode:normal"
              d="M 38 3 C 35.250421 3 33 5.2504209 33 8 C 33 10.749579 35.250421 13 38 13
              C 40.749579 13 43 10.749579 43 8 C 43 5.2504209 40.749579 3 38 3 z M 8 5 A 2 2 0 0 0 6.2695312 6
              L 3 6 A 1.0001 1.0001 0 0 0 2 7 L 2 15 C 2 21.278497 6.8526955 26.438848 13.001953 26.949219
              A 1.0001 1.0001 0 0 0 13 27 C 13 29.492799 13.119187 32.938847 14.927734 35.865234
              C 16.736282 38.791621 20.290171 41 26.443359 41 C 29.194236 41 31.388226 40.409719 33.115234 39.486328
              A 1.0001 1.0001 0 0 0 33.503906 39.251953 C 35.091442 38.315552 36.267678 37.099139 37.072266 35.804688
              C 38.780979 33.055644 39 30.120311 39 28.857422 L 39 26.855469 C 40.7157 26.405545 42 24.850107 42 23
              C 42 20.802937 40.197063 19 38 19 C 35.802264 19 34 20.80334 34 23
              C 34 24.849768 35.284049 26.405463 37 26.855469 L 37 28.857422
              C 37 29.858533 36.775584 32.493544 35.373047 34.75
              C 34.941139 35.444869 34.389796 36.104754 33.710938 36.699219 L 33.449219 31.703125 L 30 30.322266
              L 30 24 C 30 19.569334 33.569334 16 38 16 C 42.430666 16 46 19.569334 46 24 L 46 30.322266
              L 42.550781 31.703125 L 41.851562 45 L 34.152344 45 L 33.949219 41.320312
              C 33.349219 41.650312 32.7 41.929922 32 42.169922 L 32.101562 44.103516
              A 1.0004143 1.0004143 0 0 0 32.101562 44.177734 L 32.251953 47 L 43.748047 47 L 44.480469 33.083984
              L 48 31.677734 L 48 24 C 48 18.488666 43.511334 14 38 14 C 32.488666 14 28 18.488666 28 24 L 28 31.677734
              L 31.519531 33.083984 L 31.775391 37.951172 C 30.414635 38.589991 28.69687 39 26.443359 39
              C 20.745548 39 18.079609 37.161816 16.628906 34.814453 C 15.178204 32.46709 15 29.412201 15 27
              A 1.0001 1.0001 0 0 0 14.998047 26.949219 C 21.147304 26.438848 26 21.278497 26 15 L 26 7
              A 1.0001 1.0001 0 0 0 25 6 L 21.728516 6 A 2 2 0 0 0 20 5 A 2 2 0 0 0 18 7 A 2 2 0 0 0 20 9
              A 2 2 0 0 0 21.730469 8 L 24 8 L 24 15 C 24 20.534534 19.534534 25 14 25 C 8.4654664 25 4 20.534534 4 15
              L 4 8 L 6.2714844 8 A 2 2 0 0 0 8 9 A 2 2 0 0 0 10 7 A 2 2 0 0 0 8 5 z M 38 5
              C 39.668699 5 41 6.3313011 41 8 C 41 9.6686989 39.668699 11 38 11 C 36.331301 11 35 9.6686989 35 8
              C 35 6.3313011 36.331301 5 38 5 z M 38 21 C 39.114937 21 40 21.885063 40 23
              C 40 24.084092 39.16108 24.943105 38.089844 24.990234 A 1.0001 1.0001 0 0 0 37.984375 24.986328
              A 1.0001 1.0001 0 0 0 37.908203 24.990234 C 36.836762 24.942153 36 24.08382 36 23
              C 36 21.88466 36.883736 21 38 21 z"
              font-weight="400" font-family="sans-serif" white-space="normal" overflow="visible" fill="#999999"/>
    </symbol>

    <symbol id="icon-ecg" viewBox="0 0 50 50" version="1.1" fill="#999999">
        <g id="surface1" fill="#999999">
            <path style=" "
                  d="M 21.488281 12 C 21.019531 12.003906 20.617188 12.335938 20.519531 12.796875 L 17.71875 26.40625
                  L 15.9375 21.648438 C 15.796875 21.277344 15.449219 21.023438 15.050781 21.003906
                  C 14.65625 20.980469 14.285156 21.199219 14.105469 21.550781 L 12.382813 25 L 9 25
                  C 8.914063 25 8.828125 25.011719 8.746094 25.03125 C 8.394531 24.394531 7.726563 24 7 24
                  C 5.894531 24 5 24.894531 5 26 C 5 27.105469 5.894531 28 7 28
                  C 7.726563 28 8.394531 27.605469 8.75 26.96875 C 8.832031 26.992188 8.914063 27 9 27 L 13 27
                  C 13.378906 27 13.726563 26.785156 13.894531 26.449219 L 14.871094 24.5 L 17.0625 30.351563
                  C 17.222656 30.765625 17.636719 31.027344 18.078125 30.992188
                  C 18.519531 30.960938 18.886719 30.636719 18.980469 30.203125 L 21.4375 18.253906 L 24.515625 35.179688
                  C 24.59375 35.621094 24.960938 35.957031 25.40625 35.996094
                  C 25.851563 36.039063 26.273438 35.777344 26.433594 35.359375 L 30.488281 24.816406 L 32.5625 30.351563
                  C 32.699219 30.707031 33.023438 30.957031 33.402344 30.992188
                  C 33.777344 31.03125 34.144531 30.851563 34.347656 30.53125 L 36.554688 27 L 41.269531 27
                  C 41.628906 27.617188 42.285156 28 43 28 C 44.105469 28 45 27.105469 45 26
                  C 45 24.894531 44.105469 24 43 24 C 42.285156 24 41.625 24.382813 41.269531 25 L 36 25
                  C 35.65625 25 35.335938 25.179688 35.152344 25.46875 L 33.722656 27.753906 L 31.4375 21.648438
                  C 31.289063 21.261719 30.917969 21.003906 30.503906 21
                  C 30.089844 21 29.714844 21.253906 29.566406 21.640625 L 25.84375 31.3125 L 22.484375 12.820313
                  C 22.398438 12.339844 21.976563 11.996094 21.488281 12 Z " fill="#999999"/>
        </g>
    </symbol>
    <symbol id="icon-x-rays" viewBox="0 0 50 50" version="1.1" fill="#999999">
        <g id="surface1" fill="#999999">
            <path style=" " d="M 8 2 C 5.800781 2 4 3.800781 4 6 L 4 44 C 4 46.195313 5.800781 48 8 48 L 42 48
                C 44.199219 48 46 46.195313 46 44 L 46 6 C 46 3.800781 44.199219 2 42 2 Z M 8 4 L 42 4
                C 43.117188 4 44 4.882813 44 6 L 44 44 C 44 45.117188 43.117188 46 42 46 L 8 46
                C 6.882813 46 6 45.117188 6 44 L 6 6 C 6 4.882813 6.882813 4 8 4 Z M 24.71875 5.375 L 24.0625 6
                L 24 6.34375 L 24 6.84375 L 24.40625 7.65625 L 25.28125 7.8125 L 25.9375 7.1875 L 26 6.84375
                L 26 6.34375 L 25.59375 5.53125 Z M 24.71875 7.875 L 24.0625 8.5 L 24 8.84375 L 24 9.1875
                C 23.777344 8.808594 23.335938 8.617188 22.90625 8.71875 C 22.757813 8.75 22.621094 8.8125 22.5 8.90625
                C 22.5 8.90625 22.136719 9.136719 21.15625 9.28125
                C 20.175781 9.425781 18.664063 9.441406 16.53125 8.8125
                C 16.371094 8.761719 16.199219 8.75 16.03125 8.78125
                C 15.582031 8.871094 15.25 9.253906 15.230469 9.714844
                C 15.207031 10.171875 15.5 10.585938 15.9375 10.71875
                C 18.328125 11.425781 20.199219 11.4375 21.46875 11.25 C 22.738281 11.0625 23.5 10.625 23.5 10.625
                C 23.894531 10.480469 24.15625 10.105469 24.15625 9.6875 L 24.40625 10.15625 L 25.28125 10.3125
                L 25.9375 9.6875 L 26 9.34375 L 26 8.84375 L 25.59375 8.03125 Z M 33.71875 8.75
                C 33.632813 8.761719 33.550781 8.78125 33.46875 8.8125
                C 31.335938 9.441406 29.824219 9.425781 28.84375 9.28125 C 27.863281 9.136719 27.5 8.90625 27.5 8.90625
                C 27.300781 8.789063 27.070313 8.746094 26.84375 8.78125
                C 26.429688 8.851563 26.105469 9.171875 26.03125 9.582031
                C 25.953125 9.996094 26.140625 10.410156 26.5 10.625 C 26.5 10.625 27.261719 11.0625 28.53125 11.25
                C 29.800781 11.4375 31.671875 11.425781 34.0625 10.71875
                C 34.585938 10.605469 34.929688 10.097656 34.835938 9.570313
                C 34.742188 9.039063 34.25 8.679688 33.71875 8.75 Z M 24.71875 10.375 L 24.0625 11 L 24 11.34375
                L 24 11.84375 L 24.40625 12.65625 L 25.28125 12.8125 L 25.9375 12.1875 L 26 11.84375 L 26 11.34375
                L 25.59375 10.53125 Z M 14.15625 12.75 C 14.113281 12.757813 14.070313 12.769531 14.03125 12.78125
                C 13.582031 12.871094 13.25 13.253906 13.230469 13.714844
                C 13.207031 14.171875 13.5 14.585938 13.9375 14.71875
                C 18.800781 16.152344 23.3125 14.71875 23.3125 14.71875
                C 23.679688 14.601563 23.945313 14.285156 24 13.90625 L 24 14.34375 L 24.40625 15.15625
                L 25.28125 15.3125 L 25.9375 14.6875 L 26 14.34375 L 26 13.96875
                C 26.074219 14.324219 26.339844 14.613281 26.6875 14.71875
                C 26.6875 14.71875 31.199219 16.152344 36.0625 14.71875
                C 36.421875 14.628906 36.707031 14.347656 36.792969 13.988281
                C 36.882813 13.625 36.765625 13.246094 36.488281 13
                C 36.207031 12.753906 35.816406 12.679688 35.46875 12.8125
                C 31.28125 14.050781 27.3125 12.8125 27.3125 12.8125
                C 27.222656 12.777344 27.128906 12.757813 27.03125 12.75
                C 26.957031 12.753906 26.882813 12.761719 26.8125 12.78125
                C 26.308594 12.875 25.960938 13.332031 26 13.84375 L 25.59375 13.03125 L 24.71875 12.875 L 24.0625 13.5
                L 24 13.71875 C 23.984375 13.40625 23.824219 13.117188 23.566406 12.941406
                C 23.3125 12.761719 22.984375 12.714844 22.6875 12.8125
                C 22.6875 12.8125 18.71875 14.050781 14.53125 12.8125
                C 14.441406 12.777344 14.347656 12.757813 14.25 12.75 C 14.21875 12.75 14.1875 12.75 14.15625 12.75 Z
                M 24.71875 15.375 L 24.0625 16 L 24 16.34375 L 24 16.84375 L 24.40625 17.65625 L 25.28125 17.8125
                L 25.9375 17.1875 L 26 16.84375 L 26 16.34375 L 25.59375 15.53125 Z M 22.96875 16.71875
                C 22.835938 16.746094 22.707031 16.796875 22.59375 16.875
                C 22.59375 16.875 17.265625 19.191406 11.625 16.84375
                C 11.4375 16.761719 11.230469 16.742188 11.03125 16.78125
                C 10.597656 16.867188 10.273438 17.226563 10.230469 17.664063
                C 10.1875 18.105469 10.433594 18.519531 10.84375 18.6875
                C 17.332031 21.386719 23.40625 18.6875 23.40625 18.6875
                C 23.894531 18.5625 24.214844 18.09375 24.148438 17.59375
                C 24.085938 17.09375 23.660156 16.71875 23.15625 16.71875
                C 23.09375 16.710938 23.03125 16.710938 22.96875 16.71875 Z M 26.8125 16.78125
                C 26.390625 16.855469 26.0625 17.191406 25.996094 17.617188
                C 25.933594 18.042969 26.148438 18.460938 26.53125 18.65625
                C 26.53125 18.65625 27.757813 19.296875 29.875 19.59375
                C 31.992188 19.890625 35.097656 19.90625 39.0625 18.75
                C 39.597656 18.59375 39.90625 18.035156 39.75 17.5 C 39.59375 16.964844 39.035156 16.65625 38.5 16.8125
                C 34.796875 17.890625 32.003906 17.886719 30.15625 17.625
                C 28.308594 17.363281 27.46875 16.90625 27.46875 16.90625
                C 27.269531 16.789063 27.039063 16.746094 26.8125 16.78125 Z M 24.71875 17.875 L 24.0625 18.5
                L 24 18.84375 L 24 19.34375 L 24.40625 20.15625 L 25.28125 20.3125 L 25.9375 19.6875 L 26 19.34375
                L 26 18.84375 L 25.59375 18.03125 Z M 24.71875 20.375 L 24.0625 21 L 24 21.34375 L 24 21.84375
                L 24.40625 22.65625 L 25.28125 22.8125 L 25.9375 22.1875 L 26 21.84375 L 26 21.34375 L 25.59375 20.53125
                Z M 15.0625 21.75 C 14.601563 21.804688 14.238281 22.167969 14.183594 22.632813
                C 14.132813 23.09375 14.40625 23.53125 14.84375 23.6875
                C 17.691406 24.863281 19.867188 24.917969 21.34375 24.59375
                C 22.820313 24.269531 23.6875 23.5 23.6875 23.5
                C 24.003906 23.222656 24.109375 22.777344 23.957031 22.382813
                C 23.804688 21.992188 23.421875 21.738281 23 21.75
                C 22.742188 21.753906 22.496094 21.851563 22.3125 22.03125
                C 22.3125 22.03125 21.964844 22.390625 20.90625 22.625
                C 19.847656 22.859375 18.160156 22.890625 15.625 21.84375
                C 15.507813 21.789063 15.378906 21.757813 15.25 21.75 C 15.1875 21.742188 15.125 21.742188 15.0625 21.75
                Z M 26.875 21.75 C 26.832031 21.757813 26.789063 21.769531 26.75 21.78125
                C 26.386719 21.867188 26.101563 22.148438 26.011719 22.507813
                C 25.917969 22.871094 26.035156 23.25 26.3125 23.5 C 26.3125 23.5 27.179688 24.269531 28.65625 24.59375
                C 30.132813 24.917969 32.308594 24.863281 35.15625 23.6875
                C 35.664063 23.472656 35.902344 22.882813 35.6875 22.375
                C 35.472656 21.867188 34.882813 21.628906 34.375 21.84375
                C 31.839844 22.890625 30.152344 22.859375 29.09375 22.625
                C 28.035156 22.390625 27.6875 22.03125 27.6875 22.03125
                C 27.472656 21.820313 27.175781 21.714844 26.875 21.75 Z M 24.71875 22.875 L 24.0625 23.5 L 24 23.84375
                L 24 24.34375 L 24.40625 25.15625 L 25.28125 25.3125 L 25.9375 24.6875 L 26 24.34375 L 26 23.84375
                L 25.59375 23.03125 Z M 24.71875 25.375 L 24.0625 26 L 24 26.34375 L 24 26.84375 L 24.40625 27.65625
                L 25.28125 27.8125 L 25.9375 27.1875 L 26 26.84375 L 26 26.34375 L 25.59375 25.53125 Z M 24.71875 27.875
                L 24.0625 28.5 L 24 28.84375 L 24 29.34375 L 24.25 29.84375
                C 22.988281 29.597656 21.191406 29.160156 20.3125 28.90625 C 19.300781 28.617188 18.375 28 17.0625 28
                C 15.640625 28 14.433594 28.648438 13.65625 29.65625 C 12.878906 30.664063 12.5 31.988281 12.5 33.375
                C 12.5 34.789063 13.015625 36.042969 14.03125 36.84375
                C 15.046875 37.644531 16.390625 38.054688 18.125 38.375
                C 19.730469 38.671875 20.195313 39.15625 20.8125 40.71875
                C 21.492188 42.449219 22.96875 43.828125 24.71875 43.96875 C 24.8125 43.976563 24.902344 44 25 44
                C 25.03125 44 25.0625 44 25.09375 44 C 25.105469 44 25.113281 44 25.125 44
                C 25.179688 44 25.226563 43.972656 25.28125 43.96875
                C 27.03125 43.828125 28.507813 42.449219 29.1875 40.71875
                C 29.804688 39.15625 30.269531 38.671875 31.875 38.375
                C 33.609375 38.054688 34.953125 37.644531 35.96875 36.84375
                C 36.984375 36.042969 37.5 34.789063 37.5 33.375 C 37.5 31.988281 37.121094 30.664063 36.34375 29.65625
                C 35.566406 28.648438 34.359375 28 32.9375 28 C 31.625 28 30.699219 28.617188 29.6875 28.90625
                C 28.816406 29.15625 27.039063 29.597656 25.78125 29.84375 L 25.9375 29.6875 L 26 29.34375 L 26 28.84375
                L 25.59375 28.03125 Z M 17.0625 30 C 17.585938 30 18.480469 30.472656 19.78125 30.84375
                C 20.941406 31.175781 23.261719 31.761719 24.6875 31.96875
                C 24.746094 31.976563 24.820313 31.992188 24.875 32 C 24.9375 32.003906 25 32.003906 25.0625 32
                C 25.074219 32 25.082031 32 25.09375 32 C 25.105469 32 25.113281 32 25.125 32
                C 25.171875 31.996094 25.234375 31.976563 25.28125 31.96875
                C 25.3125 31.960938 25.34375 31.949219 25.375 31.9375
                C 26.804688 31.722656 29.074219 31.171875 30.21875 30.84375 C 31.523438 30.472656 32.414063 30 32.9375 30
                C 33.785156 30 34.339844 30.332031 34.78125 30.90625 C 35.222656 31.480469 35.5 32.347656 35.5 33.375
                C 35.5 34.378906 35.28125 34.808594 34.71875 35.25 C 34.15625 35.691406 33.101563 36.109375 31.5 36.40625
                C 29.394531 36.796875 28.058594 38.078125 27.3125 39.96875
                C 26.890625 41.039063 25.667969 41.945313 25.0625 42 C 25.042969 42 25.019531 42 25 42
                C 24.972656 42 24.9375 42.003906 24.90625 42 C 24.289063 41.917969 23.101563 41.019531 22.6875 39.96875
                C 21.941406 38.078125 20.605469 36.796875 18.5 36.40625
                C 16.898438 36.109375 15.84375 35.691406 15.28125 35.25 C 14.71875 34.808594 14.5 34.378906 14.5 33.375
                C 14.5 32.347656 14.777344 31.480469 15.21875 30.90625 C 15.660156 30.332031 16.214844 30 17.0625 30 Z
                M 18.15625 31.53125 C 17.558594 31.511719 16.972656 31.785156 16.65625 32.3125
                C 16.148438 33.160156 16.480469 34.328125 17.375 34.9375
                C 18.269531 35.542969 19.398438 35.375 19.90625 34.53125
                C 20.414063 33.6875 20.117188 32.484375 19.21875 31.875
                C 18.882813 31.648438 18.515625 31.542969 18.15625 31.53125 Z M 31.84375 31.53125
                C 31.484375 31.542969 31.117188 31.679688 30.78125 31.90625
                C 29.882813 32.515625 29.585938 33.683594 30.09375 34.53125
                C 30.601563 35.375 31.730469 35.542969 32.625 34.9375
                C 33.519531 34.328125 33.851563 33.160156 33.34375 32.3125
                C 33.027344 31.785156 32.441406 31.511719 31.84375 31.53125 Z " fill="#999999"/>
        </g>
    </symbol>
    <symbol id="icon-lung-test" viewBox="0 0 50 50" version="1.1" fill="#999999">
        <g id="surface1" fill="#999999">
            <path style=" "
                  d="M 22.8125 0 C 22.335938 0.0898438 21.992188 0.511719 22 1 L 22 3.6875
                  C 21.941406 3.882813 21.941406 4.085938 22 4.28125 L 22 6.53125
                  C 21.867188 6.808594 21.867188 7.128906 22 7.40625 L 22 9.53125
                  C 21.867188 9.808594 21.867188 10.128906 22 10.40625 L 22 12.8125 C 22 12.84375 22 12.875 22 12.90625
                  L 22 13 C 22 13.011719 22 13.019531 22 13.03125 C 22 13.050781 22 13.074219 22 13.09375 L 22.15625 16.5
                  L 22.15625 16.53125 C 22.15625 18.261719 21.929688 19.667969 21.59375 20.84375
                  C 21.5625 19.523438 21.527344 17.980469 21.5 17.5 C 21.375 15.1875 20.667969 13.304688 19.46875 12.125
                  C 18.871094 11.535156 18.125 11.164063 17.3125 11.0625
                  C 17.109375 11.035156 16.894531 11.023438 16.6875 11.03125
                  C 16.0625 11.054688 15.429688 11.242188 14.84375 11.59375
                  C 13.871094 12.179688 12.667969 13.390625 11.15625 15.125
                  C 9.644531 16.859375 7.925781 19.105469 6.28125 21.59375 C 2.996094 26.566406 0 32.5 0 37.6875
                  C 0 39.175781 -0.0234375 40.417969 0.0625 41.5 C 0.148438 42.582031 0.347656 43.578125 0.96875 44.375
                  C 1.589844 45.171875 2.566406 45.636719 3.78125 45.84375
                  C 4.996094 46.050781 6.507813 46.035156 8.53125 45.90625 L 11.15625 45.75
                  C 17.128906 45.371094 21.953125 40.320313 21.96875 34.40625
                  C 21.96875 34.394531 21.96875 34.386719 21.96875 34.375 C 21.96875 34.339844 22 30.644531 22 27.90625
                  C 23.054688 27.335938 24.144531 26.5625 25 25.46875 C 25.855469 26.5625 26.945313 27.335938 28 27.90625
                  C 28 30.644531 28.03125 34.339844 28.03125 34.375 C 28.03125 34.386719 28.03125 34.394531 28.03125 34.40625
                  C 28.046875 40.320313 32.871094 45.371094 38.84375 45.75 L 41.46875 45.90625
                  C 43.492188 46.035156 45.003906 46.050781 46.21875 45.84375
                  C 47.433594 45.636719 48.410156 45.171875 49.03125 44.375
                  C 49.652344 43.578125 49.851563 42.582031 49.9375 41.5 C 50.023438 40.417969 50 39.175781 50 37.6875
                  C 50 32.5 47.003906 26.566406 43.71875 21.59375 C 42.074219 19.105469 40.355469 16.859375 38.84375 15.125
                  C 37.332031 13.390625 36.128906 12.179688 35.15625 11.59375 C 34.375 11.125 33.5 10.960938 32.6875 11.0625
                  C 31.875 11.164063 31.128906 11.535156 30.53125 12.125 C 29.335938 13.304688 28.625 15.1875 28.5 17.5
                  C 28.46875 18.058594 28.441406 19.8125 28.40625 21.375
                  C 28.0625 20.160156 27.84375 18.613281 27.84375 16.53125 L 27.84375 16.5 L 28 13.15625
                  C 28.003906 13.113281 28.003906 13.074219 28 13.03125 C 28.007813 12.96875 28.007813 12.90625 28 12.84375
                  L 28 10.1875 C 28.027344 10.054688 28.027344 9.914063 28 9.78125 L 28 7.1875
                  C 28.027344 7.054688 28.027344 6.914063 28 6.78125 L 28 4.1875
                  C 28.027344 4.054688 28.027344 3.914063 28 3.78125 L 28 1 C 28 0.449219 27.550781 0 27 0 L 23 0
                  C 22.96875 0 22.9375 0 22.90625 0 C 22.875 0 22.84375 0 22.8125 0 Z M 24 2 L 26 2 L 26 3 L 24 3 Z M 24 5
                  L 26 5 L 26 6 L 24 6 Z M 24 8 L 26 8 L 26 9 L 24 9 Z M 24 11 L 26 11 L 26 12 L 24 12 Z M 16.78125 12.96875
                  C 17.234375 12.929688 17.632813 13.140625 18.0625 13.5625 C 18.75 14.238281 19.394531 15.667969 19.5 17.625
                  C 19.542969 18.410156 19.632813 22.613281 19.6875 24.59375
                  C 18.800781 25.71875 17.886719 26.488281 17.1875 27.34375 L 15.5 26.3125 L 14.40625 23.875 L 15.125 20.40625
                  C 15.179688 20.160156 15.113281 19.902344 14.945313 19.710938
                  C 14.78125 19.519531 14.535156 19.417969 14.28125 19.4375 C 14.25 19.4375 14.21875 19.4375 14.1875 19.4375
                  C 13.863281 19.503906 13.613281 19.765625 13.5625 20.09375 L 12.78125 23.78125
                  C 12.738281 23.945313 12.75 24.121094 12.8125 24.28125 L 13.65625 26.15625 L 10.28125 26.5
                  C 10.183594 26.511719 10.085938 26.546875 10 26.59375 L 7 28.15625
                  C 6.699219 28.253906 6.480469 28.519531 6.449219 28.835938
                  C 6.414063 29.148438 6.570313 29.453125 6.847656 29.613281 C 7.121094 29.769531 7.464844 29.75 7.71875 29.5625
                  L 10.5625 28.09375 L 14.65625 27.6875 L 16.59375 28.84375 L 14.9375 31.34375 L 10.375 31.46875
                  C 10.234375 31.464844 10.09375 31.496094 9.96875 31.5625 L 6.09375 33.84375
                  C 5.800781 33.957031 5.597656 34.230469 5.578125 34.546875
                  C 5.5625 34.859375 5.730469 35.15625 6.007813 35.300781 C 6.289063 35.445313 6.628906 35.414063 6.875 35.21875
                  L 10.5625 33.0625 L 13.875 32.96875 L 12.09375 35.6875 L 9.4375 36.53125
                  C 9.234375 36.597656 9.0625 36.746094 8.96875 36.9375 L 7.25 40.40625
                  C 7.050781 40.804688 7.210938 41.285156 7.609375 41.484375 C 8.007813 41.683594 8.488281 41.523438 8.6875 41.125
                  L 10.25 37.96875 L 12.84375 37.09375 C 13.019531 37.042969 13.175781 36.933594 13.28125 36.78125
                  L 15.09375 34 L 15.1875 36.03125 L 14.40625 38.78125 C 14.285156 39.210938 14.539063 39.660156 14.96875 39.78125
                  C 15.398438 39.902344 15.847656 39.648438 15.96875 39.21875 L 16.78125 36.375
                  C 16.808594 36.285156 16.820313 36.1875 16.8125 36.09375 L 16.625 32.28125
                  C 16.621094 32.136719 16.578125 31.996094 16.5 31.875 L 18.21875 29.28125
                  C 18.40625 29.246094 19.101563 29.089844 20 28.78125 C 19.992188 31.300781 19.96875 34.375 19.96875 34.375
                  C 19.96875 39.207031 15.957031 43.4375 11.03125 43.75 L 8.40625 43.90625
                  C 6.453125 44.03125 5.023438 44.035156 4.09375 43.875 C 3.164063 43.714844 2.78125 43.445313 2.53125 43.125
                  C 2.28125 42.804688 2.101563 42.257813 2.03125 41.34375 C 1.960938 40.429688 2 39.203125 2 37.6875
                  C 2 33.300781 4.753906 27.503906 7.9375 22.6875 C 9.527344 20.28125 11.238281 18.097656 12.6875 16.4375
                  C 14.136719 14.777344 15.417969 13.589844 15.875 13.3125
                  C 16.222656 13.101563 16.507813 12.992188 16.78125 12.96875 Z M 32.9375 12.96875
                  C 33.28125 12.921875 33.660156 13.03125 34.125 13.3125 C 34.582031 13.589844 35.863281 14.777344 37.3125 16.4375
                  C 38.761719 18.097656 40.472656 20.28125 42.0625 22.6875 C 45.246094 27.503906 48 33.300781 48 37.6875
                  C 48 39.203125 48.039063 40.429688 47.96875 41.34375 C 47.898438 42.257813 47.71875 42.804688 47.46875 43.125
                  C 47.21875 43.445313 46.835938 43.714844 45.90625 43.875
                  C 44.976563 44.035156 43.546875 44.03125 41.59375 43.90625 L 38.96875 43.75
                  C 34.042969 43.4375 30.03125 39.207031 30.03125 34.375 C 30.03125 34.375 30.007813 31.300781 30 28.78125
                  C 30.769531 29.042969 31.285156 29.164063 31.5625 29.21875
                  C 31.65625 29.324219 31.773438 29.410156 31.90625 29.46875 L 33.5 31.875
                  C 33.421875 31.996094 33.378906 32.136719 33.375 32.28125 L 33.1875 36.09375
                  C 33.179688 36.1875 33.191406 36.285156 33.21875 36.375 L 34.03125 39.21875
                  C 34.152344 39.648438 34.601563 39.902344 35.03125 39.78125
                  C 35.460938 39.660156 35.714844 39.210938 35.59375 38.78125 L 34.8125 36.03125 L 34.90625 34
                  L 36.71875 36.78125 C 36.824219 36.933594 36.980469 37.042969 37.15625 37.09375 L 39.75 37.96875
                  L 41.3125 41.125 C 41.511719 41.523438 41.992188 41.683594 42.390625 41.484375
                  C 42.789063 41.285156 42.949219 40.804688 42.75 40.40625 L 41.03125 36.9375
                  C 40.9375 36.746094 40.765625 36.597656 40.5625 36.53125 L 37.90625 35.6875 L 36.03125 32.84375
                  L 38.84375 32.6875 L 42.5 34.40625 C 42.90625 34.597656 43.386719 34.421875 43.578125 34.015625
                  C 43.769531 33.609375 43.59375 33.128906 43.1875 32.9375 L 39.34375 31.1875
                  C 39.226563 31.125 39.097656 31.09375 38.96875 31.09375 L 35.03125 31.3125 L 33.40625 28.84375
                  L 35.03125 27.875 L 39.28125 27.78125 L 42.21875 29.5625
                  C 42.597656 29.796875 43.09375 29.675781 43.328125 29.296875
                  C 43.5625 28.917969 43.441406 28.421875 43.0625 28.1875 L 39.96875 26.3125
                  C 39.839844 26.230469 39.6875 26.1875 39.53125 26.1875 L 36.15625 26.25 L 37.09375 24.46875
                  C 37.175781 24.304688 37.195313 24.117188 37.15625 23.9375 L 36.4375 20.25
                  C 36.402344 20.039063 36.285156 19.847656 36.105469 19.722656
                  C 35.929688 19.601563 35.710938 19.554688 35.5 19.59375
                  C 35.285156 19.636719 35.097656 19.761719 34.980469 19.945313
                  C 34.863281 20.128906 34.824219 20.351563 34.875 20.5625 L 35.53125 24 L 34.1875 26.5 L 34.15625 26.5
                  C 34.132813 26.53125 34.113281 26.5625 34.09375 26.59375 L 32.6875 27.40625
                  C 31.917969 26.429688 31.074219 25.695313 30.3125 24.84375
                  C 30.308594 24.835938 30.316406 24.820313 30.3125 24.8125
                  C 30.367188 22.925781 30.457031 18.433594 30.5 17.625
                  C 30.605469 15.667969 31.25 14.238281 31.9375 13.5625 C 32.28125 13.222656 32.59375 13.015625 32.9375 12.96875
                  Z M 24.03125 14 L 25.96875 14 L 25.84375 16.46875 C 25.84375 16.480469 25.84375 16.488281 25.84375 16.5
                  L 25.84375 16.53125 C 25.84375 22.277344 27.605469 24.863281 29.28125 26.6875
                  C 27.914063 26.023438 26.472656 25.03125 25.71875 23.625
                  C 25.71875 23.613281 25.71875 23.605469 25.71875 23.59375
                  C 25.707031 23.582031 25.699219 23.574219 25.6875 23.5625
                  C 25.6875 23.550781 25.6875 23.542969 25.6875 23.53125
                  C 25.660156 23.496094 25.628906 23.464844 25.59375 23.4375
                  C 25.574219 23.414063 25.554688 23.394531 25.53125 23.375
                  C 25.464844 23.320313 25.390625 23.28125 25.3125 23.25
                  C 25.273438 23.226563 25.230469 23.203125 25.1875 23.1875
                  C 25.175781 23.1875 25.167969 23.1875 25.15625 23.1875
                  C 25.074219 23.175781 24.988281 23.175781 24.90625 23.1875 C 24.875 23.1875 24.84375 23.1875 24.8125 23.1875
                  C 24.660156 23.21875 24.515625 23.296875 24.40625 23.40625
                  C 24.40625 23.417969 24.40625 23.425781 24.40625 23.4375
                  C 24.386719 23.445313 24.363281 23.457031 24.34375 23.46875
                  C 24.34375 23.480469 24.34375 23.488281 24.34375 23.5 C 24.332031 23.511719 24.324219 23.519531 24.3125 23.53125
                  C 24.3125 23.542969 24.3125 23.550781 24.3125 23.5625 C 24.257813 23.628906 24.21875 23.703125 24.1875 23.78125
                  C 23.375 25.167969 21.898438 26.140625 20.53125 26.78125 C 20.917969 26.351563 21.296875 25.867188 21.6875 25.3125
                  C 23.011719 23.421875 24.15625 20.65625 24.15625 16.53125 L 24.15625 16.5
                  C 24.15625 16.488281 24.15625 16.480469 24.15625 16.46875 Z " fill="#999999"/>
        </g>
    </symbol>
    <symbol id="icon-joint" viewBox="0 0 50 50" version="1.1" fill="#999999">
        <g id="surface1" fill="#999999">
            <path style=" "
                  d="M 23.90625 0 C 23.71875 0.0351563 23.546875 0.121094 23.40625 0.25
                  C 20.835938 2.570313 17.585938 7.894531 16.625 12.0625
                  C 15.648438 13.179688 15.074219 14.425781 15.03125 15.71875
                  C 14.984375 17.101563 15.457031 18.441406 16.28125 19.84375
                  C 17.183594 21.371094 16.988281 23.480469 17.53125 26.03125
                  C 17.996094 28.179688 19.191406 30.191406 19.84375 31.9375
                  C 19.84375 31.949219 19.84375 31.957031 19.84375 31.96875
                  C 20.621094 34.042969 21.394531 36.246094 21.8125 38.125
                  C 22.230469 40.003906 22.199219 41.542969 21.90625 42.0625
                  C 21.429688 42.914063 21.011719 43.117188 20.34375 43.34375
                  C 19.675781 43.570313 18.71875 43.710938 17.59375 44.1875
                  C 15.574219 45.050781 14.316406 45.410156 13.65625 45.53125
                  C 12.628906 45.722656 12.167969 45.808594 11.65625 46.15625
                  C 11.398438 46.328125 11.113281 46.699219 11.0625 47
                  C 11.011719 47.300781 11.0625 47.414063 11.0625 47.40625
                  C 11.0625 48.902344 12.378906 49.96875 13.78125 49.96875
                  C 14.277344 49.96875 14.730469 49.792969 15.1875 49.625 C 15.855469 49.925781 16.554688 50 17.125 50
                  C 19.949219 50 21.332031 49.855469 22.28125 49.71875
                  C 23.230469 49.582031 23.59375 49.46875 24.5625 49.46875
                  C 24.796875 49.46875 25.492188 49.585938 26.3125 49.71875 C 27.132813 49.851563 28.125 50 29.21875 50
                  C 30.464844 50 31.488281 49.492188 32.09375 48.75
                  C 32.699219 48.007813 32.90625 47.140625 32.90625 46.34375
                  C 32.90625 44.917969 32.226563 43.941406 31.59375 42.6875
                  C 30.960938 41.433594 30.25 39.765625 29.8125 36.71875
                  C 28.898438 30.371094 30.746094 26.691406 30.21875 23.34375
                  C 29.855469 21.019531 28.984375 19.378906 28.25 18.25
                  C 27.882813 17.683594 27.535156 17.226563 27.34375 16.9375
                  C 27.296875 16.867188 27.300781 16.859375 27.28125 16.8125
                  C 27.339844 16.671875 27.492188 16.316406 27.875 15.90625
                  C 28.3125 15.4375 28.917969 14.925781 29.625 14.59375
                  C 30.746094 14.066406 33.464844 12.480469 36.3125 10.15625
                  C 39.160156 7.832031 42.109375 4.839844 43.34375 1.34375
                  C 43.535156 0.816406 43.261719 0.238281 42.734375 0.046875
                  C 42.207031 -0.144531 41.628906 0.128906 41.4375 0.65625
                  C 40.421875 3.53125 37.765625 6.421875 35.0625 8.625
                  C 32.359375 10.828125 29.609375 12.390625 28.78125 12.78125
                  C 27.808594 13.242188 27.003906 13.886719 26.40625 14.53125
                  C 25.808594 15.175781 25.375 15.78125 25.21875 16.5
                  C 25.050781 17.273438 25.433594 17.648438 25.6875 18.03125
                  C 25.941406 18.414063 26.238281 18.816406 26.5625 19.3125
                  C 27.210938 20.308594 27.9375 21.667969 28.25 23.65625
                  C 28.601563 25.886719 26.863281 30.1875 27.84375 37
                  C 28.3125 40.253906 29.128906 42.234375 29.8125 43.59375
                  C 30.496094 44.953125 30.90625 45.578125 30.90625 46.34375
                  C 30.90625 46.78125 30.761719 47.214844 30.53125 47.5 C 30.300781 47.785156 29.992188 48 29.21875 48
                  C 28.296875 48 27.40625 47.875 26.625 47.75 C 25.84375 47.625 25.195313 47.46875 24.5625 47.46875
                  C 23.429688 47.46875 22.859375 47.625 22 47.75 C 21.140625 47.875 19.886719 48 17.125 48
                  C 16.476563 48 16.125 47.976563 15.84375 47.78125
                  C 15.53125 47.558594 15.117188 47.535156 14.78125 47.71875
                  C 14.578125 47.835938 14.117188 47.96875 13.78125 47.96875
                  C 13.53125 47.96875 13.503906 47.78125 13.375 47.65625
                  C 13.582031 47.59375 13.53125 47.59375 14.03125 47.5
                  C 14.925781 47.335938 16.269531 46.933594 18.375 46.03125
                  C 19.214844 45.671875 20.0625 45.570313 21 45.25
                  C 21.9375 44.929688 22.960938 44.273438 23.65625 43.03125
                  C 24.476563 41.570313 24.207031 39.742188 23.75 37.6875
                  C 23.292969 35.632813 22.507813 33.359375 21.71875 31.25
                  C 20.980469 29.273438 19.867188 27.292969 19.5 25.625
                  C 19.496094 25.613281 19.503906 25.605469 19.5 25.59375
                  C 19.046875 23.433594 19.3125 21.066406 18 18.84375
                  C 17.289063 17.636719 17.003906 16.640625 17.03125 15.78125
                  C 17.058594 14.921875 17.382813 14.109375 18.25 13.1875
                  C 18.375 13.058594 18.460938 12.894531 18.5 12.71875
                  C 19.234375 9.242188 22.683594 3.585938 24.71875 1.75
                  C 25.0625 1.460938 25.171875 0.972656 24.980469 0.566406
                  C 24.789063 0.15625 24.351563 -0.0742188 23.90625 0 Z " fill="#999999"/>
        </g>
    </symbol>
    <symbol id="icon-lung-check" viewBox="0 0 50 50" version="1.1" fill="#999999">
        <g id="surface1" fill="#999999">
            <path style=" "
                  d="M 8 0 C 7.207031 0 6.511719 0.453125 6.1875 1.125 C 5.773438 1.214844 5.21875 1.355469 4.65625 1.5625
              C 4.09375 1.769531 3.515625 2.042969 3 2.46875 C 2.484375 2.894531 2 3.550781 2 4.375
              C 2 4.734375 2.058594 5.148438 2.15625 5.8125 C 2.253906 6.476563 2.394531 7.355469 2.59375 8.34375
              C 2.988281 10.320313 3.597656 12.835938 4.40625 15.4375 C 6 20.570313 8.277344 26.074219 12.03125 28.34375
              C 12.027344 28.425781 12 28.507813 12 28.59375 C 12 29.789063 12.355469 31.214844 12.96875 32.46875
              C 13.273438 33.09375 13.648438 33.652344 14.125 34.125 C 14.378906 34.378906 14.691406 34.621094 15.03125 34.78125
              C 15.066406 37.382813 15.316406 40.679688 17.15625 43.53125 C 19.175781 46.664063 23.117188 49 30 49
              C 36.265625 49 39.933594 46.410156 41.84375 43.46875 C 43.414063 41.050781 43.859375 38.53125 43.96875 36.9375
              C 47.367188 36.464844 50 33.527344 50 30 C 50 26.148438 46.851563 23 43 23 C 39.144531 23 36 26.148438 36 30
              C 36 33.492188 38.585938 36.390625 41.9375 36.90625 C 41.816406 38.269531 41.414063 40.433594 40.15625 42.375
              C 38.566406 44.824219 35.734375 47 30 47 C 23.550781 47 20.488281 44.984375 18.84375 42.4375
              C 17.347656 40.121094 17.074219 37.214844 17.03125 34.75 C 17.34375 34.589844 17.636719 34.359375 17.875 34.125
              C 18.347656 33.652344 18.726563 33.09375 19.03125 32.46875 C 19.644531 31.214844 20 29.789063 20 28.59375
              C 20 28.507813 19.972656 28.425781 19.96875 28.34375 C 23.722656 26.074219 26 20.570313 27.59375 15.4375
              C 28.402344 12.835938 29.011719 10.320313 29.40625 8.34375 C 29.605469 7.355469 29.746094 6.476563 29.84375 5.8125
              C 29.941406 5.148438 30 4.734375 30 4.375 C 30 3.550781 29.515625 2.894531 29 2.46875
              C 28.484375 2.042969 27.90625 1.769531 27.34375 1.5625 C 26.78125 1.355469 26.226563 1.214844 25.8125 1.125
              C 25.792969 1.121094 25.800781 1.128906 25.78125 1.125 C 25.457031 0.460938 24.789063 0 24 0
              C 22.894531 0 22 0.894531 22 2 C 22 3.105469 22.894531 4 24 4 C 24.675781 4 25.261719 3.667969 25.625 3.15625
              C 25.933594 3.226563 26.292969 3.304688 26.65625 3.4375 C 27.09375 3.597656 27.515625 3.804688 27.75 4
              C 27.984375 4.195313 28 4.273438 28 4.375 C 28 4.414063 27.96875 4.90625 27.875 5.53125
              C 27.78125 6.15625 27.628906 6.976563 27.4375 7.9375 C 27.054688 9.855469 26.46875 12.328125 25.6875 14.84375
              C 24.175781 19.710938 21.777344 24.71875 19.09375 26.5 C 18.863281 26.328125 18.617188 26.191406 18.375 26.125
              C 17.503906 25.882813 16.753906 26.03125 16 26.03125 C 15.246094 26.03125 14.496094 25.886719 13.625 26.125
              C 13.382813 26.191406 13.136719 26.328125 12.90625 26.5 C 10.222656 24.71875 7.824219 19.710938 6.3125 14.84375
              C 5.53125 12.328125 4.945313 9.855469 4.5625 7.9375 C 4.371094 6.976563 4.21875 6.15625 4.125 5.53125
              C 4.03125 4.90625 4 4.414063 4 4.375 C 4 4.273438 4.015625 4.195313 4.25 4
              C 4.484375 3.804688 4.90625 3.597656 5.34375 3.4375 C 5.707031 3.304688 6.066406 3.226563 6.375 3.15625
              C 6.738281 3.667969 7.324219 4 8 4 C 9.105469 4 10 3.105469 10 2 C 10 0.894531 9.105469 0 8 0 Z M 43 25
              C 45.769531 25 48 27.230469 48 30 C 48 32.738281 45.820313 34.949219 43.09375 35 C 43.0625 35 43.03125 35 43 35
              C 40.226563 35 38 32.769531 38 30 C 38 27.230469 40.226563 25 43 25 Z M 43 27 C 41.355469 27 40 28.355469 40 30
              C 40 31.644531 41.355469 33 43 33 C 44.644531 33 46 31.644531 46 30 C 46 28.355469 44.644531 27 43 27 Z
              M 14.8125 28.03125 C 15.132813 28.03125 15.550781 28.03125 16 28.03125
              C 16.902344 28.03125 17.628906 28.003906 17.84375 28.0625 C 17.953125 28.09375 17.929688 28.050781 17.9375 28.0625
              C 17.945313 28.074219 18 28.226563 18 28.59375 C 18 29.324219 17.691406 30.625 17.21875 31.59375
              C 16.980469 32.078125 16.710938 32.476563 16.46875 32.71875
              C 16.277344 32.910156 16.144531 32.949219 16.0625 32.96875 C 16.019531 32.964844 15.980469 32.964844 15.9375 32.96875
              C 15.855469 32.949219 15.722656 32.910156 15.53125 32.71875
              C 15.289063 32.476563 15.019531 32.078125 14.78125 31.59375 C 14.308594 30.625 14 29.324219 14 28.59375
              C 14 28.226563 14.054688 28.074219 14.0625 28.0625 C 14.070313 28.050781 14.046875 28.09375 14.15625 28.0625
              C 14.265625 28.03125 14.492188 28.03125 14.8125 28.03125 Z M 43 29 C 43.566406 29 44 29.433594 44 30
              C 44 30.566406 43.566406 31 43 31 C 42.433594 31 42 30.566406 42 30 C 42 29.433594 42.433594 29 43 29
              Z " fill="#999999"/>
        </g>
    </symbol>
    <symbol id="icon-pregnancy" viewBox="0 0 50 50" version="1.1" fill="#999999">
        <g id="surface1" fill="#999999">
            <path style=" "
                  d="M 25 0 C 21.699219 0 19 2.699219 19 6 C 19 9.300781 21.699219 12 25 12 C 28.300781 12 31 9.300781 31 6
                  C 31 2.699219 28.300781 0 25 0 Z M 25 2 C 27.222656 2 29 3.777344 29 6 C 29 8.222656 27.222656 10 25 10
                  C 22.777344 10 21 8.222656 21 6 C 21 3.777344 22.777344 2 25 2 Z M 21 13
                  C 19.46875 13 18.277344 13.675781 17.53125 14.46875 C 16.785156 15.261719 16.429688 16.144531 16.25 16.6875
                  C 16.25 16.6875 13.160156 26.136719 12.25 28.96875 C 12.246094 28.976563 12.253906 28.992188 12.25 29
                  C 11.921875 29.941406 12.015625 30.945313 12.5 31.71875 C 12.886719 32.339844 13.554688 32.75 14.3125 32.90625
                  C 14.144531 33.902344 14 34.96875 14 36 C 14 36.550781 14.449219 37 15 37 L 20 37 L 20 47
                  C 20 48.644531 21.355469 50 23 50 C 23.765625 50 24.46875 49.699219 25 49.21875
                  C 25.53125 49.699219 26.234375 50 27 50 C 28.644531 50 30 48.644531 30 47 L 30 37 L 35 37
                  C 35.550781 37 36 36.550781 36 36 C 36 34.96875 35.855469 33.902344 35.6875 32.90625
                  C 36.445313 32.75 37.113281 32.339844 37.5 31.71875 C 37.984375 30.945313 38.078125 29.941406 37.75 29
                  C 37.746094 28.992188 37.753906 28.976563 37.75 28.96875 C 36.839844 26.136719 33.75 16.6875 33.75 16.6875
                  C 33.570313 16.144531 33.214844 15.261719 32.46875 14.46875 C 31.722656 13.675781 30.53125 13 29 13 L 25.0625 13
                  C 25.042969 13 25.019531 13 25 13 Z M 21 15 L 25 15 C 25.03125 15 25.0625 15 25.09375 15 L 29 15
                  C 29.96875 15 30.542969 15.359375 31 15.84375 C 31.457031 16.328125 31.726563 16.957031 31.84375 17.3125
                  C 31.84375 17.3125 34.945313 26.804688 35.84375 29.59375 C 35.84375 29.605469 35.84375 29.613281 35.84375 29.625
                  C 36.003906 30.074219 35.949219 30.4375 35.8125 30.65625
                  C 35.707031 30.828125 35.554688 30.925781 35.3125 30.96875
                  C 34.980469 29.570313 34.65625 28.59375 34.65625 28.59375
                  C 34.527344 28.152344 34.113281 27.855469 33.65625 27.875
                  C 33.335938 27.886719 33.039063 28.050781 32.859375 28.316406
                  C 32.679688 28.582031 32.640625 28.917969 32.75 29.21875 C 32.75 29.21875 33.65625 32.265625 33.875 35
                  L 16.125 35 C 16.34375 32.265625 17.25 29.21875 17.25 29.21875
                  C 17.363281 28.914063 17.316406 28.570313 17.132813 28.304688
                  C 16.945313 28.035156 16.640625 27.875 16.3125 27.875 C 15.863281 27.871094 15.46875 28.164063 15.34375 28.59375
                  C 15.34375 28.59375 15.019531 29.570313 14.6875 30.96875
                  C 14.445313 30.925781 14.292969 30.828125 14.1875 30.65625
                  C 14.050781 30.4375 13.996094 30.074219 14.15625 29.625 C 14.15625 29.613281 14.15625 29.605469 14.15625 29.59375
                  C 15.054688 26.804688 18.15625 17.3125 18.15625 17.3125 C 18.273438 16.957031 18.542969 16.328125 19 15.84375
                  C 19.457031 15.359375 20.03125 15 21 15 Z M 25 19 C 21.144531 19 18 22.144531 18 26
                  C 18 29.855469 21.144531 33 25 33 C 28.855469 33 32 29.855469 32 26 C 32 22.144531 28.855469 19 25 19 Z M 25 21
                  C 27.773438 21 30 23.226563 30 26 C 30 28.773438 27.773438 31 25 31 C 22.226563 31 20 28.773438 20 26
                  C 20 23.226563 22.226563 21 25 21 Z M 23.5 23.59375 C 22.5 23.59375 21.6875 24.40625 21.6875 25.40625
                  C 21.6875 27.507813 24.101563 28.511719 25 29.3125 C 25.898438 28.613281 28.3125 27.507813 28.3125 25.40625
                  C 28.3125 24.40625 27.5 23.59375 26.5 23.59375 C 25.898438 23.59375 25.300781 23.90625 25 24.40625
                  C 24.699219 23.90625 24.101563 23.59375 23.5 23.59375 Z M 22 37 L 24 37 L 24 47 C 24 47.554688 23.554688 48 23 48
                  C 22.445313 48 22 47.554688 22 47 Z M 26 37 L 28 37 L 28 47 C 28 47.554688 27.554688 48 27 48
                  C 26.445313 48 26 47.554688 26 47 Z " fill="#999999"/>
        </g>
    </symbol>
    <symbol id="icon-questionnaires" viewBox="0 0 50 50" version="1.1" fill="#999999">
        <g id="surface1" fill="#999999">
            <path style=" "
                  d="M 19 1 C 18.476563 1 17.941406 1.183594 17.5625 1.5625 C 17.183594 1.941406 17 2.476563 17 3 L 9 3
                  C 7.355469 3 6 4.355469 6 6 L 6 44 C 6 45.644531 7.355469 47 9 47 L 41 47 C 42.644531 47 44 45.644531 44 44
                  L 44 6 C 44 4.355469 42.644531 3 41 3 L 33 3 C 33 2.476563 32.816406 1.941406 32.4375 1.5625
                  C 32.058594 1.183594 31.523438 1 31 1 Z M 19 3 L 31 3 L 31 9 L 19 9 Z M 9 5 L 17 5 L 17 7 L 10 7 L 10 43
                  L 40 43 L 40 7 L 33 7 L 33 5 L 41 5 C 41.554688 5 42 5.445313 42 6 L 42 44 C 42 44.554688 41.554688 45 41 45
                  L 9 45 C 8.445313 45 8 44.554688 8 44 L 8 6 C 8 5.445313 8.445313 5 9 5 Z M 12 9 L 17 9
                  C 17 9.523438 17.183594 10.058594 17.5625 10.4375 C 17.941406 10.816406 18.476563 11 19 11 L 31 11
                  C 31.523438 11 32.058594 10.816406 32.4375 10.4375 C 32.816406 10.058594 33 9.523438 33 9 L 38 9 L 38 41
                  L 12 41 Z M 16 19 L 16 21 L 34 21 L 34 19 Z M 16 25 L 16 27 L 34 27 L 34 25 Z M 16 31 L 16 33 L 34 33
                  L 34 31 Z " fill="#999999"/>
        </g>
    </symbol>
    <symbol id="icon-vital-signs" viewBox="0 0 50 50" fill="#999999">
        <path style="line-height:normal;text-indent:0;text-align:start;text-decoration-line:none;text-decoration-style:solid;text-decoration-color:#000;text-transform:none;block-progression:tb;isolation:auto;mix-blend-mode:normal"
              d="M 14.130859 4 C 6.3388594 4 0 10.367359 0 18.193359 C 0 19.519359 0.12751563 20.785 0.35351562 22 L 2.4003906 22
              C 2.1443906 20.787 2 19.521359 2 18.193359 C 2 11.470359 7.4408594 6 14.130859 6
              C 17.820859 6 20.949687 7.5625781 23.429688 10.642578 C 23.621688 10.882578 24.189453 11.613281 24.189453 11.613281
              C 24.568453 12.101281 25.390531 12.101281 25.769531 11.613281
              C 25.769531 11.612281 26.334297 10.885531 26.529297 10.644531 C 28.973297 7.6055313 32.203141 6 35.869141 6
              C 42.559141 6 48 11.470359 48 18.193359 C 48 29.792359 37.458719 36.881641 29.761719 42.056641
              C 27.955719 43.270641 26.322094 44.595219 24.996094 45.699219
              C 23.937094 44.829219 21.801328 43.106687 20.236328 42.054688 C 14.996328 38.530687 8.4401094 34.118 4.7871094 28
              L 2.46875 28 C 6.18775 35.011 13.400094 39.868797 19.121094 43.716797
              C 21.145094 45.076797 24.325422 47.738625 24.357422 47.765625
              C 24.529422 47.910625 24.750609 47.978516 24.974609 47.978516
              C 25.233609 47.978516 25.496266 47.887703 25.697266 47.720703
              C 27.030266 46.604703 28.856953 45.074797 30.876953 43.716797 C 38.947953 38.288797 50 30.857359 50 18.193359
              C 50 10.367359 43.661141 4 35.869141 4 C 31.580141 4 27.814516 5.8608594 24.978516 9.3808594
              C 22.143516 5.8608594 18.391859 4 14.130859 4 z M 17.490234 11 A 1.0001 1.0001 0 0 0 16.521484 11.798828
              L 13.720703 25.40625 L 11.935547 20.648438 A 1.0001 1.0001 0 0 0 10.105469 20.552734 L 8.3828125 24 L 2 24
              A 1.0001 1.0001 0 1 0 2 26 L 9 26 A 1.0001 1.0001 0 0 0 9.8945312 25.447266 L 10.869141 23.498047 L 13.064453 29.351562
              A 1.0001 1.0001 0 0 0 14.978516 29.201172 L 17.4375 17.253906 L 20.515625 34.179688
              A 1.0001 1.0001 0 0 0 22.433594 34.359375 L 26.488281 23.816406 L 28.564453 29.351562
              A 1.0001 1.0001 0 0 0 30.347656 29.529297 L 32.554688 26 L 37.271484 26 A 2 2 0 0 0 39 27 A 2 2 0 0 0 41 25
              A 2 2 0 0 0 39 23 A 2 2 0 0 0 37.269531 24 L 32 24 A 1.0001 1.0001 0 0 0 31.152344 24.470703 L 29.724609 26.753906
              L 27.435547 20.648438 A 1.0001 1.0001 0 0 0 25.566406 20.640625 L 21.845703 30.3125 L 18.484375 11.820312
              A 1.0001 1.0001 0 0 0 17.490234 11 z"
              font-weight="400" font-family="sans-serif" white-space="normal" overflow="visible" fill="#999999"/>
    </symbol>
    <symbol id="icon-treatment-period" viewBox="0 0 162 160">
                <path fill="none" stroke="#999999" stroke-width="6" d="M 34.00,25.00
           C 36.87,31.07 43.23,36.23 48.00,41.00
             54.16,47.16 66.70,60.49 73.00,65.00
             76.01,57.85 77.81,52.95 76.82,45.00
             76.29,40.73 74.22,36.50 71.78,33.00
             62.41,19.53 47.87,19.50 34.00,25.00 Z
           M 40.00,155.00
           C 48.99,148.98 55.67,141.01 66.00,137.33
             72.12,135.14 77.59,139.13 85.00,134.91
             88.66,132.83 95.69,125.31 99.00,122.00
             99.00,122.00 123.00,98.00 123.00,98.00
             124.91,96.09 128.72,92.00 131.00,90.92
             134.77,89.13 139.30,92.11 141.73,86.89
             144.98,79.94 132.79,75.32 134.20,70.00
             134.94,67.17 142.90,59.29 146.00,59.61
             148.12,59.82 150.51,62.50 153.00,63.16
             158.79,64.68 161.02,58.46 158.82,54.00
             157.25,50.80 147.07,40.83 144.00,38.11
             142.06,36.38 139.76,34.45 137.02,34.37
             135.30,34.32 133.83,34.98 132.74,36.31
             128.71,41.28 135.07,45.77 134.97,49.00
             134.89,51.72 128.30,58.17 126.00,59.54
             119.18,63.61 114.81,48.68 107.23,53.04
             102.93,55.50 105.09,60.47 104.42,62.58
             103.70,64.81 98.81,69.19 97.00,71.00
             97.00,71.00 74.00,94.00 74.00,94.00
             70.59,97.41 63.26,104.37 60.85,108.00
             55.41,116.23 59.92,121.92 57.47,128.00
             51.64,142.46 44.36,145.33 40.00,155.00 Z
           M 25.00,35.00
           C 15.31,52.52 23.52,73.67 44.00,77.53
             51.94,79.03 56.89,77.00 64.00,74.00
             60.83,67.30 45.97,53.97 40.00,48.00
             35.37,43.37 30.98,37.83 25.00,35.00 Z
           M 103.00,74.60
           C 111.36,73.11 114.22,79.61 109.57,86.00
             109.57,86.00 90.00,106.00 90.00,106.00
             87.20,108.80 82.61,113.91 79.00,115.26
             72.10,117.85 66.26,111.78 71.31,105.00
             71.31,105.00 88.00,88.00 88.00,88.00
             92.54,83.46 97.32,77.56 103.00,74.60 Z"></path>
    </symbol>
    <symbol id="icon-urine-tests" viewBox="0 0 50 50" version="1.1" fill="#999999">
        <g id="surface1" fill="#999999">
            <path style=" " d="M 6 4 C 4.355469 4 3 5.355469 3 7 L 3 13 C 3 14.644531 4.355469 16 6 16 L 6.125 16 L 10 45.125 C 10.0625 45.628906 10.492188 46.003906 11 46 L 39 46 C 39.507813 46.003906 39.9375 45.628906 40 45.125 L 43.875 16 L 44 16 C 45.644531 16 47 14.644531 47 13 L 47 7 C 47 5.355469 45.644531 4 44 4 L 25 4 L 25 6 L 44 6 C 44.554688 6 45 6.445313 45 7 L 45 13 C 45 13.554688 44.554688 14 44 14 L 25 14 L 25 16 L 41.84375 16 L 38.125 44 L 11.875 44 L 8.15625 16 L 14 16 L 14 34 C 14 35.644531 15.355469 37 17 37 L 33 37 C 34.644531 37 36 35.644531 36 34 L 36 24 C 36 22.355469 34.644531 21 33 21 L 24 21 L 24 4 Z M 6 6 L 14 6 L 14 14 L 6 14 C 5.445313 14 5 13.554688 5 13 L 5 7 C 5 6.445313 5.445313 6 6 6 Z M 16 6 L 22 6 L 22 23 L 33 23 C 33.554688 23 34 23.445313 34 24 L 34 34 C 34 34.554688 33.554688 35 33 35 L 17 35 C 16.445313 35 16 34.554688 16 34 Z M 19 26 L 19 28 L 31 28 L 31 26 Z M 19 30 L 19 32 L 31 32 L 31 30 Z " fill="#999999"/>
        </g>
    </symbol>

    <symbol id="icon-receive-study-medication-injection" viewBox="0 0 50 50" version="1.1" fill="#999999">
        <g id="surface1" fill="#999999">
            <path style=" " d="M 37.90625 -0.03125 C 37.863281 -0.0234375 37.820313 -0.0117188 37.78125 0 C 37.40625 0.0664063 37.105469 0.339844 37 0.703125 C 36.894531 1.070313 37.003906 1.460938 37.28125 1.71875 L 38.5625 3 L 31 10.5625 L 29.9375 9.53125 C 29.886719 9.4375 29.824219 9.355469 29.75 9.28125 L 29.59375 9.15625 C 29.5625 9.132813 29.53125 9.113281 29.5 9.09375 L 26.71875 6.28125 C 26.511719 6.058594 26.210938 5.945313 25.90625 5.96875 C 25.863281 5.976563 25.820313 5.988281 25.78125 6 C 25.40625 6.066406 25.105469 6.339844 25 6.703125 C 24.894531 7.070313 25.003906 7.460938 25.28125 7.71875 L 27.5625 10 L 6.28125 31.28125 C 6.03125 31.535156 5.933594 31.90625 6.03125 32.25 L 7.78125 39.21875 L 1 46 L 1 50 L 9.78125 41.21875 L 16.75 42.96875 C 17.09375 43.066406 17.464844 42.96875 17.71875 42.71875 L 39 21.4375 L 41.28125 23.71875 C 41.679688 24.117188 42.320313 24.117188 42.71875 23.71875 C 43.117188 23.320313 43.117188 22.679688 42.71875 22.28125 L 39.84375 19.40625 C 39.761719 19.292969 39.652344 19.195313 39.53125 19.125 L 38.4375 18 L 46 10.4375 L 47.28125 11.71875 C 47.679688 12.117188 48.320313 12.117188 48.71875 11.71875 C 49.117188 11.320313 49.117188 10.679688 48.71875 10.28125 L 38.71875 0.28125 C 38.511719 0.0585938 38.210938 -0.0546875 37.90625 -0.03125 Z M 40 4.4375 L 44.5625 9 L 37 16.5625 L 32.4375 12 Z M 29 11.4375 L 37.5625 20 L 16.6875 40.875 L 9.8125 39.1875 L 8.125 32.3125 L 9.5 30.9375 C 9.53125 30.960938 9.5625 30.980469 9.59375 31 L 13.28125 34.71875 C 13.679688 35.117188 14.320313 35.117188 14.71875 34.71875 C 15.117188 34.320313 15.117188 33.679688 14.71875 33.28125 L 11 29.59375 C 10.980469 29.570313 10.960938 29.550781 10.9375 29.53125 L 13.5 26.9375 C 13.511719 26.9375 13.519531 26.9375 13.53125 26.9375 C 13.550781 26.960938 13.570313 26.980469 13.59375 27 L 15.28125 28.71875 C 15.679688 29.117188 16.320313 29.117188 16.71875 28.71875 C 17.117188 28.320313 17.117188 27.679688 16.71875 27.28125 L 15 25.59375 C 14.980469 25.570313 14.960938 25.550781 14.9375 25.53125 L 17.53125 22.9375 C 17.550781 22.960938 17.570313 22.980469 17.59375 23 L 21.28125 26.71875 C 21.679688 27.117188 22.320313 27.117188 22.71875 26.71875 C 23.117188 26.320313 23.117188 25.679688 22.71875 25.28125 L 19 21.59375 C 18.980469 21.570313 18.960938 21.550781 18.9375 21.53125 L 21.53125 18.9375 C 21.550781 18.960938 21.570313 18.980469 21.59375 19 L 23.28125 20.71875 C 23.679688 21.117188 24.320313 21.117188 24.71875 20.71875 C 25.117188 20.320313 25.117188 19.679688 24.71875 19.28125 L 23 17.59375 C 22.980469 17.570313 22.960938 17.550781 22.9375 17.53125 L 25.53125 14.9375 C 25.550781 14.960938 25.570313 14.980469 25.59375 15 L 29.28125 18.71875 C 29.679688 19.117188 30.320313 19.117188 30.71875 18.71875 C 31.117188 18.320313 31.117188 17.679688 30.71875 17.28125 L 27 13.59375 C 26.980469 13.570313 26.960938 13.550781 26.9375 13.53125 Z " fill="#999999"/>
        </g>
    </symbol>

    <symbol id="icon-receive-study-medication-capsules" viewBox="0 0 50 50" version="1.1" fill="#999999">
        <g id="surface1" fill="#999999">
            <path style="line-height:normal;text-indent:0;text-align:start;text-decoration-line:none;text-decoration-style:solid;text-decoration-color:#000;text-transform:none;block-progression:tb;isolation:auto;mix-blend-mode:normal"
                  d="M 13 3 C 6.9348577 3.0021963 2.0010969 7.9572142 2 14.042969 L 2 14.044922 C 2.00193 14.937307 2.00187 35.257887 2 35.953125 L 2 35.955078 C 2.0011 38.996883 3.2320438 41.764265 5.2207031 43.761719 C 7.2092342 45.75895 9.9675781 46.998902 13 47 C 16.75368 47 20.075166 45.110677 22.060547 42.230469 C 24.799518 45.157585 28.6835 47 33 47 C 41.272427 47 48 40.272427 48 32 C 48 23.727573 41.272427 17 33 17 C 29.621076 17 26.51027 18.135713 24 20.027344 C 23.999241 17.905265 23.998496 14.731807 24 14.044922 L 24 14.042969 C 23.998903 7.957135 19.06424 3.0021964 13 3 z M 13 5 C 17.979097 5.0018 21.998027 9.0318169 22 14.041016 C 21.998042 14.954406 21.998123 20.872228 22 21.835938 C 21.370292 22.516972 20.803992 23.257403 20.306641 24.044922 A 1.0001 1.0001 0 0 0 20 24 L 4 24 C 3.9999062 19.252578 4.0009399 14.475262 4 14.041016 C 4.0019727 9.0316968 8.0198055 5.0018034 13 5 z M 33 19 C 40.191546 19 46 24.808454 46 32 C 46 39.191546 40.191546 45 33 45 C 25.808454 45 20 39.191546 20 32 C 20 24.808454 25.808454 19 33 19 z M 40.050781 23.919922 A 1.0001 1.0001 0 0 0 39.363281 24.222656 L 25.222656 38.363281 A 1.0001 1.0001 0 1 0 26.636719 39.777344 L 40.777344 25.636719 A 1.0001 1.0001 0 0 0 40.050781 23.919922 z M 4 26 L 19.277344 26 C 18.465223 27.83857 18 29.862789 18 32 C 18 33.420421 18.211573 34.790659 18.582031 36.09375 A 1 1 0 0 0 18 37 A 1 1 0 0 0 19 38 A 1 1 0 0 0 19.244141 37.96875 C 19.647975 38.896 20.146092 39.770899 20.720703 40.589844 C 20.383771 41.155703 19.976764 41.672753 19.529297 42.150391 A 1 1 0 0 0 19 42 A 1 1 0 0 0 18 43 A 1 1 0 0 0 18.082031 43.396484 C 16.638422 44.397697 14.897124 45 13 45 C 11.106299 44.999314 9.3573656 44.410484 7.9101562 43.410156 A 1 1 0 0 0 8 43 A 1 1 0 0 0 7 42 A 1 1 0 0 0 6.4628906 42.158203 C 4.9406479 40.539294 4.0013849 38.36644 4 35.957031 L 4 35.955078 C 4.0000929 35.920382 3.9999155 35.105074 4 35 A 1 1 0 0 0 5 34 A 1 1 0 0 0 4 33 C 4.0002816 32.02935 3.9998617 30.679941 4 29 A 1 1 0 0 0 5 28 A 1 1 0 0 0 4 27 C 4.0000169 26.535338 3.9999919 26.476005 4 26 z M 10 27 A 1 1 0 0 0 9 28 A 1 1 0 0 0 10 29 A 1 1 0 0 0 11 28 A 1 1 0 0 0 10 27 z M 16 27 A 1 1 0 0 0 15 28 A 1 1 0 0 0 16 29 A 1 1 0 0 0 17 28 A 1 1 0 0 0 16 27 z M 7 30 A 1 1 0 0 0 6 31 A 1 1 0 0 0 7 32 A 1 1 0 0 0 8 31 A 1 1 0 0 0 7 30 z M 13 30 A 1 1 0 0 0 12 31 A 1 1 0 0 0 13 32 A 1 1 0 0 0 14 31 A 1 1 0 0 0 13 30 z M 10 33 A 1 1 0 0 0 9 34 A 1 1 0 0 0 10 35 A 1 1 0 0 0 11 34 A 1 1 0 0 0 10 33 z M 16 33 A 1 1 0 0 0 15 34 A 1 1 0 0 0 16 35 A 1 1 0 0 0 17 34 A 1 1 0 0 0 16 33 z M 7 36 A 1 1 0 0 0 6 37 A 1 1 0 0 0 7 38 A 1 1 0 0 0 8 37 A 1 1 0 0 0 7 36 z M 13 36 A 1 1 0 0 0 12 37 A 1 1 0 0 0 13 38 A 1 1 0 0 0 14 37 A 1 1 0 0 0 13 36 z M 10 39 A 1 1 0 0 0 9 40 A 1 1 0 0 0 10 41 A 1 1 0 0 0 11 40 A 1 1 0 0 0 10 39 z M 16 39 A 1 1 0 0 0 15 40 A 1 1 0 0 0 16 41 A 1 1 0 0 0 17 40 A 1 1 0 0 0 16 39 z M 13 42 A 1 1 0 0 0 12 43 A 1 1 0 0 0 13 44 A 1 1 0 0 0 14 43 A 1 1 0 0 0 13 42 z"
                  fill="#999999"/>
        </g>
    </symbol>

    <symbol id="icon-fasting" viewBox="0 0 100 100" version="1.1" fill="#999999">
        <g id="Artboard" stroke="none" stroke-width="1" fill="none" fill-rule="evenodd">
            <g id="surface1" transform="translate(4.000000, 4.000000)" fill="#999999" fill-rule="nonzero">
                <path d="M65.1286765,1.67668269 C65.0528488,1.69020433 64.9770229,1.71048669 64.9080882,1.73076923 C64.0877753,1.91331173 63.5087312,2.63671962 63.5294118,3.46153846 L63.5294118,27.6923077 C63.5225188,28.3143029 63.8534012,28.895734 64.4048718,29.2134912 C64.9563424,29.5244896 65.6318929,29.5244896 66.1833635,29.2134912 C66.7348341,28.895734 67.0657165,28.3143029 67.0588235,27.6923077 L67.0588235,3.46153846 C67.0795041,2.96123885 66.8727018,2.48122038 66.5073529,2.14317865 C66.1351112,1.7983774 65.6318929,1.62935688 65.1286765,1.67668269 Z M75.7169118,1.67668269 C75.6410841,1.69020433 75.5652582,1.71048669 75.4963235,1.73076923 C74.6760106,1.91331173 74.0969665,2.63671962 74.1176471,3.46153846 L74.1176471,27.6923077 C74.1107541,28.3143029 74.4416365,28.895734 74.9931071,29.2134912 C75.5445776,29.5244896 76.2201282,29.5244896 76.7715988,29.2134912 C77.3230694,28.895734 77.6539518,28.3143029 77.6470588,27.6923077 L77.6470588,3.46153846 C77.6677394,2.96123885 77.4609371,2.48122038 77.0955882,2.14317865 C76.7233465,1.7983774 76.2201282,1.62935688 75.7169118,1.67668269 Z M86.3051471,1.67668269 C86.2293194,1.69020433 86.1534935,1.71048669 86.0845588,1.73076923 C85.2642459,1.91331173 84.6852018,2.63671962 84.7058824,3.46153846 L84.7058824,34.6153846 C84.7058824,39.4155658 80.7766553,43.2692308 75.8823529,43.2692308 C74.9103865,43.2692308 74.1176471,44.0467252 74.1176471,45 L74.1176471,86.5384615 C74.1107541,87.1604567 74.4416365,87.7418879 74.9931071,88.059645 C75.5445776,88.3706435 76.2201282,88.3706435 76.7715988,88.059645 C77.3230694,87.7418879 77.6539518,87.1604567 77.6470588,86.5384615 L77.6470588,46.3521635 C83.5822606,45.4732581 88.2352941,40.6730769 88.2352941,34.6153846 L88.2352941,3.46153846 C88.2559747,2.96123885 88.0491724,2.48122038 87.6838235,2.14317865 C87.3115818,1.7983774 86.8083635,1.62935688 86.3051471,1.67668269 Z M1.43382353,1.73076923 C0.592831765,1.88626812 -0.0137867647,2.61643673 2.3510382e-15,3.46153846 L2.3510382e-15,32.8846154 C2.3510382e-15,45.7301683 9.05101059,56.378456 21.1764706,59.4951923 L21.1764706,76.1538462 C21.1764706,79.2029752 20.15625,81.1230473 18.1985294,82.5360577 C16.2408088,83.9490681 13.1112141,84.8076923 8.82352941,84.8076923 C8.18933824,84.8009319 7.59650824,85.1254512 7.27251882,85.6663165 C6.95542235,86.2071819 6.95542235,86.8697412 7.27251882,87.4106065 C7.59650824,87.9514719 8.18933824,88.2759912 8.82352941,88.2692308 C13.5730694,88.2692308 17.4540441,87.3970858 20.2941176,85.3485577 C23.1341912,83.3000296 24.7058824,80.027794 24.7058824,76.1538462 L24.7058824,58.3052885 C24.6920965,57.4804696 24.0923718,56.784105 23.2720588,56.6286058 C12.0013782,54.3840144 3.52941176,44.6281546 3.52941176,32.8846154 L3.52941176,5.19230769 L52.9411765,5.19230769 L52.9411765,32.8846154 C52.9411765,44.6281546 44.46921,54.3840144 33.1985294,56.6286058 C32.3782165,56.784105 31.7784935,57.4804696 31.7647059,58.3052885 L31.7647059,76.1538462 C31.7647059,80.027794 33.3363971,83.3000296 36.1764706,85.3485577 C39.0165441,87.3970858 42.8975188,88.2692308 47.6470588,88.2692308 C48.28125,88.2759912 48.8740818,87.9514719 49.1980694,87.4106065 C49.5151659,86.8697412 49.5151659,86.2071819 49.1980694,85.6663165 C48.8740818,85.1254512 48.28125,84.8009319 47.6470588,84.8076923 C43.3593759,84.8076923 40.2297794,83.9490681 38.2720588,82.5360577 C36.3143382,81.1230473 35.2941176,79.2029752 35.2941176,76.1538462 L35.2941176,59.4951923 C47.4195776,56.378456 56.4705882,45.7301683 56.4705882,32.8846154 L56.4705882,3.46153846 C56.4705882,2.50826365 55.6778488,1.73076923 54.7058824,1.73076923 L1.76470588,1.73076923 C1.70955882,1.73076923 1.65441176,1.73076923 1.59926471,1.73076923 C1.54411765,1.73076923 1.48897059,1.73076923 1.43382353,1.73076923 Z"
                      id="Shape"/>
            </g>
            <path d="M4,4 L94,94" id="Line" stroke="#979797" stroke-width="4" stroke-linecap="square"/>
        </g>
    </symbol>

    <symbol id="icon-hands-and-feet-x-rays" viewBox="0 0 100 100" version="1.1" fill="#999999">
        <g id="surface1" fill="#999999">
            <path d="M39.6,0 C35.1703134,0 32.4,3.740625 32.4,7.2 L32.4,8.26875 C31.2679692,7.6289058 30.0375,7.2 28.8,7.2 C25.425,7.2 21.6632808,9.7242192 21.43125,14.11875 C21.43125,14.1539058 21.43125,14.1960942 21.43125,14.23125 L21.43125,52.875 L15.58125,45.84375 C15.5671884,45.8085942 15.5460942,45.7664058 15.525,45.73125 C12.515625,42.4898442 7.3546884,42.5460942 4.1625,45.675 C4.1484384,45.6890634 4.1765634,45.7171884 4.1625,45.73125 C0.984375,48.7195308 0.9632808,53.7398442 3.99375,56.925 L4.10625,57.09375 L24.8625,83.7 C27.9,87.75 32.6039058,90 37.63125,90 L52.2,90 C61.1015634,90 68.4,82.7015634 68.4,73.8 L68.4,21.6 C68.4,20.2570308 68.3296884,18.2039058 67.3875,16.25625 C66.4453134,14.3085942 64.2796884,12.6 61.2,12.6 C59.7726558,12.6 58.6125,13.078125 57.6,13.66875 L57.6,12.6 C57.6,9.8648442 57.121875,7.6640634 55.85625,6.01875 C54.590625,4.3734384 52.5585942,3.6 50.4,3.6 C48.76875,3.6 47.4679692,4.134375 46.35,4.8375 C45.421875,2.2289058 43.0171884,0 39.6,0 Z M39.6,3.6 C42.0117192,3.6 43.2,5.625 43.2,7.2 L43.2,39.6 L46.8,39.6 L46.8,10.8 C46.8,9.8367192 47.0390634,8.8804692 47.53125,8.26875 C48.0234384,7.6570308 48.7476558,7.2 50.4,7.2 C51.8414058,7.2 52.509375,7.5164058 53.04375,8.2125 C53.578125,8.9085942 54,10.29375 54,12.6 L54,43.2 L57.6,43.2 L57.6,21.6 C57.6,20.4257808 57.7195308,18.8578134 58.21875,17.83125 C58.7179692,16.8046884 59.2382808,16.2 61.2,16.2 C63.1617192,16.2 63.6820308,16.8046884 64.18125,17.83125 C64.6804692,18.8578134 64.8,20.4257808 64.8,21.6 L64.8,73.8 C64.8,80.7398442 59.1398442,86.4 52.2,86.4 L37.63125,86.4 C33.6585942,86.4 30.09375,84.7125 27.73125,81.5625 C27.7101558,81.5414058 27.6960942,81.5273442 27.675,81.50625 L6.80625,54.675 C6.7710942,54.61875 6.7359384,54.5625 6.69375,54.50625 C4.8375,52.65 4.8585942,49.9710942 6.6375,48.31875 C6.6585942,48.2976558 6.6726558,48.2835942 6.69375,48.2625 C8.5289058,46.4273442 11.165625,46.4273442 12.825,48.15 C12.8460942,48.1710942 12.8601558,48.1851558 12.88125,48.20625 L21.825,58.95 C22.3101558,59.5546884 23.1257808,59.7867192 23.8570308,59.5195308 C24.58125,59.2453134 25.059375,58.5421884 25.03125,57.76875 L25.03125,14.23125 C25.1929692,11.8265634 27.1546884,10.8 28.8,10.8 C29.6296884,10.8 30.6,11.1164058 31.275,11.7 C31.95,12.2835942 32.4,13.078125 32.4,14.4 L32.4,41.4 L36,41.4 L36,7.2 C36,5.625 37.1882808,3.6 39.6,3.6 Z" id="Shape"/>
        </g>
    </symbol>

    <symbol id="icon-chest-x-rays" viewBox="0 0 50 50" version="1.1" fill="#999999">
        <g id="surface1" fill="#999999">
            <path style=" " d="M 8 2 C 5.800781 2 4 3.800781 4 6 L 4 44 C 4 46.195313 5.800781 48 8 48 L 42 48 C 44.199219 48 46 46.195313 46 44 L 46 6 C 46 3.800781 44.199219 2 42 2 Z M 8 4 L 42 4 C 43.117188 4 44 4.882813 44 6 L 44 44 C 44 45.117188 43.117188 46 42 46 L 8 46 C 6.882813 46 6 45.117188 6 44 L 6 6 C 6 4.882813 6.882813 4 8 4 Z M 24.71875 5.375 L 24.0625 6 L 24 6.34375 L 24 6.84375 L 24.40625 7.65625 L 25.28125 7.8125 L 25.9375 7.1875 L 26 6.84375 L 26 6.34375 L 25.59375 5.53125 Z M 24.71875 7.875 L 24.0625 8.5 L 24 8.84375 L 24 9.1875 C 23.777344 8.808594 23.335938 8.617188 22.90625 8.71875 C 22.757813 8.75 22.621094 8.8125 22.5 8.90625 C 22.5 8.90625 22.136719 9.136719 21.15625 9.28125 C 20.175781 9.425781 18.664063 9.441406 16.53125 8.8125 C 16.371094 8.761719 16.199219 8.75 16.03125 8.78125 C 15.582031 8.871094 15.25 9.253906 15.230469 9.714844 C 15.207031 10.171875 15.5 10.585938 15.9375 10.71875 C 18.328125 11.425781 20.199219 11.4375 21.46875 11.25 C 22.738281 11.0625 23.5 10.625 23.5 10.625 C 23.894531 10.480469 24.15625 10.105469 24.15625 9.6875 L 24.40625 10.15625 L 25.28125 10.3125 L 25.9375 9.6875 L 26 9.34375 L 26 8.84375 L 25.59375 8.03125 Z M 33.71875 8.75 C 33.632813 8.761719 33.550781 8.78125 33.46875 8.8125 C 31.335938 9.441406 29.824219 9.425781 28.84375 9.28125 C 27.863281 9.136719 27.5 8.90625 27.5 8.90625 C 27.300781 8.789063 27.070313 8.746094 26.84375 8.78125 C 26.429688 8.851563 26.105469 9.171875 26.03125 9.582031 C 25.953125 9.996094 26.140625 10.410156 26.5 10.625 C 26.5 10.625 27.261719 11.0625 28.53125 11.25 C 29.800781 11.4375 31.671875 11.425781 34.0625 10.71875 C 34.585938 10.605469 34.929688 10.097656 34.835938 9.570313 C 34.742188 9.039063 34.25 8.679688 33.71875 8.75 Z M 24.71875 10.375 L 24.0625 11 L 24 11.34375 L 24 11.84375 L 24.40625 12.65625 L 25.28125 12.8125 L 25.9375 12.1875 L 26 11.84375 L 26 11.34375 L 25.59375 10.53125 Z M 14.15625 12.75 C 14.113281 12.757813 14.070313 12.769531 14.03125 12.78125 C 13.582031 12.871094 13.25 13.253906 13.230469 13.714844 C 13.207031 14.171875 13.5 14.585938 13.9375 14.71875 C 18.800781 16.152344 23.3125 14.71875 23.3125 14.71875 C 23.679688 14.601563 23.945313 14.285156 24 13.90625 L 24 14.34375 L 24.40625 15.15625 L 25.28125 15.3125 L 25.9375 14.6875 L 26 14.34375 L 26 13.96875 C 26.074219 14.324219 26.339844 14.613281 26.6875 14.71875 C 26.6875 14.71875 31.199219 16.152344 36.0625 14.71875 C 36.421875 14.628906 36.707031 14.347656 36.792969 13.988281 C 36.882813 13.625 36.765625 13.246094 36.488281 13 C 36.207031 12.753906 35.816406 12.679688 35.46875 12.8125 C 31.28125 14.050781 27.3125 12.8125 27.3125 12.8125 C 27.222656 12.777344 27.128906 12.757813 27.03125 12.75 C 26.957031 12.753906 26.882813 12.761719 26.8125 12.78125 C 26.308594 12.875 25.960938 13.332031 26 13.84375 L 25.59375 13.03125 L 24.71875 12.875 L 24.0625 13.5 L 24 13.71875 C 23.984375 13.40625 23.824219 13.117188 23.566406 12.941406 C 23.3125 12.761719 22.984375 12.714844 22.6875 12.8125 C 22.6875 12.8125 18.71875 14.050781 14.53125 12.8125 C 14.441406 12.777344 14.347656 12.757813 14.25 12.75 C 14.21875 12.75 14.1875 12.75 14.15625 12.75 Z M 24.71875 15.375 L 24.0625 16 L 24 16.34375 L 24 16.84375 L 24.40625 17.65625 L 25.28125 17.8125 L 25.9375 17.1875 L 26 16.84375 L 26 16.34375 L 25.59375 15.53125 Z M 22.96875 16.71875 C 22.835938 16.746094 22.707031 16.796875 22.59375 16.875 C 22.59375 16.875 17.265625 19.191406 11.625 16.84375 C 11.4375 16.761719 11.230469 16.742188 11.03125 16.78125 C 10.597656 16.867188 10.273438 17.226563 10.230469 17.664063 C 10.1875 18.105469 10.433594 18.519531 10.84375 18.6875 C 17.332031 21.386719 23.40625 18.6875 23.40625 18.6875 C 23.894531 18.5625 24.214844 18.09375 24.148438 17.59375 C 24.085938 17.09375 23.660156 16.71875 23.15625 16.71875 C 23.09375 16.710938 23.03125 16.710938 22.96875 16.71875 Z M 26.8125 16.78125 C 26.390625 16.855469 26.0625 17.191406 25.996094 17.617188 C 25.933594 18.042969 26.148438 18.460938 26.53125 18.65625 C 26.53125 18.65625 27.757813 19.296875 29.875 19.59375 C 31.992188 19.890625 35.097656 19.90625 39.0625 18.75 C 39.597656 18.59375 39.90625 18.035156 39.75 17.5 C 39.59375 16.964844 39.035156 16.65625 38.5 16.8125 C 34.796875 17.890625 32.003906 17.886719 30.15625 17.625 C 28.308594 17.363281 27.46875 16.90625 27.46875 16.90625 C 27.269531 16.789063 27.039063 16.746094 26.8125 16.78125 Z M 24.71875 17.875 L 24.0625 18.5 L 24 18.84375 L 24 19.34375 L 24.40625 20.15625 L 25.28125 20.3125 L 25.9375 19.6875 L 26 19.34375 L 26 18.84375 L 25.59375 18.03125 Z M 24.71875 20.375 L 24.0625 21 L 24 21.34375 L 24 21.84375 L 24.40625 22.65625 L 25.28125 22.8125 L 25.9375 22.1875 L 26 21.84375 L 26 21.34375 L 25.59375 20.53125 Z M 15.0625 21.75 C 14.601563 21.804688 14.238281 22.167969 14.183594 22.632813 C 14.132813 23.09375 14.40625 23.53125 14.84375 23.6875 C 17.691406 24.863281 19.867188 24.917969 21.34375 24.59375 C 22.820313 24.269531 23.6875 23.5 23.6875 23.5 C 24.003906 23.222656 24.109375 22.777344 23.957031 22.382813 C 23.804688 21.992188 23.421875 21.738281 23 21.75 C 22.742188 21.753906 22.496094 21.851563 22.3125 22.03125 C 22.3125 22.03125 21.964844 22.390625 20.90625 22.625 C 19.847656 22.859375 18.160156 22.890625 15.625 21.84375 C 15.507813 21.789063 15.378906 21.757813 15.25 21.75 C 15.1875 21.742188 15.125 21.742188 15.0625 21.75 Z M 26.875 21.75 C 26.832031 21.757813 26.789063 21.769531 26.75 21.78125 C 26.386719 21.867188 26.101563 22.148438 26.011719 22.507813 C 25.917969 22.871094 26.035156 23.25 26.3125 23.5 C 26.3125 23.5 27.179688 24.269531 28.65625 24.59375 C 30.132813 24.917969 32.308594 24.863281 35.15625 23.6875 C 35.664063 23.472656 35.902344 22.882813 35.6875 22.375 C 35.472656 21.867188 34.882813 21.628906 34.375 21.84375 C 31.839844 22.890625 30.152344 22.859375 29.09375 22.625 C 28.035156 22.390625 27.6875 22.03125 27.6875 22.03125 C 27.472656 21.820313 27.175781 21.714844 26.875 21.75 Z M 24.71875 22.875 L 24.0625 23.5 L 24 23.84375 L 24 24.34375 L 24.40625 25.15625 L 25.28125 25.3125 L 25.9375 24.6875 L 26 24.34375 L 26 23.84375 L 25.59375 23.03125 Z M 24.71875 25.375 L 24.0625 26 L 24 26.34375 L 24 26.84375 L 24.40625 27.65625 L 25.28125 27.8125 L 25.9375 27.1875 L 26 26.84375 L 26 26.34375 L 25.59375 25.53125 Z M 24.71875 27.875 L 24.0625 28.5 L 24 28.84375 L 24 29.34375 L 24.25 29.84375 C 22.988281 29.597656 21.191406 29.160156 20.3125 28.90625 C 19.300781 28.617188 18.375 28 17.0625 28 C 15.640625 28 14.433594 28.648438 13.65625 29.65625 C 12.878906 30.664063 12.5 31.988281 12.5 33.375 C 12.5 34.789063 13.015625 36.042969 14.03125 36.84375 C 15.046875 37.644531 16.390625 38.054688 18.125 38.375 C 19.730469 38.671875 20.195313 39.15625 20.8125 40.71875 C 21.492188 42.449219 22.96875 43.828125 24.71875 43.96875 C 24.8125 43.976563 24.902344 44 25 44 C 25.03125 44 25.0625 44 25.09375 44 C 25.105469 44 25.113281 44 25.125 44 C 25.179688 44 25.226563 43.972656 25.28125 43.96875 C 27.03125 43.828125 28.507813 42.449219 29.1875 40.71875 C 29.804688 39.15625 30.269531 38.671875 31.875 38.375 C 33.609375 38.054688 34.953125 37.644531 35.96875 36.84375 C 36.984375 36.042969 37.5 34.789063 37.5 33.375 C 37.5 31.988281 37.121094 30.664063 36.34375 29.65625 C 35.566406 28.648438 34.359375 28 32.9375 28 C 31.625 28 30.699219 28.617188 29.6875 28.90625 C 28.816406 29.15625 27.039063 29.597656 25.78125 29.84375 L 25.9375 29.6875 L 26 29.34375 L 26 28.84375 L 25.59375 28.03125 Z M 17.0625 30 C 17.585938 30 18.480469 30.472656 19.78125 30.84375 C 20.941406 31.175781 23.261719 31.761719 24.6875 31.96875 C 24.746094 31.976563 24.820313 31.992188 24.875 32 C 24.9375 32.003906 25 32.003906 25.0625 32 C 25.074219 32 25.082031 32 25.09375 32 C 25.105469 32 25.113281 32 25.125 32 C 25.171875 31.996094 25.234375 31.976563 25.28125 31.96875 C 25.3125 31.960938 25.34375 31.949219 25.375 31.9375 C 26.804688 31.722656 29.074219 31.171875 30.21875 30.84375 C 31.523438 30.472656 32.414063 30 32.9375 30 C 33.785156 30 34.339844 30.332031 34.78125 30.90625 C 35.222656 31.480469 35.5 32.347656 35.5 33.375 C 35.5 34.378906 35.28125 34.808594 34.71875 35.25 C 34.15625 35.691406 33.101563 36.109375 31.5 36.40625 C 29.394531 36.796875 28.058594 38.078125 27.3125 39.96875 C 26.890625 41.039063 25.667969 41.945313 25.0625 42 C 25.042969 42 25.019531 42 25 42 C 24.972656 42 24.9375 42.003906 24.90625 42 C 24.289063 41.917969 23.101563 41.019531 22.6875 39.96875 C 21.941406 38.078125 20.605469 36.796875 18.5 36.40625 C 16.898438 36.109375 15.84375 35.691406 15.28125 35.25 C 14.71875 34.808594 14.5 34.378906 14.5 33.375 C 14.5 32.347656 14.777344 31.480469 15.21875 30.90625 C 15.660156 30.332031 16.214844 30 17.0625 30 Z M 18.15625 31.53125 C 17.558594 31.511719 16.972656 31.785156 16.65625 32.3125 C 16.148438 33.160156 16.480469 34.328125 17.375 34.9375 C 18.269531 35.542969 19.398438 35.375 19.90625 34.53125 C 20.414063 33.6875 20.117188 32.484375 19.21875 31.875 C 18.882813 31.648438 18.515625 31.542969 18.15625 31.53125 Z M 31.84375 31.53125 C 31.484375 31.542969 31.117188 31.679688 30.78125 31.90625 C 29.882813 32.515625 29.585938 33.683594 30.09375 34.53125 C 30.601563 35.375 31.730469 35.542969 32.625 34.9375 C 33.519531 34.328125 33.851563 33.160156 33.34375 32.3125 C 33.027344 31.785156 32.441406 31.511719 31.84375 31.53125 Z " fill="#999999"/>
        </g>
    </symbol>

    <symbol id="icon-no-study-visit" viewBox="0 0 28 28" version="1.1" fill="#999999">
        <g id="surface1" fill="#999999">
            <path style=" " d="M 12 0 C 5.382813 0 0 5.382813 0 12 C 0 18.617188 5.382813 24 12 24 C 18.617188 24 24 18.617188 24 12 C 24 5.382813 18.617188 0 12 0 Z M 12 2 C 17.535156 2 22 6.464844 22 12 C 22 14.398438 21.148438 16.59375 19.75 18.3125 L 5.6875 4.25 C 7.40625 2.851563 9.601563 2 12 2 Z M 4.25 5.6875 L 18.3125 19.75 C 16.59375 21.148438 14.398438 22 12 22 C 6.464844 22 2 17.535156 2 12 C 2 9.601563 2.851563 7.40625 4.25 5.6875 Z " fill="#878787"/>
        </g>
    </symbol>

</svg>
