<!-- Created By Leonid Bartenev -->

<svg xmlns="http://www.w3.org/2000/svg" xmlns:xlink="http://www.w3.org/1999/xlink" display="none">
    <symbol id="NoFood" name="Fasting" viewBox="0 0 26.31 25.9" version="1.1" xmlns="http://www.w3.org/2000/svg"
            xmlns:xlink="http://www.w3.org/1999/xlink">
        <path class="cls-1" d="M12.83.85a1,1,0,0,0-1,1v5a2,2,0,0,1-.57,1.4.24.24,0,0,1-.35,0,.23.23,0,0,1-.08-.17V1.85a1,1,0,1,0-2,0V8.08a.25.25,0,0,1-.25.25.25.25,0,0,1-.18-.08,2,2,0,0,1-.57-1.4v-5a1,1,0,1,0-2,0v5A4,4,0,0,0,8.5,10.63a.49.49,0,0,1,.33.47V23.85a1,1,0,0,0,2,0V11.1a.5.5,0,0,1,.33-.47,4,4,0,0,0,2.67-3.78v-5A1,1,0,0,0,12.83.85Z"/>
        <path class="cls-1" d="M19.33.85a4,4,0,0,0-4,4v2A4,4,0,0,0,18,10.63a.49.49,0,0,1,.33.47V23.85a1,1,0,0,0,2,0V11.1a.5.5,0,0,1,.33-.47,4,4,0,0,0,2.67-3.78v-2A4,4,0,0,0,19.33.85Zm-.5,2.5a1,1,0,0,0-1,1,.5.5,0,0,1-.5.5.5.5,0,0,1-.5-.5,2,2,0,0,1,2-2,.5.5,0,0,1,.5.5A.5.5,0,0,1,18.83,3.35Z"/>
        <rect class="cls-2" x="12.71" y="-4.34" width="1" height="34.38" transform="translate(-5.22 13.34) rotate(-45.73)"/>
    </symbol>
    <symbol id="radiology-scanner" name="Hands and feet X-rays" viewBox="0 0 24 24" version="1.1" xmlns="http://www.w3.org/2000/svg"
            xmlns:xlink="http://www.w3.org/1999/xlink">
        <path d="M23,8.5a1,1,0,0,0-1,1v8a1,1,0,1,0,2,0v-8A1,1,0,0,0,23,8.5Z"/>
        <path d="M17.446,6.583l1.5,1a1,1,0,1,0,1.109-1.664l-1.5-1a1,1,0,0,0-1.109,1.664Z"/>
        <path d="M14.481,3.447A1,1,0,0,0,13.7,2.27l-2.5-.5A1,1,0,0,0,10.8,3.731l2.5.5a.964.964,0,0,0,.2.02A1,1,0,0,0,14.481,3.447Z"/>
        <path d="M16.511,8.859a1,1,0,0,0,.848,1.132l3,.429a1,1,0,0,0,.283-1.981l-3-.428A1,1,0,0,0,16.511,8.859Z"/>
        <path d="M20.359,16.582l-3,.429a1,1,0,0,0,.283,1.98l3-.429a1,1,0,0,0-.283-1.98Z"/>
        <path d="M20.5,12.5h-3a1,1,0,0,0,0,2h3a1,1,0,0,0,0-2Z"/>
        <path d="M15,8a1,1,0,0,0-1,1v9.25a1,1,0,0,0,2,0V9A1,1,0,0,0,15,8Z"/>
        <circle cx="16.001" cy="4.001" r="1.25"/>
        <path d="M6.607,8.251l.065,0a1.244,1.244,0,1,0-.065,0Z"/>
        <path d="M4.851,11.491A1.25,1.25,0,1,0,5.51,9.85,1.247,1.247,0,0,0,4.851,11.491Z"/>
        <path d="M.769,6.724l2.878.8a.968.968,0,0,0,.232.028A1,1,0,0,0,4.11,5.582l-2.878-.8A1,1,0,1,0,.769,6.724Z"/>
        <path d="M12.514,7.547,9.161,6.5a1,1,0,1,0-.6,1.908l3.353,1.048a1,1,0,1,0,.6-1.908Z"/>
        <path d="M1,12H3.5a1,1,0,1,0,0-2H1a1,1,0,0,0,0,2Z"/>
        <path d="M11.815,10.506,8.6,10.184a1,1,0,0,0-.2,1.991l3.215.321c.034,0,.067,0,.1,0a1,1,0,0,0,.1-1.995Z"/>
        <path d="M6.672,18.753a1.25,1.25,0,1,0-.129,2.5l.066,0a1.25,1.25,0,0,0,.063-2.5Z"/>
        <path d="M7.151,16.491a1.25,1.25,0,1,0-1.64.66A1.25,1.25,0,0,0,7.151,16.491Z"/>
        <path d="M3.647,19.475l-2.878.8A1,1,0,0,0,1,22.251a1.036,1.036,0,0,0,.233-.027l2.878-.8a1,1,0,1,0-.463-1.945Z"/>
        <path d="M11.917,17.547,8.564,18.6a1,1,0,1,0,.6,1.908l3.353-1.048a1,1,0,1,0-.6-1.908Z"/>
        <path d="M1,17H3.5a1,1,0,0,0,0-2H1a1,1,0,0,0,0,2Z"/>
        <path d="M11.616,14.506,8.4,14.827a1,1,0,0,0,.1,1.995c.033,0,.066,0,.1,0l3.215-.321a1,1,0,1,0-.2-1.99Z"/>
    </symbol>
    <symbol id="delete" name="No study visit if you take part in contRAst-X" xmlns="http://www.w3.org/2000/svg" xmlns:xlink="http://www.w3.org/1999/xlink"
            viewBox="0 0 24 24" version="1.1">
        <path d="M20.485,3.534a12,12,0,0,0-16.97,16.98,12.136,12.136,0,0,0,16.684.277,12.072,12.072,0,0,0,2.471-3.26,11.936,11.936,0,0,0,1.2-3.744A12.238,12.238,0,0,0,24,12.024,11.932,11.932,0,0,0,20.485,3.534ZM5.292,5.292a9.623,9.623,0,0,1,12.23-1.023.264.264,0,0,1,.031.4L4.667,17.561a.265.265,0,0,1-.4-.031A9.5,9.5,0,0,1,5.292,5.292ZM18.749,18.756A9.518,9.518,0,0,1,6.518,19.779a.264.264,0,0,1-.032-.4L19.373,6.486a.265.265,0,0,1,.4.031,9.5,9.5,0,0,1-1.023,12.239Z"/>
    </symbol>
    <symbol id="notes-tasks" name="Questionnaires" xmlns="http://www.w3.org/2000/svg" xmlns:xlink="http://www.w3.org/1999/xlink"
            viewBox="0 0 24 24" version="1.1">
        <path d="M6.47,10.97a.75.75,0,1,0,1.06,1.06l1-1a.681.681,0,0,1,.94,0,2.215,2.215,0,0,0,3.06,0,.681.681,0,0,1,.94,0,2.215,2.215,0,0,0,3.06,0l1-1a.75.75,0,0,0-1.06-1.06l-1,1a.681.681,0,0,1-.94,0,2.215,2.215,0,0,0-3.06,0,.681.681,0,0,1-.94,0,2.215,2.215,0,0,0-3.06,0Z"/>
        <path d="M11.47,14.97a.681.681,0,0,1-.94,0,2.215,2.215,0,0,0-3.06,0l-1,1a.75.75,0,1,0,1.06,1.06l1-1a.681.681,0,0,1,.94,0,2.216,2.216,0,0,0,3.061,0A.654.654,0,0,1,13,15.836a.75.75,0,0,0,0-1.5A2.141,2.141,0,0,0,11.47,14.97Z"/>
        <path d="M10,6.5h4a1,1,0,0,0,1-1V3A3.008,3.008,0,0,0,11.192.107,3.047,3.047,0,0,0,9,3.088V5.5A1,1,0,0,0,10,6.5Zm1.25-3.75A.75.75,0,1,1,12,3.5.75.75,0,0,1,11.25,2.75Z"/>
        <path d="M19.5,3H16.75a.25.25,0,0,0-.25.25v1.5a.25.25,0,0,0,.25.25H19a.5.5,0,0,1,.5.5V18.337a.5.5,0,0,1-.146.353l-3.163,3.163a.5.5,0,0,1-.354.147H5a.5.5,0,0,1-.5-.5V5.5A.5.5,0,0,1,5,5H7.25a.25.25,0,0,0,.25-.25V3.25A.25.25,0,0,0,7.25,3H4.5a2,2,0,0,0-2,2V22a2,2,0,0,0,2,2h15a2,2,0,0,0,2-2V5A2,2,0,0,0,19.5,3Z"/>
    </symbol>
    <symbol id="medical-room-clock-man" name="Physical examination" xmlns="http://www.w3.org/2000/svg" xmlns:xlink="http://www.w3.org/1999/xlink"
            viewBox="0 0 24 24" version="1.1">
        <path d="M5.5,10a5,5,0,1,0-5-5A5.006,5.006,0,0,0,5.5,10Zm0-8a3,3,0,1,1-3,3A3,3,0,0,1,5.5,2Z"/>
        <path d="M5.5,6.3H6.586a.75.75,0,0,0,0-1.5H6.25V3.934a.75.75,0,0,0-1.5,0V5.553A.75.75,0,0,0,5.5,6.3Z"/>
        <path d="M14.5,17.646a.251.251,0,0,0-.182-.241,2.506,2.506,0,0,1-1.808-2.178A.249.249,0,0,0,12.261,15H7.734L5.117,11.325A2,2,0,0,0,1.88,13.674l3.216,4.5A2.007,2.007,0,0,0,6.713,19H14.25a.25.25,0,0,0,.25-.25Z"/>
        <path d="M22.5,20h-.75a.25.25,0,0,0-.25.25V23a2.437,2.437,0,0,1-.1.681.252.252,0,0,0,.041.219.249.249,0,0,0,.2.1H23a.5.5,0,0,0,.5-.5V21A1,1,0,0,0,22.5,20Z"/>
        <path d="M14.5,23V20.25a.25.25,0,0,0-.25-.25H2a1,1,0,0,0-1,1v2.5a.5.5,0,0,0,.5.5H14.356a.252.252,0,0,0,.2-.1.248.248,0,0,0,.04-.219A2.473,2.473,0,0,1,14.5,23Z"/>
        <circle cx="18" cy="3.5" r="2.5"/>
        <path d="M20,23V16h1a1,1,0,0,0,1-1V10a2,2,0,0,0-2-2H16a2,2,0,0,0-2,2v5a1,1,0,0,0,1,1h1v7a1,1,0,0,0,1,1h2A1,1,0,0,0,20,23Z"/>
    </symbol>
    <symbol id="fitness-heart-rate" name="Vital signs" xmlns="http://www.w3.org/2000/svg" xmlns:xlink="http://www.w3.org/1999/xlink"
            viewBox="0 0 24 24" version="1.1">
        <path d="M21.566,12.133H16.431a.5.5,0,0,0-.457.3l-1.159,2.606a1.5,1.5,0,0,1-1.358.891h-.015a1.5,1.5,0,0,1-1.357-.868l-2.1-4.489a.251.251,0,0,0-.435-.033l-.618.929a1.5,1.5,0,0,1-1.249.668H2.434a.25.25,0,0,0-.179.424l9,9.263a1.046,1.046,0,0,0,1.5,0l9-9.263a.25.25,0,0,0-.179-.424Z"/>
        <path d="M23.361,5.166A6.093,6.093,0,0,0,13.67,3.614L12.337,4.829a.5.5,0,0,1-.674,0L10.33,3.614A6.093,6.093,0,0,0,.639,5.166,5.9,5.9,0,0,0,.336,9.8a.5.5,0,0,0,.471.335H7.153a.5.5,0,0,0,.416-.223L8.631,8.318a1.482,1.482,0,0,1,1.362-.664,1.5,1.5,0,0,1,1.246.861L13.2,12.722a.25.25,0,0,0,.455,0l.754-1.7a1.5,1.5,0,0,1,1.37-.89h7.411a.5.5,0,0,0,.472-.334A5.9,5.9,0,0,0,23.361,5.166Z"/>
    </symbol>
    <symbol id="medical-specialty-knee-1" name="Joint assessment"  xmlns="http://www.w3.org/2000/svg" xmlns:xlink="http://www.w3.org/1999/xlink" viewBox="0 0 24 24" version="1.1">
        <path d="M15.573,2.476,1.587.007a.505.505,0,0,0-.408.11A.5.5,0,0,0,1,.5V4.683a.5.5,0,0,0,.391.488l14.283,3.2a1,1,0,0,0,.681-.088A2.464,2.464,0,0,1,17.5,8a2.5,2.5,0,1,1-2.177,3.709,1,1,0,0,0-.656-.492L1.609,8.3A.5.5,0,0,0,1,8.783V12.5A.5.5,0,0,0,1.433,13l9.27,1.264A1.506,1.506,0,0,1,12,15.746V23.5a.5.5,0,0,0,.5.5H16a.5.5,0,0,0,.5-.5V21.307a15.523,15.523,0,0,0-1.115-5.827.5.5,0,0,1,.584-.665,6.333,6.333,0,0,0,3.035,0,.5.5,0,0,1,.585.663A15.636,15.636,0,0,0,18.5,21.307V23.5a.5.5,0,0,0,.5.5h3.5a.5.5,0,0,0,.5-.5V12.468C23,7.4,20.165,3.568,15.573,2.476Z"/>
    </symbol>
    <symbol id="medical-specialty-lungs" name="Lung function test"  xmlns="http://www.w3.org/2000/svg" xmlns:xlink="http://www.w3.org/1999/xlink" viewBox="0 0 24 24" version="1.1">
        <path d="M14.32,14.468a.5.5,0,0,1,.18.384v4.2a3.17,3.17,0,0,0,1.55,2.734c1.583.936,4,2.216,5.34,2.216a2.112,2.112,0,0,0,2.11-2.153C23.246,9,18.517,5.038,16.019,3.837a1.061,1.061,0,0,0-1.519.956V11.48a.25.25,0,0,1-.41.192l-.91-.758A.5.5,0,0,1,13,10.53V1a1,1,0,0,0-2,0v9.53a.5.5,0,0,1-.18.384l-.91.758a.25.25,0,0,1-.41-.192V4.793a1.06,1.06,0,0,0-1.519-.956C5.483,5.038.755,9,.5,21.847A2.112,2.112,0,0,0,2.61,24c1.345,0,3.757-1.28,5.34-2.216A3.17,3.17,0,0,0,9.5,19.05v-4.2a.5.5,0,0,1,.18-.384l2-1.667a.5.5,0,0,1,.64,0Z"/>
    </symbol>
    <symbol id="pill" name="Receive study medication capsules" xmlns="http://www.w3.org/2000/svg" xmlns:xlink="http://www.w3.org/1999/xlink" viewBox="0 0 24 24" version="1.1">
        <path d="M21.89,2.113a7.218,7.218,0,0,0-10.2,0L2.12,11.687A7.2,7.2,0,0,0,7.21,24h0a7.156,7.156,0,0,0,5.095-2.105l9.581-9.581a7.231,7.231,0,0,0,0-10.2ZM20.476,10.9,16.75,14.622a.5.5,0,0,1-.707,0L9.382,7.961a.5.5,0,0,1,0-.707l3.726-3.727a5.2,5.2,0,0,1,8.885,3.692A5.159,5.159,0,0,1,20.476,10.9Z"/>
        <path d="M16.634,3.159a4.091,4.091,0,0,0-2.91,1.205.75.75,0,0,0,1.06,1.061,2.678,2.678,0,0,1,3.7,0,.75.75,0,0,0,1.061-1.061A4.09,4.09,0,0,0,16.634,3.159Z"/>
    </symbol>
    <symbol id="pregnancy" name="Pregnancy test"  xmlns="http://www.w3.org/2000/svg" xmlns:xlink="http://www.w3.org/1999/xlink" viewBox="0 0 24 24" version="1.1">
        <g id="pregnancy" stroke="none" stroke-width="1" fill-rule="evenodd">
            <path d="M15.2476245,8.00617225 C15.4267631,7.98534087 15.6098372,8.01771157 15.7563458,8.09612309 C16.8105221,8.66953508 17.5474012,9.50247445 17.831789,10.4421231 L17.831789,10.4421231 L19.9835954,17.4551231 C20.0287094,17.6032336 19.9796528,17.7583539 19.850246,17.8767831 C19.7208391,17.9952122 19.5250895,18.0641309 19.3181445,18.0641231 L19.3181445,18.0641231 L17.1363383,18.0641231 C16.7901038,18.0679318 16.5027485,18.2614579 16.4681601,18.5141231 L16.4681601,18.5141231 L15.9090722,22.6141231 C15.8739302,22.8705737 15.5787182,23.0654147 15.2272578,23.0641295 L15.2272578,23.0641295 L9.7727422,23.0641295 C9.4212818,23.0654147 9.12606982,22.8705737 9.09092775,22.6141231 L9.09092775,22.6141231 L8.54547619,18.5141231 C8.51033412,18.2576724 8.21512214,18.0628315 7.86366174,18.0641231 L7.86366174,18.0641231 L5.6818555,18.0641231 C5.47491048,18.0641309 5.27916089,17.9952122 5.14975405,17.8767831 C5.02034721,17.7583539 4.97129058,17.6032336 5.0164046,17.4551231 L5.0164046,17.4551231 L7.168211,10.4421231 C7.45435023,9.50173482 8.19374416,8.66868945 9.25047233,8.09612309 C9.39698097,8.01771157 9.58005502,7.98534087 9.75919366,8.00617225 C9.9383323,8.02700363 10.0987696,8.09932001 10.2050126,8.20712309 L10.2050126,8.20712309 L12.2190924,10.2791231 C12.2827763,10.3448708 12.3859376,10.3839288 12.4959091,10.3839288 C12.6058806,10.3839288 12.709042,10.3448708 12.7727258,10.2791231 L12.7727258,10.2791231 L14.8018056,8.20712309 C14.9080486,8.09932001 15.0684858,8.02700363 15.2476245,8.00617225 Z M12.5,11 C10.5670034,11 9,12.5670034 9,14.5 C9,16.4329966 10.5670034,18 12.5,18 C14.4329966,18 16,16.4329966 16,14.5 C16,12.5670034 14.4329966,11 12.5,11 Z" id="Combined-Shape" fill-rule="nonzero"></path>
            <path d="M14.5851465,15.2558346 C14.9609638,14.9054023 15.0947586,14.387891 14.9315479,13.9159726 C14.7683372,13.4440543 14.3356515,13.0973329 13.8113038,13.018294 C13.361998,12.9472907 12.9038579,13.0855223 12.5840228,13.3885933 C12.5374858,13.4299136 12.4644241,13.4299136 12.4178871,13.3885933 C11.8659819,12.8716806 10.9697687,12.8703751 10.4161388,13.3856775 C9.86250893,13.9009799 9.86111078,14.7377556 10.413016,15.2546683 L11.9994249,16.8005948 C12.1307123,16.9280028 12.3119074,17 12.5012672,17 C12.6906271,17 12.8718222,16.9280028 13.0031096,16.8005948 L14.5851465,15.2558346 Z" id="Path" fill-rule="nonzero"></path>
            <circle id="Oval" cx="12.5" cy="4.5" r="3.5"></circle>
        </g>
    </symbol>
    <symbol id="monitor-heart-rate" name="Electrocardiogram (ECG)"  xmlns="http://www.w3.org/2000/svg" xmlns:xlink="http://www.w3.org/1999/xlink" viewBox="0 0 24 24" version="1.1">
        <path d="M6.447,7.977,8.192,5.193a1.5,1.5,0,0,1,2.762.24l1.58,4.18a.249.249,0,0,0,.475-.026l1.523-5.878a1.482,1.482,0,0,1,1.4-1.146,1.506,1.506,0,0,1,1.5,1.084l1.413,4.33H23.5a.5.5,0,0,0,.5-.5V2.5A2.5,2.5,0,0,0,21.5,0H2.5A2.5,2.5,0,0,0,0,2.5V7.477a.5.5,0,0,0,.5.5Z"/>
        <path d="M18.481,9.977a1.507,1.507,0,0,1-1.443-1.09L16.31,6.655a.25.25,0,0,0-.48.015l-1.472,5.683A1.483,1.483,0,0,1,12.973,13.5l-.077,0a1.5,1.5,0,0,1-1.426-1.049L9.592,7.481a.251.251,0,0,0-.446-.045l-1.3,2.072A1,1,0,0,1,7,9.977H.5a.5.5,0,0,0-.5.5V21.5A2.5,2.5,0,0,0,2.5,24h19A2.5,2.5,0,0,0,24,21.5V10.477a.5.5,0,0,0-.5-.5ZM6.5,20.9a.75.75,0,0,1-1.5,0V19.25a.75.75,0,0,1,1.5,0Zm4,0a.75.75,0,0,1-1.5,0V15.75a.75.75,0,0,1,1.5,0Zm4,0a.75.75,0,0,1-1.5,0V19.25a.75.75,0,0,1,1.5,0Zm4.5,0a.75.75,0,0,1-1.5,0V15.75a.75.75,0,0,1,1.5,0Z"/>
    </symbol>
    <symbol id="messages-bubble-square-question" name="Questions about your health and medications"  xmlns="http://www.w3.org/2000/svg" xmlns:xlink="http://www.w3.org/1999/xlink" viewBox="0 0 24 24" version="1.1">
        <path d="M22,1.5H2A1.5,1.5,0,0,0,.5,3V16.552A1.459,1.459,0,0,0,2,18H5v4a.5.5,0,0,0,.785.411L12.156,18H22a1.5,1.5,0,0,0,1.5-1.5V3A1.5,1.5,0,0,0,22,1.5Zm-8.75,9.056V11a.75.75,0,0,1-1.5,0v-.444A2.085,2.085,0,0,1,13,8.646,1.25,1.25,0,1,0,11.25,7.5a.75.75,0,0,1-1.5,0,2.75,2.75,0,1,1,3.85,2.521A.584.584,0,0,0,13.25,10.556ZM13.5,13.5a1,1,0,1,1-1-1A1,1,0,0,1,13.5,13.5Z"/>
    </symbol>
    <symbol id="medical-instrument-stethoscope" name="Lung health check" xmlns="http://www.w3.org/2000/svg" xmlns:xlink="http://www.w3.org/1999/xlink" viewBox="0 0 24 24" version="1.1">
        <path d="M19.207,15.23c-.151.013-.3.02-.457.02s-.306-.007-.457-.02a.5.5,0,0,0-.543.5V16.75a5.25,5.25,0,0,1-10.5,0V13.91a6.006,6.006,0,0,0,5-5.91V5A3.994,3.994,0,0,0,9.363,1.173a.156.156,0,0,1-.113-.15V1a1,1,0,0,0-2,0V3.5a1,1,0,0,0,2,0,.119.119,0,0,1,.066-.107.12.12,0,0,1,.125.011A1.986,1.986,0,0,1,10.25,5V8a4,4,0,0,1-8,0V5a1.986,1.986,0,0,1,.809-1.6.12.12,0,0,1,.125-.011A.119.119,0,0,1,3.25,3.5a1,1,0,0,0,2,0V1a1,1,0,0,0-2,0v.023a.155.155,0,0,1-.113.15A3.994,3.994,0,0,0,.25,5V8a6.006,6.006,0,0,0,5,5.91v2.84a7.25,7.25,0,0,0,14.5,0V15.729a.5.5,0,0,0-.543-.5Z"/>
        <path d="M18.75,4.25a5,5,0,1,0,5,5A5.006,5.006,0,0,0,18.75,4.25Zm0,8a3,3,0,1,1,3-3A3,3,0,0,1,18.75,12.25Z"/>
        <circle cx="18.75" cy="9.25" r="1.5"/>
    </symbol>
    <symbol id="medical-instrument-syringe-1" name="Receive study medication injection"  xmlns="http://www.w3.org/2000/svg" xmlns:xlink="http://www.w3.org/1999/xlink" viewBox="0 0 24 24" version="1.1">
        <path d="M8.5,2h1a.5.5,0,0,1,.5.5V3a.5.5,0,0,0,.5.5h3A.5.5,0,0,0,14,3V2.5a.5.5,0,0,1,.5-.5h1a1,1,0,0,0,0-2h-7a1,1,0,0,0,0,2Z"/>
        <path d="M18.5,5H5.5a1,1,0,0,0,0,2H7.751A.249.249,0,0,1,8,7.25v1a.5.5,0,0,0,.5.5h3a.75.75,0,0,1,0,1.5h-3a.5.5,0,0,0-.5.5v1.5a.5.5,0,0,0,.5.5h3a.75.75,0,0,1,0,1.5h-3a.5.5,0,0,0-.5.5v.75a4.5,4.5,0,0,0,2.6,4.192.25.25,0,0,1,.152.23V22.75a1.25,1.25,0,0,0,2.5,0V19.922a.251.251,0,0,1,.153-.23A4.5,4.5,0,0,0,16,15.5V7.25A.25.25,0,0,1,16.25,7H18.5a1,1,0,0,0,0-2Z"/>
    </symbol>
    <symbol id="blood-drop" name="Blood tests"  xmlns="http://www.w3.org/2000/svg" xmlns:xlink="http://www.w3.org/1999/xlink" viewBox="0 0 24 24" version="1.1">
        <path d="M12.842.447a1.036,1.036,0,0,0-1.684,0C11.086.558,4,11.735,4,15.986a8,8,0,0,0,16,0C20,11.736,12.914.558,12.842.447ZM12,21.236a5.256,5.256,0,0,1-5.25-5.25.75.75,0,0,1,1.5,0A3.755,3.755,0,0,0,12,19.736a.75.75,0,1,1,0,1.5Z"/>
    </symbol>
    <symbol id="urine-sample" name="Urine tests"  xmlns="http://www.w3.org/2000/svg" xmlns:xlink="http://www.w3.org/1999/xlink" viewBox="0 0 24 24" version="1.1">
        <g id="urine-sample" stroke="none" stroke-width="1" fill-rule="evenodd">
            <g id="drugs-pills-box" transform="translate(4.000000, 0.000000)" fill-rule="nonzero">
                <path d="M14.5714286,0.6 L2.42857143,0.6 C1.08730846,0.6 0,1.6745166 0,3 L0,3.6 C0,4.2627417 0.543654232,4.8 1.21428571,4.8 L15.7857143,4.8 C16.4563458,4.8 17,4.2627417 17,3.6 L17,3 C17,1.6745166 15.9126915,0.6 14.5714286,0.6 Z" id="Path"></path>
                <path d="M14.5714286,6.6 L2.42857143,6.6 C1.75793995,6.6 1.21428571,7.1372583 1.21428571,7.8 L1.21428571,20.4 C1.21428571,22.0568542 2.5734213,23.4 4.25,23.4 L12.75,23.4 C14.4265787,23.4 15.7857143,22.0568542 15.7857143,20.4 L15.7857143,7.8 C15.7857143,7.1372583 15.2420601,6.6 14.5714286,6.6 Z M12.75,16.2 C12.75,16.5313708 12.4781729,16.8 12.1428571,16.8 L4.85714286,16.8 C4.52182712,16.8 4.25,16.5313708 4.25,16.2 L4.25,12 C4.25,11.6686292 4.52182712,11.4 4.85714286,11.4 L12.1428571,11.4 C12.4781729,11.4 12.75,11.6686292 12.75,12 L12.75,16.2 Z" id="Shape"></path>
            </g>
        </g>
    </symbol>
    <symbol id="radiology-scanning" name="Chest X-rays" xmlns="http://www.w3.org/2000/svg" xmlns:xlink="http://www.w3.org/1999/xlink" viewBox="0 0 24 24" version="1.1">
        <path d="M18.5,8.5H5.5A1.5,1.5,0,0,0,4,10v8a1.5,1.5,0,0,0,1.5,1.5h13A1.5,1.5,0,0,0,20,18V10A1.5,1.5,0,0,0,18.5,8.5Zm-.783,3.468A.751.751,0,0,1,17,12.5a.739.739,0,0,1-.22-.033l-1.616-.494a10.793,10.793,0,0,0-2.14-.421.25.25,0,0,0-.274.249v1.26a.249.249,0,0,0,.223.248,8.742,8.742,0,0,1,2.2.535l1.309.507a.75.75,0,0,1-.271,1.449.761.761,0,0,1-.271-.051l-1.309-.507a7.181,7.181,0,0,0-1.593-.412.249.249,0,0,0-.2.058.254.254,0,0,0-.086.189V16.25a.25.25,0,0,0,.25.25h1A.75.75,0,0,1,14,18H10a.75.75,0,0,1,0-1.5h1a.25.25,0,0,0,.25-.25V15.076a.249.249,0,0,0-.285-.247,7.181,7.181,0,0,0-1.593.412l-1.309.507a.75.75,0,0,1-.542-1.4l1.309-.507a8.742,8.742,0,0,1,2.2-.535.249.249,0,0,0,.223-.248V11.8a.25.25,0,0,0-.274-.249,10.793,10.793,0,0,0-2.14.421l-1.616.494a.75.75,0,0,1-.44-1.434L8.4,10.538a12.379,12.379,0,0,1,7.208,0l1.616.494A.75.75,0,0,1,17.717,11.968Z"/>
        <path d="M14.083,21H9.917a.5.5,0,0,0-.5.521l.083,2A.5.5,0,0,0,10,24h4a.5.5,0,0,0,.5-.479l.083-2a.5.5,0,0,0-.5-.521Z"/>
        <circle cx="12" cy="3.5" r="3.5"/>
    </symbol>
    <symbol id="laboratory-test-stool-cup" name="Stool sample" xmlns="http://www.w3.org/2000/svg" xmlns:xlink="http://www.w3.org/1999/xlink" viewBox="0 0 24 24" version="1.1">
        <path d="M22.5.25H1.5A1.5,1.5,0,0,0,0,1.75v2a.5.5,0,0,0,.5.5h23a.5.5,0,0,0,.5-.5v-2A1.5,1.5,0,0,0,22.5.25Z"/>
        <path d="M8.182,16.25A2.1,2.1,0,0,0,6,18.25a2.1,2.1,0,0,0,2.182,2h7.636a2.1,2.1,0,0,0,2.182-2,2.1,2.1,0,0,0-2.182-2A.2.2,0,0,1,15.7,15.9a1.368,1.368,0,0,0,.266-.28c1.958-2.758-.984-5.1-2.412-6.111a.25.25,0,0,0-.395.205,2.679,2.679,0,0,1-2.665,2.679H9.642a1.982,1.982,0,0,0-1.967,1.546,1.945,1.945,0,0,0,.663,1.884.244.244,0,0,1-.156.431Z"/>
        <path d="M22,5.75H21a.5.5,0,0,0-.5.5v13.5a2,2,0,0,1-2,2H5.5a2,2,0,0,1-2-2V6.25a.5.5,0,0,0-.5-.5H2a.5.5,0,0,0-.5.5v13.5a4,4,0,0,0,4,4h13a4,4,0,0,0,4-4V6.25A.5.5,0,0,0,22,5.75Z"/>
    </symbol>
    <symbol id="medical-specialty-intestine" name="Colonoscopy" xmlns="http://www.w3.org/2000/svg" xmlns:xlink="http://www.w3.org/1999/xlink" viewBox="0 0 24 24" version="1.1">
        <path d="M24,14.25a3.734,3.734,0,0,0-1.72-3.139.5.5,0,0,1-.164-.666,2.913,2.913,0,0,0-.075-3.015.5.5,0,0,1,.053-.6A3.457,3.457,0,0,0,23,4.5,3.5,3.5,0,0,0,19.5,1a3.463,3.463,0,0,0-2.037.662.5.5,0,0,1-.677-.085,2.975,2.975,0,0,0-4.428-.172.5.5,0,0,1-.716,0,2.975,2.975,0,0,0-4.428.172.5.5,0,0,1-.677.085A3.463,3.463,0,0,0,4.5,1,3.5,3.5,0,0,0,1,4.5a3.457,3.457,0,0,0,.906,2.328.5.5,0,0,1,.053.6,2.913,2.913,0,0,0-.075,3.015.5.5,0,0,1-.164.666,3.725,3.725,0,0,0,.486,6.54.5.5,0,0,1,.294.455V20.5a1.5,1.5,0,0,0,3,0V17.834a.5.5,0,0,1,.234-.424,3.7,3.7,0,0,0,.846-5.6.5.5,0,0,1,.025-.684A2.982,2.982,0,0,0,7.5,9a2.933,2.933,0,0,0-.458-1.569.5.5,0,0,1,.054-.6,3.638,3.638,0,0,0,.378-.5.5.5,0,0,1,.655-.175A2.922,2.922,0,0,0,9.5,6.5,2.983,2.983,0,0,0,11.642,5.6a.5.5,0,0,1,.716,0A2.983,2.983,0,0,0,14.5,6.5a2.922,2.922,0,0,0,1.371-.342.5.5,0,0,1,.655.175,3.638,3.638,0,0,0,.378.5.5.5,0,0,1,.054.6A2.933,2.933,0,0,0,16.5,9a2.982,2.982,0,0,0,.895,2.129.5.5,0,0,1,.025.684,3.7,3.7,0,0,0,.766,5.546.5.5,0,0,1,.143.69.988.988,0,0,1-.829.451H16.036a3.975,3.975,0,0,0-2.829,1.172l-1.268,1.267a1.5,1.5,0,0,0,2.122,2.122l1.267-1.267a.992.992,0,0,1,.708-.294H17.5a3.992,3.992,0,0,0,3.942-3.437.5.5,0,0,1,.3-.388A3.738,3.738,0,0,0,24,14.25Z"/>
    </symbol>
    <symbol id="team-meeting-chat" name="Exit interview" xmlns="http://www.w3.org/2000/svg" xmlns:xlink="http://www.w3.org/1999/xlink" viewBox="0 0 24 24" version="1.1">
        <path d="M10.652,13.746a.984.984,0,0,0,.613.214.994.994,0,0,0,.425-.1.981.981,0,0,0,.555-.884v-.773a.218.218,0,0,1,.2-.217,1.964,1.964,0,0,0,1.764-1.952V2.2A1.963,1.963,0,0,0,12.245.235H1.951A1.963,1.963,0,0,0-.01,2.2v7.842A1.963,1.963,0,0,0,1.951,12H8.382a.256.256,0,0,1,.157.055Zm-8.7-11.3A.25.25,0,0,1,2.2,2.2H12a.25.25,0,0,1,.25.25V9.788a.249.249,0,0,1-.25.25h-.73a.982.982,0,0,0-.893.574.251.251,0,0,1-.383.092l-.563-.45a.974.974,0,0,0-.612-.216H2.2a.249.249,0,0,1-.25-.25Z"/>
        <path d="M3.912,4.892h6.372a.736.736,0,1,0,0-1.471H3.912a.736.736,0,1,0,0,1.471Z"/>
        <path d="M7.343,6.362H3.912a.736.736,0,1,0,0,1.471H7.343a.736.736,0,0,0,0-1.471Z"/>
        <path d="M11.5,21.509a.248.248,0,0,0-.076-.252,4.693,4.693,0,0,0-.723-.522.249.249,0,0,1-.034-.407A3.69,3.69,0,1,0,6,20.362a.25.25,0,0,1-.028.408A4.668,4.668,0,0,0,4.024,23.1a.49.49,0,0,0,.458.664h6.54a.247.247,0,0,0,.181-.078.251.251,0,0,0,.069-.186c0-.075-.007-.15-.007-.226A6.845,6.845,0,0,1,11.5,21.509ZM6.642,17.061a.248.248,0,0,1,.145-.164.25.25,0,0,1,.22.013,4.287,4.287,0,0,0,2.941.519.068.068,0,0,1,.058.016.07.07,0,0,1,.026.054,1.725,1.725,0,0,1-3.45,0A1.625,1.625,0,0,1,6.642,17.061Z"/>
        <path d="M15.779,17.793a.251.251,0,0,1-.029.428,5.679,5.679,0,0,0-3.1,5.053.49.49,0,0,0,.49.49H23.52a.49.49,0,0,0,.49-.49,5.679,5.679,0,0,0-3.174-5.09.249.249,0,0,1-.034-.428,4.144,4.144,0,0,0,.6-.514,4.358,4.358,0,1,0-6.357-.094A4.254,4.254,0,0,0,15.779,17.793Zm3.289,3.566a.736.736,0,0,1-1.471,0V20.151a.736.736,0,0,1,1.471,0Zm-3.2-7.115a2.294,2.294,0,0,1,.13-.758.251.251,0,0,1,.372-.128,5.523,5.523,0,0,0,4.136.768.12.12,0,0,1,.144.118,2.424,2.424,0,0,1-2.392,2.391,2.358,2.358,0,0,1-.9-.179A2.391,2.391,0,0,1,15.871,14.244Z"/>
    </symbol>
    <symbol id="shipment-package" name="Supply of study medication" xmlns="http://www.w3.org/2000/svg" xmlns:xlink="http://www.w3.org/1999/xlink" viewBox="0 0 24 24" version="1.1">
        <path d="M15.973,8.271a.25.25,0,0,0,0-.455L6.216,3.368a.5.5,0,0,0-.406,0L1.993,5.024a.25.25,0,0,0,0,.46l10.29,4.288a.5.5,0,0,0,.4-.006Z"/>
        <path d="M22.062,5.5a.25.25,0,0,0,0-.456L12.4.847a1,1,0,0,0-.8,0L8.38,2.247a.25.25,0,0,0,0,.457l9.7,4.422a.5.5,0,0,0,.414,0Z"/>
        <path d="M.846,6.63A.25.25,0,0,0,.5,6.861V18.007a1,1,0,0,0,.615.923L11.4,23.217a.25.25,0,0,0,.346-.231V11.34a.251.251,0,0,0-.154-.231Z"/>
        <path d="M13.25,22.944a.251.251,0,0,0,.353.228l9.311-4.232a1,1,0,0,0,.586-.91V6.886a.25.25,0,0,0-.353-.228L13.4,11.09a.248.248,0,0,0-.147.227Z"/>
    </symbol>
    <symbol id="notes-diary-alternate" name="eDiary review" xmlns="http://www.w3.org/2000/svg" xmlns:xlink="http://www.w3.org/1999/xlink" viewBox="0 0 24 24" version="1.1">
        <path d="M20.25,0h-12A.75.75,0,0,0,7.5.75v22.5a.75.75,0,0,0,.75.75h12A1.752,1.752,0,0,0,22,22.25V1.75A1.752,1.752,0,0,0,20.25,0ZM17.5,6.5v1A1.5,1.5,0,0,1,16,9H12.5A1.5,1.5,0,0,1,11,7.5v-1A1.5,1.5,0,0,1,12.5,5H16A1.5,1.5,0,0,1,17.5,6.5Z"/>
        <path d="M5.25,0H3.75A1.752,1.752,0,0,0,2,1.75v20.5A1.752,1.752,0,0,0,3.75,24h1.5A.75.75,0,0,0,6,23.25V.75A.75.75,0,0,0,5.25,0Z"/>
    </symbol>
</svg>
