<?xml version="1.0" encoding="UTF-8"?>
<svg width="24px" height="24px" viewBox="0 0 24 24" version="1.1" xmlns="http://www.w3.org/2000/svg" xmlns:xlink="http://www.w3.org/1999/xlink">
    <!-- Generator: Sketch 51.3 (57544) - http://www.bohemiancoding.com/sketch -->
    <title>download</title>
    <desc>Created with Sketch.</desc>
    <defs></defs>
    <g id="Symbols" stroke="none" stroke-width="1" fill="none" fill-rule="evenodd">
        <g id="icon/utility/download" fill="#595959" fill-rule="nonzero">
            <g id="download-bottom">
                <path d="M22.667,16.938 C21.9976309,16.938 21.455,17.4806309 21.455,18.15 L21.455,20.005 C21.4538971,20.8720202 20.7510207,21.5744492 19.884,21.575 L4.116,21.575 C3.24897927,21.5744492 2.54610291,20.8720202 2.545,20.005 L2.545,18.15 C2.545,17.4806309 2.00236912,16.938 1.333,16.938 C0.663630883,16.938 0.121,17.4806309 0.121,18.15 L0.121,20.005 C0.120998276,22.2121879 1.90881387,24.002241 4.116,24.005 L19.884,24.005 C22.093139,24.005 23.884,22.214139 23.884,20.005 L23.884,18.15 C23.8840027,17.8276894 23.7556241,17.5186523 23.5272475,17.291214 C23.2988708,17.0637756 22.9893078,16.9366703 22.667,16.938 Z" id="Shape"></path>
                <path d="M12,0 C10.9291199,-6.55724962e-17 10.061,0.86811987 10.061,1.939 L10.061,11.005 C10.061,11.1430712 9.94907119,11.255 9.811,11.255 L7.152,11.255 C6.77212662,11.2551551 6.42730447,11.4770386 6.26975506,11.8227003 C6.11220565,12.168362 6.17092833,12.5741776 6.42,12.861 L11.268,18.437 C11.4520487,18.6491864 11.7191139,18.7710693 12,18.7710693 C12.2808861,18.7710693 12.5479513,18.6491864 12.732,18.437 L17.58,12.861 C17.8290717,12.5741776 17.8877943,12.168362 17.7302449,11.8227003 C17.5726955,11.4770386 17.2278734,11.2551551 16.848,11.255 L14.189,11.255 C14.0509288,11.255 13.939,11.1430712 13.939,11.005 L13.939,1.939 C13.939,0.86811987 13.0708801,6.55724962e-17 12,0 Z" id="Shape"></path>
            </g>
        </g>
    </g>
</svg>