<?xml version="1.0" encoding="UTF-8"?>
<svg width="24px" height="24px" viewBox="0 0 24 24" version="1.1" xmlns="http://www.w3.org/2000/svg" xmlns:xlink="http://www.w3.org/1999/xlink">
    <!-- Generator: Sketch 51.3 (57544) - http://www.bohemiancoding.com/sketch -->
    <title>filter</title>
    <desc>Created with Sketch.</desc>
    <defs></defs>
    <g id="Symbols" stroke="none" stroke-width="1" fill="none" fill-rule="evenodd">
        <g id="icon/utility/filter" fill="#0768FD" fill-rule="nonzero">
            <g id="filter-2">
                <path d="M23.894,0.552 C23.7244574,0.213659084 23.3784432,1.26993045e-05 23,0 L1,0 C0.621227942,-2.18319694e-16 0.274964823,0.214002376 0.105572809,0.552786405 C-0.0638192051,0.891570433 -0.0272632351,1.29698235 0.2,1.6 L9,13.423 L9,22 C9.00816722,23.1011688 9.89883122,23.9918328 11,24 C11.4328225,24.0005068 11.8540461,23.860099 12.2,23.6 L14.2,22.1 C14.702746,21.7215694 14.9989031,21.1292552 15,20.5 L15,13.423 L23.8,1.6 C24.0274424,1.29672229 24.0638414,0.890911944 23.894,0.552 Z M5.417,2.2 L9.356,7.45 C9.42091106,7.53654809 9.456,7.64181489 9.456,7.75 L9.456,9 C9.456,9.2152152 9.31828495,9.40628463 9.11411388,9.47434165 C8.90994281,9.54239867 8.68512912,9.47217216 8.556,9.3 L3.62,2.8 C3.50636838,2.64849118 3.4880904,2.44578522 3.5727864,2.2763932 C3.65748241,2.10700119 3.83061397,2 4.02,2 L5.02,2 C5.17632205,2.00094007 5.3232079,2.07493798 5.417,2.2 Z" id="Shape"></path>
            </g>
        </g>
    </g>
</svg>