<?xml version="1.0" encoding="UTF-8"?>
<svg width="20px" height="20px" viewBox="0 0 20 20" version="1.1" xmlns="http://www.w3.org/2000/svg" xmlns:xlink="http://www.w3.org/1999/xlink">
    <title>home</title>
    <defs>
        <path d="M8.99005563,5.37954587 C9.57353558,4.87348471 10.4280855,4.87348471 11.0115655,5.37954587 L11.0115655,5.37954587 L17.7391243,11.197805 C18.1049689,11.5365594 18.3196568,12.0141066 18.3333333,12.5193811 L18.3333333,12.5193811 L18.3333333,18.3376402 C18.34181,19.2457467 17.63175,19.9894985 16.7462014,20 L16.7462014,20 L12.3805832,20 C11.937714,19.9949771 11.5825547,19.6229658 11.5870554,19.1688201 L11.5870554,19.1688201 L11.5870554,14.5973308 C11.5911083,14.1433699 11.2362072,13.7716291 10.7935277,13.7661509 L10.7935277,13.7661509 L9.20647228,13.7661509 C8.76379282,13.7716291 8.40889174,14.1433699 8.41294456,14.5973308 L8.41294456,14.5973308 L8.41294456,19.1688201 C8.41744535,19.6229658 8.06228603,19.9949771 7.61941685,20 L7.61941685,20 L3.25379857,20 C2.36825004,19.9894985 1.65818995,19.2457467 1.66666667,18.3376402 L1.66666667,18.3376402 L1.66666667,12.5193811 C1.68198147,12.0155827 1.89717603,11.5400123 2.26249683,11.2027921 L2.26249683,11.2027921 Z M8.1626377,0.649662218 C9.22834765,-0.216554073 10.7673962,-0.216554073 11.8331062,0.649662218 L11.8331062,0.649662218 L19.5358125,6.9286462 C20.0734976,7.3724343 20.1557151,8.15724802 19.7213788,8.69998593 C19.5161393,8.95877163 19.2133491,9.12461291 18.8820264,9.15970787 C18.5507037,9.19480283 18.2190832,9.09616074 17.9627545,8.88626609 L17.9627545,8.88626609 L10.2600483,2.60728211 C10.1079426,2.48315698 9.88780128,2.48315698 9.73569562,2.60728211 L9.73569562,2.60728211 L2.03298935,8.88626609 C1.77670844,9.09436356 1.44618268,9.19190032 1.1160611,9.15684776 C0.785939519,9.1217952 0.484066976,8.9571099 0.278621176,8.69998593 C-0.155715085,8.15724802 -0.0734976421,7.3724343 0.464187533,6.9286462 L0.464187533,6.9286462 Z" id="path-1"></path>
    </defs>
    <g id="SH38311-Study-Files/Nurse-Credentials" stroke="none" stroke-width="1" fill="none" fill-rule="evenodd">
        <g id="icon/house">
            <mask id="mask-2" fill="white">
                <use xlink:href="#path-1"></use>
            </mask>
            <use id="home" fill="#000000" fill-rule="nonzero" xlink:href="#path-1"></use>
        </g>
    </g>
</svg>