<svg width="40" height="40" viewBox="0 0 40 40" fill="none" xmlns="http://www.w3.org/2000/svg">
<path fill-rule="evenodd" clip-rule="evenodd" d="M26.2498 17.9165C27.4004 17.9165 28.3332 18.8493 28.3332 19.9998C28.3332 21.1504 27.4004 22.0832 26.2498 22.0832C25.0993 22.0832 24.1665 21.1504 24.1665 19.9998C24.1665 18.8493 25.0993 17.9165 26.2498 17.9165ZM19.9998 17.9165C21.1504 17.9165 22.0832 18.8493 22.0832 19.9998C22.0832 21.1504 21.1504 22.0832 19.9998 22.0832C18.8493 22.0832 17.9165 21.1504 17.9165 19.9998C17.9165 18.8493 18.8493 17.9165 19.9998 17.9165ZM13.7498 17.9165C14.9004 17.9165 15.8332 18.8493 15.8332 19.9998C15.8332 21.1504 14.9004 22.0832 13.7498 22.0832C12.5993 22.0832 11.6665 21.1504 11.6665 19.9998C11.6665 18.8493 12.5993 17.9165 13.7498 17.9165Z" fill="#595959"/>
</svg>
