<?xml version="1.0" encoding="UTF-8"?>
<svg width="12px" height="12px" viewBox="0 0 12 12" version="1.1" xmlns="http://www.w3.org/2000/svg" xmlns:xlink="http://www.w3.org/1999/xlink">
    <title>trash-delete-red</title>
    <defs>
        <path d="M9.25,3.75 L1.75,3.75 C1.61192881,3.75 1.5,3.86192881 1.5,4 L1.5,11 C1.5,11.5522847 1.94771525,12 2.5,12 L8.5,12 C9.05228475,12 9.5,11.5522847 9.5,11 L9.5,4 C9.5,3.86192881 9.38807119,3.75 9.25,3.75 Z M4.625,10.25 C4.625,10.4571068 4.45710678,10.625 4.25,10.625 C4.04289322,10.625 3.875,10.4571068 3.875,10.25 L3.875,5.75 C3.875,5.54289322 4.04289322,5.375 4.25,5.375 C4.45710678,5.375 4.625,5.54289322 4.625,5.75 L4.625,10.25 Z M6.75,5.375 C6.95710678,5.375 7.125,5.54289322 7.125,5.75 L7.125,10.25 C7.125,10.4571068 6.95710678,10.625 6.75,10.625 C6.54289322,10.625 6.375,10.4571068 6.375,10.25 L6.375,5.75 C6.375,5.54289322 6.54289322,5.375 6.75,5.375 Z M6.75,0 C7.44035594,0 8,0.559644063 8,1.25 L8,1.25 L8,1.875 C8,1.94403559 8.05596441,2 8.125,2 L8.125,2 L10.5,2 C10.7761424,2 11,2.22385763 11,2.5 C11,2.77614237 10.7761424,3 10.5,3 L10.5,3 L0.5,3 C0.223857625,3 0,2.77614237 0,2.5 C0,2.22385763 0.223857625,2 0.5,2 L0.5,2 L2.875,2 C2.90815206,2 2.9399463,1.98683039 2.96338835,1.96338835 C2.98683039,1.9399463 3,1.90815206 3,1.875 L3,1.875 L3,1.25 C3,0.559644063 3.55964406,0 4.25,0 L4.25,0 Z M6.75,1 L4.25,1 C4.11192881,1 4,1.11192881 4,1.25 L4,1.25 L4,1.875 C4,1.94403559 4.05596441,2 4.125,2 L4.125,2 L6.875,2 C6.94403559,2 7,1.94403559 7,1.875 L7,1.875 L7,1.25 C7,1.11192881 6.88807119,1 6.75,1 L6.75,1 Z" id="path-1"></path>
    </defs>
    <g id="Symbols" stroke="none" stroke-width="1" fill="none" fill-rule="evenodd">
        <g id="icon/close" transform="translate(0.500000, 0.000000)">
            <mask id="mask-2" fill="#E20000">
                <use xlink:href="#path-1"></use>
            </mask>
            <use id="Mask" fill="#E20000" fill-rule="nonzero" xlink:href="#path-1"></use>
            <g id="color" mask="url(#mask-2)" fill="#E20000">
                <g transform="translate(-0.500000, 0.000000)" id="Rectangle">
                    <rect x="0" y="0" width="12" height="12"></rect>
                </g>
            </g>
        </g>
    </g>
</svg>