<?xml version="1.0" encoding="UTF-8"?>
<svg width="20px" height="24px" viewBox="0 0 20 24" version="1.1" xmlns="http://www.w3.org/2000/svg" xmlns:xlink="http://www.w3.org/1999/xlink">
    <title>icon/upload</title>
    <defs>
        <path d="M14.75,0 C14.8872939,0 14.9989016,0.110710498 15,0.248 L15,0.248 L15,4.5 C15,5.88071187 16.1192881,7 17.5,7 L17.5,7 L21.75,7 C21.8872939,7 21.9989016,7.1107105 22,7.248 L22,7.248 L22,22 C22,23.1045695 21.1045695,24 20,24 L20,24 L4,24 C2.8954305,24 2,23.1045695 2,22 L2,22 L2,2 C2,0.8954305 2.8954305,0 4,0 L4,0 Z M12.5273433,6.21995866 C12.23137,5.92845527 11.7704698,5.92645258 11.4721965,6.21537386 L11.4721965,6.21537386 L7.22388073,10.4295682 C7.08346458,10.5676982 7.00267983,10.7596521 7,10.9613791 C6.99745111,11.1631061 7.07323163,11.3572851 7.21001642,11.4993546 L7.21001642,11.4993546 L7.42892655,11.7285946 C7.72118984,12.0217193 8.17860966,12.0333135 8.48407335,11.7553392 L8.48407335,11.7553392 L10.3615925,9.99783297 C10.6607697,9.71816023 10.905949,9.83278021 10.905949,10.2530534 L10.905949,10.2530534 L10.905949,18.100047 C10.905949,18.5220661 11.2347545,19 11.6377569,19 L11.6377569,19 L12.3456733,19 C12.7486757,19 13.0950503,18.5220661 13.0950503,18.100047 L13.0950503,18.100047 L13.0950503,10.2645154 C13.0950503,9.8442422 13.3409593,9.73267876 13.6328395,10.0169363 L13.6328395,10.0169363 L15.5191151,11.8325167 C15.8211564,12.1166078 16.281961,12.1062412 16.5720728,11.8088285 L16.5720728,11.8088285 L16.7909829,11.5795886 C16.9270868,11.4365771 17.0024127,11.242163 17,11.0402736 C16.9974693,10.8383841 16.9174086,10.6460562 16.7778483,10.5067456 L16.7778483,10.5067456 Z M16.1551894,0.370222017 C16.2485457,0.331961198 16.3557504,0.353566137 16.427,0.425 L16.427,0.425 L21.577,5.573 C21.6486884,5.6445071 21.6701651,5.75219472 21.6313922,5.84573164 C21.5926192,5.93926856 21.5012544,6.00018116 21.4,6.0000004 L21.4,6.0000004 L17.5,6.0000004 C16.6715729,6.0000004 16,5.32842712 16,4.5 L16,4.5 L16,0.6 C16.0006248,0.499109381 16.061833,0.408482836 16.1551894,0.370222017 Z" id="path-1"></path>
    </defs>
    <g id="Televisit-Revamp-(no-story-yet)" stroke="none" stroke-width="1" fill="none" fill-rule="evenodd">
        <g id="Group" transform="translate(-2.000000, 0.000000)">
            <mask id="mask-2" fill="white">
                <use xlink:href="#path-1"></use>
            </mask>
            <use id="Mask" fill="#000000" fill-rule="nonzero" xlink:href="#path-1"></use>
            <g mask="url(#mask-2)" fill="#0768FD" id="color">
                <g>
                    <rect id="Rectangle" x="0" y="0" width="24" height="24"></rect>
                </g>
            </g>
        </g>
    </g>
</svg>