<?xml version="1.0" encoding="UTF-8"?>
<svg width="21px" height="24px" viewBox="0 0 21 24" version="1.1" xmlns="http://www.w3.org/2000/svg" xmlns:xlink="http://www.w3.org/1999/xlink">
    <title>icon/user</title>
    <defs>
        <path d="M12.3039095,13.0311824 C15.7854626,13.0311824 18.6078191,10.1140528 18.6078191,6.51559118 C18.6078191,2.91712954 15.7854626,0 12.3039095,0 C8.82235643,0 6,2.91712954 6,6.51559118 C6,10.1140528 8.82235643,13.0311824 12.3039095,13.0311824 Z M12.3306675,14.0090028 C7.56726542,13.8082165 3.29726972,17.0241346 2.02285644,21.7722604 C1.93218245,22.2622634 2.11555083,22.7633656 2.49726413,23.0687039 C2.95010388,23.4464016 3.51756267,23.6464528 4.09932152,23.6334911 L20.5644974,23.6334911 C21.1462562,23.6464528 21.713715,23.4464016 22.1665547,23.0687039 C22.548268,22.7633656 22.7316364,22.2622634 22.6409624,21.7722604 C21.3663398,17.0231673 17.09498,13.8069967 12.3306675,14.0090028 L12.3306675,14.0090028 Z" id="path-1"></path>
    </defs>
    <g id="Sharing-Options" stroke="none" stroke-width="1" fill="none" fill-rule="evenodd">
        <g id="Group" transform="translate(-2.000000, 0.000000)">
            <mask id="mask-2" fill="white">
                <use xlink:href="#path-1"></use>
            </mask>
            <use id="Mask" fill="#595959" fill-rule="nonzero" xlink:href="#path-1"></use>
            <g mask="url(#mask-2)" fill="#595959" id="color">
                <g>
                    <rect id="Rectangle" x="0" y="0" width="24" height="24"></rect>
                </g>
            </g>
        </g>
    </g>
</svg>