<?xml version="1.0" encoding="UTF-8"?>
<svg width="338px" height="30px" viewBox="0 0 338 30" version="1.1" xmlns="http://www.w3.org/2000/svg" xmlns:xlink="http://www.w3.org/1999/xlink">
    <!-- Generator: Sketch 53.2 (72643) - https://sketchapp.com -->
    <title>Referral Hub Logo</title>
    <desc>Created with Sketch.</desc>
    <g id="Referral-Hub-Logo" stroke="none" stroke-width="1" fill="none" fill-rule="evenodd">
        <g id="Logo" transform="translate(2.000000, 1.000000)" fill="#FFFFFF" fill-rule="nonzero">
            <path d="M143.948,26 L139.232,17.468 L135.488,17.468 L135.488,26 L130.376,26 L130.376,1.988 L141.608,1.988 C146.612,1.988 149.672,5.264 149.672,9.728 C149.672,13.976 147.008,16.244 144.416,16.856 L149.816,26 L143.948,26 Z M144.452,9.728 C144.452,7.712 142.904,6.488 140.852,6.488 L135.488,6.488 L135.488,12.968 L140.852,12.968 C142.904,12.968 144.452,11.744 144.452,9.728 Z M152.3,17.288 C152.3,12.248 156.008,8.18 161.3,8.18 C166.484,8.18 170.012,12.068 170.012,17.756 L170.012,18.764 L157.088,18.764 C157.376,20.96 159.14,22.796 162.092,22.796 C163.712,22.796 165.62,22.148 166.736,21.068 L168.752,24.02 C167.024,25.604 164.288,26.432 161.588,26.432 C156.296,26.432 152.3,22.868 152.3,17.288 Z M161.3,11.816 C158.456,11.816 157.232,13.94 157.016,15.668 L165.584,15.668 C165.476,14.012 164.324,11.816 161.3,11.816 Z M174.332,26 L174.332,12.608 L171.452,12.608 L171.452,8.612 L174.332,8.612 L174.332,7.676 C174.332,3.896 176.78,1.628 180.2,1.628 C181.496,1.628 182.684,1.916 183.512,2.348 L182.576,5.588 C182.18,5.336 181.64,5.228 181.1,5.228 C179.804,5.228 178.94,6.092 178.94,7.748 L178.94,8.612 L182.468,8.612 L182.468,12.608 L178.94,12.608 L178.94,26 L174.332,26 Z M183.98,17.288 C183.98,12.248 187.688,8.18 192.98,8.18 C198.164,8.18 201.692,12.068 201.692,17.756 L201.692,18.764 L188.768,18.764 C189.056,20.96 190.82,22.796 193.772,22.796 C195.392,22.796 197.3,22.148 198.416,21.068 L200.432,24.02 C198.704,25.604 195.968,26.432 193.268,26.432 C187.976,26.432 183.98,22.868 183.98,17.288 Z M192.98,11.816 C190.136,11.816 188.912,13.94 188.696,15.668 L197.264,15.668 C197.156,14.012 196.004,11.816 192.98,11.816 Z M205.004,26 L205.004,8.612 L209.576,8.612 L209.576,10.988 C210.8,9.44 212.96,8.216 215.12,8.216 L215.12,12.68 C214.796,12.608 214.364,12.536 213.86,12.536 C212.348,12.536 210.332,13.4 209.576,14.516 L209.576,26 L205.004,26 Z M217.964,26 L217.964,8.612 L222.536,8.612 L222.536,10.988 C223.76,9.44 225.92,8.216 228.08,8.216 L228.08,12.68 C227.756,12.608 227.324,12.536 226.82,12.536 C225.308,12.536 223.292,13.4 222.536,14.516 L222.536,26 L217.964,26 Z M241.364,26 L241.364,24.2 C240.176,25.604 238.124,26.432 235.856,26.432 C233.084,26.432 229.808,24.56 229.808,20.672 C229.808,16.604 233.084,15.128 235.856,15.128 C238.16,15.128 240.212,15.848 241.364,17.252 L241.364,14.84 C241.364,13.076 239.852,11.924 237.548,11.924 C235.676,11.924 233.948,12.608 232.472,13.976 L230.744,10.916 C232.868,9.044 235.604,8.18 238.34,8.18 C242.3,8.18 245.936,9.764 245.936,14.768 L245.936,26 L241.364,26 Z M241.364,21.824 L241.364,19.664 C240.608,18.656 239.168,18.152 237.692,18.152 C235.892,18.152 234.416,19.088 234.416,20.78 C234.416,22.4 235.892,23.336 237.692,23.336 C239.168,23.336 240.608,22.832 241.364,21.824 Z M250.472,26 L250.472,1.988 L255.044,1.988 L255.044,26 L250.472,26 Z M285.356,26 L285.356,15.92 L274.016,15.92 L274.016,26 L268.904,26 L268.904,1.988 L274.016,1.988 L274.016,11.42 L285.356,11.42 L285.356,1.988 L290.504,1.988 L290.504,26 L285.356,26 Z M306.848,26 L306.848,23.804 C305.66,25.136 303.572,26.432 300.728,26.432 C296.912,26.432 295.112,24.344 295.112,20.96 L295.112,8.612 L299.684,8.612 L299.684,19.16 C299.684,21.572 300.944,22.364 302.888,22.364 C304.652,22.364 306.056,21.392 306.848,20.384 L306.848,8.612 L311.42,8.612 L311.42,26 L306.848,26 Z M315.956,26 L315.956,1.988 L320.528,1.988 L320.528,10.844 C321.896,9.08 323.84,8.18 325.892,8.18 C330.32,8.18 333.596,11.636 333.596,17.324 C333.596,23.12 330.284,26.432 325.892,26.432 C323.804,26.432 321.896,25.496 320.528,23.768 L320.528,26 L315.956,26 Z M320.528,20.42 C321.284,21.536 322.976,22.364 324.452,22.364 C327.116,22.364 328.88,20.348 328.88,17.324 C328.88,14.3 327.116,12.248 324.452,12.248 C322.976,12.248 321.284,13.112 320.528,14.264 L320.528,20.42 Z" id="ReferralHub"></path>
            <path d="M0.376,26 L0.376,1.988 L5.488,1.988 L5.488,26 L0.376,26 Z M34.18,14.012 C34.18,17.396 32.992,20.312 31.048,22.508 L32.812,24.56 L29.248,27.476 L27.34,25.208 C25.648,26 23.704,26.432 21.616,26.432 C14.38,26.432 9.088,21.248 9.088,14.012 C9.088,6.776 14.38,1.592 21.616,1.592 C28.888,1.592 34.18,6.776 34.18,14.012 Z M21.616,21.896 C22.516,21.896 23.38,21.752 24.136,21.464 L21.508,18.404 L25.036,15.488 L27.7,18.584 C28.492,17.324 28.924,15.74 28.924,14.012 C28.924,9.512 26.044,6.128 21.616,6.128 C17.188,6.128 14.344,9.512 14.344,14.012 C14.344,18.476 17.188,21.896 21.616,21.896 Z M44.512,26 L35.224,1.988 L41.056,1.988 L47.716,20.456 L54.34,1.988 L60.172,1.988 L50.92,26 L44.512,26 Z M62.404,26 L62.404,1.988 L67.516,1.988 L67.516,26 L62.404,26 Z M88.828,26 L87.352,21.932 L77.056,21.932 L75.544,26 L69.712,26 L79,1.988 L85.408,1.988 L94.66,26 L88.828,26 Z M82.204,7.1 L78.46,17.432 L85.948,17.432 L82.204,7.1 Z" id="IQVIA"></path>
            <path d="M102.554,13 L102.554,1.93 L98.63,1.93 L98.63,0.994 L107.522,0.994 L107.522,1.93 L103.598,1.93 L103.598,13 L102.554,13 Z M119.834,13 L119.834,2.398 L115.46,13 L115.064,13 L110.672,2.398 L110.672,13 L109.646,13 L109.646,0.994 L111.176,0.994 L115.262,10.894 L119.33,0.994 L120.878,0.994 L120.878,13 L119.834,13 Z" id="TM"></path>
        </g>
    </g>
</svg>