<?xml version="1.0" encoding="UTF-8"?>
<svg width="281px" height="52px" viewBox="0 0 281 52" version="1.1" xmlns="http://www.w3.org/2000/svg" xmlns:xlink="http://www.w3.org/1999/xlink">
    <!-- Generator: Sketch 53.2 (72643) - https://sketchapp.com -->
    <title>Artboard</title>
    <desc>Created with Sketch.</desc>
    <g id="Artboard" stroke="none" stroke-width="1" fill="none" fill-rule="evenodd">
        <g id="Group-2" fill="#FFFFFF" fill-rule="nonzero">
            <path d="M60.708,49 L60.708,38.328 L67.876,38.328 L67.876,39.736 L62.308,39.736 L62.308,42.856 L67.764,42.856 L67.764,44.264 L62.308,44.264 L62.308,49 L60.708,49 Z M72.996,49.192 C70.596,49.192 69.092,47.368 69.092,45.128 C69.092,42.904 70.596,41.08 72.996,41.08 C75.412,41.08 76.9,42.904 76.9,45.128 C76.9,47.368 75.412,49.192 72.996,49.192 Z M72.996,47.912 C74.548,47.912 75.396,46.6 75.396,45.128 C75.396,43.672 74.548,42.36 72.996,42.36 C71.46,42.36 70.596,43.672 70.596,45.128 C70.596,46.6 71.46,47.912 72.996,47.912 Z M78.724,49 L78.724,41.272 L80.164,41.272 L80.164,42.456 C80.756,41.688 81.668,41.096 82.692,41.096 L82.692,42.552 C82.548,42.52 82.388,42.504 82.196,42.504 C81.476,42.504 80.5,43.048 80.164,43.624 L80.164,49 L78.724,49 Z M95.796,49 L95.796,44.232 L89.892,44.232 L89.892,49 L88.292,49 L88.292,38.328 L89.892,38.328 L89.892,42.808 L95.796,42.808 L95.796,38.328 L97.396,38.328 L97.396,49 L95.796,49 Z M99.252,45.128 C99.252,42.888 100.868,41.08 103.124,41.08 C105.444,41.08 106.884,42.888 106.884,45.256 L106.884,45.608 L100.772,45.608 C100.884,46.92 101.844,48.008 103.396,48.008 C104.212,48.008 105.108,47.688 105.684,47.096 L106.356,48.04 C105.588,48.792 104.5,49.192 103.252,49.192 C100.948,49.192 99.252,47.56 99.252,45.128 Z M103.124,42.264 C101.572,42.264 100.836,43.512 100.756,44.568 L105.476,44.568 C105.444,43.544 104.756,42.264 103.124,42.264 Z M113.46,49 L113.46,48.152 C112.852,48.824 111.972,49.192 110.932,49.192 C109.652,49.192 108.244,48.328 108.244,46.632 C108.244,44.872 109.636,44.104 110.932,44.104 C111.972,44.104 112.868,44.44 113.46,45.128 L113.46,43.848 C113.46,42.888 112.676,42.312 111.572,42.312 C110.692,42.312 109.94,42.648 109.252,43.336 L108.628,42.344 C109.492,41.496 110.548,41.08 111.796,41.08 C113.476,41.08 114.9,41.816 114.9,43.784 L114.9,49 L113.46,49 Z M113.46,47.304 L113.46,45.992 C113.028,45.416 112.276,45.112 111.476,45.112 C110.436,45.112 109.7,45.736 109.7,46.648 C109.7,47.56 110.436,48.184 111.476,48.184 C112.276,48.184 113.028,47.88 113.46,47.304 Z M117.204,49 L117.204,38.328 L118.644,38.328 L118.644,49 L117.204,49 Z M123.06,49.192 C121.844,49.192 121.22,48.504 121.22,47.288 L121.22,42.536 L119.94,42.536 L119.94,41.272 L121.22,41.272 L121.22,39.16 L122.66,39.16 L122.66,41.272 L124.228,41.272 L124.228,42.536 L122.66,42.536 L122.66,46.968 C122.66,47.512 122.916,47.912 123.412,47.912 C123.748,47.912 124.052,47.768 124.196,47.608 L124.564,48.696 C124.26,48.984 123.812,49.192 123.06,49.192 Z M131.044,49 L131.044,44.024 C131.044,42.744 130.388,42.36 129.396,42.36 C128.5,42.36 127.684,42.904 127.268,43.48 L127.268,49 L125.828,49 L125.828,38.328 L127.268,38.328 L127.268,42.36 C127.78,41.736 128.82,41.08 130.004,41.08 C131.652,41.08 132.484,41.912 132.484,43.544 L132.484,49 L131.044,49 Z M134.308,45.128 C134.308,42.808 135.908,41.08 138.244,41.08 C139.7,41.08 140.58,41.688 141.14,42.44 L140.18,43.32 C139.716,42.664 139.092,42.36 138.308,42.36 C136.788,42.36 135.812,43.528 135.812,45.128 C135.812,46.728 136.788,47.912 138.308,47.912 C139.092,47.912 139.716,47.592 140.18,46.952 L141.14,47.832 C140.58,48.584 139.7,49.192 138.244,49.192 C135.908,49.192 134.308,47.448 134.308,45.128 Z M147.492,49 L147.492,48.152 C146.884,48.824 146.004,49.192 144.964,49.192 C143.684,49.192 142.276,48.328 142.276,46.632 C142.276,44.872 143.668,44.104 144.964,44.104 C146.004,44.104 146.9,44.44 147.492,45.128 L147.492,43.848 C147.492,42.888 146.708,42.312 145.604,42.312 C144.724,42.312 143.972,42.648 143.284,43.336 L142.66,42.344 C143.524,41.496 144.58,41.08 145.828,41.08 C147.508,41.08 148.932,41.816 148.932,43.784 L148.932,49 L147.492,49 Z M147.492,47.304 L147.492,45.992 C147.06,45.416 146.308,45.112 145.508,45.112 C144.468,45.112 143.732,45.736 143.732,46.648 C143.732,47.56 144.468,48.184 145.508,48.184 C146.308,48.184 147.06,47.88 147.492,47.304 Z M151.236,49 L151.236,41.272 L152.676,41.272 L152.676,42.456 C153.268,41.688 154.18,41.096 155.204,41.096 L155.204,42.552 C155.06,42.52 154.9,42.504 154.708,42.504 C153.988,42.504 153.012,43.048 152.676,43.624 L152.676,49 L151.236,49 Z M156.164,45.128 C156.164,42.888 157.78,41.08 160.036,41.08 C162.356,41.08 163.796,42.888 163.796,45.256 L163.796,45.608 L157.684,45.608 C157.796,46.92 158.756,48.008 160.308,48.008 C161.124,48.008 162.02,47.688 162.596,47.096 L163.268,48.04 C162.5,48.792 161.412,49.192 160.164,49.192 C157.86,49.192 156.164,47.56 156.164,45.128 Z M160.036,42.264 C158.484,42.264 157.748,43.512 157.668,44.568 L162.388,44.568 C162.356,43.544 161.668,42.264 160.036,42.264 Z M169.764,49 L169.764,38.328 L174.26,38.328 C176.452,38.328 177.668,39.832 177.668,41.608 C177.668,43.384 176.436,44.888 174.26,44.888 L171.364,44.888 L171.364,49 L169.764,49 Z M176.02,41.608 C176.02,40.488 175.204,39.736 174.052,39.736 L171.364,39.736 L171.364,43.48 L174.052,43.48 C175.204,43.48 176.02,42.728 176.02,41.608 Z M179.284,49 L179.284,41.272 L180.724,41.272 L180.724,42.456 C181.316,41.688 182.228,41.096 183.252,41.096 L183.252,42.552 C183.108,42.52 182.948,42.504 182.756,42.504 C182.036,42.504 181.06,43.048 180.724,43.624 L180.724,49 L179.284,49 Z M188.116,49.192 C185.716,49.192 184.212,47.368 184.212,45.128 C184.212,42.904 185.716,41.08 188.116,41.08 C190.532,41.08 192.02,42.904 192.02,45.128 C192.02,47.368 190.532,49.192 188.116,49.192 Z M188.116,47.912 C189.668,47.912 190.516,46.6 190.516,45.128 C190.516,43.672 189.668,42.36 188.116,42.36 C186.58,42.36 185.716,43.672 185.716,45.128 C185.716,46.6 186.58,47.912 188.116,47.912 Z M195.892,49 L192.708,41.272 L194.244,41.272 L196.66,47.336 L199.076,41.272 L200.628,41.272 L197.444,49 L195.892,49 Z M202.5,40.248 C202.004,40.248 201.572,39.832 201.572,39.32 C201.572,38.808 202.004,38.408 202.5,38.408 C203.012,38.408 203.428,38.808 203.428,39.32 C203.428,39.832 203.012,40.248 202.5,40.248 Z M201.796,49 L201.796,41.272 L203.236,41.272 L203.236,49 L201.796,49 Z M211.028,49 L211.028,47.896 C210.452,48.664 209.524,49.192 208.5,49.192 C206.484,49.192 205.044,47.672 205.044,45.144 C205.044,42.664 206.484,41.08 208.5,41.08 C209.492,41.08 210.404,41.56 211.028,42.392 L211.028,38.328 L212.468,38.328 L212.468,49 L211.028,49 Z M211.028,46.792 L211.028,43.496 C210.628,42.872 209.764,42.36 208.884,42.36 C207.444,42.36 206.548,43.528 206.548,45.144 C206.548,46.744 207.444,47.912 208.884,47.912 C209.764,47.912 210.628,47.416 211.028,46.792 Z M214.292,45.128 C214.292,42.888 215.908,41.08 218.164,41.08 C220.484,41.08 221.924,42.888 221.924,45.256 L221.924,45.608 L215.812,45.608 C215.924,46.92 216.884,48.008 218.436,48.008 C219.252,48.008 220.148,47.688 220.724,47.096 L221.396,48.04 C220.628,48.792 219.54,49.192 218.292,49.192 C215.988,49.192 214.292,47.56 214.292,45.128 Z M218.164,42.264 C216.612,42.264 215.876,43.512 215.796,44.568 L220.516,44.568 C220.484,43.544 219.796,42.264 218.164,42.264 Z M223.732,49 L223.732,41.272 L225.172,41.272 L225.172,42.456 C225.764,41.688 226.676,41.096 227.7,41.096 L227.7,42.552 C227.556,42.52 227.396,42.504 227.204,42.504 C226.484,42.504 225.508,43.048 225.172,43.624 L225.172,49 L223.732,49 Z M228.468,47.992 L229.156,46.936 C229.684,47.512 230.708,48.04 231.748,48.04 C232.836,48.04 233.412,47.544 233.412,46.856 C233.412,46.12 232.532,45.912 231.54,45.688 C230.228,45.384 228.692,45.032 228.692,43.368 C228.692,42.136 229.748,41.08 231.636,41.08 C232.964,41.08 233.924,41.56 234.58,42.184 L233.94,43.192 C233.492,42.648 232.628,42.248 231.652,42.248 C230.676,42.248 230.068,42.696 230.068,43.32 C230.068,43.976 230.9,44.152 231.86,44.376 C233.204,44.68 234.804,45.048 234.804,46.824 C234.804,48.152 233.716,49.192 231.684,49.192 C230.388,49.192 229.252,48.792 228.468,47.992 Z" id="ForHealthcareProviders"></path>
            <g id="Logo">
                <path d="M120.29,23 L116.36,15.89 L113.24,15.89 L113.24,23 L108.98,23 L108.98,2.99 L118.34,2.99 C122.51,2.99 125.06,5.72 125.06,9.44 C125.06,12.98 122.84,14.87 120.68,15.38 L125.18,23 L120.29,23 Z M120.71,9.44 C120.71,7.76 119.42,6.74 117.71,6.74 L113.24,6.74 L113.24,12.14 L117.71,12.14 C119.42,12.14 120.71,11.12 120.71,9.44 Z M127.25,15.74 C127.25,11.54 130.34,8.15 134.75,8.15 C139.07,8.15 142.01,11.39 142.01,16.13 L142.01,16.97 L131.24,16.97 C131.48,18.8 132.95,20.33 135.41,20.33 C136.76,20.33 138.35,19.79 139.28,18.89 L140.96,21.35 C139.52,22.67 137.24,23.36 134.99,23.36 C130.58,23.36 127.25,20.39 127.25,15.74 Z M134.75,11.18 C132.38,11.18 131.36,12.95 131.18,14.39 L138.32,14.39 C138.23,13.01 137.27,11.18 134.75,11.18 Z M145.61,23 L145.61,11.84 L143.21,11.84 L143.21,8.51 L145.61,8.51 L145.61,7.73 C145.61,4.58 147.65,2.69 150.5,2.69 C151.58,2.69 152.57,2.93 153.26,3.29 L152.48,5.99 C152.15,5.78 151.7,5.69 151.25,5.69 C150.17,5.69 149.45,6.41 149.45,7.79 L149.45,8.51 L152.39,8.51 L152.39,11.84 L149.45,11.84 L149.45,23 L145.61,23 Z M153.65,15.74 C153.65,11.54 156.74,8.15 161.15,8.15 C165.47,8.15 168.41,11.39 168.41,16.13 L168.41,16.97 L157.64,16.97 C157.88,18.8 159.35,20.33 161.81,20.33 C163.16,20.33 164.75,19.79 165.68,18.89 L167.36,21.35 C165.92,22.67 163.64,23.36 161.39,23.36 C156.98,23.36 153.65,20.39 153.65,15.74 Z M161.15,11.18 C158.78,11.18 157.76,12.95 157.58,14.39 L164.72,14.39 C164.63,13.01 163.67,11.18 161.15,11.18 Z M171.17,23 L171.17,8.51 L174.98,8.51 L174.98,10.49 C176,9.2 177.8,8.18 179.6,8.18 L179.6,11.9 C179.33,11.84 178.97,11.78 178.55,11.78 C177.29,11.78 175.61,12.5 174.98,13.43 L174.98,23 L171.17,23 Z M181.97,23 L181.97,8.51 L185.78,8.51 L185.78,10.49 C186.8,9.2 188.6,8.18 190.4,8.18 L190.4,11.9 C190.13,11.84 189.77,11.78 189.35,11.78 C188.09,11.78 186.41,12.5 185.78,13.43 L185.78,23 L181.97,23 Z M201.47,23 L201.47,21.5 C200.48,22.67 198.77,23.36 196.88,23.36 C194.57,23.36 191.84,21.8 191.84,18.56 C191.84,15.17 194.57,13.94 196.88,13.94 C198.8,13.94 200.51,14.54 201.47,15.71 L201.47,13.7 C201.47,12.23 200.21,11.27 198.29,11.27 C196.73,11.27 195.29,11.84 194.06,12.98 L192.62,10.43 C194.39,8.87 196.67,8.15 198.95,8.15 C202.25,8.15 205.28,9.47 205.28,13.64 L205.28,23 L201.47,23 Z M201.47,19.52 L201.47,17.72 C200.84,16.88 199.64,16.46 198.41,16.46 C196.91,16.46 195.68,17.24 195.68,18.65 C195.68,20 196.91,20.78 198.41,20.78 C199.64,20.78 200.84,20.36 201.47,19.52 Z M209.06,23 L209.06,2.99 L212.87,2.99 L212.87,23 L209.06,23 Z M238.13,23 L238.13,14.6 L228.68,14.6 L228.68,23 L224.42,23 L224.42,2.99 L228.68,2.99 L228.68,10.85 L238.13,10.85 L238.13,2.99 L242.42,2.99 L242.42,23 L238.13,23 Z M256.04,23 L256.04,21.17 C255.05,22.28 253.31,23.36 250.94,23.36 C247.76,23.36 246.26,21.62 246.26,18.8 L246.26,8.51 L250.07,8.51 L250.07,17.3 C250.07,19.31 251.12,19.97 252.74,19.97 C254.21,19.97 255.38,19.16 256.04,18.32 L256.04,8.51 L259.85,8.51 L259.85,23 L256.04,23 Z M263.63,23 L263.63,2.99 L267.44,2.99 L267.44,10.37 C268.58,8.9 270.2,8.15 271.91,8.15 C275.6,8.15 278.33,11.03 278.33,15.77 C278.33,20.6 275.57,23.36 271.91,23.36 C270.17,23.36 268.58,22.58 267.44,21.14 L267.44,23 L263.63,23 Z M267.44,18.35 C268.07,19.28 269.48,19.97 270.71,19.97 C272.93,19.97 274.4,18.29 274.4,15.77 C274.4,13.25 272.93,11.54 270.71,11.54 C269.48,11.54 268.07,12.26 267.44,13.22 L267.44,18.35 Z" id="ReferralHub"></path>
                <path d="M1.98,23 L1.98,2.99 L6.24,2.99 L6.24,23 L1.98,23 Z M30.15,13.01 C30.15,15.83 29.16,18.26 27.54,20.09 L29.01,21.8 L26.04,24.23 L24.45,22.34 C23.04,23 21.42,23.36 19.68,23.36 C13.65,23.36 9.24,19.04 9.24,13.01 C9.24,6.98 13.65,2.66 19.68,2.66 C25.74,2.66 30.15,6.98 30.15,13.01 Z M19.68,19.58 C20.43,19.58 21.15,19.46 21.78,19.22 L19.59,16.67 L22.53,14.24 L24.75,16.82 C25.41,15.77 25.77,14.45 25.77,13.01 C25.77,9.26 23.37,6.44 19.68,6.44 C15.99,6.44 13.62,9.26 13.62,13.01 C13.62,16.73 15.99,19.58 19.68,19.58 Z M38.76,23 L31.02,2.99 L35.88,2.99 L41.43,18.38 L46.95,2.99 L51.81,2.99 L44.1,23 L38.76,23 Z M53.67,23 L53.67,2.99 L57.93,2.99 L57.93,23 L53.67,23 Z M75.69,23 L74.46,19.61 L65.88,19.61 L64.62,23 L59.76,23 L67.5,2.99 L72.84,2.99 L80.55,23 L75.69,23 Z M70.17,7.25 L67.05,15.86 L73.29,15.86 L70.17,7.25 Z" id="IQVIA"></path>
                <path d="M84.795,10 L84.795,0.775 L81.525,0.775 L81.525,-0.005 L88.935,-0.005 L88.935,0.775 L85.665,0.775 L85.665,10 L84.795,10 Z M99.195,10 L99.195,1.165 L95.55,10 L95.22,10 L91.56,1.165 L91.56,10 L90.705,10 L90.705,-0.005 L91.98,-0.005 L95.385,8.245 L98.775,-0.005 L100.065,-0.005 L100.065,10 L99.195,10 Z" id="TM"></path>
            </g>
        </g>
    </g>
</svg>