<?xml version="1.0" encoding="UTF-8"?>
<svg xmlns="http://www.w3.org/2000/svg" xmlns:xlink="http://www.w3.org/1999/xlink" display="none">
    <symbol viewBox="0 0 123 34" id="full-logo">
        <g id="Symbols" stroke="none" stroke-width="1" fill="none" fill-rule="evenodd">
            <g id="Logo" fill="#FFFFFF">
                <path d="M4.68,21.144 C2.268,21.144 0.408,19.464 0.408,17.004 C0.408,14.532 2.268,12.864 4.68,12.864 C6.432,12.864 7.452,13.812 8.016,14.82 L6.552,15.54 C6.216,14.892 5.496,14.376 4.68,14.376 C3.216,14.376 2.16,15.492 2.16,17.004 C2.16,18.516 3.216,19.632 4.68,19.632 C5.496,19.632 6.216,19.116 6.552,18.468 L8.016,19.176 C7.452,20.172 6.432,21.144 4.68,21.144 Z M10.524,21 L9,21 L9,12.996 L10.524,12.996 L10.524,21 Z M12.792,14.58 C12.3,14.58 11.892,14.172 11.892,13.668 C11.892,13.164 12.3,12.768 12.792,12.768 C13.296,12.768 13.704,13.164 13.704,13.668 C13.704,14.172 13.296,14.58 12.792,14.58 Z M13.56,21 L12.036,21 L12.036,15.204 L13.56,15.204 L13.56,21 Z M20.52,21 L18.984,21 L18.984,17.496 C18.984,16.692 18.564,16.416 17.916,16.416 C17.316,16.416 16.86,16.752 16.596,17.088 L16.596,21 L15.072,21 L15.072,15.204 L16.596,15.204 L16.596,15.948 C16.968,15.516 17.688,15.06 18.624,15.06 C19.908,15.06 20.52,15.78 20.52,16.908 L20.52,21 Z M22.776,14.58 C22.284,14.58 21.876,14.172 21.876,13.668 C21.876,13.164 22.284,12.768 22.776,12.768 C23.28,12.768 23.688,13.164 23.688,13.668 C23.688,14.172 23.28,14.58 22.776,14.58 Z M23.544,21 L22.02,21 L22.02,15.204 L23.544,15.204 L23.544,21 Z M27.756,21.144 C25.98,21.144 24.684,19.884 24.684,18.096 C24.684,16.32 25.98,15.06 27.756,15.06 C28.944,15.06 29.664,15.576 30.048,16.104 L29.052,17.04 C28.776,16.632 28.356,16.416 27.828,16.416 C26.904,16.416 26.256,17.088 26.256,18.096 C26.256,19.104 26.904,19.788 27.828,19.788 C28.356,19.788 28.776,19.548 29.052,19.152 L30.048,20.088 C29.664,20.616 28.944,21.144 27.756,21.144 Z M36.06,21 L34.524,21 L34.524,20.388 C34.128,20.868 33.444,21.144 32.688,21.144 C31.764,21.144 30.684,20.52 30.684,19.224 C30.684,17.856 31.764,17.352 32.688,17.352 C33.468,17.352 34.14,17.604 34.524,18.06 L34.524,17.328 C34.524,16.74 34.02,16.356 33.252,16.356 C32.64,16.356 32.064,16.596 31.584,17.04 L30.984,15.972 C31.692,15.336 32.604,15.06 33.516,15.06 C34.848,15.06 36.06,15.588 36.06,17.256 L36.06,21 Z M33.3,20.112 C33.792,20.112 34.272,19.944 34.524,19.608 L34.524,18.888 C34.272,18.552 33.792,18.372 33.3,18.372 C32.7,18.372 32.208,18.696 32.208,19.248 C32.208,19.8 32.7,20.112 33.3,20.112 Z M39.084,21 L37.56,21 L37.56,12.996 L39.084,12.996 L39.084,21 Z M50.208,21 L48.24,21 L46.668,18.156 L45.42,18.156 L45.42,21 L43.716,21 L43.716,12.996 L47.46,12.996 C49.128,12.996 50.16,14.088 50.16,15.576 C50.16,16.98 49.26,17.748 48.396,17.952 L50.208,21 Z M47.22,16.656 C47.892,16.656 48.408,16.248 48.408,15.564 C48.408,14.904 47.892,14.496 47.22,14.496 L45.42,14.496 L45.42,16.656 L47.22,16.656 Z M54.12,21.144 C52.356,21.144 51.024,19.956 51.024,18.096 C51.024,16.416 52.272,15.06 54.024,15.06 C55.764,15.06 56.928,16.356 56.928,18.24 L56.928,18.6 L52.62,18.6 C52.728,19.308 53.304,19.896 54.288,19.896 C54.78,19.896 55.452,19.692 55.824,19.332 L56.508,20.34 C55.932,20.868 55.02,21.144 54.12,21.144 Z M55.464,17.544 C55.416,16.992 55.032,16.308 54.024,16.308 C53.076,16.308 52.668,16.968 52.608,17.544 L55.464,17.544 Z M60.12,21.144 C59.112,21.144 58.14,20.808 57.528,20.244 L58.188,19.14 C58.62,19.548 59.472,19.944 60.192,19.944 C60.852,19.944 61.164,19.692 61.164,19.332 C61.164,18.384 57.732,19.164 57.732,16.884 C57.732,15.912 58.572,15.06 60.108,15.06 C61.08,15.06 61.86,15.396 62.436,15.852 L61.824,16.932 C61.476,16.572 60.816,16.26 60.108,16.26 C59.556,16.26 59.196,16.5 59.196,16.824 C59.196,17.676 62.64,16.956 62.64,19.296 C62.64,20.364 61.728,21.144 60.12,21.144 Z M66.48,21.144 C64.716,21.144 63.384,19.956 63.384,18.096 C63.384,16.416 64.632,15.06 66.384,15.06 C68.124,15.06 69.288,16.356 69.288,18.24 L69.288,18.6 L64.98,18.6 C65.088,19.308 65.664,19.896 66.648,19.896 C67.14,19.896 67.812,19.692 68.184,19.332 L68.868,20.34 C68.292,20.868 67.38,21.144 66.48,21.144 Z M67.824,17.544 C67.776,16.992 67.392,16.308 66.384,16.308 C65.436,16.308 65.028,16.968 64.968,17.544 L67.824,17.544 Z M75.408,21 L73.872,21 L73.872,20.388 C73.476,20.868 72.792,21.144 72.036,21.144 C71.112,21.144 70.032,20.52 70.032,19.224 C70.032,17.856 71.112,17.352 72.036,17.352 C72.816,17.352 73.488,17.604 73.872,18.06 L73.872,17.328 C73.872,16.74 73.368,16.356 72.6,16.356 C71.988,16.356 71.412,16.596 70.932,17.04 L70.332,15.972 C71.04,15.336 71.952,15.06 72.864,15.06 C74.196,15.06 75.408,15.588 75.408,17.256 L75.408,21 Z M72.648,20.112 C73.14,20.112 73.62,19.944 73.872,19.608 L73.872,18.888 C73.62,18.552 73.14,18.372 72.648,18.372 C72.048,18.372 71.556,18.696 71.556,19.248 C71.556,19.8 72.048,20.112 72.648,20.112 Z M78.432,21 L76.908,21 L76.908,15.204 L78.432,15.204 L78.432,15.984 C78.852,15.48 79.56,15.06 80.28,15.06 L80.28,16.548 C80.172,16.524 80.04,16.512 79.86,16.512 C79.356,16.512 78.684,16.8 78.432,17.172 L78.432,21 Z M83.928,21.144 C82.152,21.144 80.856,19.884 80.856,18.096 C80.856,16.32 82.152,15.06 83.928,15.06 C85.116,15.06 85.836,15.576 86.22,16.104 L85.224,17.04 C84.948,16.632 84.528,16.416 84,16.416 C83.076,16.416 82.428,17.088 82.428,18.096 C82.428,19.104 83.076,19.788 84,19.788 C84.528,19.788 84.948,19.548 85.224,19.152 L86.22,20.088 C85.836,20.616 85.116,21.144 83.928,21.144 Z M92.664,21 L91.14,21 L91.14,17.472 C91.14,16.668 90.72,16.416 90.072,16.416 C89.472,16.416 89.004,16.752 88.752,17.088 L88.752,21 L87.216,21 L87.216,12.996 L88.752,12.996 L88.752,15.948 C89.124,15.516 89.832,15.06 90.78,15.06 C92.052,15.06 92.664,15.756 92.664,16.884 L92.664,21 Z M4.68,33.144 C2.268,33.144 0.408,31.464 0.408,29.004 C0.408,26.532 2.268,24.864 4.68,24.864 C6.432,24.864 7.452,25.812 8.016,26.82 L6.552,27.54 C6.216,26.892 5.496,26.376 4.68,26.376 C3.216,26.376 2.16,27.492 2.16,29.004 C2.16,30.516 3.216,31.632 4.68,31.632 C5.496,31.632 6.216,31.116 6.552,30.468 L8.016,31.176 C7.452,32.172 6.432,33.144 4.68,33.144 Z M11.688,33.144 C9.78,33.144 8.628,31.74 8.628,30.096 C8.628,28.452 9.78,27.06 11.688,27.06 C13.608,27.06 14.76,28.452 14.76,30.096 C14.76,31.74 13.608,33.144 11.688,33.144 Z M11.688,31.788 C12.648,31.788 13.176,31.008 13.176,30.096 C13.176,29.196 12.648,28.416 11.688,28.416 C10.74,28.416 10.212,29.196 10.212,30.096 C10.212,31.008 10.74,31.788 11.688,31.788 Z M17.424,33 L15.9,33 L15.9,24.996 L17.424,24.996 L17.424,33 Z M20.46,33 L18.936,33 L18.936,24.996 L20.46,24.996 L20.46,33 Z M26.988,33 L25.452,33 L25.452,32.388 C25.056,32.868 24.372,33.144 23.616,33.144 C22.692,33.144 21.612,32.52 21.612,31.224 C21.612,29.856 22.692,29.352 23.616,29.352 C24.396,29.352 25.068,29.604 25.452,30.06 L25.452,29.328 C25.452,28.74 24.948,28.356 24.18,28.356 C23.568,28.356 22.992,28.596 22.512,29.04 L21.912,27.972 C22.62,27.336 23.532,27.06 24.444,27.06 C25.776,27.06 26.988,27.588 26.988,29.256 L26.988,33 Z M24.228,32.112 C24.72,32.112 25.2,31.944 25.452,31.608 L25.452,30.888 C25.2,30.552 24.72,30.372 24.228,30.372 C23.628,30.372 23.136,30.696 23.136,31.248 C23.136,31.8 23.628,32.112 24.228,32.112 Z M30.012,31.14 C30.276,31.512 30.828,31.788 31.332,31.788 C32.208,31.788 32.796,31.104 32.796,30.096 C32.796,29.1 32.208,28.416 31.332,28.416 C30.828,28.416 30.276,28.704 30.012,29.088 L30.012,31.14 Z M30.012,33 L28.488,33 L28.488,24.996 L30.012,24.996 L30.012,27.948 C30.468,27.348 31.116,27.06 31.8,27.06 C33.276,27.06 34.368,28.212 34.368,30.096 C34.368,32.04 33.264,33.144 31.8,33.144 C31.104,33.144 30.468,32.832 30.012,32.256 L30.012,33 Z M38.208,33.144 C36.3,33.144 35.148,31.74 35.148,30.096 C35.148,28.452 36.3,27.06 38.208,27.06 C40.128,27.06 41.28,28.452 41.28,30.096 C41.28,31.74 40.128,33.144 38.208,33.144 Z M38.208,31.788 C39.168,31.788 39.696,31.008 39.696,30.096 C39.696,29.196 39.168,28.416 38.208,28.416 C37.26,28.416 36.732,29.196 36.732,30.096 C36.732,31.008 37.26,31.788 38.208,31.788 Z M43.944,33 L42.42,33 L42.42,27.204 L43.944,27.204 L43.944,27.984 C44.364,27.48 45.072,27.06 45.792,27.06 L45.792,28.548 C45.684,28.524 45.552,28.512 45.372,28.512 C44.868,28.512 44.196,28.8 43.944,29.172 L43.944,33 Z M51.756,33 L50.22,33 L50.22,32.388 C49.824,32.868 49.14,33.144 48.384,33.144 C47.46,33.144 46.38,32.52 46.38,31.224 C46.38,29.856 47.46,29.352 48.384,29.352 C49.164,29.352 49.836,29.604 50.22,30.06 L50.22,29.328 C50.22,28.74 49.716,28.356 48.948,28.356 C48.336,28.356 47.76,28.596 47.28,29.04 L46.68,27.972 C47.388,27.336 48.3,27.06 49.212,27.06 C50.544,27.06 51.756,27.588 51.756,29.256 L51.756,33 Z M48.996,32.112 C49.488,32.112 49.968,31.944 50.22,31.608 L50.22,30.888 C49.968,30.552 49.488,30.372 48.996,30.372 C48.396,30.372 47.904,30.696 47.904,31.248 C47.904,31.8 48.396,32.112 48.996,32.112 Z M55.2,33.144 C54.132,33.144 53.568,32.592 53.568,31.548 L53.568,28.536 L52.608,28.536 L52.608,27.204 L53.568,27.204 L53.568,25.62 L55.092,25.62 L55.092,27.204 L56.268,27.204 L56.268,28.536 L55.092,28.536 L55.092,31.14 C55.092,31.512 55.284,31.788 55.62,31.788 C55.848,31.788 56.064,31.704 56.148,31.608 L56.472,32.772 C56.244,32.976 55.836,33.144 55.2,33.144 Z M58.068,26.58 C57.576,26.58 57.168,26.172 57.168,25.668 C57.168,25.164 57.576,24.768 58.068,24.768 C58.572,24.768 58.98,25.164 58.98,25.668 C58.98,26.172 58.572,26.58 58.068,26.58 Z M58.836,33 L57.312,33 L57.312,27.204 L58.836,27.204 L58.836,33 Z M63.036,33.144 C61.128,33.144 59.976,31.74 59.976,30.096 C59.976,28.452 61.128,27.06 63.036,27.06 C64.956,27.06 66.108,28.452 66.108,30.096 C66.108,31.74 64.956,33.144 63.036,33.144 Z M63.036,31.788 C63.996,31.788 64.524,31.008 64.524,30.096 C64.524,29.196 63.996,28.416 63.036,28.416 C62.088,28.416 61.56,29.196 61.56,30.096 C61.56,31.008 62.088,31.788 63.036,31.788 Z M72.696,33 L71.16,33 L71.16,29.496 C71.16,28.692 70.74,28.416 70.092,28.416 C69.492,28.416 69.036,28.752 68.772,29.088 L68.772,33 L67.248,33 L67.248,27.204 L68.772,27.204 L68.772,27.948 C69.144,27.516 69.864,27.06 70.8,27.06 C72.084,27.06 72.696,27.78 72.696,28.908 L72.696,33 Z M79.02,33 L77.316,33 L77.316,24.996 L81.06,24.996 C82.8,24.996 83.748,26.172 83.748,27.576 C83.748,28.968 82.788,30.144 81.06,30.144 L79.02,30.144 L79.02,33 Z M80.82,28.644 C81.492,28.644 82.008,28.236 82.008,27.576 C82.008,26.904 81.492,26.496 80.82,26.496 L79.02,26.496 L79.02,28.644 L80.82,28.644 Z M86.304,33 L84.78,33 L84.78,24.996 L86.304,24.996 L86.304,33 Z M92.832,33 L91.296,33 L91.296,32.388 C90.9,32.868 90.216,33.144 89.46,33.144 C88.536,33.144 87.456,32.52 87.456,31.224 C87.456,29.856 88.536,29.352 89.46,29.352 C90.24,29.352 90.912,29.604 91.296,30.06 L91.296,29.328 C91.296,28.74 90.792,28.356 90.024,28.356 C89.412,28.356 88.836,28.596 88.356,29.04 L87.756,27.972 C88.464,27.336 89.376,27.06 90.288,27.06 C91.62,27.06 92.832,27.588 92.832,29.256 L92.832,33 Z M90.072,32.112 C90.564,32.112 91.044,31.944 91.296,31.608 L91.296,30.888 C91.044,30.552 90.564,30.372 90.072,30.372 C89.472,30.372 88.98,30.696 88.98,31.248 C88.98,31.8 89.472,32.112 90.072,32.112 Z M96.276,33.144 C95.208,33.144 94.644,32.592 94.644,31.548 L94.644,28.536 L93.684,28.536 L93.684,27.204 L94.644,27.204 L94.644,25.62 L96.168,25.62 L96.168,27.204 L97.344,27.204 L97.344,28.536 L96.168,28.536 L96.168,31.14 C96.168,31.512 96.36,31.788 96.696,31.788 C96.924,31.788 97.14,31.704 97.224,31.608 L97.548,32.772 C97.32,32.976 96.912,33.144 96.276,33.144 Z M100.26,33 L98.736,33 L98.736,28.536 L97.776,28.536 L97.776,27.204 L98.736,27.204 L98.736,26.964 C98.736,25.656 99.516,24.876 100.68,24.876 C101.244,24.876 101.844,25.032 102.192,25.428 L101.616,26.352 C101.46,26.208 101.256,26.124 100.98,26.124 C100.548,26.124 100.26,26.4 100.26,26.964 L100.26,27.204 L101.436,27.204 L101.436,28.536 L100.26,28.536 L100.26,33 Z M105,33.144 C103.092,33.144 101.94,31.74 101.94,30.096 C101.94,28.452 103.092,27.06 105,27.06 C106.92,27.06 108.072,28.452 108.072,30.096 C108.072,31.74 106.92,33.144 105,33.144 Z M105,31.788 C105.96,31.788 106.488,31.008 106.488,30.096 C106.488,29.196 105.96,28.416 105,28.416 C104.052,28.416 103.524,29.196 103.524,30.096 C103.524,31.008 104.052,31.788 105,31.788 Z M110.736,33 L109.212,33 L109.212,27.204 L110.736,27.204 L110.736,27.984 C111.156,27.48 111.864,27.06 112.584,27.06 L112.584,28.548 C112.476,28.524 112.344,28.512 112.164,28.512 C111.66,28.512 110.988,28.8 110.736,29.172 L110.736,33 Z M122.256,33 L120.72,33 L120.72,29.34 C120.72,28.8 120.48,28.416 119.856,28.416 C119.316,28.416 118.872,28.776 118.656,29.088 L118.656,33 L117.12,33 L117.12,29.34 C117.12,28.8 116.88,28.416 116.256,28.416 C115.728,28.416 115.284,28.776 115.056,29.088 L115.056,33 L113.532,33 L113.532,27.204 L115.056,27.204 L115.056,27.948 C115.308,27.612 116.064,27.06 116.952,27.06 C117.804,27.06 118.356,27.456 118.56,28.104 C118.896,27.588 119.664,27.06 120.552,27.06 C121.62,27.06 122.256,27.624 122.256,28.812 L122.256,33 Z" id="Clinical-Research-Co"></path>
                <path d="M2.496,9 L0.792,9 L0.792,0.996 L2.496,0.996 L2.496,9 Z M7.884,9.144 C5.46,9.144 3.696,7.416 3.696,5.004 C3.696,2.592 5.46,0.864 7.884,0.864 C10.296,0.864 12.06,2.592 12.06,5.004 C12.06,6.132 11.664,7.116 11.016,7.836 L11.604,8.52 L10.416,9.492 L9.768,8.748 C9.216,9 8.568,9.144 7.884,9.144 Z M7.884,7.632 C8.184,7.632 8.46,7.584 8.712,7.5 L7.836,6.468 L9.024,5.496 L9.9,6.528 C10.164,6.108 10.308,5.58 10.308,5.004 C10.308,3.504 9.36,2.376 7.884,2.376 C6.396,2.376 5.448,3.504 5.448,5.004 C5.448,6.492 6.396,7.632 7.884,7.632 Z M17.64,9 L15.504,9 L12.42,0.996 L14.352,0.996 L16.572,7.14 L18.792,0.996 L20.724,0.996 L17.64,9 Z M23.172,9 L21.468,9 L21.468,0.996 L23.172,0.996 L23.172,9 Z M32.22,9 L30.288,9 L29.784,7.644 L26.352,7.644 L25.848,9 L23.916,9 L27,0.996 L29.136,0.996 L32.22,9 Z M29.316,6.144 L28.068,2.7 L26.82,6.144 L29.316,6.144 Z" id="IQVIA"></path>
                <path d="M33.866,5 L33.518,5 L33.518,1.31 L32.21,1.31 L32.21,0.998 L35.174,0.998 L35.174,1.31 L33.866,1.31 L33.866,5 Z M39.626,5 L39.278,5 L39.278,1.43 L37.82,5 L37.688,5 L36.224,1.43 L36.224,5 L35.882,5 L35.882,0.998 L36.392,0.998 L37.754,4.328 L39.11,0.998 L39.626,0.998 L39.626,5 Z" id="TM"></path>
            </g>
        </g>
    </symbol>
</svg>