<?xml version="1.0" encoding="UTF-8"?>
<svg width="24px" height="23px" viewBox="0 0 24 23" version="1.1" xmlns="http://www.w3.org/2000/svg" xmlns:xlink="http://www.w3.org/1999/xlink">
    <title>show</title>
    <defs>
        <path d="M23.2,10.549 C21.9344481,9.16174905 20.4881651,7.95090746 18.9,6.949 L22.9,2.954 C23.1599566,2.70292553 23.2642126,2.33112211 23.1726972,1.98149268 C23.0811817,1.63186324 22.8081368,1.35881828 22.4585073,1.26730284 C22.1088779,1.1757874 21.7370745,1.28004342 21.486,1.54 L21.468,1.558 C21.4336949,1.66710993 21.3744657,1.76673812 21.295,1.849 L1.795,21.349 C1.787,21.356 1.777,21.358 1.769,21.366 C1.58822916,21.8064827 1.74309652,22.3133341 2.13918878,22.5775575 C2.53528104,22.8417809 3.06273762,22.790091 3.4,22.454 L7.546,18.308 C8.90670722,18.9020979 10.3714759,19.2212204 11.856,19.247 L12.156,19.247 C16.412,19.247 20.645,16.263 23.207,13.447 C23.9441102,12.6205894 23.9410939,11.37184 23.2,10.549 Z M12,4.75 C13.0998542,4.74379316 14.193747,4.91187666 15.241,5.248 C15.3247999,5.27560122 15.3882737,5.34471144 15.4086633,5.43055148 C15.4290528,5.51639151 15.4034369,5.6066632 15.341,5.669 L15.341,5.669 L13.4,7.611 C13.3372367,7.67378963 13.2453219,7.69753428 13.16,7.673 C12.7831147,7.56232751 12.3927773,7.5041134 12,7.5 C9.51471863,7.5 7.5,9.51471863 7.5,12 C7.50557931,12.3928764 7.56479322,12.7831499 7.676,13.16 C7.70078853,13.245141 7.67743389,13.3370281 7.615,13.4 L7.615,13.4 L4.57,16.45 C4.48250847,16.5369379 4.34546374,16.549129 4.244,16.479 C2.99192732,15.5961367 1.83920011,14.5802078 0.806,13.449 C0.0579135474,12.6260236 0.0609492981,11.3683554 0.813,10.549 C3.4,7.7 7.7,4.692 12,4.75 Z M15.9259114,10.069732 C16.0069244,10.0830683 16.0763615,10.1350347 16.112,10.209 C16.5530484,11.169922 16.6246055,12.2596552 16.313,13.27 C15.8720787,14.7114316 14.7502733,15.8437071 13.313,16.298 C12.2920826,16.6230906 11.1865752,16.5553337 10.213,16.108 C10.1392424,16.0722197 10.087393,16.0029198 10.0738836,15.9220624 C10.0603743,15.8412051 10.0868797,15.7588139 10.145,15.701 L15.705,10.142 C15.7624676,10.0833618 15.8448984,10.0563957 15.9259114,10.069732 Z" id="path-1"></path>
    </defs>
    <g id="Page-1" stroke="none" stroke-width="1" fill="none" fill-rule="evenodd">
        <g id="Login-Landing" transform="translate(-1215.000000, -653.000000)">
            <g id="Group" transform="translate(1215.000000, 652.500000)">
                <mask id="mask-2" fill="white">
                    <use xlink:href="#path-1"></use>
                </mask>
                <use id="Mask" fill="#000000" fill-rule="nonzero" xlink:href="#path-1"></use>
                <g mask="url(#mask-2)" fill="#595959" id="color">
                    <g>
                        <rect id="Rectangle" x="0" y="0" width="24" height="24">
                            <title>Show</title>
                        </rect>
                    </g>
                </g>
            </g>
        </g>
    </g>
</svg>