<?xml version="1.0" encoding="UTF-8"?>
<svg width="85px" height="26px" viewBox="0 0 85 26" version="1.1" xmlns="http://www.w3.org/2000/svg" xmlns:xlink="http://www.w3.org/1999/xlink">
    <title>869C28C9-1B92-40B5-846E-593397B5661A</title>
    <defs>
        <filter color-interpolation-filters="auto" id="filter-1">
            <feColorMatrix in="SourceGraphic" type="matrix" values="0 0 0 0 1.000000 0 0 0 0 1.000000 0 0 0 0 1.000000 0 0 0 1.000000 0"></feColorMatrix>
        </filter>
        <filter color-interpolation-filters="auto" id="filter-2">
            <feColorMatrix in="SourceGraphic" type="matrix" values="0 0 0 0 0.000000 0 0 0 0 0.000000 0 0 0 0 0.000000 0 0 0 1.000000 0"></feColorMatrix>
        </filter>
        <path d="M65.7750877,19.2516381 C66.7466228,19.2516381 67.3940643,19.4819238 67.9863304,19.9058476 C68.0971784,19.9890476 68.2177193,20.1457905 68.2177193,20.3666667 C68.2177193,20.6709905 67.9676901,20.9290095 67.6532895,20.9290095 C67.5051608,20.9290095 67.3940643,20.864381 67.3016082,20.7997524 C66.885307,20.4959238 66.4319737,20.2931238 65.7288596,20.2931238 C64.5353801,20.2931238 63.6287135,21.3348571 63.6287135,22.569981 L63.6287135,22.5880571 C63.6287135,23.9155429 64.5075439,24.8926476 65.8305117,24.8926476 C66.4411696,24.8926476 66.9964035,24.6992571 67.3940643,24.4038476 L67.3940643,23.1964571 L66.1173246,23.1964571 C65.8399561,23.1964571 65.6085673,22.9844952 65.6085673,22.7081524 C65.6085673,22.4313143 65.8399561,22.2101905 66.1173246,22.2101905 L67.921462,22.2101905 C68.245307,22.2101905 68.4950877,22.4592952 68.4950877,22.7816952 L68.4950877,24.5053714 C68.4950877,24.828019 68.3653509,25.0585524 68.0971784,25.2244571 C67.542193,25.5931619 66.7650146,25.9249714 65.7937281,25.9249714 C63.7673977,25.9249714 62.4352339,24.4870476 62.4352339,22.606381 L62.4352339,22.5880571 C62.4352339,20.7816762 63.8230702,19.2516381 65.7750877,19.2516381 Z M57.5492251,19.2516381 C59.5382749,19.2516381 60.9261111,20.7539429 60.9261111,22.569981 L60.9261111,22.5880571 C60.9261111,24.4038476 59.519883,25.9249714 57.5308333,25.9249714 C55.5415351,25.9249714 54.1539474,24.422419 54.1539474,22.606381 L54.1539474,22.5880571 C54.1539474,20.7725143 55.5601754,19.2516381 57.5492251,19.2516381 Z M43.4939035,19.2516381 C45.4829532,19.2516381 46.8707895,20.7539429 46.8707895,22.569981 L46.8707895,22.5880571 C46.8707895,24.4038476 45.4645614,25.9249714 43.4752632,25.9249714 C41.4862135,25.9249714 40.0983772,24.422419 40.0983772,22.606381 L40.0983772,22.5880571 C40.0983772,20.7725143 41.5046053,19.2516381 43.4939035,19.2516381 Z M21.018114,19.2516381 C22.0172368,19.2516381 22.6741228,19.5465524 23.2385526,19.9798857 C23.3585965,20.0717524 23.4607456,20.2284952 23.4607456,20.4312952 C23.4607456,20.744781 23.2107164,20.9844762 22.8963158,20.9844762 C22.7387427,20.9844762 22.6278947,20.9290095 22.5538304,20.8737905 C22.1099415,20.5142476 21.6285234,20.2931238 21.0089181,20.2931238 C19.7784064,20.2931238 18.8717398,21.3068762 18.8717398,22.569981 L18.8717398,22.5880571 C18.8717398,23.8511619 19.7692105,24.8743238 21.0089181,24.8743238 C21.6933918,24.8743238 22.1561696,24.6529524 22.6278947,24.2565143 C22.711155,24.1827238 22.8311988,24.1275048 22.9701316,24.1275048 C23.2569444,24.1275048 23.5067251,24.3672 23.5067251,24.6529524 C23.5067251,24.828019 23.4234649,24.9661905 23.3218129,25.0585524 C22.711155,25.5931619 22.0172368,25.9249714 20.971886,25.9249714 C19.0844883,25.9249714 17.6782602,24.4593143 17.6782602,22.606381 L17.6782602,22.5880571 C17.6782602,20.7539429 19.056652,19.2516381 21.018114,19.2516381 Z M82.3938304,19.2699619 C83.2080409,19.2699619 83.8649269,19.4819238 84.4475,19.8692 C84.5772368,19.9429905 84.6975292,20.0994857 84.6975292,20.3208571 C84.6975292,20.6155238 84.4566959,20.8460571 84.1609357,20.8460571 C84.0498392,20.8460571 83.957383,20.8185714 83.8649269,20.7633524 C83.3653655,20.4404571 82.8839474,20.2745524 82.3751901,20.2745524 C81.7093567,20.2745524 81.3206433,20.6155238 81.3206433,21.0394476 L81.3206433,21.058019 C81.3206433,21.555981 81.616652,21.7773524 82.8655556,22.072019 C84.235,22.4038286 84.938114,22.892381 84.938114,23.9616 L84.938114,23.9799238 C84.938114,25.1873143 83.9852193,25.9066476 82.6249708,25.9066476 C81.7461404,25.9066476 80.913538,25.6298095 80.1917836,25.0954476 C80.0625439,25.0030857 79.9700877,24.8463429 79.9700877,24.6621143 C79.9700877,24.3672 80.210424,24.1369143 80.5064327,24.1369143 C80.6637573,24.1369143 80.7654094,24.1827238 80.8397222,24.2379429 C81.3760673,24.6621143 81.949693,24.9018095 82.652807,24.9018095 C83.3559211,24.9018095 83.8000585,24.5697524 83.8000585,24.0908571 L83.8000585,24.0720381 C83.8000585,23.611219 83.5410819,23.3623619 82.3384064,23.086019 C80.9597661,22.7542095 80.1825877,22.3486095 80.1825877,21.1597905 L80.1825877,21.1409714 C80.1825877,20.0351048 81.1078947,19.2699619 82.3938304,19.2699619 Z M9.25729532,19.3623238 C9.54385965,19.3623238 9.77524854,19.602019 9.77524854,19.8875238 C9.77524854,20.1732762 9.54385965,20.4127238 9.25729532,20.4127238 L7.67510234,20.4127238 L7.67510234,25.298 C7.67510234,25.6114857 7.41587719,25.8603429 7.10147661,25.8603429 C6.78707602,25.8603429 6.52785088,25.6114857 6.52785088,25.298 L6.52785088,20.4127238 L4.95510234,20.4127238 C4.65909357,20.4127238 4.42795322,20.1732762 4.42795322,19.8875238 C4.42795322,19.602019 4.65909357,19.3623238 4.95510234,19.3623238 L9.25729532,19.3623238 Z M71.0314181,19.316019 C71.3460673,19.316019 71.5955994,19.5648762 71.5955994,19.8783619 L71.5955994,25.298 C71.5955994,25.6114857 71.3460673,25.8603429 71.0314181,25.8603429 C70.7075731,25.8603429 70.4577924,25.6114857 70.4577924,25.298 L70.4577924,19.8783619 C70.4577924,19.5648762 70.7075731,19.316019 71.0314181,19.316019 Z M37.7382602,19.316019 C38.0526608,19.316019 38.3024415,19.5648762 38.3024415,19.8692 L38.3024415,25.2888381 C38.3024415,25.6023238 38.0621053,25.851181 37.7474561,25.851181 L37.7009795,25.851181 C37.432807,25.851181 37.2662865,25.7130095 37.108962,25.5102095 L33.7783041,21.2147619 L33.7783041,25.3074095 C33.7783041,25.6114857 33.5285234,25.8603429 33.2233187,25.8603429 C32.9086696,25.8603429 32.6588889,25.6114857 32.6588889,25.3074095 L32.6588889,19.8966857 C32.6588889,19.5834476 32.9086696,19.325181 33.2327632,19.325181 L33.352807,19.325181 C33.630424,19.325181 33.7875,19.4633524 33.9450731,19.6569905 L37.1830263,23.8325905 L37.1830263,19.8692 C37.1830263,19.5648762 37.432807,19.316019 37.7382602,19.316019 Z M30.0025146,19.316019 C30.3263596,19.316019 30.5758918,19.5648762 30.5758918,19.8783619 L30.5758918,25.298 C30.5758918,25.6114857 30.3263596,25.8603429 30.0025146,25.8603429 C29.6878655,25.8603429 29.4380848,25.6114857 29.4380848,25.298 L29.4380848,23.095181 L26.3482602,23.095181 L26.3482602,25.298 C26.3482602,25.6114857 26.0984795,25.8603429 25.7838304,25.8603429 C25.4597368,25.8603429 25.2102047,25.6114857 25.2102047,25.298 L25.2102047,19.8783619 C25.2102047,19.5648762 25.4597368,19.316019 25.7838304,19.316019 C26.0984795,19.316019 26.3482602,19.5648762 26.3482602,19.8783619 L26.3482602,22.0442857 L29.4380848,22.0442857 L29.4380848,19.8783619 C29.4380848,19.5648762 29.6878655,19.316019 30.0025146,19.316019 Z M49.2403509,19.316019 C49.555,19.316019 49.8047807,19.5648762 49.8047807,19.8783619 L49.8047807,24.7819619 L52.7372807,24.7819619 C53.0240936,24.7819619 53.2554825,25.0122476 53.2554825,25.298 C53.2554825,25.5837524 53.0240936,25.8142857 52.7372807,25.8142857 L49.2403509,25.8142857 C48.9162573,25.8142857 48.6669737,25.5654286 48.6669737,25.242781 L48.6669737,19.8783619 C48.6669737,19.5648762 48.9162573,19.316019 49.2403509,19.316019 Z M15.6882164,19.3623238 C15.9655848,19.3623238 16.1967251,19.5926095 16.1967251,19.8692 C16.1967251,20.1549524 15.9655848,20.3763238 15.6882164,20.3763238 L12.4870468,20.3763238 L12.4870468,22.0536952 L15.2716667,22.0536952 C15.5492836,22.0536952 15.7806725,22.2842286 15.7806725,22.569981 C15.7806725,22.8463238 15.5492836,23.0676952 15.2716667,23.0676952 L12.4870468,23.0676952 L12.4870468,24.8002857 L15.7341959,24.8002857 C16.0118129,24.8002857 16.2432018,25.030819 16.2432018,25.3074095 C16.2432018,25.5931619 16.0118129,25.8142857 15.7341959,25.8142857 L11.922617,25.8142857 C11.5987719,25.8142857 11.3492398,25.5654286 11.3492398,25.242781 L11.3492398,19.933581 C11.3492398,19.611181 11.5987719,19.3623238 11.922617,19.3623238 L15.6882164,19.3623238 Z M78.0814474,19.3623238 C78.3590643,19.3623238 78.5904532,19.5926095 78.5904532,19.8692 C78.5904532,20.1549524 78.3590643,20.3763238 78.0814474,20.3763238 L74.8805263,20.3763238 L74.8805263,22.0536952 L77.6651462,22.0536952 C77.9427632,22.0536952 78.174152,22.2842286 78.174152,22.569981 C78.174152,22.8463238 77.9427632,23.0676952 77.6651462,23.0676952 L74.8805263,23.0676952 L74.8805263,24.8002857 L78.127924,24.8002857 C78.4052924,24.8002857 78.6366813,25.030819 78.6366813,25.3074095 C78.6366813,25.5931619 78.4052924,25.8142857 78.127924,25.8142857 L74.316345,25.8142857 C73.9922515,25.8142857 73.7424708,25.5654286 73.7424708,25.242781 L73.7424708,19.933581 C73.7424708,19.611181 73.9922515,19.3623238 74.316345,19.3623238 L78.0814474,19.3623238 Z M43.4752632,20.2931238 C42.1893275,20.2931238 41.2918567,21.3160381 41.2918567,22.569981 L41.2918567,22.5880571 C41.2918567,23.8417524 42.2077193,24.8743238 43.4939035,24.8743238 C44.7798392,24.8743238 45.6770614,23.8603238 45.6770614,22.606381 L45.6770614,22.5880571 C45.6770614,21.3348571 44.7614474,20.2931238 43.4752632,20.2931238 Z M57.5308333,20.2931238 C56.2446491,20.2931238 55.3471784,21.3160381 55.3471784,22.569981 L55.3471784,22.5880571 C55.3471784,23.8417524 56.2632895,24.8743238 57.5492251,24.8743238 C58.8351608,24.8743238 59.7326316,23.8603238 59.7326316,22.606381 L59.7326316,22.5880571 C59.7326316,21.3348571 58.8165205,20.2931238 57.5308333,20.2931238 Z M36.5962281,0.210971429 C40.4490643,0.00965714286 43.7479094,2.96870476 43.9497222,6.80729524 C44.0913889,9.50337143 42.6670175,11.925581 40.4721784,13.1990857 L40.4721784,13.1990857 L40.9394298,14.0875429 C41.1509357,14.490419 40.9948538,14.9881333 40.590731,15.1988571 C40.1863596,15.4098286 39.6870468,15.2543238 39.4752924,14.8516952 L39.4752924,14.8516952 L38.9508772,13.8537905 C38.4294444,14.0080571 37.8888743,14.1041333 37.3289181,14.1336 C33.4760819,14.3346667 30.1774854,11.3753714 29.975424,7.53702857 C29.7736111,3.69868571 32.7436404,0.412038095 36.5962281,0.210971429 Z M25.8484503,0.240438095 C26.3047661,0.240438095 26.6748392,0.608895238 26.6748392,1.06352381 L26.6748392,13.2808 C26.6748392,13.7354286 26.3047661,14.1038857 25.8484503,14.1038857 C25.3921345,14.1038857 25.0220614,13.7354286 25.0220614,13.2808 L25.0220614,1.06352381 C25.0220614,0.608895238 25.3921345,0.240438095 25.8484503,0.240438095 Z M65.0871345,0.240438095 C65.5434503,0.240438095 65.9132749,0.608895238 65.9132749,1.06352381 L65.9132749,13.2808 C65.9132749,13.7354286 65.5434503,14.1038857 65.0871345,14.1038857 C64.6305702,14.1038857 64.2607456,13.7354286 64.2607456,13.2808 L64.2607456,1.06352381 C64.2607456,0.608895238 64.6305702,0.240438095 65.0871345,0.240438095 Z M60.2463596,0.337257143 C60.6489912,0.551447619 60.801345,1.05015238 60.5866082,1.45129524 L54.043348,13.6683238 C53.899693,13.9367429 53.6193421,14.1038857 53.314386,14.1038857 L53.311155,14.1038857 C53.0049561,14.1028952 52.7243567,13.9330286 52.582193,13.6626286 L46.1617105,1.4456 C45.9499561,1.04272381 46.1062865,0.545257143 46.5106579,0.334285714 C46.9150292,0.123314286 47.4140936,0.279066667 47.625848,0.681695238 L53.321345,11.5189905 L59.1284357,0.676 C59.3434211,0.274857143 59.8442251,0.123561905 60.2463596,0.337257143 Z M77.5808918,0.240438095 C77.8873392,0.24167619 78.1679386,0.411542857 78.3098538,0.681695238 L84.7305848,12.8989714 C84.9423392,13.3016 84.7862573,13.7993143 84.381886,14.0102857 C84.2596053,14.0739238 84.1281287,14.1041333 83.9991374,14.1041333 C83.7013889,14.1041333 83.4138304,13.9436762 83.2661988,13.6626286 L77.5709503,2.82558095 L71.7638596,13.6683238 C71.5488743,14.0697143 71.0480702,14.2212571 70.6456871,14.0070667 C70.2430556,13.7933714 70.0909503,13.294419 70.3056871,12.8932762 L76.8486988,0.676 C76.9928509,0.406838095 77.2739474,0.230780952 77.5808918,0.240438095 Z M14.8680409,11.8121714 C15.2550146,11.8121714 15.5714035,12.1276381 15.5714035,12.513181 C15.5714035,12.8984762 15.2550146,13.2139429 14.8680409,13.2139429 L14.8680409,13.2139429 L4.75577485,13.2139429 C4.36904971,13.2139429 4.05241228,12.8984762 4.05241228,12.513181 C4.05241228,12.1276381 4.36904971,11.8121714 4.75577485,11.8121714 L4.75577485,11.8121714 Z M20.23,11.812419 C20.6169737,11.812419 20.9336111,12.1276381 20.9336111,12.513181 C20.9336111,12.8984762 20.6169737,13.2139429 20.23,13.2139429 L17.2955117,13.2139429 C16.908538,13.2139429 16.5919006,12.8984762 16.5919006,12.513181 C16.5919006,12.1276381 16.908538,11.812419 17.2955117,11.812419 L20.23,11.812419 Z M36.9028452,1.8481458 L36.6829678,1.8551619 C33.7402778,2.00893333 31.4716228,4.51904762 31.6259649,7.45085714 C31.780307,10.3826667 34.2997368,12.6426857 37.2424269,12.4889143 C37.5558333,12.472819 37.8612865,12.428 38.1572953,12.3604 L38.1572953,12.3604 L38.1645029,12.3576762 L37.645307,11.3699238 C37.4333041,10.9672952 37.589386,10.469581 37.9937573,10.2586095 C38.3981287,10.0476381 38.8974415,10.2031429 39.1091959,10.606019 L39.1091959,10.606019 L39.7049415,11.7393714 C41.3462865,10.7573143 42.4063012,8.92740952 42.2991813,6.89346667 C42.1448392,3.96165714 39.6256579,1.7016381 36.6829678,1.8551619 Z M79.5264474,9.68586667 C79.9827632,9.68586667 80.3528363,10.0545714 80.3528363,10.5092 C80.3528363,10.9638286 79.9827632,11.3325333 79.5264474,11.3325333 L75.5433772,11.3325333 C75.0870614,11.3325333 74.7169883,10.9638286 74.7169883,10.5092 C74.7169883,10.0545714 75.0870614,9.68586667 75.5433772,9.68586667 L79.5264474,9.68586667 Z M20.23,9.14110476 C20.6169737,9.14110476 20.9336111,9.45657143 20.9336111,9.84211429 C20.9336111,10.2274095 20.6169737,10.5428762 20.23,10.5428762 L18.6691813,10.5428762 C18.2824561,10.5428762 17.9658187,10.2274095 17.9658187,9.84211429 C17.9658187,9.45657143 18.2824561,9.14110476 18.6691813,9.14110476 L20.23,9.14110476 Z M16.2419591,9.14110476 C16.6286842,9.14110476 16.9453216,9.45657143 16.9453216,9.84211429 C16.9453216,10.2274095 16.6286842,10.5428762 16.2419591,10.5428762 L16.2419591,10.5428762 L2.77641813,10.5428762 C2.38944444,10.5428762 2.07305556,10.2274095 2.07305556,9.84211429 C2.07305556,9.45657143 2.38944444,9.14110476 2.77641813,9.14110476 L2.77641813,9.14110476 Z M20.23,6.4700381 C20.6169737,6.4700381 20.9336111,6.78550476 20.9336111,7.1708 C20.9336111,7.55634286 20.6169737,7.87180952 20.23,7.87180952 L19.0633626,7.87180952 C18.6766374,7.87180952 18.3597515,7.55634286 18.3597515,7.1708 C18.3597515,6.78550476 18.6766374,6.4700381 19.0633626,6.4700381 L20.23,6.4700381 Z M16.6361404,6.4700381 C17.0228655,6.4700381 17.3395029,6.78550476 17.3395029,7.1708 C17.3395029,7.55634286 17.0228655,7.87180952 16.6361404,7.87180952 L16.6361404,7.87180952 L0.780160819,7.87180952 C0.393435673,7.87180952 0.0767982456,7.55634286 0.0767982456,7.1708 C0.0767982456,6.78550476 0.393435673,6.4700381 0.780160819,6.4700381 L0.780160819,6.4700381 Z M20.23,3.79897143 C20.6169737,3.79897143 20.9336111,4.11419048 20.9336111,4.49973333 C20.9336111,4.88527619 20.6169737,5.20049524 20.23,5.20049524 L18.6927924,5.20049524 C18.3058187,5.20049524 17.9894298,4.88527619 17.9894298,4.49973333 C17.9894298,4.11419048 18.3058187,3.79897143 18.6927924,3.79897143 L20.23,3.79897143 Z M16.2655702,3.79897143 C16.6522953,3.79897143 16.9689327,4.11419048 16.9689327,4.49973333 C16.9689327,4.88527619 16.6522953,5.20049524 16.2655702,5.20049524 L16.2655702,5.20049524 L1.77828947,5.20049524 C1.39131579,5.20049524 1.0749269,4.88527619 1.0749269,4.49973333 C1.0749269,4.11419048 1.39131579,3.79897143 1.77828947,3.79897143 L1.77828947,3.79897143 Z M20.23,1.12790476 C20.6169737,1.12790476 20.9336111,1.44312381 20.9336111,1.82866667 C20.9336111,2.2139619 20.6169737,2.52942857 20.23,2.52942857 L17.3569006,2.52942857 C16.9701754,2.52942857 16.653538,2.2139619 16.653538,1.82866667 C16.653538,1.44312381 16.9701754,1.12790476 17.3569006,1.12790476 L20.23,1.12790476 Z M14.9296784,1.12790476 C15.3164035,1.12790476 15.6330409,1.44312381 15.6330409,1.82866667 C15.6330409,2.2139619 15.3164035,2.52942857 14.9296784,2.52942857 L14.9296784,2.52942857 L6.87182749,2.52942857 C6.48510234,2.52942857 6.16846491,2.2139619 6.16846491,1.82866667 C6.16846491,1.44312381 6.48510234,1.12790476 6.87182749,1.12790476 L6.87182749,1.12790476 Z" id="path-3"></path>
    </defs>
    <g id="Page-1" stroke="none" stroke-width="1" fill="none" fill-rule="evenodd">
        <g id="Group-3" transform="translate(-11.000000, -728.000000)" filter="url(#filter-1)">
            <g transform="translate(11.000000, 728.000000)" filter="url(#filter-2)" id="footer/ui/logo-copy">
                <g>
                    <mask id="mask-4" fill="white">
                        <use xlink:href="#path-3"></use>
                    </mask>
                    <use id="Mask" fill="#FFFFFE" xlink:href="#path-3"></use>
                    <g id="color/5-#B5B5B5" mask="url(#mask-4)" fill="#B5B5B5">
                        <g transform="translate(-1.000000, -3.000000)" id="Rectangle">
                            <rect x="0" y="0" width="88" height="32"></rect>
                        </g>
                    </g>
                </g>
            </g>
        </g>
    </g>
</svg>