<?xml version="1.0" encoding="UTF-8"?><svg version="1.1" width="14px" height="16px" viewBox="0 0 14.0 16.0" xmlns="http://www.w3.org/2000/svg" xmlns:xlink="http://www.w3.org/1999/xlink"><defs><clipPath id="i0"><path d="M1366,0 L1366,896 L0,896 L0,0 L1366,0 Z"></path></clipPath><clipPath id="i1"><path d="M7.62773976,13.9999974 C7.71056519,13.999532 7.78025757,14.0635176 7.78893976,14.148 C7.7960229,14.2095083 7.79949582,14.2713977 7.79934479,14.3333333 C7.79934479,15.2538079 7.07180248,15.9999974 6.17433976,15.9999974 C5.27687704,15.9999974 4.54933472,15.2538079 4.54933472,14.3333333 C4.54918369,14.2713977 4.55265662,14.2095083 4.55973976,14.148 C4.5689906,14.0638172 4.638342,14.0001447 4.72093976,13.9999974 Z M6.17433976,0 C6.71281739,0 7.14933976,0.44771525 7.14933976,1 L7.14933976,1.75733333 C7.68954337,1.85635618 8.20520853,2.06437613 8.66643976,2.36933333 C10.2744394,3.53035855 11.2159081,5.43410186 11.1793398,7.45066667 L11.1793398,7.96266667 C11.1817074,9.66036962 11.5703115,11.3340826 12.3142398,12.8506667 C12.3649812,12.9532786 12.3599024,13.0761521 12.3008207,13.1746556 C12.241739,13.2731591 12.1370983,13.3333333 12.0243398,13.3333333 L0.324339758,13.3333333 C0.211768812,13.3330987 0.107332715,13.2731335 0.0482901397,13.174831 C-0.0107524357,13.0765286 -0.0159923626,12.9538895 0.0344397579,12.8506667 C0.778368025,11.3340826 1.16697214,9.66036962 1.16933976,7.96266667 L1.16933976,7.45066667 C1.13979608,5.58369498 1.94107103,3.80459723 3.34618976,2.61733333 C3.89035221,2.18857882 4.52512777,1.89696422 5.19933976,1.766 L5.19933976,1 C5.19933976,0.44771525 5.63586213,0 6.17433976,0 Z"></path></clipPath><clipPath id="i2"><path d="M16,0 L16,16 L0,16 L0,0 L16,0 Z"></path></clipPath></defs><g transform="translate(-520.0 -293.0)"><g clip-path="url(#i0)"><g transform="translate(503.0 272.0)"><g transform="translate(16.0 15.999999999999938)"><g transform="translate(0.0 5.0)"><g transform="translate(1.825660242106097 2.042810365310288e-14)"><g clip-path="url(#i1)"><polygon points="-8.8817842e-16,0 12.3490059,0 12.3490059,15.9999974 -8.8817842e-16,15.9999974 -8.8817842e-16,0" stroke="none" fill="#000000"></polygon><g transform="translate(-1.825660242106097 -2.042810365310288e-14)"><g clip-path="url(#i2)"><polygon points="1.82566024,0 14.1746661,0 14.1746661,15.9999974 1.82566024,15.9999974 1.82566024,0" stroke="none" fill="#FF9300"></polygon></g></g></g></g></g></g></g></g></g></svg>