<?xml version="1.0" encoding="utf-8"?>
<!-- Generator: Adobe Illustrator 24.0.3, SVG Export Plug-In . SVG Version: 6.00 Build 0)  -->
<svg version="1.1" id="Layer_1" xmlns="http://www.w3.org/2000/svg" xmlns:xlink="http://www.w3.org/1999/xlink" x="0px"
     y="0px"
     viewBox="0 0 144.3 15.6" style="enable-background:new 0 0 144.3 15.6;" xml:space="preserve">
<style type="text/css">
	.st0{enable-background:new    ;}
	.st1{fill:#FFFFFF;}
</style>
    <title>GatherSHAREKnow</title>
    <desc>Created with Sketch.</desc>
    <g id="Symbols">
	<g id="Navigation_x2F_Patient_x2F_ScreeningStudyA" transform="translate(-150.000000, -18.000000)">
		<g class="st0">
			<path class="st1" d="M156.7,20.1c2.2,0,3.6,1.1,4.4,2.4l-1.9,1c-0.5-0.8-1.4-1.4-2.5-1.4c-1.9,0-3.3,1.5-3.3,3.5s1.4,3.5,3.3,3.5
				c0.9,0,1.8-0.4,2.3-0.8v-1.3h-2.8v-2h5.1v4.1c-1.1,1.2-2.6,2-4.5,2c-3.1,0-5.7-2.2-5.7-5.5C151,22.3,153.6,20.1,156.7,20.1z"/>
            <path class="st1" d="M167.7,30.2c-0.5,0.6-1.4,1-2.4,1c-1.2,0-2.7-0.8-2.7-2.6c0-1.8,1.5-2.5,2.7-2.5c1,0,1.9,0.3,2.4,0.9V26
				c0-0.8-0.7-1.3-1.7-1.3c-0.8,0-1.6,0.3-2.3,0.9l-0.8-1.4c0.9-0.8,2.2-1.2,3.4-1.2c1.8,0,3.4,0.7,3.4,2.9v5h-2V30.2z M167.7,28.2
				c-0.3-0.4-1-0.7-1.6-0.7c-0.8,0-1.5,0.4-1.5,1.2c0,0.7,0.7,1.1,1.5,1.1c0.7,0,1.3-0.2,1.6-0.7V28.2z"/>
            <path class="st1" d="M172.1,29.1v-4h-1.3v-1.8h1.3v-2.1h2v2.1h1.6V25h-1.6v3.5c0,0.5,0.3,0.8,0.7,0.8c0.3,0,0.6-0.1,0.7-0.2
				l0.4,1.5c-0.3,0.3-0.8,0.5-1.7,0.5C172.9,31.2,172.1,30.5,172.1,29.1z"/>
            <path class="st1" d="M182.4,26.3c0-1.1-0.6-1.4-1.4-1.4c-0.8,0-1.4,0.4-1.8,0.9V31h-2V20.3h2v4c0.5-0.6,1.5-1.2,2.7-1.2
				c1.7,0,2.5,0.9,2.5,2.4V31h-2V26.3z"/>
            <path class="st1" d="M189.9,23.1c2.3,0,3.9,1.7,3.9,4.3v0.4H188c0.1,1,0.9,1.8,2.2,1.8c0.7,0,1.6-0.3,2.1-0.8l0.9,1.3
				c-0.8,0.7-2,1.1-3.2,1.1c-2.4,0-4.1-1.6-4.1-4.1C185.9,24.9,187.6,23.1,189.9,23.1z M188,26.4h3.8c0-0.7-0.6-1.7-1.9-1.7
				C188.6,24.7,188.1,25.6,188,26.4z"/>
            <path class="st1"
                  d="M195.3,23.3h2v1.1c0.5-0.7,1.5-1.2,2.5-1.2v2c-0.1,0-0.3-0.1-0.6-0.1c-0.7,0-1.6,0.4-1.9,0.9V31h-2V23.3z"/>
            <path class="st1" d="M201.6,27.8c0.8,0.8,1.9,1.4,3.4,1.4c1.2,0,1.9-0.6,1.9-1.2c0-0.8-1-1-2.2-1.3c-1.7-0.4-4-0.9-4-3.3
				c0-1.8,1.5-3.2,4-3.2c1.7,0,3.1,0.5,4.2,1.5l-1.3,1.7c-0.9-0.8-2-1.2-3.1-1.2c-1,0-1.5,0.4-1.5,1.1c0,0.7,1,0.9,2.1,1.2
				c1.8,0.4,4,0.9,4,3.4c0,2-1.4,3.4-4.3,3.4c-2,0-3.5-0.7-4.5-1.7L201.6,27.8z"/>
            <path class="st1" d="M218,26.5h-5V31h-2.3V20.3h2.3v4.2h5v-4.2h2.3V31H218V26.5z"/>
            <path class="st1" d="M229.1,29.2h-4.6l-0.7,1.8h-2.6l4.1-10.7h2.8l4.1,10.7h-2.6L229.1,29.2z M225.1,27.2h3.3l-1.7-4.6
				L225.1,27.2z"/>
            <path class="st1" d="M237.2,27.2h-1.7V31h-2.3V20.3h5c2.2,0,3.6,1.5,3.6,3.4c0,1.9-1.2,2.9-2.3,3.2l2.4,4.1h-2.6L237.2,27.2z
				 M238,22.3h-2.4v2.9h2.4c0.9,0,1.6-0.5,1.6-1.4C239.6,22.9,238.9,22.3,238,22.3z"/>
            <path class="st1" d="M243.6,20.3h7.6v2h-5.3v2.3h5.2v2h-5.2V29h5.3v2h-7.6V20.3z"/>
            <path class="st1" d="M256,26.7l-0.8,1V31h-2.3V20.3h2.3v4.8l3.8-4.8h2.8l-4.2,5l4.5,5.7h-2.8L256,26.7z"/>
            <path class="st1" d="M268.3,26.3c0-1.1-0.6-1.4-1.4-1.4c-0.8,0-1.4,0.4-1.8,0.9V31h-2v-7.7h2v1c0.5-0.6,1.4-1.2,2.7-1.2
				c1.7,0,2.5,1,2.5,2.5V31h-2V26.3z"/>
            <path class="st1" d="M271.8,27.1c0-2.2,1.5-4,4.1-4c2.6,0,4.1,1.9,4.1,4c0,2.2-1.5,4.1-4.1,4.1C273.3,31.2,271.8,29.3,271.8,27.1
				z M277.9,27.1c0-1.2-0.7-2.2-2-2.2s-2,1-2,2.2c0,1.2,0.7,2.3,2,2.3S277.9,28.3,277.9,27.1z"/>
            <path class="st1"
                  d="M286.6,25.7L285,31h-2.2l-2.4-7.7h2.1l1.4,5.2l1.7-5.2h1.8l1.7,5.2l1.4-5.2h2.1l-2.4,7.7h-2.2L286.6,25.7z"
            />
		</g>
	</g>
</g>
</svg>