<?xml version="1.0" encoding="UTF-8" standalone="no"?>
<!-- Created with Inkscape (http://www.inkscape.org/) -->

<svg
   xmlns:dc="http://purl.org/dc/elements/1.1/"
   xmlns:cc="http://creativecommons.org/ns#"
   xmlns:rdf="http://www.w3.org/1999/02/22-rdf-syntax-ns#"
   xmlns:svg="http://www.w3.org/2000/svg"
   xmlns="http://www.w3.org/2000/svg"
   xmlns:sodipodi="http://sodipodi.sourceforge.net/DTD/sodipodi-0.dtd"
   xmlns:inkscape="http://www.inkscape.org/namespaces/inkscape"
   width="144.3"
   height="10.729"
   viewBox="0 0 38.179376 2.8387147"
   version="1.1"
   id="svg8"
   sodipodi:docname="GskLogoOrange2.svg"
   inkscape:version="0.92.4 (5da689c313, 2019-01-14)">
  <defs
     id="defs2" />
  <sodipodi:namedview
     id="base"
     pagecolor="#ffffff"
     bordercolor="#666666"
     borderopacity="1.0"
     inkscape:pageopacity="0.0"
     inkscape:pageshadow="2"
     inkscape:zoom="9.1812213"
     inkscape:cx="60.420606"
     inkscape:cy="22.395092"
     inkscape:document-units="mm"
     inkscape:current-layer="layer1"
     showgrid="false"
     inkscape:window-width="1920"
     inkscape:window-height="1001"
     inkscape:window-x="-9"
     inkscape:window-y="-9"
     inkscape:window-maximized="1"
     width="100mm" />
  <metadata
     id="metadata5">
    <rdf:RDF>
      <cc:Work
         rdf:about="">
        <dc:format>image/svg+xml</dc:format>
        <dc:type
           rdf:resource="http://purl.org/dc/dcmitype/StillImage" />
        <dc:title></dc:title>
      </cc:Work>
    </rdf:RDF>
  </metadata>
  <g
     inkscape:label="Layer 1"
     inkscape:groupmode="layer"
     id="layer1"
     style="display:inline"
     transform="translate(0,-294.16129)">
    <g
       aria-label="Gather Share Know"
       style="font-style:normal;font-variant:normal;font-weight:normal;font-stretch:normal;font-size:10.58333302px;line-height:1.25;font-family:Metropolis;-inkscape-font-specification:Metropolis;letter-spacing:0px;word-spacing:0px;fill:#ea6621;fill-opacity:1;stroke:none;stroke-width:0.26458332"
       id="text12"
       transform="matrix(0.37636505,0,0,0.37636505,-37.279854,207.91734)">
      <path
         d="m 102.6982,233.74169 h 1.69333 v 1.11125 c -0.41275,0.29633 -0.92075,0.46567 -1.41816,0.46567 -1.23825,0 -2.286,-1.0795 -2.286,-2.3495 0,-1.25942 1.04775,-2.33892 2.286,-2.33892 0.66675,0 1.37583,0.3175 1.80975,0.81492 l 1.13241,-1.016 c -0.73025,-0.762 -1.85208,-1.21709 -2.94216,-1.21709 -2.10609,0 -3.89467,1.7145 -3.89467,3.75709 0,2.04258 1.78858,3.76766 3.89467,3.76766 1.09008,0 2.21191,-0.45508 2.94216,-1.21708 v -2.99508 h -3.21733 z"
         style="fill:#ea6621;fill-opacity:1;stroke-width:0.26458332"
         id="path168"
         inkscape:connector-curvature="0" />
      <path
         d="m 109.62168,231.01119 c -0.762,0 -1.51341,0.21167 -2.286,0.60325 l 0.51859,1.02658 c 0.43391,-0.22225 0.91016,-0.39158 1.41816,-0.39158 0.89959,0 1.25942,0.508 1.25942,1.09008 v 0.10584 c -0.46567,-0.17992 -0.9525,-0.27517 -1.397,-0.27517 -1.27,0 -2.27542,0.74083 -2.27542,1.82033 0,1.04775 0.89959,1.74625 2.06375,1.74625 0.59267,0 1.21709,-0.23283 1.60867,-0.67733 v 0.55033 h 1.49225 v -3.27025 c 0,-1.42875 -0.97367,-2.32833 -2.40242,-2.32833 z m -0.34925,4.65667 c -0.52916,0 -0.92075,-0.27517 -0.92075,-0.71967 0,-0.4445 0.4445,-0.77258 1.00542,-0.77258 0.42333,0 0.8255,0.0741 1.17475,0.20108 v 0.508 c -0.10583,0.508 -0.66675,0.78317 -1.25942,0.78317 z"
         style="fill:#ea6621;fill-opacity:1;stroke-width:0.26458332"
         id="path170"
         inkscape:connector-curvature="0" />
      <path
         d="m 116.19476,235.25511 c -0.10583,0.10583 -0.3175,0.17991 -0.52917,0.17991 -0.28575,0 -0.51858,-0.254 -0.51858,-0.61383 v -2.43417 h 1.18533 v -1.24883 h -1.18533 v -1.50283 h -1.48167 v 1.50283 h -0.75141 v 1.24883 h 0.75141 v 2.67759 c 0,0.98425 0.67734,1.67216 1.64042,1.67216 0.4445,0 0.94192,-0.1905 1.25942,-0.47625 z"
         style="fill:#ea6621;fill-opacity:1;stroke-width:0.26458332"
         id="path172"
         inkscape:connector-curvature="0" />
      <path
         d="m 120.69731,231.01119 c -0.6985,0 -1.30175,0.3175 -1.64042,0.79375 v -2.59292 h -1.54517 v 7.39775 h 1.54517 v -3.2385 c 0,-0.59266 0.49742,-1.05833 1.143,-1.05833 0.61383,0 1.03717,0.46567 1.03717,1.143 v 3.15383 h 1.49225 v -3.48191 c 0,-1.23825 -0.84667,-2.11667 -2.032,-2.11667 z"
         style="fill:#ea6621;fill-opacity:1;stroke-width:0.26458332"
         id="path174"
         inkscape:connector-curvature="0" />
      <path
         d="m 126.60578,235.37152 c -0.64558,0 -1.12183,-0.40216 -1.30175,-0.99483 h 3.94759 c 0,-2.06375 -1.00542,-3.3655 -2.71992,-3.3655 -1.59808,0 -2.81517,1.19592 -2.81517,2.84692 0,1.68275 1.27,2.87866 2.89984,2.87866 0.80433,0 1.74625,-0.33866 2.23308,-0.84666 l -0.98425,-1.00542 c -0.29633,0.28575 -0.8255,0.48683 -1.25942,0.48683 z m -0.0106,-2.99508 c 0.62442,0 1.02658,0.34925 1.17475,0.889 h -2.44475 c 0.20108,-0.55033 0.68792,-0.889 1.27,-0.889 z"
         style="fill:#ea6621;fill-opacity:1;stroke-width:0.26458332"
         id="path176"
         inkscape:connector-curvature="0" />
      <path
         d="m 131.85247,232.15419 v -1.016 h -1.54517 v 5.47158 h 1.54517 v -2.61408 c 0,-1.02658 0.73025,-1.68275 1.87325,-1.68275 v -1.30175 c -0.83608,0 -1.51342,0.43392 -1.87325,1.143 z"
         style="fill:#ea6621;fill-opacity:1;stroke-width:0.26458332"
         id="path178"
         inkscape:connector-curvature="0" />
      <path
         d="m 139.81692,236.73677 c 1.86267,0 3.25967,-1.04775 3.25967,-2.59291 0,-1.03717 -0.68792,-1.48167 -2.286,-1.85209 -0.9525,-0.23283 -1.29117,-0.381 -1.29117,-0.73025 0,-0.53975 0.52917,-1.02658 1.397,-1.02658 0.53975,0 1.29117,0.254 1.83092,0.77258 l 0.97367,-1.05833 c -0.65617,-0.65617 -1.66159,-1.03717 -2.65642,-1.03717 -1.87325,0 -3.14325,1.10067 -3.14325,2.57175 0,1.15359 0.889,1.51342 2.30717,1.86267 0.97366,0.24342 1.28058,0.381 1.28058,0.71967 0,0.55033 -0.5715,1.04775 -1.55575,1.04775 -0.70908,0 -1.53458,-0.32809 -2.0955,-0.92075 l -1.04775,1.00541 c 0.68792,0.75142 1.8415,1.23825 3.02683,1.23825 z"
         style="font-style:italic;font-variant:normal;font-weight:bold;font-stretch:normal;font-family:Metropolis;-inkscape-font-specification:'Metropolis Bold Italic';fill:#ea6621;fill-opacity:1"
         id="path180"
         inkscape:connector-curvature="0" />
      <path
         d="m 147.92128,231.01119 c -0.64558,0 -1.25942,0.27517 -1.67217,0.70908 l 0.51859,-2.50825 h -1.54517 l -1.53458,7.39775 h 1.54516 l 0.67734,-3.25966 c 0.15875,-0.55034 0.78316,-1.03717 1.44991,-1.03717 0.45509,0 0.74084,0.27517 0.74084,0.75142 0,0.23283 -0.0423,0.40216 -0.70909,3.54541 h 1.49225 c 0.67734,-3.24908 0.762,-3.52425 0.762,-3.92641 0,-0.98425 -0.65616,-1.67217 -1.72508,-1.67217 z"
         style="font-style:italic;font-variant:normal;font-weight:bold;font-stretch:normal;font-family:Metropolis;-inkscape-font-specification:'Metropolis Bold Italic';fill:#ea6621;fill-opacity:1"
         id="path182"
         inkscape:connector-curvature="0" />
      <path
         d="m 155.449,231.13819 -0.1905,0.889 c -0.32808,-0.62442 -0.94191,-1.016 -1.69333,-1.016 -1.75683,0 -3.1115,1.66158 -3.1115,3.50308 0,1.28059 0.85725,2.2225 2.07433,2.2225 0.74084,0 1.40759,-0.3175 1.92617,-0.83608 l -0.14817,0.70908 h 1.54517 l 1.143,-5.47158 z m -2.413,4.29683 c -0.635,0 -1.0795,-0.45508 -1.0795,-1.06891 0,-1.10067 0.85725,-2.05317 1.88384,-2.05317 0.635,0 1.10066,0.4445 1.10066,1.05833 0,0.11642 -0.0106,0.23284 -0.0318,0.33867 l -0.0317,0.13758 c -0.21166,0.86784 -0.96308,1.5875 -1.8415,1.5875 z"
         style="font-style:italic;font-variant:normal;font-weight:bold;font-stretch:normal;font-family:Metropolis;-inkscape-font-specification:'Metropolis Bold Italic';fill:#ea6621;fill-opacity:1"
         id="path184"
         inkscape:connector-curvature="0" />
      <path
         d="m 159.70466,232.08011 0.1905,-0.94192 H 158.35 l -1.143,5.47158 h 1.54516 l 0.56092,-2.67758 c 0.254,-0.9525 1.15358,-1.61925 2.25425,-1.61925 l 0.16933,-1.30175 c -0.8255,0 -1.55575,0.40217 -2.032,1.06892 z"
         style="font-style:italic;font-variant:normal;font-weight:bold;font-stretch:normal;font-family:Metropolis;-inkscape-font-specification:'Metropolis Bold Italic';fill:#ea6621;fill-opacity:1"
         id="path186"
         inkscape:connector-curvature="0" />
      <path
         d="m 166.13937,234.96129 1.2144,0.63046 q -0.40825,0.53743 -1.08521,0.85266 -0.67179,0.31006 -1.49345,0.31006 -1.28674,0 -2.03088,-0.72347 -0.73897,-0.72347 -0.73897,-1.92237 0,-1.36942 0.925,-2.3151 0.93018,-0.95085 2.24276,-0.95085 0.79065,0 1.4056,0.34623 0.62012,0.34624 0.97668,1.00769 0.35657,0.66146 0.35657,1.43661 0,0.24288 -0.0517,0.56844 h -4.48551 q 0.0207,0.58394 0.38241,0.93018 0.3669,0.34623 1.00769,0.34623 0.77514,0 1.37459,-0.51677 z m 0.3514,-1.7725 q -0.15503,-0.51676 -0.51676,-0.78031 -0.36174,-0.26872 -0.87334,-0.26872 -0.50643,0 -0.91467,0.27389 -0.40824,0.27388 -0.62012,0.77514 z"
         style="font-style:italic;font-variant:normal;font-weight:bold;font-stretch:normal;font-family:'Century Gothic';-inkscape-font-specification:'Century Gothic Bold Italic';fill:#ea6621;fill-opacity:1"
         id="path188"
         inkscape:connector-curvature="0" />
      <path
         d="m 172.19845,236.60977 h 1.55575 v -2.032 l 0.91017,-0.97366 2.23308,3.00566 h 1.89441 l -3.03741,-4.11691 2.83633,-3.15384 h -1.89441 l -2.94217,3.33375 v -3.33375 h -1.55575 z"
         style="fill:#ea6621;fill-opacity:1;stroke-width:0.26458332"
         id="path190"
         inkscape:connector-curvature="0" />
      <path
         d="m 182.66769,231.01119 c -0.70909,0 -1.32292,0.3175 -1.651,0.81492 v -0.68792 h -1.54517 v 5.47158 h 1.54517 v -3.27025 l 0.0106,0.0318 c 0,-0.59266 0.49742,-1.05833 1.143,-1.05833 0.61383,0 1.03717,0.46567 1.03717,1.143 v 3.15383 h 1.49225 v -3.48191 c 0,-1.23825 -0.84667,-2.11667 -2.032,-2.11667 z"
         style="fill:#ea6621;fill-opacity:1;stroke-width:0.26458332"
         id="path192"
         inkscape:connector-curvature="0" />
      <path
         d="m 188.68199,236.73677 c 1.61925,0 2.97392,-1.31233 2.97392,-2.86808 0,-1.55575 -1.35467,-2.8575 -2.97392,-2.8575 -1.62983,0 -2.99508,1.30175 -2.99508,2.8575 0,1.55575 1.36525,2.86808 2.99508,2.86808 z m 0,-1.30175 c -0.8255,0 -1.51342,-0.71966 -1.51342,-1.56633 0,-0.84667 0.68792,-1.55575 1.51342,-1.55575 0.81492,0 1.50283,0.70908 1.50283,1.55575 0,0.84667 -0.68791,1.56633 -1.50283,1.56633 z"
         style="fill:#ea6621;fill-opacity:1;stroke-width:0.26458332"
         id="path194"
         inkscape:connector-curvature="0" />
      <path
         d="m 193.83955,236.60977 h 1.38642 l 1.02658,-3.43958 1.016,3.43958 h 1.38642 l 1.86266,-5.47158 h -1.51341 l -1.03717,3.40783 -1.0795,-3.40783 h -1.28058 l -1.0795,3.40783 -1.03717,-3.40783 h -1.51342 z"
         style="fill:#ea6621;fill-opacity:1;stroke-width:0.26458332"
         id="path196"
         inkscape:connector-curvature="0" />
    </g>
  </g>
  <style
     id="style71"
     type="text/css">
	.st0{enable-background:new    ;}
	.st1{fill:#ea6621;}
</style>
</svg>
