<?xml version="1.0" encoding="UTF-8" standalone="no"?>
<!-- Created with Inkscape (http://www.inkscape.org/) -->

<svg
   xmlns:dc="http://purl.org/dc/elements/1.1/"
   xmlns:cc="http://creativecommons.org/ns#"
   xmlns:rdf="http://www.w3.org/1999/02/22-rdf-syntax-ns#"
   xmlns:svg="http://www.w3.org/2000/svg"
   xmlns="http://www.w3.org/2000/svg"
   xmlns:sodipodi="http://sodipodi.sourceforge.net/DTD/sodipodi-0.dtd"
   xmlns:inkscape="http://www.inkscape.org/namespaces/inkscape"
   width="180"
   height="20"
   viewBox="0 0 47.624999 5.291667"
   version="1.1"
   id="svg8"
   inkscape:version="0.92.4 (5da689c313, 2019-01-14)"
   sodipodi:docname="GatherShareKnowLogo.svg">
  <defs
     id="defs2" />
  <sodipodi:namedview
     id="base"
     pagecolor="#ffffff"
     bordercolor="#666666"
     borderopacity="1.0"
     inkscape:pageopacity="0.0"
     inkscape:pageshadow="2"
     inkscape:zoom="7.9195959"
     inkscape:cx="93.814419"
     inkscape:cy="26.488692"
     inkscape:document-units="mm"
     inkscape:current-layer="g3816"
     showgrid="false"
     inkscape:window-width="3200"
     inkscape:window-height="1675"
     inkscape:window-x="-13"
     inkscape:window-y="-13"
     inkscape:window-maximized="1"
     units="px"
     fit-margin-top="-0.4"
     fit-margin-left="0"
     fit-margin-right="0"
     fit-margin-bottom="0" />
  <metadata
     id="metadata5">
    <rdf:RDF>
      <cc:Work
         rdf:about="">
        <dc:format>image/svg+xml</dc:format>
        <dc:type
           rdf:resource="http://purl.org/dc/dcmitype/StillImage" />
        <dc:title></dc:title>
      </cc:Work>
    </rdf:RDF>
  </metadata>
  <g
     inkscape:label="Layer 1"
     inkscape:groupmode="layer"
     id="layer1"
     transform="translate(-27.642312,-60.743525)">
    <g
       aria-label="Gather Sharek Know"
       transform="matrix(0.26458333,0,0,0.26458333,0.94494043,34.017857)"
       style="font-style:normal;font-weight:normal;font-size:40px;line-height:1.25;font-family:sans-serif;letter-spacing:0px;word-spacing:0px;fill:#000000;fill-opacity:1;stroke:none"
       id="flowRoot3721">
      <g
         id="Symbols"
         transform="translate(99.806811,107.71035)">
	<g
   transform="translate(-150,-18)"
   id="Navigation_x2F_Patient_x2F_ScreeningStudyA">
		<g
   id="g3816"
   class="st0"
   style="enable-background:new">
			
            
            
            
            
            
            
            
            
            
            
            
            
            
            
		<g
   aria-label="Gather Share Know"
   style="font-style:normal;font-variant:normal;font-weight:bold;font-stretch:normal;font-size:16px;line-height:1.25;font-family:sans-serif;-inkscape-font-specification:'sans-serif Bold';letter-spacing:0px;word-spacing:0px;fill:#ea6621;fill-opacity:1;stroke:none"
   id="text3851">
  <path
     d="m 165.26918,26.469109 q -0.78125,0.304687 -2.07031,0.609375 -1.28906,0.296875 -2.57031,0.296875 -2.96875,0 -4.64844,-1.609375 -1.67969,-1.617188 -1.67969,-4.460938 0,-2.710937 1.69531,-4.367187 1.69532,-1.664063 4.72657,-1.664063 1.14843,0 2.1875,0.210938 1.03906,0.203125 2.3125,0.820312 v 2.726563 h -0.33594 q -0.21875,-0.164063 -0.64063,-0.460938 -0.42187,-0.304687 -0.8125,-0.515625 -0.45312,-0.25 -1.0625,-0.429687 -0.60156,-0.179688 -1.28125,-0.179688 -0.79687,0 -1.44531,0.234375 -0.64844,0.234375 -1.16406,0.71875 -0.49219,0.46875 -0.78125,1.195313 -0.28125,0.71875 -0.28125,1.664062 0,1.929688 1.02344,2.953125 1.02343,1.023438 3.02343,1.023438 0.17188,0 0.375,-0.0078 0.21094,-0.0078 0.38282,-0.02344 v -2.28125 h -2.32032 v -2.195313 h 5.36719 z"
     id="path3855"
     inkscape:connector-curvature="0" />
  <path
     d="m 173.10512,24.844109 v -1.828125 q -0.57031,0.04687 -1.23438,0.132812 -0.66406,0.07813 -1.00781,0.1875 -0.42187,0.132813 -0.64844,0.390625 -0.21875,0.25 -0.21875,0.664063 0,0.273437 0.0469,0.445312 0.0469,0.171875 0.23437,0.328125 0.17969,0.15625 0.42969,0.234375 0.25,0.07031 0.78125,0.07031 0.42188,0 0.85156,-0.171875 0.4375,-0.171875 0.76563,-0.453125 z m 0,1.359375 q -0.22656,0.171875 -0.5625,0.414062 -0.33594,0.242188 -0.63281,0.382813 -0.41407,0.1875 -0.85938,0.273437 -0.44531,0.09375 -0.97656,0.09375 -1.25,0 -2.09375,-0.773437 -0.84375,-0.773438 -0.84375,-1.976563 0,-0.960937 0.42969,-1.570312 0.42968,-0.609375 1.21875,-0.960938 0.78125,-0.351562 1.9375,-0.5 1.15625,-0.148437 2.39843,-0.21875 v -0.04687 q 0,-0.726562 -0.59375,-1 -0.59375,-0.28125 -1.75,-0.28125 -0.69531,0 -1.48437,0.25 -0.78906,0.242188 -1.13281,0.375 h -0.25782 v -2.117187 q 0.44532,-0.117188 1.44532,-0.273438 1.00781,-0.164062 2.01562,-0.164062 2.39844,0 3.46094,0.742187 1.07031,0.734375 1.07031,2.3125 v 5.96875 h -2.78906 z"
     id="path3857"
     inkscape:connector-curvature="0" />
  <path
     d="m 184.08949,27.055046 q -0.45312,0.117188 -0.96093,0.179688 -0.50782,0.07031 -1.24219,0.07031 -1.64063,0 -2.44531,-0.664062 -0.79688,-0.664063 -0.79688,-2.273438 v -4.101562 h -1.15625 v -1.90625 h 1.15625 v -2.507813 h 2.8125 v 2.507813 h 2.63281 v 1.90625 h -2.63281 v 3.109375 q 0,0.460937 0.008,0.804687 0.008,0.34375 0.125,0.617188 0.10938,0.273437 0.38282,0.4375 0.28125,0.15625 0.8125,0.15625 0.21875,0 0.57031,-0.09375 0.35937,-0.09375 0.5,-0.171875 h 0.23437 z"
     id="path3859"
     inkscape:connector-curvature="0" />
  <path
     d="m 194.57387,27.133171 h -2.82813 v -4.351562 q 0,-0.53125 -0.0547,-1.054688 -0.0547,-0.53125 -0.1875,-0.78125 -0.15625,-0.289062 -0.46094,-0.421875 -0.29688,-0.132812 -0.83594,-0.132812 -0.38281,0 -0.78125,0.125 -0.39062,0.125 -0.85156,0.398437 v 6.21875 h -2.8125 v -12.15625 h 2.8125 v 4.351563 q 0.75,-0.585938 1.4375,-0.898438 0.69531,-0.3125 1.53906,-0.3125 1.42188,0 2.21875,0.828125 0.80469,0.828125 0.80469,2.476563 z"
     id="path3861"
     inkscape:connector-curvature="0" />
  <path
     d="m 205.80824,23.265984 h -6.4375 q 0.0625,1.03125 0.78125,1.578125 0.72657,0.546875 2.13282,0.546875 0.89062,0 1.72656,-0.320313 0.83594,-0.320312 1.32031,-0.6875 h 0.3125 v 2.257813 q -0.95312,0.382812 -1.79687,0.554687 -0.84375,0.171875 -1.86719,0.171875 -2.64063,0 -4.04688,-1.1875 -1.40625,-1.1875 -1.40625,-3.382812 0,-2.171875 1.32813,-3.4375 1.33594,-1.273438 3.65625,-1.273438 2.14062,0 3.21875,1.085938 1.07812,1.078125 1.07812,3.109375 z m -2.79687,-1.648438 q -0.0234,-0.882812 -0.4375,-1.328125 -0.41406,-0.445312 -1.28906,-0.445312 -0.8125,0 -1.33594,0.421875 -0.52344,0.421875 -0.58594,1.351562 z"
     id="path3863"
     inkscape:connector-curvature="0" />
  <path
     d="m 214.15199,21.039421 h -0.25 q -0.17968,-0.0625 -0.57812,-0.09375 -0.39844,-0.03125 -0.66406,-0.03125 -0.60157,0 -1.0625,0.07813 -0.46094,0.07813 -0.99219,0.265625 v 5.875 h -2.8125 v -8.773437 h 2.8125 v 1.289062 q 0.92969,-0.796875 1.61719,-1.054687 0.6875,-0.265625 1.26562,-0.265625 0.14844,0 0.33594,0.0078 0.1875,0.0078 0.32812,0.02344 z"
     id="path3865"
     inkscape:connector-curvature="0" />
  <path
     d="m 224.63637,27.344109 q -1.49219,0 -2.66406,-0.257813 -1.16407,-0.257812 -2.01563,-0.640625 l 0.60156,-2.789062 h 0.32813 q 0.80469,0.734375 1.89062,1.140625 1.08594,0.398437 2.33594,0.398437 1.28125,0 1.88281,-0.34375 0.60157,-0.351562 0.60157,-1 0,-0.242187 -0.10157,-0.414062 -0.0937,-0.179688 -0.375,-0.351563 -0.28125,-0.171875 -0.77343,-0.335937 -0.48438,-0.171875 -1.25782,-0.390625 -0.85156,-0.234375 -1.53125,-0.507813 -0.67187,-0.273437 -1.14843,-0.648437 -0.47657,-0.382813 -0.72657,-0.882813 -0.24218,-0.5 -0.24218,-1.195312 0,-1.75 1.53906,-2.789063 1.54687,-1.046875 4.22656,-1.046875 1.28906,0 2.42969,0.210938 1.14844,0.210937 1.94531,0.570312 l -0.57031,2.679688 h -0.32031 q -0.60938,-0.5625 -1.60938,-0.9375 -0.99219,-0.382813 -2.17187,-0.382813 -1.15625,0 -1.78907,0.335938 -0.63281,0.335937 -0.63281,0.929687 0,0.273438 0.0937,0.453125 0.0937,0.179688 0.38281,0.351563 0.25,0.15625 0.78907,0.34375 0.53906,0.179687 1.26562,0.375 1.95313,0.523437 2.78906,1.226562 0.83594,0.703125 0.83594,1.90625 0,1.007813 -0.45312,1.773438 -0.45313,0.765625 -1.25,1.242187 -0.83594,0.507813 -1.89844,0.742188 -1.0625,0.234375 -2.40625,0.234375 z"
     style="font-style:italic;font-variant:normal;font-weight:bold;font-stretch:normal;font-family:sans-serif;-inkscape-font-specification:'sans-serif Bold Italic';fill:#ea6621;fill-opacity:1"
     id="path3867"
     inkscape:connector-curvature="0" />
  <path
     d="m 241.87074,20.344109 q 0,0.1875 -0.0312,0.484375 -0.0312,0.296875 -0.10156,0.59375 l -1.32031,5.710937 h -2.84375 l 1.00781,-4.351562 q 0.10938,-0.5 0.17188,-0.84375 0.0625,-0.34375 0.0625,-0.617188 0,-0.523437 -0.26563,-0.75 -0.25781,-0.234375 -0.94531,-0.234375 -0.33594,0 -0.77344,0.148438 -0.4375,0.140625 -0.97656,0.429687 l -1.4375,6.21875 h -2.82813 l 2.80469,-12.15625 h 2.82813 l -1,4.351563 q 0.85937,-0.570313 1.57812,-0.890625 0.71875,-0.320313 1.57813,-0.320313 1.19531,0 1.84375,0.585938 0.64843,0.578125 0.64843,1.640625 z"
     style="font-style:italic;font-variant:normal;font-weight:bold;font-stretch:normal;font-family:sans-serif;-inkscape-font-specification:'sans-serif Bold Italic';fill:#ea6621;fill-opacity:1"
     id="path3869"
     inkscape:connector-curvature="0" />
  <path
     d="m 249.26918,22.992546 q -0.75,0.0625 -1.40625,0.148438 -0.65625,0.08594 -1.11719,0.25 -0.47656,0.171875 -0.72656,0.484375 -0.25,0.3125 -0.25,0.828125 0,0.453125 0.32813,0.640625 0.33593,0.179687 0.96875,0.179687 0.41406,0 0.88281,-0.1875 0.47656,-0.195312 0.89062,-0.492187 z m -0.74219,3.210938 q -0.26562,0.171875 -0.64062,0.414062 -0.375,0.242188 -0.69531,0.382813 -0.4375,0.179687 -0.82032,0.273437 -0.38281,0.09375 -1.0625,0.09375 -1.09375,0 -1.78906,-0.609375 -0.6875,-0.617187 -0.6875,-1.601562 0,-1.039063 0.49219,-1.757813 0.49219,-0.726562 1.46094,-1.15625 0.90625,-0.40625 2.15625,-0.585937 1.25781,-0.179688 2.71875,-0.265625 0.008,-0.04687 0.0312,-0.148438 0.0234,-0.109375 0.0234,-0.242187 0,-0.554688 -0.51562,-0.773438 -0.51563,-0.226562 -1.53906,-0.226562 -0.69532,0 -1.53907,0.234375 -0.83593,0.234375 -1.25781,0.390625 h -0.25781 l 0.41406,-2.078125 q 0.49219,-0.125 1.52344,-0.28125 1.03125,-0.15625 2.05469,-0.15625 2.0625,0 3.02343,0.539062 0.96875,0.539063 0.96875,1.671875 0,0.15625 -0.0312,0.40625 -0.0234,0.25 -0.0703,0.4375 l -1.375,5.96875 h -2.79687 z"
     style="font-style:italic;font-variant:normal;font-weight:bold;font-stretch:normal;font-family:sans-serif;-inkscape-font-specification:'sans-serif Bold Italic';fill:#ea6621;fill-opacity:1"
     id="path3871"
     inkscape:connector-curvature="0" />
  <path
     d="m 261.46449,21.039421 h -0.25 q -0.1875,-0.0625 -0.53125,-0.09375 -0.34375,-0.03125 -0.67968,-0.03125 -0.55469,0 -1.07032,0.08594 -0.51562,0.07813 -1.0625,0.257812 l -1.35937,5.875 h -2.82813 l 2.03125,-8.773437 h 2.82813 l -0.29688,1.289062 q 0.79688,-0.585937 1.58594,-0.953125 0.79688,-0.367187 1.60156,-0.367187 0.14844,0 0.32813,0.0078 0.1875,0.0078 0.32812,0.02344 z"
     style="font-style:italic;font-variant:normal;font-weight:bold;font-stretch:normal;font-family:sans-serif;-inkscape-font-specification:'sans-serif Bold Italic';fill:#ea6621;fill-opacity:1"
     id="path3873"
     inkscape:connector-curvature="0" />
  <path
     d="m 268.75356,21.617546 q 0.0234,-0.140625 0.0312,-0.257812 0.0156,-0.117188 0.0156,-0.242188 0,-0.617187 -0.38281,-0.945312 -0.38281,-0.328125 -1.10156,-0.328125 -0.86719,0 -1.46094,0.46875 -0.58594,0.46875 -0.89063,1.304687 z m -2.14844,5.75 q -2.24219,0 -3.46094,-0.992187 -1.21875,-0.992188 -1.21875,-2.742188 0,-1.195312 0.39844,-2.195312 0.39844,-1 1.14844,-1.757813 0.71875,-0.734375 1.79687,-1.164062 1.07813,-0.429688 2.36719,-0.429688 1.96094,0 2.95312,0.796875 1,0.789063 1,2.335938 0,0.53125 -0.10937,1.039062 -0.10156,0.507813 -0.27344,1.007813 h -6.51562 q 0,0.04687 0,0.09375 0,0.03906 0,0.08594 0,0.914063 0.64062,1.429688 0.64063,0.515625 1.96094,0.515625 0.92187,0 1.74219,-0.3125 0.82812,-0.3125 1.4375,-0.695313 h 0.3125 l -0.52344,2.257813 q -0.82031,0.359375 -1.72656,0.539062 -0.90625,0.1875 -1.92969,0.1875 z"
     style="font-style:italic;font-variant:normal;font-weight:bold;font-stretch:normal;font-family:sans-serif;-inkscape-font-specification:'sans-serif Bold Italic';fill:#ea6621;fill-opacity:1"
     id="path3875"
     inkscape:connector-curvature="0" />
  <path
     d="m 289.77699,27.133171 h -3.67968 l -3.47657,-4.65625 -0.70312,0.851563 v 3.804687 h -3 V 15.500359 h 3 v 5.265625 l 4.15625,-5.265625 h 3.47656 l -4.54687,5.382812 z"
     id="path3877"
     inkscape:connector-curvature="0" />
  <path
     d="m 299.91762,27.133171 h -2.82813 v -4.351562 q 0,-0.53125 -0.0547,-1.054688 -0.0547,-0.53125 -0.1875,-0.78125 -0.15625,-0.289062 -0.46094,-0.421875 -0.29688,-0.132812 -0.83594,-0.132812 -0.38281,0 -0.78125,0.125 -0.39062,0.125 -0.85156,0.398437 v 6.21875 h -2.8125 v -8.773437 h 2.8125 v 0.96875 q 0.75,-0.585938 1.4375,-0.898438 0.69531,-0.3125 1.53906,-0.3125 1.42188,0 2.21875,0.828125 0.80469,0.828125 0.80469,2.476563 z"
     id="path3879"
     inkscape:connector-curvature="0" />
  <path
     d="m 311.48012,22.750359 q 0,2.164062 -1.26563,3.414062 -1.25781,1.242188 -3.53906,1.242188 -2.28125,0 -3.54687,-1.242188 -1.25782,-1.25 -1.25782,-3.414062 0,-2.179688 1.26563,-3.421875 1.27344,-1.242188 3.53906,-1.242188 2.29688,0 3.54688,1.25 1.25781,1.25 1.25781,3.414063 z m -3.46094,2.132812 q 0.27344,-0.335937 0.40625,-0.804687 0.14063,-0.476563 0.14063,-1.3125 0,-0.773438 -0.14063,-1.296875 -0.14062,-0.523438 -0.39062,-0.835938 -0.25,-0.320312 -0.60157,-0.453125 -0.35156,-0.132812 -0.75781,-0.132812 -0.40625,0 -0.72656,0.109375 -0.3125,0.109375 -0.60156,0.4375 -0.25782,0.304687 -0.41407,0.835937 -0.14843,0.53125 -0.14843,1.335938 0,0.71875 0.13281,1.25 0.13281,0.523437 0.39062,0.84375 0.25,0.304687 0.59375,0.445312 0.35157,0.140625 0.79688,0.140625 0.38281,0 0.72656,-0.125 0.35156,-0.132812 0.59375,-0.4375 z"
     id="path3881"
     inkscape:connector-curvature="0" />
  <path
     d="m 327.50356,18.359734 -2.71875,8.773437 h -2.98438 l -1.78906,-5.914062 -1.75781,5.914062 h -3.02344 l -2.69531,-8.773437 h 2.95312 l 1.5,6.046875 1.875,-6.046875 h 2.49219 l 1.78125,6.046875 1.47656,-6.046875 z"
     id="path3883"
     inkscape:connector-curvature="0" />
</g>
</g>

	</g>

</g>
    </g>
  </g>
  <style
     id="style3780"
     type="text/css">
	.st0{enable-background:new    ;}
	.st1{fill:#ea6621;}
</style>
</svg>
