<?xml version="1.0" encoding="UTF-8" standalone="no"?>
<!-- Created with Inkscape (http://www.inkscape.org/) -->

<svg
   xmlns:dc="http://purl.org/dc/elements/1.1/"
   xmlns:cc="http://creativecommons.org/ns#"
   xmlns:rdf="http://www.w3.org/1999/02/22-rdf-syntax-ns#"
   xmlns:svg="http://www.w3.org/2000/svg"
   xmlns="http://www.w3.org/2000/svg"
   xmlns:sodipodi="http://sodipodi.sourceforge.net/DTD/sodipodi-0.dtd"
   xmlns:inkscape="http://www.inkscape.org/namespaces/inkscape"
   width="300.29999"
   height="30.729"
   viewBox="0 0 79.454372 8.1303815"
   version="1.1"
   id="svg8"
   sodipodi:docname="GskLogoOrange2.svg"
   inkscape:version="0.92.4 (5da689c313, 2019-01-14)">
  <defs
     id="defs2" />
  <sodipodi:namedview
     id="base"
     pagecolor="#ffffff"
     bordercolor="#666666"
     borderopacity="1.0"
     inkscape:pageopacity="0.0"
     inkscape:pageshadow="2"
     inkscape:zoom="3.2460519"
     inkscape:cx="126.63155"
     inkscape:cy="41.597311"
     inkscape:document-units="mm"
     inkscape:current-layer="text12"
     showgrid="false"
     inkscape:window-width="1920"
     inkscape:window-height="1001"
     inkscape:window-x="-9"
     inkscape:window-y="-9"
     inkscape:window-maximized="1"
     width="100mm" />
  <metadata
     id="metadata5">
    <rdf:RDF>
      <cc:Work
         rdf:about="">
        <dc:format>image/svg+xml</dc:format>
        <dc:type
           rdf:resource="http://purl.org/dc/dcmitype/StillImage" />
        <dc:title></dc:title>
      </cc:Work>
    </rdf:RDF>
  </metadata>
  <g
     inkscape:label="Layer 1"
     inkscape:groupmode="layer"
     id="layer1"
     style="display:inline"
     transform="translate(0,-288.86962)">
    <g
       aria-label="Gather Share Know"
       style="font-style:normal;font-variant:normal;font-weight:normal;font-stretch:normal;font-size:10.58333302px;line-height:1.25;font-family:Metropolis;-inkscape-font-specification:Metropolis;letter-spacing:0px;word-spacing:0px;fill:#ea6621;fill-opacity:1;stroke:none;stroke-width:0.26458332"
       id="text12"
       transform="matrix(0.37636505,0,0,0.37636505,-37.279854,207.91734)">
      <path
         d="m 106.82048,226.48585 h 3.52055 v 2.31037 c -0.85813,0.61609 -1.9143,0.96816 -2.94846,0.96816 -2.57441,0 -4.75276,-2.24436 -4.75276,-4.88478 0,-2.61843 2.17835,-4.86279 4.75276,-4.86279 1.38623,0 2.86046,0.66011 3.76261,1.69428 l 2.35436,-2.11234 c -1.51824,-1.58425 -3.85061,-2.53042 -6.11697,-2.53042 -4.37871,0 -8.0973,3.56458 -8.0973,7.81127 0,4.24667 3.71859,7.83324 8.0973,7.83324 2.26636,0 4.59873,-0.94614 6.11697,-2.5304 v -6.22699 h -6.68906 z"
         style="fill:#ea6621;fill-opacity:1;stroke-width:0.55008811"
         id="path168"
         inkscape:connector-curvature="0" />
      <path
         d="m 121.2149,220.80894 c -1.58426,0 -3.14649,0.44008 -4.75276,1.2542 l 1.07818,2.13434 c 0.90213,-0.46208 1.89229,-0.81413 2.94846,-0.81413 1.87031,0 2.61843,1.05617 2.61843,2.26636 v 0.22005 c -0.96816,-0.37407 -1.98032,-0.5721 -2.90447,-0.5721 -2.64042,0 -4.73076,1.54024 -4.73076,3.7846 0,2.17835 1.87031,3.63058 4.29069,3.63058 1.2322,0 2.53041,-0.48407 3.34454,-1.40822 v 1.14418 h 3.10249 v -6.79909 c 0,-2.97048 -2.02433,-4.84077 -4.9948,-4.84077 z m -0.72612,9.68156 c -1.10016,0 -1.91431,-0.5721 -1.91431,-1.49625 0,-0.92415 0.92415,-1.60625 2.09035,-1.60625 0.88013,0 1.71627,0.15406 2.44239,0.41806 v 1.05617 c -0.22003,1.05617 -1.38622,1.62827 -2.61843,1.62827 z"
         style="fill:#ea6621;fill-opacity:1;stroke-width:0.55008811"
         id="path170"
         inkscape:connector-curvature="0" />
      <path
         d="m 134.88081,229.63236 c -0.22003,0.22003 -0.6601,0.37405 -1.10018,0.37405 -0.5941,0 -1.07817,-0.52809 -1.07817,-1.2762 v -5.06082 h 2.46439 v -2.59641 h -2.46439 v -3.12449 h -3.0805 v 3.12449 h -1.56223 v 2.59641 h 1.56223 v 5.56691 c 0,2.04633 1.40824,3.47654 3.41056,3.47654 0.92414,0 1.95832,-0.39606 2.61842,-0.99016 z"
         style="fill:#ea6621;fill-opacity:1;stroke-width:0.55008811"
         id="path172"
         inkscape:connector-curvature="0" />
      <path
         d="m 144.24194,220.80894 c -1.45223,0 -2.70643,0.66011 -3.41055,1.65026 v -5.39087 h -3.21252 v 15.38047 h 3.21252 v -6.73308 c 0,-1.23218 1.03417,-2.20035 2.37638,-2.20035 1.2762,0 2.15635,0.96817 2.15635,2.37638 v 6.55705 h 3.1025 v -7.23915 c 0,-2.57441 -1.76029,-4.40071 -4.22468,-4.40071 z"
         style="fill:#ea6621;fill-opacity:1;stroke-width:0.55008811"
         id="path174"
         inkscape:connector-curvature="0" />
      <path
         d="m 156.52609,229.87439 c -1.34221,0 -2.33237,-0.83612 -2.70644,-2.06833 h 8.20733 c 0,-4.29069 -2.09034,-6.99712 -5.65491,-6.99712 -3.32253,0 -5.85295,2.48641 -5.85295,5.91896 0,3.49856 2.64043,5.98494 6.02898,5.98494 1.67226,0 3.63058,-0.7041 4.64274,-1.76027 l -2.04633,-2.09034 c -0.61609,0.5941 -1.71627,1.01216 -2.61842,1.01216 z m -0.022,-6.227 c 1.29821,0 2.13433,0.72612 2.44239,1.8483 h -5.08282 c 0.41806,-1.14418 1.43024,-1.8483 2.64043,-1.8483 z"
         style="fill:#ea6621;fill-opacity:1;stroke-width:0.55008811"
         id="path176"
         inkscape:connector-curvature="0" />
      <path
         d="m 167.43434,223.18532 v -2.11234 h -3.21252 v 11.37582 h 3.21252 v -5.43487 c 0,-2.13433 1.51824,-3.49856 3.89462,-3.49856 v -2.70643 c -1.73827,0 -3.14651,0.90215 -3.89462,2.37638 z"
         style="fill:#ea6621;fill-opacity:1;stroke-width:0.55008811"
         id="path178"
         inkscape:connector-curvature="0" />
      <path
         d="m 183.99301,232.71284 c 3.87263,0 6.7771,-2.17835 6.7771,-5.39085 0,-2.15635 -1.43024,-3.0805 -4.75277,-3.85063 -1.98031,-0.48407 -2.68443,-0.79213 -2.68443,-1.51824 0,-1.12218 1.10018,-2.13434 2.90446,-2.13434 1.12218,0 2.68444,0.52809 3.80662,1.60625 l 2.02433,-2.20034 c -1.36422,-1.36423 -3.45457,-2.15636 -5.52289,-2.15636 -3.89462,0 -6.53505,2.28838 -6.53505,5.34686 0,2.3984 1.8483,3.14651 4.79678,3.87263 2.02431,0.50609 2.66242,0.79212 2.66242,1.49624 0,1.14418 -1.18819,2.17835 -3.23452,2.17835 -1.47423,0 -3.1905,-0.68212 -4.3567,-1.9143 l -2.17835,2.09032 c 1.43024,1.56226 3.82862,2.57441 6.293,2.57441 z"
         style="font-style:italic;font-variant:normal;font-weight:bold;font-stretch:normal;font-family:Metropolis;-inkscape-font-specification:'Metropolis Bold Italic';fill:#ea6621;fill-opacity:1;stroke-width:0.55008811"
         id="path180"
         inkscape:connector-curvature="0" />
      <path
         d="m 200.84257,220.80894 c -1.34221,0 -2.61842,0.5721 -3.47656,1.47423 l 1.07818,-5.21484 h -3.21252 l -3.1905,15.38047 h 3.2125 l 1.40824,-6.77707 c 0.33005,-1.1442 1.62825,-2.15636 3.01447,-2.15636 0.94616,0 1.54026,0.5721 1.54026,1.56226 0,0.48407 -0.088,0.83612 -1.47425,7.37117 h 3.1025 c 1.40824,-6.75508 1.58425,-7.32718 1.58425,-8.1633 0,-2.04632 -1.36421,-3.47656 -3.58657,-3.47656 z"
         style="font-style:italic;font-variant:normal;font-weight:bold;font-stretch:normal;font-family:Metropolis;-inkscape-font-specification:'Metropolis Bold Italic';fill:#ea6621;fill-opacity:1;stroke-width:0.55008811"
         id="path182"
         inkscape:connector-curvature="0" />
      <path
         d="m 216.49325,221.07298 -0.39606,1.8483 c -0.6821,-1.29822 -1.9583,-2.11234 -3.52056,-2.11234 -3.65258,0 -6.46903,3.45455 -6.46903,7.28316 0,2.66244 1.78228,4.62074 4.31268,4.62074 1.54026,0 2.92648,-0.66011 4.00465,-1.73827 l -0.30806,1.47423 h 3.21252 l 2.37638,-11.37582 z m -5.0168,8.93343 c -1.32021,0 -2.24436,-0.94615 -2.24436,-2.22235 0,-2.28837 1.78229,-4.26869 3.91664,-4.26869 1.32021,0 2.28835,0.92415 2.28835,2.20035 0,0.24205 -0.022,0.48409 -0.0661,0.70412 l -0.0659,0.28604 c -0.44005,1.8043 -2.00231,3.30053 -3.82861,3.30053 z"
         style="font-style:italic;font-variant:normal;font-weight:bold;font-stretch:normal;font-family:Metropolis;-inkscape-font-specification:'Metropolis Bold Italic';fill:#ea6621;fill-opacity:1;stroke-width:0.55008811"
         id="path184"
         inkscape:connector-curvature="0" />
      <path
         d="m 225.34108,223.0313 0.39607,-1.95832 h -3.21251 l -2.37638,11.37582 h 3.2125 l 1.1662,-5.56689 c 0.52808,-1.98031 2.39838,-3.36654 4.68675,-3.36654 l 0.35205,-2.70643 c -1.71628,0 -3.23452,0.83614 -4.22468,2.22236 z"
         style="font-style:italic;font-variant:normal;font-weight:bold;font-stretch:normal;font-family:Metropolis;-inkscape-font-specification:'Metropolis Bold Italic';fill:#ea6621;fill-opacity:1;stroke-width:0.55008811"
         id="path186"
         inkscape:connector-curvature="0" />
      <path
         d="m 238.71932,229.02149 2.52482,1.31077 q -0.84878,1.11736 -2.25623,1.77274 -1.3967,0.64464 -3.10499,0.64464 -2.67523,0 -4.22235,-1.50415 -1.53637,-1.50414 -1.53637,-3.99675 0,-2.84712 1.92314,-4.81326 1.93391,-1.97688 4.66286,-1.97688 1.64382,0 2.92235,0.71983 1.28927,0.71986 2.03059,2.09506 0.74133,1.37523 0.74133,2.98682 0,0.50497 -0.10749,1.18183 h -9.3257 q 0.043,1.21405 0.79506,1.93391 0.76281,0.71984 2.09506,0.71984 1.61157,0 2.85787,-1.0744 z m 0.73058,-3.68516 q -0.32232,-1.07438 -1.07438,-1.62232 -0.75208,-0.55869 -1.81574,-0.55869 -1.0529,0 -1.90166,0.56944 -0.84876,0.56941 -1.28928,1.61157 z"
         style="font-style:italic;font-variant:normal;font-weight:bold;font-stretch:normal;font-family:'Century Gothic';-inkscape-font-specification:'Century Gothic Bold Italic';fill:#ea6621;fill-opacity:1;stroke-width:0.55008811"
         id="path188"
         inkscape:connector-curvature="0" />
      <path
         d="m 251.31659,232.4488 h 3.23451 v -4.22468 l 1.89231,-2.02431 4.64274,6.24899 h 3.93862 l -6.315,-8.55936 5.89694,-6.55706 h -3.93862 l -6.11699,6.93111 v -6.93111 h -3.23451 z"
         style="fill:#ea6621;fill-opacity:1;stroke-width:0.55008811"
         id="path190"
         inkscape:connector-curvature="0" />
      <path
         d="m 273.0829,220.80894 c -1.47425,0 -2.75044,0.66011 -3.43255,1.69428 v -1.43024 h -3.21252 v 11.37582 h 3.21252 v -6.79909 l 0.022,0.0661 c 0,-1.23218 1.03417,-2.20034 2.37638,-2.20034 1.2762,0 2.15635,0.96816 2.15635,2.37638 v 6.55704 h 3.1025 v -7.23914 c 0,-2.57442 -1.76029,-4.40072 -4.22467,-4.40072 z"
         style="fill:#ea6621;fill-opacity:1;stroke-width:0.55008811"
         id="path192"
         inkscape:connector-curvature="0" />
      <path
         d="m 285.58707,232.71284 c 3.36654,0 6.183,-2.72843 6.183,-5.96295 0,-3.23452 -2.81646,-5.94095 -6.183,-5.94095 -3.38853,0 -6.22699,2.70643 -6.22699,5.94095 0,3.23452 2.83846,5.96295 6.22699,5.96295 z m 0,-2.70643 c -1.71627,0 -3.14651,-1.49623 -3.14651,-3.25652 0,-1.76029 1.43024,-3.23452 3.14651,-3.23452 1.69428,0 3.1245,1.47423 3.1245,3.23452 0,1.76029 -1.43022,3.25652 -3.1245,3.25652 z"
         style="fill:#ea6621;fill-opacity:1;stroke-width:0.55008811"
         id="path194"
         inkscape:connector-curvature="0" />
      <path
         d="m 296.31002,232.4488 h 2.88247 l 2.13433,-7.15114 2.11234,7.15114 h 2.88247 l 3.87261,-11.37582 h -3.14649 l -2.15636,7.08513 -2.24436,-7.08513 h -2.66242 l -2.24436,7.08513 -2.15635,-7.08513 h -3.14651 z"
         style="fill:#ea6621;fill-opacity:1;stroke-width:0.55008811"
         id="path196"
         inkscape:connector-curvature="0" />
    </g>
  </g>
  <style
     id="style71"
     type="text/css">
	.st0{enable-background:new    ;}
	.st1{fill:#ea6621;}
</style>
</svg>
