<?xml version="1.0" encoding="UTF-8"?>
<svg width="15px" height="14px" viewBox="0 0 15 14" version="1.1" xmlns="http://www.w3.org/2000/svg" xmlns:xlink="http://www.w3.org/1999/xlink">
    <title>icon</title>
    <defs>
        <path d="M13.2224167,9.88049398 C13.4104296,9.87972436 13.591008,9.95386909 13.7242277,10.0865415 C13.8574474,10.2192139 13.9323333,10.3994855 13.9323333,10.5875 L13.9323333,10.5875 L13.9323333,11.6695833 C13.9323333,12.9582477 12.8876644,14.0029167 11.599,14.0029167 L11.599,14.0029167 L2.401,14.0029167 C1.11347476,14.0013073 0.0705833333,12.9571096 0.0705833333,11.6695833 L0.0705833333,11.6695833 L0.0705833333,10.5875 C0.0705833333,10.1970347 0.387118015,9.88049398 0.777583333,9.88049398 C1.16804865,9.88049398 1.48458333,10.1970347 1.48458333,10.5875 L1.48458333,10.5875 L1.48458333,11.6695833 C1.48522669,12.1753451 1.89523791,12.5850953 2.401,12.5854167 L2.401,12.5854167 L11.599,12.5854167 C12.1047621,12.5850953 12.5147733,12.1753451 12.5154167,11.6695833 L12.5154167,11.6695833 L12.5154167,10.5875 C12.5154167,10.1970347 12.8319513,9.88049398 13.2224167,9.88049398 Z M7,-4.14483263e-15 C7.62468008,-4.14483263e-15 8.13108333,0.506403258 8.13108333,1.13108333 L8.13108333,1.13108333 L8.13108333,6.41958333 C8.13108333,6.50012486 8.19637514,6.56541667 8.27691667,6.56541667 L8.27691667,6.56541667 L9.828,6.56541667 C10.0495928,6.56550713 10.2507391,6.6949392 10.3426429,6.89657518 C10.4345467,7.09821116 10.4002918,7.33493691 10.255,7.50225 L10.255,7.50225 L7.427,10.7549167 C7.31963823,10.8786921 7.16385025,10.9497904 7,10.9497904 C6.83614975,10.9497904 6.68036177,10.8786921 6.573,10.7549167 L6.573,10.7549167 L3.745,7.50225 C3.59970819,7.33493691 3.5654533,7.09821116 3.65735712,6.89657518 C3.74926094,6.6949392 3.95040719,6.56550713 4.172,6.56541667 L4.172,6.56541667 L5.72308333,6.56541667 C5.80362486,6.56541667 5.86891667,6.50012486 5.86891667,6.41958333 L5.86891667,6.41958333 L5.86891667,1.13108333 C5.86891667,0.506403258 6.37531992,-4.14483263e-15 7,-4.14483263e-15 Z" id="path-1"></path>
    </defs>
    <g id="Page-1" stroke="none" stroke-width="1" fill="none" fill-rule="evenodd">
        <g id="Bulk-Upload-Landing" transform="translate(-980.000000, -214.000000)">
            <g id="icon" transform="translate(980.440181, 214.000000)">
                <mask id="mask-2" fill="white">
                    <use xlink:href="#path-1"></use>
                </mask>
                <use id="Mask" fill="#000000" fill-rule="nonzero" xlink:href="#path-1"></use>
                <g id="Group" mask="url(#mask-2)" fill="#0768FD">
                    <g id="color">
                        <rect id="Rectangle" x="0" y="0" width="14" height="14"></rect>
                    </g>
                </g>
            </g>
        </g>
    </g>
</svg>