<?xml version="1.0" encoding="UTF-8"?>
<svg width="14px" height="16px" viewBox="0 0 14 16" version="1.1" xmlns="http://www.w3.org/2000/svg" xmlns:xlink="http://www.w3.org/1999/xlink">
    <title>icon/file-xls</title>
    <defs>
        <path d="M8.5,0 C8.59152926,0 8.66593443,0.0738069989 8.66666667,0.165333333 L8.66666667,0.165333333 L8.66666667,3 C8.66666667,3.92047458 9.41285875,4.66666667 10.3333333,4.66666667 L10.3333333,4.66666667 L13.1666667,4.66666667 C13.2581959,4.66666374 13.3326011,4.74047367 13.3333333,4.832 L13.3333333,4.832 L13.3333333,14.6666667 C13.3333333,15.4030463 12.7363797,16 12,16 L12,16 L1.33333333,16 C0.596953667,16 3.55271368e-15,15.4030463 3.55271368e-15,14.6666667 L3.55271368e-15,14.6666667 L3.55271368e-15,1.33333333 C3.55271368e-15,0.596953667 0.596953667,0 1.33333333,0 L1.33333333,0 Z M9.87830688,8.66666667 C9.04761905,8.66666667 8.53968254,9.14285714 8.53968254,9.73015873 C8.53968254,10.5185185 9.28042328,10.6772487 9.85714286,10.8095238 C10.2645503,10.9047619 10.5714286,10.994709 10.5714286,11.2592593 C10.5714286,11.4603175 10.3703704,11.6560847 9.95767196,11.6560847 C9.47089947,11.6560847 9.08465608,11.4391534 8.83597884,11.1798942 L8.83597884,11.1798942 L8.42328042,11.7513228 C8.75661376,12.0846561 9.24338624,12.3121693 9.92063492,12.3121693 C10.8730159,12.3121693 11.3333333,11.8253968 11.3333333,11.1798942 C11.3333333,10.3968254 10.5925926,10.2222222 10.010582,10.0899471 C9.6031746,9.99470899 9.30687831,9.92063492 9.30687831,9.68253968 C9.30687831,9.47089947 9.48677249,9.32275132 9.82539683,9.32275132 C10.1693122,9.32275132 10.5502646,9.44444444 10.8359788,9.70899471 L10.8359788,9.70899471 L11.2539683,9.15873016 C10.9047619,8.83597884 10.4391534,8.66666667 9.87830688,8.66666667 Z M2.97354497,8.71957672 L2.07936508,8.71957672 L3.28042328,10.4391534 L2,12.2486772 L2.89417989,12.2486772 L3.78306878,10.957672 L4.66666667,12.2486772 L5.56613757,12.2486772 L4.28571429,10.4338624 L5.48677249,8.71957672 L4.58201058,8.71957672 L3.78306878,9.92592593 L2.97354497,8.71957672 Z M6.65079365,8.71957672 L5.8994709,8.71957672 L5.8994709,12.2486772 L8.14285714,12.2486772 L8.14285714,11.5873016 L6.65079365,11.5873016 L6.65079365,8.71957672 Z M9.4367929,0.246814678 C9.4990305,0.221307465 9.57050024,0.235710758 9.618,0.283333333 L9.618,0.283333333 L13.0513333,3.71533333 C13.0991256,3.76300473 13.1134434,3.83479648 13.0875948,3.89715443 C13.0617462,3.95951238 13.0008363,4.00012077 12.9333333,4.00000027 L12.9333333,4.00000027 L10.3333333,4.00000027 C9.78104858,4.00000027 9.33333333,3.55228475 9.33333333,3 L9.33333333,3 L9.33333333,0.4 C9.3337499,0.332739587 9.3745553,0.27232189 9.4367929,0.246814678 Z" id="path-1"></path>
    </defs>
    <g id="Import-Participants" stroke="none" stroke-width="1" fill="none" fill-rule="evenodd">
        <g id="Bulk-List-of-Imported-Participants-Ready-Copy-4" transform="translate(-225.000000, -282.000000)">
            <g id="Group-8" transform="translate(208.000000, 267.000000)">
                <g id="icon/file-xls" transform="translate(17.333333, 15.000000)">
                    <mask id="mask-2" fill="white">
                        <use xlink:href="#path-1"></use>
                    </mask>
                    <use id="Mask" fill="#000000" fill-rule="nonzero" xlink:href="#path-1"></use>
                    <g id="color" mask="url(#mask-2)" fill="#595959">
                        <g transform="translate(-1.333333, 0.000000)" id="Rectangle">
                            <rect x="0" y="0" width="16" height="16"></rect>
                        </g>
                    </g>
                </g>
            </g>
        </g>
    </g>
</svg>