<?xml version="1.0" encoding="UTF-8"?>
<svg width="12px" height="14px" viewBox="0 0 12 14" version="1.1" xmlns="http://www.w3.org/2000/svg" xmlns:xlink="http://www.w3.org/1999/xlink">
    <title>icon</title>
    <defs>
        <path d="M8.60416667,0 C8.68425477,0 8.7493593,0.064581124 8.75,0.144666667 L8.75,0.144666667 L8.75,2.625 C8.75,3.43041526 9.40291807,4.08333333 10.2083333,4.08333333 L10.2083333,4.08333333 L12.6875,4.08333333 C12.7675881,4.08333077 12.8326926,4.14791446 12.8333333,4.228 L12.8333333,4.228 L12.8333333,12.8333333 C12.8333333,13.4776655 12.3109989,14 11.6666667,14 L11.6666667,14 L2.33333333,14 C1.68900113,14 1.16666667,13.4776655 1.16666667,12.8333333 L1.16666667,12.8333333 L1.16666667,1.16666667 C1.16666667,0.522334459 1.68900113,0 2.33333333,0 L2.33333333,0 Z M7.30761695,3.62830922 C7.13496581,3.45826558 6.86610739,3.45709734 6.69211465,3.62563475 L6.69211465,3.62563475 L4.21393043,6.08391478 C4.13202101,6.16449063 4.08489657,6.27646374 4.08333333,6.39413781 C4.08184648,6.51181187 4.12605178,6.62508295 4.20584291,6.70795686 L4.20584291,6.70795686 L4.33354048,6.84168016 C4.50402741,7.01266961 4.77085564,7.01943286 4.94904279,6.85728121 L4.94904279,6.85728121 L6.0442623,5.83206923 C6.21878232,5.6689268 6.3618036,5.73578845 6.3618036,5.98094784 L6.3618036,5.98094784 L6.3618036,10.5583607 C6.3618036,10.8045385 6.55360681,11.0833333 6.78869155,11.0833333 L6.78869155,11.0833333 L7.20164275,11.0833333 C7.43672749,11.0833333 7.63877933,10.8045385 7.63877933,10.5583607 L7.63877933,10.5583607 L7.63877933,5.98763401 C7.63877933,5.74247462 7.78222627,5.67739594 7.9524897,5.84321284 L7.9524897,5.84321284 L9.05281711,6.90230139 C9.22900787,7.0680212 9.49781058,7.06197401 9.66704244,6.88848332 L9.66704244,6.88848332 L9.79474001,6.75476001 C9.87413397,6.67133663 9.91807409,6.55792844 9.91666482,6.44015959 C9.91519045,6.32239075 9.86848836,6.21019947 9.78707816,6.12893496 L9.78707816,6.12893496 Z M9.42386045,0.215962843 C9.47831835,0.193644032 9.54085438,0.206246913 9.58241667,0.247916667 L9.58241667,0.247916667 L12.5865833,3.25091667 C12.6284016,3.29262914 12.6409296,3.35544692 12.6183121,3.41001012 C12.5956946,3.46457333 12.5423984,3.50010568 12.4833333,3.50000024 L12.4833333,3.50000024 L10.2083333,3.50000024 C9.72508418,3.50000024 9.33333333,3.10824916 9.33333333,2.625 L9.33333333,2.625 L9.33333333,0.35 C9.33369783,0.291147139 9.36940256,0.238281654 9.42386045,0.215962843 Z" id="path-1"></path>
    </defs>
    <g id="Page-1" stroke="none" stroke-width="1" fill="none" fill-rule="evenodd">
        <g id="Bulk-Upload-Landing" transform="translate(-1113.000000, -214.000000)">
            <g id="icon" transform="translate(1111.940181, 214.000000)">
                <mask id="mask-2" fill="white">
                    <use xlink:href="#path-1"></use>
                </mask>
                <use id="Mask" fill="#000000" fill-rule="nonzero" xlink:href="#path-1"></use>
                <g id="Group" mask="url(#mask-2)" fill="#FFFFFF">
                    <g id="color">
                        <rect id="Rectangle" x="0" y="0" width="14" height="14"></rect>
                    </g>
                </g>
            </g>
        </g>
    </g>
</svg>