<?xml version="1.0" encoding="UTF-8"?>
<svg width="15px" height="14px" viewBox="0 0 15 14" version="1.1" xmlns="http://www.w3.org/2000/svg" xmlns:xlink="http://www.w3.org/1999/xlink">
    <title>icon</title>
    <defs>
        <path d="M7,0 C3.13400675,0 0,3.13400675 0,7 C0,10.8659932 3.13400675,14 7,14 C10.8659932,14 14,10.8659932 14,7 C13.9958205,3.13573928 10.8642607,0.00417949444 7,0 Z M12.4996667,5.05516667 C12.5155822,5.09978034 12.5088384,5.14934468 12.4815815,5.1880842 C12.4543247,5.22682371 12.4099508,5.24991183 12.3625833,5.25 L10.11325,5.25 C10.0623521,5.24975403 10.015173,5.22329847 9.98841667,5.18 C9.69717176,4.70439236 9.29735764,4.30457824 8.82175,4.01333333 C8.77742781,3.9867871 8.75021388,3.9389968 8.75,3.88733333 L8.75,1.638 C8.75016592,1.59063148 8.77323757,1.54626983 8.81192352,1.51893484 C8.85060948,1.49159986 8.90012941,1.48466925 8.94483333,1.50033333 C10.6035757,2.09150156 11.9087706,3.39691071 12.4996667,5.05575 L12.4996667,5.05516667 Z M7,9.33333333 C5.71133558,9.33333333 4.66666667,8.28866442 4.66666667,7 C4.66666667,5.71133558 5.71133558,4.66666667 7,4.66666667 C8.28866442,4.66666667 9.33333333,5.71133558 9.33333333,7 C9.33333333,7.61883848 9.08750071,8.21233094 8.64991582,8.64991582 C8.21233094,9.08750071 7.61883848,9.33333333 7,9.33333333 Z M5.05516667,1.50033333 C5.09987059,1.48466925 5.14939052,1.49159986 5.18807648,1.51893484 C5.22676243,1.54626983 5.24983408,1.59063148 5.25,1.638 L5.25,3.88733333 C5.25,3.93829037 5.22346631,3.98557156 5.18,4.01216667 C4.70439236,4.30341158 4.30457824,4.7032257 4.01333333,5.17883333 C3.98653588,5.22310956 3.93850399,5.25011366 3.88675,5.25 L1.63741667,5.25 C1.59010441,5.25121402 1.54512322,5.22948397 1.51666667,5.19166667 C1.48909619,5.15301967 1.48233223,5.10327187 1.49858333,5.05866667 C2.0891194,3.39834109 3.39513179,2.09168608 5.05516667,1.50033333 L5.05516667,1.50033333 Z M1.50033333,8.94483333 C1.48412803,8.90021403 1.49074893,8.85049141 1.51806529,8.81166732 C1.54538164,8.77284322 1.58994604,8.74981737 1.63741667,8.74999892 L3.88675,8.74999892 C3.93770704,8.74999892 3.98498823,8.77653369 4.01158333,8.82 C4.30282824,9.29560764 4.70264236,9.69542176 5.17825,9.98666667 C5.22163201,10.0133428 5.248116,10.0605726 5.24825,10.1115 L5.24825,12.3608333 C5.24816183,12.4082008 5.22507371,12.4525747 5.1863342,12.4798315 C5.14759468,12.5070884 5.09803034,12.5138322 5.05341667,12.4979167 C3.39584127,11.9068084 2.09144157,10.6024087 1.50033333,8.94483333 L1.50033333,8.94483333 Z M8.94483333,12.50025 C8.90021966,12.5161656 8.85065532,12.5094217 8.8119158,12.4821649 C8.77317629,12.454908 8.75008817,12.4105341 8.75,12.3631667 L8.75,10.1138333 C8.75,10.0628763 8.77653369,10.0155951 8.82,9.989 C9.29560764,9.69775509 9.69542176,9.29794097 9.98666667,8.82233333 C10.0132618,8.77886702 10.060543,8.75233333 10.1115,8.75233333 L12.3608333,8.75233333 C12.4073845,8.75305582 12.4507682,8.77604919 12.4775,8.81416667 C12.5050655,8.85259487 12.5118358,8.90217118 12.4955833,8.94658333 C11.905123,10.6038807 10.6016453,11.9084291 8.94483333,12.50025 L8.94483333,12.50025 Z" id="path-1"></path>
    </defs>
    <g id="Page-1" stroke="none" stroke-width="1" fill="none" fill-rule="evenodd">
        <g id="Bulk-Upload-Landing" transform="translate(-854.000000, -214.000000)">
            <g id="icon" transform="translate(854.940181, 214.000000)">
                <mask id="mask-2" fill="white">
                    <use xlink:href="#path-1"></use>
                </mask>
                <use id="Mask" fill="#595959" fill-rule="nonzero" xlink:href="#path-1"></use>
                <g id="Group" mask="url(#mask-2)" fill="#0768FD">
                    <g id="color">
                        <rect id="Rectangle" x="0" y="0" width="14" height="14"></rect>
                    </g>
                </g>
            </g>
        </g>
    </g>
</svg>