<?xml version="1.0" encoding="UTF-8"?>
<svg width="35px" height="52px" viewBox="0 0 35 52" version="1.1" xmlns="http://www.w3.org/2000/svg" xmlns:xlink="http://www.w3.org/1999/xlink">
    <title>E1434804-0DA2-455C-8F85-F20614DEBA42</title>
    <g id="Page-1" stroke="none" stroke-width="1" fill="none" fill-rule="evenodd">
        <g id="NYBC-landing-2" transform="translate(-760.000000, -1440.000000)" fill="#005587" fill-rule="nonzero">
            <g id="Eligibility-criteria" transform="translate(0.000000, 1212.000000)">
                <path d="M777.5,228 C778.230525,228 778.916253,228.349212 779.341875,228.937986 C779.499375,229.178773 795,253.426668 795,262.645987 C795,272.230344 787.164983,280 777.5,280 C767.835017,280 760,272.230344 760,262.645987 C760,253.424498 775.500625,229.178773 775.658125,228.937986 C776.083747,228.349212 776.769475,228 777.5,228 Z M767.65625,261.019048 C766.750158,261.019048 766.015625,261.747454 766.015625,262.645987 C766.022858,268.932748 771.160353,274.027385 777.5,274.034558 C778.406092,274.034558 779.140625,273.306153 779.140625,272.407619 C779.140625,271.509086 778.406092,270.780681 777.5,270.780681 C772.972037,270.774706 769.3029,267.136177 769.296875,262.645987 C769.296875,261.747454 768.562342,261.019048 767.65625,261.019048 Z" id="Combined-Shape"></path>
            </g>
        </g>
    </g>
</svg>