<?xml version="1.0" encoding="UTF-8"?>
<svg width="48px" height="48px" viewBox="0 0 48 48" version="1.1" xmlns="http://www.w3.org/2000/svg" xmlns:xlink="http://www.w3.org/1999/xlink">
    <title>7159885B-1A42-4B9B-ABD3-D4572474E891</title>
    <defs>
        <path d="M797.826087,147 L792.086957,147 C791.798808,147 791.565217,146.776142 791.565217,146.5 L791.565217,143 C791.565217,141.895431 790.630855,141 789.478261,141 C788.325667,141 787.391304,141.895431 787.391304,143 L787.391304,152.5 C787.391304,153.328427 786.690533,154 785.826087,154 L785.826087,154 C784.961641,154 784.26087,153.328427 784.26087,152.5 L784.26087,148 C784.26087,147.447715 783.793688,147 783.217391,147 L770.173913,147 C769.886578,147 769.653323,146.777361 769.652174,146.502 L769.652174,143 C769.652174,141.895431 768.717812,141 767.565217,141 C766.412623,141 765.478261,141.895431 765.478261,143 L765.478261,152.5 C765.478261,153.328427 764.777489,154 763.913043,154 L763.913043,154 C763.048598,154 762.347826,153.328427 762.347826,152.5 L762.347826,148 C762.347826,147.447715 761.880645,147 761.304348,147 L758.173913,147 C755.868725,147 754,148.790861 754,151 L754,185 C754,187.209139 755.868725,189 758.173913,189 L797.826087,189 C800.131275,189 802,187.209139 802,185 L802,151 C802,148.790861 800.131275,147 797.826087,147 Z M796.782609,185 L759.217391,185 C758.641094,185 758.173913,184.552285 758.173913,184 L758.173913,160 C758.173913,159.447715 758.641094,159 759.217391,159 L796.782609,159 C797.358906,159 797.826087,159.447715 797.826087,160 L797.826087,184 C797.826087,184.552285 797.358906,185 796.782609,185 Z" id="path-1"></path>
    </defs>
    <g id="Page-1" stroke="none" stroke-width="1" fill="none" fill-rule="evenodd">
        <g id="NYBC-landing-2" transform="translate(-754.000000, -1353.000000)">
            <g id="Eligibility-criteria" transform="translate(0.000000, 1212.000000)">
                <mask id="mask-2" fill="white">
                    <use xlink:href="#path-1"></use>
                </mask>
                <use id="Mask" fill="#005587" fill-rule="nonzero" xlink:href="#path-1"></use>
            </g>
        </g>
    </g>
</svg>