<?xml version="1.0" encoding="UTF-8"?>
<svg width="64px" height="64px" viewBox="0 0 64 64" version="1.1" xmlns="http://www.w3.org/2000/svg" xmlns:xlink="http://www.w3.org/1999/xlink">
    <title>58A62ED6-BE69-4832-B253-841AC75AFFC2</title>
    <g id="Page-1" stroke="none" stroke-width="1" fill="none" fill-rule="evenodd">
        <g id="NYBC-landing-2" transform="translate(-735.000000, -2192.000000)" fill="#005587">
            <g id="Addt-pre-screening-info" transform="translate(150.000000, 2162.000000)">
                <g id="Group-3" transform="translate(585.000000, 30.000000)">
                    <g id="[icon]-clock-(32px-@2x)">
                        <path d="M32,0 C49.674,0 64,14.328 64,32 C64,49.674 49.674,64 32,64 C14.326,64 0,49.674 0,32 C0,14.328 14.326,0 32,0 Z M32,4 C16.536,4 4,16.538 4,32 C4,47.464 16.536,60 32,60 C47.464,60 60,47.464 60,32 C60,16.538 47.464,4 32,4 Z M34,52 L34,56 L30,56 L30,52 L34,52 Z M47.766,42.89 L50.534,45.664 L47.766,48.438 L44.998,45.664 L47.766,42.89 Z M17.606,42.7276 L20.434,45.5556 L17.606,48.3836 L14.778,45.5556 L17.606,42.7276 Z M32,8 C33.104,8 34,8.894 34,10 L34,10 L34,30.046 L50,30.046 C51.106,30.046 52,30.944 52,32.048 C52,33.152 51.106,34.046 50,34.046 L50,34.046 L32,34.046 C30.894,34.046 30,33.152 30,32.048 L30,32.048 L30,10 C30,8.894 30.894,8 32,8 Z M12,30 L12,34 L8,34 L8,30 L12,30 Z M47.444,13.8176 L50.272,16.6456 L47.444,19.4736 L44.616,16.6456 L47.444,13.8176 Z M17.0802,13.7738 L19.8482,16.5458 L17.0802,19.3198 L14.3122,16.5458 L17.0802,13.7738 Z" id="[icon]-clock-(32px-@1x)"></path>
                    </g>
                </g>
            </g>
        </g>
    </g>
</svg>