<?xml version="1.0" encoding="UTF-8"?>
<svg width="527px" height="498px" viewBox="0 0 527 498" version="1.1" xmlns="http://www.w3.org/2000/svg" xmlns:xlink="http://www.w3.org/1999/xlink">
    <title>CB21A360-2925-418B-9EF0-06CE8095D9F9</title>
    <g id="Page-1" stroke="none" stroke-width="1" fill="none" fill-rule="evenodd">
        <g id="NYBC-landing-1" transform="translate(-857.000000, -83.000000)">
            <g id="heart-graphic" transform="translate(858.000000, 84.000000)">
                <path d="M426.24491,289.301145 L426.24491,307.656848 C426.24491,312.175941 429.921079,315.851506 434.440915,315.851506 L472.931432,315.851506 C477.451267,315.851506 481.127436,312.175941 481.127436,307.656848 L481.127436,297.495804 C481.127436,292.976711 477.451267,289.301145 472.931432,289.301145 L426.24491,289.301145 M434.440915,320 C427.785637,320 422.372346,314.587598 422.372346,307.933414 L422.372346,289.577712 L399.701252,289.577712 C393.045975,289.577712 387.632684,284.16531 387.632684,277.511126 L387.632684,98.9190176 C387.632684,94.4007546 383.956514,90.7246359 379.436679,90.7246359 L361.268823,90.7246359 C354.613546,90.7246359 349.200255,85.3114045 349.200255,78.6577735 L349.200255,58.0665859 C349.200255,53.5480463 345.524085,49.8719276 341.00425,49.8719276 L318.468696,49.8719276 C313.951627,49.8719276 310.272691,53.5480463 310.272691,58.0665859 L310.272691,104.933781 C310.272691,111.587412 304.8594,117.000366 298.204123,117.000366 L128.068568,117.000366 C123.549286,117.000366 119.872564,120.676485 119.872564,125.195025 L119.872564,231.777853 C119.872564,236.296669 123.549286,239.972787 128.068568,239.972787 L223.935266,239.972787 L223.935266,243.844715 L128.068568,243.844715 C121.413844,243.844715 116,238.431484 116,231.777853 L116,125.195025 C116,118.541394 121.413844,113.128439 128.068568,113.128439 L298.204123,113.128439 C302.723958,113.128439 306.400127,109.45232 306.400127,104.933781 L306.400127,58.0665859 C306.400127,51.4129548 311.816184,46 318.468696,46 L341.00425,46 C347.659528,46 353.072819,51.4129548 353.072819,58.0665859 L353.072819,78.6577735 C353.072819,83.1765896 356.748988,86.8527083 361.268823,86.8527083 L379.436679,86.8527083 C386.091957,86.8527083 391.505247,92.2656631 391.505247,98.9190176 L391.505247,277.511126 C391.505247,282.030218 395.181417,285.705784 399.701252,285.705784 L422.372346,285.705784 L422.372346,270.397842 L426.24491,270.397842 L426.24491,285.705784 L472.931432,285.705784 C479.586709,285.705784 485,291.118186 485,297.77237 L485,307.933414 C485,314.587598 479.586709,320 472.931432,320 L434.440915,320 Z" id="Fill-2" fill="#B71515"></path>
                <path d="M325.454191,472 C318.800241,472 313.38803,466.595416 313.38803,459.950842 L313.38803,384.629108 C313.38803,377.984535 318.800241,372.57995 325.454191,372.57995 L392.58552,372.57995 C397.104453,372.57995 400.779889,368.909693 400.779889,364.397128 L400.779889,343.204087 C400.779889,338.691522 397.104453,335.021265 392.58552,335.021265 L61.0661608,335.021265 C54.4127641,335.021265 49,329.61668 49,322.972107 L49,277.476388 C49,270.831814 54.4127641,265.42723 61.0661608,265.42723 L144.346731,265.42723 C148.864835,265.42723 152.540824,261.756973 152.540824,257.244408 L152.540824,190.207677 C152.540824,183.563656 157.953865,178.15852 164.607261,178.15852 L465.933839,178.15852 C470.450007,178.15852 474.128209,174.487711 474.128209,169.975697 L474.128209,150 L478,150 L478,169.975697 C478,176.619718 472.585023,182.024855 465.933839,182.024855 L164.607261,182.024855 C160.088604,182.024855 156.412615,185.695664 156.412615,190.207677 L156.412615,257.244408 C156.412615,263.888981 150.999851,269.293565 144.346731,269.293565 L61.0661608,269.293565 C56.5477805,269.293565 52.8717912,272.963822 52.8717912,277.476388 L52.8717912,322.972107 C52.8717912,327.484673 56.5477805,331.15493 61.0661608,331.15493 L392.58552,331.15493 C399.23947,331.15493 404.651681,336.559514 404.651681,343.204087 L404.651681,364.397128 C404.651681,371.041701 399.23947,376.446286 392.58552,376.446286 L325.454191,376.446286 C320.935257,376.446286 317.259821,380.116542 317.259821,384.629108 L317.259821,459.950842 C317.259821,464.463408 320.935257,468.133665 325.454191,468.133665 L363.204155,468.133665 C367.720323,468.133665 371.398525,464.463408 371.398525,459.950842 L371.398525,448.912455 L375.270316,448.912455 L375.270316,459.950842 C375.270316,466.595416 369.85534,472 363.204155,472 L325.454191,472 Z" id="Fill-3" fill="#B71515"></path>
                <path d="M144.726233,438 C138.069088,438 132.653274,432.58595 132.653274,425.929739 L132.653274,406.378849 L136.527247,406.378849 L136.527247,425.929739 C136.527247,430.450208 140.205307,434.126893 144.726233,434.126893 L164.853181,434.126893 C169.374384,434.126893 173.052167,430.450208 173.052167,425.929739 L173.052167,335.536959 C173.052167,331.01649 169.374384,327.339806 164.853181,327.339806 L124.95569,327.339806 C118.298545,327.339806 112.882732,321.925756 112.882732,315.269545 L112.882732,315.064823 C112.882732,308.408613 118.298545,302.994563 124.95569,302.994563 L452.927041,302.994563 C457.448521,302.994563 461.126027,299.317878 461.126027,294.797409 L461.126027,233.677847 C461.126027,229.157931 457.448521,225.480693 452.927041,225.480693 L149.998986,225.480693 C143.341841,225.480693 137.926027,220.065813 137.926027,213.410432 L137.926027,150.734435 C137.926027,146.214519 134.247967,142.537281 129.727041,142.537281 L73.0729589,142.537281 C66.4158137,142.537281 61,137.122401 61,130.46702 L61,103.097711 C61,96.4420534 66.4158137,91.0271735 73.0729589,91.0271735 L206.929781,91.0271735 C211.450707,91.0271735 215.128767,87.3499352 215.128767,82.8300196 L215.128767,48 L219.00274,48 L219.00274,82.8300196 C219.00274,89.485677 213.586926,94.9002803 206.929781,94.9002803 L73.0729589,94.9002803 C68.5520329,94.9002803 64.8739726,98.5775185 64.8739726,103.097711 L64.8739726,130.46702 C64.8739726,134.986936 68.5520329,138.664174 73.0729589,138.664174 L129.727041,138.664174 C136.384186,138.664174 141.8,144.078777 141.8,150.734435 L141.8,213.410432 C141.8,217.930348 145.47806,221.607586 149.998986,221.607586 L452.927041,221.607586 C459.58474,221.607586 465,227.022189 465,233.677847 L465,294.797409 C465,301.45362 459.58474,306.86767 452.927041,306.86767 L124.95569,306.86767 C120.434764,306.86767 116.756704,310.544355 116.756704,315.064823 L116.756704,315.269545 C116.756704,319.790014 120.434764,323.466699 124.95569,323.466699 L164.853181,323.466699 C171.510326,323.466699 176.92614,328.880749 176.92614,335.536959 L176.92614,425.929739 C176.92614,432.58595 171.510326,438 164.853181,438 L144.726233,438 Z" id="Fill-4" fill="#B71515"></path>
                <path d="M363.393891,412.07272 C360.298903,412.07272 357.870314,413.537406 356.175042,416.427868 C354.630336,419.059855 354.081046,422.225466 354.081046,424.309934 C354.081046,426.719578 355.210298,430.955216 358.383357,435.616086 C360.850982,439.245838 365.460004,444.418097 373.501394,448.728776 C381.539996,444.418097 386.149018,439.245838 388.619431,435.616086 C391.789702,430.955216 392.918954,426.719578 392.918954,424.309934 C392.918954,422.225466 392.369664,419.059855 390.824958,416.427868 C388.954024,413.237243 386.190842,411.786453 382.616271,412.119968 C376.869633,412.653592 375.01264,419.751898 374.993122,419.821381 C374.820249,420.505086 374.206828,420.983124 373.501394,420.983124 C372.793172,420.983124 372.179751,420.505086 372.006878,419.821381 C371.990148,419.754678 370.09412,412.650812 364.383729,412.119968 C364.049136,412.086617 363.714542,412.07272 363.393891,412.07272 Z M373.501394,452 C373.256026,452 373.013446,451.941635 372.790384,451.827684 C356.802404,443.567634 351,430.846824 351,424.309934 C351,421.825249 351.660822,418.039856 353.515026,414.877024 C355.991016,410.652503 359.886238,408.615283 364.670921,409.05997 C369.307826,409.493539 372.026396,412.742529 373.501394,415.427323 C374.973604,412.742529 377.692174,409.493539 382.331867,409.05997 C387.113762,408.618063 391.008984,410.652503 393.484974,414.877024 C395.339178,418.039856 396,421.825249 396,424.309934 C396,430.846824 390.197596,443.567634 374.209616,451.827684 C373.986554,451.941635 373.743974,452 373.501394,452 L373.501394,452 Z" id="Fill-5" fill="#B71515"></path>
                <path d="M199.739437,417 C193.068534,417 187.641025,411.565344 187.641025,404.8838 L187.641025,360.126339 C187.641025,355.588665 183.95521,351.897987 179.424752,351.897987 L43.0984123,351.897987 C36.4272318,351.897987 31,346.463331 31,339.781787 L31,223 L34.8821401,223 L34.8821401,339.781787 C34.8821401,344.319461 38.5679548,348.010139 43.0984123,348.010139 L179.424752,348.010139 C186.095933,348.010139 191.523165,353.444795 191.523165,360.126339 L191.523165,404.8838 C191.523165,409.421474 195.208979,413.112152 199.739437,413.112152 L258.901588,413.112152 C263.432045,413.112152 267.11786,409.421474 267.11786,404.8838 L267.11786,301.69794 L271,301.69794 L271,404.8838 C271,411.565344 265.572768,417 258.901588,417 L199.739437,417 Z" id="Fill-30" fill="#B71515"></path>
                <path d="M428.569054,255.024249 C425.440718,255.312674 424.501385,259.01825 424.501385,259.01825 C424.501385,259.01825 423.559282,255.312674 420.433717,255.024249 C416.249672,254.636935 415,258.985287 415,261.210281 C415,263.789625 417.352487,269.327387 424.501385,273 C431.647513,269.327387 434,263.789625 434,261.210281 C434,258.985287 432.750328,254.636935 428.569054,255.024249" id="Fill-31" fill="#9B2929"></path>
                <path d="M461.004508,93.7132319 C456.258241,93.7132319 452.533991,95.962308 449.934514,100.397832 C447.568324,104.440405 446.724049,109.299085 446.724049,112.498393 C446.724049,116.19651 448.457034,122.697659 453.319944,129.852802 C457.105293,135.422286 464.173315,143.363886 476.501389,149.978098 C488.826685,143.363886 495.897484,135.422286 499.680056,129.852802 C504.542966,122.697659 506.275951,116.19651 506.275951,112.498393 C506.275951,109.299639 505.434454,104.440959 503.065486,100.398109 C500.196619,95.5031262 495.958583,93.2767737 490.479131,93.7852822 C481.667015,94.6049922 478.817589,105.500097 478.789817,105.610113 C478.525981,106.657335 477.581727,107.391693 476.501389,107.391693 C475.418273,107.391693 474.474019,106.657335 474.210183,105.610113 C474.182411,105.505363 471.280217,94.599727 462.520869,93.7852822 C462.007084,93.7376181 461.496076,93.7132319 461.004508,93.7132319 Z M476.501389,155 C476.126464,155 475.754317,154.911877 475.412719,154.735631 C450.898209,142.057005 442,122.530281 442,112.498393 C442,108.682224 443.013685,102.87442 445.857557,98.0196195 C449.654015,91.5356519 455.622258,88.4086713 462.95967,89.0923173 C470.072127,89.7535168 474.240733,94.7435504 476.501389,98.8642701 C478.759267,94.7435504 482.927873,89.7535168 490.04033,89.0923173 C497.377742,88.4106111 503.345985,91.5356519 507.142443,98.0196195 C509.986315,102.875252 511,108.682501 511,112.498393 C511,122.530281 502.101791,142.057005 477.587281,154.735631 C477.245683,154.911877 476.873536,155 476.501389,155 L476.501389,155 Z" id="Fill-32" fill="#9B2929"></path>
                <path d="M224.136009,20.0402498 C219.034311,20.5217976 217.499862,26.6957091 217.499862,26.6957091 C217.499862,26.6957091 215.965413,20.5217976 210.863991,20.0402498 C204.03831,19.3960471 202,26.6443737 202,30.348888 C202,34.6487807 205.839428,43.8790978 217.499862,50 C229.160296,43.8790978 233,34.6487807 233,30.348888 C233,26.6443737 230.96169,19.3960471 224.136009,20.0402498" id="Fill-33" fill="#9B2929"></path>
                <path d="M23.3947271,186.071041 C20.2983456,186.071041 17.8691988,187.536066 16.1750418,190.426094 C14.6308941,193.05986 14.0807671,196.225326 14.0807671,198.309603 C14.0807671,200.719071 15.2105769,204.954609 18.3819629,209.616508 C20.8507033,213.245024 25.4605614,218.41889 33.5,222.72836 C41.5394386,218.41889 46.1492967,213.245024 48.6180371,209.616508 C51.7894231,204.954609 52.9192329,200.719071 52.9192329,198.309603 C52.9192329,196.225604 52.3691059,193.060138 50.8244005,190.426372 C48.9545821,187.237002 46.1900056,185.78643 42.61655,186.118013 C36.8693537,186.651937 35.0118037,193.750264 34.9936799,193.821695 C34.8213644,194.504317 34.2057129,194.982653 33.5,194.982653 C32.7940083,194.982653 32.1786356,194.504317 32.0060413,193.821695 C31.9884751,193.7536 30.0946775,186.648602 24.38345,186.118013 C24.0480203,186.086606 23.7153789,186.071041 23.3947271,186.071041 Z M33.5,226 C33.2565834,226 33.0134457,225.942744 32.79122,225.827955 C16.8032406,217.567558 11,204.845656 11,198.309603 C11,195.823424 11.6605428,192.039539 13.5153045,188.876574 C15.991852,184.652154 19.8848442,182.614849 24.6695272,183.06011 C29.3075469,183.491196 32.0266745,186.74199 33.5,189.426897 C34.9733255,186.74199 37.6924531,183.491196 42.3304728,183.06011 C47.1145982,182.616238 51.0073115,184.652154 53.4844166,188.876574 C55.3391784,192.040095 56,195.823702 56,198.309603 C56,204.845656 50.1967594,217.567558 34.20878,225.827955 C33.9865543,225.942744 33.7431377,226 33.5,226 L33.5,226 Z" id="Fill-34" fill="#9B2929"></path>
                <path d="M143.562591,374.049571 C136.979901,374.642967 135,382.256864 135,382.256864 C135,382.256864 133.020099,374.642967 126.437409,374.049571 C117.630165,373.255667 115,382.194544 115,386.762881 C115,392.065513 119.954092,403.451133 135,411 C150.045908,403.451133 155,392.065513 155,386.762881 C155,382.194544 152.370115,373.255667 143.562591,374.049571" id="Fill-35" fill="#9B2929"></path>
                <path d="M39.4219446,0.0389081115 C34.4848172,0.504404318 32.9998667,6.47251877 32.9998667,6.47251877 C32.9998667,6.47251877 31.5149162,0.504404318 26.5780554,0.0389081115 C19.9725582,-0.58382117 18,6.42289461 18,10.0039251 C18,14.160488 21.7155755,23.0831279 32.9998667,29 C44.2841579,23.0831279 48,14.160488 48,10.0039251 C48,6.42289461 46.0274418,-0.58382117 39.4219446,0.0389081115" id="Fill-33" stroke="#999999" stroke-width="2" fill="#FFFFFF"></path>
                <path d="M447.993815,20.0362248 C443.385829,20.4696178 441.999876,26.0261382 441.999876,26.0261382 C441.999876,26.0261382 440.613922,20.4696178 436.006185,20.0362248 C429.841054,19.4564424 428,25.9799364 428,29.3139992 C428,33.1839026 431.467871,41.491188 441.999876,47 C452.531881,41.491188 456,33.1839026 456,29.3139992 C456,25.9799364 454.158946,19.4564424 447.993815,20.0362248" id="Fill-33" stroke="#999999" stroke-width="2" fill="#FFFFFF"></path>
                <path d="M515.850074,409.041591 C510.583805,409.539191 508.999858,415.918899 508.999858,415.918899 C508.999858,415.918899 507.415911,409.539191 502.149926,409.041591 C495.104062,408.375915 493,415.865853 493,419.693851 C493,424.137073 496.963281,433.675068 508.999858,440 C521.036435,433.675068 525,424.137073 525,419.693851 C525,415.865853 522.895938,408.375915 515.850074,409.041591" id="Fill-33" stroke="#999999" stroke-width="2" fill="#FFFFFF"></path>
                <path d="M34.2751113,449.061716 C26.3757076,449.80009 23.9997867,459.266754 23.9997867,459.266754 C23.9997867,459.266754 21.6238658,449.80009 13.7248887,449.061716 C3.1560931,448.073939 0,459.18804 0,464.868295 C0,471.461464 5.94492086,485.614617 23.9997867,495 C42.0546526,485.614617 48,471.461464 48,464.868295 C48,459.18804 44.8439069,448.073939 34.2751113,449.061716" id="Fill-33" stroke="#999999" stroke-width="2" fill="#FFFFFF"></path>
                <g id="Group-14" transform="translate(200.000000, 190.000000)">
                    <path d="M68.2589689,33.3777494 C68.2589689,33.3777494 62.1600919,7.43871868 41.9261703,5.41974298 C14.839981,2.70854704 6.75,33.1470093 6.75,48.7219647 C6.75,66.777376 21.9792548,105.541709 68.2589689,131.25 C114.520745,105.541709 129.75,66.777376 129.75,48.7219647 C129.75,33.1470093 121.660019,2.70854704 94.5917675,5.41974298 C74.3399081,7.43871868 68.2589689,33.3777494 68.2589689,33.3777494 Z" id="Fill-31" fill="#9B2929"></path>
                    <path d="M9.53309688,51.9168774 C18.5639864,37.5599747 56.4604934,37.5599747 68.4480761,50.4080945 C80.4356589,63.2562144 129.571197,61.0886791 129.571197,50.4080945 C129.571197,39.72751 132.690163,8.73876966 112.875052,5.70038088 C99.6649778,3.67478836 84.8972854,8.48178781 68.5719744,20.1213792 C62.4005812,8.48178781 53.1027656,3.67478836 40.6785276,5.70038088 C34.2012096,6.75641402 19.0896293,9.25930703 12.9412443,17.6560845 C1.39966941,33.4182784 5.11031236,58.9480217 9.53309688,51.9168774 Z" id="Path-4" fill="#B71515"></path>
                    <path d="M37.8024452,9.37290436 C28.3615013,9.37290436 20.9534816,13.8454988 15.7827833,22.6661427 C11.076122,30.7053501 9.39674985,40.3674987 9.39674985,46.7297587 C9.39674985,54.0839693 12.8438821,67.0123903 22.5168444,81.2413686 C30.0463977,92.3170465 44.1056148,108.11 68.6277621,121.263263 C93.1443852,108.11 107.209127,92.3170465 114.733156,81.2413686 C124.406118,67.0123903 127.85325,54.0839693 127.85325,46.7297587 C127.85325,40.3686009 126.179402,30.7064523 121.467217,22.6666938 C115.760666,12.9323533 107.33066,8.50494771 96.4313141,9.5161861 C78.9028678,11.1462914 73.2349869,32.8126938 73.1797444,33.031474 C72.6549406,35.1140188 70.7766955,36.5743904 68.6277621,36.5743904 C66.4733045,36.5743904 64.5950594,35.1140188 64.0702556,33.031474 C64.0150131,32.8231644 58.2421715,11.1358208 40.8186859,9.5161861 C39.7966995,9.42139972 38.7802375,9.37290436 37.8024452,9.37290436 Z M68.6277621,131.25 C67.8819883,131.25 67.1417388,131.074755 66.462256,130.724266 C17.6996981,105.51109 0,66.6795358 0,46.7297587 C0,39.1407866 2.01635138,27.5911768 7.67318374,17.9367434 C15.224834,5.04248952 27.096448,-1.17593771 41.6915174,0.183585505 C55.8391226,1.49847095 64.1310223,11.4218332 68.6277621,19.6164461 C73.1189777,11.4218332 81.4108774,1.49847095 95.5584826,0.183585505 C110.153552,-1.17208013 122.025166,5.04248952 129.576816,17.9367434 C135.233649,27.59283 137.25,39.1413377 137.25,46.7297587 C137.25,66.6795358 119.550302,105.51109 70.787744,130.724266 C70.1082612,131.074755 69.3680117,131.25 68.6277621,131.25 L68.6277621,131.25 Z" id="Fill-32" fill="#999999"></path>
                </g>
            </g>
        </g>
    </g>
</svg>