<?xml version="1.0" encoding="UTF-8"?>
<svg width="40px" height="32px" viewBox="0 0 40 32" version="1.1" xmlns="http://www.w3.org/2000/svg" xmlns:xlink="http://www.w3.org/1999/xlink">
    <title>A97D5678-0D47-445E-9568-C22DA1BEC50D</title>
    <g id="Page-1" stroke="none" stroke-width="1" fill="none" fill-rule="evenodd">
        <g id="NYBC-landing-2" transform="translate(-759.000000, -863.000000)" stroke="#005587" stroke-width="3.5">
            <g id="icon-facemask" transform="translate(761.000000, 865.000000)">
                <path d="M33.1174377,18.403 C31.4519573,20.755 29.2740214,22.813 26.519573,24.619 C24.2135231,26.089 21.8434164,27.181 19.3451957,27.811 C18.4483986,28.063 17.5516014,28.063 16.6548043,27.811 C13.772242,27.055 11.1459075,25.837 8.77580071,24.157 C6.14946619,22.351 4.03558719,20.251 2.56227758,17.815 C0.832740214,15.085 0,12.187 0,9.121 C0,8.617 0.192170819,8.197 0.576512456,7.777 C0.960854093,7.357 1.53736655,7.105 2.24199288,6.937 L16.6548043,0.189 C17.5516014,-0.063 18.4483986,-0.063 19.3451957,0.189 L33.7580071,6.937 C34.4626335,7.105 35.0391459,7.399 35.4234875,7.777 C35.8078292,8.155 36,8.617 36,9.121 C35.9359431,12.481 34.975089,15.589 33.1174377,18.403 Z" id="Path" fill-rule="nonzero"></path>
                <line x1="18" y1="15.4" x2="18" y2="27.5333333" id="Line" stroke-linecap="round"></line>
            </g>
        </g>
    </g>
</svg>