<?xml version="1.0" encoding="UTF-8"?>
<svg width="345px" height="25px" viewBox="0 0 345 25" version="1.1" xmlns="http://www.w3.org/2000/svg" xmlns:xlink="http://www.w3.org/1999/xlink">
    <title>BFDA36A1-2A74-4A68-865C-FDF261DEF86F</title>
    <g id="Page-1" stroke="none" stroke-width="1" fill="none" fill-rule="evenodd">
        <g id="NYBC-landing-1" transform="translate(-463.000000, -425.000000)" fill-rule="nonzero">
            <g id="nybc-logo" transform="translate(463.000000, 425.000000)">
                <g id="Group" transform="translate(0.000000, 2.419355)" fill="#EF3E42">
                    <path d="M11.2903226,21.3275434 L19.7016129,21.3275434 C21.2822581,21.3275434 22.5806452,20.1550868 22.5806452,18.6476427 C22.5806452,17.9218362 22.4677419,17.5868486 22.0725806,16.9727047 L21.8467742,16.4702233 L14.733871,5.13647643 L12.0241935,9.32382134 L16.0887097,15.7444169 L16.2580645,16.0794045 C16.9919355,17.028536 16.5403226,17.6985112 15.4112903,17.5868486 L11.4032258,17.5868486 L11.1209677,17.5868486 L7.11290323,17.5868486 C6.15322581,17.6985112 5.81451613,16.9168734 6.26612903,16.0794045 L6.43548387,15.7444169 L14.8467742,2.51240695 L10.8951613,0.446650124 L0.677419355,16.5818859 L0.508064516,16.9168734 C0.0564516129,17.5868486 0,17.866005 0,18.5918114 C0,20.0992556 1.2983871,21.3275434 2.87903226,21.2717122 L11.2903226,21.3275434 Z" id="Path"></path>
                    <path d="M9.31451613,13.2878412 L11.233871,10.3846154 L13.0967742,13.2878412 L13.3790323,13.7344913 C13.6048387,14.0694789 13.7177419,14.516129 13.7177419,14.9069479 C13.7177419,16.2468983 12.6451613,17.0843672 11.1774194,17.0843672 C9.70967742,17.0843672 8.80645161,16.0794045 8.80645161,14.7394541 C8.80645161,14.2369727 8.97580645,13.7903226 9.2016129,13.3995037 L9.31451613,13.2878412 Z" id="Path"></path>
                    <path d="M13.0403226,1.33995037 C11.7983871,0.614143921 10.6693548,0.0558312655 10.5564516,0.279156328 C10.4435484,0.50248139 11.0645161,1.73076923 12.3064516,2.40074442 C13.5483871,3.12655087 14.9596774,3.01488834 15.1290323,2.79156328 C15.2419355,2.62406948 14.2822581,2.06575682 13.0403226,1.33995037 Z" id="Path"></path>
                </g>
                <g id="Group" transform="translate(27.419355, 0.000000)" fill="#00529B">
                    <path d="M0.44368987,2.11111111 L8.59649123,2.11111111 L16.2501415,14.3888889 L16.4719864,14.3888889 C16.139219,12.5555556 15.7509904,10.6111111 15.7509904,8.72222222 L15.7509904,2.05555556 L23.9037917,2.05555556 L23.9037917,24.2222222 L15.7509904,24.2222222 L8.31918506,12.6111111 L8.09734012,12.6111111 C8.37464629,14.1666667 8.65195246,15.6111111 8.65195246,17.0555556 L8.65195246,24.2777778 L0.499151104,24.2777778 L0.44368987,2.11111111 Z" id="Path"></path>
                    <path d="M32.8330504,17.7222222 C32.8330504,19 33.0548953,20.3888889 34.7187323,20.3888889 C35.5506508,20.3888889 36.1607244,19.8333333 36.3271081,19.1111111 L44.147142,19.1111111 C43.0933786,22.8888889 38.6564799,24.6111111 34.885116,24.6111111 C29.7272213,24.6111111 24.9575552,22.0555556 24.9575552,16.7222222 C24.9575552,11.5555556 29.1726089,8.27777778 34.4414261,8.27777778 C40.3203169,8.27777778 44.9235993,11.8888889 44.5353707,17.7222222 L32.8330504,17.7222222 Z M36.6044143,14.5 C36.6044143,13.4444444 35.7724958,12.4444444 34.6632711,12.4444444 C33.4431239,12.4444444 32.8885116,13.3888889 32.8885116,14.5 L36.6044143,14.5 Z" id="Shape"></path>
                    <polygon id="Path" points="51.6344086 8.66666667 53.5200905 17.3333333 53.7419355 17.3333333 54.1301641 14.7222222 55.7385399 8.61111111 61.0073571 8.61111111 63.1703452 17.2777778 63.3367289 17.2777778 63.7249576 14.6666667 65.1669496 8.55555556 73.5970572 8.55555556 66.8307866 24.1666667 60.3972835 24.1666667 58.6225241 17.2222222 58.4006791 17.2222222 58.0124505 18.8888889 56.5149972 24.1666667 49.9705716 24.1666667 43.3152235 8.55555556"></polygon>
                    <path d="M84.8556876,2.11111111 L87.4623656,7.88888889 L87.6842105,7.88888889 C87.9060555,7.16666667 88.1279004,6.5 88.4606678,5.77777778 L90.1245048,2.05555556 L99.663837,2.05555556 L91.6774194,14.6666667 L91.6774194,24.2222222 L83.3582343,24.2222222 L83.3582343,14.6666667 L75.2608942,2.11111111 L84.8556876,2.11111111 Z" id="Path"></path>
                    <path d="M114.693831,16.6666667 C114.693831,21.8333333 109.868704,24.6666667 104.710809,24.6666667 C99.5529145,24.6666667 94.7277872,21.8888889 94.7277872,16.6666667 C94.7277872,11.1666667 99.2756084,8.33333333 104.710809,8.33333333 C110.14601,8.27777778 114.693831,11.1666667 114.693831,16.6666667 Z M102.436899,16.5555556 C102.436899,17.7777778 103.435201,18.7222222 104.655348,18.7222222 C105.875495,18.7222222 106.873797,17.8333333 106.873797,16.5555556 C106.873797,15.2777778 105.986418,14.2777778 104.655348,14.2777778 C103.37974,14.2222222 102.436899,15.2777778 102.436899,16.5555556 Z" id="Shape"></path>
                    <path d="M129.668364,16 C128.836446,15.5555556 128.226372,15.1666667 127.22807,15.1666667 C125.120543,15.1666667 124.06678,16.3333333 124.06678,18.2777778 L124.06678,24.2777778 L116.080362,24.2777778 L116.080362,8.66666667 L124.06678,8.66666667 L123.900396,10.7777778 L124.06678,10.7777778 C125.508772,8.72222222 126.950764,8.27777778 129.668364,8.33333333 L129.668364,16 Z" id="Path"></path>
                    <polygon id="Path" points="130.888512 0.388888889 138.874929 0.388888889 138.874929 14.4444444 139.041313 14.4444444 139.706848 13.1111111 142.202603 8.61111111 151.520091 8.61111111 145.474816 16.2777778 151.852858 24.2777778 142.424448 24.2777778 139.096774 18.5555556 138.93039 18.5555556 138.93039 24.2777778 130.943973 24.2777778"></polygon>
                    <path d="M161.225806,2.44444444 L170.155065,2.44444444 C175.368421,2.44444444 176.033956,5.38888889 176.033956,7.27777778 C176.033956,9.5 173.870968,11.2777778 171.26429,12.7777778 C173.760045,13.7222222 175.534805,15.5 175.534805,18.2222222 C175.534805,19.3333333 174.647425,24.3333333 166.661007,24.3333333 L158.951896,24.3333333 L159.11828,23.3888889 L160.671194,23.3888889 C161.225806,23.3888889 161.447651,23.1666667 161.447651,22.6666667 C161.447651,21.8888889 163.887946,5.38888889 163.887946,4.5 C163.887946,3.44444444 163.721562,3.38888889 162.72326,3.38888889 L161.003962,3.38888889 L161.225806,2.44444444 Z M165.052632,12.7777778 C164.387097,17.5555556 163.887946,20.9444444 163.887946,22.1111111 C163.887946,22.8888889 163.998868,23.1666667 164.886248,23.1666667 L166.494624,23.1666667 C171.375212,23.1666667 173.039049,20.3333333 173.039049,18.1666667 C173.039049,15.7777778 171.541596,12.8333333 165.773628,12.8333333 L165.052632,12.8333333 L165.052632,12.7777778 Z M165.219015,11.7222222 C166.827391,11.7777778 168.546689,11.8333333 170.099604,12.3333333 C172.262592,11.5 173.704584,9.33333333 173.704584,7.66666667 C173.704584,3.55555556 170.321449,3.55555556 167.326542,3.55555556 C166.77193,3.55555556 166.494624,3.55555556 166.439162,4 L165.219015,11.7222222 Z" id="Shape"></path>
                    <path d="M177.032258,1.5 C179.084324,0.444444444 181.191851,0 182.356537,0 C182.578381,0 182.689304,0.111111111 182.689304,0.444444444 C182.689304,1.55555556 182.023769,5.83333333 181.302773,10.4444444 C180.581777,15 179.916242,19.8333333 179.916242,22 C179.916242,22.5 180.193548,23.1111111 180.415393,23.1111111 C180.803622,23.1111111 182.023769,22.3888889 182.96661,21.8888889 L183.354839,22.5555556 C181.857385,23.6111111 179.084324,24.9444444 178.47425,24.9444444 C178.03056,24.9444444 177.808715,24.1666667 177.808715,23.3333333 C177.808715,19.0555556 180.359932,4.55555556 180.359932,2.44444444 C180.359932,1.88888889 180.359932,1.5 179.860781,1.5 C179.528014,1.5 178.363328,1.88888889 177.365025,2.22222222 L177.032258,1.5 Z" id="Path"></path>
                    <path d="M184.186757,19.6666667 C184.186757,13.7222222 188.235427,8.94444444 192.894171,8.94444444 C196.332767,8.94444444 197.441992,11.5 197.441992,14.1666667 C197.441992,20.1666667 193.393322,24.8888889 188.734578,24.8888889 C185.295982,24.8888889 184.186757,22.3333333 184.186757,19.6666667 Z M192.062252,9.88888889 C187.791737,9.88888889 186.405207,15.7777778 186.405207,19.0555556 C186.405207,21.1666667 186.959819,24 189.621958,24 C193.892473,24 195.279004,18.1111111 195.279004,14.8333333 C195.223543,12.6666667 194.66893,9.88888889 192.062252,9.88888889 Z" id="Shape"></path>
                    <path d="M198.162988,19.6666667 C198.162988,13.7222222 202.211658,8.94444444 206.870402,8.94444444 C210.308998,8.94444444 211.418223,11.5 211.418223,14.1666667 C211.418223,20.1666667 207.369553,24.8888889 202.710809,24.8888889 C199.272213,24.8888889 198.162988,22.3333333 198.162988,19.6666667 Z M206.038483,9.88888889 C201.767968,9.88888889 200.381437,15.7777778 200.381437,19.0555556 C200.381437,21.1666667 200.93605,24 203.598189,24 C207.868704,24 209.255235,18.1111111 209.255235,14.8333333 C209.255235,12.6666667 208.700623,9.88888889 206.038483,9.88888889 Z" id="Shape"></path>
                    <path d="M221.290323,1.5 C223.342388,0.444444444 225.449915,0 226.614601,0 C226.836446,0 226.947368,0.111111111 226.947368,0.444444444 C226.947368,2.66666667 224.174307,17.6666667 224.174307,22 C224.174307,22.5 224.451613,23.1111111 224.673458,23.1111111 C225.061686,23.1111111 226.281834,22.3888889 227.224675,21.8888889 L227.612903,22.5555556 C226.11545,23.6111111 223.342388,24.9444444 222.732315,24.9444444 C222.288625,24.9444444 222.06678,24.1666667 222.06678,23.3333333 C222.06678,22.2222222 222.233164,20.3888889 222.344086,18.9444444 L222.233164,18.8888889 C221.068478,21.2777778 218.628183,25 215.688738,25 C213.08206,25 212.19468,22.2777778 212.19468,20.1666667 C212.19468,14.8333333 216.631579,9.22222222 222.51047,9.16666667 C222.787776,9.16666667 223.286927,9.22222222 223.730617,9.22222222 C224.007923,6.94444444 224.562535,3.33333333 224.562535,2.44444444 C224.562535,1.88888889 224.562535,1.5 224.063384,1.5 C223.730617,1.5 222.51047,1.88888889 221.567629,2.22222222 L221.290323,1.5 Z M223.176005,13.2222222 L223.564233,10.1666667 C223.120543,10.0555556 222.621392,9.94444444 222.233164,9.94444444 C218.406338,9.94444444 214.41313,13.5555556 214.41313,19.6666667 C214.41313,20.9444444 214.690436,23.1111111 216.68704,23.1111111 C218.739106,23.1111111 222.288625,19.6111111 223.176005,13.2222222 Z" id="Shape"></path>
                    <path d="M253.235993,5.5 C252.958687,5.5 252.847765,5.27777778 252.847765,5.05555556 C252.681381,3.27777778 249.353707,2.77777778 248.022637,2.77777778 C241.145444,2.77777778 236.209394,8.27777778 236.209394,15.4444444 C236.209394,20.2222222 238.70515,23.8333333 244.029428,23.8333333 C247.24618,23.8333333 250.684776,21.8888889 251.128466,20.3333333 C251.183928,20.1111111 251.239389,19.6666667 251.572156,19.6666667 C251.794001,19.6666667 251.904924,19.7777778 251.904924,20 C251.904924,20.2777778 251.572156,21.6666667 251.239389,23.1111111 C248.799095,24.2777778 245.859649,24.9444444 243.086587,24.9444444 C237.485003,24.9444444 233.713639,21.3888889 233.713639,15.9444444 C233.713639,8.16666667 239.925297,1.55555556 248.244482,1.55555556 C250.130164,1.55555556 252.071307,1.88888889 253.846067,2.5 C253.624222,5.44444444 253.513299,5.5 253.235993,5.5 Z" id="Path"></path>
                    <path d="M264.661007,21.5 C263.052632,23.2777778 260.501415,24.8888889 258.227504,24.8888889 C254.788908,24.8888889 253.679683,22.3333333 253.679683,19.6666667 C253.679683,13.7222222 257.728353,8.94444444 262.387097,8.94444444 C263.219015,8.94444444 264.383701,9.27777778 264.383701,11 L264.383701,11.8888889 L265.049236,11.3888889 C265.492926,11.0555556 265.492926,10.7222222 265.714771,10.7222222 C265.825693,10.7222222 265.881154,10.7777778 265.881154,10.8888889 C265.881154,11.1666667 265.825693,11.3888889 265.714771,11.6666667 C263.829089,13.2777778 258.061121,16.7222222 255.842671,18.0555556 L255.842671,18.8888889 C255.842671,21 256.508206,23.5555556 259.225806,23.5555556 C261.111488,23.5555556 262.941709,22.1111111 264.32824,21 L264.661007,21.5 Z M262.387097,13.0555556 C262.498019,12.6666667 262.55348,12.2222222 262.55348,11.6666667 C262.55348,10.8333333 262.165252,9.88888889 261.111488,9.88888889 C257.894737,9.88888889 255.898132,14.3888889 255.898132,17.1111111 C257.839276,15.9444444 259.225806,15.2222222 262.387097,13.0555556 Z" id="Shape"></path>
                    <path d="M268.986984,24.2222222 L267.04584,24.2222222 C268.265988,15.9444444 268.8206,12.1111111 268.8206,11.1111111 C268.8206,10.6111111 268.765139,10.3333333 268.432371,10.3333333 C267.93322,10.3333333 266.602151,11.1666667 266.102999,11.4444444 L265.825693,10.8333333 C267.711375,9.38888889 270.096208,8.88888889 270.706282,8.88888889 C270.872666,8.88888889 271.09451,8.94444444 271.09451,9.16666667 C271.09451,10.2777778 270.817204,13.2777778 270.428976,15.3333333 L270.484437,15.3888889 C271.371817,13.1111111 274.311262,8.88888889 277.028862,8.88888889 C278.859083,8.88888889 279.413696,10.5555556 279.413696,12 C279.413696,13.6666667 278.24901,20.5555556 278.24901,21.6666667 C278.24901,22.1666667 278.526316,22.7777778 278.748161,22.7777778 C279.136389,22.7777778 280.356537,22.0555556 281.299377,21.5555556 L281.687606,22.2222222 C280.190153,23.2777778 277.417091,24.6111111 276.807018,24.6111111 C276.363328,24.6111111 276.141483,23.8333333 276.141483,23 C276.141483,21.4444444 277.472552,15.2777778 277.472552,12.8333333 C277.472552,11.8888889 277.306169,10.7222222 276.086022,10.7222222 C274.144878,10.7222222 270.539898,14.6666667 269.652518,20.3333333 L268.986984,24.2222222 Z" id="Path"></path>
                    <path d="M287.011885,9.61111111 L290.505942,9.61111111 L290.339559,10.4444444 L286.845501,10.4444444 C285.791737,15.7777778 285.126203,19.6111111 285.126203,21.6666667 C285.126203,22.4444444 285.237125,23.4444444 286.34635,23.4444444 C287.621958,23.4444444 288.842105,22.6111111 289.784946,21.9444444 L290.173175,22.5555556 C289.008489,23.6666667 286.845501,24.9444444 285.126203,24.9444444 C283.517827,24.9444444 283.074137,23.8333333 283.074137,22.5 C283.074137,20 283.684211,15.6111111 284.904358,10.4444444 L282.907753,10.4444444 L283.074137,9.61111111 C284.627051,9.61111111 284.904358,9.61111111 285.292586,8.94444444 C285.569892,8.5 286.34635,6.44444444 286.79004,5.22222222 L287.899264,5.11111111 L287.011885,9.61111111 Z" id="Path"></path>
                    <path d="M301.930956,21.5 C300.322581,23.2777778 297.771364,24.8888889 295.497453,24.8888889 C292.058857,24.8888889 290.949632,22.3333333 290.949632,19.6666667 C290.949632,13.7222222 294.998302,8.94444444 299.657046,8.94444444 C300.488964,8.94444444 301.65365,9.27777778 301.65365,11 L301.65365,11.8888889 L302.319185,11.3888889 C302.762875,11.0555556 302.762875,10.7222222 302.98472,10.7222222 C303.095642,10.7222222 303.151104,10.7777778 303.151104,10.8888889 C303.151104,11.1666667 303.095642,11.3888889 302.98472,11.6666667 C301.099038,13.2777778 295.33107,16.7222222 293.11262,18.0555556 L293.11262,18.8888889 C293.11262,21 293.778155,23.5555556 296.495756,23.5555556 C298.381437,23.5555556 300.211658,22.1111111 301.598189,21 L301.930956,21.5 Z M299.712507,13.0555556 C299.82343,12.6666667 299.878891,12.2222222 299.878891,11.6666667 C299.878891,10.8333333 299.490662,9.88888889 298.436899,9.88888889 C295.220147,9.88888889 293.223543,14.3888889 293.223543,17.1111111 C295.164686,15.9444444 296.551217,15.1666667 299.712507,13.0555556 Z" id="Shape"></path>
                    <path d="M307.088851,24.2222222 L305.147708,24.2222222 C306.367855,15.9444444 306.922467,12.1111111 306.922467,11.1111111 C306.922467,10.6111111 306.867006,10.3333333 306.534239,10.3333333 C306.035088,10.3333333 304.704018,11.1666667 304.204867,11.4444444 L303.927561,10.8333333 C305.813243,9.38888889 308.198076,8.88888889 308.808149,8.88888889 C308.974533,8.88888889 309.196378,8.94444444 309.196378,9.16666667 C309.196378,10.2777778 308.919072,13.2777778 308.530843,15.3333333 L308.586304,15.3888889 C309.695529,13.2222222 311.96944,8.88888889 315.019808,8.88888889 C315.57442,8.88888889 316.129032,9.22222222 316.129032,9.77777778 C316.129032,10.5555556 315.13073,10.8333333 314.520656,10.8333333 C314.076967,10.8333333 313.577816,10.7222222 313.134126,10.5555556 C312.357668,10.6111111 308.641766,14.7777778 307.754386,20.2777778 L307.088851,24.2222222 Z" id="Path"></path>
                </g>
            </g>
        </g>
    </g>
</svg>