<?xml version="1.0" encoding="UTF-8"?>
<svg width="64px" height="58px" viewBox="0 0 64 58" version="1.1" xmlns="http://www.w3.org/2000/svg" xmlns:xlink="http://www.w3.org/1999/xlink">
    <title>CA0AB920-7FE5-4F07-BAAC-E1304FE6489B</title>
    <g id="Page-1" stroke="none" stroke-width="1" fill="none" fill-rule="evenodd">
        <g id="NYBC-landing-2" transform="translate(-242.000000, -2196.000000)" fill="#005587">
            <g id="Addt-pre-screening-info" transform="translate(150.000000, 2162.000000)">
                <g id="Group-2" transform="translate(92.000000, 34.000000)">
                    <g id="[icon]-privacy-(32px-@2x)">
                        <path d="M48,24 C53.6,24 58,26.4 58,32 L58,32 L58,34 L60,34 C62.2,34 64,35.8 64,38 L64,38 L64,54 C64,56.2 62.2,58 60,58 L60,58 L36,58 C33.8,58 32,56.2 32,54 L32,54 L32,38 C32,35.8 33.8,34 36,34 L36,34 L38,34 L38,32 C38,26.4 42.4,24 48,24 Z M60,38 L36,38 L36,54 L60,54 L60,38 Z M48,39.999 C50.2,39.999 52,41.801 52,43.999 C52,45.469 51.188,46.745 50,47.441 L50,51.999 L46,51.999 L46,47.441 C44.812,46.745 44,45.469 44,43.999 C44,41.801 45.8,39.999 48,39.999 Z M45.957,0 C50.923,0 55.999,4.176 55.999,9.142 L55.999,9.142 L55.999,20 L51.427,20 L51.428,16 L4.512,16 L4.571,40.858 C4.571,43.2690857 6.5413902,45.3083641 8.93109497,45.422926 L9.143,45.428 L27.999,45.428 L27.999,50 L9.143,50 C4.175,50 -0.001,44.924 -0.001,39.956 L-0.001,39.956 L-0.001,8.994 C-0.001,4.028 4.027,0 8.995,0 L8.995,0 Z M48.2254617,28.000913 L47.7745383,28.000913 C44.4857284,28.0280494 42,28.6755556 42,32 L42,32 L42,34 L54,34 L54,32 C54,28.6 51.4,28 48,28 Z M8.995,4.496 C6.509,4.496 4.497,6.51 4.497,8.994 L4.497,8.994 L4.508,14 L51.428,14 L51.429,9.142 C51.429,6.73091429 49.4586098,4.69163592 47.068905,4.57707396 L46.857,4.572 Z M45,6 C46.654,6 48,7.346 48,9 C48,10.654 46.654,12 45,12 C43.346,12 42,10.654 42,9 C42,7.346 43.346,6 45,6 Z M37,6 C38.654,6 40,7.346 40,9 C40,10.654 38.654,12 37,12 C35.346,12 34,10.654 34,9 C34,7.346 35.346,6 37,6 Z M29,6 C30.654,6 32,7.346 32,9 C32,10.654 30.654,12 29,12 C27.346,12 26,10.654 26,9 C26,7.346 27.346,6 29,6 Z" id="[icon]-privacy-(32px-@1x)"></path>
                    </g>
                </g>
            </g>
        </g>
    </g>
</svg>