<?xml version="1.0" encoding="UTF-8"?>
<svg width="96px" height="98px" viewBox="0 0 96 98" version="1.1" xmlns="http://www.w3.org/2000/svg" xmlns:xlink="http://www.w3.org/1999/xlink">
    <title>402F62D4-1F35-4923-9280-770905623899</title>
    <g id="Page-1" stroke="none" stroke-width="1" fill="none" fill-rule="evenodd">
        <g id="DNQ" transform="translate(-362.000000, -160.000000)" fill="#FFFFFF">
            <g id="[icon]-questionnaire-(32px-@3x)-(white)" transform="translate(362.000000, 160.578035)">
                <path d="M63.0700384,0 C70.5347843,0 78.164879,6.30020809 78.164879,13.7952832 L78.164879,13.7952832 L78.164879,39.6569133 L71.2953887,39.6569133 L71.2953887,13.7952832 C71.2953887,10.050763 68.1567682,6.89764162 64.422892,6.89764162 L64.422892,6.89764162 L13.5225241,6.78298266 C9.78564159,6.78298266 6.76126204,9.82144509 6.76126204,13.572 L6.76126204,13.572 L6.87249667,82.7626474 C6.87249667,86.5071676 10.0111172,89.6572717 13.7449933,89.6572717 L13.7449933,89.6572717 L45.5250294,89.6572717 L45.5250294,96.5549133 L13.7449933,96.5549133 C6.27724106,96.5549133 0,88.8969017 0,81.4048439 L0,81.4048439 L0,13.572 C0,6.07692486 6.05477178,0 13.5225241,0 L13.5225241,0 Z M69.0451421,42.2436798 C83.9325452,42.2436798 96,54.3552867 96,69.2971595 C96,84.2390324 83.9325452,96.3506393 69.0451421,96.3506393 C54.157739,96.3506393 42.0902842,84.2390324 42.0902842,69.2971595 C42.0902842,54.3552867 54.157739,42.2436798 69.0451421,42.2436798 Z M69.0451421,48.1757723 C57.4226259,48.1757723 48.0007516,57.6321191 48.0007516,69.2971595 C48.0007516,80.9622 57.4226259,90.4185468 69.0451421,90.4185468 C80.6676583,90.4185468 90.0895326,80.9622 90.0895326,69.2971595 C90.0895326,57.6321191 80.6676583,48.1757723 69.0451421,48.1757723 Z M76.6761387,59.8839607 C78.0259861,58.4990012 80.2115963,58.4990012 81.5614437,59.8839607 C82.911291,61.2568509 82.911291,63.4987353 81.5614437,64.8806775 L81.5614437,64.8806775 L66.9085352,79.8798798 C65.5586879,81.261822 63.3730776,81.261822 62.0232303,79.8798798 L62.0232303,79.8798798 L56.527638,74.2525387 C55.1777907,72.8766312 55.1777907,70.6347468 56.527638,69.2528046 C57.8774853,67.8768971 60.0630956,67.8768971 61.4129429,69.2528046 L61.4129429,69.2528046 L64.4643796,72.3757526 Z M42.076455,54.1048474 C41.5774023,55.0915179 41.1444892,56.1143965 40.7686965,57.1674486 L40.7686965,57.1674486 L15.7469162,57.1704659 C15.7469162,57.1704659 15.4883708,57.1795179 15.2628952,57.3454717 C15.1336225,57.490304 15.0344132,57.7015179 15.0344132,58.0304081 L15.0344132,58.0304081 L15.0344132,62.3512405 C15.1185908,63.1055757 15.8551444,63.1327318 15.8551444,63.1327318 L39.364735,63.1327318 C39.250494,64.116385 39.1813482,65.1121075 39.1753355,66.1259341 L39.1753355,66.1259341 L15.0975464,66.1259341 C13.1404181,66.1259341 12.145319,65.0909861 12.0641478,63.1327318 L12.0641478,63.1327318 L12.0641478,63.1206624 C12.0611415,63.0391942 12.0340844,62.9848821 12.0340844,62.9003965 L12.0340844,62.9003965 L12.0340844,60.5559225 L12.0551288,60.5559225 L12.0280717,57.4239225 C12.01304,55.791541 12.5451625,54.7807318 13.6695342,54.3733908 C14.081403,54.2014023 14.5624176,54.1048474 15.1276098,54.1048474 L15.1276098,54.1048474 Z M38.3951899,45.2589087 C40.4725718,45.252874 42.1260597,46.5895561 42.0899836,48.2460763 C42.0599201,49.8965618 40.3463055,51.2392786 38.2689235,51.2453133 L38.2689235,51.2453133 L15.7213622,51.2935908 C13.6439803,51.3026428 11.9904924,49.9659607 12.0265685,48.3094405 C12.056632,46.6619723 13.7702466,45.3162382 15.8476286,45.3102035 L15.8476286,45.3102035 Z M62.8217146,27.1572763 C64.4481453,27.1421896 65.4552697,27.676259 65.8611258,28.8047445 C66.0324873,29.2181202 66.1286902,29.7008948 66.1286902,30.2681549 L66.1286902,30.2681549 L66.0986268,36.2092994 C66.056538,38.1403977 64.9983058,39.1361202 62.9389619,39.1542243 L62.9389619,39.1542243 L61.8025648,39.2025017 L45.192528,39.2025017 L19.1546042,39.2266405 L42.1861865,39.2025017 L15.0990496,39.2025017 C13.1389149,39.2025017 12.1468222,38.1675538 12.0626446,36.1972301 C12.0596383,36.1157618 12.0325812,36.0584324 12.0325812,35.9769642 L12.0325812,35.9769642 L12.0536256,33.6324902 L12.0265685,30.4974728 C12.0145432,28.8681087 12.5436593,27.8542821 13.668031,27.4499584 C14.0798998,27.2779699 14.5609144,27.1783977 15.129113,27.1783977 L15.129113,27.1783977 L42.2162499,27.1965017 L52.4408173,27.172363 Z M62.2174399,30.1746173 L15.745413,30.2470335 C15.745413,30.2470335 15.4868676,30.2560855 15.2643983,30.4220393 C15.1351257,30.5638543 15.03291,30.7780855 15.03291,31.1069757 L15.03291,31.1069757 L15.03291,35.4278081 C15.1170876,36.1821434 15.8536413,36.2092994 15.8536413,36.2092994 L15.8536413,36.2092994 L62.2294653,36.1489526 C63.1223487,36.1429179 63.116336,35.2920277 63.116336,35.2890104 L63.116336,35.2890104 L63.0712409,30.8897272 C63.0712409,30.8897272 63.0652282,30.6302358 62.8998794,30.4039353 C62.755575,30.2741896 62.5451311,30.1746173 62.2174399,30.1746173 L62.2174399,30.1746173 Z M38.3951899,18.1028393 C40.4725718,18.0968046 42.1260597,19.4334867 42.0899836,21.0900069 C42.0599201,22.7404925 40.3463055,24.0832092 38.2689235,24.0892439 L38.2689235,24.0892439 L15.7213622,24.1375214 C13.6439803,24.1465734 11.9904924,22.8098913 12.0265685,21.1533711 C12.056632,19.5059029 13.7702466,18.1601688 15.8476286,18.1541341 L15.8476286,18.1541341 Z" id="form-completed"></path>
            </g>
        </g>
    </g>
</svg>