<?xml version="1.0" encoding="UTF-8"?>
<svg width="48px" height="48px" viewBox="0 0 48 48" version="1.1" xmlns="http://www.w3.org/2000/svg" xmlns:xlink="http://www.w3.org/1999/xlink">
    <title>90A6D3F5-96F3-4073-A48A-C9DB05EF8376</title>
    <g id="Page-1" stroke="none" stroke-width="1" fill="none" fill-rule="evenodd">
        <g id="NYBC-landing-2" transform="translate(-754.000000, -1266.000000)" fill="#005587" fill-rule="nonzero">
            <g id="Eligibility-criteria" transform="translate(0.000000, 1212.000000)">
                <path d="M778,54 C764.745166,54 754,64.745166 754,78 C754,91.254834 764.745166,102 778,102 C791.254834,102 802,91.254834 802,78 C801.98457,64.7515624 791.248438,54.0154295 778,54 Z M791.854,70.4 L778.164,88.978 C777.837507,89.4111793 777.350657,89.6950102 776.812844,89.7657156 C776.275031,89.8364211 775.731362,89.6880711 775.304,89.354 L765.528,81.538 C764.665331,80.8476441 764.525644,79.5886688 765.216,78.726 C765.906356,77.8633312 767.165331,77.7236441 768.028,78.414 L776.18,84.936 L788.634,68.034 C789.042384,67.42118 789.754502,67.0823653 790.487623,67.152075 C791.220744,67.2217848 791.856245,67.6887396 792.141813,68.3675448 C792.427381,69.0463501 792.31681,69.8271714 791.854,70.4 Z" id="Mask"></path>
            </g>
        </g>
    </g>
</svg>