<!-- Created By Leonid Bartenev -->

<svg xmlns="http://www.w3.org/2000/svg" xmlns:xlink="http://www.w3.org/1999/xlink" display="none">

    <symbol viewBox="0 0 26 32" id="about-the-study">
        <path d="M15.9994615,0.00539873315 C17.3376673,-0.0156010051 17.8717495,0.0333983842 17.9997692,0.00539873315 L26,8.00429905 L26,28.0010498 C26,30.2090223 24.2087244,32 21.9993845,32 L3.99961533,32 C1.79127558,32 0,30.2090223 0,28.0010498 L0,4.00534888 C0,1.79637641 1.79127558,0.00539873315 3.99961533,0.00539873315 L15.9994615,0.00539873315 Z M17.9997692,2.00537381 L17.9997692,6.00432397 C17.9997692,7.10831021 18.8959071,8.00429905 20.0000769,8.00429905 L23.9996923,8.00429905 L17.9997692,2.00537381 Z M23.9996923,28.0010498 L23.9996923,10.0042741 L20.0000769,10.0042741 C17.790737,10.0042741 15.9994615,8.21329644 15.9994615,6.00432397 C15.9994615,6.00432397 15.9534544,4.40034396 15.9714571,2.00537381 L3.99961533,2.00537381 C2.89644561,2.00537381 2.00030774,2.90136264 2.00030774,4.00534888 L2.00030774,28.0010498 C2.00030774,29.1040361 2.89644561,30.0000249 3.99961533,30.0000249 L21.9993845,30.0000249 C23.1035544,30.0000249 23.9996923,29.1040361 23.9996923,28.0010498 Z M15.0360132,10.1085728 L15.0010078,15.0395114 L20.0487844,15.1205104 L20.013779,18.9964621 L15.0640175,19.0994608 L15.0370134,23.9724 L11.069403,24.0973985 L11.0393984,19.000462 L6.05663179,19.0864609 L6.09363748,15.0315115 L11.0343976,15.070511 L11.0704031,10.0555735 L15.0360132,10.1085728 Z" id="about-study-icon"></path>
    </symbol>
    <symbol viewBox="0 0 26 32" id="chart-review-received">
        <path d="M16,0.00539880043 L4,0.00539880043 C1.791,0.00539880043 0,1.7963988 0,4.0043988 L0,28.0003988 C0,30.2093988 1.791,32.0003988 4,32.0003988 L22,32.0003988 C24.209,32.0003988 26,30.2093988 26,28.0003988 L26,8.0043988 L18,0.00539880043 C17.872,0.0333988004 17.338,-0.0156011996 16,0.00539880043 L16,0.00539880043 Z M24,27.9983988 C24,29.1023988 23.104,29.9973988 22,29.9973988 L4,29.9973988 C2.896,29.9973988 2,29.1023988 2,27.9983988 L2,4.0023988 C2,2.8983988 2.896,2.0023988 4,2.0023988 L15.972,2.0023988 C15.954,4.3973988 16,6.0023988 16,6.0023988 C16,8.2103988 17.791,10.0013988 20,10.0013988 L24,10.0013988 L24,27.9983988 Z M18,2.0023988 L24,8.0013988 L20,8.0013988 C18.896,8.0013988 18,7.1053988 18,6.0023988 L18,2.0023988 Z M8.9757,20.0622988 C8.9697,19.3562988 8.6267,18.9962988 7.9477,19.0032988 L6.6407,19.0162988 L6.6407,19.0102988 L5.0317,19.0102988 C4.8427,19.0102988 4.6827,19.0432988 4.5467,19.1002988 C4.1727,19.2352988 3.9957,19.5702988 3.9997,20.1102988 L4.0117,21.5172988 L4.0117,22.9262988 C4.0117,23.6322988 4.3517,23.9952988 5.0317,23.9952988 L6.3807,23.9952988 L6.3807,24.0022988 L7.1797,23.9952988 L8.0087,23.9952988 C8.5097,23.9952988 8.8107,23.7942988 8.9297,23.3902988 C8.9767,23.2502988 9.0017,23.0892988 8.9997,22.9022988 L8.9757,20.0622988 Z M7.8737,22.9762988 C7.8097,23.0082988 7.7477,23.0092988 7.7477,23.0092988 L5.2897,23.0092988 C5.2897,23.0092988 5.0067,23.0092988 5.0067,22.7122988 L5.0067,20.3192988 C5.0067,20.2092988 5.0407,20.1392988 5.0837,20.0922988 C5.1577,20.0372988 5.2447,20.0342988 5.2447,20.0342988 L7.7017,20.0092988 C7.7017,20.0092988 7.9847,20.0072988 7.9867,20.3042988 L8.0067,22.6972988 C8.0087,22.8542988 7.9417,22.9342988 7.8737,22.9762988 Z M11.2779,21.0260988 C10.5869,21.0280988 10.0169,21.4740988 10.0069,22.0200988 C9.9949,22.5690988 10.5449,23.0120988 11.2359,23.0100988 L20.7359,22.9930988 C21.4269,22.9910988 21.9969,22.5460988 22.0069,21.9990988 C22.0189,21.4500988 21.4689,21.0070988 20.7779,21.0100988 L11.2779,21.0260988 Z M5.2709,25.0189988 C4.5799,25.0209988 4.0099,25.4669988 3.9999,26.0139988 C3.9879,26.5619988 4.5379,27.0049988 5.2289,27.0029988 L20.7289,26.9869988 C21.4199,26.9849988 21.9899,26.5389988 21.9999,25.9919988 C22.0119,25.4429988 21.4619,24.9999988 20.7709,25.0029988 L5.2709,25.0189988 Z M5.06635247,17.4473559 L8.40916965,17.1944536 C8.5414636,17.1905359 8.65733974,17.1313246 8.72250979,17.0464134 C8.81022485,16.951538 8.84841499,16.8271403 8.83040528,16.7061285 L8.50181325,13.4014298 C8.49534667,13.2594169 8.4268468,13.1237172 8.31428136,13.0292636 C8.2223265,12.9521043 8.11083285,12.9078897 7.99712822,12.9033375 L7.95457705,12.9025317 C7.81179344,12.9060713 7.6829731,12.9766842 7.62721949,13.0713018 L6.96907072,13.8500184 C5.98648438,12.8943591 5.66045034,11.4540803 6.2179168,10.4049547 L6.57078563,9.74132916 L5.87347594,10.0515522 C5.43019094,10.2482021 5.05117105,10.5324722 4.74629757,10.8958062 C3.57598638,12.2905288 3.8367189,14.460635 5.30052232,15.8441515 L4.65107763,16.6205444 C4.5482246,16.7165567 4.50233115,16.8501349 4.52334313,16.991717 C4.56176437,17.2501969 4.80582032,17.4543825 5.06635247,17.4473559 Z M6.43853819,15.5067327 C6.43853819,15.5067327 6.04142819,15.1804235 5.96164355,15.1088725 C5.22492728,14.4521373 5.18179315,13.3328988 5.36533076,12.5799561 C5.55198316,13.2873059 5.95589812,14.0774035 6.46165293,14.5017822 L7.11986485,15.0483328 L7.60243764,14.4732249 L7.68312173,16.0406156 L6.12553255,16.2333319 L6.61405603,15.6511323 L6.43853819,15.5067327 Z M9.004,12.9200439 C9.591,12.5760439 10.27,12.3649902 11,12.3649902 C13.036,12.3649902 14.3379609,13.1650098 14.5849609,15.1350098 L11,15.1400146 L11,16.5 L16,16.5 L16,16 C16,13.891 14.683,12.092 12.832,11.358 C13.537,10.809 14,9.961 14,9 C14,7.346 12.654,6 11,6 C9.346,6 8,7.346 8,9 C8,9.961 8.463,10.809 9.168,11.358 C8.848,11.485 8.55,11.651 8.266,11.838 L8.905,12.421 C8.948,12.456 8.977,12.8750439 9.004,12.9200439 Z M12.75,9 C12.75,9.96489339 11.9648934,10.75 11,10.75 C10.0351066,10.75 9.25,9.96489339 9.25,9 C9.25,8.03510661 10.0351066,7.25 11,7.25 C11.9648934,7.25 12.75,8.03510661 12.75,9 Z" id="chart-review-received"></path>
    </symbol>

    <symbol viewBox="0 0 26 32" id="chart-review-sent">
        <path d="M16,0.00539880043 L4,0.00539880043 C1.791,0.00539880043 0,1.7963988 0,4.0043988 L0,28.0003988 C0,30.2093988 1.791,32.0003988 4,32.0003988 L22,32.0003988 C24.209,32.0003988 26,30.2093988 26,28.0003988 L26,8.0043988 L18,0.00539880043 C17.872,0.0333988004 17.338,-0.0156011996 16,0.00539880043 L16,0.00539880043 Z M24,27.9983988 C24,29.1023988 23.104,29.9973988 22,29.9973988 L4,29.9973988 C2.896,29.9973988 2,29.1023988 2,27.9983988 L2,4.0023988 C2,2.8983988 2.896,2.0023988 4,2.0023988 L15.972,2.0023988 C15.954,4.3973988 16,6.0023988 16,6.0023988 C16,8.2103988 17.791,10.0013988 20,10.0013988 L24,10.0013988 L24,27.9983988 Z M18,2.0023988 L24,8.0013988 L20,8.0013988 C18.896,8.0013988 18,7.1053988 18,6.0023988 L18,2.0023988 Z M8.9757,20.0622988 C8.9697,19.3562988 8.6267,18.9962988 7.9477,19.0032988 L6.6407,19.0162988 L6.6407,19.0102988 L5.0317,19.0102988 C4.8427,19.0102988 4.6827,19.0432988 4.5467,19.1002988 C4.1727,19.2352988 3.9957,19.5702988 3.9997,20.1102988 L4.0117,21.5172988 L4.0117,22.9262988 C4.0117,23.6322988 4.3517,23.9952988 5.0317,23.9952988 L6.3807,23.9952988 L6.3807,24.0022988 L7.1797,23.9952988 L8.0087,23.9952988 C8.5097,23.9952988 8.8107,23.7942988 8.9297,23.3902988 C8.9767,23.2502988 9.0017,23.0892988 8.9997,22.9022988 L8.9757,20.0622988 Z M7.7477,23.0092988 L5.2897,23.0092988 C5.2897,23.0092988 5.0067,23.0092988 5.0067,22.7122988 L5.0067,20.3192988 C5.0067,20.2092988 5.0407,20.1392988 5.0837,20.0922988 C5.1577,20.0372988 5.2447,20.0342988 5.2447,20.0342988 L7.7017,20.0092988 C7.7017,20.0092988 7.9847,20.0072988 7.9867,20.3042988 L8.0067,22.6972988 C8.0087,22.8542988 7.9417,22.9342988 7.8737,22.9762988 C7.8097,23.0082988 7.7477,23.0092988 7.7477,23.0092988 Z M11.2779,21.0260988 C10.5869,21.0280988 10.0169,21.4740988 10.0069,22.0200988 C9.9949,22.5690988 10.5449,23.0120988 11.2359,23.0100988 L20.7359,22.9930988 C21.4269,22.9910988 21.9969,22.5460988 22.0069,21.9990988 C22.0189,21.4500988 21.4689,21.0070988 20.7779,21.0100988 L11.2779,21.0260988 Z M5.2709,25.0189988 C4.5799,25.0209988 4.0099,25.4669988 3.9999,26.0139988 C3.9879,26.5619988 4.5379,27.0049988 5.2289,27.0029988 L20.7289,26.9869988 C21.4199,26.9849988 21.9899,26.5389988 21.9999,25.9919988 C22.0119,25.4429988 21.4619,24.9999988 20.7709,25.0029988 L5.2709,25.0189988 Z M17.4357,12.4924 C17.6167,12.6734 17.6167,12.9694 17.4357,13.1514 C17.3347,13.2514 17.2037,13.2974 17.0517,13.2824 L16.0587,13.2834 C15.9297,15.0784 14.4287,16.5004 12.6017,16.5004 C12.1227,16.5004 11.6587,16.4034 11.2207,16.2124 L10.4767,15.8884 L11.2737,15.7374 C12.4227,15.5204 13.3077,14.4894 13.4157,13.2874 L12.4157,13.2844 C12.3107,13.2984 12.1927,13.2604 12.0987,13.1834 L11.9907,13.1294 L11.9907,13.0594 C11.9467,12.9874 11.9227,12.9054 11.9227,12.8194 C11.9227,12.6824 11.9857,12.5524 12.0947,12.4624 L14.4157,10.3444 C14.5027,10.2594 14.6367,10.2104 14.7637,10.2184 C14.8717,10.2104 14.9977,10.2604 15.0897,10.3534 L17.4357,12.4924 Z M15.1387,12.6084 L15.1357,12.3554 L15.9027,12.3554 L14.7487,11.3034 L13.5957,12.3554 L14.3517,12.3554 L14.3557,13.2524 C14.3557,13.9104 14.0157,14.7204 13.5917,15.3304 C14.2987,14.9674 15.1107,14.2174 15.1407,13.2444 C15.1447,13.1334 15.1387,12.6084 15.1387,12.6084 Z M10.996,12.9200439 C10.409,12.5760439 9.73,12.3649902 9,12.3649902 C6.964,12.3649902 5.66203906,13.1650098 5.41503906,15.1350098 L9,15.1400146 L9,16.5 L4,16.5 L4,16 C4,13.891 5.317,12.092 7.168,11.358 C6.463,10.809 6,9.961 6,9 C6,7.346 7.346,6 9,6 C10.654,6 12,7.346 12,9 C12,9.961 11.537,10.809 10.832,11.358 C11.152,11.485 11.45,11.651 11.734,11.838 L11.095,12.421 C11.052,12.456 11.023,12.8750439 10.996,12.9200439 Z M7.25,9 C7.25,9.965125 8.034875,10.75 9,10.75 C9.965125,10.75 10.75,9.965125 10.75,9 C10.75,8.034875 9.965125,7.25 9,7.25 C8.034875,7.25 7.25,8.034875 7.25,9 Z" id="chart-review-sent"></path>
    </symbol>

    <symbol viewBox="0 0 26 32" id="check-eligibilityt">
        <path d="M16,0.00539880043 L4,0.00539880043 C1.791,0.00539880043 0,1.7963988 0,4.0043988 L0,28.0003988 C0,30.2093988 1.791,32.0003988 4,32.0003988 L22,32.0003988 C24.209,32.0003988 26,30.2093988 26,28.0003988 L26,8.0043988 L18,0.00539880043 C17.872,0.0333988004 17.338,-0.0156011996 16,0.00539880043 L16,0.00539880043 Z M11.1455337,12.8591722 C9.30408429,13.5973069 8.0002,15.4005555 8.0002,17.5025988 L8.0002,18.0025988 L18.0002,18.0025988 L18.0002,17.5025988 C18.0002,15.4004041 16.6961279,13.5970472 14.8544684,12.8590127 C15.5515786,12.3091508 15.9999,11.4571687 15.9999,10.5025988 C15.9999,8.8485988 14.6539,7.5025988 12.9999,7.5025988 C11.3459,7.5025988 9.9999,8.8485988 9.9999,10.5025988 C9.9999,11.4572609 10.4483081,12.3093156 11.1455337,12.8591722 Z M24,27.9983988 C24,29.1023988 23.104,29.9973988 22,29.9973988 L4,29.9973988 C2.896,29.9973988 2,29.1023988 2,27.9983988 L2,4.0023988 C2,2.8983988 2.896,2.0023988 4,2.0023988 L15.972,2.0023988 C15.954,4.3973988 16,6.0023988 16,6.0023988 C16,8.2103988 17.791,10.0013988 20,10.0013988 L24,10.0013988 L24,27.9983988 Z M18,2.0023988 L24,8.0013988 L20,8.0013988 C18.896,8.0013988 18,7.1053988 18,6.0023988 L18,2.0023988 Z M12.9999,8.5025988 C14.1029,8.5025988 14.9999,9.3995988 14.9999,10.5025988 C14.9999,11.6055988 14.1029,12.5025988 12.9999,12.5025988 C11.8969,12.5025988 10.9999,11.6055988 10.9999,10.5025988 C10.9999,9.3995988 11.8969,8.5025988 12.9999,8.5025988 Z M9.0312,17.0025988 C9.2782,15.0325988 10.9642,13.5025988 13.0002,13.5025988 C15.0362,13.5025988 16.7212,15.0325988 16.9682,17.0025988 L9.0312,17.0025988 Z M8.9757,20.0622988 C8.9697,19.3562988 8.6267,18.9962988 7.9477,19.0032988 L6.6407,19.0162988 L6.6407,19.0102988 L5.0317,19.0102988 C4.8427,19.0102988 4.6827,19.0432988 4.5467,19.1002988 C4.1727,19.2352988 3.9957,19.5702988 3.9997,20.1102988 L4.0117,21.5172988 L4.0117,22.9262988 C4.0117,23.6322988 4.3517,23.9952988 5.0317,23.9952988 L6.3807,23.9952988 L6.3807,24.0022988 L7.1797,23.9952988 L8.0087,23.9952988 C8.5097,23.9952988 8.8107,23.7942988 8.9297,23.3902988 C8.9767,23.2502988 9.0017,23.0892988 8.9997,22.9022988 L8.9757,20.0622988 Z M7.8737,22.9762988 C7.8097,23.0082988 7.7477,23.0092988 7.7477,23.0092988 L5.2897,23.0092988 C5.2897,23.0092988 5.0067,23.0092988 5.0067,22.7122988 L5.0067,20.3192988 C5.0067,20.2092988 5.0407,20.1392988 5.0837,20.0922988 C5.1577,20.0372988 5.2447,20.0342988 5.2447,20.0342988 L7.7017,20.0092988 C7.7017,20.0092988 7.9847,20.0072988 7.9867,20.3042988 L8.0067,22.6972988 C8.0087,22.8542988 7.9417,22.9342988 7.8737,22.9762988 Z M12.2779,21.0260988 C11.5869,21.0280988 11.0169,21.4740988 11.0069,22.0200988 C10.9949,22.5690988 11.5449,23.0120988 12.2359,23.0100988 L20.7359,22.9930988 C21.4269,22.9910988 21.9969,22.5460988 22.0069,21.9990988 C22.0189,21.4500988 21.4689,21.0070988 20.7779,21.0100988 L12.2779,21.0260988 Z M5.2709,26.0189988 C4.5799,26.0209988 4.0099,26.4669988 3.9999,27.0139988 C3.9879,27.5619988 4.5379,28.0049988 5.2289,28.0029988 L20.7289,27.9869988 C21.4199,27.9849988 21.9899,27.5389988 21.9999,26.9919988 C22.0119,26.4429988 21.4619,25.9999988 20.7709,26.0029988 L5.2709,26.0189988 Z" id="check-eligibility"></path>
    </symbol>

    <symbol viewBox="0 0 32 32" id="check-in-square-cut">
        <path d="M9.7129,15.5083 L13.2299,19.1003 L24.2879,7.8223 C24.8419,7.2583 25.7419,7.2583 26.2979,7.8223 C26.8529,8.3863 26.8529,9.3053 26.2979,9.8763 C26.2979,9.8763 14.4229,21.9833 14.2359,22.1773 C13.6799,22.7413 12.7809,22.7413 12.2259,22.1773 C12.2259,22.1773 7.6739,17.5343 7.6599,17.5203 C7.1479,16.9493 7.1619,16.0653 7.7029,15.5083 C8.2569,14.9443 9.1569,14.9443 9.7129,15.5083 Z M30,15 L32,15 L32,28 C32,30.209 30.209,32 28,32 L4,32 C1.791,32 0,30.209 0,28 L0,4 C0,1.791 1.791,0 4,0 L17,0 L17,2 L4,2 C2.896,2 2,2.896 2,4 L2,28 C2,29.104 2.896,30 4,30 L28,30 C29.104,30 30,29.104 30,28 L30,15 Z" id="check-in-square-cut"></path>
    </symbol>

    <symbol viewBox="0 0 29 32" id="clinical-trial">
        <path d="M27.729,0.73356929 L27.389,0.38156929 C26.911,-0.11443071 26.115,-0.12943071 25.617,0.35156929 L9.473,15.9415693 C8.979,16.4185693 8.96,17.2165693 9.441,17.7135693 L9.781,18.0665693 C10.259,18.5615693 11.055,18.5765693 11.553,18.0955693 L21.814,8.18656929 C24.359,10.3675693 25.762,13.3375693 25.762,17.0285693 C25.762,23.7845693 20.525,29.0205693 13.766,29.0205693 C10.519,29.0205693 7.806,27.9165693 5.692,25.9035693 L7.58,25.9035693 C8.068,25.9035693 8.453,25.5115693 8.453,25.0285693 C8.453,24.5435693 8.062,24.1545693 7.58,24.1545693 L0.873,24.1545693 C0.385,24.1545693 0,24.5465693 0,25.0285693 C0,25.5155693 0.391,25.9035693 0.873,25.9035693 L2.957,25.9035693 C4.578,27.8755693 6.729,29.3965693 9.192,30.2485693 L8.086,30.2485693 C7.6,30.2485693 7.205,30.6395693 7.205,31.1225693 C7.205,31.6085693 7.599,31.9965693 8.086,31.9965693 L21.116,31.9965693 C21.601,31.9965693 21.997,31.6055693 21.997,31.1225693 C21.997,30.6365693 21.602,30.2485693 21.116,30.2485693 L18.341,30.2485693 C23.818,28.3535693 27.751,23.1525693 27.751,17.0285693 C27.751,12.9745693 26.026,9.33056929 23.27,6.78056929 L27.697,2.50556929 C28.191,2.02856929 28.21,1.23156929 27.729,0.73356929" id="clinical-trial"></path>
    </symbol>

    <symbol viewBox="0 0 26 32" id="clipboard-medical">
        <path d="M17.045,2.909 L23.111,2.909 C24.7,2.909 26,4.218 26,5.819 L26,29.091 C26,30.691 24.7,32 23.111,32 L2.889,32 C1.3,32 0,30.691 0,29.091 L0,5.819 C0,4.218 1.3,2.909 2.889,2.909 L8.956,2.909 C9.533,1.164 11.122,0 13,0 C14.878,0 16.467,1.164 17.045,2.909 Z M24,30.091 L24,6.995 L20.981,6.995 L20.981,10.988 L5.046,10.988 L5.046,6.995 L2,6.995 L2,30.091 L24,30.091 Z M14.9989,13.0002 L14.9989,17.9992 L19.9989,17.9992 L19.9989,21.9992 L14.9989,21.9992 L14.9989,26.9992 L10.9989,26.9992 L10.9989,21.9992 L5.9999,21.9992 L5.9999,17.9992 L10.9989,17.9992 L10.9989,13.0002 L14.9989,13.0002 Z M13.09,2.909 C12.217,2.909 11.635,3.491 11.635,4.363 C11.635,5.237 12.217,5.818 13.09,5.818 C13.963,5.818 14.544,5.237 14.544,4.363 C14.544,3.491 13.963,2.909 13.09,2.909 Z" id="facts"></path>
    </symbol>

    <symbol viewBox="0 0 26 32" id="communication">
        <g id="Icons" stroke="none" stroke-width="1" fill-rule="evenodd" transform="translate(-30.000000, -455.000000)">
            <g id="[icon]-communication-(32px-@1x)" transform="translate(30.000000, 455.000000)">
                <path d="M19,22 C19,23.104 18.104,24 17,24 L12.671,24.006 L12.681,24 L9.027,24 L5.065,26.497 L5.035,24 L5,24 L3.056,24 L3,24 C1.896,24 2,23.104 2,22 L2,13 C2,11.896 2.896,11 4,11 L17,11 C18.104,11 19,11.896 19,13 L19,22 Z M17,9 C19.209,9 21,10.791 21,13 L21,22 C21,24.209 19.209,26 17,26 L14.25,26 L12.625,26 L9.48,26 L3.079,30 L3.026,26 L3,26 C0.791,26 0,24.209 0,22 L0,13 C0,10.791 1.791,9 4,9 L17,9 Z M15.7709,14 L5.2709,14.016 C4.5799,14.018 4.0099,14.464 3.9999,15.011 C3.9879,15.559 4.5379,16.002 5.2289,16 L15.7289,15.984 C16.4199,15.982 16.9899,15.536 16.9999,14.989 C17.0119,14.44 16.4619,13.998 15.7709,14 Z M15.7709,18 L5.2709,18.016 C4.5799,18.018 4.0099,18.464 3.9999,19.011 C3.9879,19.559 4.5379,20.002 5.2289,20 L15.7289,19.984 C16.4199,19.982 16.9899,19.536 16.9999,18.989 C17.0119,18.44 16.4619,17.998 15.7709,18 Z M28,0 C30.209,0 32,1.791 32,4 L32,13 C32,15.209 31.209,17 29,17 L28.974,17 L28.921,21 L23,17.3 L23,15.017 L26.935,17.497 L26.965,15 L27,15 L28.944,15 L29,15 C30.104,15 30,14.104 30,13 L30,4 C30,2.896 29.104,2 28,2 L15,2 C13.896,2 13,2.896 13,4 L13,7 L11,7 L11,4 C11,1.791 12.791,0 15,0 L28,0 Z" id="communication"></path>
            </g>
        </g>
    </symbol> 

    <symbol viewBox="0 0 32 16" id="dashboard">
        <path d="M25.349,3.043 C25.083,3.59 24.775,4.209 24.447,4.862 C27.308,7.038 29.303,10.284 29.841,14 L18.418,14 C18.815,13.193 19.398,12.035 19.716,11.341 C20.603,9.406 23.002,4.878 23.87,2.935 C23.979,2.692 23.993,2.369 23.943,2.103 C23.855,1.635 23.499,1.369 23.046,1.282 C22.514,1.18 22.121,1.431 21.823,1.855 C21.175,2.773 20.53,3.694 19.879,4.611 C18.904,5.986 16.418,9.951 15.45,11.332 C15.129,11.79 14.257,13.109 14.072,13.624 C14.026,13.749 13.997,13.875 13.979,14 L2.159,14 C3.135,7.227 8.961,2 16,2 C17.358,2 18.668,2.204 19.911,2.567 C20.314,1.997 20.716,1.426 21.118,0.855 C19.508,0.309 17.791,0 16,0 C7.177,0 0,7.178 0,16 L0.841,16 L2,16 L30,16 L31.287,16 L32,16 C32,10.669 29.369,5.952 25.349,3.043" id="dashboard"></path>
    </symbol>

    <symbol viewBox="0 0 32 30" id="folder">
        <g id="Icons" stroke="none" stroke-width="1" fill-rule="evenodd" transform="translate(-30.000000, -541.000000)">
            <g transform="translate(30.000000, 541.000000)" >
                <path d="M4.002,5.9999 L13,5.9999 L13,5.9999 L27.998,5.9999 C29.102,5.9999 29.997,6.8959 29.997,7.9999 L29.997,25.9999 C29.997,27.1039 29.102,27.9999 27.998,27.9999 L21,27.9999 L21,27.9999 L4.002,27.9999 C2.898,27.9999 2.003,27.1039 2.003,25.9999 L2.003,7.9999 C2.003,6.8959 2.898,5.9999 4.002,5.9999 L4.002,5.9999 Z M0.0002,7.95948364 L0.0002,4 C0.0002,1.792 1.7912,0.001 3.9992,0.001 L7.8682,0.001 L7.8672,0 L10.4772,0 L14.4771,3.9999 L27.995,3.9999 L27.996,3.9999 L28,3.9999 C30.209,3.9999 32,5.7909 32,7.9999 L32,25.9999 C32,28.2089 30.209,29.9999 28,29.9999 L4.005,29.9999 L4.004,29.9999 L4,29.9999 C1.791,29.9999 0,28.2089 0,25.9999 L0,7.9999 C0,7.98641219 6.67708467e-05,7.97293997 0.000199999999,7.95948364 Z M1.9992,4.53555785 C2.58774113,4.19489398 3.27111583,3.9999 4,3.9999 L11.8671,3.9999 L9.8682,2.001 L3.9992,2.001 C2.8952,2.001 1.9992,2.896 1.9992,4 L1.9992,4.53555785 Z" id="folder"></path>
            </g>
        </g>
    </symbol>

    <symbol viewBox="0 0 32 30" id="form-fail">
        <g id="Icons" stroke="none" stroke-width="1" fill-rule="evenodd" transform="translate(-30.000000, -591.000000)">
            <g id="[icon]-form-fail-(32px-@1x)" transform="translate(30.000000, 591.000000)">
                <path d="M6.4581772,13.650817 L5.3798,14.7379988 C4.8928,15.2279988 4.5368,15.6499988 4.1568,15.2529988 C3.7778,14.8599988 4.2268,14.5029988 4.7138,14.0129988 L5.75998143,12.9582756 L4.6728,11.8798988 C4.1818,11.3928988 3.7608,11.0368988 4.1568,10.6578988 C4.5508,10.2778988 4.9078,10.7268988 5.3978,11.2138988 L6.4525228,12.2600798 L7.5308,11.1729988 C8.0178,10.6819988 8.3738,10.2609988 8.7528,10.6569988 C9.1328,11.0509988 8.6838,11.4079988 8.1968,11.8979988 L7.15071856,12.9526212 L8.2378,14.0308988 C8.7278,14.5178988 9.1498,14.8738988 8.7528,15.2538988 C8.3598,15.6328988 8.0028,15.1838988 7.5128,14.6968988 L6.4581772,13.650817 Z M6.4581772,19.650817 L5.3798,20.7379988 C4.8928,21.2279988 4.5368,21.6499988 4.1568,21.2529988 C3.7778,20.8599988 4.2268,20.5029988 4.7138,20.0129988 L5.75998143,18.9582756 L4.6728,17.8798988 C4.1818,17.3928988 3.7608,17.0368988 4.1568,16.6578988 C4.5508,16.2778988 4.9078,16.7268988 5.3978,17.2138988 L6.4525228,18.2600798 L7.5308,17.1729988 C8.0178,16.6819988 8.3738,16.2609988 8.7528,16.6569988 C9.1328,17.0509988 8.6838,17.4079988 8.1968,17.8979988 L7.15071856,18.9526212 L8.2378,20.0308988 C8.7278,20.5178988 9.1498,20.8738988 8.7528,21.2538988 C8.3598,21.6328988 8.0028,21.1838988 7.5128,20.6968988 L6.4581772,19.650817 Z M6.4581772,25.650817 L5.3798,26.7379988 C4.8928,27.2279988 4.5368,27.6499988 4.1568,27.2529988 C3.7778,26.8599988 4.2268,26.5029988 4.7138,26.0129988 L5.75998143,24.9582756 L4.6728,23.8798988 C4.1818,23.3928988 3.7608,23.0368988 4.1568,22.6578988 C4.5508,22.2778988 4.9078,22.7268988 5.3978,23.2138988 L6.4525228,24.2600798 L7.5308,23.1729988 C8.0178,22.6819988 8.3738,22.2609988 8.7528,22.6569988 C9.1328,23.0509988 8.6838,23.4079988 8.1968,23.8979988 L7.15071856,24.9526212 L8.2378,26.0308988 C8.7278,26.5178988 9.1498,26.8738988 8.7528,27.2538988 C8.3598,27.6328988 8.0028,27.1838988 7.5128,26.6968988 L6.4581772,25.650817 Z M16,0.00539880043 C17.338,-0.0156011996 17.872,0.0333988004 18,0.00539880043 L26,8.0043988 L26,28.0003988 C26,30.2093988 24.209,32.0003988 22,32.0003988 L4,32.0003988 C1.791,32.0003988 0,30.2093988 0,28.0003988 L0,4.0043988 C0,1.7963988 1.791,0.00539880043 4,0.00539880043 L16,0.00539880043 Z M24,27.9983988 L24,10.0013988 L20,10.0013988 C17.791,10.0013988 16,8.2103988 16,6.0023988 C16,6.0023988 15.954,4.3973988 15.972,2.0023988 L4,2.0023988 C2.896,2.0023988 2,2.8983988 2,4.0023988 L2,27.9983988 C2,29.1023988 2.896,29.9973988 4,29.9973988 L22,29.9973988 C23.104,29.9973988 24,29.1023988 24,27.9983988 Z M18,2.0023988 L18,6.0023988 C18,7.1053988 18.896,8.0013988 20,8.0013988 L24,8.0013988 L18,2.0023988 Z M12.271,24.0162988 L20.771,24.0002988 C21.462,23.9982988 22.012,24.4402988 22,24.9892988 C21.99,25.5362988 21.42,25.9812988 20.729,25.9832988 L12.229,26.0002988 C11.538,26.0022988 10.988,25.5592988 11,25.0112988 C11.01,24.4642988 11.58,24.0182988 12.271,24.0162988 Z M12.271,18.0162988 L20.771,18.0002988 C21.462,17.9982988 22.012,18.4402988 22,18.9892988 C21.99,19.5362988 21.42,19.9812988 20.729,19.9832988 L12.229,20.0002988 C11.538,20.0022988 10.988,19.5592988 11,19.0112988 C11.01,18.4642988 11.58,18.0182988 12.271,18.0162988 Z M12.271,12.0162988 L20.771,12.0002988 C21.462,11.9982988 22.012,12.4402988 22,12.9892988 C21.99,13.5362988 21.42,13.9812988 20.729,13.9832988 L12.229,14.0002988 C11.538,14.0022988 10.988,13.5592988 11,13.0112988 C11.01,12.4642988 11.58,12.0182988 12.271,12.0162988 Z" id="form-fail"></path>
            </g>
        </g>
    </symbol>

    <symbol viewBox="0 0 32 30" id="form-pass">
        <g id="Icons" stroke="none" stroke-width="1" fill-rule="evenodd" transform="translate(-30.000000, -643.000000)">
            <g id="[icon]-form-pass-(32px-@1x)" transform="translate(30.000000, 643.000000)">
                <path d="M16,0.00539880043 C17.338,-0.0156011996 17.872,0.0333988004 18,0.00539880043 L26,8.0043988 L26,28.0003988 C26,30.2093988 24.209,32.0003988 22,32.0003988 L4,32.0003988 C1.791,32.0003988 0,30.2093988 0,28.0003988 L0,4.0043988 C0,1.7963988 1.791,0.00539880043 4,0.00539880043 L16,0.00539880043 Z M24,27.9983988 L24,10.0013988 L20,10.0013988 C17.791,10.0013988 16,8.2103988 16,6.0023988 C16,6.0023988 15.954,4.3973988 15.972,2.0023988 L4,2.0023988 C2.896,2.0023988 2,2.8983988 2,4.0023988 L2,27.9983988 C2,29.1023988 2.896,29.9973988 4,29.9973988 L22,29.9973988 C23.104,29.9973988 24,29.1023988 24,27.9983988 Z M18,2.0023988 L18,6.0023988 C18,7.1053988 18.896,8.0013988 20,8.0013988 L24,8.0013988 L18,2.0023988 Z M12.271,24.0162988 L20.771,24.0002988 C21.462,23.9982988 22.012,24.4402988 22,24.9892988 C21.99,25.5362988 21.42,25.9812988 20.729,25.9832988 L12.229,26.0002988 C11.538,26.0022988 10.988,25.5592988 11,25.0112988 C11.01,24.4642988 11.58,24.0182988 12.271,24.0162988 Z M12.271,18.0162988 L20.771,18.0002988 C21.462,17.9982988 22.012,18.4402988 22,18.9892988 C21.99,19.5362988 21.42,19.9812988 20.729,19.9832988 L12.229,20.0002988 C11.538,20.0022988 10.988,19.5592988 11,19.0112988 C11.01,18.4642988 11.58,18.0182988 12.271,18.0162988 Z M12.271,12.0162988 L20.771,12.0002988 C21.462,11.9982988 22.012,12.4402988 22,12.9892988 C21.99,13.5362988 21.42,13.9812988 20.729,13.9832988 L12.229,14.0002988 C11.538,14.0022988 10.988,13.5592988 11,13.0112988 C11.01,12.4642988 11.58,12.0182988 12.271,12.0162988 Z M5.0897,12.5098988 L5.6537,13.0848988 L7.9107,10.7848988 C8.1597,10.5298988 8.5637,10.5298988 8.8127,10.7848988 C9.0627,11.0378988 9.0627,11.4498988 8.8127,11.7048988 L6.1047,14.4658988 C5.8557,14.7208988 5.4517,14.7208988 5.2027,14.4658988 L4.1867,13.4298988 C3.9377,13.1768988 3.9377,12.7648988 4.1867,12.5098988 C4.4357,12.2568988 4.8407,12.2568988 5.0897,12.5098988 Z M5.0897,18.9161988 L5.6537,19.4911988 L7.9107,17.1911988 C8.1597,16.9361988 8.5637,16.9361988 8.8127,17.1911988 C9.0627,17.4441988 9.0627,17.8561988 8.8127,18.1111988 L6.1047,20.8731988 C5.8557,21.1271988 5.4517,21.1271988 5.2027,20.8731988 L4.1867,19.8361988 C3.9377,19.5831988 3.9377,19.1711988 4.1867,18.9161988 C4.4357,18.6631988 4.8407,18.6631988 5.0897,18.9161988 Z M5.0897,24.9161988 L5.6537,25.4911988 L7.9107,23.1911988 C8.1597,22.9361988 8.5637,22.9361988 8.8127,23.1911988 C9.0627,23.4441988 9.0627,23.8561988 8.8127,24.1111988 L6.1047,26.8731988 C5.8557,27.1271988 5.4517,27.1271988 5.2027,26.8731988 L4.1867,25.8361988 C3.9377,25.5831988 3.9377,25.1711988 4.1867,24.9161988 C4.4357,24.6631988 4.8407,24.6631988 5.0897,24.9161988 Z" id="form-pass"></path>
            </g>
        </g>
    </symbol>

    <symbol viewBox="0 0 32 32" id="help">
        <g id="Icons" stroke="none" stroke-width="1" fill-rule="evenodd" transform="translate(-30.000000, -695.000000)">
            <g id="[icon]-help-(32px-@1x)" transform="translate(30.000000, 695.000000)">
                <path d="M16,32 C7.178,32 0,24.822 0,16 C0,7.178 7.178,0 16,0 C24.822,0 32,7.178 32,16 C32,24.822 24.822,32 16,32 Z M16,2 C8.28,2 2,8.28 2,16 C2,23.72 8.28,30 16,30 C23.72,30 30,23.72 30,16 C30,8.28 23.72,2 16,2 Z M17,24.7778 L15.016,24.7778 L15,22.7778 L17,22.7778 L17,24.7778 Z M19.55,15.428 L18.457,16.521 C17.486,17.371 17,18.957 17,20.778 L15,20.778 L15.016,19.314 C15.016,17.978 15.502,16.764 16.473,15.914 L17.931,14.335 C18.416,13.971 18.659,13.364 18.659,12.635 C18.659,11.299 17.166,10.207 15.83,10.207 C14.494,10.207 13,11.442 13,12.778 L11,12.778 C11,10.106 13.159,8 15.83,8 C18.501,8 20.643,9.964 20.643,12.635 C20.643,13.728 20.157,14.699 19.55,15.428 Z" id="help"></path>
            </g>
        </g>
    </symbol>

    <symbol viewBox="0 0 32 32" id="important">
        <g id="Icons" stroke="none" stroke-width="1" fill-rule="evenodd" transform="translate(-30.000000, -747.000000)">
            <g id="[icon]-important-(32px-@1x)" transform="translate(30.000000, 747.000000)">
                <path d="M32,16 C32,24.822 24.822,32 16,32 C7.178,32 0,24.822 0,16 C0,7.178 7.178,0 16,0 C24.822,0 32,7.178 32,16 Z M30,16 C30,8.28 23.72,2 16,2 C8.28,2 2,8.28 2,16 C2,23.72 8.28,30 16,30 C23.72,30 30,23.72 30,16 Z M15,22.5 C15,21.948 15.448,21.5 16,21.5 C16.552,21.5 17,21.948 17,22.5 C17,23.052 16.552,23.5 16,23.5 C15.448,23.5 15,23.052 15,22.5 Z M15.0163,9.7707 C15.0183,9.0797 15.4643,8.5097 16.0113,8.4997 C16.5593,8.4877 17.0023,9.0377 17.0003,9.7287 L16.9833,19.2287 C16.9813,19.9197 16.5363,20.4897 15.9893,20.4997 C15.4403,20.5117 14.9983,19.9617 15.0003,19.2707 L15.0163,9.7707 Z" id="important"></path>
            </g>
        </g>
    </symbol>

    <symbol viewBox="0 0 24 32" id="map-marker">
        <g id="Icons" stroke="none" stroke-width="1" fill-rule="evenodd" transform="translate(-30.000000, -799.000000)">
            <g id="[icon]-map-marker-(32px-@1x)" transform="translate(30.000000, 799.000000)">
                <path d="M22,11.9999977 C22,16.124997 13.637,29.0089945 12,28.9999945 C10.337,29.0089945 2,16.1809969 2,11.9999977 C2,6.47799878 6.477,1.99999962 12,1.99999962 C17.523,1.99999962 22,6.47799878 22,11.9999977 M0,11.9999977 C0,5.37299898 5.373,0 12,0 C18.627,0 24,5.37299898 24,11.9999977 C24,16.9499968 13.964,32.0109939 12,31.999994 C10.005,32.0109939 0,17.0179968 0,11.9999977 Z M6.9999,11.9999977 C6.9999,14.7619972 9.2389,16.9999968 11.9999,16.9999968 C14.7609,16.9999968 16.9999,14.7619972 16.9999,11.9999977 C16.9999,9.23799825 14.7609,6.99999868 11.9999,6.99999868 C9.2389,6.99999868 6.9999,9.23799825 6.9999,11.9999977 Z M14.9999,11.9999977 C14.9999,13.6569974 13.6569,14.9999972 11.9999,14.9999972 C10.3429,14.9999972 8.9999,13.6569974 8.9999,11.9999977 C8.9999,10.342998 10.3429,8.9999983 11.9999,8.9999983 C13.6569,8.9999983 14.9999,10.342998 14.9999,11.9999977 Z" id="Combined-Shape"></path>
            </g>
        </g>
    </symbol>

    <symbol viewBox="0 0 28 32" id="notification">
        <g id="Icons" stroke="none" stroke-width="1" fill-rule="evenodd" transform="translate(-30.000000, -851.000000)">
            <g id="[icon]-notification-(32px-@1x)" transform="translate(30.000000, 851.000000)" >
                <path d="M3,26.0001927 L6,20.0001927 L6,12.0001927 C6,7.58219269 9.582,4.00019269 14,4.00019269 C18.418,4.00019269 22,7.58219269 22,12.0001927 L22,20.0001927 L25,26.0001927 L3,26.0001927 Z M14,30.0001927 C12.695,30.0001927 11.597,29.1631927 11.184,28.0001927 L16.816,28.0001927 C16.403,29.1631927 15.305,30.0001927 14,30.0001927 L14,30.0001927 Z M13.0078628,2.04881256 L13.0074,1.22919269 C13.0054,0.538192686 13.4484,-0.0118073138 13.9964,0.000192686219 C14.5434,0.0101926862 14.9894,0.580192686 14.9914,1.27119269 L14.9918497,2.04878424 C20.0484014,2.54688182 24,6.81289981 24,12.0001927 L24,20.0001927 L28,28.0001927 L18.899,28.0001927 C18.436,30.2821927 16.419,32.0001927 14,32.0001927 C11.581,32.0001927 9.564,30.2821927 9.101,28.0001927 L0,28.0001927 L4,20.0001927 L4,12.0001927 C4,6.81299811 7.95144883,2.5470435 13.0078628,2.04881256 Z" id="notification"></path>
            </g>
        </g>
    </symbol>

    <symbol viewBox="0 0 26 32" id="paper-many">
        <g id="Icons" stroke="none" stroke-width="1" fill-rule="evenodd" transform="translate(-30.000000, -955.000000)">
            <g id="[icon]-paper-many-(32px-@1x)" transform="translate(30.000000, 955.000000)">
                <path d="M17.997,29.9814 L4,29.9814 C2.896,29.9814 2.001,29.0854 2.001,27.9814 L2.001,16.2714 L1.999,16.2714 L1.999,7.9804 C1.999,6.8764 2.895,5.9804 3.999,5.9804 L17.996,5.9804 C19.1,5.9804 19.996,6.8764 19.996,7.9804 L19.996,19.9814 L19.997,19.9814 L19.997,27.9814 C19.997,29.0854 19.101,29.9814 17.997,29.9814 L17.997,29.9814 Z M21.995,16.2714 L21.996,16.2714 L21.996,27.9814 C21.996,30.1904 20.206,31.9814 17.997,31.9814 L4,31.9814 C1.791,31.9814 0.001,30.1904 0.001,27.9814 L0.001,19.9814 L0,19.9814 L0,7.9804 C0,5.7714 1.79,3.9814 3.999,3.9814 L17.996,3.9814 C20.205,3.9814 21.995,5.7714 21.995,7.9804 L21.995,16.2714 Z M25.9972,11.291 L25.9982,11.291 L25.9982,23.001 C25.9982,24.863 24.7192,26.415 22.9962,26.86 L22.9962,24.725 C23.5932,24.378 23.9982,23.74 23.9982,23.001 L23.9982,15 L23.9972,15 L23.9972,4 C23.9972,2.896 23.1012,2 21.9982,2 L9.0012,2 C8.2632,2 7.6252,2.405 7.2782,3 L5.1432,3 C5.5882,1.279 7.1392,0 9.0012,0 L21.9982,0 C24.2062,0 25.9972,1.791 25.9972,4 L25.9972,11.291 Z" id="paper-many"></path>
            </g>
        </g>
    </symbol>

    <symbol viewBox="0 0 26 32" id="paper-many2">
        <g id="Icons" stroke="none" stroke-width="1" fill-rule="evenodd" transform="translate(-30.000000, -903.000000)">
            <g id="[icon]-paper-many-(32px-@1x)" transform="translate(30.000000, 903.000000)" >
                <path d="M17.996,28.0013988 C17.996,29.1043988 17.1,30.0003988 15.996,30.0003988 L3.999,30.0003988 C2.896,30.0003988 2,29.1043988 2,28.0013988 L2,10.0053988 C2,8.9013988 2.896,8.0053988 3.999,8.0053988 L9.969,8.0053988 C9.951,10.4003988 9.997,12.0043988 9.997,12.0043988 C9.997,14.2133988 11.788,16.0043988 13.997,16.0043988 L17.996,16.0043988 L17.996,28.0013988 Z M9.997,6.0053988 C11.335,5.9843988 11.869,6.0333988 11.997,6.0053988 L19.996,14.0043988 L19.996,28.0013988 C19.996,30.2093988 18.205,32.0003988 15.996,32.0003988 L3.999,32.0003988 C1.791,32.0003988 0,30.2093988 0,28.0013988 L0,10.0053988 C0,7.7963988 1.791,6.0053988 3.999,6.0053988 L9.997,6.0053988 Z M17.9969,0.00539880043 L25.9959,8.0043988 L25.9959,22.0013988 C25.9959,24.2093988 24.2049,26.0003988 21.9969,26.0003988 L20.9999,26.0003988 L20.9999,24.0003988 L21.9969,24.0003988 C23.0999,24.0003988 23.9959,23.1043988 23.9959,22.0013988 L23.9959,10.0043988 L19.9969,10.0043988 C17.7879,10.0043988 15.9979,8.2133988 15.9979,6.0043988 C15.9979,6.0043988 15.9519,4.4003988 15.9699,2.0053988 L9.9999,2.0053988 C8.8959,2.0053988 7.9999,2.9003988 7.9999,4.0043988 L7.9999,5.0003988 L5.9999,5.0003988 L5.9999,4.0043988 C5.9999,1.7963988 7.7909,0.00539880043 9.9999,0.00539880043 L15.9979,0.00539880043 C17.3349,-0.0156011996 17.8689,0.0333988004 17.9969,0.00539880043 Z M19.9969,8.0043988 L23.9959,8.0043988 L17.9969,2.0053988 L17.9969,6.0043988 C17.9969,7.1083988 18.8929,8.0043988 19.9969,8.0043988 Z M11.997,8.0053988 L11.997,12.0043988 C11.997,13.1083988 12.893,14.0043988 13.997,14.0043988 L17.996,14.0043988 L11.997,8.0053988 Z" id="paper-with-fold-many"></path>
            </g>
        </g>
    </symbol>

    <symbol viewBox="0 0 32 31" id="people">
        <g id="Icons" stroke="none" stroke-width="1" fill-rule="evenodd" transform="translate(-30.000000, -1007.000000)">
            <g id="[icon]-people-(32px-@1x)" transform="translate(30.000000, 1007.000000)">
                <path d="M1.966,28.6816 C2.453,23.2986 6.992,19.0656 12.5,19.0656 C18.008,19.0656 22.546,23.2986 23.034,28.6816 L1.966,28.6816 Z M7.857,12.4996 C7.857,9.9406 9.94,7.8576 12.5,7.8576 C15.06,7.8576 17.143,9.9406 17.143,12.4996 C17.143,15.0596 15.06,17.1426 12.5,17.1426 C9.94,17.1426 7.857,15.0596 7.857,12.4996 L7.857,12.4996 Z M16.322,17.7456 C21.35,19.3656 25,24.0836 25,29.6426 L25,30.6046 L0,30.6046 L0,29.6426 C0,24.0836 3.65,19.3656 8.678,17.7456 C7.058,16.5626 6,14.6546 6,12.4996 C6,8.9156 8.916,5.9996 12.5,5.9996 C16.083,5.9996 19,8.9156 19,12.4996 C19,14.6546 17.941,16.5626 16.322,17.7456 Z M23.3218,11.746 C28.3498,13.365 31.9998,18.083 31.9998,23.643 L31.9998,24.604 L25.9298,24.604 C25.6328,23.932 25.2828,23.286 24.8758,22.682 L30.0338,22.682 C29.5748,17.618 25.5318,13.575 20.4688,13.112 C20.4838,12.91 20.4998,12.707 20.4998,12.5 C20.4998,12.006 20.4488,11.525 20.3628,11.056 C22.5108,10.649 24.1428,8.765 24.1428,6.5 C24.1428,3.94 22.0598,1.857 19.4998,1.857 C17.4828,1.857 15.7798,3.158 15.1408,4.957 C14.5548,4.751 13.9418,4.605 13.3028,4.541 C14.1368,1.912 16.5988,0 19.4998,0 C23.0838,0 25.9998,2.916 25.9998,6.5 C25.9998,8.655 24.9418,10.562 23.3218,11.746 Z" id="people"></path>
            </g>
        </g>
    </symbol>

    <symbol viewBox="0 0 26 32" id="plan-check-in-square">
        <g id="Icons" stroke="none" stroke-width="1" fill-rule="evenodd" transform="translate(-30.000000, -1058.000000)">
            <g id="[icon]-plan-check-in-square-(32px-@1x)" transform="translate(30.000000, 1058.000000)">
                <path d="M16,0.00539880043 C17.338,-0.0156011996 17.872,0.0333988004 18,0.00539880043 L26,8.0043988 L26,28.0003988 C26,30.2093988 24.209,32.0003988 22,32.0003988 L4,32.0003988 C1.791,32.0003988 0,30.2093988 0,28.0003988 L0,4.0043988 C0,1.7963988 1.791,0.00539880043 4,0.00539880043 L16,0.00539880043 Z M24,27.9983988 L24,10.0013988 L20,10.0013988 C17.791,10.0013988 16,8.2103988 16,6.0023988 C16,6.0023988 15.954,4.3973988 15.972,2.0023988 L4,2.0023988 C2.896,2.0023988 2,2.8983988 2,4.0023988 L2,27.9983988 C2,29.1023988 2.896,29.9973988 4,29.9973988 L22,29.9973988 C23.104,29.9973988 24,29.1023988 24,27.9983988 Z M11.4613,15.7918988 L12.4763,16.8268988 L16.5383,12.6868988 C16.9873,12.2278988 17.7143,12.2278988 18.1633,12.6868988 C18.6123,13.1418988 18.6123,13.8848988 18.1633,14.3428988 L13.2893,19.3138988 C12.8403,19.7718988 12.1133,19.7718988 11.6643,19.3138988 L9.8363,17.4488988 C9.3873,16.9928988 9.3873,16.2498988 9.8363,15.7918988 C10.2853,15.3358988 11.0123,15.3358988 11.4613,15.7918988 Z M18.5286,21.0062988 L18.5286,17.0492988 L20.4936,17.0492988 L20.4936,21.0062988 C20.4936,23.0162988 19.5506,24.0122988 17.5446,24.0122988 L8.5716,24.0122988 C6.5246,24.0122988 5.4996,22.9912988 5.4996,21.0062988 L5.4996,13.0172988 C5.4996,11.0462988 6.5396,9.9952988 8.5716,9.9952988 L13.4216,9.9952988 L13.4216,11.9432988 L8.5716,11.9432988 C8.5716,11.9432988 7.5376,11.9432988 7.5376,13.0172988 L7.5376,21.0062988 C7.5376,22.0002988 8.5716,22.0002988 8.5716,22.0002988 L17.5446,22.0002988 C17.5446,22.0002988 18.5286,22.0002988 18.5286,21.0062988 Z M18,2.0023988 L18,6.0023988 C18,7.1053988 18.896,8.0013988 20,8.0013988 L24,8.0013988 L18,2.0023988 Z" id="plan-check-in-square"></path>
            </g>
        </g>
    </symbol>

    <symbol viewBox="0 0 26 32" id="questionnaire">
        <g id="Icons" stroke="none" stroke-width="1" fill-rule="evenodd" transform="translate(-30.000000, -1110.000000)">
            <g id="[icon]-questionnaire-(32px-@1x)" transform="translate(30.000000, 1110.000000)">
                <path d="M18,2.00237385 L24,8.00129908 L20,8.00129908 C18.896,8.00129908 18,7.10531025 18,6.002324 L18,2.00237385 Z M24,27.9980499 C24,29.1020361 23.104,29.997025 22,29.997025 L4,29.997025 C2.896,29.997025 2,29.1020361 2,27.9980499 L2,4.00234892 C2,2.89836268 2.896,2.00237385 4,2.00237385 L15.972,2.00237385 C15.954,4.397344 16,6.002324 16,6.002324 C16,8.21029648 17.791,10.0012742 20,10.0012742 L24,10.0012742 L24,27.9980499 Z M16,0.00539873315 C17.338,-0.0156010051 17.872,0.0333983842 18,0.00539873315 L26,8.00429905 L26,28.0000498 C26,30.2090223 24.209,32 22,32 L4,32 C1.791,32 0,30.2090223 0,28.0000498 L0,4.0043489 C0,1.79637641 1.791,0.00539873315 4,0.00539873315 L16,0.00539873315 Z M7.8667,13.9662247 C7.8027,13.9992243 7.7407,14.0002243 7.7407,14.0002243 L5.2827,14.0002243 C5.2827,14.0002243 4.9997,14.0002243 4.9997,13.702228 L4.9997,11.3092579 C4.9997,11.2002592 5.0337,11.1302601 5.0767,11.0822607 C5.1507,11.0272614 5.2377,11.0242614 5.2377,11.0242614 L7.6947,11.0002617 C7.6947,11.0002617 7.9777,10.9972617 7.9797,11.295258 L7.9997,13.6882282 C8.0017,13.8442263 7.9347,13.9242253 7.8667,13.9662247 Z M8.9687,11.0522611 C8.9627,10.3462699 8.6197,9.98627435 7.9407,9.99327426 L6.6337,10.0062741 L6.6337,10.0002742 L5.0247,10.0002742 C4.8357,10.0002742 4.6757,10.0332738 4.5397,10.0902731 C4.1657,10.2252714 3.9887,10.5602672 3.9927,11.1002605 L4.0047,12.5072429 L4.0047,13.9162254 C4.0047,14.6222166 4.3447,14.985212 5.0247,14.985212 L6.3737,14.985212 L6.3737,14.9932119 L7.1727,14.985212 L8.0017,14.985212 C8.5027,14.985212 8.8037,14.7842146 8.9227,14.3802196 C8.9697,14.2402213 8.9947,14.0792233 8.9927,13.8922257 L8.9687,11.0522611 Z M7.8667,19.96615 C7.8027,19.9991496 7.7407,20.0001495 7.7407,20.0001495 L5.2827,20.0001495 C5.2827,20.0001495 4.9997,20.0001495 4.9997,19.7021533 L4.9997,17.3091831 C4.9997,17.2001844 5.0337,17.1301853 5.0767,17.0821859 C5.1507,17.0271866 5.2377,17.0241866 5.2377,17.0241866 L7.6947,17.0001869 C7.6947,17.0001869 7.9777,16.997187 7.9797,17.2951833 L7.9997,19.6881534 C8.0017,19.8441515 7.9347,19.9241505 7.8667,19.96615 Z M8.9757,17.0521863 C8.9697,16.3461951 8.6267,15.9861996 7.9477,15.9931995 L6.6407,16.0061993 L6.6407,16.0001994 L5.0317,16.0001994 C4.8427,16.0001994 4.6827,16.033199 4.5467,16.0901983 C4.1727,16.2251966 3.9957,16.5601924 3.9997,17.1001857 L4.0117,18.5071682 L4.0117,19.9161506 C4.0117,20.6221418 4.3517,20.9851373 5.0317,20.9851373 L6.3807,20.9851373 L6.3807,20.9931372 L7.1797,20.9851373 L8.0087,20.9851373 C8.5097,20.9851373 8.8107,20.7841398 8.9297,20.3801448 C8.9767,20.2401466 9.0017,20.0791486 8.9997,19.8921509 L8.9757,17.0521863 Z M7.8667,25.9660752 C7.8027,25.9990748 7.7407,26.0000748 7.7407,26.0000748 L5.2827,26.0000748 C5.2827,26.0000748 4.9997,26.0000748 4.9997,25.7020785 L4.9997,23.3091083 C4.9997,23.2001097 5.0337,23.1301105 5.0767,23.0821111 C5.1507,23.0271118 5.2377,23.0241119 5.2377,23.0241119 L7.6947,23.0001122 C7.6947,23.0001122 7.9777,22.9971122 7.9797,23.2951085 L7.9997,25.6880787 C8.0017,25.8440767 7.9347,25.9240757 7.8667,25.9660752 Z M8.9757,23.0591114 C8.9697,22.3531202 8.6267,21.9931247 7.9477,22.0001246 L6.6407,22.0121245 L6.6407,22.0071245 L5.0317,22.0071245 C4.8427,22.0071245 4.6827,22.0401241 4.5467,22.0971234 C4.1727,22.2321217 3.9957,22.5671176 3.9997,23.1071108 L4.0117,24.5140933 L4.0117,25.9230757 C4.0117,26.6290669 4.3517,26.9920624 5.0317,26.9920624 L6.3807,26.9920624 L6.3807,26.9990623 L7.1797,26.9920624 L8.0087,26.9920624 C8.5097,26.9920624 8.8107,26.7910649 8.9297,26.38707 C8.9767,26.2470717 9.0017,26.0850737 8.9997,25.899076 L8.9757,23.0591114 Z M12.271,24.0159995 C11.58,24.0179995 11.01,24.4639939 11,25.0109871 C10.988,25.5589803 11.538,26.0019748 12.229,25.9999748 L20.729,25.982975 C21.42,25.980975 21.99,25.5359806 22,24.9889874 C22.012,24.4399942 21.462,23.9979997 20.771,23.9999997 L12.271,24.0159995 Z M12.271,18.0160743 C11.58,18.0180742 11.01,18.4640687 11,19.0110619 C10.988,19.559055 11.538,20.0020495 12.229,20.0000495 L20.729,19.9830498 C21.42,19.9810498 21.99,19.5360553 22,18.9890621 C22.012,18.440069 21.462,17.9980745 20.771,18.0000745 L12.271,18.0160743 Z M12.271,12.016149 C11.58,12.018149 11.01,12.4641435 11,13.0111366 C10.988,13.5591298 11.538,14.0021243 12.229,14.0001243 L20.729,13.9831245 C21.42,13.9811246 21.99,13.5361301 22,12.9891369 C22.012,12.4401438 21.462,11.9981493 20.771,12.0001492 L12.271,12.016149 Z" id="questionnaire-icon"></path>
            </g>
        </g>
    </symbol>

    <symbol viewBox="0 0 31 25" id="referral">
        <g id="Icons" stroke="none" stroke-width="1" fill-rule="evenodd" transform="translate(-30.000000, -1162.000000)">
            <g id="[icon]-referral-(32px-@1x)" transform="translate(30.000000, 1162.000000)">
                <path d="M25.4422,16.1816 C25.4422,16.1816 25.4542,17.3236 25.4462,17.5616 C25.3792,19.7536 23.4972,21.4256 21.9212,22.1886 C22.8782,20.8606 23.6622,19.0446 23.6622,17.5776 L23.6522,15.6766 L21.9492,15.6766 L24.5552,13.3006 L27.1612,15.6766 L25.4372,15.6766 L25.4422,16.1816 Z M30.3452,15.9606 C30.7202,16.3376 30.7212,16.9526 30.3452,17.3306 C30.1392,17.5376 29.8532,17.6356 29.5502,17.6026 L27.3542,17.6056 C27.0962,21.4916 23.8532,24.5736 19.9032,24.5736 C18.8742,24.5736 17.8732,24.3656 16.9282,23.9536 L15.4402,23.3066 L17.0352,23.0046 C19.5562,22.5266 21.4952,20.2546 21.7132,17.6126 L19.5012,17.6056 C19.2662,17.6406 18.9692,17.5376 18.7642,17.3306 L18.7062,17.2666 C18.5552,17.0926 18.4732,16.8726 18.4732,16.6406 C18.4732,16.3566 18.6032,16.0866 18.8302,15.9006 L23.8642,11.3086 C24.0402,11.1316 24.3002,11.0336 24.5802,11.0456 C24.8122,11.0366 25.0722,11.1346 25.2632,11.3256 L30.3452,15.9606 Z M12.5,13.066 C6.992,13.066 2.453,17.298 1.966,22.682 L14,22.682 L14,24.604 L0,24.604 L0,23.643 C0,18.083 3.65,13.365 8.678,11.746 C7.058,10.562 6,8.655 6,6.5 C6,2.916 8.916,0 12.5,0 C16.084,0 19,2.916 19,6.5 C19,8.655 17.941,10.562 16.322,11.746 C17.517,12.131 18.621,12.708 19.628,13.413 L18.18,14.734 C16.538,13.682 14.591,13.066 12.5,13.066 Z M12.5,1.857 C9.94,1.857 7.857,3.94 7.857,6.5 C7.857,9.06 9.94,11.143 12.5,11.143 C15.06,11.143 17.143,9.06 17.143,6.5 C17.143,3.94 15.06,1.857 12.5,1.857 Z" id="referral-single"></path>
            </g>
        </g>
    </symbol>

    <symbol viewBox="0 0 32 32" id="referrals">
        <g id="Icons" stroke="none" stroke-width="1" fill-rule="evenodd" transform="translate(-30.000000, -1207.000000)">
            <g id="[icon]-referrals-(32px-@1x)" transform="translate(30.000000, 1207.000000)">
                <path d="M23.423124,27.4395831 C23.423124,27.4395831 24.3056602,26.7147122 24.4828365,26.5556004 C26.1189391,25.0952849 26.1900392,22.5788484 25.7614978,20.8811154 C25.3593385,22.4678419 24.4721473,24.235723 23.3483601,25.1786925 L21.8856817,26.3929713 L20.7910144,25.0883976 L20.6459974,28.6119728 L24.1412235,29.0810212 L23.0330576,27.7603606 L23.423124,27.4395831 Z M26.3173365,31.5984812 L19.5000739,30.6847639 C19.2309869,30.6612218 18.9887898,30.5250435 18.8465575,30.3415361 C18.6573844,30.1347571 18.565332,29.8725923 18.5877912,29.6239951 L18.8696745,22.8160467 C18.866246,22.5225961 18.9895156,22.2494577 19.2070722,22.066906 C19.3847945,21.9177793 19.6060329,21.8391816 19.8363855,21.8430093 L19.9226941,21.8463015 C20.2130367,21.8702835 20.4828472,22.0315916 20.6070908,22.2341096 L22.0342993,23.9241004 C23.918061,22.0588579 24.4121488,19.1130842 23.1578505,16.8746337 L22.3639496,15.458671 L23.8160484,16.1826615 C24.739093,16.641745 25.5418606,17.2748557 26.2032891,18.0631154 C28.7423001,21.088991 28.4659114,25.5543445 25.6549019,28.2498566 L27.0641653,29.9340186 C27.2842094,30.1449181 27.3929743,30.427 27.3668174,30.7178622 C27.3189407,31.2488686 26.8471806,31.6434169 26.3173365,31.5984812 Z M12.5,19.066 C6.992,19.066 2.453,23.298 1.966,28.681 L14,28.681 L14,30.604 L0,30.604 L0,29.643 C0,24.083 3.65,19.365 8.678,17.746 C7.058,16.562 6,14.655 6,12.5 C6,8.916 8.916,6 12.5,6 C16.084,6 19,8.916 19,12.5 C19,14.655 17.941,16.562 16.322,17.746 C17.517,18.13 18.621,18.707 19.628,19.412 L18.18,20.734 C16.538,19.681 14.591,19.066 12.5,19.066 Z M7.857,12.5 C7.857,15.06 9.94,17.143 12.5,17.143 C15.06,17.143 17.143,15.06 17.143,12.5 C17.143,9.94 15.06,7.857 12.5,7.857 C9.94,7.857 7.857,9.94 7.857,12.5 Z M30.0557,20 L29.9497,19.903 C28.5447,16.201 25.1197,13.486 21.0267,13.112 C21.0427,12.909 21.0577,12.707 21.0577,12.5 C21.0577,12.006 21.0067,11.525 20.9207,11.056 C23.0687,10.649 24.7007,8.764 24.7007,6.5 C24.7007,3.94 22.6177,1.857 20.0577,1.857 C18.0417,1.857 16.3377,3.157 15.6987,4.957 C15.1127,4.751 14.4997,4.604 13.8607,4.541 C14.6947,1.911 17.1567,0 20.0577,0 C23.6417,0 26.5577,2.916 26.5577,6.5 C26.5577,8.655 25.4997,10.562 23.8797,11.746 C27.7597,12.995 30.8067,16.096 31.9997,20 L30.0557,20 Z" id="referral-many" transform="translate(15.999850, 15.800984) scale(-1, 1) translate(-15.999850, -15.800984) "></path>
            </g>
        </g>
    </symbol>

    <symbol viewBox="0 0 33 30" id="referred-clinic">
        <g id="Icons" stroke="none" stroke-width="1" fill-rule="evenodd" transform="translate(-30.000000, -1310.000000)">
            <g id="[icon]-referred-clinic-(32px-@1x)" transform="translate(30.000000, 1310.000000)">
                <path d="M19.0790929,27.9989776 C20.0760865,27.7110129 20.9636335,27.139232 21.6641218,26.3806458 C21.8787313,25.967373 22,25.4978484 22,25 L22,23.3180259 L22.2527592,23.3188258 C22.1823705,24.1718857 22.2153445,24.9368814 22.2640241,25.6171542 C22.8265186,24.7713904 23.1874134,23.7763614 23.2743939,22.7224563 L21.0619024,22.7154563 C20.8268501,22.7504563 20.5297841,22.6474563 20.3247386,22.4404563 L20.2667257,22.3764563 C20.1156922,22.2024563 20.0336739,21.9824563 20.0336739,21.7504563 C20.0336739,21.4664563 20.1637028,21.1964563 20.3907533,21.0104563 L25.4258718,16.4184563 C25.6019109,16.2414563 25.8619687,16.1434563 26.1420309,16.1554563 C26.3740825,16.1464563 26.6341402,16.2444563 26.8251827,16.4354563 L31.9083119,21.0704563 C32.2833952,21.4474563 32.2843954,22.0624563 31.9083119,22.4404563 C31.7022661,22.6474563 31.4162026,22.7454563 31.1131352,22.7124563 L28.9166473,22.7154563 C28.65859,26.6014563 25.4148694,29.6834563 21.4639917,29.6834563 C21.1346441,29.6834563 20.8081643,29.6621578 20.4854699,29.6196919 C20.3519234,29.6537312 20.2093152,29.6851732 20.0570718,29.7140397 L22.2799332,29.7140397 C21.8917239,29.8974395 21.4578391,30 21,30 L5,30 C3.34314575,30 2,28.6568542 2,27 L2,10.9361434 L0,12 L0,9 L13.1098633,2 L26,9 L26,12 L24,10.9096855 L24,15.6667656 L22,17.4911597 L22,9.81937103 L13.159668,5 L4,9.87228674 L4,25 C4,26.6568542 5.34314575,28 7,28 L19,28 C19.0264456,28 19.0528113,27.9996578 19.0790929,27.9989776 Z M30,17.0946895 L28.0000076,15.2706114 L28.0000106,10.9999029 C28.0000106,10.9998661 28.0000106,10.9998292 28.0000106,10.9997923 C28.0000105,10.9976324 28.000007,10.9954732 28,10.9933148 L28,7.81937103 L19.159668,3 L19,3 L16,2 L19.1098633,0 L28.3853792,5.03707703 C28.7934446,5.11671238 29.1571234,5.32043451 29.4355303,5.60736252 L32,7 L32,10 L30,8.90968552 L30,17.0946895 Z M19.9603209,19.351749 L19.2993939,19.9546447 L15.006,20.044 L14.979,24.917 L11.012,25.042 L10.982,19.945 L6,20.031 L6.037,15.975 L10.977,16.014 L11.013,11 L14.978,11.053 L14.943,15.984 L19.99,16.065 L19.9603209,19.351749 Z M27.0042224,21.2914563 L26.9992213,20.7864562 L28.7236044,20.7864562 L26.1170253,18.4104562 L23.5104463,20.7864562 L25.2138247,20.7864562 L25.2238269,22.6874562 C25.2238269,24.1544563 24.4396527,25.9704563 23.4824401,27.2984562 C25.0587903,26.5354562 26.9412084,24.8634563 27.0082233,22.6714563 C27.0162251,22.4334562 27.0042224,21.2914563 27.0042224,21.2914563 Z" id="referring-clinics"></path>
            </g>
        </g>
    </symbol>

    <symbol viewBox="0 0 32 31" id="referred-patient">
        <g id="Icons" stroke="none" stroke-width="1" fill-rule="evenodd" transform="translate(-30.000000, -1259.000000)">
            <g id="[icon]-referred-patient-(32px-@1x)" transform="translate(30.000000, 1259.000000)">
                <path d="M25.4422,22.1816 C25.4422,22.1816 25.4542,23.3236 25.4462,23.5616 C25.3792,25.7536 23.4972,27.4256 21.9212,28.1886 C22.8782,26.8606 23.6622,25.0446 23.6622,23.5776 L23.6522,21.6766 L21.9492,21.6766 L24.5552,19.3006 L27.1612,21.6766 L25.4372,21.6766 L25.4422,22.1816 Z M30.3452,21.9606 C30.7202,22.3376 30.7212,22.9526 30.3452,23.3306 C30.1392,23.5376 29.8532,23.6356 29.5502,23.6026 L27.3542,23.6056 C27.0962,27.4916 23.8532,30.5736 19.9032,30.5736 C18.8742,30.5736 17.8732,30.3656 16.9282,29.9536 L15.4402,29.3066 L17.0352,29.0046 C19.5562,28.5266 21.4952,26.2546 21.7132,23.6126 L19.5012,23.6056 C19.2662,23.6406 18.9692,23.5376 18.7642,23.3306 L18.7062,23.2666 C18.5552,23.0926 18.4732,22.8726 18.4732,22.6406 C18.4732,22.3566 18.6032,22.0866 18.8302,21.9006 L23.8642,17.3086 C24.0402,17.1316 24.3002,17.0336 24.5802,17.0456 C24.8122,17.0366 25.0722,17.1346 25.2632,17.3256 L30.3452,21.9606 Z M12.5,19.066 C6.992,19.066 2.453,23.298 1.966,28.682 L14,28.682 L14,30.604 L0,30.604 L0,29.643 C0,24.083 3.65,19.365 8.678,17.746 C7.058,16.562 6,14.655 6,12.5 C6,8.916 8.916,6 12.5,6 C16.084,6 19,8.916 19,12.5 C19,14.655 17.941,16.562 16.322,17.746 C17.517,18.131 18.621,18.708 19.628,19.413 L18.18,20.734 C16.538,19.682 14.591,19.066 12.5,19.066 Z M12.5,7.857 C9.94,7.857 7.857,9.94 7.857,12.5 C7.857,15.06 9.94,17.143 12.5,17.143 C15.06,17.143 17.143,15.06 17.143,12.5 C17.143,9.94 15.06,7.857 12.5,7.857 Z M25.9998,6.5 C25.9998,8.655 24.9418,10.562 23.3218,11.746 C26.9266402,12.9067471 29.8231585,15.6604476 31.1740557,19.1753305 C31.4252636,19.8289452 28.4685965,18.0108146 28.1198401,17.5213936 C26.3771385,15.0758045 23.6206089,13.4002259 20.4688,13.112 C20.4838,12.91 20.4998,12.707 20.4998,12.5 C20.4998,12.006 20.4488,11.525 20.3628,11.056 C22.5108,10.649 24.1428,8.765 24.1428,6.5 C24.1428,3.94 22.0598,1.857 19.4998,1.857 C17.4828,1.857 15.7798,3.158 15.1408,4.957 C14.5548,4.751 13.9418,4.605 13.3028,4.541 C14.1368,1.912 16.5988,0 19.4998,0 C23.0838,0 25.9998,2.916 25.9998,6.5 Z" id="referred-patient"></path>
            </g>
        </g>
    </symbol>

    <symbol viewBox="0 0 32 30" id="referring-clinic">
        <g id="Icons" stroke="none" stroke-width="1"  fill-rule="evenodd" transform="translate(-30.000000, -1360.000000)">
            <g id="[icon]-referring-clinic-(32px-@1x)" transform="translate(30.000000, 1360.000000)">
                <path d="M12.4457275,2.35461472 L13.1098633,2 L26,9 L26,12 L24,10.9096855 L24,26.0989473 L28,26.083127 L28,24.0024048 C28.0000009,24.0016033 28.0000014,24.0008017 28.0000014,24 L28.0000106,10.9999029 C28.0000106,10.9998661 28.0000106,10.9998292 28.0000106,10.9997923 C28.0000105,10.9976324 28.000007,10.9954732 28,10.9933148 L28,7.81937103 L19.159668,3 L19,3 L16,2 L19.1098633,0 L28.3853792,5.03707703 C28.7934446,5.11671238 29.1571234,5.32043451 29.4355303,5.60736252 L32,7 L32,10 L30,8.90968552 L30,26 C30,27.1045695 29.1045695,28 28,28 L23.8060925,28.0633504 C23.3769041,29.1953324 22.2824221,30 21,30 L5,30 C3.34314575,30 2,28.6568542 2,27 L2,12.6981501 L4,14.5222351 L4,25 C4,26.6568542 5.34314575,28 7,28 L19,28 C20.6568542,28 22,26.6568542 22,25 L22,9.81937103 L13.159668,5 L10.2438761,6.55099227 L9.83020775,6.54968319 C9.835874,6.48101241 9.84087044,6.41291229 9.8452428,6.3453811 C9.32898162,7.16358449 8.9983505,8.11288613 8.91560572,9.11546934 L11.1280972,9.12246934 C11.3631494,9.08746934 11.6602154,9.19046934 11.865261,9.39746934 L11.9232739,9.46146934 C12.0743074,9.63546934 12.1563257,9.85546934 12.1563257,10.0874693 C12.1563257,10.3714693 12.0262968,10.6414693 11.7992463,10.8274693 L11.6014421,11.0078657 L14.978,11.053 L14.943,15.984 L19.99,16.065 L19.955,19.941 L15.006,20.044 L14.979,24.917 L11.012,25.042 L10.982,19.945 L6,20.031 L6.037,15.975 L10.977,16.014 L11.0090646,11.5481106 L6.76412777,15.4194693 C6.58808867,15.5964693 6.3280309,15.6944693 6.04796868,15.6824693 C5.81591713,15.6914693 5.55585936,15.5934693 5.36481692,15.4024693 L0.281687702,10.7674693 C-0.093395623,10.3904693 -0.0943958452,9.77546934 0.281687702,9.39746934 C0.487733475,9.19046934 0.773797024,9.09246934 1.07686435,9.12546934 L3.2733523,9.12246934 C3.53140963,5.23646934 6.77513022,2.15446934 10.7260079,2.15446934 C11.3099685,2.15446934 11.8849135,2.221428 12.4457275,2.35461472 Z M0.779749061,11.5852294 L0,12 L0,10.8740651 L0.779749061,11.5852294 Z M5.20182203,10.4174562 L5.20682314,10.9224562 L3.48244007,10.9224562 L6.08901912,13.2984562 L8.69559817,10.9224562 L6.99221977,10.9224562 L6.98221755,9.02145625 C6.98221755,7.55445625 7.76639175,5.73845625 8.7236044,4.41045625 C7.14725421,5.17345625 5.26483603,6.84545625 5.19782114,9.03745625 C5.18981937,9.27545625 5.20182203,10.4174562 5.20182203,10.4174562 Z" id="referred-clinics"></path>
            </g>
        </g>
    </symbol>

    <symbol viewBox="0 0 20 32" id="reorder">
        <g id="Icons" stroke="none" stroke-width="1" fill-rule="evenodd" transform="translate(-30.000000, -1410.000000)">
            <g id="[icon]-reorder-(32px-@1x)" transform="translate(30.000000, 1410.000000)">
                <path d="M16,8 C18.2,8 20,6.2 20,4 C20,1.8 18.2,0 16,0 C13.8,0 12,1.8 12,4 C12,6.2 13.8,8 16,8 L16,8 Z M16,12 C13.8,12 12,13.8 12,16 C12,18.2 13.8,20 16,20 C18.2,20 20,18.2 20,16 C20,13.8 18.2,12 16,12 L16,12 Z M16,24 C18.2,24 20,25.8 20,28 C20,30.2 18.2,32 16,32 C13.8,32 12,30.2 12,28 C12,25.8 13.8,24 16,24 Z M4,8 C1.8,8 0,6.2 0,4 C0,1.8 1.8,0 4,0 C6.2,0 8,1.8 8,4 C8,6.2 6.2,8 4,8 Z M4,12 C6.2,12 8,13.8 8,16 C8,18.2 6.2,20 4,20 C1.8,20 0,18.2 0,16 C0,13.8 1.8,12 4,12 Z M4,24 C6.2,24 8,25.8 8,28 C8,30.2 6.2,32 4,32 C1.8,32 0,30.2 0,28 C0,25.8 1.8,24 4,24 Z" id="reorder"></path>
            </g>
        </g>
    </symbol>

    <symbol viewBox="0 0 26 32" id="reports">
        <g id="Icons" stroke="none" stroke-width="1" fill-rule="evenodd" transform="translate(-30.000000, -1462.000000)">
            <g id="[icon]-reports-(32px-@1x)" transform="translate(30.000000, 1462.000000)">
                <path d="M17.997,29.9804 L4,29.9804 C2.896,29.9804 2.001,29.0844 2.001,27.9804 L2.001,16.2704 L1.999,16.2704 L1.999,7.9794 C1.999,6.8754 2.895,5.9794 3.999,5.9794 L17.996,5.9794 C19.1,5.9794 19.996,6.8754 19.996,7.9794 L19.996,19.9804 L19.997,19.9804 L19.997,27.9804 C19.997,29.0844 19.101,29.9804 17.997,29.9804 L17.997,29.9804 Z M7.66667277,17.5098831 C7.25757457,17.8763224 6.9998,18.4084116 6.9998,18.9997 C6.9998,20.1027 7.8968,20.9997 8.9998,20.9997 C10.1028,20.9997 10.9998,20.1027 10.9998,18.9997 C10.9998,18.3228952 10.662071,17.7236513 10.1462531,17.3616084 L11.9188499,11.9980845 C11.945702,11.9991581 11.9726888,11.9997 11.9998,11.9997 C12.4663501,11.9997 12.8960439,11.8392137 13.2365879,11.5705343 L15.0354992,12.6130038 C15.0108968,12.7381465 14.998,12.8674424 14.998,12.9997 C14.998,14.1027 15.895,14.9997 16.998,14.9997 C18.101,14.9997 18.998,14.1027 18.998,12.9997 C18.998,11.8967 18.101,10.9997 16.998,10.9997 C16.3847647,10.9997 15.8352046,11.2769654 15.4680696,11.7127465 L13.8445335,10.7724945 C13.9445207,10.5346391 13.9998,10.2735171 13.9998,9.9997 C13.9998,8.8967 13.1028,7.9997 11.9998,7.9997 C10.8968,7.9997 9.9998,8.8967 9.9998,9.9997 C9.9998,10.7235152 10.3860752,11.3586206 10.963356,11.7097466 L9.21463732,17.0111518 C9.1440478,17.0035829 9.07236976,16.9997 8.9998,16.9997 C8.84559294,16.9997 8.69541236,17.0172327 8.55114651,17.05041 L7.61574479,15.1770801 C7.85717847,14.84658 7.9998,14.4395168 7.9998,13.9997 C7.9998,12.8967 7.1028,11.9997 5.9998,11.9997 C4.8968,11.9997 3.9998,12.8967 3.9998,13.9997 C3.9998,15.1027 4.8968,15.9997 5.9998,15.9997 C6.29371173,15.9997 6.57299663,15.9360094 6.8245809,15.8217021 L7.66667277,17.5098831 Z M21.995,16.2704 L21.996,16.2704 L21.996,27.9804 C21.996,30.1894 20.206,31.9804 17.997,31.9804 L4,31.9804 C1.791,31.9804 0.001,30.1894 0.001,27.9804 L0.001,19.9804 L0,19.9804 L0,7.9794 C0,5.7704 1.79,3.9804 3.999,3.9804 L17.996,3.9804 C20.205,3.9804 21.995,5.7704 21.995,7.9794 L21.995,16.2704 Z M25.9972,11.29 L25.9982,11.29 L25.9982,23 C25.9982,24.862 24.7192,26.414 22.9962,26.859 L22.9962,24.724 C23.5932,24.377 23.9982,23.739 23.9982,23 L23.9982,15 L23.9972,15 L23.9972,3.999 C23.9972,2.895 23.1012,1.999 21.9982,1.999 L9.0012,1.999 C8.2632,1.999 7.6252,2.404 7.2782,3 L5.1432,3 C5.5882,1.278 7.1392,0 9.0012,0 L21.9982,0 C24.2062,0 25.9972,1.79 25.9972,3.999 L25.9972,11.29 Z M5.2672,22.996 C4.5762,22.998 4.0062,23.444 3.9962,23.991 C3.9842,24.539 4.5342,24.982 5.2252,24.98 L16.7252,24.964 C17.4162,24.962 17.9862,24.516 17.9962,23.969 C18.0082,23.42 17.4582,22.978 16.7672,22.98 L5.2672,22.996 Z M5.2672,25.996 C4.5762,25.998 4.0062,26.444 3.9962,26.991 C3.9842,27.539 4.5342,27.982 5.2252,27.98 L16.7252,27.964 C17.4162,27.962 17.9862,27.516 17.9962,26.969 C18.0082,26.42 17.4582,25.978 16.7672,25.98 L5.2672,25.996 Z M5.9998,14.9997 C5.4478,14.9997 4.9998,14.5507 4.9998,13.9997 C4.9998,13.4487 5.4478,12.9997 5.9998,12.9997 C6.5518,12.9997 6.9998,13.4487 6.9998,13.9997 C6.9998,14.5507 6.5518,14.9997 5.9998,14.9997 Z M8.9998,19.9997 C8.4478,19.9997 7.9998,19.5507 7.9998,18.9997 C7.9998,18.4487 8.4478,17.9997 8.9998,17.9997 C9.5518,17.9997 9.9998,18.4487 9.9998,18.9997 C9.9998,19.5507 9.5518,19.9997 8.9998,19.9997 Z M11.9998,10.9997 C11.4478,10.9997 10.9998,10.5507 10.9998,9.9997 C10.9998,9.4487 11.4478,8.9997 11.9998,8.9997 C12.5518,8.9997 12.9998,9.4487 12.9998,9.9997 C12.9998,10.5507 12.5518,10.9997 11.9998,10.9997 Z M16.998,13.9997 C16.446,13.9997 15.998,13.5507 15.998,12.9997 C15.998,12.4487 16.446,11.9997 16.998,11.9997 C17.55,11.9997 17.998,12.4487 17.998,12.9997 C17.998,13.5507 17.55,13.9997 16.998,13.9997 Z" id="reports"></path>
            </g>
        </g>
    </symbol>

    <symbol viewBox="0 0 32 28" id="resources">
        <g id="Icons" stroke="none" stroke-width="1" fill-rule="evenodd" transform="translate(-30.000000, -1514.000000)">
            <g id="[icon]-resources-(32px-@1x)" transform="translate(30.000000, 1514.000000)">
                <path d="M0.0004,23.0004 L0.0004,21.0004 L32.0004,21.0004 L32.0004,23.0004 L0.0004,23.0004 Z M0.0004,28.0004 L0.0004,26.0004 L32.0004,26.0004 L32.0004,28.0004 L0.0004,28.0004 Z M31.852,18 L0,18 L6.525,0 L25.328,0 L31.852,18 Z M2.852,16 L29,16 L23.925,2 L7.927,2 L2.852,16 Z" id="resources"></path>
            </g>
        </g>
    </symbol>

    <symbol viewBox="0 0 32 32" id="share">
        <g id="Icons" stroke="none" stroke-width="1" fill-rule="evenodd" transform="translate(-30.000000, -1562.000000)">
            <g id="[icon]-share-(32px-@1x)" transform="translate(30.000000, 1562.000000)">
                <path d="M11.6411844,18.0513343 L21.1391994,22.4803314 C22.2295002,20.9763425 24.0005345,19.9981622 26,19.9981622 C29.3137085,19.9981622 32,22.6848651 32,25.9990811 C32,29.3132971 29.3137085,32 26,32 C22.6862915,32 20,29.3132971 20,25.9990811 C20,25.3992985 20.0879791,24.8200676 20.2517341,24.2735934 L10.6493262,19.795917 C9.54906387,21.1432112 7.87496689,22.0033693 6,22.0033693 C2.6862915,22.0033693 0,19.3166664 0,16.0024504 C0,12.6882344 2.6862915,10.0015315 6,10.0015315 C7.9645139,10.0015315 9.70851292,10.9458125 10.803002,12.4053137 L20.3282607,7.96361266 C20.1155422,7.34861763 20,6.68826349 20,6.00091889 C20,2.6867029 22.6862915,0 26,0 C29.3137085,0 32,2.6867029 32,6.00091889 C32,9.31513488 29.3137085,12.0018378 26,12.0018378 C24.0913611,12.0018378 22.3908716,11.1105076 21.2919532,9.72132927 L11.7198559,14.1848716 C11.9018236,14.7582058 12,15.3688612 12,16.0024504 C12,16.722017 11.8733709,17.4120033 11.6411844,18.0513343 Z M26,10.0015315 C28.209139,10.0015315 30,8.21039622 30,6.00091889 C30,3.79144157 28.209139,2.0003063 26,2.0003063 C23.790861,2.0003063 22,3.79144157 22,6.00091889 C22,8.21039622 23.790861,10.0015315 26,10.0015315 Z M26,30.0045945 C28.209139,30.0045945 30,28.2134592 30,26.0039819 C30,23.7945045 28.209139,22.0033693 26,22.0033693 C23.790861,22.0033693 22,23.7945045 22,26.0039819 C22,28.2134592 23.790861,30.0045945 26,30.0045945 Z M6,20.003063 C8.209139,20.003063 10,18.2119277 10,16.0024504 C10,13.792973 8.209139,12.0018378 6,12.0018378 C3.790861,12.0018378 2,13.792973 2,16.0024504 C2,18.2119277 3.790861,20.003063 6,20.003063 Z" id="share"></path>
            </g>
        </g>
    </symbol>

    <symbol viewBox="0 0 32 32" id="success">
        <g id="Icons" stroke="none" stroke-width="1" fill-rule="evenodd" transform="translate(-30.000000, -1614.000000)">
            <g id="[icon]-success-(32px-@1x)" transform="translate(30.000000, 1614.000000)">
                <path d="M32,16 C32,24.822 24.822,32 16,32 C7.178,32 0,24.822 0,16 C0,7.178 7.178,0 16,0 C24.822,0 32,7.178 32,16 Z M30,16 C30,8.28 23.72,2 16,2 C8.28,2 2,8.28 2,16 C2,23.72 8.28,30 16,30 C23.72,30 30,23.72 30,16 Z M11.1181675,17.3579912 L13.2833806,19.5658686 L20.9484992,11.7343592 C21.9063126,10.7552136 22.3238265,9.7552136 23.2816399,10.7343592 C24.2394534,11.7049719 24.2394534,12.0099506 23.2816399,12.9869629 L15.0176842,21.4578405 C14.0598707,22.4348529 12.5090236,22.4348529 11.5512101,21.4578405 L8.71836009,18.5460615 C7.76054664,17.5733156 7.76054664,17.2683369 8.71836009,16.2913246 C9.67617355,15.3185786 10.1603541,16.3852453 11.1181675,17.3579912 Z" id="check-in-circle"></path>
            </g>
        </g>
    </symbol>

    <symbol viewBox="0 0 32 24" id="task">
        <g id="Icons" stroke="none" stroke-width="1" fill-rule="evenodd" transform="translate(-30.000000, -1666.000000)">
            <g id="[icon]-task-(32px-@1x)" transform="translate(30.000000, 1666.000000)">
                <path d="M30,22 L2,22 L2,13 L7.824,13 C8.063,14.302 8.573,15.812 9.716,16 C10.17,16.075 10.525,15.997 10.932,16 C14.33,16.021 17.727,16.007 21.125,16 C22.674,15.996 23.801,14.749 24.222,13 L30,13 L30,22 Z M7.071,4.387 L8.705,2.088 C13.575,2.075 18.444,2.076 23.314,2.087 L29.433,10.513 C29.468,10.56 29.498,10.612 29.579,10.737 L29.155,10.737 C27.121,10.737 26.088,10.736 24.054,10.737 C23.514,10.737 23.408,10.852 23.352,11.479 C23.23,12.855 22.332,13.798 21.11,13.801 C18.34,13.808 15.57,13.803 12.801,13.801 C12.086,13.8 11.369,13.838 10.659,13.767 C9.58,13.66 8.834,12.739 8.717,11.473 C8.659,10.841 8.561,10.737 8.013,10.737 C5.957,10.736 4.902,10.736 2.846,10.735 C2.751,10.735 2.656,10.724 2.493,10.715 C4.051,8.562 5.562,6.475 7.071,4.387 L7.071,4.387 Z M31.992,11.359 C31.991,11.15 31.92,10.897 31.806,10.74 C29.244,7.177 26.671,3.624 24.1,0.069 C24.088,0.052 24.089,0.023 24.083,0 L8.05,0 C7.142,1.243 6.23,2.483 5.327,3.731 C3.64,6.063 1.958,8.399 0.274,10.733 C0.184,10.858 0.091,10.98 0,11.104 L0,23.684 C0.136,23.934 0.325,24 0.578,24 C10.877,23.992 21.176,23.993 31.474,23.993 C31.987,23.993 32,23.979 32,23.388 C32,19.378 32.002,15.368 31.992,11.359 L31.992,11.359 Z" id="task"></path>
            </g>
        </g>
    </symbol>

    <symbol viewBox="0 0 32 32" id="verbal-agreement">
        <g id="Icons" stroke="none" stroke-width="1" fill-rule="evenodd" transform="translate(-30.000000, -1710.000000)">
            <g id="[icon]-verbal-agreement-(32px-@1x)" transform="translate(30.000000, 1710.000000)">
                <path d="M16,0 C24.836,0 32,6.269 32,14 C32,21.732 24.836,28 16,28 C14.977,28 13.979,27.907 13.009,27.747 L6,32 L6,24.919 C2.345,22.354 0,18.419 0,14 C0,6.269 7.164,0 16,0 Z M16,26 C23.732,26 30,20.628 30,14 C30,7.373 23.732,2 16,2 C8.268,2 2,7.373 2,14 C2,18.066 4.366,21.654 7.975,23.824 L7.912,28.463 L12.62,25.633 C13.704,25.864 14.832,26 16,26 Z M11.1181675,15.0249284 L13.2833806,17.2328058 L20.9484992,9.40129641 C21.9063126,8.4221508 22.3238265,7.4221508 23.2816399,8.40129641 C24.2394534,9.37190915 24.2394534,9.67688776 23.2816399,10.6539002 L15.0176842,19.1247777 C14.0598707,20.1017901 12.5090236,20.1017901 11.5512101,19.1247777 L8.71836009,16.2129987 C7.76054664,15.2402528 7.76054664,14.9352741 8.71836009,13.9582618 C9.67617355,12.9855158 10.1603541,14.0521825 11.1181675,15.0249284 Z" id="verbal-agreement"></path>
            </g>
        </g>
    </symbol>

    <symbol viewBox="0 0 32 32" id="warning">
        <g id="Icons" stroke="none" stroke-width="1" fill-rule="evenodd" transform="translate(-30.000000, -1762.000000)">
            <g id="[icon]-warning-(32px-@1x)" transform="translate(30.000000, 1762.000000)">
                <path d="M30.4880664,31.998 L1.51406637,31.998 C0.986066366,31.998 0.504066366,31.729 0.227066366,31.28 C-0.0509336344,30.831 -0.0749336344,30.28 0.162066366,29.809 L14.6480664,0.836 C14.9070664,0.319 15.4250664,0 16.0010664,0 L16.0020664,0 C16.5790664,0 17.0970664,0.321 17.3540664,0.837 L31.8410664,29.811 C32.0760664,30.283 32.0520664,30.833 31.7740664,31.281 C31.4960664,31.73 31.0150664,31.998 30.4880664,31.998 Z M2.30306637,29.998 L29.6990664,29.998 L16.0010664,2.602 L2.30306637,29.998 Z M15.0002664,25 C15.0002664,24.448 15.4482664,24 16.0002664,24 C16.5522664,24 17.0002664,24.448 17.0002664,25 C17.0002664,25.552 16.5522664,26 16.0002664,26 C15.4482664,26 15.0002664,25.552 15.0002664,25 Z M15.0165664,12.2707 C15.0185664,11.5797 15.4645664,11.0097 16.0115664,10.9997 C16.5595664,10.9877 17.0025664,11.5377 17.0005664,12.2287 L16.9835664,21.7287 C16.9815664,22.4197 16.5365664,22.9897 15.9895664,22.9997 C15.4405664,23.0117 14.9985664,22.4617 15.0005664,21.7707 L15.0165664,12.2707 Z" id="warning"></path>
            </g>
        </g>
    </symbol>

    <symbol id="icon-face-happy" viewBox="0 0 32 32">
        <title>face-happy</title>
        <path d="M24.573 12.571c0 1.353-1.097 2.449-2.449 2.449s-2.449-1.097-2.449-2.449c0-1.353 1.097-2.449 2.449-2.449s2.449 1.097 2.449 2.449zM12.326 12.571c0 1.353-1.097 2.449-2.449 2.449s-2.449-1.097-2.449-2.449c0-1.353 1.097-2.449 2.449-2.449s2.449 1.097 2.449 2.449zM23.348 17.959c-0.735-0.245-1.225 0-1.715 0.735-0.98 2.204-3.184 3.674-5.633 3.674s-4.654-1.47-5.633-3.674c-0.245-0.735-0.98-0.98-1.715-0.735s-0.98 0.98-0.735 1.715c1.47 3.184 4.409 5.144 7.838 5.144s6.613-1.959 7.838-5.144c0.49-0.735 0.245-1.47-0.245-1.715v0zM16 29.333v0c7.364 0 13.333-5.97 13.333-13.333s-5.97-13.333-13.333-13.333c-7.364 0-13.333 5.97-13.333 13.333s5.97 13.333 13.333 13.333v0zM16 32v0c-8.837 0-16-7.163-16-16s7.163-16 16-16c8.837 0 16 7.163 16 16s-7.163 16-16 16v0z"></path>
    </symbol>

    <symbol id="icon-face-neutral" viewBox="0 0 32 32">
        <title>face-neutral</title>
        <path d="M24.554 12.578c0 1.35-1.094 2.444-2.444 2.444s-2.444-1.094-2.444-2.444c0-1.35 1.094-2.444 2.444-2.444s2.444 1.094 2.444 2.444zM12.334 12.578c0 1.35-1.094 2.444-2.444 2.444s-2.444-1.094-2.444-2.444c0-1.35 1.094-2.444 2.444-2.444s2.444 1.094 2.444 2.444zM22.843 19.177h-13.687c-0.733 0-1.222 0.489-1.222 1.222s0.489 1.222 1.222 1.222h13.687c0.733 0 1.222-0.489 1.222-1.222s-0.489-1.222-1.222-1.222v0zM16 29.333v0c7.364 0 13.333-5.97 13.333-13.333s-5.97-13.333-13.333-13.333c-7.364 0-13.333 5.97-13.333 13.333s5.97 13.333 13.333 13.333v0zM16 32v0c-8.837 0-16-7.163-16-16s7.163-16 16-16c8.837 0 16 7.163 16 16s-7.163 16-16 16v0z"></path>
    </symbol>

    <symbol id="icon-face-sad" viewBox="0 0 32 32">
        <title>face-sad</title>
        <path d="M24.568 12.573c0 1.352-1.096 2.448-2.448 2.448s-2.448-1.096-2.448-2.448c0-1.352 1.096-2.448 2.448-2.448s2.448 1.096 2.448 2.448zM12.328 12.573c0 1.352-1.096 2.448-2.448 2.448s-2.448-1.096-2.448-2.448c0-1.352 1.096-2.448 2.448-2.448s2.448 1.096 2.448 2.448zM16 17.958c-3.427 0-6.609 1.958-7.833 5.141-0.245 0.734 0 1.224 0.734 1.714h0.49c0.49 0 0.979-0.245 1.224-0.734 0.979-2.203 3.182-3.672 5.63-3.672s4.651 1.469 5.63 3.672c0.245 0.734 0.979 0.979 1.714 0.734s0.979-0.979 0.734-1.714c-1.714-3.182-4.896-5.141-8.323-5.141v0zM16 29.333v0c7.364 0 13.333-5.97 13.333-13.333s-5.97-13.333-13.333-13.333c-7.364 0-13.333 5.97-13.333 13.333s5.97 13.333 13.333 13.333v0zM16 32v0c-8.837 0-16-7.163-16-16s7.163-16 16-16c8.837 0 16 7.163 16 16s-7.163 16-16 16v0z"></path>
    </symbol>

    <symbol id="icon-minus-circle" viewBox="0 0 32 32">
        <title>minus-circle</title>
        <path d="M16 29.333v0c7.364 0 13.333-5.97 13.333-13.333s-5.97-13.333-13.333-13.333c-7.364 0-13.333 5.97-13.333 13.333s5.97 13.333 13.333 13.333v0zM16 32v0c-8.837 0-16-7.163-16-16s7.163-16 16-16c8.837 0 16 7.163 16 16s-7.163 16-16 16v0zM8 14.667h16v2.667h-16v-2.667z"></path>
    </symbol>

    <symbol id="icon-circle" viewBox="0 0 32 32">
        <title>circle</title>
        <path d="M16 29.333v0c7.364 0 13.333-5.97 13.333-13.333s-5.97-13.333-13.333-13.333c-7.364 0-13.333 5.97-13.333 13.333s5.97 13.333 13.333 13.333v0zM16 32v0c-8.837 0-16-7.163-16-16s7.163-16 16-16c8.837 0 16 7.163 16 16s-7.163 16-16 16v0z"></path>
    </symbol>

    <symbol id="icon-check-circle" viewBox="0 0 32 32">
        <title>check-circle</title>
        <path d="M13.197 20.758l-5.089-5.089-1.696 1.696 6.786 6.786 12.554-12.554-1.696-1.696-10.857 10.857zM16 29.333v0c7.364 0 13.333-5.97 13.333-13.333s-5.97-13.333-13.333-13.333c-7.364 0-13.333 5.97-13.333 13.333s5.97 13.333 13.333 13.333v0zM16 32v0c-8.837 0-16-7.163-16-16s7.163-16 16-16c8.837 0 16 7.163 16 16s-7.163 16-16 16v0z"></path>
    </symbol>

    <symbol id="icon-camera" viewBox="0 0 32 32">
        <title>camera</title>
        <path d="M16 12c-3.733 0-6.667 2.933-6.667 6.667s2.933 6.667 6.667 6.667c3.733 0 6.667-2.933 6.667-6.667s-2.933-6.667-6.667-6.667v0zM16 22.667c-2.133 0-4-1.867-4-4s1.867-4 4-4c2.133 0 4 1.867 4 4s-1.867 4-4 4v0zM24.889 8.715v-6.048h-17.504v6.048h-7.385v20.619h32v-20.619h-7.111zM29.333 26.667h-26.667v-15.316h7.347v-6.017h11.973v6.017h7.347v15.316z"></path>
    </symbol>

    <symbol id="icon-user-add" viewBox="0 0 32 32">
        <title>user-add</title>
        <path d="M14.933 24.933h-4.933v2.133h4.933v4.933h2.133v-4.933h4.933v-2.133h-4.933v-4.933h-2.133v4.933zM29.534 26.667v-6.134c0-3.093-2.507-5.599-5.599-5.599h-15.668c-3.093 0-5.599 2.507-5.599 5.599v6.134h2.239v-6.136c0-1.855 1.504-3.358 3.358-3.358h15.673c1.855 0 3.358 1.504 3.358 3.358v6.136h2.239zM16 12.8c3.584 0 6.4-2.816 6.4-6.4s-2.816-6.4-6.4-6.4c-3.584 0-6.4 2.816-6.4 6.4s2.816 6.4 6.4 6.4v0zM16 2.133c2.276 0 4.267 1.991 4.267 4.267s-1.991 4.267-4.267 4.267c-2.276 0-4.267-1.707-4.267-4.267s1.991-4.267 4.267-4.267v0z"></path>
    </symbol>

    <symbol id="icon-disabled" viewBox="0 0 32 32">
        <title>disabled</title>
        <path d="M26.324 7.562l-18.762 18.762c2.299 1.881 5.237 3.009 8.438 3.009 7.364 0 13.333-5.97 13.333-13.333 0-3.202-1.128-6.14-3.009-8.438zM24.438 5.676c-2.299-1.881-5.237-3.009-8.438-3.009-7.364 0-13.333 5.97-13.333 13.333 0 3.202 1.128 6.14 3.009 8.438l18.762-18.762zM16 32c-8.837 0-16-7.163-16-16s7.163-16 16-16c8.837 0 16 7.163 16 16s-7.163 16-16 16z"></path>
    </symbol>

    <symbol id="icon-view" viewBox="0 0 32 32">
        <title>view</title>
        <path d="M16 5.6c-9.067 0-16 4.533-16 10.4s7.2 10.4 16 10.4c8.8 0 16-4.533 16-10.4s-6.933-10.4-16-10.4v0zM16 23.733c-7.2 0-13.333-3.467-13.333-7.733s6.133-7.733 13.333-7.733c7.2 0 13.333 3.467 13.333 7.733s-6.133 7.733-13.333 7.733v0zM16 10.667c-2.933 0-5.333 2.4-5.333 5.333s2.4 5.333 5.333 5.333c2.933 0 5.333-2.4 5.333-5.333s-2.4-5.333-5.333-5.333v0zM16 18.4c-1.333 0-2.4-1.067-2.4-2.4s1.067-2.4 2.4-2.4c1.333 0 2.4 1.067 2.4 2.4s-1.067 2.4-2.4 2.4v0z"></path>
    </symbol>

    <symbol id="icon-link" viewBox="0 0 32 32">
        <title>link</title>
        <path d="M24.976 10.766h-2.83c-2.594 0-4.716 1.639-5.188 3.979h-1.886c-0.472-2.341-2.594-3.979-5.188-3.979h-2.83c-2.83 0-5.188 2.341-5.188 5.384 0 1.404 0.472 2.809 1.651 3.745 0.943 0.936 2.358 1.639 3.773 1.639h2.83c1.179 0 2.594-0.702 3.537-1.639 0.707-0.702 1.179-1.639 1.415-2.575h1.886c0.236 0.936 0.707 1.873 1.415 2.575 0.943 0.936 2.358 1.639 3.773 1.639h2.83c1.415 0 2.83-0.468 3.773-1.639 0.943-0.936 1.651-2.341 1.651-3.745-0.236-3.043-2.594-5.384-5.424-5.384v0zM12.007 18.256c-0.472 0.468-1.179 0.936-2.122 0.936h-2.83c-0.707 0-1.415-0.234-2.122-0.936-0.472-0.702-0.707-1.404-0.707-2.107 0-1.639 1.179-2.809 2.83-2.809h2.83c1.179 0 2.122 0.702 2.594 1.639h-2.122c-0.707 0-1.179 0.468-1.179 1.17s0.472 1.17 1.179 1.17h2.122c-0.236 0.234-0.236 0.702-0.472 0.936v0zM26.863 18.019c-0.472 0.468-1.179 0.936-2.122 0.936h-2.83c-0.707 0-1.415-0.234-2.122-0.936-0.236-0.234-0.472-0.468-0.472-0.702h2.122c0.707 0 1.179-0.468 1.179-1.17s-0.472-1.17-1.179-1.17h-2.122c0.472-0.936 1.415-1.639 2.594-1.639h2.83c1.651 0 2.83 1.17 2.83 2.809 0.236 0.468 0 1.17-0.707 1.873v0z"></path>
    </symbol>
</svg>
