<?xml version="1.0" encoding="UTF-8"?>
<svg xmlns="http://www.w3.org/2000/svg" xmlns:xlink="http://www.w3.org/1999/xlink" display="none">
    <symbol viewBox="0 0 318 63" id="full-logo">
        <g id="Log-in-(desktop)" stroke="none" stroke-width="1" fill="none" fill-rule="evenodd"
           transform="translate(-559.000000, -301.000000)">
            <g id="Logo" transform="translate(559.000000, 293.000000)">
                <g id="apollo-logo" transform="translate(0.000000, 6.774194)" fill="#F8F9FB" fill-rule="nonzero">
                    <path d="M23.7096774,1.78946961 L0,15.3949242 L0,42.561516 L23.7096774,56.1669706 L47.4193548,42.561516 L47.4193548,15.3949242 L23.7096774,1.78946961 Z M23.7096774,46.6830381 L22.7720066,46.1512288 L9.19810461,38.351359 L8.26043375,37.8195497 L8.26043375,36.7559311 L8.26043375,21.2005091 L8.26043375,20.1368905 L9.19810461,19.6050812 L22.7720066,11.8052114 L23.7096774,11.2734021 L24.6473483,11.8052114 L38.2212502,19.5607637 L39.1589211,20.092573 L39.1589211,21.1561916 L39.1589211,36.7559311 L39.1589211,37.8195497 L38.2212502,38.351359 L24.6473483,46.1069113 L23.7096774,46.6830381 Z" id="Shape" opacity="0.5"></path>
                    <polygon id="Shape" points="11.2903226 22.2143609 11.2903226 36.4373376 23.7096774 43.569439 36.1290323 36.4373376 36.1290323 22.2143609 23.7096774 15.0822595"></polygon>
                </g>
                <text id="Powered-by-IQVIA" font-family="Proxima Nova" font-size="22.5806452" font-weight="300"
                      fill="#FFFFFF">
                    <tspan x="67.7419355" y="65.9032258">Powered by IQVIA</tspan>
                </text>
                <text id="Rocket-Referral" font-family="Proxima Nova" font-size="36.1290323" font-weight="bold"
                      fill="#FFFFFF">
                    <tspan x="67.7419355" y="36">Rocket Referral</tspan>
                </text>
            </g>
        </g>
    </symbol>
</svg>