<?xml version="1.0" encoding="UTF-8"?>
<svg width="19px" height="19px" viewBox="0 0 19 19" version="1.1" xmlns="http://www.w3.org/2000/svg" xmlns:xlink="http://www.w3.org/1999/xlink">
    <title>icon/close copy 2</title>
    <defs>
        <path d="M13.724676,12.132622 C13.6894118,12.0974468 13.6695931,12.0496856 13.6695931,11.9998775 C13.6695931,11.9500693 13.6894118,11.9023081 13.724676,11.867133 L20.6716377,4.92092117 C21.110893,4.48104462 21.1103893,3.76836749 20.6705128,3.32911224 C20.2306362,2.88985698 19.5179591,2.89036063 19.0787038,3.33023717 L12.132492,10.2734491 C12.0973169,10.3087133 12.0495557,10.328532 11.9997475,10.328532 C11.9499394,10.328532 11.9021782,10.3087133 11.867003,10.2734491 L4.92079123,3.33023717 C4.48153597,2.89077482 3.7691946,2.89060693 3.32973224,3.32986219 C2.89026988,3.76911745 2.890102,4.48145882 3.32935725,4.92092117 L10.2748191,11.867133 C10.3100833,11.9023081 10.329902,11.9500693 10.329902,11.9998775 C10.329902,12.0496856 10.3100833,12.0974468 10.2748191,12.132622 L3.32935725,19.0795837 C3.04520893,19.363866 2.93430784,19.778145 3.03842937,20.1663659 C3.1425509,20.5545867 3.4458765,20.8577693 3.83414636,20.9617079 C4.22241621,21.0656464 4.6366429,20.95455 4.92079123,20.6702677 L11.867003,13.723306 C11.9021782,13.6880418 11.9499394,13.6682231 11.9997475,13.6682231 C12.0495557,13.6682231 12.0973169,13.6880418 12.132492,13.723306 L19.0787038,20.6702677 C19.5179591,21.1097301 20.2303004,21.109898 20.6697628,20.6706427 C21.1092251,20.2313875 21.109393,19.5190461 20.6701378,19.0795837 L13.724676,12.132622 Z" id="path-1"></path>
    </defs>
    <g id="Page-1" stroke="none" stroke-width="1" fill="none" fill-rule="evenodd">
        <g id="My-Patients-Landing" transform="translate(-1193.000000, -452.000000)">
            <g id="icon/close-copy-2" transform="translate(1190.215576, 449.500000)">
                <mask id="mask-2" fill="white">
                    <use xlink:href="#path-1"></use>
                </mask>
                <use id="Mask" fill="#000000" fill-rule="nonzero" xlink:href="#path-1"></use>
                <g id="Group" mask="url(#mask-2)" fill="#E20000">
                    <g id="color">
                        <rect id="Rectangle" x="0" y="0" width="24" height="24"></rect>
                    </g>
                </g>
            </g>
        </g>
    </g>
</svg>