<?xml version="1.0" encoding="UTF-8"?>
<svg width="24px" height="16px" viewBox="0 0 24 16" version="1.1" xmlns="http://www.w3.org/2000/svg" xmlns:xlink="http://www.w3.org/1999/xlink">
    <title>icon/email copy</title>
    <defs>
        <path d="M23.83528,5.81844753 L23.888,5.832 C23.9560016,5.86004015 24.0002713,5.92644459 23.999998,6 L23.999998,6 L23.999998,18 C23.999998,19.1045695 23.1045695,20 21.999998,20 L21.999998,20 L1.99999802,20 C0.8954305,20 -1.98205267e-06,19.1045695 -1.98205267e-06,18 L-1.98205267e-06,18 L-1.98205267e-06,6 C-0.00033950496,5.92700856 0.0429620625,5.86087526 0.11,5.832 C0.178316146,5.80238187 0.257816909,5.81788452 0.31,5.871 L0.31,5.871 L10.053,15.616 C11.1268173,16.6892171 12.8671827,16.6892171 13.941,15.616 L13.941,15.616 L23.688,5.871 C23.7404595,5.81840086 23.8196217,5.80296424 23.888,5.832 Z M22,4 C22.274,4 22.58,4.03 22.69,4.359 C22.7495592,4.53850911 22.7027335,4.73626077 22.569,4.87 L22.569,4.87 L12.883,14.556 C12.3943619,15.0432087 11.6036381,15.0432087 11.115,14.556 L11.115,14.556 L1.43,4.87 C1.29626655,4.73626077 1.24944081,4.53850911 1.309,4.359 C1.417,4.03 1.725,4 2,4 L2,4 Z" id="path-1"></path>
    </defs>
    <g id="Page-1" stroke="none" stroke-width="1" fill="none" fill-rule="evenodd">
        <g id="Bulk-Actions-Exclude" transform="translate(-1201.000000, -365.000000)">
            <g id="icon/email-copy" transform="translate(1201.000000, 361.000000)">
                <mask id="mask-2" fill="white">
                    <use xlink:href="#path-1"></use>
                </mask>
                <use id="Mask" fill="#000000" fill-rule="nonzero" xlink:href="#path-1"></use>
                <g id="Group" mask="url(#mask-2)" fill="#FF9300">
                    <g id="color">
                        <rect id="Rectangle" x="0" y="0" width="24" height="24"></rect>
                    </g>
                </g>
            </g>
        </g>
    </g>
</svg>