<?xml version="1.0" encoding="UTF-8"?>
<svg width="22px" height="22px" viewBox="0 0 22 22" version="1.1" xmlns="http://www.w3.org/2000/svg" xmlns:xlink="http://www.w3.org/1999/xlink">
    <title>icon/close-circle copy 3</title>
    <defs>
        <path d="M1.38839213,3.22303679 C5.68402608,-1.07245317 12.6493748,-1.07462181 16.9476845,3.21819244 C21.2396607,7.51897812 21.2396607,14.4810219 16.9476845,18.7818076 C12.6493748,23.0746218 5.68402608,23.0724532 1.38839213,18.7769632 C-2.90724182,14.4814733 -2.90724182,7.51852674 1.38839213,3.22303679 Z M13.4811312,6.682633 C13.122902,6.32427416 12.5418925,6.32406885 12.1834099,6.68217443 L12.1834099,6.68217443 L9.33016632,9.5344339 C9.28713638,9.57755795 9.22870975,9.6017939 9.16777914,9.6017939 C9.10684854,9.6017939 9.04842191,9.57755795 9.00539197,9.5344339 L9.00539197,9.5344339 L6.15306581,6.68217443 C5.79001178,6.35447771 5.23362284,6.36914815 4.88835446,6.71552139 C4.54308607,7.06189462 4.53038017,7.61814009 4.85947305,7.97990663 L4.85947305,7.97990663 L7.71271665,10.8321661 C7.75580008,10.8750244 7.78002191,10.9332791 7.78002191,10.9940387 C7.78002191,11.0547983 7.75580008,11.113053 7.71271665,11.1559113 L7.71271665,11.1559113 L4.85947305,14.0072536 C4.68719857,14.1792773 4.59039964,14.4127063 4.59039964,14.6561197 C4.59039964,14.8995332 4.68719857,15.1329622 4.85947305,15.3049858 C5.22166157,15.6542862 5.79546449,15.6542862 6.15765301,15.3049858 L6.15765301,15.3049858 L9.00997917,12.4527264 C9.10001094,12.3639167 9.24472176,12.3639167 9.33475353,12.4527264 L9.33475353,12.4527264 L12.1879971,15.3049858 C12.5515817,15.6285254 13.1046421,15.6118882 13.4481076,15.2670791 C13.7915731,14.92227 13.8058657,14.3693348 13.4806724,14.0072536 L13.4806724,14.0072536 L10.6274288,11.1559113 C10.538196,11.0664298 10.538196,10.9216476 10.6274288,10.8321661 L10.6274288,10.8321661 L13.4806724,7.97990663 C13.8391549,7.62180104 13.8393603,7.04099186 13.4811312,6.682633 Z" id="path-1"></path>
    </defs>
    <g id="Page-1" stroke="none" stroke-width="1" fill="none" fill-rule="evenodd">
        <g id="Bulk-Actions-Exclude" transform="translate(-1202.000000, -401.000000)">
            <g id="Group" transform="translate(1202.000000, 401.000000)">
                <g id="color" transform="translate(1.833333, 0.000000)">
                    <mask id="mask-2" fill="white">
                        <use xlink:href="#path-1"></use>
                    </mask>
                    <use id="Mask" fill="#FFFFFF" fill-rule="nonzero" xlink:href="#path-1"></use>
                    <g id="Group" mask="url(#mask-2)">
                        <g transform="translate(-1.833333, 0.000000)" id="color">
                            <rect id="Rectangle" fill="#DF216D" x="0" y="0" width="22" height="22"></rect>
                        </g>
                    </g>
                </g>
            </g>
        </g>
    </g>
</svg>