<?xml version="1.0" encoding="UTF-8"?>
<svg width="11px" height="12px" viewBox="0 0 11 12" version="1.1" xmlns="http://www.w3.org/2000/svg" xmlns:xlink="http://www.w3.org/1999/xlink">
    <title>first-page-arrow</title>
    <defs>
        <path d="M3.33333333,2.66666667 C3.70152317,2.66666667 4,2.9651435 4,3.33333333 L4,12.6666667 C4,13.0348565 3.70152317,13.3333333 3.33333333,13.3333333 C2.9651435,13.3333333 2.66666667,13.0348565 2.66666667,12.6666667 L2.66666667,3.33333333 C2.66666667,2.9651435 2.9651435,2.66666667 3.33333333,2.66666667 Z M11.7476842,3.0011733 C11.8641873,3.00957506 11.9721351,3.06264357 12.0468499,3.14824711 L12.7275122,3.91899589 C12.885708,4.09782106 12.8641058,4.36452706 12.6789871,4.51809683 L8.54648861,7.91980696 C8.52236069,7.93959333 8.50848328,7.96842129 8.50848328,7.99875664 C8.50848328,8.02909198 8.52236069,8.05791994 8.54648861,8.07770631 L12.6794243,11.4806663 C12.7679864,11.5545372 12.8223496,11.6587536 12.8306825,11.7706345 C12.841167,11.8827075 12.8036396,11.9940568 12.7266378,12.0793506 L12.0468499,12.850516 C11.9722676,12.936612 11.8641876,12.9901427 11.7473935,12.9988331 C11.6307445,13.0072608 11.5155667,12.9697688 11.4287019,12.8950945 L5.97684658,8.31892984 C5.88516826,8.23516811 5.83333333,8.11937567 5.83333333,7.99834001 C5.83333333,7.87730436 5.88516826,7.76151192 5.97684658,7.67775019 L11.4287019,3.10366867 C11.5160829,3.02975486 11.631181,2.99277155 11.7476842,3.0011733 Z" id="path-1"></path>
    </defs>
    <g id="Referring-Provider-List-View" stroke="none" stroke-width="1" fill="none" fill-rule="evenodd" opacity="0.4">
        <g id="RP-List-Overview-Landing" transform="translate(-212.000000, -963.000000)">
            <g id="first-page-arrow" transform="translate(202.171558, 953.000000)">
                <g id="icon" transform="translate(8.000000, 8.000000)">
                    <mask id="mask-2" fill="white">
                        <use xlink:href="#path-1"></use>
                    </mask>
                    <use id="Combined-Shape" fill="#000000" fill-rule="nonzero" xlink:href="#path-1"></use>
                    <g id="Group" mask="url(#mask-2)" fill="#595959">
                        <g id="color">
                            <rect id="Rectangle" x="0" y="0" width="16" height="16"></rect>
                        </g>
                    </g>
                </g>
                <rect id="container" x="8" y="8" width="16" height="16"></rect>
            </g>
        </g>
    </g>
</svg>