<?xml version="1.0" encoding="UTF-8"?>
<svg width="16px" height="12px" viewBox="0 0 16 12" version="1.1" xmlns="http://www.w3.org/2000/svg" xmlns:xlink="http://www.w3.org/1999/xlink">
    <title>icon</title>
    <defs>
        <path d="M15.878277,3.87834509 L15.9253333,3.888 C15.9706678,3.90669343 16.0001808,3.95096306 15.9999987,4 L15.9999987,4 L15.9999987,12 C15.9999987,12.7363797 15.4030463,13.3333333 14.6666667,13.3333333 L14.6666667,13.3333333 L1.33333333,13.3333333 C0.596953667,13.3333333 -1.32136845e-06,12.7363797 -1.32136845e-06,12 L-1.32136845e-06,12 L-1.32136845e-06,4 C-0.00022633664,3.95133904 0.028641375,3.90725017 0.0733333333,3.888 C0.118877431,3.86825458 0.171877939,3.87858968 0.206666667,3.914 L0.206666667,3.914 L6.702,10.4106667 C7.41787821,11.1261448 8.57812179,11.1261448 9.294,10.4106667 L9.294,10.4106667 L15.792,3.914 C15.826973,3.87893391 15.8797478,3.86864283 15.9253333,3.888 Z M14.6666667,2.66666667 C14.8493333,2.66666667 15.0533333,2.68666667 15.1266667,2.906 C15.1663728,3.02567274 15.1351556,3.15750718 15.046,3.24666667 L15.046,3.24666667 L8.58866667,9.704 C8.26290796,10.0288058 7.73575871,10.0288058 7.41,9.704 L7.41,9.704 L0.953333333,3.24666667 C0.864177697,3.15750718 0.83296054,3.02567274 0.872666667,2.906 C0.944666667,2.68666667 1.15,2.66666667 1.33333333,2.66666667 L1.33333333,2.66666667 Z" id="path-1"></path>
    </defs>
    <g id="Referring-Provider-List-View" stroke="none" stroke-width="1" fill="none" fill-rule="evenodd">
        <g id="RP-List-Profile-Selected" transform="translate(-799.000000, -152.000000)">
            <g id="icon" transform="translate(799.000000, 150.000000)">
                <mask id="mask-2" fill="white">
                    <use xlink:href="#path-1"></use>
                </mask>
                <use id="Mask" fill="#000000" fill-rule="nonzero" xlink:href="#path-1"></use>
                <g id="Group" mask="url(#mask-2)" fill="#0768FD">
                    <g id="color">
                        <rect id="Rectangle" x="0" y="0" width="16" height="16"></rect>
                    </g>
                </g>
            </g>
        </g>
    </g>
</svg>