<?xml version="1.0" encoding="UTF-8"?>
<svg width="19px" height="24px" viewBox="0 0 19 24" version="1.1" xmlns="http://www.w3.org/2000/svg" xmlns:xlink="http://www.w3.org/1999/xlink">
    <title>icon/lock copy</title>
    <defs>
        <path d="M17,9.5 L16.25,9.5 L16.25,6.75 C16.25,3.02207794 13.2279221,0 9.5,0 C5.77207794,0 2.75,3.02207794 2.75,6.75 L2.75,9.5 L2,9.5 C0.8954305,9.5 0,10.3954305 0,11.5 L0,22 C0,23.1045695 0.8954305,24 2,24 L17,24 C18.1045695,24 19,23.1045695 19,22 L19,11.5 C19,10.3954305 18.1045695,9.5 17,9.5 Z M9.5,18.5 C8.3954305,18.5 7.5,17.6045695 7.5,16.5 C7.5,15.3954305 8.3954305,14.5 9.5,14.5 C10.6045695,14.5 11.5,15.3954305 11.5,16.5 C11.5,17.6045695 10.6045695,18.5 9.5,18.5 Z M13.75,9.00000006 C13.75,9.27614237 13.5261424,9.50000006 13.25,9.50000006 L5.75,9.50000006 C5.47385763,9.50000006 5.25,9.27614237 5.25,9.00000006 L5.25,6.75 C5.25,4.40278984 7.15278984,2.50000006 9.5,2.50000006 C11.8472102,2.50000006 13.75,4.40278984 13.75,6.75 L13.75,9.00000006 Z" id="path-1"></path>
    </defs>
    <g id="Page-1" stroke="none" stroke-width="1" fill="none" fill-rule="evenodd">
        <g id="My-Patients-Landing" transform="translate(-129.000000, -451.000000)">
            <g id="icon/lock-copy" transform="translate(126.000000, 451.000000)">
                <g id="color" transform="translate(3.000000, 0.000000)">
                    <mask id="mask-2" fill="white">
                        <use xlink:href="#path-1"></use>
                    </mask>
                    <use id="Mask" fill="#000000" fill-rule="nonzero" xlink:href="#path-1"></use>
                    <g id="Group" mask="url(#mask-2)">
                        <g transform="translate(-3.000000, 0.000000)" id="color/*primary">
                            <rect id="Rectangle" fill="#000000" x="0" y="0" width="24" height="24"></rect>
                        </g>
                    </g>
                </g>
                <g id="lock-2"></g>
            </g>
        </g>
    </g>
</svg>