<?xml version="1.0" encoding="UTF-8"?>
<svg width="22px" height="20px" viewBox="0 0 22 20" version="1.1" xmlns="http://www.w3.org/2000/svg" xmlns:xlink="http://www.w3.org/1999/xlink">
    <title>icon/filter copy</title>
    <defs>
        <path d="M21.2102587,0.46 C21.059759,0.178049237 20.7526087,0 20.4166718,0 L0.887686274,0 C0.551457454,0 0.244086208,0.178335314 0.0937201085,0.460655337 C-0.056645991,0.742975361 -0.0241959451,1.08081863 0.177541347,1.33333333 L7.98913555,11.1858333 L7.98913555,18.3333333 C7.99638544,19.250974 8.78701109,19.993194 9.76449787,20 C10.1487063,20.0004224 10.5226185,19.8834158 10.8297153,19.6666667 L12.6050776,18.4166667 C13.0513557,18.1013078 13.3142488,17.6077126 13.3152225,17.0833333 L13.3152225,11.1858333 L21.1268167,1.33333333 C21.328713,1.08060191 21.3610238,0.74242662 21.2102587,0.46 Z M4.80857396,1.83333333 L8.30515004,6.20833333 C8.36277037,6.28045674 8.39391816,6.36817908 8.39391816,6.45833333 L8.39391816,7.5 C8.39391816,7.679346 8.27167111,7.83857052 8.09043229,7.89528471 C7.90919348,7.95199889 7.7096306,7.8934768 7.59500512,7.75 L3.21341091,2.33333333 C3.11254227,2.20707598 3.09631724,2.03815435 3.17150029,1.89699434 C3.24668334,1.75583432 3.40036897,1.66666667 3.56848338,1.66666667 L4.45616454,1.66666667 C4.59492868,1.66745006 4.72531647,1.72911498 4.80857396,1.83333333 Z" id="path-1"></path>
    </defs>
    <g id="Referring-Provider-List-View" stroke="none" stroke-width="1" fill="none" fill-rule="evenodd">
        <g id="RP-List-History" transform="translate(-353.000000, -185.000000)">
            <g id="Group-5" transform="translate(65.000000, 103.000000)">
                <g id="icon/filter-copy" transform="translate(288.073249, 82.000000)">
                    <mask id="mask-2" fill="white">
                        <use xlink:href="#path-1"></use>
                    </mask>
                    <use id="Mask" fill="#000000" fill-rule="nonzero" xlink:href="#path-1"></use>
                    <g id="Group" mask="url(#mask-2)">
                        <g transform="translate(-3.550725, -3.333333)" id="color">
                            <rect id="Rectangle" fill="#0768FD" x="0" y="0" width="28.4057971" height="26.6666667"></rect>
                        </g>
                    </g>
                </g>
            </g>
        </g>
    </g>
</svg>