<?xml version="1.0" encoding="UTF-8"?>
<svg width="15px" height="14px" viewBox="0 0 15 14" version="1.1" xmlns="http://www.w3.org/2000/svg" xmlns:xlink="http://www.w3.org/1999/xlink">
    <title>icon/pencil copy 2</title>
    <defs>
        <path d="M1.25773266,9.49317892 C1.35980248,9.46344396 1.46996654,9.49160124 1.54525,9.56666667 L1.54525,9.56666667 L4.43275,12.45475 C4.50813682,12.5300069 4.53650126,12.6403758 4.50674063,12.7426552 C4.47698001,12.8449346 4.39382822,12.9228552 4.28983333,12.9459167 L4.28983333,12.9459167 L0.5775,13.77075 C0.480146259,13.7913154 0.378963177,13.7617489 0.308,13.692 C0.237603671,13.6214261 0.208124344,13.5197884 0.229833333,13.4225 L0.229833333,13.4225 L1.05466667,9.70958333 C1.07785684,9.60583059 1.15566284,9.52291389 1.25773266,9.49317892 Z M10.4136667,4.20466667 C10.4709112,4.14817971 10.5629221,4.14817971 10.6201667,4.20466667 L10.6201667,4.20466667 L11.6515,5.236 C11.7653614,5.34989579 11.7653614,5.53452088 11.6515,5.64841667 L11.6515,5.64841667 L5.46408333,11.8358333 C5.34928462,11.9474931 5.16646538,11.9474931 5.05166667,11.8358333 L5.05166667,11.8358333 L4.02033333,10.8045 C3.96384638,10.7472554 3.96384638,10.6552446 4.02033333,10.598 L4.02033333,10.598 Z M8.35158333,2.34908333 C8.46547912,2.23522193 8.65010421,2.23522193 8.764,2.34908333 L8.764,2.34908333 L9.79533333,3.37983333 C9.85182029,3.43707789 9.85182029,3.52908878 9.79533333,3.58633333 L9.79533333,3.58633333 L3.402,9.97966667 C3.34475544,10.0361536 3.25274456,10.0361536 3.1955,9.97966667 L3.1955,9.97966667 L2.16416667,8.94833333 C2.05030527,8.83443754 2.05030527,8.64981246 2.16416667,8.53591667 L2.16416667,8.53591667 Z M9.79475,0.905333333 C10.7067156,-0.00472716132 12.1832844,-0.00472716132 13.09525,0.905333333 C14.0061412,1.81649965 14.0061412,3.29350035 13.09525,4.20466667 L13.09525,4.20466667 L12.68225,4.61708333 C12.5667231,4.72693536 12.3853603,4.72693536 12.2698333,4.61708333 L12.2698333,4.61708333 L9.38233333,1.73016667 C9.26847193,1.61627088 9.26847193,1.43164579 9.38233333,1.31775 L9.38233333,1.31775 Z" id="path-1"></path>
    </defs>
    <g id="Referring-Provider-List-View" stroke="none" stroke-width="1" fill="none" fill-rule="evenodd">
        <g id="RP-List-Overview-Landing" transform="translate(-403.000000, -256.000000)">
            <g id="icon/pencil-copy-2" transform="translate(403.500000, 256.000000)">
                <mask id="mask-2" fill="white">
                    <use xlink:href="#path-1"></use>
                </mask>
                <use id="Mask" fill="#000000" fill-rule="nonzero" xlink:href="#path-1"></use>
                <g id="Group" mask="url(#mask-2)" fill="#0768FD">
                    <g id="color">
                        <rect id="Rectangle" x="0" y="0" width="14" height="14"></rect>
                    </g>
                </g>
            </g>
        </g>
    </g>
</svg>