<?xml version="1.0" encoding="UTF-8"?>
<svg width="24px" height="24px" viewBox="0 0 24 24" version="1.1" xmlns="http://www.w3.org/2000/svg" xmlns:xlink="http://www.w3.org/1999/xlink">
    <title>icon/status-exclamation</title>
    <defs>
        <path d="M23,10.586 L13.414,1 C12.6330003,0.219236123 11.3669997,0.219236123 10.586,1 L1,10.587 C0.219236123,11.3679997 0.219236123,12.6340003 1,13.415 L1,13.415 L10.586,23 C11.3669997,23.7807639 12.6330003,23.7807639 13.414,23 L23,13.415 C23.375248,13.039904 23.5860729,12.5310734 23.5860729,12.0005 C23.5860729,11.4699266 23.375248,10.961096 23,10.586 Z M11.068,6.417 C11.068,5.86471525 11.5157153,5.417 12.068,5.417 C12.6202847,5.417 13.068,5.86471525 13.068,6.417 L13.068,12.417 C13.068,12.9692847 12.6202847,13.417 12.068,13.417 C11.5157153,13.417 11.068,12.9692847 11.068,12.417 L11.068,6.417 Z M12.119,17.927 L12.091,17.927 C11.2717842,17.9238594 10.6006055,17.2756119 10.569,16.457 C10.5541625,16.0610089 10.6992847,15.6757029 10.9716704,15.387892 C11.2440562,15.1000811 11.6207924,14.9339759 12.017,14.927 L12.045,14.927 C12.8646331,14.9291127 13.5364073,15.5779353 13.567,16.397 C13.5818375,16.7929911 13.4367153,17.1782971 13.1643296,17.466108 C12.8919438,17.7539189 12.5152076,17.9200241 12.119,17.927 Z" id="path-1"></path>
    </defs>
    <g id="Page-1" stroke="none" stroke-width="1" fill="none" fill-rule="evenodd">
        <g id="Login-Validation-Message" transform="translate(-851.000000, -790.000000)">
            <g id="icon/status-exclamation" transform="translate(851.000000, 790.000000)">
                <mask id="mask-2" fill="white">
                    <use xlink:href="#path-1"></use>
                </mask>
                <use id="Mask" fill="#000000" fill-rule="nonzero" xlink:href="#path-1"></use>
                <g id="Group" mask="url(#mask-2)" fill="#ff9500">
                    <g id="color">
                        <rect id="Rectangle" x="0" y="0" width="24" height="24"></rect>
                    </g>
                </g>
            </g>
        </g>
    </g>
</svg>