<?xml version="1.0" encoding="UTF-8"?>
<svg width="354px" height="30px" viewBox="0 0 354 30" version="1.1" xmlns="http://www.w3.org/2000/svg" xmlns:xlink="http://www.w3.org/1999/xlink">
    <!-- Generator: Sketch 53.2 (72643) - https://sketchapp.com -->
    <title>Patient Portal Logo</title>
    <desc>Created with Sketch.</desc>
    <g id="Patient-Portal-Logo" stroke="none" stroke-width="1" fill="none" fill-rule="evenodd" transform="translate(1.000000, 0.000000)">
        <g id="Logo" transform="translate(2.000000, 1.000000)" fill="#FFFFFF" fill-rule="nonzero">
            <path d="M130.376,26 L130.376,1.988 L141.608,1.988 C146.828,1.988 149.672,5.516 149.672,9.728 C149.672,13.904 146.792,17.468 141.608,17.468 L135.488,17.468 L135.488,26 L130.376,26 Z M144.452,9.728 C144.452,7.712 142.94,6.488 140.924,6.488 L135.488,6.488 L135.488,12.968 L140.924,12.968 C142.94,12.968 144.452,11.708 144.452,9.728 Z M163.172,26 L163.172,24.2 C161.984,25.604 159.932,26.432 157.664,26.432 C154.892,26.432 151.616,24.56 151.616,20.672 C151.616,16.604 154.892,15.128 157.664,15.128 C159.968,15.128 162.02,15.848 163.172,17.252 L163.172,14.84 C163.172,13.076 161.66,11.924 159.356,11.924 C157.484,11.924 155.756,12.608 154.28,13.976 L152.552,10.916 C154.676,9.044 157.412,8.18 160.148,8.18 C164.108,8.18 167.744,9.764 167.744,14.768 L167.744,26 L163.172,26 Z M163.172,21.824 L163.172,19.664 C162.416,18.656 160.976,18.152 159.5,18.152 C157.7,18.152 156.224,19.088 156.224,20.78 C156.224,22.4 157.7,23.336 159.5,23.336 C160.976,23.336 162.416,22.832 163.172,21.824 Z M178.112,26.432 C174.908,26.432 173.18,24.776 173.18,21.68 L173.18,12.608 L170.3,12.608 L170.3,8.612 L173.18,8.612 L173.18,3.86 L177.788,3.86 L177.788,8.612 L181.316,8.612 L181.316,12.608 L177.788,12.608 L177.788,20.456 C177.788,21.536 178.364,22.364 179.372,22.364 C180.056,22.364 180.704,22.112 180.956,21.86 L181.928,25.316 C181.244,25.928 180.02,26.432 178.112,26.432 Z M186.716,6.74 C185.24,6.74 183.98,5.516 183.98,4.004 C183.98,2.492 185.24,1.304 186.716,1.304 C188.228,1.304 189.452,2.492 189.452,4.004 C189.452,5.516 188.228,6.74 186.716,6.74 Z M184.448,26 L184.448,8.612 L189.02,8.612 L189.02,26 L184.448,26 Z M192.44,17.288 C192.44,12.248 196.148,8.18 201.44,8.18 C206.624,8.18 210.152,12.068 210.152,17.756 L210.152,18.764 L197.228,18.764 C197.516,20.96 199.28,22.796 202.232,22.796 C203.852,22.796 205.76,22.148 206.876,21.068 L208.892,24.02 C207.164,25.604 204.428,26.432 201.728,26.432 C196.436,26.432 192.44,22.868 192.44,17.288 Z M201.44,11.816 C198.596,11.816 197.372,13.94 197.156,15.668 L205.724,15.668 C205.616,14.012 204.464,11.816 201.44,11.816 Z M225.2,26 L225.2,15.488 C225.2,13.076 223.94,12.248 221.996,12.248 C220.196,12.248 218.792,13.256 218.036,14.3 L218.036,26 L213.464,26 L213.464,8.612 L218.036,8.612 L218.036,10.88 C219.152,9.548 221.276,8.18 224.12,8.18 C227.936,8.18 229.772,10.34 229.772,13.724 L229.772,26 L225.2,26 Z M240.14,26.432 C236.936,26.432 235.208,24.776 235.208,21.68 L235.208,12.608 L232.328,12.608 L232.328,8.612 L235.208,8.612 L235.208,3.86 L239.816,3.86 L239.816,8.612 L243.344,8.612 L243.344,12.608 L239.816,12.608 L239.816,20.456 C239.816,21.536 240.392,22.364 241.4,22.364 C242.084,22.364 242.732,22.112 242.984,21.86 L243.956,25.316 C243.272,25.928 242.048,26.432 240.14,26.432 Z M255.8,26 L255.8,1.988 L267.032,1.988 C272.252,1.988 275.096,5.516 275.096,9.728 C275.096,13.904 272.216,17.468 267.032,17.468 L260.912,17.468 L260.912,26 L255.8,26 Z M269.876,9.728 C269.876,7.712 268.364,6.488 266.348,6.488 L260.912,6.488 L260.912,12.968 L266.348,12.968 C268.364,12.968 269.876,11.708 269.876,9.728 Z M286.22,26.432 C280.496,26.432 277.04,22.256 277.04,17.288 C277.04,12.356 280.496,8.18 286.22,8.18 C291.98,8.18 295.436,12.356 295.436,17.288 C295.436,22.256 291.98,26.432 286.22,26.432 Z M286.22,22.364 C289.064,22.364 290.684,20.024 290.684,17.288 C290.684,14.588 289.064,12.248 286.22,12.248 C283.376,12.248 281.792,14.588 281.792,17.288 C281.792,20.024 283.376,22.364 286.22,22.364 Z M298.82,26 L298.82,8.612 L303.392,8.612 L303.392,10.988 C304.616,9.44 306.776,8.216 308.936,8.216 L308.936,12.68 C308.612,12.608 308.18,12.536 307.676,12.536 C306.164,12.536 304.148,13.4 303.392,14.516 L303.392,26 L298.82,26 Z M317.612,26.432 C314.408,26.432 312.68,24.776 312.68,21.68 L312.68,12.608 L309.8,12.608 L309.8,8.612 L312.68,8.612 L312.68,3.86 L317.288,3.86 L317.288,8.612 L320.816,8.612 L320.816,12.608 L317.288,12.608 L317.288,20.456 C317.288,21.536 317.864,22.364 318.872,22.364 C319.556,22.364 320.204,22.112 320.456,21.86 L321.428,25.316 C320.744,25.928 319.52,26.432 317.612,26.432 Z M334.388,26 L334.388,24.2 C333.2,25.604 331.148,26.432 328.88,26.432 C326.108,26.432 322.832,24.56 322.832,20.672 C322.832,16.604 326.108,15.128 328.88,15.128 C331.184,15.128 333.236,15.848 334.388,17.252 L334.388,14.84 C334.388,13.076 332.876,11.924 330.572,11.924 C328.7,11.924 326.972,12.608 325.496,13.976 L323.768,10.916 C325.892,9.044 328.628,8.18 331.364,8.18 C335.324,8.18 338.96,9.764 338.96,14.768 L338.96,26 L334.388,26 Z M334.388,21.824 L334.388,19.664 C333.632,18.656 332.192,18.152 330.716,18.152 C328.916,18.152 327.44,19.088 327.44,20.78 C327.44,22.4 328.916,23.336 330.716,23.336 C332.192,23.336 333.632,22.832 334.388,21.824 Z M343.496,26 L343.496,1.988 L348.068,1.988 L348.068,26 L343.496,26 Z" id="PatientPortal"></path>
            <path d="M0.376,26 L0.376,1.988 L5.488,1.988 L5.488,26 L0.376,26 Z M34.18,14.012 C34.18,17.396 32.992,20.312 31.048,22.508 L32.812,24.56 L29.248,27.476 L27.34,25.208 C25.648,26 23.704,26.432 21.616,26.432 C14.38,26.432 9.088,21.248 9.088,14.012 C9.088,6.776 14.38,1.592 21.616,1.592 C28.888,1.592 34.18,6.776 34.18,14.012 Z M21.616,21.896 C22.516,21.896 23.38,21.752 24.136,21.464 L21.508,18.404 L25.036,15.488 L27.7,18.584 C28.492,17.324 28.924,15.74 28.924,14.012 C28.924,9.512 26.044,6.128 21.616,6.128 C17.188,6.128 14.344,9.512 14.344,14.012 C14.344,18.476 17.188,21.896 21.616,21.896 Z M44.512,26 L35.224,1.988 L41.056,1.988 L47.716,20.456 L54.34,1.988 L60.172,1.988 L50.92,26 L44.512,26 Z M62.404,26 L62.404,1.988 L67.516,1.988 L67.516,26 L62.404,26 Z M88.828,26 L87.352,21.932 L77.056,21.932 L75.544,26 L69.712,26 L79,1.988 L85.408,1.988 L94.66,26 L88.828,26 Z M82.204,7.1 L78.46,17.432 L85.948,17.432 L82.204,7.1 Z" id="IQVIA"></path>
            <path d="M102.554,13 L102.554,1.93 L98.63,1.93 L98.63,0.994 L107.522,0.994 L107.522,1.93 L103.598,1.93 L103.598,13 L102.554,13 Z M119.834,13 L119.834,2.398 L115.46,13 L115.064,13 L110.672,2.398 L110.672,13 L109.646,13 L109.646,0.994 L111.176,0.994 L115.262,10.894 L119.33,0.994 L120.878,0.994 L120.878,13 L119.834,13 Z" id="TM"></path>
        </g>
    </g>
</svg>