<?xml version="1.0" encoding="UTF-8"?>
<svg width="293px" height="52px" viewBox="0 0 293 52" version="1.1" xmlns="http://www.w3.org/2000/svg" xmlns:xlink="http://www.w3.org/1999/xlink">
    <!-- Generator: Sketch 53.2 (72643) - https://sketchapp.com -->
    <title>Artboard</title>
    <desc>Created with Sketch.</desc>
    <g id="Artboard" stroke="none" stroke-width="1" fill="none" fill-rule="evenodd">
        <g id="Group-2" fill="#000000" fill-rule="nonzero">
            <path d="M50.668,49 L50.668,38.328 L57.836,38.328 L57.836,39.736 L52.268,39.736 L52.268,42.856 L57.724,42.856 L57.724,44.264 L52.268,44.264 L52.268,49 L50.668,49 Z M62.956,49.192 C60.556,49.192 59.052,47.368 59.052,45.128 C59.052,42.904 60.556,41.08 62.956,41.08 C65.372,41.08 66.86,42.904 66.86,45.128 C66.86,47.368 65.372,49.192 62.956,49.192 Z M62.956,47.912 C64.508,47.912 65.356,46.6 65.356,45.128 C65.356,43.672 64.508,42.36 62.956,42.36 C61.42,42.36 60.556,43.672 60.556,45.128 C60.556,46.6 61.42,47.912 62.956,47.912 Z M68.684,49 L68.684,41.272 L70.124,41.272 L70.124,42.456 C70.716,41.688 71.628,41.096 72.652,41.096 L72.652,42.552 C72.508,42.52 72.348,42.504 72.156,42.504 C71.436,42.504 70.46,43.048 70.124,43.624 L70.124,49 L68.684,49 Z M78.252,49 L78.252,38.328 L82.748,38.328 C84.94,38.328 86.156,39.832 86.156,41.608 C86.156,43.384 84.924,44.888 82.748,44.888 L79.852,44.888 L79.852,49 L78.252,49 Z M84.508,41.608 C84.508,40.488 83.692,39.736 82.54,39.736 L79.852,39.736 L79.852,43.48 L82.54,43.48 C83.692,43.48 84.508,42.728 84.508,41.608 Z M92.54,49 L92.54,48.152 C91.932,48.824 91.052,49.192 90.012,49.192 C88.732,49.192 87.324,48.328 87.324,46.632 C87.324,44.872 88.716,44.104 90.012,44.104 C91.052,44.104 91.948,44.44 92.54,45.128 L92.54,43.848 C92.54,42.888 91.756,42.312 90.652,42.312 C89.772,42.312 89.02,42.648 88.332,43.336 L87.708,42.344 C88.572,41.496 89.628,41.08 90.876,41.08 C92.556,41.08 93.98,41.816 93.98,43.784 L93.98,49 L92.54,49 Z M92.54,47.304 L92.54,45.992 C92.108,45.416 91.356,45.112 90.556,45.112 C89.516,45.112 88.78,45.736 88.78,46.648 C88.78,47.56 89.516,48.184 90.556,48.184 C91.356,48.184 92.108,47.88 92.54,47.304 Z M98.412,49.192 C97.196,49.192 96.572,48.504 96.572,47.288 L96.572,42.536 L95.292,42.536 L95.292,41.272 L96.572,41.272 L96.572,39.16 L98.012,39.16 L98.012,41.272 L99.58,41.272 L99.58,42.536 L98.012,42.536 L98.012,46.968 C98.012,47.512 98.268,47.912 98.764,47.912 C99.1,47.912 99.404,47.768 99.548,47.608 L99.916,48.696 C99.612,48.984 99.164,49.192 98.412,49.192 Z M101.884,40.248 C101.388,40.248 100.956,39.832 100.956,39.32 C100.956,38.808 101.388,38.408 101.884,38.408 C102.396,38.408 102.812,38.808 102.812,39.32 C102.812,39.832 102.396,40.248 101.884,40.248 Z M101.18,49 L101.18,41.272 L102.62,41.272 L102.62,49 L101.18,49 Z M104.428,45.128 C104.428,42.888 106.044,41.08 108.3,41.08 C110.62,41.08 112.06,42.888 112.06,45.256 L112.06,45.608 L105.948,45.608 C106.06,46.92 107.02,48.008 108.572,48.008 C109.388,48.008 110.284,47.688 110.86,47.096 L111.532,48.04 C110.764,48.792 109.676,49.192 108.428,49.192 C106.124,49.192 104.428,47.56 104.428,45.128 Z M108.3,42.264 C106.748,42.264 106.012,43.512 105.932,44.568 L110.652,44.568 C110.62,43.544 109.932,42.264 108.3,42.264 Z M119.084,49 L119.084,44.056 C119.084,42.776 118.428,42.36 117.436,42.36 C116.54,42.36 115.724,42.904 115.308,43.48 L115.308,49 L113.868,49 L113.868,41.272 L115.308,41.272 L115.308,42.36 C115.82,41.736 116.844,41.08 118.044,41.08 C119.676,41.08 120.524,41.944 120.524,43.576 L120.524,49 L119.084,49 Z M124.94,49.192 C123.724,49.192 123.1,48.504 123.1,47.288 L123.1,42.536 L121.82,42.536 L121.82,41.272 L123.1,41.272 L123.1,39.16 L124.54,39.16 L124.54,41.272 L126.108,41.272 L126.108,42.536 L124.54,42.536 L124.54,46.968 C124.54,47.512 124.796,47.912 125.292,47.912 C125.628,47.912 125.932,47.768 126.076,47.608 L126.444,48.696 C126.14,48.984 125.692,49.192 124.94,49.192 Z M127.036,47.992 L127.724,46.936 C128.252,47.512 129.276,48.04 130.316,48.04 C131.404,48.04 131.98,47.544 131.98,46.856 C131.98,46.12 131.1,45.912 130.108,45.688 C128.796,45.384 127.26,45.032 127.26,43.368 C127.26,42.136 128.316,41.08 130.204,41.08 C131.532,41.08 132.492,41.56 133.148,42.184 L132.508,43.192 C132.06,42.648 131.196,42.248 130.22,42.248 C129.244,42.248 128.636,42.696 128.636,43.32 C128.636,43.976 129.468,44.152 130.428,44.376 C131.772,44.68 133.372,45.048 133.372,46.824 C133.372,48.152 132.284,49.192 130.252,49.192 C128.956,49.192 127.82,48.792 127.036,47.992 Z M144.092,49 L144.092,48.152 C143.484,48.824 142.604,49.192 141.564,49.192 C140.284,49.192 138.876,48.328 138.876,46.632 C138.876,44.872 140.268,44.104 141.564,44.104 C142.604,44.104 143.5,44.44 144.092,45.128 L144.092,43.848 C144.092,42.888 143.308,42.312 142.204,42.312 C141.324,42.312 140.572,42.648 139.884,43.336 L139.26,42.344 C140.124,41.496 141.18,41.08 142.428,41.08 C144.108,41.08 145.532,41.816 145.532,43.784 L145.532,49 L144.092,49 Z M144.092,47.304 L144.092,45.992 C143.66,45.416 142.908,45.112 142.108,45.112 C141.068,45.112 140.332,45.736 140.332,46.648 C140.332,47.56 141.068,48.184 142.108,48.184 C142.908,48.184 143.66,47.88 144.092,47.304 Z M153.052,49 L153.052,44.056 C153.052,42.776 152.396,42.36 151.404,42.36 C150.508,42.36 149.692,42.904 149.276,43.48 L149.276,49 L147.836,49 L147.836,41.272 L149.276,41.272 L149.276,42.36 C149.788,41.736 150.812,41.08 152.012,41.08 C153.644,41.08 154.492,41.944 154.492,43.576 L154.492,49 L153.052,49 Z M162.284,49 L162.284,47.896 C161.708,48.664 160.78,49.192 159.756,49.192 C157.74,49.192 156.3,47.672 156.3,45.144 C156.3,42.664 157.74,41.08 159.756,41.08 C160.748,41.08 161.66,41.56 162.284,42.392 L162.284,38.328 L163.724,38.328 L163.724,49 L162.284,49 Z M162.284,46.792 L162.284,43.496 C161.884,42.872 161.02,42.36 160.14,42.36 C158.7,42.36 157.804,43.528 157.804,45.144 C157.804,46.744 158.7,47.912 160.14,47.912 C161.02,47.912 161.884,47.416 162.284,46.792 Z M175.276,49.192 C172.172,49.192 169.74,46.952 169.74,43.672 C169.74,40.392 172.172,38.152 175.276,38.152 C177.308,38.152 178.62,39.16 179.452,40.408 L178.092,41.128 C177.532,40.232 176.476,39.576 175.276,39.576 C173.052,39.576 171.388,41.272 171.388,43.672 C171.388,46.056 173.052,47.768 175.276,47.768 C176.476,47.768 177.532,47.112 178.092,46.216 L179.452,46.936 C178.604,48.184 177.308,49.192 175.276,49.192 Z M185.788,49 L185.788,48.152 C185.18,48.824 184.3,49.192 183.26,49.192 C181.98,49.192 180.572,48.328 180.572,46.632 C180.572,44.872 181.964,44.104 183.26,44.104 C184.3,44.104 185.196,44.44 185.788,45.128 L185.788,43.848 C185.788,42.888 185.004,42.312 183.9,42.312 C183.02,42.312 182.268,42.648 181.58,43.336 L180.956,42.344 C181.82,41.496 182.876,41.08 184.124,41.08 C185.804,41.08 187.228,41.816 187.228,43.784 L187.228,49 L185.788,49 Z M185.788,47.304 L185.788,45.992 C185.356,45.416 184.604,45.112 183.804,45.112 C182.764,45.112 182.028,45.736 182.028,46.648 C182.028,47.56 182.764,48.184 183.804,48.184 C184.604,48.184 185.356,47.88 185.788,47.304 Z M189.532,49 L189.532,41.272 L190.972,41.272 L190.972,42.456 C191.564,41.688 192.476,41.096 193.5,41.096 L193.5,42.552 C193.356,42.52 193.196,42.504 193.004,42.504 C192.284,42.504 191.308,43.048 190.972,43.624 L190.972,49 L189.532,49 Z M194.46,45.128 C194.46,42.888 196.076,41.08 198.332,41.08 C200.652,41.08 202.092,42.888 202.092,45.256 L202.092,45.608 L195.98,45.608 C196.092,46.92 197.052,48.008 198.604,48.008 C199.42,48.008 200.316,47.688 200.892,47.096 L201.564,48.04 C200.796,48.792 199.708,49.192 198.46,49.192 C196.156,49.192 194.46,47.56 194.46,45.128 Z M198.332,42.264 C196.78,42.264 196.044,43.512 195.964,44.568 L200.684,44.568 C200.652,43.544 199.964,42.264 198.332,42.264 Z M203.836,50.984 L204.524,49.928 C205.164,50.664 205.948,50.952 207.004,50.952 C208.204,50.952 209.404,50.376 209.404,48.744 L209.404,47.736 C208.812,48.504 207.9,49.064 206.86,49.064 C204.86,49.064 203.42,47.592 203.42,45.064 C203.42,42.584 204.86,41.08 206.86,41.08 C207.868,41.08 208.78,41.56 209.404,42.392 L209.404,41.272 L210.844,41.272 L210.844,48.696 C210.844,51.352 208.908,52.136 207.004,52.136 C205.708,52.136 204.764,51.864 203.836,50.984 Z M209.404,46.632 L209.404,43.496 C209.004,42.872 208.124,42.36 207.26,42.36 C205.82,42.36 204.924,43.48 204.924,45.064 C204.924,46.664 205.82,47.784 207.26,47.784 C208.124,47.784 209.004,47.256 209.404,46.632 Z M213.836,40.248 C213.34,40.248 212.908,39.832 212.908,39.32 C212.908,38.808 213.34,38.408 213.836,38.408 C214.348,38.408 214.764,38.808 214.764,39.32 C214.764,39.832 214.348,40.248 213.836,40.248 Z M213.132,49 L213.132,41.272 L214.572,41.272 L214.572,49 L213.132,49 Z M218.908,49 L215.724,41.272 L217.26,41.272 L219.676,47.336 L222.092,41.272 L223.644,41.272 L220.46,49 L218.908,49 Z M224.332,45.128 C224.332,42.888 225.948,41.08 228.204,41.08 C230.524,41.08 231.964,42.888 231.964,45.256 L231.964,45.608 L225.852,45.608 C225.964,46.92 226.924,48.008 228.476,48.008 C229.292,48.008 230.188,47.688 230.764,47.096 L231.436,48.04 C230.668,48.792 229.58,49.192 228.332,49.192 C226.028,49.192 224.332,47.56 224.332,45.128 Z M228.204,42.264 C226.652,42.264 225.916,43.512 225.836,44.568 L230.556,44.568 C230.524,43.544 229.836,42.264 228.204,42.264 Z M233.772,49 L233.772,41.272 L235.212,41.272 L235.212,42.456 C235.804,41.688 236.716,41.096 237.74,41.096 L237.74,42.552 C237.596,42.52 237.436,42.504 237.244,42.504 C236.524,42.504 235.548,43.048 235.212,43.624 L235.212,49 L233.772,49 Z M238.508,47.992 L239.196,46.936 C239.724,47.512 240.748,48.04 241.788,48.04 C242.876,48.04 243.452,47.544 243.452,46.856 C243.452,46.12 242.572,45.912 241.58,45.688 C240.268,45.384 238.732,45.032 238.732,43.368 C238.732,42.136 239.788,41.08 241.676,41.08 C243.004,41.08 243.964,41.56 244.62,42.184 L243.98,43.192 C243.532,42.648 242.668,42.248 241.692,42.248 C240.716,42.248 240.108,42.696 240.108,43.32 C240.108,43.976 240.94,44.152 241.9,44.376 C243.244,44.68 244.844,45.048 244.844,46.824 C244.844,48.152 243.756,49.192 241.724,49.192 C240.428,49.192 239.292,48.792 238.508,47.992 Z" id="ForPatientsandCaregivers"></path>
            <g id="Logo">
                <path d="M108.98,23 L108.98,2.99 L118.34,2.99 C122.69,2.99 125.06,5.93 125.06,9.44 C125.06,12.92 122.66,15.89 118.34,15.89 L113.24,15.89 L113.24,23 L108.98,23 Z M120.71,9.44 C120.71,7.76 119.45,6.74 117.77,6.74 L113.24,6.74 L113.24,12.14 L117.77,12.14 C119.45,12.14 120.71,11.09 120.71,9.44 Z M136.31,23 L136.31,21.5 C135.32,22.67 133.61,23.36 131.72,23.36 C129.41,23.36 126.68,21.8 126.68,18.56 C126.68,15.17 129.41,13.94 131.72,13.94 C133.64,13.94 135.35,14.54 136.31,15.71 L136.31,13.7 C136.31,12.23 135.05,11.27 133.13,11.27 C131.57,11.27 130.13,11.84 128.9,12.98 L127.46,10.43 C129.23,8.87 131.51,8.15 133.79,8.15 C137.09,8.15 140.12,9.47 140.12,13.64 L140.12,23 L136.31,23 Z M136.31,19.52 L136.31,17.72 C135.68,16.88 134.48,16.46 133.25,16.46 C131.75,16.46 130.52,17.24 130.52,18.65 C130.52,20 131.75,20.78 133.25,20.78 C134.48,20.78 135.68,20.36 136.31,19.52 Z M148.76,23.36 C146.09,23.36 144.65,21.98 144.65,19.4 L144.65,11.84 L142.25,11.84 L142.25,8.51 L144.65,8.51 L144.65,4.55 L148.49,4.55 L148.49,8.51 L151.43,8.51 L151.43,11.84 L148.49,11.84 L148.49,18.38 C148.49,19.28 148.97,19.97 149.81,19.97 C150.38,19.97 150.92,19.76 151.13,19.55 L151.94,22.43 C151.37,22.94 150.35,23.36 148.76,23.36 Z M155.93,6.95 C154.7,6.95 153.65,5.93 153.65,4.67 C153.65,3.41 154.7,2.42 155.93,2.42 C157.19,2.42 158.21,3.41 158.21,4.67 C158.21,5.93 157.19,6.95 155.93,6.95 Z M154.04,23 L154.04,8.51 L157.85,8.51 L157.85,23 L154.04,23 Z M160.7,15.74 C160.7,11.54 163.79,8.15 168.2,8.15 C172.52,8.15 175.46,11.39 175.46,16.13 L175.46,16.97 L164.69,16.97 C164.93,18.8 166.4,20.33 168.86,20.33 C170.21,20.33 171.8,19.79 172.73,18.89 L174.41,21.35 C172.97,22.67 170.69,23.36 168.44,23.36 C164.03,23.36 160.7,20.39 160.7,15.74 Z M168.2,11.18 C165.83,11.18 164.81,12.95 164.63,14.39 L171.77,14.39 C171.68,13.01 170.72,11.18 168.2,11.18 Z M188,23 L188,14.24 C188,12.23 186.95,11.54 185.33,11.54 C183.83,11.54 182.66,12.38 182.03,13.25 L182.03,23 L178.22,23 L178.22,8.51 L182.03,8.51 L182.03,10.4 C182.96,9.29 184.73,8.15 187.1,8.15 C190.28,8.15 191.81,9.95 191.81,12.77 L191.81,23 L188,23 Z M200.45,23.36 C197.78,23.36 196.34,21.98 196.34,19.4 L196.34,11.84 L193.94,11.84 L193.94,8.51 L196.34,8.51 L196.34,4.55 L200.18,4.55 L200.18,8.51 L203.12,8.51 L203.12,11.84 L200.18,11.84 L200.18,18.38 C200.18,19.28 200.66,19.97 201.5,19.97 C202.07,19.97 202.61,19.76 202.82,19.55 L203.63,22.43 C203.06,22.94 202.04,23.36 200.45,23.36 Z M213.5,23 L213.5,2.99 L222.86,2.99 C227.21,2.99 229.58,5.93 229.58,9.44 C229.58,12.92 227.18,15.89 222.86,15.89 L217.76,15.89 L217.76,23 L213.5,23 Z M225.23,9.44 C225.23,7.76 223.97,6.74 222.29,6.74 L217.76,6.74 L217.76,12.14 L222.29,12.14 C223.97,12.14 225.23,11.09 225.23,9.44 Z M238.85,23.36 C234.08,23.36 231.2,19.88 231.2,15.74 C231.2,11.63 234.08,8.15 238.85,8.15 C243.65,8.15 246.53,11.63 246.53,15.74 C246.53,19.88 243.65,23.36 238.85,23.36 Z M238.85,19.97 C241.22,19.97 242.57,18.02 242.57,15.74 C242.57,13.49 241.22,11.54 238.85,11.54 C236.48,11.54 235.16,13.49 235.16,15.74 C235.16,18.02 236.48,19.97 238.85,19.97 Z M249.35,23 L249.35,8.51 L253.16,8.51 L253.16,10.49 C254.18,9.2 255.98,8.18 257.78,8.18 L257.78,11.9 C257.51,11.84 257.15,11.78 256.73,11.78 C255.47,11.78 253.79,12.5 253.16,13.43 L253.16,23 L249.35,23 Z M265.01,23.36 C262.34,23.36 260.9,21.98 260.9,19.4 L260.9,11.84 L258.5,11.84 L258.5,8.51 L260.9,8.51 L260.9,4.55 L264.74,4.55 L264.74,8.51 L267.68,8.51 L267.68,11.84 L264.74,11.84 L264.74,18.38 C264.74,19.28 265.22,19.97 266.06,19.97 C266.63,19.97 267.17,19.76 267.38,19.55 L268.19,22.43 C267.62,22.94 266.6,23.36 265.01,23.36 Z M278.99,23 L278.99,21.5 C278,22.67 276.29,23.36 274.4,23.36 C272.09,23.36 269.36,21.8 269.36,18.56 C269.36,15.17 272.09,13.94 274.4,13.94 C276.32,13.94 278.03,14.54 278.99,15.71 L278.99,13.7 C278.99,12.23 277.73,11.27 275.81,11.27 C274.25,11.27 272.81,11.84 271.58,12.98 L270.14,10.43 C271.91,8.87 274.19,8.15 276.47,8.15 C279.77,8.15 282.8,9.47 282.8,13.64 L282.8,23 L278.99,23 Z M278.99,19.52 L278.99,17.72 C278.36,16.88 277.16,16.46 275.93,16.46 C274.43,16.46 273.2,17.24 273.2,18.65 C273.2,20 274.43,20.78 275.93,20.78 C277.16,20.78 278.36,20.36 278.99,19.52 Z M286.58,23 L286.58,2.99 L290.39,2.99 L290.39,23 L286.58,23 Z" id="PatientPortal"></path>
                <path d="M1.98,23 L1.98,2.99 L6.24,2.99 L6.24,23 L1.98,23 Z M30.15,13.01 C30.15,15.83 29.16,18.26 27.54,20.09 L29.01,21.8 L26.04,24.23 L24.45,22.34 C23.04,23 21.42,23.36 19.68,23.36 C13.65,23.36 9.24,19.04 9.24,13.01 C9.24,6.98 13.65,2.66 19.68,2.66 C25.74,2.66 30.15,6.98 30.15,13.01 Z M19.68,19.58 C20.43,19.58 21.15,19.46 21.78,19.22 L19.59,16.67 L22.53,14.24 L24.75,16.82 C25.41,15.77 25.77,14.45 25.77,13.01 C25.77,9.26 23.37,6.44 19.68,6.44 C15.99,6.44 13.62,9.26 13.62,13.01 C13.62,16.73 15.99,19.58 19.68,19.58 Z M38.76,23 L31.02,2.99 L35.88,2.99 L41.43,18.38 L46.95,2.99 L51.81,2.99 L44.1,23 L38.76,23 Z M53.67,23 L53.67,2.99 L57.93,2.99 L57.93,23 L53.67,23 Z M75.69,23 L74.46,19.61 L65.88,19.61 L64.62,23 L59.76,23 L67.5,2.99 L72.84,2.99 L80.55,23 L75.69,23 Z M70.17,7.25 L67.05,15.86 L73.29,15.86 L70.17,7.25 Z" id="IQVIA"></path>
                <path d="M84.795,10 L84.795,0.775 L81.525,0.775 L81.525,-0.005 L88.935,-0.005 L88.935,0.775 L85.665,0.775 L85.665,10 L84.795,10 Z M99.195,10 L99.195,1.165 L95.55,10 L95.22,10 L91.56,1.165 L91.56,10 L90.705,10 L90.705,-0.005 L91.98,-0.005 L95.385,8.245 L98.775,-0.005 L100.065,-0.005 L100.065,10 L99.195,10 Z" id="TM"></path>
            </g>
        </g>
    </g>
</svg>