<?xml version="1.0" encoding="UTF-8"?>
<svg width="18px" height="18px" viewBox="0 0 18 18" version="1.1" xmlns="http://www.w3.org/2000/svg" xmlns:xlink="http://www.w3.org/1999/xlink">
    <title>Bell Icon</title>
    <defs>
        <path d="M8.58120723,15.7499971 L5.31105723,15.7499971 C5.21813475,15.7501628 5.14011442,15.8217944 5.12970723,15.9165 C5.1217387,15.9856969 5.11783165,16.0553224 5.11800156,16.125 C5.11800156,17.1605339 5.93648667,18 6.94613223,18 C7.95577779,18 8.77426289,17.1605339 8.77426289,16.125 C8.7744328,16.0553224 8.77052576,15.9856969 8.76255723,15.9165 C8.75278977,15.8214572 8.67438584,15.7494735 8.58120723,15.7499971 Z M13.8535197,14.457 C13.0166004,12.750843 12.5794208,10.8679158 12.5767572,8.958 L12.5767572,8.382 C12.6178966,6.11336459 11.5587443,3.97165337 9.74974473,2.6655 C9.23085959,2.32242315 8.6507363,2.0884007 8.04300723,1.977 L8.04300723,1.125 C8.04300723,0.503679656 7.55191956,0 6.94613223,0 C6.34034489,0 5.84925723,0.503679656 5.84925723,1.125 L5.84925723,1.98675 C5.09076874,2.13408475 4.37664623,2.46215118 3.76446348,2.9445 C2.18370491,4.28017189 1.28227059,6.28165685 1.31550723,8.382 L1.31550723,8.958 C1.31284365,10.8679158 0.875664028,12.750843 0.0387447276,14.457 C-0.0179914079,14.5731257 -0.0120964901,14.7110947 0.0543264072,14.8216849 C0.120749304,14.9322752 0.238239913,14.999736 0.364882228,15 L13.5273822,15 C13.6542356,15 13.7719564,14.932304 13.8384233,14.8214876 C13.9048902,14.7106712 13.9106038,14.5724384 13.8535197,14.45625 L13.8535197,14.457 Z" id="path-1"></path>
    </defs>
    <g id="K---Bell-Notifications" stroke="none" stroke-width="1" fill="none" fill-rule="evenodd">
        <g id="Bell-Icon">
            <rect id="Rectangle" x="0" y="0" width="18" height="18"></rect>
            <g id="icon/bell-copy" transform="translate(2.000000, 0.000000)">
                <mask id="mask-2" fill="white">
                    <use xlink:href="#path-1"></use>
                </mask>
                <use id="Mask" fill="#000000" fill-rule="nonzero" xlink:href="#path-1"></use>
                <g id="color" mask="url(#mask-2)" fill="#8A2BE2">
                    <g transform="translate(-2.053868, -0.000000)" id="Rectangle">
                        <rect x="0" y="0" width="18" height="18"></rect>
                    </g>
                </g>
            </g>
        </g>
    </g>
</svg>