<?xml version="1.0" encoding="UTF-8"?>
<svg width="24px" height="24px" viewBox="0 0 24 24" version="1.1" xmlns="http://www.w3.org/2000/svg" xmlns:xlink="http://www.w3.org/1999/xlink">
    <!-- Generator: Sketch 51.3 (57544) - http://www.bohemiancoding.com/sketch -->
    <title>chevron-left</title>
    <desc>Created with Sketch.</desc>
    <defs></defs>
    <g id="Symbols" stroke="none" stroke-width="1" fill="none" fill-rule="evenodd">
        <g id="icon/chevron/left" fill="#000000" fill-rule="nonzero">
            <path d="M4.6573583,8.8569471 L11.5216052,17.0347301 C11.6472478,17.1722476 11.8209365,17.25 12.00249,17.25 C12.1840435,17.25 12.3577321,17.1722476 12.4833747,17.0347301 L19.344497,8.8569471 C19.4553677,8.72587559 19.5108427,8.55322847 19.49824,8.37847372 C19.4856374,8.20371898 19.4060346,8.04179742 19.2776293,7.92972512 L18.1215062,6.90873177 C17.8532684,6.67143801 17.4532094,6.70384137 17.2228548,6.98151935 L12.1202896,13.1802671 C12.09061,13.216459 12.0473681,13.2372751 12.001865,13.2372751 C11.956362,13.2372751 11.9131201,13.216459 11.8834405,13.1802671 L6.77900054,6.9808636 C6.66819419,6.84802037 6.51186956,6.76647559 6.34404826,6.75397619 C6.17593882,6.73824943 6.00891475,6.79454053 5.88097406,6.91004325 L4.72422597,7.92972512 C4.59508204,8.04159857 4.51478596,8.20371865 4.50175037,8.37890974 C4.48910874,8.55388325 4.54534673,8.72664989 4.6573583,8.8569471 Z" id="chevron-left" transform="translate(12.000000, 12.000000) scale(-1, 1) rotate(-90.000000) translate(-12.000000, -12.000000) "></path>
        </g>
    </g>
</svg>