<?xml version="1.0" encoding="utf-8"?>
<!-- Generator: Adobe Illustrator 23.0.2, SVG Export Plug-In . SVG Version: 6.00 Build 0)  -->
<svg version="1.1" id="Layer_1" xmlns="http://www.w3.org/2000/svg" xmlns:xlink="http://www.w3.org/1999/xlink" x="0px" y="0px"
	 viewBox="0 0 121 45" style="enable-background:new 0 0 121 45;" xml:space="preserve">
<style type="text/css">
	.st0{fill-rule:evenodd;clip-rule:evenodd;fill:#00A3E0;}
	.st1{fill-rule:evenodd;clip-rule:evenodd;fill:#005587;}
	.st2{fill-rule:evenodd;clip-rule:evenodd;fill:#7FA9C3;}
	.st3{enable-background:new    ;}
	.st4{fill:#005587;}
</style>
<title>CR logo - 50px H (short)</title>
<desc>Created with Sketch.</desc>
<g id="Symbols">
	<g>
		<g id="IQVIA-logo---20px-H" transform="translate(9.900000, 27.000000)">
			<g id="Group-3" transform="translate(34.141307, 0.326978)">
				<path id="Fill-1" class="st0" d="M11.4,13.4l-0.7-1.3c-0.2-0.5-0.8-0.6-1.3-0.4C8.9,12,8.7,12.5,9,13l0.6,1.1l0,0
					c-0.3,0.1-0.7,0.1-1.1,0.1c-3.4,0.2-6.3-2.4-6.5-5.8C1.9,5.1,4.5,2.2,7.9,2.1c3.4-0.2,6.3,2.4,6.5,5.8
					C14.5,10.2,13.2,12.3,11.4,13.4 M7.8,0.2C3.4,0.4,0,4.2,0.2,8.6c0.2,4.4,4,7.8,8.4,7.6c0.6,0,1.3-0.1,1.9-0.3l0,0l0.6,1.1
					c0.2,0.5,0.8,0.6,1.3,0.4c0.5-0.2,0.6-0.8,0.4-1.3l-0.5-1c2.5-1.5,4.2-4.3,4-7.4C16,3.3,12.2-0.1,7.8,0.2"/>
			</g>
			<path id="Fill-4" class="st0" d="M29.6,16.5c-0.5,0-0.9-0.4-0.9-0.9V1.5c0-0.5,0.4-0.9,0.9-0.9c0.5,0,0.9,0.4,0.9,0.9v14.1
				C30.5,16.1,30.1,16.5,29.6,16.5"/>
			<path id="Fill-6" class="st1" d="M74.7,16.5c-0.5,0-0.9-0.4-0.9-0.9V1.5c0-0.5,0.4-0.9,0.9-0.9c0.5,0,0.9,0.4,0.9,0.9v14.1
				C75.6,16.1,75.2,16.5,74.7,16.5"/>
			<path id="Fill-8" class="st1" d="M61.1,16.5L61.1,16.5c-0.4,0-0.7-0.2-0.8-0.5L52.9,1.9c-0.2-0.5-0.1-1,0.4-1.3
				c0.5-0.2,1-0.1,1.3,0.4l6.5,12.5L67.8,1c0.2-0.5,0.8-0.6,1.3-0.4c0.5,0.2,0.6,0.8,0.4,1.3L62,16C61.8,16.3,61.5,16.5,61.1,16.5"
				/>
			<path id="Fill-10" class="st1" d="M91.2,13.3h-4.6c-0.5,0-0.9-0.4-0.9-0.9c0-0.5,0.4-0.9,0.9-0.9h4.6c0.5,0,0.9,0.4,0.9,0.9
				C92.2,12.9,91.8,13.3,91.2,13.3"/>
			<path id="Fill-12" class="st1" d="M96.4,16.5c-0.3,0-0.7-0.2-0.8-0.5L89,3.5L82.3,16c-0.2,0.5-0.8,0.6-1.3,0.4
				c-0.5-0.2-0.6-0.8-0.4-1.3L88.2,1c0.2-0.3,0.5-0.5,0.8-0.5c0.4,0,0.7,0.2,0.8,0.5l7.4,14.1c0.2,0.5,0.1,1-0.4,1.3
				C96.7,16.4,96.5,16.5,96.4,16.5"/>
			<polygon id="Fill-14" class="st1" points="96.5,2.9 96.2,2.9 96.2,0.8 95.5,0.8 95.5,0.5 97.3,0.5 97.3,0.8 96.5,0.8 			"/>
			<polygon id="Fill-16" class="st1" points="98.8,2.3 98.8,2.3 99.5,0.5 100,0.5 100,2.9 99.7,2.9 99.7,0.9 99.7,0.9 98.9,2.9 
				98.7,2.9 97.9,0.9 97.9,0.9 97.9,2.9 97.6,2.9 97.6,0.5 98.1,0.5 			"/>
			<path id="Fill-18" class="st1" d="M23.1,13.8h-4.7c-0.3,0.6-0.7,1.1-1.1,1.6h5.8c0.4,0,0.8-0.4,0.8-0.8l0,0
				C23.9,14.2,23.6,13.8,23.1,13.8"/>
			<path id="Fill-20" class="st1" d="M23.1,10.8h-3.5c-0.1,0.6-0.3,1.1-0.5,1.6h4c0.4,0,0.8-0.4,0.8-0.8S23.6,10.8,23.1,10.8"/>
			<path id="Fill-22" class="st1" d="M23.1,7.7h-3.3c0,0.3,0,0.5,0,0.8c0,0.3,0,0.6,0,0.9h3.4c0.4,0,0.8-0.4,0.8-0.8
				S23.6,7.7,23.1,7.7"/>
			<path id="Fill-24" class="st1" d="M23.1,4.6h-4c0.2,0.5,0.3,1.1,0.4,1.6h3.5c0.4,0,0.8-0.4,0.8-0.8l0,0C23.9,5,23.6,4.6,23.1,4.6
				"/>
			<path id="Fill-26" class="st1" d="M23.1,1.5h-5.7c0.4,0.5,0.8,1,1.1,1.6h4.6c0.4,0,0.8-0.4,0.8-0.8S23.6,1.5,23.1,1.5"/>
			<path id="Fill-28" class="st0" d="M7.7,14.7L7.7,14.7c0-0.4,0.4-0.8,0.8-0.8H5.4c-0.4,0-0.8,0.4-0.8,0.8l0,0
				c0,0.4,0.4,0.8,0.8,0.8h3.2C8.1,15.5,7.7,15.1,7.7,14.7"/>
			<path id="Fill-30" class="st2" d="M18.5,13.8H8.5c-0.4,0-0.8,0.4-0.8,0.8l0,0c0,0.4,0.4,0.8,0.8,0.8h8.8
				C17.8,15,18.1,14.4,18.5,13.8"/>
			<path id="Fill-32" class="st0" d="M5.5,11.7c-0.1-0.5,0.3-1,0.8-1H3.1c-0.4,0-0.8,0.4-0.8,0.8c0,0.4,0.4,0.8,0.8,0.8h3.2
				C5.9,12.4,5.6,12.1,5.5,11.7"/>
			<path id="Fill-34" class="st2" d="M19.6,10.8H6.3c-0.5,0-0.9,0.5-0.8,1c0.1,0.4,0.4,0.6,0.8,0.6h12.8
				C19.3,11.9,19.5,11.3,19.6,10.8"/>
			<path id="Fill-36" class="st0" d="M3.2,8.7c-0.1-0.5,0.3-1,0.8-1H0.8C0.4,7.7,0,8.1,0,8.5c0,0.4,0.4,0.8,0.8,0.8H4
				C3.6,9.3,3.3,9,3.2,8.7"/>
			<path id="Fill-38" class="st2" d="M3.2,8.7C3.3,9,3.6,9.3,4,9.3h15.8c0-0.3,0-0.6,0-0.9c0-0.3,0-0.5,0-0.8H4
				C3.5,7.7,3.1,8.2,3.2,8.7"/>
			<path id="Fill-40" class="st0" d="M4.3,5.4c0-0.4,0.4-0.8,0.8-0.8H1.9C1.5,4.6,1.1,5,1.1,5.4l0,0c0,0.4,0.4,0.8,0.8,0.8h3.2
				C4.7,6.2,4.3,5.9,4.3,5.4"/>
			<path id="Fill-42" class="st2" d="M19.2,4.6h-14C4.7,4.6,4.3,5,4.3,5.4c0,0.4,0.4,0.8,0.8,0.8h14.5C19.5,5.7,19.3,5.1,19.2,4.6"
				/>
			<path id="Fill-44" class="st0" d="M10.2,2.5c-0.1-0.5,0.3-1,0.8-1H7.8C7.3,1.5,7,1.9,7,2.3c0,0.4,0.4,0.8,0.8,0.8H11
				C10.6,3.2,10.3,2.9,10.2,2.5"/>
			<path id="Fill-46" class="st2" d="M17.4,1.5H11c-0.5,0-0.9,0.5-0.8,1c0.1,0.4,0.4,0.6,0.8,0.6h7.5C18.2,2.6,17.8,2,17.4,1.5"/>
		</g>
		<g class="st3">
			<path class="st4" d="M14.5,9.8c-0.3,0.4-0.7,0.7-1.2,1c-0.5,0.3-1.1,0.4-1.7,0.4c-0.6,0-1.1-0.1-1.6-0.3s-0.9-0.5-1.3-0.8
				C8.4,9.7,8.1,9.3,7.9,8.8s-0.3-1-0.3-1.6c0-0.6,0.1-1.1,0.3-1.6C8.1,5,8.4,4.6,8.7,4.3C9.1,3.9,9.5,3.6,10,3.5
				c0.5-0.2,1-0.3,1.6-0.3c0.3,0,0.5,0,0.8,0.1c0.3,0.1,0.5,0.1,0.8,0.2c0.2,0.1,0.5,0.2,0.7,0.4s0.4,0.3,0.5,0.5L13.6,5
				c-0.2-0.3-0.5-0.5-0.8-0.6c-0.3-0.2-0.7-0.3-1.1-0.3c-0.4,0-0.8,0.1-1.2,0.2S9.8,4.7,9.5,5C9.3,5.3,9.1,5.6,9,6S8.8,6.7,8.8,7.2
				C8.8,7.6,8.8,8,9,8.4c0.1,0.4,0.3,0.7,0.6,1c0.2,0.3,0.6,0.5,0.9,0.7c0.4,0.2,0.8,0.2,1.2,0.2c0.4,0,0.8-0.1,1.2-0.3
				c0.4-0.2,0.6-0.4,0.9-0.8L14.5,9.8z"/>
			<path class="st4" d="M16.6,11h-1V2.8h1V11z"/>
			<path class="st4" d="M19.6,4c0,0.2-0.1,0.3-0.2,0.5c-0.1,0.1-0.3,0.2-0.5,0.2s-0.3-0.1-0.5-0.2S18.2,4.2,18.2,4
				c0-0.2,0.1-0.3,0.2-0.5s0.3-0.2,0.5-0.2s0.3,0.1,0.5,0.2C19.5,3.7,19.6,3.8,19.6,4z M19.4,11h-1V5.9h1V11z"/>
			<path class="st4" d="M22.1,5.9c0,0.1,0,0.3,0,0.4s0,0.3,0,0.4h0c0.1-0.1,0.2-0.3,0.3-0.4c0.1-0.1,0.2-0.2,0.4-0.3
				c0.1-0.1,0.3-0.2,0.5-0.2c0.2-0.1,0.4-0.1,0.5-0.1c0.3,0,0.6,0.1,0.9,0.2c0.2,0.1,0.4,0.3,0.6,0.4c0.2,0.2,0.3,0.4,0.4,0.7
				c0.1,0.3,0.1,0.5,0.1,0.8V11h-1V8.2c0-0.2,0-0.4,0-0.6c0-0.2-0.1-0.4-0.2-0.5c-0.1-0.1-0.2-0.3-0.4-0.3c-0.2-0.1-0.3-0.1-0.6-0.1
				c-0.4,0-0.7,0.2-1,0.5c-0.3,0.3-0.4,0.7-0.4,1.2V11h-1V7c0-0.1,0-0.3,0-0.5c0-0.2,0-0.4,0-0.6H22.1z"/>
			<path class="st4" d="M28.6,4c0,0.2-0.1,0.3-0.2,0.5c-0.1,0.1-0.3,0.2-0.5,0.2s-0.3-0.1-0.5-0.2S27.3,4.2,27.3,4
				c0-0.2,0.1-0.3,0.2-0.5s0.3-0.2,0.5-0.2s0.3,0.1,0.5,0.2C28.6,3.7,28.6,3.8,28.6,4z M28.5,11h-1V5.9h1V11z"/>
			<path class="st4" d="M33.8,7.2c-0.1-0.2-0.3-0.3-0.5-0.4c-0.2-0.1-0.4-0.2-0.7-0.2c-0.3,0-0.5,0.1-0.7,0.2S31.6,7,31.4,7.1
				c-0.1,0.2-0.3,0.4-0.3,0.6C31,8,31,8.2,31,8.4s0,0.5,0.1,0.7c0.1,0.2,0.2,0.4,0.3,0.6c0.1,0.2,0.3,0.3,0.5,0.4
				c0.2,0.1,0.4,0.2,0.7,0.2c0.3,0,0.5,0,0.7-0.2c0.2-0.1,0.4-0.2,0.5-0.4l0.7,0.6c-0.2,0.3-0.5,0.4-0.8,0.6
				c-0.3,0.1-0.7,0.2-1.1,0.2c-0.4,0-0.8-0.1-1.1-0.2c-0.3-0.1-0.6-0.3-0.9-0.5c-0.2-0.2-0.4-0.5-0.6-0.8c-0.1-0.3-0.2-0.7-0.2-1.1
				c0-0.4,0.1-0.8,0.2-1.1s0.3-0.6,0.6-0.9c0.2-0.2,0.5-0.4,0.9-0.6c0.3-0.1,0.7-0.2,1.1-0.2c0.4,0,0.7,0.1,1.1,0.2
				c0.4,0.1,0.6,0.4,0.8,0.6L33.8,7.2z"/>
			<path class="st4" d="M38.8,7.7c0-0.4-0.1-0.7-0.3-0.8c-0.2-0.2-0.5-0.3-0.9-0.3c-0.3,0-0.6,0.1-0.8,0.2c-0.3,0.1-0.5,0.3-0.6,0.4
				l-0.5-0.6c0.3-0.2,0.6-0.4,0.9-0.6c0.4-0.1,0.8-0.2,1.2-0.2c0.4,0,0.7,0.1,1,0.2c0.3,0.1,0.5,0.2,0.7,0.4
				c0.2,0.2,0.3,0.4,0.4,0.6s0.1,0.5,0.1,0.8V10c0,0.2,0,0.4,0,0.5s0,0.3,0.1,0.5h-0.9c-0.1-0.2-0.1-0.5-0.1-0.7h0
				c-0.2,0.3-0.4,0.5-0.7,0.6c-0.3,0.2-0.6,0.2-1,0.2c-0.2,0-0.4,0-0.6-0.1c-0.2-0.1-0.4-0.1-0.6-0.3c-0.2-0.1-0.3-0.3-0.4-0.5
				c-0.1-0.2-0.2-0.5-0.2-0.7c0-0.4,0.1-0.7,0.3-0.9c0.2-0.2,0.5-0.4,0.8-0.5c0.3-0.1,0.7-0.2,1.1-0.2s0.9-0.1,1.3-0.1V7.7z
				 M38.5,8.6c-0.3,0-0.5,0-0.8,0S37.2,8.7,37,8.7c-0.2,0.1-0.4,0.2-0.5,0.3s-0.2,0.3-0.2,0.5c0,0.2,0,0.3,0.1,0.4
				c0.1,0.1,0.1,0.2,0.2,0.2c0.1,0.1,0.2,0.1,0.3,0.1s0.2,0,0.4,0c0.5,0,0.8-0.1,1.1-0.4c0.3-0.3,0.4-0.6,0.4-1.1V8.6H38.5z"/>
			<path class="st4" d="M42.5,11h-1V2.8h1V11z"/>
			<path class="st4" d="M45.4,11h-1.1V3.4h2.5c0.4,0,0.7,0,1,0.1c0.3,0.1,0.6,0.2,0.9,0.4c0.2,0.2,0.4,0.4,0.6,0.7
				c0.1,0.3,0.2,0.6,0.2,1c0,0.6-0.2,1-0.5,1.4s-0.8,0.6-1.3,0.7l2.1,3.5h-1.3l-1.9-3.4h-1.1V11z M45.4,6.7h1.2c0.3,0,0.5,0,0.7-0.1
				s0.4-0.1,0.6-0.2C48,6.3,48.2,6.2,48.3,6c0.1-0.2,0.1-0.3,0.1-0.6s0-0.4-0.1-0.6c-0.1-0.2-0.2-0.3-0.4-0.4
				c-0.2-0.1-0.3-0.2-0.5-0.2c-0.2,0-0.4-0.1-0.7-0.1h-1.3V6.7z"/>
			<path class="st4" d="M55.5,8.4c0,0.1,0,0.1,0,0.2s0,0.1,0,0.2h-4.1c0,0.2,0.1,0.4,0.1,0.6c0.1,0.2,0.2,0.4,0.4,0.5
				c0.2,0.1,0.3,0.2,0.5,0.3c0.2,0.1,0.4,0.1,0.6,0.1c0.3,0,0.6-0.1,0.9-0.2s0.5-0.3,0.6-0.6l0.7,0.6c-0.3,0.4-0.6,0.6-1,0.8
				c-0.4,0.2-0.8,0.3-1.2,0.3c-0.4,0-0.7-0.1-1.1-0.2c-0.3-0.1-0.6-0.3-0.9-0.5c-0.2-0.2-0.4-0.5-0.6-0.8s-0.2-0.7-0.2-1.1
				c0-0.4,0.1-0.8,0.2-1.1c0.1-0.3,0.3-0.6,0.6-0.9c0.2-0.2,0.5-0.4,0.8-0.6c0.3-0.1,0.7-0.2,1-0.2c0.4,0,0.7,0.1,1,0.2
				c0.3,0.1,0.6,0.3,0.8,0.5s0.4,0.5,0.5,0.8C55.5,7.6,55.5,8,55.5,8.4z M54.5,8c0-0.2,0-0.4-0.1-0.6c-0.1-0.2-0.2-0.3-0.3-0.5
				c-0.1-0.1-0.3-0.2-0.4-0.3c-0.2-0.1-0.4-0.1-0.6-0.1c-0.2,0-0.4,0-0.6,0.1C52.3,6.7,52.1,6.8,52,7c-0.1,0.1-0.3,0.3-0.3,0.5
				c-0.1,0.2-0.1,0.4-0.2,0.6H54.5z"/>
			<path class="st4" d="M59.7,7.2c-0.1-0.2-0.3-0.3-0.5-0.5c-0.2-0.1-0.4-0.2-0.7-0.2c-0.1,0-0.2,0-0.3,0c-0.1,0-0.2,0.1-0.3,0.1
				c-0.1,0.1-0.2,0.1-0.2,0.2c-0.1,0.1-0.1,0.2-0.1,0.3c0,0.2,0.1,0.4,0.3,0.5c0.2,0.1,0.5,0.2,0.9,0.3C59,8,59.2,8.1,59.4,8.2
				c0.2,0.1,0.4,0.2,0.5,0.3c0.2,0.1,0.3,0.3,0.4,0.4c0.1,0.2,0.1,0.4,0.1,0.6c0,0.3-0.1,0.6-0.2,0.8s-0.3,0.4-0.5,0.5
				c-0.2,0.1-0.4,0.2-0.7,0.3s-0.5,0.1-0.8,0.1c-0.4,0-0.8-0.1-1.1-0.2c-0.4-0.2-0.7-0.4-0.9-0.7l0.7-0.6c0.1,0.2,0.3,0.4,0.6,0.5
				s0.5,0.2,0.8,0.2c0.1,0,0.3,0,0.4,0c0.1,0,0.2-0.1,0.3-0.1s0.2-0.1,0.2-0.2s0.1-0.2,0.1-0.4c0-0.2-0.1-0.4-0.3-0.5
				c-0.2-0.1-0.6-0.2-1-0.3c-0.2,0-0.3-0.1-0.5-0.2c-0.2-0.1-0.3-0.1-0.5-0.3c-0.1-0.1-0.3-0.2-0.4-0.4c-0.1-0.2-0.1-0.4-0.1-0.6
				c0-0.3,0.1-0.5,0.2-0.7c0.1-0.2,0.3-0.4,0.4-0.5c0.2-0.1,0.4-0.2,0.6-0.3c0.2-0.1,0.5-0.1,0.7-0.1c0.4,0,0.7,0.1,1.1,0.2
				c0.3,0.1,0.6,0.4,0.8,0.6L59.7,7.2z"/>
			<path class="st4" d="M66.5,8.4c0,0.1,0,0.1,0,0.2s0,0.1,0,0.2h-4.1c0,0.2,0.1,0.4,0.1,0.6c0.1,0.2,0.2,0.4,0.4,0.5
				c0.2,0.1,0.3,0.2,0.5,0.3c0.2,0.1,0.4,0.1,0.6,0.1c0.3,0,0.6-0.1,0.9-0.2s0.5-0.3,0.6-0.6l0.7,0.6c-0.3,0.4-0.6,0.6-1,0.8
				c-0.4,0.2-0.8,0.3-1.2,0.3c-0.4,0-0.7-0.1-1.1-0.2c-0.3-0.1-0.6-0.3-0.9-0.5c-0.2-0.2-0.4-0.5-0.6-0.8s-0.2-0.7-0.2-1.1
				c0-0.4,0.1-0.8,0.2-1.1c0.1-0.3,0.3-0.6,0.6-0.9c0.2-0.2,0.5-0.4,0.8-0.6c0.3-0.1,0.7-0.2,1-0.2s0.7,0.1,1,0.2
				c0.3,0.1,0.6,0.3,0.8,0.5s0.4,0.5,0.5,0.8C66.5,7.6,66.5,8,66.5,8.4z M65.5,8c0-0.2,0-0.4-0.1-0.6S65.2,7.1,65.1,7
				c-0.1-0.1-0.3-0.2-0.4-0.3c-0.2-0.1-0.4-0.1-0.6-0.1c-0.2,0-0.4,0-0.6,0.1c-0.2,0.1-0.4,0.2-0.5,0.3c-0.1,0.1-0.3,0.3-0.3,0.5
				c-0.1,0.2-0.1,0.4-0.2,0.6H65.5z"/>
			<path class="st4" d="M71,7.7c0-0.4-0.1-0.7-0.3-0.8c-0.2-0.2-0.5-0.3-0.9-0.3c-0.3,0-0.6,0.1-0.8,0.2c-0.3,0.1-0.5,0.3-0.6,0.4
				l-0.5-0.6c0.3-0.2,0.6-0.4,0.9-0.6s0.8-0.2,1.2-0.2c0.4,0,0.7,0.1,1,0.2c0.3,0.1,0.5,0.2,0.7,0.4c0.2,0.2,0.3,0.4,0.4,0.6
				C72,7.2,72,7.5,72,7.7V10c0,0.2,0,0.4,0,0.5s0,0.3,0.1,0.5h-0.9c-0.1-0.2-0.1-0.5-0.1-0.7h0c-0.2,0.3-0.4,0.5-0.7,0.6
				c-0.3,0.2-0.6,0.2-1,0.2c-0.2,0-0.4,0-0.6-0.1c-0.2-0.1-0.4-0.1-0.6-0.3c-0.2-0.1-0.3-0.3-0.4-0.5c-0.1-0.2-0.2-0.5-0.2-0.7
				c0-0.4,0.1-0.7,0.3-0.9c0.2-0.2,0.5-0.4,0.8-0.5C69,8,69.3,7.9,69.8,7.9s0.9-0.1,1.3-0.1V7.7z M70.8,8.6c-0.3,0-0.5,0-0.8,0
				c-0.3,0-0.5,0.1-0.7,0.1c-0.2,0.1-0.4,0.2-0.5,0.3c-0.1,0.1-0.2,0.3-0.2,0.5c0,0.2,0,0.3,0.1,0.4c0.1,0.1,0.1,0.2,0.2,0.2
				c0.1,0.1,0.2,0.1,0.3,0.1c0.1,0,0.2,0,0.4,0c0.5,0,0.8-0.1,1.1-0.4C70.9,9.6,71,9.3,71,8.8V8.6H70.8z"/>
			<path class="st4" d="M73.7,6.5c0-0.2,0-0.4,0-0.6h1c0,0.1,0,0.3,0,0.4c0,0.2,0,0.3,0,0.4h0c0.1-0.3,0.4-0.5,0.6-0.7
				c0.3-0.2,0.6-0.3,0.9-0.3c0.2,0,0.3,0,0.4,0l0,0.9c-0.1,0-0.3-0.1-0.5-0.1c-0.2,0-0.5,0-0.6,0.1c-0.2,0.1-0.3,0.2-0.4,0.4
				s-0.2,0.3-0.3,0.5c-0.1,0.2-0.1,0.4-0.1,0.6V11h-1V7C73.7,6.8,73.7,6.7,73.7,6.5z"/>
			<path class="st4" d="M81,7.2c-0.1-0.2-0.3-0.3-0.5-0.4c-0.2-0.1-0.4-0.2-0.7-0.2c-0.3,0-0.5,0.1-0.7,0.2S78.7,7,78.6,7.1
				c-0.1,0.2-0.3,0.4-0.3,0.6c-0.1,0.2-0.1,0.5-0.1,0.7s0,0.5,0.1,0.7c0.1,0.2,0.2,0.4,0.3,0.6c0.1,0.2,0.3,0.3,0.5,0.4
				c0.2,0.1,0.4,0.2,0.7,0.2c0.3,0,0.5,0,0.7-0.2c0.2-0.1,0.4-0.2,0.5-0.4l0.7,0.6c-0.2,0.3-0.5,0.4-0.8,0.6s-0.7,0.2-1.1,0.2
				c-0.4,0-0.8-0.1-1.1-0.2c-0.3-0.1-0.6-0.3-0.9-0.5c-0.2-0.2-0.4-0.5-0.6-0.8c-0.1-0.3-0.2-0.7-0.2-1.1c0-0.4,0.1-0.8,0.2-1.1
				s0.3-0.6,0.6-0.9c0.2-0.2,0.5-0.4,0.9-0.6c0.3-0.1,0.7-0.2,1.1-0.2c0.4,0,0.7,0.1,1.1,0.2c0.4,0.1,0.6,0.4,0.8,0.6L81,7.2z"/>
			<path class="st4" d="M83.8,6.7c0.1-0.3,0.3-0.5,0.6-0.6c0.3-0.2,0.6-0.3,1-0.3c0.3,0,0.6,0.1,0.9,0.2c0.2,0.1,0.4,0.3,0.6,0.4
				C87,6.5,87.2,6.8,87.2,7c0.1,0.3,0.1,0.5,0.1,0.8V11h-1V8.2c0-0.2,0-0.4,0-0.6c0-0.2-0.1-0.4-0.2-0.5c-0.1-0.1-0.2-0.3-0.4-0.3
				c-0.1-0.1-0.3-0.1-0.6-0.1c-0.4,0-0.7,0.2-1,0.5c-0.3,0.3-0.4,0.7-0.4,1.2V11h-1V2.8h1L83.8,6.7L83.8,6.7z"/>
			<path class="st4" d="M90.3,10.4c0,0.2-0.1,0.4-0.2,0.5c-0.1,0.1-0.3,0.2-0.5,0.2c-0.2,0-0.4-0.1-0.5-0.2
				c-0.1-0.1-0.2-0.3-0.2-0.5c0-0.2,0.1-0.4,0.2-0.5s0.3-0.2,0.5-0.2s0.4,0.1,0.5,0.2S90.3,10.2,90.3,10.4z"/>
			<path class="st4" d="M95.5,7.2C95.4,7,95.2,6.9,95,6.8c-0.2-0.1-0.4-0.2-0.7-0.2c-0.3,0-0.5,0.1-0.7,0.2S93.2,7,93.1,7.1
				c-0.1,0.2-0.3,0.4-0.3,0.6c-0.1,0.2-0.1,0.5-0.1,0.7s0,0.5,0.1,0.7c0.1,0.2,0.2,0.4,0.3,0.6c0.1,0.2,0.3,0.3,0.5,0.4
				c0.2,0.1,0.4,0.2,0.7,0.2c0.3,0,0.5,0,0.7-0.2c0.2-0.1,0.4-0.2,0.5-0.4l0.7,0.6c-0.2,0.3-0.5,0.4-0.8,0.6s-0.7,0.2-1.1,0.2
				c-0.4,0-0.8-0.1-1.1-0.2c-0.3-0.1-0.6-0.3-0.9-0.5c-0.2-0.2-0.4-0.5-0.6-0.8c-0.1-0.3-0.2-0.7-0.2-1.1c0-0.4,0.1-0.8,0.2-1.1
				s0.3-0.6,0.6-0.9c0.2-0.2,0.5-0.4,0.9-0.6c0.3-0.1,0.7-0.2,1.1-0.2c0.4,0,0.7,0.1,1.1,0.2c0.4,0.1,0.6,0.4,0.8,0.6L95.5,7.2z"/>
			<path class="st4" d="M102.4,8.4c0,0.4-0.1,0.8-0.2,1.1c-0.1,0.3-0.3,0.6-0.6,0.9s-0.5,0.4-0.9,0.6c-0.3,0.1-0.7,0.2-1.1,0.2
				s-0.8-0.1-1.1-0.2c-0.3-0.1-0.6-0.3-0.9-0.6s-0.4-0.5-0.6-0.9c-0.1-0.3-0.2-0.7-0.2-1.1s0.1-0.8,0.2-1.1c0.1-0.3,0.3-0.6,0.6-0.8
				c0.2-0.2,0.5-0.4,0.9-0.6c0.3-0.1,0.7-0.2,1.1-0.2s0.8,0.1,1.1,0.2c0.3,0.1,0.6,0.3,0.9,0.6c0.2,0.2,0.4,0.5,0.6,0.8
				C102.3,7.7,102.4,8,102.4,8.4z M101.3,8.4c0-0.2,0-0.5-0.1-0.7c-0.1-0.2-0.2-0.4-0.3-0.6s-0.3-0.3-0.5-0.4s-0.5-0.2-0.7-0.2
				s-0.5,0-0.7,0.2S98.5,7,98.4,7.1S98.1,7.5,98,7.7C98,8,97.9,8.2,97.9,8.4c0,0.2,0,0.5,0.1,0.7c0.1,0.2,0.2,0.4,0.3,0.6
				c0.1,0.2,0.3,0.3,0.5,0.4s0.5,0.2,0.7,0.2s0.5,0,0.7-0.2s0.4-0.2,0.5-0.4c0.1-0.2,0.3-0.4,0.3-0.6C101.3,8.9,101.3,8.7,101.3,8.4
				z"/>
			<path class="st4" d="M105.4,6c0.3-0.2,0.6-0.3,1-0.3c0.3,0,0.7,0.1,0.9,0.2c0.3,0.2,0.5,0.4,0.7,0.8c0.2-0.3,0.4-0.6,0.7-0.8
				c0.3-0.2,0.6-0.3,1-0.3c0.3,0,0.6,0.1,0.9,0.2c0.2,0.1,0.4,0.3,0.6,0.4c0.2,0.2,0.3,0.4,0.4,0.7c0.1,0.3,0.1,0.5,0.1,0.8V11h-1
				V8.2c0-0.2,0-0.4-0.1-0.6c0-0.2-0.1-0.4-0.2-0.5c-0.1-0.1-0.2-0.3-0.3-0.3c-0.1-0.1-0.3-0.1-0.6-0.1c-0.2,0-0.4,0-0.6,0.1
				c-0.2,0.1-0.3,0.2-0.4,0.4c-0.1,0.2-0.2,0.3-0.2,0.5s-0.1,0.4-0.1,0.6V11h-1V8c0-0.2,0-0.4-0.1-0.6c0-0.2-0.1-0.3-0.2-0.4
				c-0.1-0.1-0.2-0.2-0.3-0.3s-0.3-0.1-0.5-0.1c-0.4,0-0.7,0.2-0.9,0.5c-0.2,0.3-0.4,0.7-0.4,1.2V11h-1V7c0-0.1,0-0.3,0-0.5
				c0-0.2,0-0.4,0-0.6h1c0,0.1,0,0.3,0,0.4c0,0.2,0,0.3,0,0.4h0C104.9,6.4,105.1,6.2,105.4,6z"/>
		</g>
		<rect id="Rectangle-6" y="18" class="st1" width="120.6" height="1"/>
	</g>
</g>
</svg>
