<?xml version="1.0" encoding="UTF-8"?>
<svg width="40px" height="40px" viewBox="0 0 40 40" version="1.1" xmlns="http://www.w3.org/2000/svg" xmlns:xlink="http://www.w3.org/1999/xlink">
    <title>Group 4</title>
    <g id="---↳--Televisits" stroke="none" stroke-width="1" fill="none" fill-rule="evenodd">
        <g id="Televisits---Desktop-4" transform="translate(-934.000000, -300.000000)">
            <g id="Group-3" transform="translate(368.000000, 272.000000)">
                <g id="Group-4" transform="translate(566.000000, 28.000000)">
                    <circle id="Oval" fill="#ECF3FF" cx="20" cy="20" r="20"></circle>
                    <g id="multiple-actions-information-copy" transform="translate(8.000000, 8.000000)" fill="#444444" fill-rule="nonzero">
                        <path d="M17.5037569,11 C13.913906,11 11.0037569,13.9101491 11.0037569,17.5 C11.0037569,21.0898509 13.913906,24 17.5037569,24 C21.0936078,24 24.0037569,21.0898509 24.0037569,17.5 C23.999349,13.9119765 21.0917804,11.0044079 17.5037569,11 L17.5037569,11 Z M17.0037569,13.25 C17.5560416,13.25 18.0037569,13.6977153 18.0037569,14.25 C18.0037569,14.8022847 17.5560416,15.25 17.0037569,15.25 C16.4514721,15.25 16.0037569,14.8022847 16.0037569,14.25 C16.0037569,13.6977153 16.4514721,13.25 17.0037569,13.25 Z M19.0037569,21.75 L16.0037569,21.75 C15.5895433,21.75 15.2537569,21.4142136 15.2537569,21 C15.2537569,20.5857864 15.5895433,20.25 16.0037569,20.25 L16.5037569,20.25 C16.6418281,20.25 16.7537569,20.1380712 16.7537569,20 L16.7537569,18 C16.754024,17.9336143 16.7277706,17.8698705 16.6808285,17.8229284 C16.6338864,17.7759863 16.5701426,17.7497329 16.5037569,17.75 L16.0037569,17.75 C15.5895433,17.75 15.2537569,17.4142136 15.2537569,17 C15.2537569,16.5857864 15.5895433,16.25 16.0037569,16.25 L17.0037569,16.25 C17.6936562,16.2511012 18.2526557,16.8101007 18.2537569,17.5 L18.2537569,20 C18.2537569,20.1380712 18.3656857,20.25 18.5037569,20.25 L19.0037569,20.25 C19.4179705,20.25 19.7537569,20.5857864 19.7537569,21 C19.7537569,21.4142136 19.4179705,21.75 19.0037569,21.75 Z" id="Shape"></path>
                        <path d="M12.0267569,8.534 C11.8854202,8.59789744 11.7817418,8.72377114 11.7461065,8.87473168 C11.7104712,9.02569221 11.7469148,9.1846427 11.8447569,9.305 C12.1442809,9.67470977 12.4078107,10.072181 12.6317569,10.492 C12.6968106,10.6127267 12.8085958,10.7014343 12.9409455,10.7373578 C13.0732952,10.7732812 13.2145906,10.753267 13.3317569,10.682 C14.5856024,9.90805198 16.030284,9.49874862 17.5037569,9.5 C17.6474728,9.50092734 17.7741778,9.40592734 17.813568,9.26771178 C17.8529583,9.12949621 17.7953701,8.98197422 17.6727569,8.907 C15.9712209,7.84734738 13.8529071,7.7074021 12.0267569,8.534 L12.0267569,8.534 Z" id="Path"></path>
                        <ellipse id="Oval" cx="14.0167569" cy="3.5" rx="3.513" ry="3.5"></ellipse>
                        <path d="M11.5667569,11.733 C10.5237816,9.18765862 7.88953041,7.67167043 5.16475415,8.04870424 C2.4399779,8.42573806 0.316366919,10.600083 0.0037568958,13.333 C-0.0153919557,13.5033795 0.0392629739,13.6738118 0.153926771,13.8012797 C0.268590569,13.9287476 0.43230805,14.0010727 0.603756896,14.0000118 L10.0147569,14.0000118 C10.1991977,14.000074 10.3687009,13.8986027 10.4557569,13.736 C10.7397995,13.2041566 11.083335,12.7062986 11.4797569,12.252 C11.6048148,12.1094885 11.6385061,11.9085022 11.5667569,11.733 Z" id="Path"></path>
                        <ellipse id="Oval" cx="5.5167569" cy="3.5" rx="3.513" ry="3.5"></ellipse>
                    </g>
                </g>
            </g>
        </g>
    </g>
</svg>