<?xml version="1.0" encoding="UTF-8"?>
<svg width="24px" height="24px" viewBox="0 0 24 24" version="1.1" xmlns="http://www.w3.org/2000/svg" xmlns:xlink="http://www.w3.org/1999/xlink">
    <!-- Generator: Sketch 51.3 (57544) - http://www.bohemiancoding.com/sketch -->
    <title>arrow-up</title>
    <desc>Created with Sketch.</desc>
    <defs></defs>
    <g id="Symbols" stroke="none" stroke-width="1" fill="none" fill-rule="evenodd">
        <g id="icon/arrow/up" fill="#000000" fill-rule="nonzero">
            <g id="keyboard-arrow-up" transform="translate(6.000000, 0.000000)">
                <path fill="#9E54B0" d="M11.485,5.062 L6.707,0.284 C6.30977074,-0.0907513369 5.68922926,-0.0907513369 5.292,0.284 L0.515,5.062 C0.229092084,5.34799425 0.143578094,5.77803662 0.298322022,6.15165456 C0.45306595,6.5252725 0.817604102,6.76891365 1.222,6.769 L4.25,6.769 C4.38807119,6.769 4.5,6.88092881 4.5,7.019 L4.5,22.492 C4.5,23.3204271 5.17157288,23.992 6,23.992 C6.82842712,23.992 7.5,23.3204271 7.5,22.492 L7.5,7.019 C7.49973285,6.95261434 7.52598627,6.88887053 7.5729284,6.8419284 C7.61987053,6.79498627 7.68361434,6.76873285 7.75,6.769 L10.778,6.769 C11.1823959,6.76891365 11.5469341,6.5252725 11.701678,6.15165456 C11.8564219,5.77803662 11.7709079,5.34799425 11.485,5.062 Z" id="Shape"></path>
            </g>
        </g>
    </g>
</svg>