<?xml version="1.0" encoding="UTF-8"?>
<svg width="24px" height="24px" viewBox="0 0 24 24" version="1.1" xmlns="http://www.w3.org/2000/svg" xmlns:xlink="http://www.w3.org/1999/xlink">
    <!-- Generator: Sketch 51.3 (57544) - http://www.bohemiancoding.com/sketch -->
    <title>bell</title>
    <desc>Created with Sketch.</desc>
    <defs></defs>
    <g id="Symbols" stroke="none" stroke-width="1" fill="none" fill-rule="evenodd">
        <g id="icon/utility/bell" fill="#000000" fill-rule="nonzero">
            <g id="alarm-bell-1" transform="translate(2.000000, 0.000000)">
                <path fill="#FF9300" d="M12.236,21 L7.764,21 C7.63692653,21.0002171 7.53023206,21.0957258 7.516,21.222 C7.50510286,21.3142625 7.4997599,21.4070965 7.5,21.5 C7.5,22.8807119 8.61928813,24 10,24 C11.3807119,24 12.5,22.8807119 12.5,21.5 C12.5002401,21.4070965 12.4948971,21.3142625 12.484,21.222 C12.4706428,21.0952763 12.3634237,20.999298 12.236,21 Z" id="Shape"></path>
                <path fill="#FF9300" d="M19.446,19.276 C18.301495,17.001124 17.7036425,14.4905544 17.7,11.944 L17.7,11.176 C17.756259,8.15115278 16.3078455,5.29553783 13.834,3.554 C13.1244135,3.0965642 12.3310825,2.78453427 11.5,2.636 L11.5,1.5 C11.5,0.671572875 10.8284271,5.07265313e-17 10,0 C9.17157288,-5.07265313e-17 8.5,0.671572875 8.5,1.5 L8.5,2.649 C7.46275079,2.84544634 6.486173,3.28286824 5.649,3.926 C3.48727888,5.70689585 2.25454818,8.37554247 2.3,11.176 L2.3,11.944 C2.29635751,14.4905544 1.69850503,17.001124 0.554,19.276 C0.476412122,19.4308343 0.484473548,19.6147929 0.57530828,19.7622466 C0.666143011,19.9097002 0.826813929,19.999648 1,20 L19,20 C19.1734747,19.9998216 19.3344604,19.9097386 19.4253553,19.7619834 C19.5162503,19.6142282 19.5240637,19.4299179 19.446,19.275 L19.446,19.276 Z" id="Shape"></path>
            </g>
        </g>
    </g>
</svg>