<?xml version="1.0" encoding="UTF-8"?>
<svg width="24px" height="24px" viewBox="0 0 24 24" version="1.1" xmlns="http://www.w3.org/2000/svg" xmlns:xlink="http://www.w3.org/1999/xlink">
    <!-- Generator: Sketch 51.3 (57544) - http://www.bohemiancoding.com/sketch -->
    <title>pencil</title>
    <desc>Created with Sketch.</desc>
    <defs></defs>
    <g id="Symbols" stroke="none" stroke-width="1" fill="none" fill-rule="evenodd">
        <g id="icon/utility/pencil" fill="#0768FD" fill-rule="nonzero">
            <g id="pencil-2">
                <path d="M2.649,16.4 C2.51994265,16.2713164 2.33108997,16.2230468 2.15611314,16.274021 C1.9811363,16.3249952 1.84775458,16.4671381 1.808,16.645 L0.394,23.01 C0.356784589,23.1767802 0.407320578,23.3510162 0.528,23.472 C0.649651161,23.5915696 0.823107873,23.642255 0.99,23.607 L7.354,22.193 C7.53227694,22.1534661 7.67482287,22.0198878 7.72584108,21.8445517 C7.7768593,21.6692157 7.72823455,21.4800117 7.599,21.351 L2.649,16.4 Z" id="Shape"></path>
                <path d="M17.852,7.208 L6.892,18.168 C6.79516521,18.2661335 6.79516521,18.4238665 6.892,18.522 L8.66,20.29 C8.8567978,20.4814168 9.1702022,20.4814168 9.367,20.29 L19.974,9.683 C20.169191,9.48775007 20.169191,9.17124993 19.974,8.976 L18.206,7.208 C18.1078665,7.11116521 17.9501335,7.11116521 17.852,7.208 Z" id="Shape"></path>
                <path d="M16.792,5.794 L15.024,4.027 C14.8287501,3.83180903 14.5122499,3.83180903 14.317,4.027 L3.71,14.633 C3.51480903,14.8282499 3.51480903,15.1447501 3.71,15.34 L5.478,17.108 C5.57613353,17.2048348 5.73386647,17.2048348 5.832,17.108 L16.792,6.148 C16.8888348,6.04986647 16.8888348,5.89213353 16.792,5.794 Z" id="Shape"></path>
                <path d="M22.449,1.552 C20.8856304,-0.00810370513 18.3543696,-0.00810370513 16.791,1.552 L16.084,2.259 C15.888809,2.45424993 15.888809,2.77075007 16.084,2.966 L21.034,7.915 C21.2320462,8.10331775 21.5429538,8.10331775 21.741,7.915 L22.449,7.208 C24.0105278,5.64600059 24.0105278,3.11399941 22.449,1.552 Z" id="Shape"></path>
            </g>
        </g>
    </g>
</svg>