<?xml version="1.0" encoding="UTF-8"?>
<svg width="24px" height="24px" viewBox="0 0 24 24" version="1.1" xmlns="http://www.w3.org/2000/svg" xmlns:xlink="http://www.w3.org/1999/xlink">
    <title>status-negative</title>
    <defs>
        <path fill="#0768FD" d="M12,0 C5.372583,0 0,5.372583 0,12 C0,18.627417 5.372583,24 12,24 C18.627417,24 24,18.627417 24,12 C23.9928352,5.37555305 18.624447,0.00716484761 12,0 Z M18.5,13 C18.5,13.2761424 18.2761424,13.5 18,13.5 L6,13.5 C5.72385763,13.5 5.5,13.2761424 5.5,13 L5.5,11 C5.5,10.7238576 5.72385763,10.5 6,10.5 L18,10.5 C18.2761424,10.5 18.5,10.7238576 18.5,11 L18.5,13 Z" id="path-1"></path>
    </defs>
    <g id="SH38311-Study-Files/Nurse-Credentials" stroke="none" stroke-width="1" fill="none" fill-rule="evenodd">
        <g id="icon/status-negative">
            <mask id="mask-2" fill="white">
                <use xlink:href="#path-1"></use>
            </mask>
            <use id="status-negative" fill="#000000" fill-rule="nonzero" xlink:href="#path-1"></use>
        </g>
    </g>
</svg>