<?xml version="1.0" encoding="UTF-8"?>
<svg width="24px" height="24px" viewBox="0 0 24 24" version="1.1" xmlns="http://www.w3.org/2000/svg" xmlns:xlink="http://www.w3.org/1999/xlink">
    <title>icon/house</title>
    <defs>
        <path d="M10.7880668,6.45545504 C11.4882427,5.84818165 12.5137026,5.84818165 13.2138786,6.45545504 L13.2138786,6.45545504 L21.2869491,13.4373661 C21.7259626,13.8438713 21.9835881,14.4169279 22,15.0232573 L22,15.0232573 L22,22.0051683 C22.0101721,23.094896 21.1580999,23.9873982 20.0954417,24 L20.0954417,24 L14.8566998,24 C14.3252568,23.9939726 13.8990656,23.547559 13.9044665,23.0025841 L13.9044665,23.0025841 L13.9044665,17.5167969 C13.9093299,16.9720439 13.4834486,16.5259549 12.9522333,16.5193811 L12.9522333,16.5193811 L11.0477667,16.5193811 C10.5165514,16.5259549 10.0906701,16.9720439 10.0955335,17.5167969 L10.0955335,17.5167969 L10.0955335,23.0025841 C10.1009344,23.547559 9.67474323,23.9939726 9.14330021,24 L9.14330021,24 L3.90455828,24 C2.84190005,23.9873982 1.98982795,23.094896 2,22.0051683 L2,22.0051683 L2,15.0232573 C2.01837776,14.4186992 2.27661124,13.8480148 2.7149962,13.4433505 L2.7149962,13.4433505 Z M9.79516524,0.779594662 C11.0740172,-0.259864887 12.9208755,-0.259864887 14.1997274,0.779594662 L14.1997274,0.779594662 L23.442975,8.31437544 C24.0881972,8.84692116 24.1868581,9.78869762 23.6656546,10.4399831 C23.4193671,10.750526 23.056019,10.9495355 22.6584317,10.9916494 C22.2608445,11.0337634 21.8628999,10.9153929 21.5553054,10.6635193 L21.5553054,10.6635193 L12.3120579,3.12873853 C12.1295311,2.97978838 11.8653615,2.97978838 11.6828347,3.12873853 L11.6828347,3.12873853 L2.43958722,10.6635193 C2.13205012,10.9132363 1.73541922,11.0302804 1.33927332,10.9882173 C0.943127423,10.9461542 0.580880371,10.7485319 0.334345411,10.4399831 C-0.186858102,9.78869762 -0.0881971706,8.84692116 0.55702504,8.31437544 L0.55702504,8.31437544 Z" id="path-1"></path>
    </defs>
    <g id="3---Ready-for-UI-🖥" stroke="none" stroke-width="1" fill="none" fill-rule="evenodd">
        <g id="icon/house">
            <mask id="mask-2" fill="white">
                <use xlink:href="#path-1"></use>
            </mask>
            <use id="Combined-Shape" fill="#000000" fill-rule="nonzero" xlink:href="#path-1"></use>
            <g id="color" mask="url(#mask-2)" fill="#FFFFFF">
                <g transform="translate(-2.400000, -2.400000)" id="Rectangle">
                    <rect x="0" y="0" width="28.8" height="28.8"></rect>
                </g>
            </g>
        </g>
    </g>
</svg>