<?xml version="1.0" encoding="UTF-8"?>
<svg width="85px" height="26px" viewBox="0 0 85 26" version="1.1" xmlns="http://www.w3.org/2000/svg" xmlns:xlink="http://www.w3.org/1999/xlink">
    <title>footer/ui/logo</title>
    <defs>
        <path d="M80.1149854,24.8941689 C79.9857456,24.801807 79.8932895,24.6450642 79.8932895,24.4608356 C79.8932895,24.1659213 80.1336257,23.9356356 80.4296345,23.9356356 C80.5869591,23.9356356 80.6886111,23.9814451 80.762924,24.0366642 C81.299269,24.4608356 81.8728947,24.7005308 82.5760088,24.7005308 C83.2791228,24.7005308 83.7232602,24.3684737 83.7232602,23.8895785 L83.7232602,23.8707594 C83.7232602,23.4099404 83.4642836,23.1610832 82.2616082,22.8847404 C80.8829678,22.5529308 80.1057895,22.1473308 80.1057895,20.9585118 L80.1057895,20.9396927 C80.1057895,19.8338261 81.0310965,19.0686832 82.3170322,19.0686832 C83.1312427,19.0686832 83.7881287,19.2806451 84.3707018,19.6679213 C84.5004386,19.7417118 84.620731,19.898207 84.620731,20.1195785 C84.620731,20.4142451 84.3798977,20.6447785 84.0841374,20.6447785 C83.9730409,20.6447785 83.8805848,20.6172927 83.7881287,20.5620737 C83.2885673,20.2391785 82.8071491,20.0732737 82.2983918,20.0732737 C81.6325585,20.0732737 81.243845,20.4142451 81.243845,20.8381689 L81.243845,20.8567404 C81.243845,21.3547023 81.5398538,21.5760737 82.7887573,21.8707404 C84.1582018,22.2025499 84.8613158,22.6911023 84.8613158,23.7603213 L84.8613158,23.7786451 C84.8613158,24.9860356 83.9084211,25.7053689 82.5481725,25.7053689 C81.6693421,25.7053689 80.8367398,25.4285308 80.1149854,24.8941689 Z M73.6656725,25.0415023 L73.6656725,19.7323023 C73.6656725,19.4099023 73.9154532,19.1610451 74.2395468,19.1610451 L78.0046491,19.1610451 C78.2822661,19.1610451 78.513655,19.3913308 78.513655,19.6679213 C78.513655,19.9536737 78.2822661,20.1750451 78.0046491,20.1750451 L74.8037281,20.1750451 L74.8037281,21.8524166 L77.588348,21.8524166 C77.8659649,21.8524166 78.0973538,22.0829499 78.0973538,22.3687023 C78.0973538,22.6450451 77.8659649,22.8664166 77.588348,22.8664166 L74.8037281,22.8664166 L74.8037281,24.599007 L78.0511257,24.599007 C78.3284942,24.599007 78.559883,24.8295404 78.559883,25.1061308 C78.559883,25.3918832 78.3284942,25.613007 78.0511257,25.613007 L74.2395468,25.613007 C73.9154532,25.613007 73.6656725,25.3641499 73.6656725,25.0415023 Z M70.3809942,19.6770832 C70.3809942,19.3635975 70.6307749,19.1147404 70.9546199,19.1147404 C71.269269,19.1147404 71.5188012,19.3635975 71.5188012,19.6770832 L71.5188012,25.0967213 C71.5188012,25.410207 71.269269,25.6590642 70.9546199,25.6590642 C70.6307749,25.6590642 70.3809942,25.410207 70.3809942,25.0967213 L70.3809942,19.6770832 Z M62.3584357,22.4051023 L62.3584357,22.3867785 C62.3584357,20.5803975 63.7462719,19.0503594 65.6982895,19.0503594 C66.6698246,19.0503594 67.3172661,19.2806451 67.9095322,19.7045689 C68.0203801,19.7877689 68.1409211,19.9445118 68.1409211,20.165388 C68.1409211,20.4697118 67.8908918,20.7277308 67.5764912,20.7277308 C67.4283626,20.7277308 67.3172661,20.6631023 67.2248099,20.5984737 C66.8085088,20.2946451 66.3551754,20.0918451 65.6520614,20.0918451 C64.4585819,20.0918451 63.5519152,21.1335785 63.5519152,22.3687023 L63.5519152,22.3867785 C63.5519152,23.7142642 64.4307456,24.6913689 65.7537135,24.6913689 C66.3643713,24.6913689 66.9196053,24.4979785 67.3172661,24.2025689 L67.3172661,22.9951785 L66.0405263,22.9951785 C65.7631579,22.9951785 65.531769,22.7832166 65.531769,22.5068737 C65.531769,22.2300356 65.7631579,22.0089118 66.0405263,22.0089118 L67.8446637,22.0089118 C68.1685088,22.0089118 68.4182895,22.2580166 68.4182895,22.5804166 L68.4182895,24.3040927 C68.4182895,24.6267404 68.2885526,24.8572737 68.0203801,25.0231785 C67.4653947,25.3918832 66.6882164,25.7236927 65.7169298,25.7236927 C63.6905994,25.7236927 62.3584357,24.2857689 62.3584357,22.4051023 Z M59.6558333,22.4051023 L59.6558333,22.3867785 C59.6558333,21.1335785 58.7397222,20.0918451 57.4540351,20.0918451 C56.1678509,20.0918451 55.2703801,21.1147594 55.2703801,22.3687023 L55.2703801,22.3867785 C55.2703801,23.6404737 56.1864912,24.6730451 57.4724269,24.6730451 C58.7583626,24.6730451 59.6558333,23.6590451 59.6558333,22.4051023 Z M54.0771491,22.4051023 L54.0771491,22.3867785 C54.0771491,20.5712356 55.4833772,19.0503594 57.4724269,19.0503594 C59.4614766,19.0503594 60.8493129,20.5526642 60.8493129,22.3687023 L60.8493129,22.3867785 C60.8493129,24.2025689 59.4430848,25.7236927 57.4540351,25.7236927 C55.4647368,25.7236927 54.0771491,24.2211404 54.0771491,22.4051023 Z M48.5901754,19.6770832 C48.5901754,19.3635975 48.8394591,19.1147404 49.1635526,19.1147404 C49.4782018,19.1147404 49.7279825,19.3635975 49.7279825,19.6770832 L49.7279825,24.5806832 L52.6604825,24.5806832 C52.9472953,24.5806832 53.1786842,24.8109689 53.1786842,25.0967213 C53.1786842,25.3824737 52.9472953,25.613007 52.6604825,25.613007 L49.1635526,25.613007 C48.8394591,25.613007 48.5901754,25.3641499 48.5901754,25.0415023 L48.5901754,19.6770832 Z M45.6002632,22.4051023 L45.6002632,22.3867785 C45.6002632,21.1335785 44.6846491,20.0918451 43.3984649,20.0918451 C42.1125292,20.0918451 41.2150585,21.1147594 41.2150585,22.3687023 L41.2150585,22.3867785 C41.2150585,23.6404737 42.1309211,24.6730451 43.4171053,24.6730451 C44.7030409,24.6730451 45.6002632,23.6590451 45.6002632,22.4051023 Z M40.0215789,22.4051023 L40.0215789,22.3867785 C40.0215789,20.5712356 41.427807,19.0503594 43.4171053,19.0503594 C45.406155,19.0503594 46.7939912,20.5526642 46.7939912,22.3687023 L46.7939912,22.3867785 C46.7939912,24.2025689 45.3877632,25.7236927 43.3984649,25.7236927 C41.4094152,25.7236927 40.0215789,24.2211404 40.0215789,22.4051023 Z M32.5820906,19.695407 C32.5820906,19.3821689 32.8318713,19.1239023 33.1559649,19.1239023 L33.2760088,19.1239023 C33.5536257,19.1239023 33.7107018,19.2620737 33.8682749,19.4557118 L37.1062281,23.6313118 L37.1062281,19.6679213 C37.1062281,19.3635975 37.3560088,19.1147404 37.661462,19.1147404 C37.9758626,19.1147404 38.2256433,19.3635975 38.2256433,19.6679213 L38.2256433,25.0875594 C38.2256433,25.4010451 37.985307,25.6499023 37.6706579,25.6499023 L37.6241813,25.6499023 C37.3560088,25.6499023 37.1894883,25.5117308 37.0321637,25.3089308 L33.7015058,21.0134832 L33.7015058,25.1061308 C33.7015058,25.410207 33.4517251,25.6590642 33.1465205,25.6590642 C32.8318713,25.6590642 32.5820906,25.410207 32.5820906,25.1061308 L32.5820906,19.695407 Z M25.1334064,19.6770832 C25.1334064,19.3635975 25.3829386,19.1147404 25.7070322,19.1147404 C26.0216813,19.1147404 26.271462,19.3635975 26.271462,19.6770832 L26.271462,21.843007 L29.3612865,21.843007 L29.3612865,19.6770832 C29.3612865,19.3635975 29.6110673,19.1147404 29.9257164,19.1147404 C30.2495614,19.1147404 30.4990936,19.3635975 30.4990936,19.6770832 L30.4990936,25.0967213 C30.4990936,25.410207 30.2495614,25.6590642 29.9257164,25.6590642 C29.6110673,25.6590642 29.3612865,25.410207 29.3612865,25.0967213 L29.3612865,22.8939023 L26.271462,22.8939023 L26.271462,25.0967213 C26.271462,25.410207 26.0216813,25.6590642 25.7070322,25.6590642 C25.3829386,25.6590642 25.1334064,25.410207 25.1334064,25.0967213 L25.1334064,19.6770832 Z M17.601462,22.4051023 L17.601462,22.3867785 C17.601462,20.5526642 18.9798538,19.0503594 20.9413158,19.0503594 C21.9404386,19.0503594 22.5973246,19.3452737 23.1617544,19.778607 C23.2817982,19.8704737 23.3839474,20.0272166 23.3839474,20.2300166 C23.3839474,20.5435023 23.1339181,20.7831975 22.8195175,20.7831975 C22.6619444,20.7831975 22.5510965,20.7277308 22.4770322,20.6725118 C22.0331433,20.3129689 21.5517251,20.0918451 20.9321199,20.0918451 C19.7016082,20.0918451 18.7949415,21.1055975 18.7949415,22.3687023 L18.7949415,22.3867785 C18.7949415,23.6498832 19.6924123,24.6730451 20.9321199,24.6730451 C21.6165936,24.6730451 22.0793713,24.4516737 22.5510965,24.0552356 C22.6343567,23.9814451 22.7544006,23.9262261 22.8933333,23.9262261 C23.1801462,23.9262261 23.4299269,24.1659213 23.4299269,24.4516737 C23.4299269,24.6267404 23.3466667,24.7649118 23.2450146,24.8572737 C22.6343567,25.3918832 21.9404386,25.7236927 20.8950877,25.7236927 C19.0076901,25.7236927 17.601462,24.2580356 17.601462,22.4051023 Z M11.2724415,25.0415023 L11.2724415,19.7323023 C11.2724415,19.4099023 11.5219737,19.1610451 11.8458187,19.1610451 L15.6114181,19.1610451 C15.8887865,19.1610451 16.1199269,19.3913308 16.1199269,19.6679213 C16.1199269,19.9536737 15.8887865,20.1750451 15.6114181,20.1750451 L12.4102485,20.1750451 L12.4102485,21.8524166 L15.1948684,21.8524166 C15.4724854,21.8524166 15.7038743,22.0829499 15.7038743,22.3687023 C15.7038743,22.6450451 15.4724854,22.8664166 15.1948684,22.8664166 L12.4102485,22.8664166 L12.4102485,24.599007 L15.6573977,24.599007 C15.9350146,24.599007 16.1664035,24.8295404 16.1664035,25.1061308 C16.1664035,25.3918832 15.9350146,25.613007 15.6573977,25.613007 L11.8458187,25.613007 C11.5219737,25.613007 11.2724415,25.3641499 11.2724415,25.0415023 Z M6.45105263,20.2114451 L4.87830409,20.2114451 C4.58229532,20.2114451 4.35115497,19.9719975 4.35115497,19.6862451 C4.35115497,19.4007404 4.58229532,19.1610451 4.87830409,19.1610451 L9.18049708,19.1610451 C9.4670614,19.1610451 9.69845029,19.4007404 9.69845029,19.6862451 C9.69845029,19.9719975 9.4670614,20.2114451 9.18049708,20.2114451 L7.59830409,20.2114451 L7.59830409,25.0967213 C7.59830409,25.410207 7.33907895,25.6590642 7.02467836,25.6590642 C6.71027778,25.6590642 6.45105263,25.410207 6.45105263,25.0967213 L6.45105263,20.2114451 L6.45105263,20.2114451 Z M39.6281433,11.5380927 L39.0323977,10.4047404 C38.8206433,10.0018642 38.3213304,9.84635941 37.9169591,10.0573308 C37.5125877,10.2683023 37.3565058,10.7660166 37.5685088,11.1686451 L38.0877047,12.1563975 L38.0804971,12.1591213 C37.7844883,12.2267213 37.4790351,12.2715404 37.1656287,12.2876356 C34.2229386,12.441407 31.7035088,10.181388 31.5491667,7.24957846 C31.3948246,4.31776894 33.6634795,1.80765465 36.6061696,1.65388322 C39.5488596,1.50035941 42.0680409,3.76037846 42.222383,6.69218798 C42.3295029,8.72613084 41.2694883,10.5560356 39.6281433,11.5380927 Z M36.5194298,0.00969274468 C32.6668421,0.210759411 29.6968129,3.49740703 29.8986257,7.33574989 C30.1006871,11.1740927 33.3992836,14.133388 37.2521199,13.9323213 C37.812076,13.9028546 38.3526462,13.8067785 38.8683626,13.6547404 L38.8740789,13.6525118 L39.3984942,14.6504166 C39.6102485,15.0530451 40.1095614,15.2085499 40.5139327,14.9975785 C40.9180556,14.7868546 41.0741374,14.2891404 40.8626316,13.8862642 L40.3953801,12.997807 C42.5902193,11.7243023 44.0145906,9.30209274 43.872924,6.60601655 C43.6711111,2.76742608 40.3722661,-0.191621541 36.5194298,0.00969274468 L36.5194298,0.00969274468 Z M25.771652,13.902607 C25.3153363,13.902607 24.9452632,13.5341499 24.9452632,13.0795213 L24.9452632,0.862245126 C24.9452632,0.407616554 25.3153363,0.0391594113 25.771652,0.0391594113 C26.2279678,0.0391594113 26.5980409,0.407616554 26.5980409,0.862245126 L26.5980409,13.0795213 C26.5980409,13.5341499 26.2279678,13.902607 25.771652,13.902607 M65.0103363,13.902607 C64.5537719,13.902607 64.1839474,13.5341499 64.1839474,13.0795213 L64.1839474,0.862245126 C64.1839474,0.407616554 64.5537719,0.0391594113 65.0103363,0.0391594113 C65.466652,0.0391594113 65.8364766,0.407616554 65.8364766,0.862245126 L65.8364766,13.0795213 C65.8364766,13.5341499 65.466652,13.902607 65.0103363,13.902607 M53.2375877,13.902607 C53.236345,13.902607 53.2353509,13.902607 53.2343567,13.902607 C52.9281579,13.9016166 52.6475585,13.7317499 52.5053947,13.4613499 L46.0849123,1.24432132 C45.8731579,0.841445126 46.0294883,0.343978459 46.4338596,0.13300703 C46.838231,-0.0779643982 47.3372953,0.0777879828 47.5490497,0.480416554 L53.2445468,11.3177118 L59.0516374,0.474721316 C59.2666228,0.073578459 59.7674269,-0.0777167791 60.1695614,0.135978459 C60.572193,0.350168935 60.7245468,0.848873697 60.5098099,1.25001655 L53.9665497,13.4670451 C53.8228947,13.7354642 53.5425439,13.902607 53.2375877,13.902607 M77.5040936,0.0391594113 C77.8105409,0.0403975066 78.0911404,0.210264173 78.2330556,0.480416554 L84.6537865,12.6976927 C84.8655409,13.1003213 84.7094591,13.5980356 84.3050877,13.809007 C84.182807,13.8726451 84.0513304,13.9028546 83.9223392,13.9028546 C83.6245906,13.9028546 83.3370322,13.7423975 83.1894006,13.4613499 L77.494152,2.62430227 L71.6870614,13.4670451 C71.472076,13.8684356 70.9712719,14.0199785 70.5688889,13.805788 C70.1662573,13.5920927 70.014152,13.0931404 70.2288889,12.6919975 L76.7719006,0.474721316 C76.9160526,0.205559411 77.1971491,0.0295022685 77.5040936,0.0391594113 Z M79.4496491,9.48458798 C79.9059649,9.48458798 80.276038,9.85329274 80.276038,10.3079213 C80.276038,10.7625499 79.9059649,11.1312546 79.4496491,11.1312546 L75.4665789,11.1312546 C75.0102632,11.1312546 74.6401901,10.7625499 74.6401901,10.3079213 C74.6401901,9.85329274 75.0102632,9.48458798 75.4665789,9.48458798 L79.4496491,9.48458798 Z M14.7912427,11.6108927 L4.67897661,11.6108927 C4.29225146,11.6108927 3.97561404,11.9263594 3.97561404,12.3119023 C3.97561404,12.6971975 4.29225146,13.0126642 4.67897661,13.0126642 L14.7912427,13.0126642 C15.1782164,13.0126642 15.4946053,12.6971975 15.4946053,12.3119023 C15.4946053,11.9263594 15.1782164,11.6108927 14.7912427,11.6108927 M17.2187135,13.0126642 C16.8317398,13.0126642 16.5151023,12.6971975 16.5151023,12.3119023 C16.5151023,11.9263594 16.8317398,11.6111404 17.2187135,11.6111404 L20.1532018,11.6111404 C20.5401754,11.6111404 20.8568129,11.9263594 20.8568129,12.3119023 C20.8568129,12.6971975 20.5401754,13.0126642 20.1532018,13.0126642 L17.2187135,13.0126642 M18.592383,10.3415975 C18.2056579,10.3415975 17.8890205,10.0261308 17.8890205,9.6408356 C17.8890205,9.25529274 18.2056579,8.93982608 18.592383,8.93982608 L20.1532018,8.93982608 C20.5401754,8.93982608 20.8568129,9.25529274 20.8568129,9.6408356 C20.8568129,10.0261308 20.5401754,10.3415975 20.1532018,10.3415975 L18.592383,10.3415975 M18.9865643,7.67053084 C18.5998392,7.67053084 18.2829532,7.35506417 18.2829532,6.96952132 C18.2829532,6.58422608 18.5998392,6.26875941 18.9865643,6.26875941 L20.1532018,6.26875941 C20.5401754,6.26875941 20.8568129,6.58422608 20.8568129,6.96952132 C20.8568129,7.35506417 20.5401754,7.67053084 20.1532018,7.67053084 L18.9865643,7.67053084 M18.6159942,4.99921655 C18.2290205,4.99921655 17.9126316,4.68399751 17.9126316,4.29845465 C17.9126316,3.91291179 18.2290205,3.59769274 18.6159942,3.59769274 L20.1532018,3.59769274 C20.5401754,3.59769274 20.8568129,3.91291179 20.8568129,4.29845465 C20.8568129,4.68399751 20.5401754,4.99921655 20.1532018,4.99921655 L18.6159942,4.99921655 M17.2801023,2.32814989 C16.8933772,2.32814989 16.5767398,2.01268322 16.5767398,1.62738798 C16.5767398,1.24184513 16.8933772,0.926626078 17.2801023,0.926626078 L20.1532018,0.926626078 C20.5401754,0.926626078 20.8568129,1.24184513 20.8568129,1.62738798 C20.8568129,2.01268322 20.5401754,2.32814989 20.1532018,2.32814989 L17.2801023,2.32814989 M16.1651608,8.93982608 L2.69961988,8.93982608 C2.3126462,8.93982608 1.99625731,9.25529274 1.99625731,9.6408356 C1.99625731,10.0261308 2.3126462,10.3415975 2.69961988,10.3415975 L16.1651608,10.3415975 C16.551886,10.3415975 16.8685234,10.0261308 16.8685234,9.6408356 C16.8685234,9.25529274 16.551886,8.93982608 16.1651608,8.93982608 M16.5593421,6.26875941 L0.703362573,6.26875941 C0.316637427,6.26875941 -1.27364785e-12,6.58422608 -1.27364785e-12,6.96952132 C-1.27364785e-12,7.35506417 0.316637427,7.67053084 0.703362573,7.67053084 L16.5593421,7.67053084 C16.9460673,7.67053084 17.2627047,7.35506417 17.2627047,6.96952132 C17.2627047,6.58422608 16.9460673,6.26875941 16.5593421,6.26875941 M16.1887719,3.59769274 L1.70149123,3.59769274 C1.31451754,3.59769274 0.998128655,3.91291179 0.998128655,4.29845465 C0.998128655,4.68399751 1.31451754,4.99921655 1.70149123,4.99921655 L16.1887719,4.99921655 C16.5754971,4.99921655 16.8921345,4.68399751 16.8921345,4.29845465 C16.8921345,3.91291179 16.5754971,3.59769274 16.1887719,3.59769274 M14.8528801,0.926626078 L6.79502924,0.926626078 C6.40830409,0.926626078 6.09166667,1.24184513 6.09166667,1.62738798 C6.09166667,2.01268322 6.40830409,2.32814989 6.79502924,2.32814989 L14.8528801,2.32814989 C15.2396053,2.32814989 15.5562427,2.01268322 15.5562427,1.62738798 C15.5562427,1.24184513 15.2396053,0.926626078 14.8528801,0.926626078" id="path-1"></path>
    </defs>
    <g id="3---Ready-for-UI-🖥" stroke="none" stroke-width="1" fill="none" fill-rule="evenodd">
        <g id="Current-PP---Account-Settings---OPT1---Mobile" transform="translate(-24.000000, -1967.000000)">
            <g id="Group-2" transform="translate(24.000000, 1964.000000)">
                <g id="footer/ui/logo" transform="translate(0.000000, 3.000000)">
                    <mask id="mask-2" fill="white">
                        <use xlink:href="#path-1"></use>
                    </mask>
                    <use id="Mask" fill="#005587" xlink:href="#path-1"></use>
                    <g id="color/5-#B5B5B5" mask="url(#mask-2)" fill="#005587">
                        <g transform="translate(-1.076798, -3.201279)" id="Rectangle">
                            <rect x="0" y="0" width="88" height="32"></rect>
                        </g>
                    </g>
                </g>
            </g>
        </g>
    </g>
</svg>