<?xml version="1.0" encoding="UTF-8"?>
<svg width="142px" height="13px" viewBox="0 0 142 13" version="1.1" xmlns="http://www.w3.org/2000/svg" xmlns:xlink="http://www.w3.org/1999/xlink">
    <title>Group 13</title>
    <g id="3---Ready-for-UI-🖥" stroke="none" stroke-width="1" fill="none" fill-rule="evenodd">
        <g id="PP-Lite---Account-Settings---Desktop" transform="translate(-33.000000, -25.000000)" fill="#FFFFFF" fill-rule="nonzero">
            <g id="Group-17" transform="translate(0.000000, -0.000000)">
                <g id="Group-13" transform="translate(33.248000, 25.704000)">
                    <g id="IQVIA" transform="translate(0.000000, 0.448000)">
                        <polygon id="Path" points="0 10.848 1.328 10.848 1.328 0.176 0 0.176"></polygon>
                        <path d="M13.984,5.52 C13.984,2.368 11.84,0 8.688,0 C5.52,0 3.392,2.368 3.392,5.52 C3.392,8.672 5.52,11.04 8.688,11.04 C9.792,11.04 10.768,10.752 11.584,10.24 L12.608,11.344 L13.536,10.544 L12.528,9.456 C13.456,8.464 13.984,7.088 13.984,5.52 Z M8.688,9.856 C6.288,9.856 4.768,8 4.768,5.52 C4.768,3.024 6.288,1.184 8.688,1.184 C11.072,1.184 12.608,3.024 12.608,5.52 C12.608,6.704 12.256,7.744 11.632,8.496 L10.128,6.88 L9.2,7.664 L10.72,9.312 C10.144,9.664 9.472,9.856 8.688,9.856 Z" id="Shape"></path>
                        <polygon id="Path" points="19.248 10.848 20.896 10.848 25.2 0.176 23.68 0.176 20.08 9.392 16.48 0.176 14.96 0.176"></polygon>
                        <polygon id="Path" points="26.592 10.848 27.92 10.848 27.92 0.176 26.592 0.176"></polygon>
                        <path d="M38.08,10.848 L39.552,10.848 L35.248,0.176 L33.6,0.176 L29.312,10.848 L30.784,10.848 L31.728,8.48 L37.136,8.48 L38.08,10.848 Z M34.432,1.36 L36.736,7.296 L32.112,7.296 L34.432,1.36 Z" id="Shape"></path>
                    </g>
                    <g id="Patient-Portal" transform="translate(44.808000, 0.000000)">
                        <path d="M0,11.296 L2.272,11.296 L2.272,7.472 L4.992,7.472 C7.296,7.472 8.576,5.92 8.576,4.064 C8.576,2.192 7.312,0.624 4.992,0.624 L0,0.624 L0,11.296 Z M6.256,4.048 C6.256,4.944 5.584,5.52 4.688,5.52 L2.272,5.52 L2.272,2.576 L4.688,2.576 C5.584,2.576 6.256,3.168 6.256,4.048 Z" id="Shape"></path>
                        <path d="M14.576,11.296 L16.608,11.296 L16.608,6.304 C16.608,4.08 14.992,3.376 13.232,3.376 C12.016,3.376 10.8,3.76 9.856,4.592 L10.624,5.952 C11.28,5.344 12.048,5.04 12.88,5.04 C13.904,5.04 14.576,5.552 14.576,6.336 L14.576,7.408 C14.064,6.784 13.152,6.464 12.128,6.464 C10.896,6.464 9.44,7.12 9.44,8.928 C9.44,10.656 10.896,11.488 12.128,11.488 C13.136,11.488 14.048,11.12 14.576,10.496 L14.576,11.296 Z M14.576,9.44 C14.24,9.888 13.6,10.112 12.944,10.112 C12.144,10.112 11.488,9.696 11.488,8.976 C11.488,8.24 12.144,7.808 12.944,7.808 C13.6,7.808 14.24,8.032 14.576,8.48 L14.576,9.44 Z" id="Shape"></path>
                        <path d="M21.216,11.488 C22.064,11.488 22.608,11.264 22.912,10.992 L22.48,9.456 C22.368,9.568 22.08,9.68 21.776,9.68 C21.328,9.68 21.072,9.312 21.072,8.832 L21.072,5.344 L22.64,5.344 L22.64,3.568 L21.072,3.568 L21.072,1.456 L19.024,1.456 L19.024,3.568 L17.744,3.568 L17.744,5.344 L19.024,5.344 L19.024,9.376 C19.024,10.752 19.792,11.488 21.216,11.488 Z" id="Path"></path>
                        <path d="M25.04,2.432 C25.712,2.432 26.256,1.888 26.256,1.216 C26.256,0.544 25.712,0 25.04,0 C24.384,0 23.824,0.544 23.824,1.216 C23.824,1.888 24.384,2.432 25.04,2.432 Z M24.032,11.296 L26.064,11.296 L26.064,3.568 L24.032,3.568 L24.032,11.296 Z" id="Shape"></path>
                        <path d="M27.584,7.424 C27.584,9.904 29.36,11.488 31.712,11.488 C32.912,11.488 34.112,11.136 34.896,10.416 L34,9.104 C33.504,9.584 32.656,9.872 31.936,9.872 C30.624,9.872 29.84,9.056 29.712,8.08 L35.456,8.08 L35.456,7.632 C35.456,5.104 33.888,3.376 31.584,3.376 C29.232,3.376 27.584,5.184 27.584,7.424 Z M31.584,4.992 C32.928,4.992 33.44,5.968 33.488,6.704 L29.68,6.704 C29.776,5.936 30.32,4.992 31.584,4.992 Z" id="Shape"></path>
                        <path d="M42.144,11.296 L44.176,11.296 L44.176,5.84 C44.176,4.336 43.36,3.376 41.664,3.376 C40.4,3.376 39.456,3.984 38.96,4.576 L38.96,3.568 L36.928,3.568 L36.928,11.296 L38.96,11.296 L38.96,6.096 C39.296,5.632 39.92,5.184 40.72,5.184 C41.584,5.184 42.144,5.552 42.144,6.624 L42.144,11.296 Z" id="Path"></path>
                        <path d="M48.784,11.488 C49.632,11.488 50.176,11.264 50.48,10.992 L50.048,9.456 C49.936,9.568 49.648,9.68 49.344,9.68 C48.896,9.68 48.64,9.312 48.64,8.832 L48.64,5.344 L50.208,5.344 L50.208,3.568 L48.64,3.568 L48.64,1.456 L46.592,1.456 L46.592,3.568 L45.312,3.568 L45.312,5.344 L46.592,5.344 L46.592,9.376 C46.592,10.752 47.36,11.488 48.784,11.488 Z" id="Path"></path>
                        <path d="M55.744,11.296 L58.016,11.296 L58.016,7.472 L60.736,7.472 C63.04,7.472 64.32,5.92 64.32,4.064 C64.32,2.192 63.056,0.624 60.736,0.624 L55.744,0.624 L55.744,11.296 Z M62,4.048 C62,4.944 61.328,5.52 60.432,5.52 L58.016,5.52 L58.016,2.576 L60.432,2.576 C61.328,2.576 62,3.168 62,4.048 Z" id="Shape"></path>
                        <path d="M69.264,11.488 C71.824,11.488 73.36,9.632 73.36,7.424 C73.36,5.232 71.824,3.376 69.264,3.376 C66.72,3.376 65.184,5.232 65.184,7.424 C65.184,9.632 66.72,11.488 69.264,11.488 Z M69.264,9.68 C68,9.68 67.296,8.64 67.296,7.424 C67.296,6.224 68,5.184 69.264,5.184 C70.528,5.184 71.248,6.224 71.248,7.424 C71.248,8.64 70.528,9.68 69.264,9.68 Z" id="Shape"></path>
                        <path d="M74.864,11.296 L76.896,11.296 L76.896,6.192 C77.232,5.696 78.128,5.328 78.8,5.328 C79.024,5.328 79.216,5.344 79.36,5.376 L79.36,3.392 C78.4,3.392 77.44,3.936 76.896,4.624 L76.896,3.568 L74.864,3.568 L74.864,11.296 Z" id="Path"></path>
                        <path d="M83.216,11.488 C84.064,11.488 84.608,11.264 84.912,10.992 L84.48,9.456 C84.368,9.568 84.08,9.68 83.776,9.68 C83.328,9.68 83.072,9.312 83.072,8.832 L83.072,5.344 L84.64,5.344 L84.64,3.568 L83.072,3.568 L83.072,1.456 L81.024,1.456 L81.024,3.568 L79.744,3.568 L79.744,5.344 L81.024,5.344 L81.024,9.376 C81.024,10.752 81.792,11.488 83.216,11.488 Z" id="Path"></path>
                        <path d="M90.672,11.296 L92.704,11.296 L92.704,6.304 C92.704,4.08 91.088,3.376 89.328,3.376 C88.112,3.376 86.896,3.76 85.952,4.592 L86.72,5.952 C87.376,5.344 88.144,5.04 88.976,5.04 C90,5.04 90.672,5.552 90.672,6.336 L90.672,7.408 C90.16,6.784 89.248,6.464 88.224,6.464 C86.992,6.464 85.536,7.12 85.536,8.928 C85.536,10.656 86.992,11.488 88.224,11.488 C89.232,11.488 90.144,11.12 90.672,10.496 L90.672,11.296 Z M90.672,9.44 C90.336,9.888 89.696,10.112 89.04,10.112 C88.24,10.112 87.584,9.696 87.584,8.976 C87.584,8.24 88.24,7.808 89.04,7.808 C89.696,7.808 90.336,8.032 90.672,8.48 L90.672,9.44 Z" id="Shape"></path>
                        <polygon id="Path" points="94.72 11.296 96.752 11.296 96.752 0.624 94.72 0.624"></polygon>
                    </g>
                </g>
            </g>
        </g>
    </g>
</svg>