<?xml version="1.0" encoding="UTF-8"?>
<svg width="62px" height="32px" viewBox="0 0 62 32" version="1.1" xmlns="http://www.w3.org/2000/svg" xmlns:xlink="http://www.w3.org/1999/xlink">
    <title>Group 14</title>
    <defs>
        <path d="M15.7727179,7.29349387 C15.6126264,7.03498739 15.3119006,6.875 14.9858488,6.875 L6.19929436,6.875 C5.87342759,6.87514393 5.57289979,7.03499316 5.4128291,7.29331693 C5.2527584,7.55164071 5.25795492,7.86840021 5.4264281,8.12225972 L9.8197053,14.7285431 C9.98337803,14.9746472 10.2764807,15.125 10.5925716,15.125 C10.9086624,15.125 11.2017651,14.9746472 11.3654378,14.7285431 L15.758715,8.12225972 C15.9272388,7.86851093 15.9325893,7.55183839 15.7727179,7.29349387 Z" id="path-1"></path>
        <path d="M16,0 C24.836556,0 32,7.163444 32,16 C32,24.836556 24.836556,32 16,32 C7.163444,32 0,24.836556 0,16 C0,7.163444 7.163444,0 16,0 Z M16.0262227,17.1719183 C13.2475715,17.0547929 10.7567407,18.9307452 10.0133329,21.7004852 C9.96043977,21.9863203 10.0674047,22.2786299 10.2900707,22.4567439 C10.5542273,22.6770676 10.8852449,22.7937641 11.2246042,22.7862032 L20.8292901,22.7862032 C21.1686495,22.7937641 21.4996671,22.6770676 21.7638236,22.4567439 C21.9864897,22.2786299 22.0934546,21.9863203 22.0405614,21.7004852 C21.2970315,18.9301809 18.805405,17.0540814 16.0262227,17.1719183 Z M16.0106139,9 C13.9797079,9 12.3333333,10.7016589 12.3333333,12.8007615 C12.3333333,14.8998642 13.9797079,16.601523 16.0106139,16.601523 C18.0415199,16.601523 19.6878945,14.8998642 19.6878945,12.8007615 C19.6878945,10.7016589 18.0415199,9 16.0106139,9 Z" id="path-3"></path>
    </defs>
    <g id="3---Ready-for-UI-🖥" stroke="none" stroke-width="1" fill="none" fill-rule="evenodd">
        <g id="Group-14">
            <g id="dropdown-arrow" transform="translate(40.000000, 5.000000)">
                <mask id="mask-2" fill="white">
                    <use xlink:href="#path-1"></use>
                </mask>
                <use id="Mask" fill="#FFFFFF" fill-rule="nonzero" xlink:href="#path-1"></use>
                <g id="Group" mask="url(#mask-2)" fill="#FFFFFF">
                    <g id="icon-color">
                        <rect id="Rectangle" x="0" y="0" width="21.1852954" height="22"></rect>
                    </g>
                </g>
            </g>
            <mask id="mask-4" fill="white">
                <use xlink:href="#path-3"></use>
            </mask>
            <use id="Combined-Shape-Copy" fill="#FFFFFF" fill-rule="nonzero" xlink:href="#path-3"></use>
        </g>
    </g>
</svg>