<?xml version="1.0" encoding="UTF-8"?>
<svg width="26px" height="32px" viewBox="0 0 26 32" version="1.1" xmlns="http://www.w3.org/2000/svg" xmlns:xlink="http://www.w3.org/1999/xlink">
    <!-- Generator: Sketch 48.2 (47327) - http://www.bohemiancoding.com/sketch -->
    <title>[icon] chart-review-received (32px @1x)</title>
    <desc>Created with Sketch.</desc>
    <defs></defs>
    <g id="Icons" stroke="none" stroke-width="1" fill="none" fill-rule="evenodd" transform="translate(-30.000000, -143.000000)">
        <g id="[icon]-chart-review-received-(32px-@1x)" transform="translate(30.000000, 143.000000)" fill="#005587">
            <path d="M16,0.00539880043 L4,0.00539880043 C1.791,0.00539880043 0,1.7963988 0,4.0043988 L0,28.0003988 C0,30.2093988 1.791,32.0003988 4,32.0003988 L22,32.0003988 C24.209,32.0003988 26,30.2093988 26,28.0003988 L26,8.0043988 L18,0.00539880043 C17.872,0.0333988004 17.338,-0.0156011996 16,0.00539880043 L16,0.00539880043 Z M24,27.9983988 C24,29.1023988 23.104,29.9973988 22,29.9973988 L4,29.9973988 C2.896,29.9973988 2,29.1023988 2,27.9983988 L2,4.0023988 C2,2.8983988 2.896,2.0023988 4,2.0023988 L15.972,2.0023988 C15.954,4.3973988 16,6.0023988 16,6.0023988 C16,8.2103988 17.791,10.0013988 20,10.0013988 L24,10.0013988 L24,27.9983988 Z M18,2.0023988 L24,8.0013988 L20,8.0013988 C18.896,8.0013988 18,7.1053988 18,6.0023988 L18,2.0023988 Z M8.9757,20.0622988 C8.9697,19.3562988 8.6267,18.9962988 7.9477,19.0032988 L6.6407,19.0162988 L6.6407,19.0102988 L5.0317,19.0102988 C4.8427,19.0102988 4.6827,19.0432988 4.5467,19.1002988 C4.1727,19.2352988 3.9957,19.5702988 3.9997,20.1102988 L4.0117,21.5172988 L4.0117,22.9262988 C4.0117,23.6322988 4.3517,23.9952988 5.0317,23.9952988 L6.3807,23.9952988 L6.3807,24.0022988 L7.1797,23.9952988 L8.0087,23.9952988 C8.5097,23.9952988 8.8107,23.7942988 8.9297,23.3902988 C8.9767,23.2502988 9.0017,23.0892988 8.9997,22.9022988 L8.9757,20.0622988 Z M7.8737,22.9762988 C7.8097,23.0082988 7.7477,23.0092988 7.7477,23.0092988 L5.2897,23.0092988 C5.2897,23.0092988 5.0067,23.0092988 5.0067,22.7122988 L5.0067,20.3192988 C5.0067,20.2092988 5.0407,20.1392988 5.0837,20.0922988 C5.1577,20.0372988 5.2447,20.0342988 5.2447,20.0342988 L7.7017,20.0092988 C7.7017,20.0092988 7.9847,20.0072988 7.9867,20.3042988 L8.0067,22.6972988 C8.0087,22.8542988 7.9417,22.9342988 7.8737,22.9762988 Z M11.2779,21.0260988 C10.5869,21.0280988 10.0169,21.4740988 10.0069,22.0200988 C9.9949,22.5690988 10.5449,23.0120988 11.2359,23.0100988 L20.7359,22.9930988 C21.4269,22.9910988 21.9969,22.5460988 22.0069,21.9990988 C22.0189,21.4500988 21.4689,21.0070988 20.7779,21.0100988 L11.2779,21.0260988 Z M5.2709,25.0189988 C4.5799,25.0209988 4.0099,25.4669988 3.9999,26.0139988 C3.9879,26.5619988 4.5379,27.0049988 5.2289,27.0029988 L20.7289,26.9869988 C21.4199,26.9849988 21.9899,26.5389988 21.9999,25.9919988 C22.0119,25.4429988 21.4619,24.9999988 20.7709,25.0029988 L5.2709,25.0189988 Z M5.06635247,17.4473559 L8.40916965,17.1944536 C8.5414636,17.1905359 8.65733974,17.1313246 8.72250979,17.0464134 C8.81022485,16.951538 8.84841499,16.8271403 8.83040528,16.7061285 L8.50181325,13.4014298 C8.49534667,13.2594169 8.4268468,13.1237172 8.31428136,13.0292636 C8.2223265,12.9521043 8.11083285,12.9078897 7.99712822,12.9033375 L7.95457705,12.9025317 C7.81179344,12.9060713 7.6829731,12.9766842 7.62721949,13.0713018 L6.96907072,13.8500184 C5.98648438,12.8943591 5.66045034,11.4540803 6.2179168,10.4049547 L6.57078563,9.74132916 L5.87347594,10.0515522 C5.43019094,10.2482021 5.05117105,10.5324722 4.74629757,10.8958062 C3.57598638,12.2905288 3.8367189,14.460635 5.30052232,15.8441515 L4.65107763,16.6205444 C4.5482246,16.7165567 4.50233115,16.8501349 4.52334313,16.991717 C4.56176437,17.2501969 4.80582032,17.4543825 5.06635247,17.4473559 Z M6.43853819,15.5067327 C6.43853819,15.5067327 6.04142819,15.1804235 5.96164355,15.1088725 C5.22492728,14.4521373 5.18179315,13.3328988 5.36533076,12.5799561 C5.55198316,13.2873059 5.95589812,14.0774035 6.46165293,14.5017822 L7.11986485,15.0483328 L7.60243764,14.4732249 L7.68312173,16.0406156 L6.12553255,16.2333319 L6.61405603,15.6511323 L6.43853819,15.5067327 Z M9.004,12.9200439 C9.591,12.5760439 10.27,12.3649902 11,12.3649902 C13.036,12.3649902 14.3379609,13.1650098 14.5849609,15.1350098 L11,15.1400146 L11,16.5 L16,16.5 L16,16 C16,13.891 14.683,12.092 12.832,11.358 C13.537,10.809 14,9.961 14,9 C14,7.346 12.654,6 11,6 C9.346,6 8,7.346 8,9 C8,9.961 8.463,10.809 9.168,11.358 C8.848,11.485 8.55,11.651 8.266,11.838 L8.905,12.421 C8.948,12.456 8.977,12.8750439 9.004,12.9200439 Z M12.75,9 C12.75,9.96489339 11.9648934,10.75 11,10.75 C10.0351066,10.75 9.25,9.96489339 9.25,9 C9.25,8.03510661 10.0351066,7.25 11,7.25 C11.9648934,7.25 12.75,8.03510661 12.75,9 Z" id="chart-review-received"></path>
        </g>
    </g>
</svg>