<?xml version="1.0" encoding="UTF-8"?>
<svg width="26px" height="32px" viewBox="0 0 26 32" version="1.1" xmlns="http://www.w3.org/2000/svg" xmlns:xlink="http://www.w3.org/1999/xlink">
    <!-- Generator: Sketch 48.2 (47327) - http://www.bohemiancoding.com/sketch -->
    <title>[icon] chart-review-sent (32px @1x)</title>
    <desc>Created with Sketch.</desc>
    <defs></defs>
    <g id="Icons" stroke="none" stroke-width="1" fill="none" fill-rule="evenodd" transform="translate(-30.000000, -195.000000)">
        <g id="[icon]-chart-review-sent-(32px-@1x)" transform="translate(30.000000, 195.000000)" fill="#005587">
            <path d="M16,0.00539880043 L4,0.00539880043 C1.791,0.00539880043 0,1.7963988 0,4.0043988 L0,28.0003988 C0,30.2093988 1.791,32.0003988 4,32.0003988 L22,32.0003988 C24.209,32.0003988 26,30.2093988 26,28.0003988 L26,8.0043988 L18,0.00539880043 C17.872,0.0333988004 17.338,-0.0156011996 16,0.00539880043 L16,0.00539880043 Z M24,27.9983988 C24,29.1023988 23.104,29.9973988 22,29.9973988 L4,29.9973988 C2.896,29.9973988 2,29.1023988 2,27.9983988 L2,4.0023988 C2,2.8983988 2.896,2.0023988 4,2.0023988 L15.972,2.0023988 C15.954,4.3973988 16,6.0023988 16,6.0023988 C16,8.2103988 17.791,10.0013988 20,10.0013988 L24,10.0013988 L24,27.9983988 Z M18,2.0023988 L24,8.0013988 L20,8.0013988 C18.896,8.0013988 18,7.1053988 18,6.0023988 L18,2.0023988 Z M8.9757,20.0622988 C8.9697,19.3562988 8.6267,18.9962988 7.9477,19.0032988 L6.6407,19.0162988 L6.6407,19.0102988 L5.0317,19.0102988 C4.8427,19.0102988 4.6827,19.0432988 4.5467,19.1002988 C4.1727,19.2352988 3.9957,19.5702988 3.9997,20.1102988 L4.0117,21.5172988 L4.0117,22.9262988 C4.0117,23.6322988 4.3517,23.9952988 5.0317,23.9952988 L6.3807,23.9952988 L6.3807,24.0022988 L7.1797,23.9952988 L8.0087,23.9952988 C8.5097,23.9952988 8.8107,23.7942988 8.9297,23.3902988 C8.9767,23.2502988 9.0017,23.0892988 8.9997,22.9022988 L8.9757,20.0622988 Z M7.7477,23.0092988 L5.2897,23.0092988 C5.2897,23.0092988 5.0067,23.0092988 5.0067,22.7122988 L5.0067,20.3192988 C5.0067,20.2092988 5.0407,20.1392988 5.0837,20.0922988 C5.1577,20.0372988 5.2447,20.0342988 5.2447,20.0342988 L7.7017,20.0092988 C7.7017,20.0092988 7.9847,20.0072988 7.9867,20.3042988 L8.0067,22.6972988 C8.0087,22.8542988 7.9417,22.9342988 7.8737,22.9762988 C7.8097,23.0082988 7.7477,23.0092988 7.7477,23.0092988 Z M11.2779,21.0260988 C10.5869,21.0280988 10.0169,21.4740988 10.0069,22.0200988 C9.9949,22.5690988 10.5449,23.0120988 11.2359,23.0100988 L20.7359,22.9930988 C21.4269,22.9910988 21.9969,22.5460988 22.0069,21.9990988 C22.0189,21.4500988 21.4689,21.0070988 20.7779,21.0100988 L11.2779,21.0260988 Z M5.2709,25.0189988 C4.5799,25.0209988 4.0099,25.4669988 3.9999,26.0139988 C3.9879,26.5619988 4.5379,27.0049988 5.2289,27.0029988 L20.7289,26.9869988 C21.4199,26.9849988 21.9899,26.5389988 21.9999,25.9919988 C22.0119,25.4429988 21.4619,24.9999988 20.7709,25.0029988 L5.2709,25.0189988 Z M17.4357,12.4924 C17.6167,12.6734 17.6167,12.9694 17.4357,13.1514 C17.3347,13.2514 17.2037,13.2974 17.0517,13.2824 L16.0587,13.2834 C15.9297,15.0784 14.4287,16.5004 12.6017,16.5004 C12.1227,16.5004 11.6587,16.4034 11.2207,16.2124 L10.4767,15.8884 L11.2737,15.7374 C12.4227,15.5204 13.3077,14.4894 13.4157,13.2874 L12.4157,13.2844 C12.3107,13.2984 12.1927,13.2604 12.0987,13.1834 L11.9907,13.1294 L11.9907,13.0594 C11.9467,12.9874 11.9227,12.9054 11.9227,12.8194 C11.9227,12.6824 11.9857,12.5524 12.0947,12.4624 L14.4157,10.3444 C14.5027,10.2594 14.6367,10.2104 14.7637,10.2184 C14.8717,10.2104 14.9977,10.2604 15.0897,10.3534 L17.4357,12.4924 Z M15.1387,12.6084 L15.1357,12.3554 L15.9027,12.3554 L14.7487,11.3034 L13.5957,12.3554 L14.3517,12.3554 L14.3557,13.2524 C14.3557,13.9104 14.0157,14.7204 13.5917,15.3304 C14.2987,14.9674 15.1107,14.2174 15.1407,13.2444 C15.1447,13.1334 15.1387,12.6084 15.1387,12.6084 Z M10.996,12.9200439 C10.409,12.5760439 9.73,12.3649902 9,12.3649902 C6.964,12.3649902 5.66203906,13.1650098 5.41503906,15.1350098 L9,15.1400146 L9,16.5 L4,16.5 L4,16 C4,13.891 5.317,12.092 7.168,11.358 C6.463,10.809 6,9.961 6,9 C6,7.346 7.346,6 9,6 C10.654,6 12,7.346 12,9 C12,9.961 11.537,10.809 10.832,11.358 C11.152,11.485 11.45,11.651 11.734,11.838 L11.095,12.421 C11.052,12.456 11.023,12.8750439 10.996,12.9200439 Z M7.25,9 C7.25,9.965125 8.034875,10.75 9,10.75 C9.965125,10.75 10.75,9.965125 10.75,9 C10.75,8.034875 9.965125,7.25 9,7.25 C8.034875,7.25 7.25,8.034875 7.25,9 Z" id="chart-review-sent"></path>
        </g>
    </g>
</svg>