<?xml version="1.0" encoding="UTF-8"?>
<svg width="26px" height="32px" viewBox="0 0 26 32" version="1.1" xmlns="http://www.w3.org/2000/svg" xmlns:xlink="http://www.w3.org/1999/xlink">
    <!-- Generator: Sketch 48.2 (47327) - http://www.bohemiancoding.com/sketch -->
    <title>[icon] check-eligibility (32px @1x)</title>
    <desc>Created with Sketch.</desc>
    <defs></defs>
    <g id="Icons" stroke="none" stroke-width="1" fill="none" fill-rule="evenodd" transform="translate(-30.000000, -247.000000)">
        <g id="[icon]-check-eligibility-(32px-@1x)" transform="translate(30.000000, 247.000000)" fill="#005587">
            <path d="M16,0.00539880043 L4,0.00539880043 C1.791,0.00539880043 0,1.7963988 0,4.0043988 L0,28.0003988 C0,30.2093988 1.791,32.0003988 4,32.0003988 L22,32.0003988 C24.209,32.0003988 26,30.2093988 26,28.0003988 L26,8.0043988 L18,0.00539880043 C17.872,0.0333988004 17.338,-0.0156011996 16,0.00539880043 L16,0.00539880043 Z M11.1455337,12.8591722 C9.30408429,13.5973069 8.0002,15.4005555 8.0002,17.5025988 L8.0002,18.0025988 L18.0002,18.0025988 L18.0002,17.5025988 C18.0002,15.4004041 16.6961279,13.5970472 14.8544684,12.8590127 C15.5515786,12.3091508 15.9999,11.4571687 15.9999,10.5025988 C15.9999,8.8485988 14.6539,7.5025988 12.9999,7.5025988 C11.3459,7.5025988 9.9999,8.8485988 9.9999,10.5025988 C9.9999,11.4572609 10.4483081,12.3093156 11.1455337,12.8591722 Z M24,27.9983988 C24,29.1023988 23.104,29.9973988 22,29.9973988 L4,29.9973988 C2.896,29.9973988 2,29.1023988 2,27.9983988 L2,4.0023988 C2,2.8983988 2.896,2.0023988 4,2.0023988 L15.972,2.0023988 C15.954,4.3973988 16,6.0023988 16,6.0023988 C16,8.2103988 17.791,10.0013988 20,10.0013988 L24,10.0013988 L24,27.9983988 Z M18,2.0023988 L24,8.0013988 L20,8.0013988 C18.896,8.0013988 18,7.1053988 18,6.0023988 L18,2.0023988 Z M12.9999,8.5025988 C14.1029,8.5025988 14.9999,9.3995988 14.9999,10.5025988 C14.9999,11.6055988 14.1029,12.5025988 12.9999,12.5025988 C11.8969,12.5025988 10.9999,11.6055988 10.9999,10.5025988 C10.9999,9.3995988 11.8969,8.5025988 12.9999,8.5025988 Z M9.0312,17.0025988 C9.2782,15.0325988 10.9642,13.5025988 13.0002,13.5025988 C15.0362,13.5025988 16.7212,15.0325988 16.9682,17.0025988 L9.0312,17.0025988 Z M8.9757,20.0622988 C8.9697,19.3562988 8.6267,18.9962988 7.9477,19.0032988 L6.6407,19.0162988 L6.6407,19.0102988 L5.0317,19.0102988 C4.8427,19.0102988 4.6827,19.0432988 4.5467,19.1002988 C4.1727,19.2352988 3.9957,19.5702988 3.9997,20.1102988 L4.0117,21.5172988 L4.0117,22.9262988 C4.0117,23.6322988 4.3517,23.9952988 5.0317,23.9952988 L6.3807,23.9952988 L6.3807,24.0022988 L7.1797,23.9952988 L8.0087,23.9952988 C8.5097,23.9952988 8.8107,23.7942988 8.9297,23.3902988 C8.9767,23.2502988 9.0017,23.0892988 8.9997,22.9022988 L8.9757,20.0622988 Z M7.8737,22.9762988 C7.8097,23.0082988 7.7477,23.0092988 7.7477,23.0092988 L5.2897,23.0092988 C5.2897,23.0092988 5.0067,23.0092988 5.0067,22.7122988 L5.0067,20.3192988 C5.0067,20.2092988 5.0407,20.1392988 5.0837,20.0922988 C5.1577,20.0372988 5.2447,20.0342988 5.2447,20.0342988 L7.7017,20.0092988 C7.7017,20.0092988 7.9847,20.0072988 7.9867,20.3042988 L8.0067,22.6972988 C8.0087,22.8542988 7.9417,22.9342988 7.8737,22.9762988 Z M12.2779,21.0260988 C11.5869,21.0280988 11.0169,21.4740988 11.0069,22.0200988 C10.9949,22.5690988 11.5449,23.0120988 12.2359,23.0100988 L20.7359,22.9930988 C21.4269,22.9910988 21.9969,22.5460988 22.0069,21.9990988 C22.0189,21.4500988 21.4689,21.0070988 20.7779,21.0100988 L12.2779,21.0260988 Z M5.2709,26.0189988 C4.5799,26.0209988 4.0099,26.4669988 3.9999,27.0139988 C3.9879,27.5619988 4.5379,28.0049988 5.2289,28.0029988 L20.7289,27.9869988 C21.4199,27.9849988 21.9899,27.5389988 21.9999,26.9919988 C22.0119,26.4429988 21.4619,25.9999988 20.7709,26.0029988 L5.2709,26.0189988 Z" id="check-eligibility"></path>
        </g>
    </g>
</svg>