<?xml version="1.0" encoding="UTF-8"?>
<svg width="32px" height="32px" viewBox="0 0 32 32" version="1.1" xmlns="http://www.w3.org/2000/svg" xmlns:xlink="http://www.w3.org/1999/xlink">
    <!-- Generator: Sketch 48.2 (47327) - http://www.bohemiancoding.com/sketch -->
    <title>[icon] check-in-square-cut (32px @1x)</title>
    <desc>Created with Sketch.</desc>
    <defs></defs>
    <g id="Icons" stroke="none" stroke-width="1" fill="none" fill-rule="evenodd" transform="translate(-30.000000, -299.000000)">
        <g id="[icon]-check-in-square-cut-(32px-@1x)" transform="translate(30.000000, 299.000000)" fill="#005587">
            <path d="M9.7129,15.5083 L13.2299,19.1003 L24.2879,7.8223 C24.8419,7.2583 25.7419,7.2583 26.2979,7.8223 C26.8529,8.3863 26.8529,9.3053 26.2979,9.8763 C26.2979,9.8763 14.4229,21.9833 14.2359,22.1773 C13.6799,22.7413 12.7809,22.7413 12.2259,22.1773 C12.2259,22.1773 7.6739,17.5343 7.6599,17.5203 C7.1479,16.9493 7.1619,16.0653 7.7029,15.5083 C8.2569,14.9443 9.1569,14.9443 9.7129,15.5083 Z M30,15 L32,15 L32,28 C32,30.209 30.209,32 28,32 L4,32 C1.791,32 0,30.209 0,28 L0,4 C0,1.791 1.791,0 4,0 L17,0 L17,2 L4,2 C2.896,2 2,2.896 2,4 L2,28 C2,29.104 2.896,30 4,30 L28,30 C29.104,30 30,29.104 30,28 L30,15 Z" id="check-in-square-cut"></path>
        </g>
    </g>
</svg>