<?xml version="1.0" encoding="UTF-8"?>
<svg width="29px" height="32px" viewBox="0 0 29 32" version="1.1" xmlns="http://www.w3.org/2000/svg" xmlns:xlink="http://www.w3.org/1999/xlink">
    <!-- Generator: Sketch 48.2 (47327) - http://www.bohemiancoding.com/sketch -->
    <title>[icon] clinical trial (32px @1x)</title>
    <desc>Created with Sketch.</desc>
    <defs></defs>
    <g id="Icons" stroke="none" stroke-width="1" fill="none" fill-rule="evenodd" transform="translate(-30.000000, -351.000000)">
        <g id="[icon]-clinical-trial-(32px-@1x)" transform="translate(30.000000, 351.000000)" fill="#005587">
            <path d="M27.729,0.73356929 L27.389,0.38156929 C26.911,-0.11443071 26.115,-0.12943071 25.617,0.35156929 L9.473,15.9415693 C8.979,16.4185693 8.96,17.2165693 9.441,17.7135693 L9.781,18.0665693 C10.259,18.5615693 11.055,18.5765693 11.553,18.0955693 L21.814,8.18656929 C24.359,10.3675693 25.762,13.3375693 25.762,17.0285693 C25.762,23.7845693 20.525,29.0205693 13.766,29.0205693 C10.519,29.0205693 7.806,27.9165693 5.692,25.9035693 L7.58,25.9035693 C8.068,25.9035693 8.453,25.5115693 8.453,25.0285693 C8.453,24.5435693 8.062,24.1545693 7.58,24.1545693 L0.873,24.1545693 C0.385,24.1545693 0,24.5465693 0,25.0285693 C0,25.5155693 0.391,25.9035693 0.873,25.9035693 L2.957,25.9035693 C4.578,27.8755693 6.729,29.3965693 9.192,30.2485693 L8.086,30.2485693 C7.6,30.2485693 7.205,30.6395693 7.205,31.1225693 C7.205,31.6085693 7.599,31.9965693 8.086,31.9965693 L21.116,31.9965693 C21.601,31.9965693 21.997,31.6055693 21.997,31.1225693 C21.997,30.6365693 21.602,30.2485693 21.116,30.2485693 L18.341,30.2485693 C23.818,28.3535693 27.751,23.1525693 27.751,17.0285693 C27.751,12.9745693 26.026,9.33056929 23.27,6.78056929 L27.697,2.50556929 C28.191,2.02856929 28.21,1.23156929 27.729,0.73356929" id="clinical-trial"></path>
        </g>
    </g>
</svg>