<?xml version="1.0" encoding="UTF-8"?>
<svg width="32px" height="16px" viewBox="0 0 32 16" version="1.1" xmlns="http://www.w3.org/2000/svg" xmlns:xlink="http://www.w3.org/1999/xlink">
    <!-- Generator: Sketch 48.2 (47327) - http://www.bohemiancoding.com/sketch -->
    <title>[icon] dashboard (32px @1x)</title>
    <desc>Created with Sketch.</desc>
    <defs></defs>
    <g id="Icons" stroke="none" stroke-width="1" fill="none" fill-rule="evenodd" transform="translate(-30.000000, -505.000000)">
        <g id="[icon]-dashboard-(32px-@1x)" transform="translate(30.000000, 505.000000)" fill="#005587">
            <path d="M25.349,3.043 C25.083,3.59 24.775,4.209 24.447,4.862 C27.308,7.038 29.303,10.284 29.841,14 L18.418,14 C18.815,13.193 19.398,12.035 19.716,11.341 C20.603,9.406 23.002,4.878 23.87,2.935 C23.979,2.692 23.993,2.369 23.943,2.103 C23.855,1.635 23.499,1.369 23.046,1.282 C22.514,1.18 22.121,1.431 21.823,1.855 C21.175,2.773 20.53,3.694 19.879,4.611 C18.904,5.986 16.418,9.951 15.45,11.332 C15.129,11.79 14.257,13.109 14.072,13.624 C14.026,13.749 13.997,13.875 13.979,14 L2.159,14 C3.135,7.227 8.961,2 16,2 C17.358,2 18.668,2.204 19.911,2.567 C20.314,1.997 20.716,1.426 21.118,0.855 C19.508,0.309 17.791,0 16,0 C7.177,0 0,7.178 0,16 L0.841,16 L2,16 L30,16 L31.287,16 L32,16 C32,10.669 29.369,5.952 25.349,3.043" id="dashboard"></path>
        </g>
    </g>
</svg>