<?xml version="1.0" encoding="UTF-8"?>
<svg width="32px" height="30px" viewBox="0 0 32 30" version="1.1" xmlns="http://www.w3.org/2000/svg" xmlns:xlink="http://www.w3.org/1999/xlink">
    <!-- Generator: Sketch 48.2 (47327) - http://www.bohemiancoding.com/sketch -->
    <title>[icon] folder (32px @1x)</title>
    <desc>Created with Sketch.</desc>
    <defs></defs>
    <g id="Icons" stroke="none" stroke-width="1" fill="none" fill-rule="evenodd" transform="translate(-30.000000, -541.000000)">
        <g id="[icon]-folder-(32px-@1x)" transform="translate(30.000000, 541.000000)" fill="#005587">
            <path d="M4.002,5.9999 L13,5.9999 L13,5.9999 L27.998,5.9999 C29.102,5.9999 29.997,6.8959 29.997,7.9999 L29.997,25.9999 C29.997,27.1039 29.102,27.9999 27.998,27.9999 L21,27.9999 L21,27.9999 L4.002,27.9999 C2.898,27.9999 2.003,27.1039 2.003,25.9999 L2.003,7.9999 C2.003,6.8959 2.898,5.9999 4.002,5.9999 L4.002,5.9999 Z M0.0002,7.95948364 L0.0002,4 C0.0002,1.792 1.7912,0.001 3.9992,0.001 L7.8682,0.001 L7.8672,0 L10.4772,0 L14.4771,3.9999 L27.995,3.9999 L27.996,3.9999 L28,3.9999 C30.209,3.9999 32,5.7909 32,7.9999 L32,25.9999 C32,28.2089 30.209,29.9999 28,29.9999 L4.005,29.9999 L4.004,29.9999 L4,29.9999 C1.791,29.9999 0,28.2089 0,25.9999 L0,7.9999 C0,7.98641219 6.67708467e-05,7.97293997 0.000199999999,7.95948364 Z M1.9992,4.53555785 C2.58774113,4.19489398 3.27111583,3.9999 4,3.9999 L11.8671,3.9999 L9.8682,2.001 L3.9992,2.001 C2.8952,2.001 1.9992,2.896 1.9992,4 L1.9992,4.53555785 Z" id="folder"></path>
        </g>
    </g>
</svg>