<?xml version="1.0" encoding="UTF-8"?>
<svg width="26px" height="32px" viewBox="0 0 26 32" version="1.1" xmlns="http://www.w3.org/2000/svg" xmlns:xlink="http://www.w3.org/1999/xlink">
    <!-- Generator: Sketch 48.2 (47327) - http://www.bohemiancoding.com/sketch -->
    <title>[icon] form-pass (32px @1x)</title>
    <desc>Created with Sketch.</desc>
    <defs></defs>
    <g id="Icons" stroke="none" stroke-width="1" fill="none" fill-rule="evenodd" transform="translate(-30.000000, -643.000000)">
        <g id="[icon]-form-pass-(32px-@1x)" transform="translate(30.000000, 643.000000)" fill="#005587">
            <path d="M16,0.00539880043 C17.338,-0.0156011996 17.872,0.0333988004 18,0.00539880043 L26,8.0043988 L26,28.0003988 C26,30.2093988 24.209,32.0003988 22,32.0003988 L4,32.0003988 C1.791,32.0003988 0,30.2093988 0,28.0003988 L0,4.0043988 C0,1.7963988 1.791,0.00539880043 4,0.00539880043 L16,0.00539880043 Z M24,27.9983988 L24,10.0013988 L20,10.0013988 C17.791,10.0013988 16,8.2103988 16,6.0023988 C16,6.0023988 15.954,4.3973988 15.972,2.0023988 L4,2.0023988 C2.896,2.0023988 2,2.8983988 2,4.0023988 L2,27.9983988 C2,29.1023988 2.896,29.9973988 4,29.9973988 L22,29.9973988 C23.104,29.9973988 24,29.1023988 24,27.9983988 Z M18,2.0023988 L18,6.0023988 C18,7.1053988 18.896,8.0013988 20,8.0013988 L24,8.0013988 L18,2.0023988 Z M12.271,24.0162988 L20.771,24.0002988 C21.462,23.9982988 22.012,24.4402988 22,24.9892988 C21.99,25.5362988 21.42,25.9812988 20.729,25.9832988 L12.229,26.0002988 C11.538,26.0022988 10.988,25.5592988 11,25.0112988 C11.01,24.4642988 11.58,24.0182988 12.271,24.0162988 Z M12.271,18.0162988 L20.771,18.0002988 C21.462,17.9982988 22.012,18.4402988 22,18.9892988 C21.99,19.5362988 21.42,19.9812988 20.729,19.9832988 L12.229,20.0002988 C11.538,20.0022988 10.988,19.5592988 11,19.0112988 C11.01,18.4642988 11.58,18.0182988 12.271,18.0162988 Z M12.271,12.0162988 L20.771,12.0002988 C21.462,11.9982988 22.012,12.4402988 22,12.9892988 C21.99,13.5362988 21.42,13.9812988 20.729,13.9832988 L12.229,14.0002988 C11.538,14.0022988 10.988,13.5592988 11,13.0112988 C11.01,12.4642988 11.58,12.0182988 12.271,12.0162988 Z M5.0897,12.5098988 L5.6537,13.0848988 L7.9107,10.7848988 C8.1597,10.5298988 8.5637,10.5298988 8.8127,10.7848988 C9.0627,11.0378988 9.0627,11.4498988 8.8127,11.7048988 L6.1047,14.4658988 C5.8557,14.7208988 5.4517,14.7208988 5.2027,14.4658988 L4.1867,13.4298988 C3.9377,13.1768988 3.9377,12.7648988 4.1867,12.5098988 C4.4357,12.2568988 4.8407,12.2568988 5.0897,12.5098988 Z M5.0897,18.9161988 L5.6537,19.4911988 L7.9107,17.1911988 C8.1597,16.9361988 8.5637,16.9361988 8.8127,17.1911988 C9.0627,17.4441988 9.0627,17.8561988 8.8127,18.1111988 L6.1047,20.8731988 C5.8557,21.1271988 5.4517,21.1271988 5.2027,20.8731988 L4.1867,19.8361988 C3.9377,19.5831988 3.9377,19.1711988 4.1867,18.9161988 C4.4357,18.6631988 4.8407,18.6631988 5.0897,18.9161988 Z M5.0897,24.9161988 L5.6537,25.4911988 L7.9107,23.1911988 C8.1597,22.9361988 8.5637,22.9361988 8.8127,23.1911988 C9.0627,23.4441988 9.0627,23.8561988 8.8127,24.1111988 L6.1047,26.8731988 C5.8557,27.1271988 5.4517,27.1271988 5.2027,26.8731988 L4.1867,25.8361988 C3.9377,25.5831988 3.9377,25.1711988 4.1867,24.9161988 C4.4357,24.6631988 4.8407,24.6631988 5.0897,24.9161988 Z" id="form-pass"></path>
        </g>
    </g>
</svg>