<?xml version="1.0" encoding="UTF-8"?>
<svg width="26px" height="32px" viewBox="0 0 26 32" version="1.1" xmlns="http://www.w3.org/2000/svg" xmlns:xlink="http://www.w3.org/1999/xlink">
    <!-- Generator: Sketch 48.2 (47327) - http://www.bohemiancoding.com/sketch -->
    <title>[icon] form-fail (32px @1x)</title>
    <desc>Created with Sketch.</desc>
    <defs></defs>
    <g id="Icons" stroke="none" stroke-width="1" fill="none" fill-rule="evenodd" transform="translate(-30.000000, -591.000000)">
        <g id="[icon]-form-fail-(32px-@1x)" transform="translate(30.000000, 591.000000)" fill="#005587">
            <path d="M6.4581772,13.650817 L5.3798,14.7379988 C4.8928,15.2279988 4.5368,15.6499988 4.1568,15.2529988 C3.7778,14.8599988 4.2268,14.5029988 4.7138,14.0129988 L5.75998143,12.9582756 L4.6728,11.8798988 C4.1818,11.3928988 3.7608,11.0368988 4.1568,10.6578988 C4.5508,10.2778988 4.9078,10.7268988 5.3978,11.2138988 L6.4525228,12.2600798 L7.5308,11.1729988 C8.0178,10.6819988 8.3738,10.2609988 8.7528,10.6569988 C9.1328,11.0509988 8.6838,11.4079988 8.1968,11.8979988 L7.15071856,12.9526212 L8.2378,14.0308988 C8.7278,14.5178988 9.1498,14.8738988 8.7528,15.2538988 C8.3598,15.6328988 8.0028,15.1838988 7.5128,14.6968988 L6.4581772,13.650817 Z M6.4581772,19.650817 L5.3798,20.7379988 C4.8928,21.2279988 4.5368,21.6499988 4.1568,21.2529988 C3.7778,20.8599988 4.2268,20.5029988 4.7138,20.0129988 L5.75998143,18.9582756 L4.6728,17.8798988 C4.1818,17.3928988 3.7608,17.0368988 4.1568,16.6578988 C4.5508,16.2778988 4.9078,16.7268988 5.3978,17.2138988 L6.4525228,18.2600798 L7.5308,17.1729988 C8.0178,16.6819988 8.3738,16.2609988 8.7528,16.6569988 C9.1328,17.0509988 8.6838,17.4079988 8.1968,17.8979988 L7.15071856,18.9526212 L8.2378,20.0308988 C8.7278,20.5178988 9.1498,20.8738988 8.7528,21.2538988 C8.3598,21.6328988 8.0028,21.1838988 7.5128,20.6968988 L6.4581772,19.650817 Z M6.4581772,25.650817 L5.3798,26.7379988 C4.8928,27.2279988 4.5368,27.6499988 4.1568,27.2529988 C3.7778,26.8599988 4.2268,26.5029988 4.7138,26.0129988 L5.75998143,24.9582756 L4.6728,23.8798988 C4.1818,23.3928988 3.7608,23.0368988 4.1568,22.6578988 C4.5508,22.2778988 4.9078,22.7268988 5.3978,23.2138988 L6.4525228,24.2600798 L7.5308,23.1729988 C8.0178,22.6819988 8.3738,22.2609988 8.7528,22.6569988 C9.1328,23.0509988 8.6838,23.4079988 8.1968,23.8979988 L7.15071856,24.9526212 L8.2378,26.0308988 C8.7278,26.5178988 9.1498,26.8738988 8.7528,27.2538988 C8.3598,27.6328988 8.0028,27.1838988 7.5128,26.6968988 L6.4581772,25.650817 Z M16,0.00539880043 C17.338,-0.0156011996 17.872,0.0333988004 18,0.00539880043 L26,8.0043988 L26,28.0003988 C26,30.2093988 24.209,32.0003988 22,32.0003988 L4,32.0003988 C1.791,32.0003988 0,30.2093988 0,28.0003988 L0,4.0043988 C0,1.7963988 1.791,0.00539880043 4,0.00539880043 L16,0.00539880043 Z M24,27.9983988 L24,10.0013988 L20,10.0013988 C17.791,10.0013988 16,8.2103988 16,6.0023988 C16,6.0023988 15.954,4.3973988 15.972,2.0023988 L4,2.0023988 C2.896,2.0023988 2,2.8983988 2,4.0023988 L2,27.9983988 C2,29.1023988 2.896,29.9973988 4,29.9973988 L22,29.9973988 C23.104,29.9973988 24,29.1023988 24,27.9983988 Z M18,2.0023988 L18,6.0023988 C18,7.1053988 18.896,8.0013988 20,8.0013988 L24,8.0013988 L18,2.0023988 Z M12.271,24.0162988 L20.771,24.0002988 C21.462,23.9982988 22.012,24.4402988 22,24.9892988 C21.99,25.5362988 21.42,25.9812988 20.729,25.9832988 L12.229,26.0002988 C11.538,26.0022988 10.988,25.5592988 11,25.0112988 C11.01,24.4642988 11.58,24.0182988 12.271,24.0162988 Z M12.271,18.0162988 L20.771,18.0002988 C21.462,17.9982988 22.012,18.4402988 22,18.9892988 C21.99,19.5362988 21.42,19.9812988 20.729,19.9832988 L12.229,20.0002988 C11.538,20.0022988 10.988,19.5592988 11,19.0112988 C11.01,18.4642988 11.58,18.0182988 12.271,18.0162988 Z M12.271,12.0162988 L20.771,12.0002988 C21.462,11.9982988 22.012,12.4402988 22,12.9892988 C21.99,13.5362988 21.42,13.9812988 20.729,13.9832988 L12.229,14.0002988 C11.538,14.0022988 10.988,13.5592988 11,13.0112988 C11.01,12.4642988 11.58,12.0182988 12.271,12.0162988 Z" id="form-fail"></path>
        </g>
    </g>
</svg>