<?xml version="1.0" encoding="UTF-8"?>
<svg width="32px" height="32px" viewBox="0 0 32 32" version="1.1" xmlns="http://www.w3.org/2000/svg" xmlns:xlink="http://www.w3.org/1999/xlink">
    <!-- Generator: Sketch 48.2 (47327) - http://www.bohemiancoding.com/sketch -->
    <title>[icon] important (32px @1x)</title>
    <desc>Created with Sketch.</desc>
    <defs></defs>
    <g id="Icons" stroke="none" stroke-width="1" fill="none" fill-rule="evenodd" transform="translate(-30.000000, -747.000000)">
        <g id="[icon]-important-(32px-@1x)" transform="translate(30.000000, 747.000000)" fill="#005587">
            <path d="M32,16 C32,24.822 24.822,32 16,32 C7.178,32 0,24.822 0,16 C0,7.178 7.178,0 16,0 C24.822,0 32,7.178 32,16 Z M30,16 C30,8.28 23.72,2 16,2 C8.28,2 2,8.28 2,16 C2,23.72 8.28,30 16,30 C23.72,30 30,23.72 30,16 Z M15,22.5 C15,21.948 15.448,21.5 16,21.5 C16.552,21.5 17,21.948 17,22.5 C17,23.052 16.552,23.5 16,23.5 C15.448,23.5 15,23.052 15,22.5 Z M15.0163,9.7707 C15.0183,9.0797 15.4643,8.5097 16.0113,8.4997 C16.5593,8.4877 17.0023,9.0377 17.0003,9.7287 L16.9833,19.2287 C16.9813,19.9197 16.5363,20.4897 15.9893,20.4997 C15.4403,20.5117 14.9983,19.9617 15.0003,19.2707 L15.0163,9.7707 Z" id="important"></path>
        </g>
    </g>
</svg>