<?xml version="1.0" encoding="UTF-8"?>
<svg width="26px" height="32px" viewBox="0 0 26 32" version="1.1" xmlns="http://www.w3.org/2000/svg" xmlns:xlink="http://www.w3.org/1999/xlink">
    <!-- Generator: Sketch 48.2 (47327) - http://www.bohemiancoding.com/sketch -->
    <title>[icon] paper many (32px @1x)</title>
    <desc>Created with Sketch.</desc>
    <defs></defs>
    <g id="Icons" stroke="none" stroke-width="1" fill="none" fill-rule="evenodd" transform="translate(-30.000000, -903.000000)">
        <g id="[icon]-paper-many-(32px-@1x)" transform="translate(30.000000, 903.000000)" fill="#005587">
            <path d="M17.996,28.0013988 C17.996,29.1043988 17.1,30.0003988 15.996,30.0003988 L3.999,30.0003988 C2.896,30.0003988 2,29.1043988 2,28.0013988 L2,10.0053988 C2,8.9013988 2.896,8.0053988 3.999,8.0053988 L9.969,8.0053988 C9.951,10.4003988 9.997,12.0043988 9.997,12.0043988 C9.997,14.2133988 11.788,16.0043988 13.997,16.0043988 L17.996,16.0043988 L17.996,28.0013988 Z M9.997,6.0053988 C11.335,5.9843988 11.869,6.0333988 11.997,6.0053988 L19.996,14.0043988 L19.996,28.0013988 C19.996,30.2093988 18.205,32.0003988 15.996,32.0003988 L3.999,32.0003988 C1.791,32.0003988 0,30.2093988 0,28.0013988 L0,10.0053988 C0,7.7963988 1.791,6.0053988 3.999,6.0053988 L9.997,6.0053988 Z M17.9969,0.00539880043 L25.9959,8.0043988 L25.9959,22.0013988 C25.9959,24.2093988 24.2049,26.0003988 21.9969,26.0003988 L20.9999,26.0003988 L20.9999,24.0003988 L21.9969,24.0003988 C23.0999,24.0003988 23.9959,23.1043988 23.9959,22.0013988 L23.9959,10.0043988 L19.9969,10.0043988 C17.7879,10.0043988 15.9979,8.2133988 15.9979,6.0043988 C15.9979,6.0043988 15.9519,4.4003988 15.9699,2.0053988 L9.9999,2.0053988 C8.8959,2.0053988 7.9999,2.9003988 7.9999,4.0043988 L7.9999,5.0003988 L5.9999,5.0003988 L5.9999,4.0043988 C5.9999,1.7963988 7.7909,0.00539880043 9.9999,0.00539880043 L15.9979,0.00539880043 C17.3349,-0.0156011996 17.8689,0.0333988004 17.9969,0.00539880043 Z M19.9969,8.0043988 L23.9959,8.0043988 L17.9969,2.0053988 L17.9969,6.0043988 C17.9969,7.1083988 18.8929,8.0043988 19.9969,8.0043988 Z M11.997,8.0053988 L11.997,12.0043988 C11.997,13.1083988 12.893,14.0043988 13.997,14.0043988 L17.996,14.0043988 L11.997,8.0053988 Z" id="paper-with-fold-many"></path>
        </g>
    </g>
</svg>