<?xml version="1.0" encoding="UTF-8"?>
<svg width="32px" height="31px" viewBox="0 0 32 31" version="1.1" xmlns="http://www.w3.org/2000/svg" xmlns:xlink="http://www.w3.org/1999/xlink">
    <!-- Generator: Sketch 48.2 (47327) - http://www.bohemiancoding.com/sketch -->
    <title>[icon] people (32px @1x)</title>
    <desc>Created with Sketch.</desc>
    <defs></defs>
    <g id="Icons" stroke="none" stroke-width="1" fill="none" fill-rule="evenodd" transform="translate(-30.000000, -1007.000000)">
        <g id="[icon]-people-(32px-@1x)" transform="translate(30.000000, 1007.000000)" fill="#005587">
            <path d="M1.966,28.6816 C2.453,23.2986 6.992,19.0656 12.5,19.0656 C18.008,19.0656 22.546,23.2986 23.034,28.6816 L1.966,28.6816 Z M7.857,12.4996 C7.857,9.9406 9.94,7.8576 12.5,7.8576 C15.06,7.8576 17.143,9.9406 17.143,12.4996 C17.143,15.0596 15.06,17.1426 12.5,17.1426 C9.94,17.1426 7.857,15.0596 7.857,12.4996 L7.857,12.4996 Z M16.322,17.7456 C21.35,19.3656 25,24.0836 25,29.6426 L25,30.6046 L0,30.6046 L0,29.6426 C0,24.0836 3.65,19.3656 8.678,17.7456 C7.058,16.5626 6,14.6546 6,12.4996 C6,8.9156 8.916,5.9996 12.5,5.9996 C16.083,5.9996 19,8.9156 19,12.4996 C19,14.6546 17.941,16.5626 16.322,17.7456 Z M23.3218,11.746 C28.3498,13.365 31.9998,18.083 31.9998,23.643 L31.9998,24.604 L25.9298,24.604 C25.6328,23.932 25.2828,23.286 24.8758,22.682 L30.0338,22.682 C29.5748,17.618 25.5318,13.575 20.4688,13.112 C20.4838,12.91 20.4998,12.707 20.4998,12.5 C20.4998,12.006 20.4488,11.525 20.3628,11.056 C22.5108,10.649 24.1428,8.765 24.1428,6.5 C24.1428,3.94 22.0598,1.857 19.4998,1.857 C17.4828,1.857 15.7798,3.158 15.1408,4.957 C14.5548,4.751 13.9418,4.605 13.3028,4.541 C14.1368,1.912 16.5988,0 19.4998,0 C23.0838,0 25.9998,2.916 25.9998,6.5 C25.9998,8.655 24.9418,10.562 23.3218,11.746 Z" id="people"></path>
        </g>
    </g>
</svg>