<?xml version="1.0" encoding="UTF-8"?>
<svg width="26px" height="32px" viewBox="0 0 26 32" version="1.1" xmlns="http://www.w3.org/2000/svg" xmlns:xlink="http://www.w3.org/1999/xlink">
    <!-- Generator: Sketch 48.2 (47327) - http://www.bohemiancoding.com/sketch -->
    <title>[icon] questionnaire (32px @2x)</title>
    <desc>Created with Sketch.</desc>
    <defs></defs>
    <g id="Icons" stroke="none" stroke-width="1" fill="none" fill-rule="evenodd" transform="translate(-30.000000, -1110.000000)">
        <g id="[icon]-questionnaire-(32px-@1x)" transform="translate(30.000000, 1110.000000)" fill="#005587">
            <path d="M18,2.00237385 L24,8.00129908 L20,8.00129908 C18.896,8.00129908 18,7.10531025 18,6.002324 L18,2.00237385 Z M24,27.9980499 C24,29.1020361 23.104,29.997025 22,29.997025 L4,29.997025 C2.896,29.997025 2,29.1020361 2,27.9980499 L2,4.00234892 C2,2.89836268 2.896,2.00237385 4,2.00237385 L15.972,2.00237385 C15.954,4.397344 16,6.002324 16,6.002324 C16,8.21029648 17.791,10.0012742 20,10.0012742 L24,10.0012742 L24,27.9980499 Z M16,0.00539873315 C17.338,-0.0156010051 17.872,0.0333983842 18,0.00539873315 L26,8.00429905 L26,28.0000498 C26,30.2090223 24.209,32 22,32 L4,32 C1.791,32 0,30.2090223 0,28.0000498 L0,4.0043489 C0,1.79637641 1.791,0.00539873315 4,0.00539873315 L16,0.00539873315 Z M7.8667,13.9662247 C7.8027,13.9992243 7.7407,14.0002243 7.7407,14.0002243 L5.2827,14.0002243 C5.2827,14.0002243 4.9997,14.0002243 4.9997,13.702228 L4.9997,11.3092579 C4.9997,11.2002592 5.0337,11.1302601 5.0767,11.0822607 C5.1507,11.0272614 5.2377,11.0242614 5.2377,11.0242614 L7.6947,11.0002617 C7.6947,11.0002617 7.9777,10.9972617 7.9797,11.295258 L7.9997,13.6882282 C8.0017,13.8442263 7.9347,13.9242253 7.8667,13.9662247 Z M8.9687,11.0522611 C8.9627,10.3462699 8.6197,9.98627435 7.9407,9.99327426 L6.6337,10.0062741 L6.6337,10.0002742 L5.0247,10.0002742 C4.8357,10.0002742 4.6757,10.0332738 4.5397,10.0902731 C4.1657,10.2252714 3.9887,10.5602672 3.9927,11.1002605 L4.0047,12.5072429 L4.0047,13.9162254 C4.0047,14.6222166 4.3447,14.985212 5.0247,14.985212 L6.3737,14.985212 L6.3737,14.9932119 L7.1727,14.985212 L8.0017,14.985212 C8.5027,14.985212 8.8037,14.7842146 8.9227,14.3802196 C8.9697,14.2402213 8.9947,14.0792233 8.9927,13.8922257 L8.9687,11.0522611 Z M7.8667,19.96615 C7.8027,19.9991496 7.7407,20.0001495 7.7407,20.0001495 L5.2827,20.0001495 C5.2827,20.0001495 4.9997,20.0001495 4.9997,19.7021533 L4.9997,17.3091831 C4.9997,17.2001844 5.0337,17.1301853 5.0767,17.0821859 C5.1507,17.0271866 5.2377,17.0241866 5.2377,17.0241866 L7.6947,17.0001869 C7.6947,17.0001869 7.9777,16.997187 7.9797,17.2951833 L7.9997,19.6881534 C8.0017,19.8441515 7.9347,19.9241505 7.8667,19.96615 Z M8.9757,17.0521863 C8.9697,16.3461951 8.6267,15.9861996 7.9477,15.9931995 L6.6407,16.0061993 L6.6407,16.0001994 L5.0317,16.0001994 C4.8427,16.0001994 4.6827,16.033199 4.5467,16.0901983 C4.1727,16.2251966 3.9957,16.5601924 3.9997,17.1001857 L4.0117,18.5071682 L4.0117,19.9161506 C4.0117,20.6221418 4.3517,20.9851373 5.0317,20.9851373 L6.3807,20.9851373 L6.3807,20.9931372 L7.1797,20.9851373 L8.0087,20.9851373 C8.5097,20.9851373 8.8107,20.7841398 8.9297,20.3801448 C8.9767,20.2401466 9.0017,20.0791486 8.9997,19.8921509 L8.9757,17.0521863 Z M7.8667,25.9660752 C7.8027,25.9990748 7.7407,26.0000748 7.7407,26.0000748 L5.2827,26.0000748 C5.2827,26.0000748 4.9997,26.0000748 4.9997,25.7020785 L4.9997,23.3091083 C4.9997,23.2001097 5.0337,23.1301105 5.0767,23.0821111 C5.1507,23.0271118 5.2377,23.0241119 5.2377,23.0241119 L7.6947,23.0001122 C7.6947,23.0001122 7.9777,22.9971122 7.9797,23.2951085 L7.9997,25.6880787 C8.0017,25.8440767 7.9347,25.9240757 7.8667,25.9660752 Z M8.9757,23.0591114 C8.9697,22.3531202 8.6267,21.9931247 7.9477,22.0001246 L6.6407,22.0121245 L6.6407,22.0071245 L5.0317,22.0071245 C4.8427,22.0071245 4.6827,22.0401241 4.5467,22.0971234 C4.1727,22.2321217 3.9957,22.5671176 3.9997,23.1071108 L4.0117,24.5140933 L4.0117,25.9230757 C4.0117,26.6290669 4.3517,26.9920624 5.0317,26.9920624 L6.3807,26.9920624 L6.3807,26.9990623 L7.1797,26.9920624 L8.0087,26.9920624 C8.5097,26.9920624 8.8107,26.7910649 8.9297,26.38707 C8.9767,26.2470717 9.0017,26.0850737 8.9997,25.899076 L8.9757,23.0591114 Z M12.271,24.0159995 C11.58,24.0179995 11.01,24.4639939 11,25.0109871 C10.988,25.5589803 11.538,26.0019748 12.229,25.9999748 L20.729,25.982975 C21.42,25.980975 21.99,25.5359806 22,24.9889874 C22.012,24.4399942 21.462,23.9979997 20.771,23.9999997 L12.271,24.0159995 Z M12.271,18.0160743 C11.58,18.0180742 11.01,18.4640687 11,19.0110619 C10.988,19.559055 11.538,20.0020495 12.229,20.0000495 L20.729,19.9830498 C21.42,19.9810498 21.99,19.5360553 22,18.9890621 C22.012,18.440069 21.462,17.9980745 20.771,18.0000745 L12.271,18.0160743 Z M12.271,12.016149 C11.58,12.018149 11.01,12.4641435 11,13.0111366 C10.988,13.5591298 11.538,14.0021243 12.229,14.0001243 L20.729,13.9831245 C21.42,13.9811246 21.99,13.5361301 22,12.9891369 C22.012,12.4401438 21.462,11.9981493 20.771,12.0001492 L12.271,12.016149 Z" id="questionnaire-icon"></path>
        </g>
    </g>
</svg>