<?xml version="1.0" encoding="UTF-8"?>
<svg width="32px" height="32px" viewBox="0 0 32 32" version="1.1" xmlns="http://www.w3.org/2000/svg" xmlns:xlink="http://www.w3.org/1999/xlink">
    <!-- Generator: Sketch 48.2 (47327) - http://www.bohemiancoding.com/sketch -->
    <title>[icon] referrals (32px @1x)</title>
    <desc>Created with Sketch.</desc>
    <defs></defs>
    <g id="Icons" stroke="none" stroke-width="1" fill="none" fill-rule="evenodd" transform="translate(-30.000000, -1207.000000)">
        <g id="[icon]-referrals-(32px-@1x)" transform="translate(30.000000, 1207.000000)" fill="#005587">
            <path d="M23.423124,27.4395831 C23.423124,27.4395831 24.3056602,26.7147122 24.4828365,26.5556004 C26.1189391,25.0952849 26.1900392,22.5788484 25.7614978,20.8811154 C25.3593385,22.4678419 24.4721473,24.235723 23.3483601,25.1786925 L21.8856817,26.3929713 L20.7910144,25.0883976 L20.6459974,28.6119728 L24.1412235,29.0810212 L23.0330576,27.7603606 L23.423124,27.4395831 Z M26.3173365,31.5984812 L19.5000739,30.6847639 C19.2309869,30.6612218 18.9887898,30.5250435 18.8465575,30.3415361 C18.6573844,30.1347571 18.565332,29.8725923 18.5877912,29.6239951 L18.8696745,22.8160467 C18.866246,22.5225961 18.9895156,22.2494577 19.2070722,22.066906 C19.3847945,21.9177793 19.6060329,21.8391816 19.8363855,21.8430093 L19.9226941,21.8463015 C20.2130367,21.8702835 20.4828472,22.0315916 20.6070908,22.2341096 L22.0342993,23.9241004 C23.918061,22.0588579 24.4121488,19.1130842 23.1578505,16.8746337 L22.3639496,15.458671 L23.8160484,16.1826615 C24.739093,16.641745 25.5418606,17.2748557 26.2032891,18.0631154 C28.7423001,21.088991 28.4659114,25.5543445 25.6549019,28.2498566 L27.0641653,29.9340186 C27.2842094,30.1449181 27.3929743,30.427 27.3668174,30.7178622 C27.3189407,31.2488686 26.8471806,31.6434169 26.3173365,31.5984812 Z M12.5,19.066 C6.992,19.066 2.453,23.298 1.966,28.681 L14,28.681 L14,30.604 L0,30.604 L0,29.643 C0,24.083 3.65,19.365 8.678,17.746 C7.058,16.562 6,14.655 6,12.5 C6,8.916 8.916,6 12.5,6 C16.084,6 19,8.916 19,12.5 C19,14.655 17.941,16.562 16.322,17.746 C17.517,18.13 18.621,18.707 19.628,19.412 L18.18,20.734 C16.538,19.681 14.591,19.066 12.5,19.066 Z M7.857,12.5 C7.857,15.06 9.94,17.143 12.5,17.143 C15.06,17.143 17.143,15.06 17.143,12.5 C17.143,9.94 15.06,7.857 12.5,7.857 C9.94,7.857 7.857,9.94 7.857,12.5 Z M30.0557,20 L29.9497,19.903 C28.5447,16.201 25.1197,13.486 21.0267,13.112 C21.0427,12.909 21.0577,12.707 21.0577,12.5 C21.0577,12.006 21.0067,11.525 20.9207,11.056 C23.0687,10.649 24.7007,8.764 24.7007,6.5 C24.7007,3.94 22.6177,1.857 20.0577,1.857 C18.0417,1.857 16.3377,3.157 15.6987,4.957 C15.1127,4.751 14.4997,4.604 13.8607,4.541 C14.6947,1.911 17.1567,0 20.0577,0 C23.6417,0 26.5577,2.916 26.5577,6.5 C26.5577,8.655 25.4997,10.562 23.8797,11.746 C27.7597,12.995 30.8067,16.096 31.9997,20 L30.0557,20 Z" id="referral-many" transform="translate(15.999850, 15.800984) scale(-1, 1) translate(-15.999850, -15.800984) "></path>
        </g>
    </g>
</svg>