<?xml version="1.0" encoding="UTF-8"?>
<svg width="32px" height="31px" viewBox="0 0 32 31" version="1.1" xmlns="http://www.w3.org/2000/svg" xmlns:xlink="http://www.w3.org/1999/xlink">
    <!-- Generator: Sketch 48.2 (47327) - http://www.bohemiancoding.com/sketch -->
    <title>[icon] referred-patient (32px @1x)</title>
    <desc>Created with Sketch.</desc>
    <defs></defs>
    <g id="Icons" stroke="none" stroke-width="1" fill="none" fill-rule="evenodd" transform="translate(-30.000000, -1259.000000)">
        <g id="[icon]-referred-patient-(32px-@1x)" transform="translate(30.000000, 1259.000000)" fill="#005587">
            <path d="M25.4422,22.1816 C25.4422,22.1816 25.4542,23.3236 25.4462,23.5616 C25.3792,25.7536 23.4972,27.4256 21.9212,28.1886 C22.8782,26.8606 23.6622,25.0446 23.6622,23.5776 L23.6522,21.6766 L21.9492,21.6766 L24.5552,19.3006 L27.1612,21.6766 L25.4372,21.6766 L25.4422,22.1816 Z M30.3452,21.9606 C30.7202,22.3376 30.7212,22.9526 30.3452,23.3306 C30.1392,23.5376 29.8532,23.6356 29.5502,23.6026 L27.3542,23.6056 C27.0962,27.4916 23.8532,30.5736 19.9032,30.5736 C18.8742,30.5736 17.8732,30.3656 16.9282,29.9536 L15.4402,29.3066 L17.0352,29.0046 C19.5562,28.5266 21.4952,26.2546 21.7132,23.6126 L19.5012,23.6056 C19.2662,23.6406 18.9692,23.5376 18.7642,23.3306 L18.7062,23.2666 C18.5552,23.0926 18.4732,22.8726 18.4732,22.6406 C18.4732,22.3566 18.6032,22.0866 18.8302,21.9006 L23.8642,17.3086 C24.0402,17.1316 24.3002,17.0336 24.5802,17.0456 C24.8122,17.0366 25.0722,17.1346 25.2632,17.3256 L30.3452,21.9606 Z M12.5,19.066 C6.992,19.066 2.453,23.298 1.966,28.682 L14,28.682 L14,30.604 L0,30.604 L0,29.643 C0,24.083 3.65,19.365 8.678,17.746 C7.058,16.562 6,14.655 6,12.5 C6,8.916 8.916,6 12.5,6 C16.084,6 19,8.916 19,12.5 C19,14.655 17.941,16.562 16.322,17.746 C17.517,18.131 18.621,18.708 19.628,19.413 L18.18,20.734 C16.538,19.682 14.591,19.066 12.5,19.066 Z M12.5,7.857 C9.94,7.857 7.857,9.94 7.857,12.5 C7.857,15.06 9.94,17.143 12.5,17.143 C15.06,17.143 17.143,15.06 17.143,12.5 C17.143,9.94 15.06,7.857 12.5,7.857 Z M25.9998,6.5 C25.9998,8.655 24.9418,10.562 23.3218,11.746 C26.9266402,12.9067471 29.8231585,15.6604476 31.1740557,19.1753305 C31.4252636,19.8289452 28.4685965,18.0108146 28.1198401,17.5213936 C26.3771385,15.0758045 23.6206089,13.4002259 20.4688,13.112 C20.4838,12.91 20.4998,12.707 20.4998,12.5 C20.4998,12.006 20.4488,11.525 20.3628,11.056 C22.5108,10.649 24.1428,8.765 24.1428,6.5 C24.1428,3.94 22.0598,1.857 19.4998,1.857 C17.4828,1.857 15.7798,3.158 15.1408,4.957 C14.5548,4.751 13.9418,4.605 13.3028,4.541 C14.1368,1.912 16.5988,0 19.4998,0 C23.0838,0 25.9998,2.916 25.9998,6.5 Z" id="referred-patient"></path>
        </g>
    </g>
</svg>