<?xml version="1.0" encoding="UTF-8"?>
<svg width="32px" height="30px" viewBox="0 0 32 30" version="1.1" xmlns="http://www.w3.org/2000/svg" xmlns:xlink="http://www.w3.org/1999/xlink">
    <!-- Generator: Sketch 48.2 (47327) - http://www.bohemiancoding.com/sketch -->
    <title>[icon] referring clinic (32px @1x)</title>
    <desc>Created with Sketch.</desc>
    <defs></defs>
    <g id="Icons" stroke="none" stroke-width="1" fill="none" fill-rule="evenodd" transform="translate(-30.000000, -1360.000000)">
        <g id="[icon]-referring-clinic-(32px-@1x)" transform="translate(30.000000, 1360.000000)" fill="#005587">
            <path d="M12.4457275,2.35461472 L13.1098633,2 L26,9 L26,12 L24,10.9096855 L24,26.0989473 L28,26.083127 L28,24.0024048 C28.0000009,24.0016033 28.0000014,24.0008017 28.0000014,24 L28.0000106,10.9999029 C28.0000106,10.9998661 28.0000106,10.9998292 28.0000106,10.9997923 C28.0000105,10.9976324 28.000007,10.9954732 28,10.9933148 L28,7.81937103 L19.159668,3 L19,3 L16,2 L19.1098633,0 L28.3853792,5.03707703 C28.7934446,5.11671238 29.1571234,5.32043451 29.4355303,5.60736252 L32,7 L32,10 L30,8.90968552 L30,26 C30,27.1045695 29.1045695,28 28,28 L23.8060925,28.0633504 C23.3769041,29.1953324 22.2824221,30 21,30 L5,30 C3.34314575,30 2,28.6568542 2,27 L2,12.6981501 L4,14.5222351 L4,25 C4,26.6568542 5.34314575,28 7,28 L19,28 C20.6568542,28 22,26.6568542 22,25 L22,9.81937103 L13.159668,5 L10.2438761,6.55099227 L9.83020775,6.54968319 C9.835874,6.48101241 9.84087044,6.41291229 9.8452428,6.3453811 C9.32898162,7.16358449 8.9983505,8.11288613 8.91560572,9.11546934 L11.1280972,9.12246934 C11.3631494,9.08746934 11.6602154,9.19046934 11.865261,9.39746934 L11.9232739,9.46146934 C12.0743074,9.63546934 12.1563257,9.85546934 12.1563257,10.0874693 C12.1563257,10.3714693 12.0262968,10.6414693 11.7992463,10.8274693 L11.6014421,11.0078657 L14.978,11.053 L14.943,15.984 L19.99,16.065 L19.955,19.941 L15.006,20.044 L14.979,24.917 L11.012,25.042 L10.982,19.945 L6,20.031 L6.037,15.975 L10.977,16.014 L11.0090646,11.5481106 L6.76412777,15.4194693 C6.58808867,15.5964693 6.3280309,15.6944693 6.04796868,15.6824693 C5.81591713,15.6914693 5.55585936,15.5934693 5.36481692,15.4024693 L0.281687702,10.7674693 C-0.093395623,10.3904693 -0.0943958452,9.77546934 0.281687702,9.39746934 C0.487733475,9.19046934 0.773797024,9.09246934 1.07686435,9.12546934 L3.2733523,9.12246934 C3.53140963,5.23646934 6.77513022,2.15446934 10.7260079,2.15446934 C11.3099685,2.15446934 11.8849135,2.221428 12.4457275,2.35461472 Z M0.779749061,11.5852294 L0,12 L0,10.8740651 L0.779749061,11.5852294 Z M5.20182203,10.4174562 L5.20682314,10.9224562 L3.48244007,10.9224562 L6.08901912,13.2984562 L8.69559817,10.9224562 L6.99221977,10.9224562 L6.98221755,9.02145625 C6.98221755,7.55445625 7.76639175,5.73845625 8.7236044,4.41045625 C7.14725421,5.17345625 5.26483603,6.84545625 5.19782114,9.03745625 C5.18981937,9.27545625 5.20182203,10.4174562 5.20182203,10.4174562 Z" id="referred-clinics"></path>
        </g>
    </g>
</svg>