<?xml version="1.0" encoding="UTF-8"?>
<svg width="26px" height="32px" viewBox="0 0 26 32" version="1.1" xmlns="http://www.w3.org/2000/svg" xmlns:xlink="http://www.w3.org/1999/xlink">
    <!-- Generator: Sketch 48.2 (47327) - http://www.bohemiancoding.com/sketch -->
    <title>[icon] reports (32px @1x)</title>
    <desc>Created with Sketch.</desc>
    <defs></defs>
    <g id="Icons" stroke="none" stroke-width="1" fill="none" fill-rule="evenodd" transform="translate(-30.000000, -1462.000000)">
        <g id="[icon]-reports-(32px-@1x)" transform="translate(30.000000, 1462.000000)" fill="#005587">
            <path d="M17.997,29.9804 L4,29.9804 C2.896,29.9804 2.001,29.0844 2.001,27.9804 L2.001,16.2704 L1.999,16.2704 L1.999,7.9794 C1.999,6.8754 2.895,5.9794 3.999,5.9794 L17.996,5.9794 C19.1,5.9794 19.996,6.8754 19.996,7.9794 L19.996,19.9804 L19.997,19.9804 L19.997,27.9804 C19.997,29.0844 19.101,29.9804 17.997,29.9804 L17.997,29.9804 Z M7.66667277,17.5098831 C7.25757457,17.8763224 6.9998,18.4084116 6.9998,18.9997 C6.9998,20.1027 7.8968,20.9997 8.9998,20.9997 C10.1028,20.9997 10.9998,20.1027 10.9998,18.9997 C10.9998,18.3228952 10.662071,17.7236513 10.1462531,17.3616084 L11.9188499,11.9980845 C11.945702,11.9991581 11.9726888,11.9997 11.9998,11.9997 C12.4663501,11.9997 12.8960439,11.8392137 13.2365879,11.5705343 L15.0354992,12.6130038 C15.0108968,12.7381465 14.998,12.8674424 14.998,12.9997 C14.998,14.1027 15.895,14.9997 16.998,14.9997 C18.101,14.9997 18.998,14.1027 18.998,12.9997 C18.998,11.8967 18.101,10.9997 16.998,10.9997 C16.3847647,10.9997 15.8352046,11.2769654 15.4680696,11.7127465 L13.8445335,10.7724945 C13.9445207,10.5346391 13.9998,10.2735171 13.9998,9.9997 C13.9998,8.8967 13.1028,7.9997 11.9998,7.9997 C10.8968,7.9997 9.9998,8.8967 9.9998,9.9997 C9.9998,10.7235152 10.3860752,11.3586206 10.963356,11.7097466 L9.21463732,17.0111518 C9.1440478,17.0035829 9.07236976,16.9997 8.9998,16.9997 C8.84559294,16.9997 8.69541236,17.0172327 8.55114651,17.05041 L7.61574479,15.1770801 C7.85717847,14.84658 7.9998,14.4395168 7.9998,13.9997 C7.9998,12.8967 7.1028,11.9997 5.9998,11.9997 C4.8968,11.9997 3.9998,12.8967 3.9998,13.9997 C3.9998,15.1027 4.8968,15.9997 5.9998,15.9997 C6.29371173,15.9997 6.57299663,15.9360094 6.8245809,15.8217021 L7.66667277,17.5098831 Z M21.995,16.2704 L21.996,16.2704 L21.996,27.9804 C21.996,30.1894 20.206,31.9804 17.997,31.9804 L4,31.9804 C1.791,31.9804 0.001,30.1894 0.001,27.9804 L0.001,19.9804 L0,19.9804 L0,7.9794 C0,5.7704 1.79,3.9804 3.999,3.9804 L17.996,3.9804 C20.205,3.9804 21.995,5.7704 21.995,7.9794 L21.995,16.2704 Z M25.9972,11.29 L25.9982,11.29 L25.9982,23 C25.9982,24.862 24.7192,26.414 22.9962,26.859 L22.9962,24.724 C23.5932,24.377 23.9982,23.739 23.9982,23 L23.9982,15 L23.9972,15 L23.9972,3.999 C23.9972,2.895 23.1012,1.999 21.9982,1.999 L9.0012,1.999 C8.2632,1.999 7.6252,2.404 7.2782,3 L5.1432,3 C5.5882,1.278 7.1392,0 9.0012,0 L21.9982,0 C24.2062,0 25.9972,1.79 25.9972,3.999 L25.9972,11.29 Z M5.2672,22.996 C4.5762,22.998 4.0062,23.444 3.9962,23.991 C3.9842,24.539 4.5342,24.982 5.2252,24.98 L16.7252,24.964 C17.4162,24.962 17.9862,24.516 17.9962,23.969 C18.0082,23.42 17.4582,22.978 16.7672,22.98 L5.2672,22.996 Z M5.2672,25.996 C4.5762,25.998 4.0062,26.444 3.9962,26.991 C3.9842,27.539 4.5342,27.982 5.2252,27.98 L16.7252,27.964 C17.4162,27.962 17.9862,27.516 17.9962,26.969 C18.0082,26.42 17.4582,25.978 16.7672,25.98 L5.2672,25.996 Z M5.9998,14.9997 C5.4478,14.9997 4.9998,14.5507 4.9998,13.9997 C4.9998,13.4487 5.4478,12.9997 5.9998,12.9997 C6.5518,12.9997 6.9998,13.4487 6.9998,13.9997 C6.9998,14.5507 6.5518,14.9997 5.9998,14.9997 Z M8.9998,19.9997 C8.4478,19.9997 7.9998,19.5507 7.9998,18.9997 C7.9998,18.4487 8.4478,17.9997 8.9998,17.9997 C9.5518,17.9997 9.9998,18.4487 9.9998,18.9997 C9.9998,19.5507 9.5518,19.9997 8.9998,19.9997 Z M11.9998,10.9997 C11.4478,10.9997 10.9998,10.5507 10.9998,9.9997 C10.9998,9.4487 11.4478,8.9997 11.9998,8.9997 C12.5518,8.9997 12.9998,9.4487 12.9998,9.9997 C12.9998,10.5507 12.5518,10.9997 11.9998,10.9997 Z M16.998,13.9997 C16.446,13.9997 15.998,13.5507 15.998,12.9997 C15.998,12.4487 16.446,11.9997 16.998,11.9997 C17.55,11.9997 17.998,12.4487 17.998,12.9997 C17.998,13.5507 17.55,13.9997 16.998,13.9997 Z" id="reports"></path>
        </g>
    </g>
</svg>