<?xml version="1.0" encoding="UTF-8"?>
<svg width="32px" height="32px" viewBox="0 0 32 32" version="1.1" xmlns="http://www.w3.org/2000/svg" xmlns:xlink="http://www.w3.org/1999/xlink">
    <!-- Generator: Sketch 48.2 (47327) - http://www.bohemiancoding.com/sketch -->
    <title>[icon] share (32px @.75x)</title>
    <desc>Created with Sketch.</desc>
    <defs></defs>
    <g id="Icons" stroke="none" stroke-width="1" fill="none" fill-rule="evenodd" transform="translate(-30.000000, -1562.000000)">
        <g id="[icon]-share-(32px-@1x)" transform="translate(30.000000, 1562.000000)" fill="#005587">
            <path d="M11.6411844,18.0513343 L21.1391994,22.4803314 C22.2295002,20.9763425 24.0005345,19.9981622 26,19.9981622 C29.3137085,19.9981622 32,22.6848651 32,25.9990811 C32,29.3132971 29.3137085,32 26,32 C22.6862915,32 20,29.3132971 20,25.9990811 C20,25.3992985 20.0879791,24.8200676 20.2517341,24.2735934 L10.6493262,19.795917 C9.54906387,21.1432112 7.87496689,22.0033693 6,22.0033693 C2.6862915,22.0033693 0,19.3166664 0,16.0024504 C0,12.6882344 2.6862915,10.0015315 6,10.0015315 C7.9645139,10.0015315 9.70851292,10.9458125 10.803002,12.4053137 L20.3282607,7.96361266 C20.1155422,7.34861763 20,6.68826349 20,6.00091889 C20,2.6867029 22.6862915,0 26,0 C29.3137085,0 32,2.6867029 32,6.00091889 C32,9.31513488 29.3137085,12.0018378 26,12.0018378 C24.0913611,12.0018378 22.3908716,11.1105076 21.2919532,9.72132927 L11.7198559,14.1848716 C11.9018236,14.7582058 12,15.3688612 12,16.0024504 C12,16.722017 11.8733709,17.4120033 11.6411844,18.0513343 Z M26,10.0015315 C28.209139,10.0015315 30,8.21039622 30,6.00091889 C30,3.79144157 28.209139,2.0003063 26,2.0003063 C23.790861,2.0003063 22,3.79144157 22,6.00091889 C22,8.21039622 23.790861,10.0015315 26,10.0015315 Z M26,30.0045945 C28.209139,30.0045945 30,28.2134592 30,26.0039819 C30,23.7945045 28.209139,22.0033693 26,22.0033693 C23.790861,22.0033693 22,23.7945045 22,26.0039819 C22,28.2134592 23.790861,30.0045945 26,30.0045945 Z M6,20.003063 C8.209139,20.003063 10,18.2119277 10,16.0024504 C10,13.792973 8.209139,12.0018378 6,12.0018378 C3.790861,12.0018378 2,13.792973 2,16.0024504 C2,18.2119277 3.790861,20.003063 6,20.003063 Z" id="share"></path>
        </g>
    </g>
</svg>