<?xml version="1.0" encoding="UTF-8"?>
<svg width="32px" height="24px" viewBox="0 0 32 24" version="1.1" xmlns="http://www.w3.org/2000/svg" xmlns:xlink="http://www.w3.org/1999/xlink">
    <!-- Generator: Sketch 48.2 (47327) - http://www.bohemiancoding.com/sketch -->
    <title>[icon] task (32px @1x)</title>
    <desc>Created with Sketch.</desc>
    <defs></defs>
    <g id="Icons" stroke="none" stroke-width="1" fill="none" fill-rule="evenodd" transform="translate(-30.000000, -1666.000000)">
        <g id="[icon]-task-(32px-@1x)" transform="translate(30.000000, 1666.000000)" fill="#005587">
            <path d="M30,22 L2,22 L2,13 L7.824,13 C8.063,14.302 8.573,15.812 9.716,16 C10.17,16.075 10.525,15.997 10.932,16 C14.33,16.021 17.727,16.007 21.125,16 C22.674,15.996 23.801,14.749 24.222,13 L30,13 L30,22 Z M7.071,4.387 L8.705,2.088 C13.575,2.075 18.444,2.076 23.314,2.087 L29.433,10.513 C29.468,10.56 29.498,10.612 29.579,10.737 L29.155,10.737 C27.121,10.737 26.088,10.736 24.054,10.737 C23.514,10.737 23.408,10.852 23.352,11.479 C23.23,12.855 22.332,13.798 21.11,13.801 C18.34,13.808 15.57,13.803 12.801,13.801 C12.086,13.8 11.369,13.838 10.659,13.767 C9.58,13.66 8.834,12.739 8.717,11.473 C8.659,10.841 8.561,10.737 8.013,10.737 C5.957,10.736 4.902,10.736 2.846,10.735 C2.751,10.735 2.656,10.724 2.493,10.715 C4.051,8.562 5.562,6.475 7.071,4.387 L7.071,4.387 Z M31.992,11.359 C31.991,11.15 31.92,10.897 31.806,10.74 C29.244,7.177 26.671,3.624 24.1,0.069 C24.088,0.052 24.089,0.023 24.083,0 L8.05,0 C7.142,1.243 6.23,2.483 5.327,3.731 C3.64,6.063 1.958,8.399 0.274,10.733 C0.184,10.858 0.091,10.98 0,11.104 L0,23.684 C0.136,23.934 0.325,24 0.578,24 C10.877,23.992 21.176,23.993 31.474,23.993 C31.987,23.993 32,23.979 32,23.388 C32,19.378 32.002,15.368 31.992,11.359 L31.992,11.359 Z" id="task"></path>
        </g>
    </g>
</svg>