<?xml version="1.0" encoding="UTF-8"?>
<svg width="32px" height="32px" viewBox="0 0 32 32" version="1.1" xmlns="http://www.w3.org/2000/svg" xmlns:xlink="http://www.w3.org/1999/xlink">
    <!-- Generator: Sketch 48.2 (47327) - http://www.bohemiancoding.com/sketch -->
    <title>[icon] verbal-agreement (32px @1x)</title>
    <desc>Created with Sketch.</desc>
    <defs></defs>
    <g id="Icons" stroke="none" stroke-width="1" fill="none" fill-rule="evenodd" transform="translate(-30.000000, -1710.000000)">
        <g id="[icon]-verbal-agreement-(32px-@1x)" transform="translate(30.000000, 1710.000000)" fill="#005587">
            <path d="M16,0 C24.836,0 32,6.269 32,14 C32,21.732 24.836,28 16,28 C14.977,28 13.979,27.907 13.009,27.747 L6,32 L6,24.919 C2.345,22.354 0,18.419 0,14 C0,6.269 7.164,0 16,0 Z M16,26 C23.732,26 30,20.628 30,14 C30,7.373 23.732,2 16,2 C8.268,2 2,7.373 2,14 C2,18.066 4.366,21.654 7.975,23.824 L7.912,28.463 L12.62,25.633 C13.704,25.864 14.832,26 16,26 Z M11.1181675,15.0249284 L13.2833806,17.2328058 L20.9484992,9.40129641 C21.9063126,8.4221508 22.3238265,7.4221508 23.2816399,8.40129641 C24.2394534,9.37190915 24.2394534,9.67688776 23.2816399,10.6539002 L15.0176842,19.1247777 C14.0598707,20.1017901 12.5090236,20.1017901 11.5512101,19.1247777 L8.71836009,16.2129987 C7.76054664,15.2402528 7.76054664,14.9352741 8.71836009,13.9582618 C9.67617355,12.9855158 10.1603541,14.0521825 11.1181675,15.0249284 Z" id="verbal-agreement"></path>
        </g>
    </g>
</svg>