<?xml version="1.0" encoding="UTF-8"?>
<svg width="26px" height="32px" viewBox="0 0 26 32" version="1.1" xmlns="http://www.w3.org/2000/svg" xmlns:xlink="http://www.w3.org/1999/xlink">
    <!-- Generator: Sketch 48.2 (47327) - http://www.bohemiancoding.com/sketch -->
    <title>[icon] about the study (32px @1x)</title>
    <desc>Created with Sketch.</desc>
    <defs></defs>
    <g id="Icons" stroke="none" stroke-width="1" fill="none" fill-rule="evenodd" transform="translate(-30.000000, -91.000000)">
        <g id="[icon]-about-the-study-(32px-@1x)" transform="translate(30.000000, 91.000000)" fill="#005587">
            <path d="M15.9994615,0.00539873315 C17.3376673,-0.0156010051 17.8717495,0.0333983842 17.9997692,0.00539873315 L26,8.00429905 L26,28.0010498 C26,30.2090223 24.2087244,32 21.9993845,32 L3.99961533,32 C1.79127558,32 0,30.2090223 0,28.0010498 L0,4.00534888 C0,1.79637641 1.79127558,0.00539873315 3.99961533,0.00539873315 L15.9994615,0.00539873315 Z M17.9997692,2.00537381 L17.9997692,6.00432397 C17.9997692,7.10831021 18.8959071,8.00429905 20.0000769,8.00429905 L23.9996923,8.00429905 L17.9997692,2.00537381 Z M23.9996923,28.0010498 L23.9996923,10.0042741 L20.0000769,10.0042741 C17.790737,10.0042741 15.9994615,8.21329644 15.9994615,6.00432397 C15.9994615,6.00432397 15.9534544,4.40034396 15.9714571,2.00537381 L3.99961533,2.00537381 C2.89644561,2.00537381 2.00030774,2.90136264 2.00030774,4.00534888 L2.00030774,28.0010498 C2.00030774,29.1040361 2.89644561,30.0000249 3.99961533,30.0000249 L21.9993845,30.0000249 C23.1035544,30.0000249 23.9996923,29.1040361 23.9996923,28.0010498 Z M15.0360132,10.1085728 L15.0010078,15.0395114 L20.0487844,15.1205104 L20.013779,18.9964621 L15.0640175,19.0994608 L15.0370134,23.9724 L11.069403,24.0973985 L11.0393984,19.000462 L6.05663179,19.0864609 L6.09363748,15.0315115 L11.0343976,15.070511 L11.0704031,10.0555735 L15.0360132,10.1085728 Z" id="about-study-icon"></path>
        </g>
    </g>
</svg>