<?xml version="1.0" encoding="UTF-8"?>
<svg width="26px" height="32px" viewBox="0 0 26 32" version="1.1" xmlns="http://www.w3.org/2000/svg" xmlns:xlink="http://www.w3.org/1999/xlink">
    <!-- Generator: Sketch 48.2 (47327) - http://www.bohemiancoding.com/sketch -->
    <title>[icon] clipboard-medical (32px @1x)</title>
    <desc>Created with Sketch.</desc>
    <defs></defs>
    <g id="Icons" stroke="none" stroke-width="1" fill="none" fill-rule="evenodd" transform="translate(-30.000000, -403.000000)">
        <g id="[icon]-clipboard-medical-(32px-@1x)" transform="translate(30.000000, 403.000000)" fill="#005587">
            <path d="M17.045,2.909 L23.111,2.909 C24.7,2.909 26,4.218 26,5.819 L26,29.091 C26,30.691 24.7,32 23.111,32 L2.889,32 C1.3,32 0,30.691 0,29.091 L0,5.819 C0,4.218 1.3,2.909 2.889,2.909 L8.956,2.909 C9.533,1.164 11.122,0 13,0 C14.878,0 16.467,1.164 17.045,2.909 Z M24,30.091 L24,6.995 L20.981,6.995 L20.981,10.988 L5.046,10.988 L5.046,6.995 L2,6.995 L2,30.091 L24,30.091 Z M14.9989,13.0002 L14.9989,17.9992 L19.9989,17.9992 L19.9989,21.9992 L14.9989,21.9992 L14.9989,26.9992 L10.9989,26.9992 L10.9989,21.9992 L5.9999,21.9992 L5.9999,17.9992 L10.9989,17.9992 L10.9989,13.0002 L14.9989,13.0002 Z M13.09,2.909 C12.217,2.909 11.635,3.491 11.635,4.363 C11.635,5.237 12.217,5.818 13.09,5.818 C13.963,5.818 14.544,5.237 14.544,4.363 C14.544,3.491 13.963,2.909 13.09,2.909 Z" id="facts"></path>
        </g>
    </g>
</svg>