<?xml version="1.0" encoding="UTF-8"?>
<svg width="32px" height="30px" viewBox="0 0 32 30" version="1.1" xmlns="http://www.w3.org/2000/svg" xmlns:xlink="http://www.w3.org/1999/xlink">
    <!-- Generator: Sketch 48.2 (47327) - http://www.bohemiancoding.com/sketch -->
    <title>[icon] communication (32px @1x)</title>
    <desc>Created with Sketch.</desc>
    <defs></defs>
    <g id="Icons" stroke="none" stroke-width="1" fill="none" fill-rule="evenodd" transform="translate(-30.000000, -455.000000)">
        <g id="[icon]-communication-(32px-@1x)" transform="translate(30.000000, 455.000000)" fill="#005587">
            <path d="M19,22 C19,23.104 18.104,24 17,24 L12.671,24.006 L12.681,24 L9.027,24 L5.065,26.497 L5.035,24 L5,24 L3.056,24 L3,24 C1.896,24 2,23.104 2,22 L2,13 C2,11.896 2.896,11 4,11 L17,11 C18.104,11 19,11.896 19,13 L19,22 Z M17,9 C19.209,9 21,10.791 21,13 L21,22 C21,24.209 19.209,26 17,26 L14.25,26 L12.625,26 L9.48,26 L3.079,30 L3.026,26 L3,26 C0.791,26 0,24.209 0,22 L0,13 C0,10.791 1.791,9 4,9 L17,9 Z M15.7709,14 L5.2709,14.016 C4.5799,14.018 4.0099,14.464 3.9999,15.011 C3.9879,15.559 4.5379,16.002 5.2289,16 L15.7289,15.984 C16.4199,15.982 16.9899,15.536 16.9999,14.989 C17.0119,14.44 16.4619,13.998 15.7709,14 Z M15.7709,18 L5.2709,18.016 C4.5799,18.018 4.0099,18.464 3.9999,19.011 C3.9879,19.559 4.5379,20.002 5.2289,20 L15.7289,19.984 C16.4199,19.982 16.9899,19.536 16.9999,18.989 C17.0119,18.44 16.4619,17.998 15.7709,18 Z M28,0 C30.209,0 32,1.791 32,4 L32,13 C32,15.209 31.209,17 29,17 L28.974,17 L28.921,21 L23,17.3 L23,15.017 L26.935,17.497 L26.965,15 L27,15 L28.944,15 L29,15 C30.104,15 30,14.104 30,13 L30,4 C30,2.896 29.104,2 28,2 L15,2 C13.896,2 13,2.896 13,4 L13,7 L11,7 L11,4 C11,1.791 12.791,0 15,0 L28,0 Z" id="communication"></path>
        </g>
    </g>
</svg>