<?xml version="1.0" encoding="UTF-8"?>
<svg width="24px" height="32px" viewBox="0 0 24 32" version="1.1" xmlns="http://www.w3.org/2000/svg" xmlns:xlink="http://www.w3.org/1999/xlink">
    <!-- Generator: Sketch 48.2 (47327) - http://www.bohemiancoding.com/sketch -->
    <title>[icon] map marker (32px @1x)</title>
    <desc>Created with Sketch.</desc>
    <defs></defs>
    <g id="Icons" stroke="none" stroke-width="1" fill="none" fill-rule="evenodd" transform="translate(-30.000000, -799.000000)">
        <g id="[icon]-map-marker-(32px-@1x)" transform="translate(30.000000, 799.000000)" fill="#005587">
            <path d="M22,11.9999977 C22,16.124997 13.637,29.0089945 12,28.9999945 C10.337,29.0089945 2,16.1809969 2,11.9999977 C2,6.47799878 6.477,1.99999962 12,1.99999962 C17.523,1.99999962 22,6.47799878 22,11.9999977 M0,11.9999977 C0,5.37299898 5.373,0 12,0 C18.627,0 24,5.37299898 24,11.9999977 C24,16.9499968 13.964,32.0109939 12,31.999994 C10.005,32.0109939 0,17.0179968 0,11.9999977 Z M6.9999,11.9999977 C6.9999,14.7619972 9.2389,16.9999968 11.9999,16.9999968 C14.7609,16.9999968 16.9999,14.7619972 16.9999,11.9999977 C16.9999,9.23799825 14.7609,6.99999868 11.9999,6.99999868 C9.2389,6.99999868 6.9999,9.23799825 6.9999,11.9999977 Z M14.9999,11.9999977 C14.9999,13.6569974 13.6569,14.9999972 11.9999,14.9999972 C10.3429,14.9999972 8.9999,13.6569974 8.9999,11.9999977 C8.9999,10.342998 10.3429,8.9999983 11.9999,8.9999983 C13.6569,8.9999983 14.9999,10.342998 14.9999,11.9999977 Z" id="Combined-Shape"></path>
        </g>
    </g>
</svg>