<?xml version="1.0" encoding="UTF-8"?>
<svg width="28px" height="32px" viewBox="0 0 28 32" version="1.1" xmlns="http://www.w3.org/2000/svg" xmlns:xlink="http://www.w3.org/1999/xlink">
    <!-- Generator: Sketch 48.2 (47327) - http://www.bohemiancoding.com/sketch -->
    <title>[icon] notification (32px @1x)</title>
    <desc>Created with Sketch.</desc>
    <defs></defs>
    <g id="Icons" stroke="none" stroke-width="1" fill="none" fill-rule="evenodd" transform="translate(-30.000000, -851.000000)">
        <g id="[icon]-notification-(32px-@1x)" transform="translate(30.000000, 851.000000)" fill="#005587">
            <path d="M3,26.0001927 L6,20.0001927 L6,12.0001927 C6,7.58219269 9.582,4.00019269 14,4.00019269 C18.418,4.00019269 22,7.58219269 22,12.0001927 L22,20.0001927 L25,26.0001927 L3,26.0001927 Z M14,30.0001927 C12.695,30.0001927 11.597,29.1631927 11.184,28.0001927 L16.816,28.0001927 C16.403,29.1631927 15.305,30.0001927 14,30.0001927 L14,30.0001927 Z M13.0078628,2.04881256 L13.0074,1.22919269 C13.0054,0.538192686 13.4484,-0.0118073138 13.9964,0.000192686219 C14.5434,0.0101926862 14.9894,0.580192686 14.9914,1.27119269 L14.9918497,2.04878424 C20.0484014,2.54688182 24,6.81289981 24,12.0001927 L24,20.0001927 L28,28.0001927 L18.899,28.0001927 C18.436,30.2821927 16.419,32.0001927 14,32.0001927 C11.581,32.0001927 9.564,30.2821927 9.101,28.0001927 L0,28.0001927 L4,20.0001927 L4,12.0001927 C4,6.81299811 7.95144883,2.5470435 13.0078628,2.04881256 Z" id="notification"></path>
        </g>
    </g>
</svg>