<?xml version="1.0" encoding="UTF-8"?>
<svg width="26px" height="32px" viewBox="0 0 26 32" version="1.1" xmlns="http://www.w3.org/2000/svg" xmlns:xlink="http://www.w3.org/1999/xlink">
    <!-- Generator: Sketch 48.2 (47327) - http://www.bohemiancoding.com/sketch -->
    <title>[icon] paper-many (32px @1x)</title>
    <desc>Created with Sketch.</desc>
    <defs></defs>
    <g id="Icons" stroke="none" stroke-width="1" fill="none" fill-rule="evenodd" transform="translate(-30.000000, -955.000000)">
        <g id="[icon]-paper-many-(32px-@1x)" transform="translate(30.000000, 955.000000)" fill="#005587">
            <path d="M17.997,29.9814 L4,29.9814 C2.896,29.9814 2.001,29.0854 2.001,27.9814 L2.001,16.2714 L1.999,16.2714 L1.999,7.9804 C1.999,6.8764 2.895,5.9804 3.999,5.9804 L17.996,5.9804 C19.1,5.9804 19.996,6.8764 19.996,7.9804 L19.996,19.9814 L19.997,19.9814 L19.997,27.9814 C19.997,29.0854 19.101,29.9814 17.997,29.9814 L17.997,29.9814 Z M21.995,16.2714 L21.996,16.2714 L21.996,27.9814 C21.996,30.1904 20.206,31.9814 17.997,31.9814 L4,31.9814 C1.791,31.9814 0.001,30.1904 0.001,27.9814 L0.001,19.9814 L0,19.9814 L0,7.9804 C0,5.7714 1.79,3.9814 3.999,3.9814 L17.996,3.9814 C20.205,3.9814 21.995,5.7714 21.995,7.9804 L21.995,16.2714 Z M25.9972,11.291 L25.9982,11.291 L25.9982,23.001 C25.9982,24.863 24.7192,26.415 22.9962,26.86 L22.9962,24.725 C23.5932,24.378 23.9982,23.74 23.9982,23.001 L23.9982,15 L23.9972,15 L23.9972,4 C23.9972,2.896 23.1012,2 21.9982,2 L9.0012,2 C8.2632,2 7.6252,2.405 7.2782,3 L5.1432,3 C5.5882,1.279 7.1392,0 9.0012,0 L21.9982,0 C24.2062,0 25.9972,1.791 25.9972,4 L25.9972,11.291 Z" id="paper-many"></path>
        </g>
    </g>
</svg>