<?xml version="1.0" encoding="UTF-8"?>
<svg width="26px" height="32px" viewBox="0 0 26 32" version="1.1" xmlns="http://www.w3.org/2000/svg" xmlns:xlink="http://www.w3.org/1999/xlink">
    <!-- Generator: Sketch 48.2 (47327) - http://www.bohemiancoding.com/sketch -->
    <title>[icon] plan check in square (32px @1x)</title>
    <desc>Created with Sketch.</desc>
    <defs></defs>
    <g id="Icons" stroke="none" stroke-width="1" fill="none" fill-rule="evenodd" transform="translate(-30.000000, -1058.000000)">
        <g id="[icon]-plan-check-in-square-(32px-@1x)" transform="translate(30.000000, 1058.000000)" fill="#005587">
            <path d="M16,0.00539880043 C17.338,-0.0156011996 17.872,0.0333988004 18,0.00539880043 L26,8.0043988 L26,28.0003988 C26,30.2093988 24.209,32.0003988 22,32.0003988 L4,32.0003988 C1.791,32.0003988 0,30.2093988 0,28.0003988 L0,4.0043988 C0,1.7963988 1.791,0.00539880043 4,0.00539880043 L16,0.00539880043 Z M24,27.9983988 L24,10.0013988 L20,10.0013988 C17.791,10.0013988 16,8.2103988 16,6.0023988 C16,6.0023988 15.954,4.3973988 15.972,2.0023988 L4,2.0023988 C2.896,2.0023988 2,2.8983988 2,4.0023988 L2,27.9983988 C2,29.1023988 2.896,29.9973988 4,29.9973988 L22,29.9973988 C23.104,29.9973988 24,29.1023988 24,27.9983988 Z M11.4613,15.7918988 L12.4763,16.8268988 L16.5383,12.6868988 C16.9873,12.2278988 17.7143,12.2278988 18.1633,12.6868988 C18.6123,13.1418988 18.6123,13.8848988 18.1633,14.3428988 L13.2893,19.3138988 C12.8403,19.7718988 12.1133,19.7718988 11.6643,19.3138988 L9.8363,17.4488988 C9.3873,16.9928988 9.3873,16.2498988 9.8363,15.7918988 C10.2853,15.3358988 11.0123,15.3358988 11.4613,15.7918988 Z M18.5286,21.0062988 L18.5286,17.0492988 L20.4936,17.0492988 L20.4936,21.0062988 C20.4936,23.0162988 19.5506,24.0122988 17.5446,24.0122988 L8.5716,24.0122988 C6.5246,24.0122988 5.4996,22.9912988 5.4996,21.0062988 L5.4996,13.0172988 C5.4996,11.0462988 6.5396,9.9952988 8.5716,9.9952988 L13.4216,9.9952988 L13.4216,11.9432988 L8.5716,11.9432988 C8.5716,11.9432988 7.5376,11.9432988 7.5376,13.0172988 L7.5376,21.0062988 C7.5376,22.0002988 8.5716,22.0002988 8.5716,22.0002988 L17.5446,22.0002988 C17.5446,22.0002988 18.5286,22.0002988 18.5286,21.0062988 Z M18,2.0023988 L18,6.0023988 C18,7.1053988 18.896,8.0013988 20,8.0013988 L24,8.0013988 L18,2.0023988 Z" id="plan-check-in-square"></path>
        </g>
    </g>
</svg>