<?xml version="1.0" encoding="UTF-8"?>
<svg width="33px" height="30px" viewBox="0 0 33 30" version="1.1" xmlns="http://www.w3.org/2000/svg" xmlns:xlink="http://www.w3.org/1999/xlink">
    <!-- Generator: Sketch 48.2 (47327) - http://www.bohemiancoding.com/sketch -->
    <title>[icon] referred clinic (32px @1x)</title>
    <desc>Created with Sketch.</desc>
    <defs></defs>
    <g id="Icons" stroke="none" stroke-width="1" fill="none" fill-rule="evenodd" transform="translate(-30.000000, -1310.000000)">
        <g id="[icon]-referred-clinic-(32px-@1x)" transform="translate(30.000000, 1310.000000)" fill="#005587">
            <path d="M19.0790929,27.9989776 C20.0760865,27.7110129 20.9636335,27.139232 21.6641218,26.3806458 C21.8787313,25.967373 22,25.4978484 22,25 L22,23.3180259 L22.2527592,23.3188258 C22.1823705,24.1718857 22.2153445,24.9368814 22.2640241,25.6171542 C22.8265186,24.7713904 23.1874134,23.7763614 23.2743939,22.7224563 L21.0619024,22.7154563 C20.8268501,22.7504563 20.5297841,22.6474563 20.3247386,22.4404563 L20.2667257,22.3764563 C20.1156922,22.2024563 20.0336739,21.9824563 20.0336739,21.7504563 C20.0336739,21.4664563 20.1637028,21.1964563 20.3907533,21.0104563 L25.4258718,16.4184563 C25.6019109,16.2414563 25.8619687,16.1434563 26.1420309,16.1554563 C26.3740825,16.1464563 26.6341402,16.2444563 26.8251827,16.4354563 L31.9083119,21.0704563 C32.2833952,21.4474563 32.2843954,22.0624563 31.9083119,22.4404563 C31.7022661,22.6474563 31.4162026,22.7454563 31.1131352,22.7124563 L28.9166473,22.7154563 C28.65859,26.6014563 25.4148694,29.6834563 21.4639917,29.6834563 C21.1346441,29.6834563 20.8081643,29.6621578 20.4854699,29.6196919 C20.3519234,29.6537312 20.2093152,29.6851732 20.0570718,29.7140397 L22.2799332,29.7140397 C21.8917239,29.8974395 21.4578391,30 21,30 L5,30 C3.34314575,30 2,28.6568542 2,27 L2,10.9361434 L0,12 L0,9 L13.1098633,2 L26,9 L26,12 L24,10.9096855 L24,15.6667656 L22,17.4911597 L22,9.81937103 L13.159668,5 L4,9.87228674 L4,25 C4,26.6568542 5.34314575,28 7,28 L19,28 C19.0264456,28 19.0528113,27.9996578 19.0790929,27.9989776 Z M30,17.0946895 L28.0000076,15.2706114 L28.0000106,10.9999029 C28.0000106,10.9998661 28.0000106,10.9998292 28.0000106,10.9997923 C28.0000105,10.9976324 28.000007,10.9954732 28,10.9933148 L28,7.81937103 L19.159668,3 L19,3 L16,2 L19.1098633,0 L28.3853792,5.03707703 C28.7934446,5.11671238 29.1571234,5.32043451 29.4355303,5.60736252 L32,7 L32,10 L30,8.90968552 L30,17.0946895 Z M19.9603209,19.351749 L19.2993939,19.9546447 L15.006,20.044 L14.979,24.917 L11.012,25.042 L10.982,19.945 L6,20.031 L6.037,15.975 L10.977,16.014 L11.013,11 L14.978,11.053 L14.943,15.984 L19.99,16.065 L19.9603209,19.351749 Z M27.0042224,21.2914563 L26.9992213,20.7864562 L28.7236044,20.7864562 L26.1170253,18.4104562 L23.5104463,20.7864562 L25.2138247,20.7864562 L25.2238269,22.6874562 C25.2238269,24.1544563 24.4396527,25.9704563 23.4824401,27.2984562 C25.0587903,26.5354562 26.9412084,24.8634563 27.0082233,22.6714563 C27.0162251,22.4334562 27.0042224,21.2914563 27.0042224,21.2914563 Z" id="referring-clinics"></path>
        </g>
    </g>
</svg>