<?xml version="1.0" encoding="UTF-8"?>
<svg width="31px" height="25px" viewBox="0 0 31 25" version="1.1" xmlns="http://www.w3.org/2000/svg" xmlns:xlink="http://www.w3.org/1999/xlink">
    <!-- Generator: Sketch 48.2 (47327) - http://www.bohemiancoding.com/sketch -->
    <title>[icon] referral (32px @1x)</title>
    <desc>Created with Sketch.</desc>
    <defs></defs>
    <g id="Icons" stroke="none" stroke-width="1" fill="none" fill-rule="evenodd" transform="translate(-30.000000, -1162.000000)">
        <g id="[icon]-referral-(32px-@1x)" transform="translate(30.000000, 1162.000000)" fill="#005587">
            <path d="M25.4422,16.1816 C25.4422,16.1816 25.4542,17.3236 25.4462,17.5616 C25.3792,19.7536 23.4972,21.4256 21.9212,22.1886 C22.8782,20.8606 23.6622,19.0446 23.6622,17.5776 L23.6522,15.6766 L21.9492,15.6766 L24.5552,13.3006 L27.1612,15.6766 L25.4372,15.6766 L25.4422,16.1816 Z M30.3452,15.9606 C30.7202,16.3376 30.7212,16.9526 30.3452,17.3306 C30.1392,17.5376 29.8532,17.6356 29.5502,17.6026 L27.3542,17.6056 C27.0962,21.4916 23.8532,24.5736 19.9032,24.5736 C18.8742,24.5736 17.8732,24.3656 16.9282,23.9536 L15.4402,23.3066 L17.0352,23.0046 C19.5562,22.5266 21.4952,20.2546 21.7132,17.6126 L19.5012,17.6056 C19.2662,17.6406 18.9692,17.5376 18.7642,17.3306 L18.7062,17.2666 C18.5552,17.0926 18.4732,16.8726 18.4732,16.6406 C18.4732,16.3566 18.6032,16.0866 18.8302,15.9006 L23.8642,11.3086 C24.0402,11.1316 24.3002,11.0336 24.5802,11.0456 C24.8122,11.0366 25.0722,11.1346 25.2632,11.3256 L30.3452,15.9606 Z M12.5,13.066 C6.992,13.066 2.453,17.298 1.966,22.682 L14,22.682 L14,24.604 L0,24.604 L0,23.643 C0,18.083 3.65,13.365 8.678,11.746 C7.058,10.562 6,8.655 6,6.5 C6,2.916 8.916,0 12.5,0 C16.084,0 19,2.916 19,6.5 C19,8.655 17.941,10.562 16.322,11.746 C17.517,12.131 18.621,12.708 19.628,13.413 L18.18,14.734 C16.538,13.682 14.591,13.066 12.5,13.066 Z M12.5,1.857 C9.94,1.857 7.857,3.94 7.857,6.5 C7.857,9.06 9.94,11.143 12.5,11.143 C15.06,11.143 17.143,9.06 17.143,6.5 C17.143,3.94 15.06,1.857 12.5,1.857 Z" id="referral-single"></path>
        </g>
    </g>
</svg>