<?xml version="1.0" encoding="UTF-8"?>
<svg width="32px" height="32px" viewBox="0 0 32 32" version="1.1" xmlns="http://www.w3.org/2000/svg" xmlns:xlink="http://www.w3.org/1999/xlink">
    <!-- Generator: Sketch 48.2 (47327) - http://www.bohemiancoding.com/sketch -->
    <title>[icon] success (32px @1x)</title>
    <desc>Created with Sketch.</desc>
    <defs></defs>
    <g id="Icons" stroke="none" stroke-width="1" fill="none" fill-rule="evenodd" transform="translate(-30.000000, -1614.000000)">
        <g id="[icon]-success-(32px-@1x)" transform="translate(30.000000, 1614.000000)" fill="#005587">
            <path d="M32,16 C32,24.822 24.822,32 16,32 C7.178,32 0,24.822 0,16 C0,7.178 7.178,0 16,0 C24.822,0 32,7.178 32,16 Z M30,16 C30,8.28 23.72,2 16,2 C8.28,2 2,8.28 2,16 C2,23.72 8.28,30 16,30 C23.72,30 30,23.72 30,16 Z M11.1181675,17.3579912 L13.2833806,19.5658686 L20.9484992,11.7343592 C21.9063126,10.7552136 22.3238265,9.7552136 23.2816399,10.7343592 C24.2394534,11.7049719 24.2394534,12.0099506 23.2816399,12.9869629 L15.0176842,21.4578405 C14.0598707,22.4348529 12.5090236,22.4348529 11.5512101,21.4578405 L8.71836009,18.5460615 C7.76054664,17.5733156 7.76054664,17.2683369 8.71836009,16.2913246 C9.67617355,15.3185786 10.1603541,16.3852453 11.1181675,17.3579912 Z" id="check-in-circle"></path>
        </g>
    </g>
</svg>