<?xml version="1.0" encoding="UTF-8"?>
<svg width="32px" height="32px" viewBox="0 0 32 32" version="1.1" xmlns="http://www.w3.org/2000/svg" xmlns:xlink="http://www.w3.org/1999/xlink">
    <!-- Generator: Sketch 48.2 (47327) - http://www.bohemiancoding.com/sketch -->
    <title>[icon] warning (32px @1x)</title>
    <desc>Created with Sketch.</desc>
    <defs></defs>
    <g id="Icons" stroke="none" stroke-width="1" fill="none" fill-rule="evenodd" transform="translate(-30.000000, -1762.000000)">
        <g id="[icon]-warning-(32px-@1x)" transform="translate(30.000000, 1762.000000)" fill="#005587">
            <path d="M30.4880664,31.998 L1.51406637,31.998 C0.986066366,31.998 0.504066366,31.729 0.227066366,31.28 C-0.0509336344,30.831 -0.0749336344,30.28 0.162066366,29.809 L14.6480664,0.836 C14.9070664,0.319 15.4250664,0 16.0010664,0 L16.0020664,0 C16.5790664,0 17.0970664,0.321 17.3540664,0.837 L31.8410664,29.811 C32.0760664,30.283 32.0520664,30.833 31.7740664,31.281 C31.4960664,31.73 31.0150664,31.998 30.4880664,31.998 Z M2.30306637,29.998 L29.6990664,29.998 L16.0010664,2.602 L2.30306637,29.998 Z M15.0002664,25 C15.0002664,24.448 15.4482664,24 16.0002664,24 C16.5522664,24 17.0002664,24.448 17.0002664,25 C17.0002664,25.552 16.5522664,26 16.0002664,26 C15.4482664,26 15.0002664,25.552 15.0002664,25 Z M15.0165664,12.2707 C15.0185664,11.5797 15.4645664,11.0097 16.0115664,10.9997 C16.5595664,10.9877 17.0025664,11.5377 17.0005664,12.2287 L16.9835664,21.7287 C16.9815664,22.4197 16.5365664,22.9897 15.9895664,22.9997 C15.4405664,23.0117 14.9985664,22.4617 15.0005664,21.7707 L15.0165664,12.2707 Z" id="warning"></path>
        </g>
    </g>
</svg>