<?xml version="1.0" encoding="UTF-8"?>
<svg width="26px" height="13px" viewBox="0 0 26 13" version="1.1" xmlns="http://www.w3.org/2000/svg" xmlns:xlink="http://www.w3.org/1999/xlink">
    <title>privacyoptions</title>
    <g id="---↳-Your-Privacy-Choices" stroke="none" stroke-width="1" fill="none" fill-rule="evenodd">
        <g id="privacyoptions" transform="translate(0.000000, 0.076923)">
            <g id="Final-Copy-2_2_" transform="translate(1.062171, 1.062171)" fill="#FFFFFF">
                <path d="M5.13382508,10.2676502 L11.1527924,10.2676502 L13.8967334,0 L5.13382508,0 C2.30136986,0 3.93082125e-16,2.30136986 3.93082125e-16,5.13382508 C3.93082125e-16,7.9662803 2.30136986,10.2676502 5.13382508,10.2676502 Z" id="Path"></path>
            </g>
            <g id="Final-Copy-2">
                <path d="M19.6501581,0 L6.19599579,0 C2.74394099,0 0,2.74394099 0,6.19599579 C0,9.64805058 2.74394099,12.3919916 6.19599579,12.3919916 L19.6501581,12.3919916 C23.1022129,12.3919916 25.8461538,9.64805058 25.8461538,6.19599579 C25.8461538,2.74394099 23.0136986,0 19.6501581,0 Z M1.06217071,6.19599579 C1.06217071,3.36354057 3.36354057,1.06217071 6.19599579,1.06217071 L14.9589041,1.06217071 L12.2149631,11.3298209 L6.19599579,11.3298209 C3.36354057,11.3298209 1.06217071,9.028451 1.06217071,6.19599579 Z" id="Shape" fill="#0066FF"></path>
                <path d="M21.4204426,3.54056902 C21.597471,3.71759747 21.597471,4.07165437 21.4204426,4.24868282 L21.4204426,4.24868282 L19.5616438,6.19599579 L21.5089568,8.14330875 C21.6859852,8.3203372 21.6859852,8.6743941 21.5089568,8.85142255 C21.3319283,9.028451 20.9778714,9.028451 20.800843,8.85142255 L20.800843,8.85142255 L18.85353,6.90410959 L16.9062171,8.85142255 C16.7291886,9.028451 16.3751317,9.028451 16.1981033,8.85142255 C16.0210748,8.6743941 16.0210748,8.3203372 16.1981033,8.14330875 L16.1981033,8.14330875 L18.056902,6.19599579 L16.109589,4.24868282 C15.9325606,4.07165437 15.9325606,3.71759747 16.109589,3.54056902 C16.2866175,3.36354057 16.6406744,3.36354057 16.8177028,3.54056902 L16.8177028,3.54056902 L18.7650158,5.48788198 L20.7123288,3.54056902 C20.8893572,3.36354057 21.2434141,3.36354057 21.4204426,3.54056902 Z" id="x" fill="#FFFFFF" fill-rule="nonzero"></path>
                <path d="M10.8872497,3.62908325 C11.0642782,3.8061117 11.1527924,4.1601686 10.975764,4.33719705 L10.975764,4.33719705 L7.25816649,8.6743941 C7.16965227,8.76290832 7.08113804,8.85142255 6.99262381,8.85142255 C6.81559536,8.93993678 6.55005269,8.93993678 6.37302424,8.76290832 L6.37302424,8.76290832 L4.42571128,6.81559536 C4.24868282,6.63856691 4.24868282,6.28451001 4.42571128,6.10748156 C4.60273973,5.93045311 4.95679663,5.93045311 5.13382508,6.10748156 L5.13382508,6.10748156 L6.72708114,7.61222339 L10.0906217,3.62908325 C10.2676502,3.45205479 10.6217071,3.45205479 10.8872497,3.62908325 Z" id="y" fill="#0066FF" fill-rule="nonzero"></path>
            </g>
        </g>
    </g>
</svg>