<?xml version="1.0" encoding="UTF-8"?>
<svg width="24px" height="12px" viewBox="0 0 24 12" version="1.1" xmlns="http://www.w3.org/2000/svg" xmlns:xlink="http://www.w3.org/1999/xlink">
    <title>Group 2</title>
    <g id="K---Your-Privacy-Choices" stroke="none" stroke-width="1" fill="none" fill-rule="evenodd">
        <g id="Your-Privacy-Choice-(UPDATE)-Mobile" transform="translate(-251.000000, -743.000000)" fill="#FFFFFF">
            <g id="Group" transform="translate(16.000000, 736.000000)">
                <g id="Group-3" transform="translate(101.000000, 0.000000)">
                    <g id="Final-Copy-2" transform="translate(134.000000, 7.000000)">
                        <path d="M18.2465753,0 C21.369863,0 24,2.54794521 24,5.75342466 C24,8.95890411 21.4520548,11.5068493 18.2465753,11.5068493 L5.75342466,11.5068493 C2.54794521,11.5068493 0,8.95890411 0,5.75342466 C0,2.54794521 2.54794521,0 5.75342466,0 L18.2465753,0 Z M13.890411,0.98630137 L5.75342466,0.98630137 C3.12328767,0.98630137 0.98630137,3.12328767 0.98630137,5.75342466 C0.98630137,8.38356164 3.12328767,10.5205479 5.75342466,10.5205479 L11.3424658,10.5205479 L13.890411,0.98630137 Z M19.890411,3.28767123 C19.7260274,3.12328767 19.3972603,3.12328767 19.2328767,3.28767123 L17.4246575,5.09589041 L15.6164384,3.28767123 L15.5477312,3.23373288 C15.3724315,3.12585616 15.1027397,3.14383562 14.9589041,3.28767123 C14.7945205,3.45205479 14.7945205,3.78082192 14.9589041,3.94520548 L16.7671233,5.75342466 L15.0410959,7.56164384 L14.9871575,7.63035103 C14.8792808,7.80565068 14.8972603,8.07534247 15.0410959,8.21917808 C15.2054795,8.38356164 15.5342466,8.38356164 15.6986301,8.21917808 L17.5068493,6.4109589 L19.3150685,8.21917808 L19.3837757,8.27311644 C19.5590753,8.38099315 19.8287671,8.3630137 19.9726027,8.21917808 C20.1369863,8.05479452 20.1369863,7.7260274 19.9726027,7.56164384 L18.1643836,5.75342466 L19.890411,3.94520548 L19.9443493,3.87649829 C20.052226,3.70119863 20.0342466,3.43150685 19.890411,3.28767123 Z" id="Combined-Shape"></path>
                        <path d="M10.109589,3.36986301 C10.2739726,3.53424658 10.3561644,3.8630137 10.1917808,4.02739726 L10.1917808,4.02739726 L6.73972603,8.05479452 C6.65753425,8.1369863 6.57534247,8.21917808 6.49315068,8.21917808 C6.32876712,8.30136986 6.08219178,8.30136986 5.91780822,8.1369863 L5.91780822,8.1369863 L4.10958904,6.32876712 C3.94520548,6.16438356 3.94520548,5.83561644 4.10958904,5.67123288 C4.2739726,5.50684932 4.60273973,5.50684932 4.76712329,5.67123288 L4.76712329,5.67123288 L6.24657534,7.06849315 L9.36986301,3.36986301 C9.53424658,3.20547945 9.8630137,3.20547945 10.109589,3.36986301 Z" id="y" fill-rule="nonzero"></path>
                    </g>
                </g>
            </g>
        </g>
    </g>
</svg>