
<svg width="27" height="14" viewBox="0 0 27 14" fill="none" xmlns="http://www.w3.org/2000/svg">
<path fill-rule="evenodd" clip-rule="evenodd" d="M6.77299 12.4067H12.792L15.5359 2.13904H6.77299C3.94053 2.13904 1.63916 4.44041 1.63916 7.27286C1.63916 10.1053 3.94053 12.4067 6.77299 12.4067Z" fill="white"/>
<path fill-rule="evenodd" clip-rule="evenodd" d="M20.2273 1.0769H6.77314C3.32109 1.0769 0.577148 3.82085 0.577148 7.2729C0.577148 10.725 3.32109 13.4689 6.77314 13.4689H20.2273C23.6794 13.4689 26.4233 10.725 26.4233 7.2729C26.4233 3.82085 23.5908 1.0769 20.2273 1.0769ZM1.63932 7.2729C1.63932 4.44045 3.94069 2.13908 6.77314 2.13908H15.5361L12.7921 12.4067H6.77314C3.94069 12.4067 1.63932 10.1054 1.63932 7.2729Z" fill="#135F90"/>
<path d="M21.9978 4.61751C22.1749 4.79454 22.1749 5.1486 21.9978 5.32563V5.32563L20.139 7.27294L22.0863 9.22025C22.2634 9.39728 22.2634 9.75134 22.0863 9.92837C21.9093 10.1054 21.5553 10.1054 21.3782 9.92837V9.92837L19.4309 7.98105L17.4836 9.92837C17.3066 10.1054 16.9525 10.1054 16.7755 9.92837C16.5985 9.75134 16.5985 9.39728 16.7755 9.22025V9.22025L18.6343 7.27294L16.687 5.32563C16.5099 5.1486 16.5099 4.79454 16.687 4.61751C16.864 4.44048 17.2181 4.44048 17.3951 4.61751V4.61751L19.3424 6.56483L21.2897 4.61751C21.4667 4.44048 21.8208 4.44048 21.9978 4.61751Z" fill="white"/>
<path d="M11.4644 4.70601C11.6415 4.88304 11.73 5.2371 11.5529 5.41413V5.41413L7.83534 9.75132C7.74683 9.83984 7.65832 9.92835 7.5698 9.92835C7.39277 10.0169 7.12723 10.0169 6.9502 9.83984V9.83984L5.00289 7.89253C4.82586 7.7155 4.82586 7.36144 5.00289 7.18441C5.17992 7.00738 5.53397 7.00738 5.711 7.18441V7.18441L7.30426 8.68915L10.6678 4.70601C10.8448 4.52899 11.1989 4.52899 11.4644 4.70601Z" fill="#135F90"/>
</svg>
