<?xml version="1.0" encoding="UTF-8"?>
<svg width="20px" height="20px" viewBox="0 0 20 20" version="1.1" xmlns="http://www.w3.org/2000/svg" xmlns:xlink="http://www.w3.org/1999/xlink">
    <title>handshake</title>
    <g id="J---PI6---Send-to-Complete-Consent" stroke="none" stroke-width="1" fill="none" fill-rule="evenodd">
        <g id="RH---Send-to-Complete-Consent-1" transform="translate(-505.000000, -271.000000)" fill="#595959">
            <g id="handshake" transform="translate(505.000000, 271.000000)">
                <path d="M9.76517442,17.0244973 L9.80629552,17.05573 L11.9442853,19.1927893 C11.9939077,19.2424124 12.0121758,19.3153384 11.9918091,19.3825035 C11.976534,19.4328773 11.9413891,19.4738696 11.8957378,19.4969917 L11.8469311,19.5138427 L9.45642881,19.9923797 C9.43142446,19.9976508 9.40592354,20.0002016 9.38037083,20.0000111 C9.26616114,20.0000111 9.15798804,19.9486891 9.08574646,19.8602056 C9.03156527,19.7938429 9.00189867,19.7118474 9.00008814,19.6277755 L9.00768672,19.5435135 L9.48533084,17.1531112 C9.49901446,17.0842719 9.54948724,17.0285656 9.61663378,17.0081932 C9.65020706,16.998007 9.68522016,16.9974822 9.71804111,17.0057085 L9.76517442,17.0244973 Z M19.1959706,9.65823364 C19.6735382,10.048881 19.9637685,10.6231637 19.9950387,11.2393604 C20.0231818,11.7939374 19.8392079,12.335973 19.4846029,12.7573973 L19.3601384,12.8932568 L13.7942653,18.4591299 C13.7292199,18.5239722 13.6320155,18.5369406 13.5541064,18.4980353 L13.5000965,18.4591299 L10.7075766,15.6641099 C10.6427343,15.5990645 10.6297658,15.5018601 10.6686712,15.4239511 L10.7075766,15.3699411 L16.1909491,9.88656861 C16.9879378,9.05550577 18.2825614,8.95713448 19.1959706,9.65823364 Z M7.49833333,0 C8.62575474,0 9.66939939,0.584443992 10.2433333,1.53720786 C10.2702672,1.58276518 10.3140634,1.61532316 10.3644558,1.62901823 L10.4166667,1.6362085 L13.75,1.6362085 C14.3972087,1.6362085 14.9295339,2.1191431 14.9935464,2.73800682 L15,2.86348913 L15,9 L13,11 L13,5 C13,4.53571429 12.5688776,4.07142857 12.1069606,4.00747085 L12,4 L3,4 C2.53571429,4 2.07142857,4.43112245 2.00747085,4.89303936 L2,5 L2,15 C2,15.4642857 2.43112245,15.9285714 2.89303936,15.9925292 L3,16 L8.5,16 L7.5,17.9999643 L1.25,17.9999643 C0.602791309,17.9999643 0.0704661011,17.5170174 0.00645360909,16.8981522 L5.68434189e-14,16.7726697 L5.68434189e-14,2.86348913 C5.68434189e-14,2.22804378 0.491874664,1.70539384 1.12219476,1.64254481 L1.25,1.6362085 L4.58333333,1.6362085 C4.65366931,1.63444578 4.71803203,1.59696372 4.75333333,1.53720786 C5.32726728,0.584443992 6.37091193,0 7.49833333,0 Z M9.18181818,12 C9.63368752,12 10,12.4477153 10,13 C10,13.5128358 9.68414894,13.9355072 9.27723547,13.9932723 L9.18181818,14 L4.81818182,14 C4.36631248,14 4,13.5522847 4,13 C4,12.4871642 4.31585106,12.0644928 4.72276453,12.0067277 L4.81818182,12 L9.18181818,12 Z M10.3,9 C10.6865993,9 11,9.44771525 11,10 C11,10.5098013 10.7329604,10.930502 10.3878065,10.9922086 L10.3,11 L4.7,11 C4.31340068,11 4,10.5522847 4,10 C4,9.49019869 4.26703963,9.06949802 4.61219349,9.00779142 L4.7,9 L10.3,9 Z M10.3,6 C10.6865993,6 11,6.44771525 11,7 C11,7.50980131 10.7329604,7.93050198 10.3878065,7.99220858 L10.3,8 L4.7,8 C4.31340068,8 4,7.55228475 4,7 C4,6.49019869 4.26703963,6.06949802 4.61219349,6.00779142 L4.7,6 L10.3,6 Z" id="icon-color"></path>
            </g>
        </g>
    </g>
</svg>