<svg width="24" height="24" xmlns="http://www.w3.org/2000/svg">
 <!-- Generator: Sketch 51.3 (57544) - http://www.bohemiancoding.com/sketch -->
 <title>trash</title>
 <desc>Created with Sketch.</desc>

 <g>
  <title>background</title>
  <rect fill="none" id="canvas_background" height="402" width="582" y="-1" x="-1"/>
 </g>
 <g>
  <title>Layer 1</title>
  <g fill-rule="evenodd" fill="none" id="Symbols">
   <g fill-rule="nonzero" fill="#000000" id="icon/utility/trash">
    <g id="bin">
     <path fill="#444444" id="Shape" d="m19.5,7.5l-15,0c-0.276142,0 -0.5,0.223858 -0.5,0.5l0,14c0,1.10457 0.89543,2 2,2l12,0c1.10457,0 2,-0.89543 2,-2l0,-14c0,-0.276142 -0.223858,-0.5 -0.5,-0.5zm-9.25,13c0,0.414214 -0.335786,0.75 -0.75,0.75c-0.414214,0 -0.75,-0.335786 -0.75,-0.75l0,-9c0,-0.414214 0.335786,-0.75 0.75,-0.75c0.414214,0 0.75,0.335786 0.75,0.75l0,9zm5,0c0,0.414214 -0.335786,0.75 -0.75,0.75c-0.414214,0 -0.75,-0.335786 -0.75,-0.75l0,-9c0,-0.414214 0.335786,-0.75 0.75,-0.75c0.414214,0 0.75,0.335786 0.75,0.75l0,9z"/>
     <path fill="#444444" id="Shape" d="m22,4l-4.75,0c-0.138071,0 -0.25,-0.111929 -0.25,-0.25l0,-1.25c0,-1.380712 -1.119288,-2.5 -2.5,-2.5l-5,0c-1.380712,0 -2.5,1.119288 -2.5,2.5l0,1.25c0,0.066304 -0.026339,0.129893 -0.073223,0.176777c-0.046884,0.046884 -0.110473,0.073223 -0.176777,0.073223l-4.75,0c-0.552285,0 -1,0.447715 -1,1c0,0.552285 0.447715,1 1,1l20,0c0.552285,0 1,-0.447715 1,-1c0,-0.552285 -0.447715,-1 -1,-1zm-13,-0.25l0,-1.25c0,-0.276142 0.223858,-0.5 0.5,-0.5l5,0c0.276142,0 0.5,0.223858 0.5,0.5l0,1.25c0,0.138071 -0.111929,0.25 -0.25,0.25l-5.5,0c-0.138071,0 -0.25,-0.111929 -0.25,-0.25z"/>
    </g>
   </g>
  </g>
 </g>
</svg>