<svg width="24" height="24" xmlns="http://www.w3.org/2000/svg">
 <title>pin</title>

 <g>
  <title>background</title>
  <rect fill="none" id="canvas_background" height="402" width="582" y="-1" x="-1"/>
 </g>
 <g>
  <title>Layer 1</title>
  <path fill="#595959" id="svg_1" d="m12,0a8.009,8.009 0 0 0 -8,8c0,3.51 5,12.025 7.148,15.524a1,1 0 0 0 0.852,0.476a0.991,0.991 0 0 0 0.852,-0.477c2.148,-3.497 7.148,-12.009 7.148,-15.523a8.009,8.009 0 0 0 -8,-8zm0,11.5a3.5,3.5 0 1 1 3.5,-3.5a3.5,3.5 0 0 1 -3.5,3.5z"/>
 </g>
</svg>