<?xml version="1.0" encoding="UTF-8"?>
<svg width="13px" height="16px" viewBox="0 0 13 16" version="1.1" xmlns="http://www.w3.org/2000/svg" xmlns:xlink="http://www.w3.org/1999/xlink">
    <title>icon</title>
    <defs>
        <path d="M9.4534,13.9999974 C9.53622544,13.999532 9.60591781,14.0635176 9.6146,14.148 C9.62168314,14.2095083 9.62515607,14.2713977 9.62500503,14.3333333 C9.62500503,15.2538079 8.89746272,15.9999974 8,15.9999974 C7.10253728,15.9999974 6.37499497,15.2538079 6.37499497,14.3333333 C6.37484393,14.2713977 6.37831686,14.2095083 6.3854,14.148 C6.39465084,14.0638172 6.46400224,14.0001447 6.5466,13.9999974 L6.5466,13.9999974 Z M8,2.13162821e-14 C8.53847763,2.13162821e-14 8.975,0.44771525 8.975,1 L8.975,1 L8.975,1.75733333 C9.51520362,1.85635618 10.0308688,2.06437613 10.4921,2.36933333 C12.1000996,3.53035855 13.0415684,5.43410186 13.005,7.45066667 L13.005,7.45066667 L13.005,7.96266667 C13.0073676,9.66036962 13.3959717,11.3340826 14.1399,12.8506667 C14.1906414,12.9532786 14.1855627,13.0761521 14.126481,13.1746556 C14.0673993,13.2731591 13.9627585,13.3333333 13.85,13.3333333 L13.85,13.3333333 L2.15,13.3333333 C2.03742905,13.3330987 1.93299296,13.2731335 1.87395038,13.174831 C1.81490781,13.0765286 1.80966788,12.9538895 1.8601,12.8506667 C2.60402827,11.3340826 2.99263238,9.66036962 2.995,7.96266667 L2.995,7.96266667 L2.995,7.45066667 C2.96545632,5.58369498 3.76673127,3.80459723 5.17185,2.61733333 C5.71601245,2.18857882 6.35078801,1.89696422 7.025,1.766 L7.025,1.766 L7.025,1 C7.025,0.44771525 7.46152237,2.13162821e-14 8,2.13162821e-14 Z" id="path-1"></path>
    </defs>
    <g id="Page-1" stroke="none" stroke-width="1" fill="none" fill-rule="evenodd">
        <g id="Optimized-Message" transform="translate(-255.000000, -74.000000)">
            <g id="icon" transform="translate(253.500000, 74.000000)">
                <mask id="mask-2" fill="white">
                    <use xlink:href="#path-1"></use>
                </mask>
                <use id="Mask" fill="#000000" fill-rule="nonzero" xlink:href="#path-1"></use>
                <g id="Group" mask="url(#mask-2)" fill="#444444">
                    <g id="color">
                        <rect id="Rectangle" x="0" y="0" width="16" height="16"></rect>
                    </g>
                </g>
            </g>
        </g>
    </g>
</svg>