<svg width="24.000000000000004" height="24.000000000000004" xmlns="http://www.w3.org/2000/svg">
 <!-- Generator: Sketch 51.3 (57544) - http://www.bohemiancoding.com/sketch -->
 <title>close</title>
 <desc>Created with Sketch.</desc>

 <g>
  <title>background</title>
  <rect fill="none" id="canvas_background" height="402" width="582" y="-1" x="-1"/>
 </g>
 <g>
  <title>Layer 1</title>
  <g fill-rule="evenodd" fill="none" id="Symbols">
   <g fill-rule="nonzero" fill="#000000" id="icon/utility/close">
    <g id="close">
     <path fill="#ffffff" id="Shape" d="m14.3,12.179c-0.04702,-0.0469 -0.07345,-0.11059 -0.07345,-0.177c0,-0.06641 0.02643,-0.1301 0.07345,-0.177l9.263,-9.262c0.5857,-0.58653 0.58503,-1.5368 -0.0015,-2.1225c-0.58653,-0.5857 -1.5368,-0.58503 -2.1225,0.0015l-9.262,9.258c-0.0469,0.04702 -0.11059,0.07345 -0.177,0.07345c-0.06641,0 -0.1301,-0.02643 -0.177,-0.07345l-9.262,-9.258c-0.5857,-0.58597 -1.53553,-0.5862 -2.1215,-0.0005c-0.58597,0.5857 -0.5862,1.53553 -0.0005,2.1215l9.261,9.262c0.04702,0.0469 0.07345,0.11059 0.07345,0.177c0,0.06641 -0.02643,0.1301 -0.07345,0.177l-9.261,9.263c-0.37888,0.37906 -0.52675,0.93145 -0.38792,1.4491c0.13883,0.51765 0.54329,0.92191 1.061,1.0605c0.51771,0.13859 1.07004,-0.00954 1.44892,-0.3886l9.262,-9.263c0.0469,-0.04702 0.11059,-0.07345 0.177,-0.07345c0.06641,0 0.1301,0.02643 0.177,0.07345l9.262,9.263c0.5857,0.58597 1.53553,0.5862 2.1215,0.0005c0.58597,-0.5857 0.5862,-1.53553 0.0005,-2.1215l-9.261,-9.263z"/>
    </g>
   </g>
  </g>
 </g>
</svg>