<svg width="24.000000000000004" height="24.000000000000004" xmlns="http://www.w3.org/2000/svg">
 <!-- Generator: Sketch 51.3 (57544) - http://www.bohemiancoding.com/sketch -->
 <title>download</title>
 <desc>Created with Sketch.</desc>

 <g>
  <title>background</title>
  <rect fill="none" id="canvas_background" height="402" width="582" y="-1" x="-1"/>
 </g>
 <g>
  <title>Layer 1</title>
  <g fill-rule="evenodd" fill="none" id="Symbols">
   <g fill-rule="nonzero" fill="#000000" id="icon/utility/download">
    <g id="download-bottom">
     <path fill="#297dfd" id="Shape" d="m22.667,16.938c-0.66937,0 -1.212,0.54263 -1.212,1.212l0,1.855c-0.0011,0.86702 -0.70398,1.56945 -1.571,1.57l-15.768,0c-0.86702,-0.00055 -1.5699,-0.70298 -1.571,-1.57l0,-1.855c0,-0.66937 -0.54263,-1.212 -1.212,-1.212c-0.66937,0 -1.212,0.54263 -1.212,1.212l0,1.855c0,2.20719 1.78781,3.99724 3.995,4l15.768,0c2.20914,0 4,-1.79086 4,-4l0,-1.855c0,-0.32231 -0.12838,-0.63135 -0.35675,-0.85879c-0.22838,-0.22743 -0.53794,-0.35454 -0.86025,-0.35321z"/>
     <path fill="#297dfd" id="Shape" d="m12,0c-1.07088,0 -1.939,0.86812 -1.939,1.939l0,9.066c0,0.13807 -0.11193,0.25 -0.25,0.25l-2.659,0c-0.37987,0.00016 -0.7247,0.22204 -0.88224,0.5677c-0.15755,0.34566 -0.09883,0.75148 0.15024,1.0383l4.848,5.576c0.18405,0.21219 0.45111,0.33407 0.732,0.33407c0.28089,0 0.54795,-0.12188 0.732,-0.33407l4.848,-5.576c0.24907,-0.28682 0.30779,-0.69264 0.15024,-1.0383c-0.15754,-0.34566 -0.50237,-0.56754 -0.88224,-0.5677l-2.659,0c-0.13807,0 -0.25,-0.11193 -0.25,-0.25l0,-9.066c0,-1.07088 -0.86812,-1.939 -1.939,-1.939z"/>
    </g>
   </g>
  </g>
 </g>
</svg>