<svg width="16" height="16" xmlns="http://www.w3.org/2000/svg">
 <title>pin</title>

 <g>
  <title>background</title>
  <rect x="-1" y="-1" width="18" height="18" id="canvas_background" fill="none"/>
 </g>
 <g>
  <title>Layer 1</title>
  <path stroke="null" d="m8.083333,0a5.255906,5.255906 0 0 0 -5.25,5.25c0,2.303438 3.28125,7.891406 4.690875,10.187625a0.65625,0.65625 0 0 0 0.559125,0.312375a0.650344,0.650344 0 0 0 0.559125,-0.313031c1.409625,-2.294906 4.690875,-7.880906 4.690875,-10.186969a5.255906,5.255906 0 0 0 -5.25,-5.25zm0,7.546875a2.296875,2.296875 0 1 1 2.296875,-2.296875a2.296875,2.296875 0 0 1 -2.296875,2.296875z" id="svg_1" fill="#595959"/>
 </g>
</svg>