<?xml version="1.0" encoding="UTF-8"?>
<svg width="24px" height="24px" viewBox="0 0 24 24" version="1.1" xmlns="http://www.w3.org/2000/svg" xmlns:xlink="http://www.w3.org/1999/xlink">
    <!-- Generator: Sketch 51.3 (57544) - http://www.bohemiancoding.com/sketch -->
    <title>close</title>
    <desc>Created with Sketch.</desc>
    <defs></defs>
    <g id="Symbols" stroke="none" stroke-width="1" fill="none" fill-rule="evenodd">
        <g id="icon/utility/close" fill="#000000" fill-rule="nonzero">
            <g id="close">
                <path d="M14.3,12.179 C14.2529791,12.1320979 14.2265531,12.0684136 14.2265531,12.002 C14.2265531,11.9355864 14.2529791,11.8719021 14.3,11.825 L23.563,2.563 C24.148698,1.97647359 24.1480264,1.02619799 23.5615,0.440500022 C22.9749736,-0.145197946 22.024698,-0.144526383 21.439,0.442 L12.177,9.7 C12.1300979,9.74702085 12.0664136,9.77344689 12,9.77344689 C11.9335864,9.77344689 11.8699021,9.74702085 11.823,9.7 L2.561,0.442 C1.97530202,-0.14397412 1.02547412,-0.144197977 0.4395,0.4415 C-0.14647412,1.02719798 -0.146697977,1.97702588 0.439,2.563 L9.7,11.825 C9.74702085,11.8719021 9.77344689,11.9355864 9.77344689,12.002 C9.77344689,12.0684136 9.74702085,12.1320979 9.7,12.179 L0.439,21.442 C0.0601198419,21.8210588 -0.0877544041,22.3734537 0.0510800593,22.891103 C0.189914523,23.4087522 0.594365438,23.8130125 1.11208006,23.951603 C1.62979468,24.0901934 2.18211984,23.9420588 2.561,23.563 L11.823,14.3 C11.8699021,14.2529791 11.9335864,14.2265531 12,14.2265531 C12.0664136,14.2265531 12.1300979,14.2529791 12.177,14.3 L21.439,23.563 C22.024698,24.1489741 22.9745259,24.149198 23.5605,23.5635 C24.1464741,22.977802 24.146698,22.0279741 23.561,21.442 L14.3,12.179 Z" id="Shape"></path>
            </g>
        </g>
    </g>
</svg>