<svg width="24" height="24" xmlns="http://www.w3.org/2000/svg">
 <title>medical-file</title>

 <g>
  <title>background</title>
  <rect fill="none" id="canvas_background" height="402" width="582" y="-1" x="-1"/>
 </g>
 <g>
  <title>Layer 1</title>
  <path fill="#595959" id="svg_1" d="m21.5,7a1,1 0 0 0 -0.293,-0.707l-6,-6a1,1 0 0 0 -0.707,-0.293l-10,0a2,2 0 0 0 -2,2l0,20a2,2 0 0 0 2,2l15,0a2,2 0 0 0 2,-2l0,-15zm-16.5,15a0.5,0.5 0 0 1 -0.5,-0.5l0,-19a0.5,0.5 0 0 1 0.5,-0.5l8.5,0a0.5,0.5 0 0 1 0.5,0.5l0,3a2,2 0 0 0 2,2l3,0a0.5,0.5 0 0 1 0.5,0.5l0,13.5a0.5,0.5 0 0 1 -0.5,0.5l-14,0z"/>
  <path fill="#595959" id="svg_2" d="m17,12.214a0.643,0.643 0 0 0 -0.643,-0.643l-1.928,0a0.5,0.5 0 0 1 -0.5,-0.5l0,-1.928a0.643,0.643 0 0 0 -0.643,-0.643l-2.572,0a0.642,0.642 0 0 0 -0.642,0.643l0,1.928a0.5,0.5 0 0 1 -0.5,0.5l-1.929,0a0.643,0.643 0 0 0 -0.643,0.643l0,2.572a0.643,0.643 0 0 0 0.643,0.643l1.929,0a0.5,0.5 0 0 1 0.5,0.5l0,1.928a0.642,0.642 0 0 0 0.642,0.643l2.572,0a0.643,0.643 0 0 0 0.643,-0.643l0,-1.928a0.5,0.5 0 0 1 0.5,-0.5l1.928,0a0.643,0.643 0 0 0 0.643,-0.643l0,-2.572z"/>
 </g>
</svg>