<?xml version="1.0" encoding="UTF-8"?>
<svg width="24px" height="24px" viewBox="0 0 24 24" version="1.1" xmlns="http://www.w3.org/2000/svg" xmlns:xlink="http://www.w3.org/1999/xlink">
    <!-- Generator: Sketch 51.3 (57544) - http://www.bohemiancoding.com/sketch -->
    <title>calendar</title>
    <desc>Created with Sketch.</desc>
    <defs></defs>
    <g id="Symbols" stroke="none" stroke-width="1" fill="none" fill-rule="evenodd">
        <g id="icon/utility/calendar" fill="#000000" fill-rule="nonzero">
            <g id="calendar">
                <path d="M21.5,3 L18.75,3 C18.6119288,3 18.5,2.88807119 18.5,2.75 L18.5,1 C18.5,0.44771525 18.0522847,3.38176876e-17 17.5,0 C16.9477153,-3.38176876e-17 16.5,0.44771525 16.5,1 L16.5,5.75 C16.5,6.16421356 16.1642136,6.5 15.75,6.5 C15.3357864,6.5 15,6.16421356 15,5.75 L15,3.5 C15,3.22385763 14.7761424,3 14.5,3 L8.25,3 C8.1123184,3.0000011 8.00055073,2.8886805 8,2.751 L8,1 C8,0.44771525 7.55228475,3.38176876e-17 7,0 C6.44771525,-3.38176876e-17 6,0.44771525 6,1 L6,5.75 C6,6.16421356 5.66421356,6.5 5.25,6.5 C4.83578644,6.5 4.5,6.16421356 4.5,5.75 L4.5,3.5 C4.5,3.22385763 4.27614237,3 4,3 L2.5,3 C1.3954305,3 0.5,3.8954305 0.5,5 L0.5,22 C0.5,23.1045695 1.3954305,24 2.5,24 L21.5,24 C22.6045695,24 23.5,23.1045695 23.5,22 L23.5,5 C23.5,3.8954305 22.6045695,3 21.5,3 Z M21,22 L3,22 C2.72385763,22 2.5,21.7761424 2.5,21.5 L2.5,9.5 C2.5,9.22385763 2.72385763,9 3,9 L21,9 C21.2761424,9 21.5,9.22385763 21.5,9.5 L21.5,21.5 C21.5,21.7761424 21.2761424,22 21,22 Z" id="Shape"></path>
            </g>
        </g>
    </g>
</svg>