<svg width="14" height="14" xmlns="http://www.w3.org/2000/svg">
 <!-- Generator: Sketch 51.3 (57544) - http://www.bohemiancoding.com/sketch -->

 <title>filter</title>
 <desc>Created with Sketch.</desc>
 <g>
  <title>background</title>
  <rect x="-1" y="-1" width="16" height="16" id="canvas_background" fill="none"/>
 </g>
 <g>
  <title>Layer 1</title>
  <g stroke="null" id="Symbols" fill="none" fill-rule="evenodd">
   <g stroke="null" id="icon/utility/filter" fill="#000000" fill-rule="nonzero">
    <g stroke="null" id="filter-2">
     <path stroke="null" d="m13.939698,0.481c-0.096546,-0.192667 -0.293582,-0.314327 -0.509086,-0.314335l-12.527836,0c-0.215691,0 -0.412869,0.121863 -0.509329,0.314782c-0.09646,0.19292 -0.075643,0.42378 0.053771,0.596333l5.011134,6.732573l0,4.884148c0.004651,0.627057 0.511837,1.134244 1.138894,1.138894c0.24647,0.000289 0.486334,-0.079666 0.683337,-0.227779l1.138894,-0.854171c0.286287,-0.215496 0.454933,-0.552788 0.455558,-0.911115l0,-4.029977l5.011134,-6.732573c0.129516,-0.172701 0.150243,-0.403788 0.053528,-0.596781zm-10.521674,0.938449l2.243052,2.989597c0.036963,0.049285 0.056945,0.109228 0.056945,0.170834l0,0.711809c0,0.122554 -0.078421,0.231358 -0.194686,0.270113c-0.116265,0.038755 -0.244284,-0.001236 -0.317816,-0.099279l-2.810791,-3.701406c-0.064707,-0.086276 -0.075116,-0.201707 -0.026886,-0.298166c0.04823,-0.09646 0.146819,-0.157391 0.254665,-0.157391l0.569447,0c0.089017,0.000535 0.172661,0.042673 0.22607,0.113889z" id="Shape" fill="#297dfd"/>
    </g>
   </g>
  </g>
 </g>
</svg>