<svg width="16" height="16" xmlns="http://www.w3.org/2000/svg">
 <title>medical-file</title>

 <g>
  <title>background</title>
  <rect fill="none" id="canvas_background" height="4.666667" width="4.666667" y="-1" x="-1"/>
 </g>
 <g>
  <title>Layer 1</title>
  <path fill="#595959" id="svg_1" d="m13.333334,4.642106a0.552632,0.663158 0 0 0 -0.161921,-0.468853l-3.31579,-3.978948a0.552632,0.663158 0 0 0 -0.390711,-0.194305l-5.526316,0a1.105263,1.326316 0 0 0 -1.105263,1.326316l0,13.263159a1.105263,1.326316 0 0 0 1.105263,1.326316l8.289475,0a1.105263,1.326316 0 0 0 1.105263,-1.326316l0,-9.947369zm-9.118422,9.947369a0.276316,0.331579 0 0 1 -0.276316,-0.331579l0,-12.600001a0.276316,0.331579 0 0 1 0.276316,-0.331579l4.697369,0a0.276316,0.331579 0 0 1 0.276316,0.331579l0,1.989474a1.105263,1.326316 0 0 0 1.105263,1.326316l1.657895,0a0.276316,0.331579 0 0 1 0.276316,0.331579l0,8.952632a0.276316,0.331579 0 0 1 -0.276316,0.331579l-7.736843,0z" stroke="null"/>
  <path stroke="null" fill="#595959" id="svg_2" d="m10.833341,9.209359a0.353651,0.353651 0 0 0 -0.353651,-0.353651l-1.060404,0a0.275001,0.275001 0 0 1 -0.275001,-0.275001l0,-1.060404a0.353651,0.353651 0 0 0 -0.353651,-0.353651l-1.414605,0a0.353101,0.353101 0 0 0 -0.353101,0.353651l0,1.060404a0.275001,0.275001 0 0 1 -0.275001,0.275001l-1.060954,0a0.353651,0.353651 0 0 0 -0.353651,0.353651l0,1.414605a0.353651,0.353651 0 0 0 0.353651,0.353651l1.060954,0a0.275001,0.275001 0 0 1 0.275001,0.275001l0,1.060404a0.353101,0.353101 0 0 0 0.353101,0.353651l1.414605,0a0.353651,0.353651 0 0 0 0.353651,-0.353651l0,-1.060404a0.275001,0.275001 0 0 1 0.275001,-0.275001l1.060404,0a0.353651,0.353651 0 0 0 0.353651,-0.353651l0,-1.414605z"/>
 </g>
</svg>