<svg width="24" height="24" xmlns="http://www.w3.org/2000/svg">
 <!-- Generator: Sketch 51.3 (57544) - http://www.bohemiancoding.com/sketch -->
 <title>filter</title>
 <desc>Created with Sketch.</desc>

 <g>
  <title>background</title>
  <rect fill="none" id="canvas_background" height="402" width="582" y="-1" x="-1"/>
 </g>
 <g>
  <title>Layer 1</title>
  <g fill-rule="evenodd" fill="none" id="Symbols">
   <g fill-rule="nonzero" fill="#000000" id="icon/utility/filter">
    <g id="filter-2">
     <path fill="#297dfd" id="Shape" d="m23.894,0.552c-0.16954,-0.33834 -0.51556,-0.55199 -0.894,-0.552l-22,0c-0.37877,0 -0.72504,0.214 -0.89443,0.55279c-0.16939,0.33878 -0.13283,0.74419 0.09443,1.04721l8.8,11.823l0,8.577c0.00817,1.10117 0.89883,1.99183 2,2c0.43282,0.00051 0.85405,-0.1399 1.2,-0.4l2,-1.5c0.50275,-0.37843 0.7989,-0.97074 0.8,-1.6l0,-7.077l8.8,-11.823c0.22744,-0.30328 0.26384,-0.70909 0.094,-1.048zm-18.477,1.648l3.939,5.25c0.06491,0.08655 0.1,0.19181 0.1,0.3l0,1.25c0,0.21522 -0.13772,0.40628 -0.34189,0.47434c-0.20417,0.06806 -0.42898,-0.00217 -0.55811,-0.17434l-4.936,-6.5c-0.11363,-0.15151 -0.13191,-0.35421 -0.04721,-0.52361c0.08469,-0.16939 0.25782,-0.27639 0.44721,-0.27639l1,0c0.15632,0.00094 0.30321,0.07494 0.397,0.2z"/>
    </g>
   </g>
  </g>
 </g>
</svg>