<svg width="24" height="24" xmlns="http://www.w3.org/2000/svg">
 <!-- Generator: Sketch 51.3 (57544) - http://www.bohemiancoding.com/sketch -->
 <title>status-alert</title>
 <desc>Created with Sketch.</desc>

 <g>
  <title>background</title>
  <rect fill="none" id="canvas_background" height="402" width="582" y="-1" x="-1"/>
 </g>
 <g>
  <title>Layer 1</title>
  <g fill-rule="evenodd" fill="none" id="Symbols">
   <g fill-rule="nonzero" fill="#000000" id="icon/status/alert">
    <g id="alert-diamond">
     <path fill="#ff9300" id="Shape" d="m23,10.586l-9.586,-9.586c-0.781,-0.78076 -2.047,-0.78076 -2.828,0l-9.586,9.587c-0.78076,0.781 -0.78076,2.047 0,2.828l9.586,9.585c0.781,0.78076 2.047,0.78076 2.828,0l9.586,-9.585c0.37525,-0.3751 0.58607,-0.88393 0.58607,-1.4145c0,-0.53057 -0.21082,-1.0394 -0.58607,-1.4145zm-11.932,-4.169c0,-0.55228 0.44772,-1 1,-1c0.55228,0 1,0.44772 1,1l0,6c0,0.55228 -0.44772,1 -1,1c-0.55228,0 -1,-0.44772 -1,-1l0,-6zm1.051,11.51l-0.028,0c-0.81922,-0.00314 -1.49039,-0.65139 -1.522,-1.47c-0.01484,-0.39599 0.13028,-0.7813 0.40267,-1.06911c0.27239,-0.28781 0.64912,-0.45391 1.04533,-0.46089l0.028,0c0.81963,0.00211 1.49141,0.65094 1.522,1.47c0.01484,0.39599 -0.13028,0.7813 -0.40267,1.06911c-0.27239,0.28781 -0.64912,0.45391 -1.04533,0.46089z"/>
    </g>
   </g>
  </g>
 </g>
</svg>