<svg width="24.000000000000004" height="24.000000000000004" xmlns="http://www.w3.org/2000/svg">
 <!-- Generator: Sketch 51.3 (57544) - http://www.bohemiancoding.com/sketch -->
 <title>status-alert</title>
 <desc>Created with Sketch.</desc>

 <g>
  <title>background</title>
  <rect fill="none" id="canvas_background" height="402" width="582" y="-1" x="-1"/>
 </g>
 <g>
  <title>Layer 1</title>
  <g fill-rule="evenodd" fill="none" id="Symbols">
   <g fill-rule="nonzero" fill="#000000" id="icon/status/alert">
    <g id="alert-diamond">
     <path fill="#ffffff" id="Shape" d="m23,10.586l-9.586,-9.586c-0.781,-0.780764 -2.047,-0.780764 -2.828,0l-9.586,9.587c-0.780764,0.781 -0.780764,2.047 0,2.828l9.586,9.585c0.781,0.780764 2.047,0.780764 2.828,0l9.586,-9.585c0.375248,-0.375096 0.586073,-0.883927 0.586073,-1.4145c0,-0.530573 -0.210825,-1.039404 -0.586073,-1.4145zm-11.932,-4.169c0,-0.552285 0.447715,-1 1,-1c0.552285,0 1,0.447715 1,1l0,6c0,0.552285 -0.447715,1 -1,1c-0.552285,0 -1,-0.447715 -1,-1l0,-6zm1.051,11.51l-0.028,0c-0.819216,-0.003141 -1.490394,-0.651388 -1.522,-1.47c-0.014837,-0.395991 0.130285,-0.781297 0.40267,-1.069108c0.272386,-0.287811 0.649122,-0.453916 1.04533,-0.460892l0.028,0c0.819633,0.002113 1.491407,0.650935 1.522,1.47c0.014838,0.395991 -0.130285,0.781297 -0.40267,1.069108c-0.272386,0.287811 -0.649122,0.453916 -1.04533,0.460892z"/>
    </g>
   </g>
  </g>
 </g>
</svg>