<svg width="14" height="14" xmlns="http://www.w3.org/2000/svg">
 <!-- Generator: Sketch 51.3 (57544) - http://www.bohemiancoding.com/sketch -->

 <title>download</title>
 <desc>Created with Sketch.</desc>
 <g>
  <title>background</title>
  <rect x="-1" y="-1" width="16" height="16" id="canvas_background" fill="none"/>
 </g>
 <g>
  <title>Layer 1</title>
  <g id="Symbols" fill="none" fill-rule="evenodd">
   <g stroke="null" id="icon/utility/download" fill="#000000" fill-rule="nonzero">
    <g stroke="null" id="download-bottom">
     <path stroke="null" d="m12.862879,9.905849c-0.378295,0 -0.684962,0.306668 -0.684962,0.684962l0,1.048354c-0.000622,0.489997 -0.397855,0.886975 -0.887851,0.887286l-8.91129,0c-0.489997,-0.000311 -0.887229,-0.397289 -0.887851,-0.887286l0,-1.048354c0,-0.378295 -0.306668,-0.684962 -0.684962,-0.684962c-0.378295,0 -0.684962,0.306668 -0.684962,0.684962l0,1.048354c0,1.247394 1.010381,2.259041 2.257776,2.260601l8.91129,0c1.248496,0 2.260601,-1.012105 2.260601,-2.260601l0,-1.048354c0,-0.182154 -0.072554,-0.356808 -0.201617,-0.485345c-0.129069,-0.128532 -0.304017,-0.200368 -0.486171,-0.199617z" id="Shape" fill="#297dfd"/>
     <path stroke="null" d="m6.834421,0.333333c-0.605208,0 -1.095826,0.490618 -1.095826,1.095826l0,5.123653c0,0.07803 -0.063257,0.141288 -0.141288,0.141288l-1.502735,0c-0.214684,0.00009 -0.409564,0.125486 -0.498598,0.320836c-0.089039,0.19535 -0.055854,0.424699 0.084908,0.586796l2.739849,3.151278c0.104016,0.119919 0.254945,0.1888 0.41369,0.1888c0.158745,0 0.309674,-0.068881 0.41369,-0.1888l2.739849,-3.151278c0.140762,-0.162096 0.173948,-0.391446 0.084908,-0.586796c-0.089034,-0.19535 -0.283915,-0.320745 -0.498598,-0.320836l-1.502735,0c-0.07803,0 -0.141288,-0.063257 -0.141288,-0.141288l0,-5.123653c0,-0.605208 -0.490618,-1.095826 -1.095826,-1.095826z" id="Shape" fill="#297dfd"/>
    </g>
   </g>
  </g>
 </g>
</svg>