<svg width="24" height="24" xmlns="http://www.w3.org/2000/svg">
 <!-- Generator: Sketch 51.3 (57544) - http://www.bohemiancoding.com/sketch -->
 <title>pencil</title>
 <desc>Created with Sketch.</desc>

 <g>
  <title>background</title>
  <rect fill="none" id="canvas_background" height="402" width="582" y="-1" x="-1"/>
 </g>
 <g>
  <title>Layer 1</title>
  <g fill-rule="evenodd" fill="none" id="Symbols">
   <g fill-rule="nonzero" fill="#000000" id="icon/utility/pencil">
    <g id="pencil-2">
     <path fill="#595959" id="Shape" d="m2.649,16.4c-0.12906,-0.12868 -0.31791,-0.17695 -0.49289,-0.12598c-0.17497,0.05098 -0.30836,0.19312 -0.34811,0.37098l-1.414,6.365c-0.03722,0.16678 0.01332,0.34102 0.134,0.462c0.12165,0.11957 0.29511,0.17025 0.462,0.135l6.364,-1.414c0.17828,-0.03953 0.32082,-0.17311 0.37184,-0.34845c0.05102,-0.17533 0.00239,-0.36454 -0.12684,-0.49355l-4.95,-4.951z"/>
     <path fill="#595959" id="Shape" d="m17.852,7.208l-10.96,10.96c-0.09683,0.09813 -0.09683,0.25587 0,0.354l1.768,1.768c0.1968,0.19142 0.5102,0.19142 0.707,0l10.607,-10.607c0.19519,-0.19525 0.19519,-0.51175 0,-0.707l-1.768,-1.768c-0.09813,-0.09683 -0.25587,-0.09683 -0.354,0z"/>
     <path fill="#595959" id="Shape" d="m16.792,5.794l-1.768,-1.767c-0.19525,-0.19519 -0.51175,-0.19519 -0.707,0l-10.607,10.606c-0.19519,0.19525 -0.19519,0.51175 0,0.707l1.768,1.768c0.09813,0.09683 0.25587,0.09683 0.354,0l10.96,-10.96c0.09683,-0.09813 0.09683,-0.25587 0,-0.354z"/>
     <path fill="#595959" id="Shape" d="m22.449,1.552c-1.56337,-1.5601 -4.09463,-1.5601 -5.658,0l-0.707,0.707c-0.19519,0.19525 -0.19519,0.51175 0,0.707l4.95,4.949c0.19805,0.18832 0.50895,0.18832 0.707,0l0.708,-0.707c1.56153,-1.562 1.56153,-4.094 0,-5.656z"/>
    </g>
   </g>
  </g>
 </g>
</svg>