<?xml version="1.0" encoding="UTF-8"?>
<svg width="100px" height="64px" viewBox="0 0 100 64" version="1.1" xmlns="http://www.w3.org/2000/svg" xmlns:xlink="http://www.w3.org/1999/xlink">
    <title>9258C89A-907C-4FDE-BE9E-70816FDCB4C9</title>
    <g id="--------↳-Medical-Record-Authorization" stroke="none" stroke-width="1" fill="none" fill-rule="evenodd">
        <g id="Medical-Record-Auth-—-Desktop-1" transform="translate(-1094.000000, -393.000000)" fill-rule="nonzero">
            <g id="Group-17" transform="translate(953.000000, 288.000000)">
                <g id="undraw_safe_re_kiil" transform="translate(141.000000, 105.000000)">
                    <polygon id="fc777aff-63b1-4720-84dc-e3a9c20790b9" fill="#F1F1F1" transform="translate(43.555674, 27.236744) rotate(-8.219950) translate(-43.555674, -27.236744) " points="2.70640172 7.85305518 84.4049459 7.85305518 84.4049459 46.6204322 2.70640172 46.6204322"></polygon>
                    <polygon id="ecffa418-b240-4504-be04-512edea7ccda" fill="#FFFFFF" transform="translate(43.571903, 27.348673) rotate(-8.219950) translate(-43.571903, -27.348673) " points="5.05876935 11.1762559 82.0850374 11.1762559 82.0850374 43.5210904 5.05876935 43.5210904"></polygon>
                    <polygon id="b49ce3f1-9d75-4481-986b-3b6beb000c79" fill="#E5E5E5" transform="translate(40.677725, 7.557936) rotate(-8.219950) translate(-40.677725, -7.557936) " points="-0.171548489 5.82253731 81.5269975 5.82253731 81.5269975 9.29333531 -0.171548489 9.29333531"></polygon>
                    <circle id="a4219562-805a-49cd-8b89-b1f92f7a9e75" fill="#FFFFFF" cx="2.84452926" cy="13.3319112" r="1"></circle>
                    <circle id="b0f6399c-6944-4f74-a888-473f61f9730c" fill="#FFFFFF" cx="5.26119795" cy="12.9828065" r="1"></circle>
                    <circle id="b03f93dc-2c99-4323-9b17-02f51b8830c0" fill="#FFFFFF" cx="7.67797689" cy="12.6336831" r="1"></circle>
                    <rect id="a6067cfc-0392-4d68-afe4-e34d11a8f0ac" fill="#E6E6E6" x="18.0899766" y="18.7212108" width="81.6985441" height="38.7673771"></rect>
                    <rect id="ecd65817-7467-4dbd-a435-c0f1d9841c98" fill="#FFFFFF" x="20.4261735" y="22.0455831" width="77.0262681" height="32.3448346"></rect>
                    <rect id="eea6c39d-8a45-4eb1-bab9-6120f465de14" fill="#CBCBCB" x="18.0551403" y="16.481392" width="81.698546" height="3.470798"></rect>
                    <circle id="ab9e51f9-7431-4d30-8193-f9435a6bd5c3" fill="#FFFFFF" cx="20.6343727" cy="18.5222971" r="1"></circle>
                    <circle id="a54ed687-3b0d-413b-b405-af8897a5c032" fill="#FFFFFF" cx="23.0761268" cy="18.5222971" r="1"></circle>
                    <circle id="fd1d2195-7e97-488f-8f4b-7061a06deb9a" fill="#FFFFFF" cx="25.5179912" cy="18.5222971" r="1"></circle>
                    <rect id="Rectangle" fill="#E6E6E6" x="64.8109903" y="26.9631932" width="10.8481933" height="1"></rect>
                    <rect id="Rectangle" fill="#E6E6E6" x="64.8109903" y="29.3568638" width="16.7519774" height="1"></rect>
                    <rect id="Rectangle" fill="#E6E6E6" x="64.9851679" y="31.6365139" width="13.6524918" height="1"></rect>
                    <rect id="Rectangle" fill="#E6E6E6" x="64.8109903" y="34.1378141" width="7.97010171" height="1"></rect>
                    <rect id="Rectangle" fill="#E6E6E6" x="64.8109903" y="36.5810538" width="12.0289512" height="1"></rect>
                    <rect id="Rectangle" fill="#E6E6E6" x="59.8665718" y="26.706705" width="1.32835153" height="1.32834966"></rect>
                    <rect id="Rectangle" fill="#E6E6E6" x="59.8665718" y="29.1003718" width="1.32835153" height="1.32834779"></rect>
                    <rect id="Rectangle" fill="#E6E6E6" x="59.8665718" y="31.3800257" width="1.32835153" height="1.32835153"></rect>
                    <rect id="Rectangle" fill="#E6E6E6" x="59.8665718" y="33.8813258" width="1.32835153" height="1.32835153"></rect>
                    <rect id="Rectangle" fill="#E6E6E6" x="59.8665718" y="36.3245674" width="1.32835153" height="1.32835153"></rect>
                    <rect id="Rectangle" fill="#E6E6E6" x="64.8109903" y="39.0395683" width="10.8481933" height="1"></rect>
                    <rect id="Rectangle" fill="#E6E6E6" x="64.8109903" y="41.4332408" width="16.7519774" height="1"></rect>
                    <rect id="Rectangle" fill="#E6E6E6" x="64.9851679" y="43.7128909" width="13.6524918" height="1"></rect>
                    <rect id="Rectangle" fill="#E6E6E6" x="64.8109903" y="46.2141911" width="7.97010171" height="1"></rect>
                    <rect id="Rectangle" fill="#E6E6E6" x="64.8109903" y="48.6574308" width="12.0289512" height="1"></rect>
                    <rect id="Rectangle" fill="#E6E6E6" x="59.8665718" y="38.78308" width="1.32835153" height="1.32835153"></rect>
                    <rect id="Rectangle" fill="#E6E6E6" x="59.8665718" y="41.1767488" width="1.32835153" height="1.32834779"></rect>
                    <rect id="Rectangle" fill="#E6E6E6" x="59.8665718" y="43.4564026" width="1.32835153" height="1.32835153"></rect>
                    <rect id="Rectangle" fill="#E6E6E6" x="59.8665718" y="45.9577028" width="1.32835153" height="1.32835153"></rect>
                    <rect id="Rectangle" fill="#E6E6E6" x="59.8665718" y="48.4009444" width="1.32835153" height="1.32835153"></rect>
                    <rect id="Rectangle" fill="#E6E6E6" x="30.492918" y="45.4353753" width="10.8481951" height="1"></rect>
                    <rect id="Rectangle" fill="#E6E6E6" x="29.0414304" y="47.5540781" width="13.6524918" height="1"></rect>
                    <path d="M42.9678099,35.149808 C42.9668956,37.6427058 41.6560725,39.9517365 39.5159855,41.2302387 C37.3758985,42.5087408 34.7214125,42.5686118 32.5258587,41.3878987 L32.5244834,41.3865214 C29.4749696,39.7436683 28.0608064,36.136412 29.1813239,32.8587694 C30.3018413,29.5811267 33.6283509,27.5945495 37.0453754,28.1623916 C40.4623998,28.7302338 42.9676016,31.6859265 42.9678099,35.1498117 L42.9678099,35.149808 Z" id="Path" fill="#E6E6E6"></path>
                    <circle id="Oval" fill="#FFFFFF" cx="35.9206493" cy="32.8804133" r="1.92554659"></circle>
                    <path d="M39.2085241,38.7846086 C37.0558937,39.5402008 34.7086715,39.5311103 32.5619582,38.7588673 L32.5605791,38.7579143 L33.9951045,35.9262206 L37.8461959,35.9262206 L39.2085241,38.7846086 Z" id="Path" fill="#FFFFFF"></path>
                    <path d="M14.6014764,52.731897 C11.245267,52.731897 8.51476904,49.8313867 8.51476904,46.2660736 C8.51476904,42.7008615 11.245267,39.8003493 14.6014764,39.8003493 C17.9576858,39.8003493 20.6881838,42.7008615 20.6881838,46.2660736 C20.6881838,49.8313867 17.9576858,52.731897 14.6014764,52.731897 Z M14.6014764,41.4340798 C12.146092,41.4340798 10.1484996,43.6016865 10.1484996,46.2660736 C10.1484996,48.9304608 12.146092,51.0981664 14.6014764,51.0981664 C17.0568608,51.0981664 19.0544513,48.9304608 19.0544513,46.2660736 C19.0544513,43.6016865 17.0568608,41.4340798 14.6014764,41.4340798 Z" id="Shape" fill="#3F3D56"></path>
                    <path d="M20.3653567,64 L8.83759612,64 C6.72096913,63.9976458 5.00568357,62.282382 5.00330255,60.165755 L5.00330255,48.8582673 C5.00493169,47.4091599 6.17924431,46.2348247 7.62835172,46.2331677 L21.5746011,46.2331677 C23.0237085,46.2348247 24.1980211,47.4091599 24.1996503,48.8582673 L24.1996503,60.165755 C24.1972692,62.282382 22.4819837,63.9976458 20.3653567,64 Z" id="Path" fill="#3F3D56"></path>
                    <path d="M16.8478587,52.6659861 C16.8487022,51.5609681 16.0457692,50.6194433 14.9544796,50.4457977 C13.8631901,50.2721521 12.8076809,50.9179621 12.465507,51.9686679 C12.1233331,53.0193737 12.5961276,54.1628927 13.5803932,54.6651744 L13.5803932,58.1798233 L15.6225578,58.1798233 L15.6225578,54.6651744 C16.3742878,54.2820529 16.8476522,53.509716 16.8478587,52.6659861 Z" id="Path" fill="#FFFFFF"></path>
                </g>
            </g>
        </g>
    </g>
</svg>