<?xml version="1.0" encoding="UTF-8"?><svg version="1.1" width="28px" height="29px" viewBox="0 0 28.0 29.0" xmlns="http://www.w3.org/2000/svg" xmlns:xlink="http://www.w3.org/1999/xlink"><defs><clipPath id="i0"><path d="M1366,0 L1366,724 L0,724 L0,0 L1366,0 Z"></path></clipPath><clipPath id="i1"><path d="M20.173913,0 C20.8142432,0 21.3333333,0.647334459 21.3333333,1.29166667 L21.3333333,3.17333333 C21.3333333,3.33441639 21.4631059,3.45333333 21.6231884,3.45333333 L24.3478261,3.5 C25.6284864,3.5 26.6666667,4.54466892 26.6666667,5.83333333 L26.6666667,25.6666667 C26.6666667,26.9553311 25.6284864,28 24.3478261,28 L2.31884058,28 C1.03818029,28 0,26.9553311 0,25.6666667 L0,5.83333333 C0,4.54466892 1.03818029,3.5 2.31884058,3.5 L4.05797101,3.5 C4.37813609,3.5 4.63768116,3.76116723 4.63768116,4.08333333 L4.63768116,6.66666667 C4.66666667,8 6.66666667,8 6.66666667,6.66666667 L6.66666667,1.125 C6.66666667,0.480667792 7.18575681,0 7.82608696,0 C8.4664171,0 8.98550725,0.480667792 8.98550725,1.125 L8.98550725,3.16783333 C8.98614577,3.32846059 9.11573147,3.45833462 9.27536232,3.45833333 L16.2318841,3.5 C16.5520491,3.5 16.8115942,3.76116723 16.8115942,4.08333333 L16.8115942,6.66666667 C16.8133333,8 19.0133333,8 19.0144928,6.66666667 L19.0144928,1.29166667 C19.0144928,0.647334459 19.5335829,0 20.173913,0 Z M23.4385965,10.6666667 L3.22807018,10.6666667 C2.91801558,10.6666667 2.66666667,10.919224 2.66666667,11.2307692 L2.66666667,24.7692308 C2.66666667,25.080776 2.91801558,25.3333333 3.22807018,25.3333333 L23.4385965,25.3333333 C23.7486511,25.3333333 24,25.080776 24,24.7692308 L24,11.2307692 C24,10.919224 23.7486511,10.6666667 23.4385965,10.6666667 Z"></path></clipPath></defs><g transform="translate(-1196.0 -340.0)"><g clip-path="url(#i0)"><g transform="translate(1194.0 339.0)"><g transform="translate(2.666666666666666 1.3333333333332433)"><g clip-path="url(#i1)"><polygon points="0,0 26.6666667,0 26.6666667,28 0,28 0,0" stroke="none" fill="#999999"></polygon></g></g></g></g></g></svg>