<svg width="97" height="80" viewBox="0 0 97 80" fill="none" xmlns="http://www.w3.org/2000/svg">
<g id="undraw_logic_re_nyb4">
<rect id="Rectangle" x="7.81006" y="46.9666" width="19.1137" height="17.8806" fill="#D9D9D9"/>
<path id="Shape" fill-rule="evenodd" clip-rule="evenodd" d="M0 71.0643H34.7335V40.7495H0V71.0643ZM34.528 70.8588H0.205524V40.955H34.528V70.8588Z" fill="#3F3D56"/>
<path id="Shape_2" fill-rule="evenodd" clip-rule="evenodd" d="M68.8387 20.2302C71.1033 25.6973 76.4382 29.262 82.3558 29.262C90.4324 29.2529 96.9775 22.7078 96.9866 14.6312C96.9866 8.71362 93.422 3.3787 87.9548 1.11413C82.4876 -1.15044 76.1947 0.101309 72.0103 4.28569C67.8259 8.47007 66.5742 14.763 68.8387 20.2302ZM67.9418 14.6312C67.9418 6.67057 74.3952 0.21718 82.3558 0.21718V0.217184C90.3128 0.226146 96.7609 6.67429 96.7699 14.6312C96.7699 22.5919 90.3165 29.0453 82.3558 29.0453C74.3952 29.0453 67.9418 22.5919 67.9418 14.6312Z" fill="#3F3D56"/>
<circle id="Oval" cx="81.9219" cy="14.6311" r="7.04446" fill="#D9D9D9"/>
<path id="Rectangle_2" d="M89.4785 38.408L93.6631 35.992L96.079 40.1766L91.8945 42.5925L89.4785 38.408Z" fill="#3F3D56"/>
<path id="Rectangle_3" d="M25.6157 14.9563L29.8003 12.5403L32.2162 16.7249L28.0317 19.1409L25.6157 14.9563Z" fill="#3F3D56"/>
<path id="Rectangle_4" d="M83.6484 64.7744L87.833 62.3585L90.249 66.543L86.0644 68.959L83.6484 64.7744Z" fill="#E5E5E5"/>
<rect id="Rectangle_5" x="15.6196" y="54.1599" width="3.49391" height="3.49391" fill="#00BFB3"/>
<circle id="Oval_2" cx="81.922" cy="14.6312" r="1.73402" fill="#00BFB3"/>
<path id="Rectangle_6" d="M67.0176 43.3577L75.9938 38.1752L81.1763 47.1515L72.2 52.3339L67.0176 43.3577Z" fill="#FF8538"/>
<rect id="Rectangle_7" x="23.7168" y="79.7351" width="55.6479" height="0.26499" fill="#CBCBCB"/>
<path id="Path" d="M44.8351 43.9944C44.5087 43.575 44.3849 43.0325 44.4969 42.513C44.6089 41.9935 44.9453 41.5502 45.4156 41.3026L45.0405 37.2159L47.4684 36.3823L47.9169 42.1609C48.2888 42.9968 47.9767 43.9787 47.1904 44.4465C46.4042 44.9143 45.3923 44.7201 44.8351 43.9944V43.9944Z" fill="#FFB8B8"/>
<path id="Path_2" d="M47.4412 20.5395C47.4412 20.5395 49.1073 17.043 50.5878 18.2729C52.0683 19.5029 48.5581 29.8414 48.5581 29.8414L48.0242 39.8777L45.2106 39.5965L44.415 29.8183L47.4412 20.5395Z" fill="#CCCCCC"/>
<path id="Path_3" d="M25.0933 72.2687L27.1819 73.9595L34.6972 66.7079L31.6145 64.2126L25.0933 72.2687Z" fill="#FFB8B8"/>
<path id="Path_4" d="M25.1127 71.1558L29.226 74.4854L29.2262 74.4855C30.6738 75.6575 30.8973 77.781 29.7255 79.2287L29.6565 79.3139L22.9219 73.8623L25.1127 71.1558Z" fill="#2F2E41"/>
<path id="Path_5" d="M54.1205 76.9621L56.8078 76.962L58.0861 66.5972L54.1201 66.5973L54.1205 76.9621Z" fill="#FFB8B8"/>
<path id="Path_6" d="M53.4351 76.0849L58.7271 76.0847H58.7273C60.5898 76.0848 62.0997 77.5946 62.0998 79.4572V79.5668L53.4352 79.5671L53.4351 76.0849Z" fill="#2F2E41"/>
<path id="Path_7" d="M58.8359 28.3708C58.8359 28.3708 63.8771 34.5081 62.7812 40.6453C61.6853 46.7825 60.8085 51.3854 60.8085 51.3854L59.055 65.1941C59.055 65.1941 59.7126 68.9547 58.8359 69.9238C58.8359 69.9238 60.151 72.208 57.7399 73.0847C55.3289 73.9615 54.028 72.7819 54.028 72.7819C54.028 72.7819 52.2603 70.2353 53.3562 69.5778L53.8179 42.4785L36.2597 65.4132C36.2597 65.4132 35.937 68.203 33.6873 68.2329L30.9993 70.2353L27.9307 68.4818L29.465 66.5092C29.465 66.5092 28.5882 64.3173 30.5609 63.8789L41.9585 48.9743L44.808 41.3028C44.808 41.3028 46.3423 35.3848 50.5068 32.9737V30.4082L58.8359 28.3708Z" fill="#2F2E41"/>
<path id="Path_8" d="M50.178 17.7404C51.5519 16.1167 53.925 15.7816 55.6947 16.9614L55.8768 17.0828C57.8224 19.2861 59.13 21.9783 59.6589 24.8696L60.4797 29.3572L50.178 31.5888L47.7629 23.2596C47.1304 21.0781 48.1464 18.7561 50.178 17.7404L50.178 17.7404Z" fill="#CCCCCC"/>
<path id="Path_9" d="M67.1032 44.9486C66.525 44.7596 66.0603 44.3242 65.834 43.7596C65.6077 43.1951 65.6431 42.5592 65.9307 42.0233L62.959 38.3862L64.7287 36.0413L68.8533 41.2364C69.7411 41.7914 70.0736 42.9227 69.6271 43.8698C69.1806 44.8169 68.0963 45.2804 67.1032 44.9486H67.1032Z" fill="#FFB8B8"/>
<path id="Path_10" d="M54.5617 21.028C54.5617 21.028 53.9041 16.6442 56.096 16.8634C58.2879 17.0826 61.5757 29.1378 61.5757 29.1378L67.4937 39.0012L64.6443 40.5355L57.6303 31.7681L54.5617 21.028Z" fill="#CCCCCC"/>
<path id="Path_11" d="M58.5754 14.6192H48.1379C47.6909 14.6187 47.3286 14.2565 47.3281 13.8094V9.31053C47.3281 5.98105 50.0272 3.28198 53.3567 3.28198C56.6861 3.28198 59.3852 5.98105 59.3852 9.31053V13.8094C59.3847 14.2565 59.0224 14.6187 58.5754 14.6192Z" fill="#2F2E41"/>
<circle id="Oval_3" cx="54.5955" cy="10.0946" r="4.41992" transform="rotate(-61.3368 54.5955 10.0946)" fill="#FFB8B8"/>
<path id="Path_12" d="M60.8115 9.76044H55.2491L55.1921 8.84414L54.9069 9.76044H54.0504L53.9374 7.94435L53.3721 9.76044H51.7148V9.67046C51.7148 7.04088 53.5793 4.90161 55.871 4.90161H56.6553C58.947 4.90161 60.8115 7.04088 60.8115 9.67046L60.8115 9.76044Z" fill="#2F2E41"/>
<path id="Path_13" d="M55.479 15.459C55.411 15.459 55.3432 15.4537 55.276 15.4434L48.6553 14.4236V7.52771C48.6553 6.06077 49.8445 4.87158 51.3114 4.87158H55.9434L55.763 5.05523C53.2525 7.61114 55.1438 11.7556 56.4947 13.9985C56.6982 14.3295 56.6618 14.7546 56.4049 15.0461C56.1722 15.3134 55.8334 15.4645 55.479 15.459Z" fill="#2F2E41"/>
</g>
</svg>
