<?xml version="1.0" encoding="UTF-8"?>
<svg width="24px" height="24px" viewBox="0 0 24 24" version="1.1" xmlns="http://www.w3.org/2000/svg" xmlns:xlink="http://www.w3.org/1999/xlink">
    <title>Group 5</title>
    <g id="Schedule-Concepts" stroke="none" stroke-width="1" fill="none" fill-rule="evenodd">
        <g id="Calendar-open-with-ongoing-event-0.1" transform="translate(-1302.000000, -194.000000)" fill="#999999" fill-rule="nonzero">
            <g id="Calendar" transform="translate(1054.000000, 43.000000)">
                <g id="Group-7" transform="translate(16.000000, 129.000000)">
                    <g id="Group-5" transform="translate(232.000000, 22.000000)">
                        <path d="M7.50019253,9 C9.98547391,9 12.0001925,6.98528137 12.0001925,4.5 C12.0001925,2.01471863 9.98547391,0 7.50019253,0 C5.01491116,0 3.00019253,2.01471863 3.00019253,4.5 C3.0029481,6.98413909 5.01605345,8.99724444 7.50019253,9 Z M5.50019253,3.75 L6.25019253,3.75 C6.52633491,3.75 6.75019253,3.52614237 6.75019253,3.25 L6.75019253,2.5 C6.75019253,2.08578644 7.08597897,1.75 7.50019253,1.75 C7.91440609,1.75 8.25019253,2.08578644 8.25019253,2.5 L8.25019253,3.25 C8.25019253,3.52614237 8.47405016,3.75 8.75019253,3.75 L9.50019253,3.75 C9.91440609,3.75 10.2501925,4.08578644 10.2501925,4.5 C10.2501925,4.91421356 9.91440609,5.25 9.50019253,5.25 L8.75019253,5.25 C8.47405016,5.25 8.25019253,5.47385763 8.25019253,5.75 L8.25019253,6.5 C8.25019253,6.91421356 7.91440609,7.25 7.50019253,7.25 C7.08597897,7.25 6.75019253,6.91421356 6.75019253,6.5 L6.75019253,5.75 C6.75019253,5.47385763 6.52633491,5.25 6.25019253,5.25 L5.50019253,5.25 C5.08597897,5.25 4.75019253,4.91421356 4.75019253,4.5 C4.75019253,4.08578644 5.08597897,3.75 5.50019253,3.75 Z" id="Shape"></path>
                        <path d="M11.5001925,13 L14.5001925,13 C14.7763349,13 15.00029,12.7761424 15.00029,12.5 L15.00029,7 C15.0077096,6.34511989 14.5799421,5.76469487 13.9521925,5.578 C13.8205649,5.53741577 13.6780251,5.55293004 13.5582107,5.62088166 C13.4383963,5.68883328 13.3519213,5.80320259 13.3191925,5.937 C12.6610836,8.61604332 10.2588843,10.4995585 7.50019253,10.4995585 C4.74150074,10.4995585 2.33930143,8.61604332 1.68119253,5.937 C1.64846379,5.80320259 1.56198875,5.68883328 1.44217434,5.62088166 C1.32235992,5.55293004 1.17982018,5.53741577 1.04819253,5.578 C0.420442985,5.76469487 -0.00732454128,6.34511989 9.50189804e-05,7 L9.50189804e-05,23 C9.50189804e-05,23.5522847 0.447907782,24.0000001 1.00019253,24.0000001 L8.04219253,24.0000001 C8.18971382,24.0000001 8.32974214,23.9350145 8.42480745,23.8222088 C8.51987276,23.7094031 8.56027118,23.560374 8.53519253,23.415 C8.51183505,23.2779023 8.50012657,23.1390732 8.50019253,23 L8.50019253,16 C8.50019253,14.3431458 9.84333828,13 11.5001925,13 Z M6.00019253,20.75 L3.00019253,20.75 C2.58597897,20.75 2.25019253,20.4142136 2.25019253,20 C2.25019253,19.5857864 2.58597897,19.25 3.00019253,19.25 L6.00019253,19.25 C6.41440609,19.25 6.75019253,19.5857864 6.75019253,20 C6.75019253,20.4142136 6.41440609,20.75 6.00019253,20.75 Z M6.00019253,17.25 L3.00019253,17.25 C2.58597897,17.25 2.25019253,16.9142136 2.25019253,16.5 C2.25019253,16.0857864 2.58597897,15.75 3.00019253,15.75 L6.00019253,15.75 C6.41440609,15.75 6.75019253,16.0857864 6.75019253,16.5 C6.75019253,16.9142136 6.41440609,17.25 6.00019253,17.25 Z M6.50019253,13.75 L3.00019253,13.75 C2.58597897,13.75 2.25019253,13.4142136 2.25019253,13 C2.25019253,12.5857864 2.58597897,12.25 3.00019253,12.25 L6.50019253,12.25 C6.91440609,12.25 7.25019253,12.5857864 7.25019253,13 C7.25019253,13.4142136 6.91440609,13.75 6.50019253,13.75 Z" id="Shape"></path>
                        <path d="M22.5001925,14.5 L11.5001925,14.5 C10.6717654,14.5 10.0001925,15.1715729 10.0001925,16 L10.0001925,23 C10.0001925,23.5522847 10.4479078,24 11.0001925,24 L14.5001925,24 C14.7763349,24 15.0001925,23.7761424 15.0001925,23.5 L15.0001925,22.5 C15.0001925,21.3954305 15.895623,20.5 17.0001925,20.5 C18.104762,20.5 19.0001925,21.3954305 19.0001925,22.5 L19.0001925,23.5 C19.0001925,23.7761424 19.2240502,24 19.5001925,24 L23.0001925,24 C23.5524773,24 24.0001925,23.5522847 24.0001925,23 L24.0001925,16 C24.0001925,15.1715729 23.3286197,14.5 22.5001925,14.5 Z M15.5001925,18.25 L13.0001925,18.25 C12.585979,18.25 12.2501925,17.9142136 12.2501925,17.5 C12.2501925,17.0857864 12.585979,16.75 13.0001925,16.75 L15.5001925,16.75 C15.9144061,16.75 16.2501925,17.0857864 16.2501925,17.5 C16.2501925,17.9142136 15.9144061,18.25 15.5001925,18.25 L15.5001925,18.25 Z M21.0001925,18.25 L18.5001925,18.25 C18.085979,18.25 17.7501925,17.9142136 17.7501925,17.5 C17.7501925,17.0857864 18.085979,16.75 18.5001925,16.75 L21.0001925,16.75 C21.4144061,16.75 21.7501925,17.0857864 21.7501925,17.5 C21.7501925,17.9142136 21.4144061,18.25 21.0001925,18.25 Z" id="Shape"></path>
                    </g>
                </g>
            </g>
        </g>
    </g>
</svg>