<?xml version="1.0" encoding="UTF-8"?>
<svg width="24px" height="24px" viewBox="0 0 24 24" version="1.1" xmlns="http://www.w3.org/2000/svg" xmlns:xlink="http://www.w3.org/1999/xlink">
    <title>Group 6</title>
    <g id="Schedule-Concepts" stroke="none" stroke-width="1" fill="none" fill-rule="evenodd">
        <g id="Calendar-open-with-ongoing-event-0.1" transform="translate(-1302.000000, -270.000000)" fill="#999999" fill-rule="nonzero">
            <g id="Calendar" transform="translate(1054.000000, 43.000000)">
                <g id="Group-7-Copy" transform="translate(16.000000, 205.000000)">
                    <g id="Group-6" transform="translate(232.000000, 22.000000)">
                        <path d="M18.75,12.5000114 C18.7939576,12.5000114 18.8356783,12.4806287 18.864,12.4470109 C18.8927353,12.4137015 18.905516,12.369517 18.899,12.3260109 C18.8157351,11.7203004 18.6414347,11.1306461 18.382,10.5770109 C17.928,9.67001094 16.482,9.13701094 14.471,8.39801094 L13.986,8.22601094 C13.8369545,7.85256459 13.8172399,7.43996677 13.93,7.05401094 C14.8214399,6.0896175 15.2631931,4.7930574 15.146,3.48501094 C15.2196514,2.59876615 14.9233849,1.72153721 14.3274811,1.06142129 C13.7315773,0.401305362 12.8891353,0.0171232162 12,0 C11.5346389,-0.00124862275 11.0754247,0.106278035 10.659,0.314010939 C10.5940086,0.345349688 10.5457262,0.403239714 10.5265633,0.472801099 C10.5074004,0.542362484 10.5192258,0.616811134 10.559,0.677010939 C11.113563,1.50797463 11.4064866,2.4860121 11.4,3.48501094 C11.4691387,4.75874069 11.1474444,6.02318782 10.478,7.10901094 C10.4363662,7.17299501 10.4257173,7.25231124 10.449,7.32501094 C10.4728194,7.39737199 10.528453,7.45484777 10.6,7.48101094 C12.517,8.19701094 13.9,8.80901094 14.5,10.0180109 C14.8368935,10.7341943 15.0576548,11.4994325 15.154,12.2850109 C15.1714612,12.4085073 15.2772756,12.5002415 15.402,12.5000114 L18.75,12.5000114 Z" id="Path"></path>
                        <path d="M12.5,12.5000109 L13.633,12.5000109 C13.7066253,12.4998265 13.776457,12.4673258 13.8240062,12.4111138 C13.8715554,12.3549018 13.8920267,12.2806476 13.88,12.2080109 C13.793226,11.6429929 13.6247992,11.0935847 13.38,10.5770109 C12.926,9.67001094 11.48,9.13701094 9.469,8.39801094 L8.984,8.22601094 C8.83561344,7.85233884 8.81660313,7.43974473 8.93,7.05401094 C9.82143988,6.0896175 10.2631931,4.7930574 10.146,3.48501094 C10.2196514,2.59876615 9.92338486,1.72153721 9.32748107,1.06142129 C8.73157728,0.401305362 7.88913527,0.0171232162 7,1.09393792e-05 C6.11104025,0.0173957096 5.26886165,0.40169598 4.67317627,1.06177977 C4.0774909,1.72186356 3.78135736,2.5989362 3.855,3.48501094 C3.73552275,4.77968298 4.16842713,6.06459546 5.047,7.02301094 C5.17495817,7.4076481 5.17495817,7.82337378 5.047,8.20801094 L4.53,8.40001094 C2.523,9.13701094 1.073,9.67001094 0.619,10.5770109 C0.219520835,11.5002251 0.00904600155,12.4941152 0,13.5000109 C0,13.7761533 0.223857625,14.0000109 0.5,14.0000109 L9.777,14.0000109 C9.86204576,14.0000109 9.94123241,13.9566916 9.987,13.8850109 C10.5334253,13.0247459 11.480868,12.5025778 12.5,12.5000109 Z" id="Path"></path>
                        <path d="M23.371,15.5170109 L20.564,16.2650109 C20.4890676,16.2852745 20.4089717,16.2694335 20.3473941,16.2221717 C20.2858165,16.1749099 20.2498024,16.1016346 20.25,16.0240109 L20.25,15.5000109 C20.25,14.6715838 19.5784271,14.0000109 18.75,14.0000109 L12.5,14.0000109 C11.6715729,14.0000109 11,14.6715838 11,15.5000109 L11,22.5000109 C11,23.3284381 11.6715729,24.0000109 12.5,24.0000109 L18.75,24.0000109 C19.5784271,24.0000109 20.25,23.3284381 20.25,22.5000109 L20.25,21.9760109 C20.2498024,21.8983873 20.2858165,21.8251119 20.3473941,21.7778502 C20.4089717,21.7305884 20.4890676,21.7147474 20.564,21.7350109 L23.371,22.4830109 C23.521098,22.5230932 23.6812999,22.4911272 23.8045201,22.3965082 C23.9277404,22.3018891 24,22.1553686 24,22.0000109 L24,16.0000109 C24,15.8446533 23.9277404,15.6981328 23.8045201,15.6035137 C23.6812999,15.5088947 23.521098,15.4769287 23.371,15.5170109 Z" id="Path"></path>
                    </g>
                </g>
            </g>
        </g>
    </g>
</svg>