<?xml version="1.0" encoding="UTF-8"?>
<svg width="24px" height="24px" viewBox="0 0 24 24" version="1.1" xmlns="http://www.w3.org/2000/svg" xmlns:xlink="http://www.w3.org/1999/xlink">
    <!-- Generator: Sketch 61.2 (89653) - https://sketch.com -->
    <title>urine-sample copy</title>
    <desc>Created with Sketch.</desc>
    <g id="urine-sample-copy" stroke="none" stroke-width="1" fill="none" fill-rule="evenodd">
        <g id="optimization-rocket-growth" transform="translate(1.000000, 0.000000)" fill="#000000" fill-rule="nonzero">
            <path d="M20.266,2.9 C20.3639099,2.80262172 20.5220901,2.80262172 20.62,2.9 C20.9144177,3.18409356 21.3821977,3.17980961 21.671363,2.89037157 C21.9605282,2.60093354 21.9643711,2.13314965 21.68,1.839 L20.266,0.428 C20.0776018,0.233123393 19.7987134,0.155064422 19.5365249,0.223824895 C19.2743365,0.292585368 19.0696503,0.497464648 19.0011371,0.7597178 C18.9326239,1.02197095 19.0109458,1.30078564 19.206,1.489 C19.3032627,1.58656744 19.3032627,1.74443256 19.206,1.842 L18.1,2.949 C18.0421658,3.00699219 17.9596753,3.03312043 17.879,3.019 C17.3963653,2.93263329 16.9019847,3.08759398 16.555,3.434 L14.845,5.143 C14.7764893,5.21104764 14.6751185,5.23396289 14.584,5.202 C14.4234847,5.1448107 14.2543984,5.11538968 14.084,5.115 L14.084,5.115 C13.6860005,5.11379652 13.3041525,5.27229947 13.024,5.555 L8.776,9.8 C8.19042709,10.3857498 8.19042709,11.3352502 8.776,11.921 L10.19,13.336 C10.7757498,13.9215729 11.7252502,13.9215729 12.311,13.336 L12.948,12.699 C13.0032777,12.6435425 13.0813456,12.6171875 13.1589257,12.6277934 C13.2365058,12.6383993 13.3046355,12.6847408 13.343,12.753 C14.3249848,14.5140013 14.0236528,16.712216 12.604,18.144 C10.8467507,19.9007187 7.99824933,19.9007187 6.241,18.144 C6.21495251,18.1182491 6.20710904,18.0792814 6.22116539,18.0454583 C6.23522173,18.0116353 6.26837359,17.9897046 6.305,17.99 L6.705,17.99 C7.11921356,17.99 7.455,17.6542136 7.455,17.24 C7.455,16.8257864 7.11921356,16.49 6.705,16.49 L1.6,16.49 C1.18578644,16.49 0.85,16.8257864 0.85,17.24 C0.85,17.6542136 1.18578644,17.99 1.6,17.99 L2.4,17.99 C2.49723118,17.9897728 2.58577413,18.045941 2.627,18.134 C3.29015302,19.5500523 4.3778482,20.7244275 5.739,21.494 C5.83719391,21.5501719 5.88543137,21.6652824 5.85661868,21.7746769 C5.827806,21.8840714 5.72912411,21.9604857 5.616,21.961 L4.15,21.961 C3.59771525,21.961 3.15,22.4087153 3.15,22.961 C3.15,23.5132847 3.59771525,23.961 4.15,23.961 L15.15,23.961 C15.7022847,23.961 16.15,23.5132847 16.15,22.961 C16.15,22.4087153 15.7022847,21.961 15.15,21.961 L13.232,21.961 C13.1188759,21.9604857 13.020194,21.8840714 12.9913813,21.7746769 C12.9625686,21.6652824 13.0108061,21.5501719 13.109,21.494 C14.983312,20.4374399 16.3135879,18.626791 16.7616396,16.5223636 C17.2096913,14.4179363 16.7323619,12.2224318 15.451,10.494 C15.3770103,10.3944291 15.3872262,10.2556619 15.475,10.168 L16.554,9.09 C16.9634438,8.68034653 17.1004575,8.07156989 16.906,7.526 C16.8739574,7.43520293 16.896906,7.33407377 16.965,7.266 L18.675,5.555 C18.9572857,5.27415942 19.1156891,4.89219112 19.115,4.494 C19.1150884,4.40512004 19.107055,4.31641792 19.091,4.229 C19.076873,4.14862663 19.1030258,4.06643208 19.161,4.009 L20.266,2.9 Z" id="Path"></path>
        </g>
    </g>
</svg>