<svg id="task_arrow" version="1.1" width="40px" height="40px" viewBox="0 0 40.0 40.0" xmlns="http://www.w3.org/2000/svg" xmlns:xlink="http://www.w3.org/1999/xlink"><defs><clipPath id="i0"><path d="M20,0 C31.045695,0 40,8.954305 40,20 C40,31.045695 31.045695,40 20,40 C8.954305,40 0,31.045695 0,20 C0,8.954305 8.954305,0 20,0 Z"></path></clipPath><clipPath id="i1"><path d="M11.0264741,0.198445153 C11.2261148,-0.0395645417 11.5728326,-0.0673388519 11.8053053,0.136055799 L12.8072788,1.01119296 C12.9185634,1.10725493 12.9875524,1.24604484 12.9984747,1.39583462 C13.009397,1.5456244 12.9613187,1.69360765 12.8652307,1.80595465 L6.91892476,8.81548297 C6.81003451,8.9333551 6.65950433,9 6.50215798,9 C6.34481163,9 6.19428146,8.9333551 6.0853912,8.81548297 L0.136377196,1.80595465 C0.0393004957,1.69427134 -0.00943909451,1.54618564 0.0015169914,1.39620835 C0.0128145021,1.24604456 0.0824044331,1.10708449 0.194329172,1.01119296 L1.19684419,0.137179931 C1.30772612,0.0381775971 1.45248031,-0.0100719181 1.59817516,0.00340816164 C1.74362029,0.0141219345 1.87910163,0.0840174638 1.9751338,0.197883087 L6.3989818,5.5116575 C6.42470408,5.54267912 6.46218043,5.56052149 6.50161637,5.56052149 C6.54105232,5.56052149 6.57852867,5.54267912 6.60425095,5.5116575 Z"></path></clipPath><clipPath id="i2"><path d="M20.5714286,0 L20.5714286,20.8 L0,20.8 L0,0 L20.5714286,0 Z"></path></clipPath></defs><g clip-path="url(#i0)"><path d="M20,40 C31.045695,40 40,31.045695 40,20 C40,8.954305 31.045695,0 20,0 C8.954305,0 0,8.954305 0,20 C0,31.045695 8.954305,40 20,40 Z" stroke="#D9D9D9" stroke-width="2" fill="none" stroke-miterlimit="5"></path></g><g transform="translate(15.5 13.5)"><g transform="translate(1.7763568394002505e-15 13.000000000000002) rotate(-90.0)"><g clip-path="url(#i1)"><polygon points="-8.67361738e-19,0 13,0 13,9 -8.67361738e-19,9 -8.67361738e-19,0" stroke="none" fill="#000000"></polygon><g transform="translate(13.000000000000002 -2.57237725884603e-15) rotate(90.0)"><g transform="translate(-5.785714285714288 -3.9000000000000004)"><g clip-path="url(#i2)"><polygon points="5.78571429,3.9 14.7857143,3.9 14.7857143,16.9 5.78571429,16.9 5.78571429,3.9" stroke="none" fill="#C42EA4"></polygon></g></g></g></g></g></g></svg>