<?xml version="1.0" encoding="UTF-8"?>
<svg width="22px" height="18px" viewBox="0 0 22 18" version="1.1" xmlns="http://www.w3.org/2000/svg" xmlns:xlink="http://www.w3.org/1999/xlink">
    <title>arrow2-sync</title>
    <defs>
        <path d="M2.69952921,6 L2.61636715,6.00306522 C2.50494655,6.01658805 2.40357212,6.07394236 2.3313408,6.16193256 L2.28293004,6.23346325 L0.0600159614,10.3044554 C-0.0245694599,10.4586782 -0.0194045167,10.6502317 0.0733534459,10.7991058 C0.139699067,10.9040062 0.242299076,10.9751636 0.357055021,10.9990421 L0.471699649,11.0088787 L0.498374617,11.0078746 L1.43911186,10.8884438 C1.54724449,10.8751183 1.64869016,10.9462483 1.67918658,11.0567755 C2.57787414,14.3648398 5.07457976,16.9161824 8.23144811,17.7524243 C11.3419921,18.5328009 14.6060529,17.4374003 16.7220907,14.9030119 C16.9960591,14.5902055 17.088388,14.1450203 16.9633643,13.7396544 C16.8383407,13.3342884 16.5155698,13.032308 16.1198997,12.9505193 C15.7637966,12.8769094 15.3989022,12.9920435 15.1398471,13.2532784 L15.0575727,13.3457093 C13.4841366,15.2299655 11.057298,16.044433 8.74449668,15.4644308 C6.52375949,14.8713077 4.7314668,13.1413256 3.97056641,10.8564702 C3.94815499,10.7889539 3.95566562,10.714355 3.99101722,10.6533438 C4.01761125,10.607533 4.05798512,10.5732758 4.10490313,10.5554647 L4.15373453,10.543317 L5.79691261,10.3354886 C5.96383712,10.3137228 6.10485835,10.1941955 6.16130701,10.026634 C6.20834755,9.8869993 6.18994552,9.73393019 6.11519887,9.61242623 L6.0636623,9.54367167 L2.99070588,6.14506564 C2.91406433,6.05830661 2.80951884,6.00711146 2.69952921,6 Z M12.54186,0.247604743 C9.42328718,-0.533014221 6.15080111,0.563103251 4.02994263,3.09866694 C3.62202681,3.58491698 3.66493353,4.32801192 4.12577748,4.75841594 C4.58662143,5.18881996 5.29089037,5.14354781 5.69880619,4.65729777 C7.27610019,2.772191 9.70966062,1.95775317 12.0283635,2.5389896 C14.254575,3.13465266 16.0509617,4.86556103 16.8147569,7.15091897 C16.83773,7.21756185 16.8309739,7.29158457 16.7963697,7.35237692 C16.7704165,7.39797118 16.7308776,7.43247129 16.6846548,7.45105311 L16.6364595,7.46415016 L14.962247,7.68237728 C14.7941432,7.7036205 14.6519575,7.82351598 14.5952535,7.99183775 C14.5480002,8.1321059 14.5669081,8.28582174 14.642627,8.40748493 L14.6948009,8.47627253 L17.794501,11.8559711 C17.8616631,11.92908 17.9489962,11.9767162 18.0430011,11.992849 L18.1145449,11.9989475 C18.1329449,12.0003508 18.151417,12.0003508 18.169817,11.9989475 C18.2814161,11.9844712 18.3826091,11.9262438 18.454353,11.8376245 L18.5023417,11.7656703 L20.7096634,7.68143665 C20.793403,7.52646879 20.7868431,7.33485223 20.6927251,7.18666307 C20.6163009,7.06287247 20.4895331,6.98665125 20.3529579,6.97776073 L20.2701603,6.98066419 L19.3492543,7.10294663 C19.2405998,7.11768153 19.1380042,7.04657894 19.1076613,6.93551375 C18.2032486,3.63204535 15.7026381,1.0849296 12.54186,0.247604743 Z" id="path-1"></path>
    </defs>
    <g id="Page-1" stroke="none" stroke-width="1" fill="none" fill-rule="evenodd">
        <g id="arrow2-sync" transform="translate(0.600000, 0.000000)">
            <mask id="mask-2" fill="white">
                <use xlink:href="#path-1"></use>
            </mask>
            <use id="icon-color" fill="#0768FD" xlink:href="#path-1"></use>
        </g>
    </g>
</svg>