<?xml version="1.0" encoding="UTF-8"?>
<svg width="40px" height="40px" viewBox="0 0 40 40" version="1.1" xmlns="http://www.w3.org/2000/svg" xmlns:xlink="http://www.w3.org/1999/xlink">
    <title>Avatar Delegate</title>
    <defs>
        <circle id="path-1" cx="16.5" cy="16.5" r="16.5"></circle>
        <circle id="path-3" cx="16.5" cy="16.5" r="16.5"></circle>
        <path d="M7.49585651,9.47254803 C10.0286061,9.47254803 12.0818053,7.35204592 12.0818053,4.73627401 C12.0818053,2.12050211 10.0286061,0 7.49585651,0 C4.96310694,0 2.90990774,2.12050211 2.90990774,4.73627401 C2.90990774,7.35204592 4.96310694,9.47254803 7.49585651,9.47254803 Z M7.51532235,10.1833393 C4.05005718,10.0373849 0.943733801,12.3750806 0.0166275356,15.8265595 C-0.0493357,16.1827494 0.0840605648,16.5470076 0.361748188,16.7689623 C0.691178654,17.043516 1.10399184,17.1889359 1.52720799,17.1795139 L13.5052437,17.1795139 C13.9284598,17.1889359 14.3412729,17.043516 14.6707034,16.7689623 C14.948391,16.5470076 15.0817873,16.1827494 15.0158241,15.8265595 C14.0885655,12.3743775 10.9812497,10.0364983 7.51532235,10.1833393 L7.51532235,10.1833393 Z" id="path-5"></path>
        <linearGradient x1="50%" y1="-140.727151%" x2="50%" y2="100%" id="linearGradient-7">
            <stop stop-color="#00E1DA" offset="0%"></stop>
            <stop stop-color="#005E8B" offset="100%"></stop>
        </linearGradient>
        <circle id="path-8" cx="12.5" cy="12.5" r="12.5"></circle>
        <circle id="path-10" cx="12.5" cy="12.5" r="12.5"></circle>
        <path d="M5.30243141,6.70070674 C7.09405201,6.70070674 8.54644747,5.20070244 8.54644747,3.35035336 C8.54644747,1.5 7.09405201,0 5.30243141,0 C3.51081082,0 2.05841536,1.5 2.05841536,3.35035336 C2.05841536,5.20070244 3.51081082,6.70070674 5.30243141,6.70070674 Z M5.31620119,7.20350746 C2.86493616,7.100262 0.667579982,8.75390505 0.0117620137,11.1954179 C-0.0348991693,11.4473801 0.0594629017,11.7050497 0.255894034,11.8620563 C0.488927102,12.0562706 0.780943576,12.159138 1.08031892,12.1524731 L9.55336164,12.1524731 C9.85273697,12.159138 10.1447534,12.0562706 10.3777865,11.8620563 C10.5742176,11.7050497 10.6685797,11.4473801 10.6219185,11.1954179 C9.96599284,8.75340767 7.76793465,7.09963482 5.31620119,7.20350746 L5.31620119,7.20350746 Z" id="path-12"></path>
    </defs>
    <g id="--------↳-New-Delegate-Flow" stroke="none" stroke-width="1" fill="none" fill-rule="evenodd">
        <g id="Revamp---Delegates---1-Copy-2" transform="translate(-465.000000, -549.000000)">
            <g id="Group-21-Copy" transform="translate(433.000000, 521.000000)">
                <g id="Avatar-Delegate" transform="translate(32.000000, 28.000000)">
                    <rect id="Rectangle" x="0" y="0" width="40" height="40"></rect>
                    <g id="avatar-copy" transform="translate(7.000000, 0.000000)">
                        <g id="color-Clipped">
                            <mask id="mask-2" fill="white">
                                <use xlink:href="#path-1"></use>
                            </mask>
                            <g id="path-1"></g>
                            <g id="color" mask="url(#mask-2)" fill="#FFFFFF" fill-rule="nonzero">
                                <rect id="Rectangle" x="0" y="0" width="33" height="33"></rect>
                            </g>
                        </g>
                        <g id="icon-Clipped">
                            <mask id="mask-4" fill="white">
                                <use xlink:href="#path-3"></use>
                            </mask>
                            <use id="path-1" fill="#F7F7F7" xlink:href="#path-3"></use>
                            <g id="icon" mask="url(#mask-4)">
                                <g transform="translate(8.884615, 7.615385)" id="Group">
                                    <g id="Mask" fill="#595959" fill-rule="nonzero">
                                        <path d="M7.49585651,9.47254803 C10.0286061,9.47254803 12.0818053,7.35204592 12.0818053,4.73627401 C12.0818053,2.12050211 10.0286061,0 7.49585651,0 C4.96310694,0 2.90990774,2.12050211 2.90990774,4.73627401 C2.90990774,7.35204592 4.96310694,9.47254803 7.49585651,9.47254803 Z M7.51532235,10.1833393 C4.05005718,10.0373849 0.943733801,12.3750806 0.0166275356,15.8265595 C-0.0493357,16.1827494 0.0840605648,16.5470076 0.361748188,16.7689623 C0.691178654,17.043516 1.10399184,17.1889359 1.52720799,17.1795139 L13.5052437,17.1795139 C13.9284598,17.1889359 14.3412729,17.043516 14.6707034,16.7689623 C14.948391,16.5470076 15.0817873,16.1827494 15.0158241,15.8265595 C14.0885655,12.3743775 10.9812497,10.0364983 7.51532235,10.1833393 L7.51532235,10.1833393 Z" id="path-3"></path>
                                    </g>
                                    <g id="color-Clipped">
                                        <mask id="mask-6" fill="white">
                                            <use xlink:href="#path-5"></use>
                                        </mask>
                                        <g id="path-3"></g>
                                        <g id="color" mask="url(#mask-6)">
                                            <g transform="translate(-1.073746, 0.000000)" id="Rectangle">
                                                <g transform="translate(0.000000, 0.000000)">
                                                    <rect fill="url(#linearGradient-7)" fill-rule="nonzero" x="0" y="0" width="17.1799447" height="17.1799447"></rect>
                                                </g>
                                            </g>
                                        </g>
                                    </g>
                                </g>
                            </g>
                        </g>
                    </g>
                    <g id="avatar-copy" transform="translate(0.000000, 15.000000)">
                        <g id="color-Clipped">
                            <mask id="mask-9" fill="white">
                                <use xlink:href="#path-8"></use>
                            </mask>
                            <g id="path-7"></g>
                            <g id="color" mask="url(#mask-9)" fill="#FFFFFF" fill-rule="nonzero">
                                <rect id="Rectangle" x="0" y="0" width="25" height="25"></rect>
                            </g>
                        </g>
                        <g id="icon-Clipped">
                            <mask id="mask-11" fill="white">
                                <use xlink:href="#path-10"></use>
                            </mask>
                            <use id="path-7" fill="#FAFAFA" xlink:href="#path-10"></use>
                            <g id="icon" mask="url(#mask-11)">
                                <g transform="translate(7.152778, 6.388889)" id="Group">
                                    <g id="Mask" fill="#595959" fill-rule="nonzero">
                                        <path d="M5.30243141,6.70070674 C7.09405201,6.70070674 8.54644747,5.20070244 8.54644747,3.35035336 C8.54644747,1.5 7.09405201,0 5.30243141,0 C3.51081082,0 2.05841536,1.5 2.05841536,3.35035336 C2.05841536,5.20070244 3.51081082,6.70070674 5.30243141,6.70070674 Z M5.31620119,7.20350746 C2.86493616,7.100262 0.667579982,8.75390505 0.0117620137,11.1954179 C-0.0348991693,11.4473801 0.0594629017,11.7050497 0.255894034,11.8620563 C0.488927102,12.0562706 0.780943576,12.159138 1.08031892,12.1524731 L9.55336164,12.1524731 C9.85273697,12.159138 10.1447534,12.0562706 10.3777865,11.8620563 C10.5742176,11.7050497 10.6685797,11.4473801 10.6219185,11.1954179 C9.96599284,8.75340767 7.76793465,7.09963482 5.31620119,7.20350746 L5.31620119,7.20350746 Z" id="path-9"></path>
                                    </g>
                                    <g id="color-Clipped">
                                        <mask id="mask-13" fill="white">
                                            <use xlink:href="#path-12"></use>
                                        </mask>
                                        <g id="path-9"></g>
                                        <g id="color" mask="url(#mask-13)">
                                            <g transform="translate(-0.759549, 0.000000)" id="Rectangle">
                                                <rect fill="url(#linearGradient-7)" fill-rule="nonzero" x="0" y="0" width="12.1527778" height="12.1527778"></rect>
                                            </g>
                                        </g>
                                    </g>
                                </g>
                            </g>
                        </g>
                    </g>
                </g>
            </g>
        </g>
    </g>
</svg>