<svg width="23.999999999999996" height="23.999999999999996" xmlns="http://www.w3.org/2000/svg">
 <!-- Generator: Sketch 51.3 (57544) - http://www.bohemiancoding.com/sketch -->
 <title>chevron-right</title>
 <desc>Created with Sketch.</desc>

 <g>
  <title>background</title>
  <rect fill="none" id="canvas_background" height="402" width="582" y="-1" x="-1"/>
 </g>
 <g>
  <title>Layer 1</title>
  <g fill-rule="evenodd" fill="none" id="Symbols">
   <g fill-rule="nonzero" fill="#000000" id="icon/chevron/right">
    <path fill="#297dfd" transform="rotate(-90 12.000000000000002,12) translate(-12,-12) " id="chevron-right" d="m16.65736,20.85695l6.86425,8.17778c0.12564,0.13752 0.29933,0.21527 0.48088,0.21527c0.18155,0 0.35524,-0.07775 0.48088,-0.21527l6.86113,-8.17778c0.11087,-0.13107 0.16634,-0.30372 0.15374,-0.47848c-0.0126,-0.17475 -0.09221,-0.33667 -0.22061,-0.44874l-1.15612,-1.021c-0.26824,-0.23729 -0.6683,-0.20489 -0.89866,0.07279l-5.10256,6.19875c-0.02968,0.03619 -0.07292,0.05701 -0.11842,0.05701c-0.04551,0 -0.08875,-0.02082 -0.11843,-0.05701l-5.10444,-6.19941c-0.11081,-0.13284 -0.26713,-0.21438 -0.43495,-0.22688c-0.16811,-0.01573 -0.33514,0.04056 -0.46308,0.15606l-1.15674,1.01969c-0.12915,0.11187 -0.20944,0.27399 -0.22248,0.44918c-0.01264,0.17497 0.0436,0.34774 0.15561,0.47804z"/>
   </g>
  </g>
 </g>
</svg>