<svg width="24" height="24" viewBox="0 0 24 24" fill="none" xmlns="http://www.w3.org/2000/svg">
<g id="chevron-down">
<path id="icon color" fill-rule="evenodd" clip-rule="evenodd" d="M4.16785 10.0066L11.4897 17.795C11.6237 17.926 11.809 18 12.0027 18C12.1963 18 12.3816 17.926 12.5156 17.795L19.8341 10.0066C19.9524 9.88179 20.0116 9.71736 19.9981 9.55093C19.9847 9.38449 19.8998 9.23028 19.7628 9.12355L18.5296 8.15117C18.2435 7.92518 17.8168 7.95604 17.571 8.22049L12.1283 14.1241C12.0967 14.1585 12.0505 14.1784 12.002 14.1784C11.9535 14.1784 11.9073 14.1585 11.8757 14.1241L6.43093 8.21987C6.31274 8.09335 6.14599 8.01569 5.96698 8.00379C5.78767 7.98881 5.60951 8.04242 5.47304 8.15242L4.23917 9.12355C4.10142 9.23009 4.01577 9.38449 4.00187 9.55134C3.98838 9.71798 4.04837 9.88252 4.16785 10.0066Z" fill="#595959"/>
<mask id="mask0_232_23224" style="mask-type:luminance" maskUnits="userSpaceOnUse" x="4" y="8" width="16" height="10">
<path id="icon color_2" fill-rule="evenodd" clip-rule="evenodd" d="M4.16785 10.0066L11.4897 17.795C11.6237 17.926 11.809 18 12.0027 18C12.1963 18 12.3816 17.926 12.5156 17.795L19.8341 10.0066C19.9524 9.88179 20.0116 9.71736 19.9981 9.55093C19.9847 9.38449 19.8998 9.23028 19.7628 9.12355L18.5296 8.15117C18.2435 7.92518 17.8168 7.95604 17.571 8.22049L12.1283 14.1241C12.0967 14.1585 12.0505 14.1784 12.002 14.1784C11.9535 14.1784 11.9073 14.1585 11.8757 14.1241L6.43093 8.21987C6.31274 8.09335 6.14599 8.01569 5.96698 8.00379C5.78767 7.98881 5.60951 8.04242 5.47304 8.15242L4.23917 9.12355C4.10142 9.23009 4.01577 9.38449 4.00187 9.55134C3.98838 9.71798 4.04837 9.88252 4.16785 10.0066Z" fill="white"/>
</mask>
<g mask="url(#mask0_232_23224)">
</g>
</g>
</svg>
