<?xml version="1.0" encoding="UTF-8"?>
<svg id="close-circle-icon" width="20px" height="20px" viewBox="0 0 20 20" version="1.1" xmlns="http://www.w3.org/2000/svg" xmlns:xlink="http://www.w3.org/1999/xlink">
    <title>close-circle</title>
    <g id="4---UI-Design-—-Infographic" stroke="none" stroke-width="1" fill="none" fill-rule="evenodd">
        <g id="close-circle" fill="#595959">
            <path d="M17.0710678,2.92893219 C20.9698802,6.83683652 20.9698802,13.1631635 17.0710678,17.0710678 C13.1658249,20.9763107 6.83417511,20.9763107 2.92893219,17.0710678 C-0.976310729,13.1658249 -0.976310729,6.83417511 2.92893219,2.92893219 C6.83417511,-0.976310729 13.1658249,-0.976310729 17.0710678,2.92893219 Z M14.2426407,5.75735931 C13.880011,5.39472961 13.3081656,5.36882749 12.9156479,5.67965295 L12.8284271,5.75735931 L10,8.58578644 L7.17157288,5.75735931 C6.78104858,5.36683502 6.1478836,5.36683502 5.75735931,5.75735931 C5.39472961,6.11998901 5.36882749,6.69183441 5.67965295,7.08435206 L5.75735931,7.17157288 L8.58578644,10 L5.75735931,12.8284271 C5.36683502,13.2189514 5.36683502,13.8521164 5.75735931,14.2426407 C6.11998901,14.6052704 6.69183441,14.6311725 7.08435206,14.3203471 L7.17157288,14.2426407 L10,11.4142136 L12.8284271,14.2426407 C13.2189514,14.633165 13.8521164,14.633165 14.2426407,14.2426407 C14.6052704,13.880011 14.6311725,13.3081656 14.3203471,12.9156479 L14.2426407,12.8284271 L11.4142136,10 L14.2426407,7.17157288 C14.633165,6.78104858 14.633165,6.1478836 14.2426407,5.75735931 Z" id="icon-color"></path>
        </g>
    </g>
</svg>