<?xml version="1.0" encoding="UTF-8"?>
<svg width="105px" height="139px" viewBox="0 0 105 139" version="1.1" xmlns="http://www.w3.org/2000/svg" xmlns:xlink="http://www.w3.org/1999/xlink">
    <title>Group</title>
    <g id="---↳--Tasks" stroke="none" stroke-width="1" fill="none" fill-rule="evenodd">
        <g id="PP-Lite---Tasks---Desktop-2-Copy" transform="translate(-451.000000, -335.000000)" fill-rule="nonzero">
            <g id="Group-3" transform="translate(428.000000, 272.000000)">
                <g id="Group" transform="translate(23.000000, 63.000000)">
                    <g id="undraw_completed_tasks_vs6q" transform="translate(0.000000, 80.000000)">
                        <path d="M29.6976933,27.6318219 L6.95716074,32.4607154 C5.58883622,32.7496538 4.24656555,31.8682296 3.95667915,30.4903997 L0.0544369857,11.8398261 C-0.232374333,10.4613449 0.642549787,9.10910845 2.01022324,8.81706639 L24.7507558,3.98817442 C26.1190786,3.69923378 27.4613498,4.58065447 27.7512389,5.95848262 L31.653484,24.6090637 C31.9402951,25.987546 31.0653684,27.3397826 29.6976933,27.6318219 L29.6976933,27.6318219 Z" id="Path" fill="#FFFFFF"></path>
                        <path d="M29.6976933,27.6318219 L6.95716074,32.4607154 C5.58883622,32.7496538 4.24656555,31.8682296 3.95667915,30.4903997 L0.0544369857,11.8398261 C-0.232374333,10.4613449 0.642549787,9.10910845 2.01022324,8.81706639 L24.7507558,3.98817442 C26.1190786,3.69923378 27.4613498,4.58065447 27.7512389,5.95848262 L31.653484,24.6090637 C31.9402951,25.987546 31.0653684,27.3397826 29.6976933,27.6318219 L29.6976933,27.6318219 Z M2.07167722,9.11078395 C0.864910959,9.36847393 0.0929214591,10.5616177 0.345981014,11.7779234 L4.24822318,30.4284984 C4.50401474,31.6442243 5.68836624,32.4219447 6.89570825,32.1670053 L29.6362408,27.3381118 C30.8430048,27.0804225 31.6149943,25.8872825 31.3619385,24.6709784 L27.4596963,6.02040487 C27.2039054,4.80467914 26.0195547,4.02695812 24.8122128,4.28189648 L2.07167722,9.11078395 Z" id="Shape" fill="#3F3D56"></path>
                        <path d="M23.341693,9.9613978 L11.9273617,12.3141312 C11.7201017,12.3611667 11.5109982,12.2431976 11.4488935,12.0441956 C11.4212318,11.943114 11.4372834,11.8353571 11.4932842,11.7461928 C11.5492851,11.6570285 11.6403094,11.5942997 11.745013,11.5727155 L23.3641013,9.17777778 C23.8177727,9.4277914 23.6743838,9.89282251 23.3415522,9.96142677 L23.341693,9.9613978 Z" id="b3d30341-bfe2-418c-85c9-1bd82b5f5e0c-179" fill="#CCCCCC"></path>
                        <path d="M23.601592,12.0591753 L12.1872637,14.4119093 C11.9800035,14.4589441 11.7709,14.3409753 11.7087941,14.1419737 C11.6811329,14.0408922 11.6971846,13.9331355 11.7531854,13.8439714 C11.8091862,13.7548072 11.9002102,13.6920783 12.0049136,13.6704938 L23.6239988,11.2755556 C24.0776776,11.5255705 23.9342828,11.9906015 23.6014497,12.0592057 L23.601592,12.0591753 Z" id="ba7e3b3b-1e3b-4053-b678-ceb2b593f6ee-180" fill="#CCCCCC"></path>
                        <path d="M10.0499617,16.2946428 L6.58566121,17.0349339 C6.350092,17.0850217 6.11899371,16.9323076 6.06911269,16.6935887 L5.20740086,12.5490073 C5.15799492,12.3101865 5.30863094,12.0758985 5.54410063,12.0253298 L9.0083996,11.2850387 C9.24395314,11.2350373 9.47499626,11.3877146 9.5249496,11.6263839 L10.3866585,15.7709698 C10.4360645,16.0097901 10.2854293,16.2440779 10.0499602,16.2946473 L10.0499617,16.2946428 Z" id="f6076b75-2d9c-4839-8b09-e00257d358cf-181" fill="#CCCCCC"></path>
                        <path d="M24.6415402,16.3146928 L7.24837473,20.1800096 C7.04143917,20.2306412 6.83266353,20.10365 6.77065648,19.8894295 C6.74303616,19.7806174 6.75906168,19.6646187 6.81497508,19.5686347 C6.87088848,19.4726508 6.9617715,19.4051247 7.06631223,19.3818911 L24.6640541,15.4711111 C25.1170173,15.7402455 24.9738523,16.2408417 24.6415402,16.3146928 L24.6415402,16.3146928 Z" id="acc57b87-b2e4-43d3-aa96-a8e2462d330c-182" fill="#CCCCCC"></path>
                        <path d="M24.9014369,18.1502498 L7.50827567,22.0155647 C7.30134045,22.0661974 7.09256453,21.9392066 7.03055749,21.7249862 C7.00293716,21.616174 7.01896264,21.5001751 7.074876,21.4041909 C7.13078936,21.3082067 7.22167237,21.2406803 7.32621319,21.2174464 L24.9239523,17.3066667 C25.3769228,17.5758026 25.2337504,18.0763988 24.9014369,18.1502498 Z" id="e5415755-f7b6-4857-8e09-1413b7f93e97-183" fill="#CCCCCC"></path>
                        <path d="M25.4212397,20.2480261 L8.02807692,24.1133429 C7.82114139,24.1639746 7.61236579,24.0369833 7.55035874,23.8227628 C7.52273932,23.7139508 7.53876523,23.5979525 7.59467848,23.5019688 C7.65059173,23.4059851 7.74147417,23.3384589 7.84601444,23.3152245 L25.4437536,19.4044444 C25.8967241,19.6735804 25.7535532,20.1741766 25.4212397,20.2480261 L25.4212397,20.2480261 Z" id="afce3f4d-2700-4434-8207-f3b7a686e1c3-184" fill="#CCCCCC"></path>
                        <path d="M25.9410438,22.3458039 L8.54787969,26.2111207 C8.34094412,26.2617524 8.13216848,26.1347611 8.07016143,25.9205406 C8.04254111,25.8117285 8.05856663,25.6957298 8.11448003,25.5997459 C8.17039343,25.5037619 8.26127645,25.4362358 8.36581718,25.4130022 L25.9635592,21.5022222 C26.4165224,21.7713582 26.2733574,22.2719528 25.9410438,22.3458039 L25.9410438,22.3458039 Z" id="abb1f551-863d-408b-9aec-d87e952e72e4-185" fill="#CCCCCC"></path>
                        <path d="M26.2009419,24.4435804 L8.80777979,28.3088987 C8.60084438,28.3595296 8.39206929,28.2325386 8.33006163,28.0183186 C8.30244225,27.9095063 8.31846835,27.7935077 8.3743819,27.697524 C8.43029546,27.6015402 8.52117826,27.534014 8.6257188,27.51078 L26.2234572,23.6 C26.6764277,23.8691361 26.5332553,24.3697325 26.2009419,24.443582 L26.2009419,24.4435804 Z" id="bbed1b24-9150-4534-8e9c-e5347be55157-186" fill="#CCCCCC"></path>
                        <path d="M29.2708229,14.9864219 C29.2306444,15.061013 29.1962775,15.1387301 29.1680418,15.2188502 L21.9275627,17.0572614 L20.6679836,15.7239664 L18.4529703,17.4059939 L20.4586246,19.98806 C20.791451,20.4165427 21.3607508,20.5688007 21.8559257,20.3617653 L29.7125395,17.0768794 C30.2412769,17.4751125 30.9556809,17.497034 31.5067911,17.131936 C32.0579013,16.7668381 32.3307178,16.0909054 32.1919798,15.4343066 C32.0532417,14.7777078 31.5318994,14.277455 30.8826097,14.1779034 C30.2333199,14.0783518 29.5915696,14.4002749 29.2708305,14.986425 L29.2708229,14.9864219 Z" id="Path" fill="#A0616A"></path>
                        <path d="M4.90520091,31.128877 C5.34742466,30.9881029 5.70644372,30.6526499 5.88565332,30.2127818 C6.06486292,29.7729136 6.04585418,29.2738147 5.83374195,28.8497825 L10.6559406,15.0339772 L7.30708579,14.4222222 L3.62005178,28.1950678 C2.93762062,28.6188966 2.67057252,29.501879 2.99844837,30.2503713 C3.32632422,30.9988636 4.14548742,31.3762787 4.90520091,31.128874 L4.90520091,31.128877 Z" id="Path" fill="#A0616A"></path>
                        <path d="M10.0819661,17.258783 L6.69811809,15.9538148 C6.5032997,15.8786782 6.35067631,15.7220546 6.28001764,15.5247561 C6.20935897,15.3274576 6.22766349,15.1090258 6.33016152,14.9263785 L8.10532917,11.7637223 C8.50485721,10.7354991 9.65703653,10.2259784 10.6814463,10.6245031 C11.7058562,11.0230277 12.2162101,12.1793212 11.8225287,13.209819 L11.0395301,16.7425289 C10.9941027,16.9471871 10.8622719,17.1218409 10.6783903,17.220979 C10.4945087,17.320117 10.2767896,17.3339197 10.0819661,17.2587905 L10.0819661,17.258783 Z" id="Path" fill="#C42EA5"></path>
                        <polygon id="Path" fill="#A0616A" points="17.9334556 57.1644444 19.6944737 57.1642947 20.5321782 50.0844444 17.9331683 50.0845942"></polygon>
                        <path d="M17.4133663,56.3779263 L21.0642721,56.3777778 L21.0644234,56.3777778 C21.6814924,56.3777778 22.2732932,56.6185489 22.7096303,57.0471678 C23.1459673,57.4757867 23.3910891,58.0571247 23.3910891,58.6632881 L23.3910891,58.7375594 L17.4134797,58.7377778 L17.4133663,56.3779263 Z" id="Path" fill="#2F2E41"></path>
                        <polygon id="Path" fill="#A0616A" points="7.53741599 57.1644444 9.29843409 57.1642947 10.1361386 50.0844444 7.53712871 50.0845942"></polygon>
                        <path d="M7.01732673,56.3779263 L10.6682325,56.3777778 L10.6683838,56.3777778 C11.2854528,56.3777778 11.8772536,56.6185489 12.3135907,57.0471678 C12.7499277,57.4757867 12.9950495,58.0571247 12.9950495,58.6632881 L12.9950495,58.7375594 L7.01744014,58.7377778 L7.01732673,56.3779263 Z" id="Path" fill="#2F2E41"></path>
                        <path d="M9.48711564,54.28 L7.1696835,54.28 C6.98587662,54.28 6.81009436,54.2038935 6.68325007,54.0694484 C6.55640578,53.9350034 6.48956401,53.7539279 6.4982822,53.5683671 L7.5990507,29.6656604 L7.66841242,29.6637431 L18.8591346,29.3688889 L21.0489699,53.2853109 C21.0659795,53.466414 21.0104143,53.6468461 20.8947171,53.7862038 C20.7790199,53.9255615 20.6128568,54.0122017 20.4334362,54.0267233 L17.8304643,54.2371031 C17.4920944,54.2643032 17.1867127,54.0323883 17.1184014,53.6963438 L13.788885,36.6709717 C13.7701149,36.5640801 13.6768385,36.4871206 13.5694597,36.4899305 L13.5685485,36.4899305 C13.4607771,36.4875115 13.3675488,36.5653255 13.3495249,36.672741 L10.146627,53.7318691 C10.0840848,54.0500542 9.80809039,54.2794378 9.48711564,54.28 L9.48711564,54.28 Z" id="Path" fill="#D5D4DE"></path>
                        <ellipse id="Oval" fill="#A0616A" cx="13.7747525" cy="4.72" rx="3.63861386" ry="3.67111111"></ellipse>
                        <path d="M12.5612485,32.5155556 C10.8035974,32.5155556 8.9982555,32.0535721 7.50163728,30.687708 C7.34010372,30.5412767 7.25813746,30.3265663 7.28100111,30.1097523 C7.4411901,28.6705825 8.21823936,21.2397113 7.78063209,16.2759129 C7.60750207,14.3961875 8.32791515,12.5443854 9.72585877,11.2757612 C11.0993214,10.0100228 12.9878062,9.46324216 14.8251325,9.79934771 L14.8251685,9.79934771 C14.8710996,9.80755701 14.9169947,9.81620771 14.9629618,9.82500554 C17.9153631,10.3963628 19.9667083,13.1285294 19.7345935,16.1803169 C19.3958857,20.6333023 19.092258,26.6565317 19.5690143,30.0628326 C19.6095205,30.3485363 19.4637783,30.6283581 19.2064438,30.7589598 C18.1216634,31.3070074 15.4038272,32.5155556 12.5612485,32.5155556 Z" id="Path" fill="#C42EA5"></path>
                        <path d="M17.2099982,17.7091284 C17.0357101,17.5920422 16.9206021,17.4040816 16.8947302,17.1943254 L16.4475244,13.5740696 C16.1519461,12.5021169 16.7711365,11.3907841 17.8319191,11.0893358 C18.8927017,10.7878875 19.9950377,11.4100049 20.2965376,12.4802748 L21.7695805,15.8245651 C21.8546347,16.017701 21.8522208,16.2386542 21.7629679,16.4298485 C21.673715,16.6210428 21.5064635,16.7635405 21.304796,16.8202093 L17.8020442,17.8044313 C17.6003659,17.8612096 17.3841953,17.8264122 17.2099982,17.7091284 Z" id="Path" fill="#C42EA5"></path>
                        <path d="M12.5742652,8.39066049 C12.2345825,8.39707818 11.8970181,8.3348893 11.5810777,8.20768734 C11.4420633,8.15313759 11.2977565,8.10830039 11.1589993,8.05371345 C9.93357019,7.57163319 9.12633426,6.24274639 9.09742206,4.90539682 C9.06850986,3.56804724 9.74866623,2.27002544 10.7586456,1.41459693 C11.7686249,0.559168417 13.0767943,0.119986721 14.3867156,0.0184275445 C15.797712,-0.0909680254 17.3865388,0.273381845 18.174987,1.46989357 C18.3848594,1.78838559 18.5316356,2.17480293 18.4072782,2.55935156 C18.3700289,2.67539381 18.3035051,2.77944106 18.2143626,2.86108319 C17.8622524,3.18007363 17.5112147,2.94022228 17.1522677,2.91903263 C16.6588987,2.88990541 16.2157663,3.29654383 16.0564972,3.77290785 C15.897228,4.24927186 15.9673379,4.7737106 16.0959371,5.25958779 C16.1939054,5.5519587 16.2556663,5.85563355 16.279789,6.16357606 C16.3008926,6.47752494 16.1609944,6.78024861 15.9099752,6.96381059 C15.6016797,7.15356378 15.1968096,7.0437427 14.8883329,6.854296 C14.5798562,6.6648493 14.3133122,6.40144116 13.9801022,6.26203311 C13.6468923,6.12262506 13.1992244,6.15354809 13.0052816,6.46266382 C12.9436466,6.57514059 12.9019301,6.69778368 12.8820405,6.8249828 C12.7081728,7.63157185 12.7481344,7.58407293 12.5742667,8.39065752 L12.5742652,8.39066049 Z" id="Path" fill="#2F2E41"></path>
                        <path d="M28.7001083,59 L0.408802599,59 C0.326566511,59 0.25990099,58.9412996 0.25990099,58.8688889 C0.25990099,58.7964782 0.326566511,58.7377778 0.408802599,58.7377778 L28.7001083,58.7377778 C28.7823444,58.7377778 28.8490099,58.7964782 28.8490099,58.8688889 C28.8490099,58.9412996 28.7823444,59 28.7001083,59 Z" id="Path" fill="#CCCCCC"></path>
                        <path d="M101.108791,28.0346918 L80.8526175,39.5309954 C79.6333011,40.2211889 78.091915,39.7824817 77.4070368,38.5503189 L68.1571268,21.8649222 C67.4749907,20.6312045 67.9085733,19.0716126 69.1263487,18.3786418 L89.3825284,6.88233832 C90.6018445,6.19214458 92.1432304,6.63085106 92.8281092,7.8630133 L102.078025,24.5484115 C102.760158,25.7821324 102.32657,27.3417247 101.108791,28.0346918 L101.108791,28.0346918 Z" id="Path" fill="#FFFFFF"></path>
                        <path d="M101.108791,28.0346918 L80.8526175,39.5309954 C79.6333011,40.2211889 78.091915,39.7824817 77.4070368,38.5503189 L68.1571268,21.8649222 C67.4749907,20.6312045 67.9085733,19.0716126 69.1263487,18.3786418 L89.3825284,6.88233832 C90.6018445,6.19214458 92.1432304,6.63085106 92.8281092,7.8630133 L102.078025,24.5484115 C102.760158,25.7821324 102.32657,27.3417247 101.108791,28.0346918 L101.108791,28.0346918 Z M69.2720228,18.6414044 C68.1975196,19.252852 67.8149458,20.6289568 68.4168218,21.7175334 L77.6667303,38.4029301 C78.2710398,39.4901264 79.6310808,39.8772193 80.7069494,39.2682329 L100.963129,27.7719293 C102.037633,27.1604816 102.420207,25.7843757 101.81833,24.6957988 L92.5684201,8.01040212 C91.9641106,6.92320671 90.6040708,6.53611394 89.5282025,7.14509933 L69.2720228,18.6414044 Z" id="Shape" fill="#3F3D56"></path>
                        <path d="M89.9829391,13.0984126 L79.6206565,18.8239594 C79.433842,18.9321481 79.1938818,18.8793315 79.0715826,18.7031051 C79.0132365,18.6124282 78.9953014,18.5021103 79.0219828,18.3980199 C79.0486641,18.2939296 79.1176152,18.2052224 79.2126675,18.1526995 L89.7608365,12.3244444 C90.2796081,12.4332281 90.2849668,12.9315312 89.9828108,13.0984765 L89.9829391,13.0984126 Z" id="b4188fdd-8694-46fd-b6a9-2365408da1f7-187" fill="#CCCCCC"></path>
                        <path d="M90.7626466,14.9339669 L80.4003593,20.6595149 C80.2135449,20.7677036 79.9735846,20.714887 79.8512855,20.5386606 C79.7929395,20.4479839 79.7750044,20.3376662 79.8016858,20.2335761 C79.8283671,20.1294859 79.8973182,20.040779 79.9923704,19.9882564 L90.5405394,14.16 C91.0593111,14.2687822 91.0646698,14.7670854 90.7625138,14.9340323 L90.7626466,14.9339669 Z" id="e79bc6ad-6d6d-496e-bd80-f918a84d8140-188" fill="#CCCCCC"></path>
                        <path d="M79.0385005,23.1103726 L75.830305,24.8550494 C75.6120729,24.973448 75.3361689,24.8982032 75.2136081,24.6868634 L73.0900032,21.0163576 C72.9678812,20.8047794 73.0454914,20.5372874 73.2634767,20.4184628 L76.4716737,18.6737859 C76.6899165,18.5554751 76.9657534,18.6307016 77.0883705,18.8419719 L79.211977,22.5124897 C79.334099,22.7240678 79.2564888,22.9915598 79.0385035,23.1103845 L79.0385005,23.1103726 Z" id="b0898467-4323-4072-9ee9-29d386bbe07d-189" fill="#CCCCCC"></path>
                        <path d="M92.8448269,18.615976 L77.2721956,27.4765097 C77.0882418,27.5862106 76.8519572,27.532655 76.7315306,27.353964 C76.6740769,27.2620183 76.6564158,27.1501562 76.6826888,27.0446088 C76.7089618,26.9390614 76.7768578,26.8491127 76.8704556,26.7958553 L92.6262508,17.8311111 C93.1370805,17.9414158 93.1423571,18.4466927 92.8448269,18.615976 Z" id="aea6c33f-bf9b-47d5-9d2e-017fc614339c-190" fill="#CCCCCC"></path>
                        <path d="M93.8844309,20.4515376 L78.3117995,29.3120652 C78.1278458,29.4217661 77.8915612,29.3682105 77.7711346,29.1895196 C77.7136809,29.0975738 77.6960198,28.9857117 77.7222928,28.8801643 C77.7485657,28.7746169 77.8164618,28.6846683 77.9100596,28.6314109 L93.6658548,19.6666667 C94.1766844,19.7769728 94.1819611,20.2822482 93.8844309,20.4515316 L93.8844309,20.4515376 Z" id="b16b06d0-f954-457b-b4c1-332719c9f6d6-191" fill="#CCCCCC"></path>
                        <path d="M94.924036,22.2870931 L79.351403,31.1476204 C79.1674498,31.2573219 78.9311652,31.2037661 78.8107395,31.0250748 C78.7532853,30.9331293 78.7356237,30.8212672 78.7618964,30.7157197 C78.7881692,30.6101722 78.8560652,30.5202234 78.9496631,30.4669661 L94.7054585,21.5022222 C95.2162881,21.6125269 95.2215648,22.1178038 94.924036,22.2870871 L94.924036,22.2870931 Z" id="b3c0d144-cc2c-4ac0-a007-a1ff15c76ba0-192" fill="#CCCCCC"></path>
                        <path d="M95.7037319,24.1226488 L80.1311062,32.9831758 C79.9471527,33.0928775 79.7108676,33.0393218 79.5904415,32.8606302 C79.5329878,32.7686844 79.5153267,32.6568223 79.5415997,32.5512749 C79.5678727,32.4457275 79.6357687,32.3557788 79.7293664,32.3025214 L95.4851619,23.3377778 C95.9959913,23.4480824 96.001268,23.9533594 95.7037379,24.1226427 L95.7037319,24.1226488 Z" id="b05e8afe-5132-428a-bb53-4b9505cb52a3-193" fill="#CCCCCC"></path>
                        <path d="M96.7433433,25.9582042 L81.170711,34.8187319 C80.9867573,34.9284328 80.7504727,34.8748772 80.6300461,34.6961862 C80.5725919,34.6042406 80.5549306,34.4923783 80.5812036,34.3868308 C80.6074766,34.2812833 80.6753729,34.1913346 80.7689711,34.1380775 L96.5247657,25.1733333 C97.0355953,25.2836395 97.040872,25.7889149 96.7433418,25.9581982 L96.7433433,25.9582042 Z" id="a26c59cb-bc72-4a1e-9571-41d1cd64f8ea-194" fill="#CCCCCC"></path>
                        <path d="M94.2144684,32.7143687 C94.3919628,32.330187 94.3869074,31.8885981 94.2006625,31.5084253 C94.0144175,31.1282525 93.6661147,30.8485483 93.2494757,30.7445758 L92.8115495,25.6977778 L90.7054455,27.3279702 L91.4441963,31.8705704 C91.3096186,32.5845741 91.7405867,33.2844971 92.4473551,33.499772 C93.1541236,33.7150469 93.913295,33.3776289 94.2144684,32.7143687 L94.2144684,32.7143687 Z" id="Path" fill="#FFB8B8"></path>
                        <path d="M92.7714651,30.2101899 L91.0956046,30.4133334 C90.9234845,30.4341646 90.7506081,30.3811618 90.6185334,30.2670665 C90.4864588,30.1529712 90.4071312,29.9881025 90.3996204,29.8120936 L90.1552177,24.0658348 L86.9785501,15.2455723 C86.7198861,14.6895325 86.7554107,14.0382627 87.0729639,13.5146913 C87.1508325,13.3901753 87.2399435,13.2733022 87.3391423,13.1655865 C87.7359761,12.7313052 88.3166939,12.5217287 88.8941302,12.6044036 C89.4887887,12.6848504 90.0086973,13.052033 90.2902738,13.5904222 L92.3619583,18.0026334 C93.2284674,19.8480983 93.6375783,21.8810114 93.5536098,23.9240693 L93.3199912,29.6083081 C93.3073699,29.9153606 93.0794672,30.1687818 92.7797096,30.2090856 L92.7714651,30.2101899 Z" id="Path" fill="#C42EA5"></path>
                        <polygon id="Path" fill="#FFB8B8" points="98.7623762 55.1568193 97.2040427 55.8533333 93.8242574 50.0636355 96.1241061 49.0355556"></polygon>
                        <path d="M99.8019802,56.5475453 L94.810632,58.7377778 L94.7829177,58.6746657 C94.5567239,58.1595818 94.5444807,57.5757665 94.7488817,57.0516583 C94.9532826,56.5275501 95.3575833,56.1060833 95.8728383,55.8799801 L95.8729615,55.8799259 L98.9215002,54.5422222 L99.8019802,56.5475453 Z" id="Path" fill="#2F2E41"></path>
                        <polygon id="Path" fill="#FFB8B8" points="77.45022 57.1644444 75.8653297 57.1644444 75.1113861 50.3466667 77.450495 50.34682"></polygon>
                        <path d="M78.2300919,58.7377778 L72.5123762,58.7375613 L72.5123762,58.6632894 C72.5123762,58.0571254 72.7468402,57.4757867 73.1642065,57.0471674 C73.5815729,56.6185482 74.147644,56.3777778 74.7378844,56.3777778 L74.738026,56.3777778 L78.230198,56.3779231 L78.2300919,58.7377778 Z" id="Path" fill="#2F2E41"></path>
                        <path d="M94.6254242,54.9456089 L85.0207871,33.489673 C84.9852734,33.407244 84.9015891,33.3562934 84.8121381,33.3626386 C84.7226871,33.3689837 84.6470163,33.4312381 84.623469,33.5178565 L78.7714226,54.2417075 C78.691675,54.541391 78.4058637,54.7383613 78.0977449,54.7059806 L74.9016836,54.3860619 C74.5593199,54.3500412 74.3076073,54.048062 74.3335161,53.7044322 C75.3500926,41.0474028 76.9526229,29.1016991 81.7534134,21.2816561 L81.7789573,21.24 L89.0405721,22.6653993 L98.735231,53.5688768 C98.8348174,53.8999444 98.6520454,54.2500246 98.323663,54.3571911 L95.4002157,55.2978351 C95.0898088,55.398867 94.7536892,55.2460647 94.6254227,54.9456089 L94.6254242,54.9456089 Z" id="Path" fill="#D5D4DE"></path>
                        <ellipse id="Oval" fill="#FFB8B8" cx="84.9876238" cy="6.55555556" rx="3.37871287" ry="3.40888889"></ellipse>
                        <path d="M81.2363529,21.61856 L81.1928163,21.609384 L81.1825678,21.5651697 C80.7226009,19.5762493 80.7116399,17.4056339 81.1499583,15.113935 C81.6089344,12.6959044 83.69914,10.9661251 86.103797,11.0143157 L86.103797,11.0143157 C88.7276345,11.0688236 90.8551239,13.2087682 90.9557326,15.8946563 C91.1020876,19.8363504 89.5292733,23.2536722 89.5133921,23.2877324 L89.4899783,23.3377778 L81.2363529,21.61856 Z" id="Path" fill="#C42EA5"></path>
                        <path d="M72.073638,28.3032495 C72.4880112,28.2422042 72.8539728,28.0013557 73.0730489,27.6455123 C73.292125,27.2896688 73.3418112,26.8553838 73.208738,26.4595159 L77.1905941,23.3965828 L74.7183279,22.5511111 L71.3161122,25.5893447 C70.6490598,25.8622342 70.2922079,26.5892692 70.4854722,27.2816552 C70.6787366,27.9740412 71.3610299,28.4129273 72.073638,28.303245 L72.073638,28.3032495 Z" id="Path" fill="#FFB8B8"></path>
                        <path d="M74.0321008,25.8720873 C73.7653339,26.0305454 73.4234346,25.9699527 73.2267119,25.7293532 L72.1372956,24.4058052 C72.0253946,24.2698641 71.9749435,24.0932097 71.9980767,23.9183305 C72.02121,23.7434513 72.1158341,23.5861734 72.2591901,23.4843251 L76.9386339,20.1590421 L82.5846974,12.6578979 C82.9086076,12.1350326 83.4737057,11.812244 84.0865159,11.8 C84.2334798,11.7991177 84.3802095,11.8119688 84.5247972,11.8384331 L84.5247972,11.8384331 C85.1063361,11.9423253 85.6004992,12.3255401 85.8479035,12.8644785 C86.1066915,13.4168097 86.0842949,14.0606858 85.7877607,14.5935135 L81.60709,21.3967413 L81.5979213,21.4116208 L74.0321008,25.8720873 Z" id="Path" fill="#C42EA5"></path>
                        <path d="M85.8161215,6.18325953 C85.5630258,5.76074185 85.0045054,5.64137395 84.5195985,5.68957841 C84.0346916,5.73778288 83.5631306,5.91075088 83.0759171,5.90691281 C81.7230601,5.89627097 80.6787896,4.22292139 81.2475744,2.97715912 C81.7140389,1.95550182 82.8790409,1.5068874 83.9329215,1.15478908 C86.1425599,0.416555449 88.6807649,-0.292759122 90.6858846,0.904229686 C91.9870336,1.70396165 92.7597684,3.15574719 92.7054626,4.6985381 C92.6603656,5.64057856 92.3048663,6.60822676 92.6055247,7.50065763 C92.9523775,8.5302084 94.0521314,9.08259094 95.0914318,9.34979905 C96.9132919,9.81820599 98.8341946,9.74275473 100.667445,10.1628787 C102.500695,10.5830027 104.379291,11.6985364 104.873461,13.5387626 C105.198047,14.7474965 104.859348,16.0487258 104.298445,17.164753 C103.141859,19.4660066 101.102263,21.1821227 98.659675,21.9092156 C96.2170869,22.6363084 93.5872344,22.3101615 91.3890502,21.0075331 C89.1727671,19.6941783 87.5727022,17.4744908 86.6187565,15.0565249 C86.0778882,13.6460626 85.6971205,12.1776559 85.4838191,10.6797105 C85.2701736,9.27748556 85.4514538,7.86043662 85.8384246,6.49697721 C85.8754209,6.39396283 85.867306,6.27981721 85.8161215,6.18325953 L85.8161215,6.18325953 Z" id="Path" fill="#2F2E41"></path>
                        <path d="M98.0936726,59 L69.802367,59 C69.7201309,59 69.6534653,58.9412996 69.6534653,58.8688889 C69.6534653,58.7964782 69.7201309,58.7377778 69.802367,58.7377778 L98.0936726,58.7377778 C98.1759087,58.7377778 98.2425743,58.7964782 98.2425743,58.8688889 C98.2425743,58.9412996 98.1759087,59 98.0936726,59 Z" id="Path" fill="#CCCCCC"></path>
                    </g>
                    <g id="Task-Illustration-Copy-3" transform="translate(17.000000, 0.000000)">
                        <path d="M61.9521197,26.4021202 C61.8356856,26.4982823 61.7191836,26.5902635 61.5999782,26.6808511 L32.1892111,26.6808511 C31.9701514,26.5902635 31.7520395,26.4973532 31.5348753,26.4021202 C28.4299868,25.0438183 25.540046,23.2351213 22.9573012,21.0337635 C21.2423291,19.5732137 19.6646394,18.0652796 18.5208726,16.6521141 C16.925178,14.6800931 15.4555971,12.5310781 14.7720904,10.0824343 C14.0900006,7.63378352 14.2937616,4.82696358 15.8174239,2.79640914 C16.2892308,2.17178223 16.8692492,1.63782616 17.529622,1.22018602 C17.6391463,1.1505033 17.7500362,1.08360789 17.8636947,1.02089345 C19.6909737,-0.0104108007 21.9965136,-0.26126859 24.0539531,0.27250104 C27.000019,1.0376173 29.4483273,3.17408948 31.1951849,5.67988006 C32.9420412,8.184277 34.0761282,11.0607797 35.1934941,13.9052283 C36.3275811,8.82814533 39.7616555,4.28065106 44.400492,1.96857843 C49.0379726,-0.343494199 54.7997926,-0.315621112 59.338779,2.18877582 C60.7669569,2.98154163 62.0570462,4.00300997 63.158307,5.21300584 C63.2677689,5.33146647 63.3745912,5.4527144 63.4799231,5.57535599 C65.6939408,8.15222295 67.0789758,11.4523965 67.1926302,14.8557006 C67.3382407,19.2401289 65.3168818,23.6440809 61.9521197,26.4021202 Z" id="Path" fill="#F2F2F2"></path>
                        <path d="M33.6,26.6808511 L33.1903442,26.6808511 C33.1849436,26.5839319 33.178075,26.4884592 33.1698751,26.39154 C33.0266804,24.4993818 32.7269332,22.6241964 32.2740863,20.787585 C31.2351149,16.5945819 29.4604532,12.6461926 27.0427739,9.14860157 C24.6320141,5.63982438 21.5928633,2.66804689 18.098623,0.402728598 C18.0468206,0.371293198 18.0115753,0.316331799 18.0030762,0.253733409 C17.989427,0.171277001 18.021905,0.0878785436 18.0864658,0.0396017614 C18.1510265,-0.00867502074 18.2360836,-0.0131660202 18.304856,0.0280707914 C18.3142526,0.0338258501 18.3233556,0.0401030117 18.3321268,0.0468760095 C20.3118139,1.32513123 22.1495219,2.83518041 23.8106063,4.54855591 C26.7818843,7.61903967 29.177746,11.2575063 30.8717062,15.2718699 C32.3661567,18.7876953 33.2815394,22.5485482 33.5782077,26.39154 C33.5863981,26.4884563 33.5931929,26.5853828 33.6,26.6808511 Z" id="Path" fill="#FFFFFF"></path>
                        <path d="M63.4586538,5.2610137 C63.4556387,5.26260191 63.4523437,5.2635635 63.4489605,5.26384252 C63.1449259,5.32041895 62.8394669,5.37982421 62.5367887,5.44347269 C60.0523609,5.96328062 57.6203387,6.71563916 55.2716795,7.69097148 C52.929208,8.66492671 50.6759578,9.84822027 48.5383093,11.2269985 C46.397924,12.6050632 44.3795403,14.170614 42.5060829,15.9058695 C40.6325952,17.6386314 38.914017,19.5376447 37.3706415,21.5804857 C36.2171191,23.1110805 35.1683159,24.720708 34.2316595,26.3979689 C34.1789199,26.49132 34.1275353,26.5860855 34.076152,26.6808511 L33.6,26.6808511 C33.6499602,26.5860855 33.7013476,26.49132 33.7540845,26.3979689 C34.8872599,24.3428136 36.186601,22.3874583 37.6386143,20.552209 C39.2443209,18.5211124 41.0242311,16.6395994 42.9572909,14.929926 C44.8780349,13.2298946 46.9395048,11.7022961 49.118655,10.3642079 C51.3068609,9.02070962 53.6074981,7.87717521 55.9936342,6.94699139 C58.3092041,6.04512586 60.699864,5.35776918 63.1365876,4.89326689 C63.2045794,4.88053719 63.2712176,4.86780749 63.3392829,4.85507779 C63.5988425,4.806985 63.7099487,5.20584885 63.4586538,5.2610137 Z" id="Path" fill="#FFFFFF"></path>
                        <path d="M69.627907,26.6808511 L2.37209302,26.6808511 C1.06279083,26.6826819 0.00185372639,27.7305369 0,29.0236944 L0,54.6571567 C0.00185295992,55.9503145 1.06279051,56.9981699 2.37209302,57 L69.627907,57 C70.9372098,56.9981706 71.9981478,55.9503148 72,54.6571567 L72,29.0236944 C71.998147,27.7305366 70.9372095,26.6826812 69.627907,26.6808511 L69.627907,26.6808511 Z M71.7209302,54.6571567 C71.7195248,55.7982724 70.7832692,56.7229833 69.627907,56.7243714 L2.37209302,56.7243714 C1.21673085,56.7229833 0.280475201,55.7982724 0.279069767,54.6571567 L0.279069767,29.0236944 C0.280475201,27.8825787 1.21673085,26.9578678 2.37209302,26.9564797 L69.627907,26.9564797 C70.7832692,26.9578678 71.7195248,27.8825787 71.7209302,29.0236944 L71.7209302,54.6571567 Z" id="Shape" fill="#3F3D56"></path>
                        <path d="M13.8,49.7234043 C9.49217895,49.7234043 6,46.1940745 6,41.8404255 C6,37.4867766 9.49217895,33.9574468 13.8,33.9574468 C18.107821,33.9574468 21.6,37.4867766 21.6,41.8404255 C21.5951338,46.1920357 18.1058038,49.7184863 13.8,49.7234043 L13.8,49.7234043 Z M13.8,34.2292737 C9.6407245,34.2292737 6.26896552,37.6369024 6.26896552,41.8404255 C6.26896552,46.0439486 9.6407245,49.4515774 13.8,49.4515774 C17.9592755,49.4515774 21.3310345,46.0439486 21.3310345,41.8404255 C21.3263262,37.638875 17.9573237,34.2340321 13.8,34.2292737 L13.8,34.2292737 Z" id="Shape" fill="#3F3D56"></path>
                        <path d="M30.5579239,36.3829787 C29.6143921,36.3835428 28.8396765,37.1550994 28.8029296,38.130817 C28.8005875,38.1545056 28.8,38.1783203 28.8,38.2021277 C28.8014819,39.2062303 29.5876799,40.0198642 30.5579239,40.0212766 L63.0421932,40.0212766 C64.0130031,40.0212766 64.8,39.2068159 64.8,38.2021277 C64.8,37.1974394 64.0130031,36.3829787 63.0421932,36.3829787 L30.5579239,36.3829787 Z" id="Path" fill="#C42EA5"></path>
                        <path d="M63.0421932,42.4468085 L30.5579239,42.4468085 C29.6143921,42.4473726 28.8396765,43.2189292 28.8029296,44.1946468 C28.8005875,44.2183354 28.8,44.2421501 28.8,44.2659574 C28.8014819,45.27006 29.5876799,46.083694 30.5579239,46.0851064 L63.0421932,46.0851064 C64.0130031,46.0851064 64.8,45.2706457 64.8,44.2659574 C64.8,43.2612692 64.0130031,42.4468085 63.0421932,42.4468085 L63.0421932,42.4468085 Z" id="Path" fill="#C42EA5"></path>
                        <path d="M12.8881592,44.8723404 C12.6702101,44.8727401 12.4580388,44.8031318 12.2836508,44.6740117 L12.2728404,44.6659949 L9.99629107,42.9444809 C9.70946111,42.7274205 9.5616653,42.3757133 9.60857687,42.0218438 C9.65548845,41.6679744 9.88998043,41.365704 10.223722,41.228895 C10.5574635,41.092086 10.9397513,41.1415229 11.2265812,41.3585833 L12.7011574,42.475325 L16.1858145,37.9868591 C16.349032,37.776609 16.5901314,37.6390118 16.8560699,37.6043396 C17.1220083,37.5696674 17.3909998,37.6407604 17.6038648,37.8019781 L17.5821996,37.8310325 L17.604421,37.8024011 C18.0471118,38.13844 18.1308519,38.7649913 17.7916114,39.202976 L13.6928273,44.4824866 C13.500682,44.7290779 13.2032053,44.873201 12.8881592,44.8723404 L12.8881592,44.8723404 Z" id="Path" fill="#C42EA5"></path>
                        <path d="M55.0448676,20.8610704 C52.0987624,20.4817943 49.1068704,20.5449327 46.1820224,21.0481046 C43.2657045,21.5471181 40.4502807,22.4684486 37.8370836,23.7789357 C36.3685097,24.5175304 34.9746565,25.379465 33.6727069,26.3541138 C33.4600204,26.5131447 33.7611067,26.7917153 33.9718696,26.6341232 C36.2564115,24.9331746 38.8173334,23.5857614 41.557291,22.6431005 C44.2755698,21.702099 47.1327807,21.1595697 50.0279495,21.0346857 C51.6661308,20.9642698 53.3077598,21.0339696 54.9324017,21.2429174 C55.0444995,21.2680513 55.1582378,21.2076078 55.1926213,21.10463 C55.2229478,20.9992716 55.1570765,20.890684 55.0448733,20.8610704 L55.0448676,20.8610704 Z" id="Path" fill="#FFFFFF"></path>
                    </g>
                    <g id="Task-Illustration-Copy-3" transform="translate(17.000000, 59.000000)">
                        <path d="M69.627907,0 L2.37209302,0 C1.06279083,0.00187198278 0.00185372639,1.07325771 0,2.39545455 L0,28.6045455 C0.00185295992,29.9267426 1.06279051,30.9981288 2.37209302,31 L69.627907,31 C70.9372098,30.9981296 71.9981478,29.9267429 72,28.6045455 L72,2.39545455 C71.998147,1.07325739 70.9372095,0.00187120877 69.627907,0 L69.627907,0 Z M71.7209302,28.6045455 C71.7195248,29.7712862 70.7832692,30.7167625 69.627907,30.7181818 L2.37209302,30.7181818 C1.21673085,30.7167625 0.280475201,29.7712862 0.279069767,28.6045455 L0.279069767,2.39545455 C0.280475201,1.2287138 1.21673085,0.283237457 2.37209302,0.281818182 L69.627907,0.281818182 C70.7832692,0.283237457 71.7195248,1.2287138 71.7209302,2.39545455 L71.7209302,28.6045455 Z" id="Shape" fill="#3F3D56"></path>
                        <path d="M13.8,23.56 C9.49217895,23.56 6,19.9514151 6,15.5 C6,11.0485849 9.49217895,7.44 13.8,7.44 C18.107821,7.44 21.6,11.0485849 21.6,15.5 C21.5951338,19.9493306 18.1058038,23.5549716 13.8,23.56 L13.8,23.56 Z M13.8,7.71793103 C9.6407245,7.71793103 6.26896552,11.202082 6.26896552,15.5 C6.26896552,19.797918 9.6407245,23.282069 13.8,23.282069 C17.9592755,23.282069 21.3310345,19.797918 21.3310345,15.5 C21.3263262,11.2040989 17.9573237,7.72279631 13.8,7.71793103 L13.8,7.71793103 Z" id="Shape" fill="#3F3D56"></path>
                        <path d="M30.5579239,9.92 C29.6143921,9.92057673 28.8396765,10.7094596 28.8029296,11.707088 C28.8005875,11.7313085 28.8,11.755658 28.8,11.78 C28.8014819,12.8066509 29.5876799,13.6385559 30.5579239,13.64 L63.0421932,13.64 C64.0130031,13.64 64.8,12.8072496 64.8,11.78 C64.8,10.7527504 64.0130031,9.92 63.0421932,9.92 L30.5579239,9.92 Z" id="Path" fill="#C42EA5"></path>
                        <path d="M63.0421932,16.12 L30.5579239,16.12 C29.6143921,16.1205767 28.8396765,16.9094596 28.8029296,17.907088 C28.8005875,17.9313085 28.8,17.955658 28.8,17.98 C28.8014819,19.0066509 29.5876799,19.8385559 30.5579239,19.84 L63.0421932,19.84 C64.0130031,19.84 64.8,19.0072496 64.8,17.98 C64.8,16.9527504 64.0130031,16.12 63.0421932,16.12 L63.0421932,16.12 Z" id="Path" fill="#C42EA5"></path>
                        <path d="M12.8881592,18.6 C12.6702101,18.6004087 12.4580388,18.5292372 12.2836508,18.3972176 L12.2728404,18.3890208 L9.99629107,16.6288482 C9.70946111,16.4069135 9.5616653,16.0473082 9.60857687,15.6854923 C9.65548845,15.3236763 9.88998043,15.0146181 10.223722,14.8747369 C10.5574635,14.7348557 10.9397513,14.7854027 11.2265812,15.0073375 L12.7011574,16.1491569 L16.1858145,11.5598973 C16.349032,11.3449258 16.5901314,11.2042388 16.8560699,11.1687879 C17.1220083,11.1333371 17.3909998,11.2060266 17.6038648,11.3708646 L17.5821996,11.4005714 L17.604421,11.3712971 C18.0471118,11.7148821 18.1308519,12.3555033 17.7916114,12.8033236 L13.6928273,18.2013916 C13.500682,18.4535204 13.2032053,18.6008799 12.8881592,18.6 L12.8881592,18.6 Z" id="Path" fill="#C42EA5"></path>
                    </g>
                </g>
            </g>
        </g>
    </g>
</svg>