<svg width="95" height="126" viewBox="0 0 95 126" fill="none" xmlns="http://www.w3.org/2000/svg">
<path d="M26.8694 97.4102L6.29459 101.753C5.05658 102.013 3.84214 101.22 3.57986 99.9809L0.0492526 83.2088C-0.210244 81.9691 0.581356 80.7531 1.81878 80.4905L22.3936 76.148C23.6316 75.8881 24.846 76.6808 25.1083 77.9198L28.6389 94.6919C28.8984 95.9316 28.1068 97.1476 26.8694 97.4102V97.4102Z" fill="white"/>
<path fill-rule="evenodd" clip-rule="evenodd" d="M6.29459 101.753L26.8694 97.4102C28.1068 97.1476 28.8984 95.9316 28.6389 94.6919L25.1083 77.9198C24.846 76.6808 23.6316 75.8881 22.3936 76.148L1.81878 80.4905C0.581356 80.7531 -0.210244 81.9691 0.0492526 83.2088L3.57986 99.9809C3.84214 101.22 5.05658 102.013 6.29459 101.753ZM0.312987 83.1529C0.0840275 82.0591 0.782496 80.9861 1.87433 80.7544L22.4492 76.4119C23.5415 76.1826 24.6131 76.882 24.8445 77.9753L28.3751 94.7474C28.6041 95.8412 27.9056 96.9142 26.8138 97.1459L6.23894 101.488C5.14658 101.718 4.07503 101.018 3.8436 99.925L0.312987 83.1529Z" fill="#3F3D56"/>
<path d="M21.1188 81.5196L10.7916 83.6354C10.604 83.6777 10.4149 83.5716 10.3587 83.3927C10.3336 83.3018 10.3482 83.2049 10.3988 83.1247C10.4495 83.0445 10.5319 82.9881 10.6266 82.9687L21.1391 80.8149C21.5496 81.0398 21.4199 81.458 21.1187 81.5197L21.1188 81.5196Z" fill="#CCCCCC"/>
<path d="M21.3542 83.4059L11.0269 85.5216C10.8394 85.5639 10.6502 85.4578 10.594 85.2789C10.569 85.188 10.5835 85.0911 10.6342 85.0109C10.6849 84.9307 10.7672 84.8743 10.8619 84.8549L21.3745 82.7012C21.7849 82.926 21.6552 83.3442 21.3541 83.4059L21.3542 83.4059Z" fill="#CCCCCC"/>
<path d="M9.09299 87.2147L5.95861 87.8805C5.74548 87.9255 5.53639 87.7882 5.49126 87.5735L4.71161 83.8464C4.66691 83.6316 4.8032 83.4209 5.01625 83.3754L8.15062 82.7097C8.36374 82.6647 8.57278 82.802 8.61798 83.0167L9.39762 86.7438C9.44232 86.9586 9.30603 87.1693 9.09299 87.2147L9.09299 87.2147Z" fill="#CCCCCC"/>
<path d="M22.2952 87.2327L6.55845 90.7087C6.37122 90.7543 6.18233 90.6401 6.12623 90.4474C6.10124 90.3496 6.11574 90.2453 6.16633 90.1589C6.21691 90.0726 6.29914 90.0119 6.39373 89.991L22.3155 86.4741C22.7254 86.7161 22.5958 87.1663 22.2952 87.2327V87.2327Z" fill="#CCCCCC"/>
<path d="M22.5305 88.8836L6.7938 92.3596C6.60657 92.4052 6.41768 92.291 6.36158 92.0983C6.33659 92.0005 6.35109 91.8961 6.40168 91.8098C6.45227 91.7235 6.53449 91.6628 6.62908 91.6419L22.5509 88.125C22.9607 88.367 22.8312 88.8172 22.5305 88.8836Z" fill="#CCCCCC"/>
<path d="M23.0002 90.7703L7.26353 94.2463C7.0763 94.2919 6.88741 94.1777 6.83131 93.985C6.80632 93.8872 6.82082 93.7829 6.8714 93.6965C6.92199 93.6102 7.00422 93.5495 7.0988 93.5286L23.0206 90.0117C23.4304 90.2537 23.3009 90.7039 23.0002 90.7703V90.7703Z" fill="#CCCCCC"/>
<path d="M23.47 92.6571L7.73326 96.1331C7.54603 96.1786 7.35713 96.0644 7.30103 95.8717C7.27604 95.7739 7.29054 95.6696 7.34113 95.5833C7.39172 95.4969 7.47395 95.4362 7.56853 95.4153L23.4903 91.8984C23.9002 92.1405 23.7706 92.5906 23.47 92.6571V92.6571Z" fill="#CCCCCC"/>
<path d="M23.7053 94.5433L7.96861 98.0193C7.78138 98.0648 7.59249 97.9506 7.53638 97.758C7.5114 97.6601 7.52589 97.5558 7.57648 97.4695C7.62707 97.3832 7.7093 97.3225 7.80388 97.3016L23.7257 93.7847C24.1355 94.0267 24.006 94.4769 23.7053 94.5433V94.5433Z" fill="#CCCCCC"/>
<path d="M26.4829 86.0386C26.4466 86.1057 26.4155 86.1756 26.3899 86.2476L19.839 87.9009L18.6994 86.7019L16.6953 88.2145L18.51 90.5365C18.8111 90.9218 19.3262 91.0587 19.7742 90.8725L26.8826 87.9185C27.3609 88.2766 28.0073 88.2963 28.5059 87.968C29.0046 87.6397 29.2514 87.0318 29.1259 86.4414C29.0003 85.8509 28.5287 85.401 27.9412 85.3115C27.3537 85.222 26.7731 85.5115 26.4829 86.0386L26.4829 86.0386Z" fill="#A0616A"/>
<path d="M4.43832 100.555C4.83843 100.429 5.16326 100.127 5.3254 99.7314C5.48754 99.3358 5.47035 98.887 5.27843 98.5057L9.64139 86.0814L6.61146 85.5312L3.27557 97.9169C2.65813 98.298 2.41651 99.0921 2.71316 99.7652C3.00981 100.438 3.75096 100.778 4.43832 100.555V100.555Z" fill="#A0616A"/>
<path d="M9.12178 88.0817L6.06019 86.9082C5.88393 86.8406 5.74584 86.6997 5.68191 86.5223C5.61798 86.3449 5.63454 86.1485 5.72728 85.9842L7.33339 83.1401C7.69487 82.2154 8.73732 81.7572 9.66417 82.1156C10.591 82.474 11.0528 83.5138 10.6966 84.4405L9.98815 87.6174C9.94705 87.8015 9.82777 87.9585 9.6614 88.0477C9.49503 88.1368 9.29805 88.1493 9.12178 88.0817V88.0817Z" fill="#C42EA5"/>
<path d="M16.2258 123.968L17.8192 123.968L18.5771 117.602L16.2256 117.602L16.2258 123.968V123.968Z" fill="#A0616A"/>
<path d="M15.7549 123.261L19.0581 123.261H19.0582C19.6165 123.261 20.152 123.478 20.5468 123.863C20.9415 124.249 21.1633 124.771 21.1633 125.317V125.383L15.755 125.384L15.7549 123.261Z" fill="#2F2E41"/>
<path d="M6.8196 123.968L8.4129 123.968L9.17083 117.602L6.81934 117.602L6.8196 123.968V123.968Z" fill="#A0616A"/>
<path d="M6.34961 123.261L9.65282 123.261H9.65295C10.2113 123.261 10.7467 123.478 11.1415 123.863C11.5363 124.249 11.758 124.771 11.758 125.317V125.383L6.34971 125.384L6.34961 123.261Z" fill="#2F2E41"/>
<path d="M8.5828 121.374H6.48607C6.31977 121.374 6.16073 121.306 6.04597 121.185C5.9312 121.064 5.87073 120.901 5.87862 120.734L6.87455 99.239L6.93731 99.2373L17.0623 98.9722L19.0436 120.48C19.0589 120.643 19.0087 120.805 18.904 120.93C18.7993 121.056 18.649 121.133 18.4866 121.146L16.1316 121.336C15.8254 121.36 15.5491 121.152 15.4873 120.849L12.4749 105.539C12.4579 105.443 12.3735 105.373 12.2764 105.376H12.2755C12.178 105.374 12.0937 105.444 12.0774 105.54L9.17951 120.881C9.12292 121.167 8.87321 121.374 8.5828 121.374V121.374Z" fill="#D5D4DE"/>
<ellipse cx="12.463" cy="76.8058" rx="3.29209" ry="3.30136" fill="#A0616A"/>
<path d="M11.3648 101.802C9.77452 101.802 8.14111 101.387 6.78702 100.158C6.64087 100.027 6.56671 99.8337 6.5874 99.6387C6.73233 98.3445 7.43538 91.6621 7.03945 87.1982C6.8828 85.5078 7.53461 83.8425 8.79942 82.7017C10.0421 81.5634 11.7507 81.0717 13.4131 81.374H13.4131C13.4546 81.3813 13.4962 81.3891 13.5378 81.397C16.209 81.9108 18.065 84.3678 17.855 87.1122C17.5485 91.1167 17.2738 96.5333 17.7052 99.5965C17.7418 99.8535 17.6099 100.105 17.3771 100.223C16.3956 100.715 13.9366 101.802 11.3648 101.802Z" fill="#C42EA5"/>
<path d="M15.571 88.4867C15.4134 88.3814 15.3092 88.2124 15.2858 88.0238L14.8812 84.7682C14.6138 83.8042 15.174 82.8048 16.1337 82.5337C17.0935 82.2626 18.0909 82.8221 18.3636 83.7845L19.6964 86.792C19.7733 86.9657 19.7712 87.1644 19.6904 87.3363C19.6097 87.5082 19.4583 87.6364 19.2759 87.6873L16.1067 88.5724C15.9242 88.6235 15.7287 88.5922 15.571 88.4867Z" fill="#C42EA5"/>
<path d="M11.377 80.1071C11.0697 80.1129 10.7642 80.0569 10.4784 79.9425C10.3526 79.8935 10.2221 79.8532 10.0965 79.8041C8.98779 79.3705 8.25743 78.1755 8.23127 76.9729C8.20511 75.7702 8.82049 74.6029 9.73429 73.8336C10.6481 73.0644 11.8317 72.6694 13.0168 72.5781C14.2935 72.4797 15.731 72.8074 16.4443 73.8834C16.6342 74.1698 16.767 74.5173 16.6545 74.8631C16.6208 74.9675 16.5606 75.061 16.48 75.1344C16.1614 75.4213 15.8438 75.2056 15.519 75.1866C15.0726 75.1604 14.6717 75.526 14.5276 75.9544C14.3835 76.3828 14.4469 76.8544 14.5633 77.2914C14.6519 77.5543 14.7078 77.8274 14.7296 78.1043C14.7487 78.3866 14.6221 78.6589 14.395 78.8239C14.1161 78.9946 13.7498 78.8958 13.4707 78.7255C13.1916 78.5551 12.9504 78.3182 12.6489 78.1928C12.3475 78.0675 11.9424 78.0953 11.767 78.3733C11.7112 78.4744 11.6735 78.5847 11.6555 78.6991C11.4981 79.4244 11.5343 79.3817 11.377 80.1071L11.377 80.1071Z" fill="#2F2E41"/>
<path d="M25.967 125.619H0.370072C0.295668 125.619 0.235352 125.566 0.235352 125.501C0.235352 125.436 0.295668 125.383 0.370072 125.383H25.967C26.0414 125.383 26.1018 125.436 26.1018 125.501C26.1018 125.566 26.0414 125.619 25.967 125.619Z" fill="#CCCCCC"/>
<path d="M91.4797 97.7723L73.1527 108.111C72.0495 108.731 70.6549 108.337 70.0352 107.229L61.6662 92.224C61.0491 91.1145 61.4414 89.712 62.5432 89.0888L80.8702 78.7504C81.9734 78.1297 83.368 78.5243 83.9876 79.6323L92.3566 94.6372C92.9738 95.7466 92.5815 97.1491 91.4797 97.7723V97.7723Z" fill="white"/>
<path fill-rule="evenodd" clip-rule="evenodd" d="M73.1527 108.111L91.4797 97.7723C92.5815 97.1491 92.9738 95.7466 92.3566 94.6372L83.9876 79.6323C83.368 78.5243 81.9734 78.1297 80.8702 78.7504L62.5432 89.0888C61.4414 89.712 61.0491 91.1145 61.6662 92.224L70.0352 107.229C70.6549 108.337 72.0495 108.731 73.1527 108.111ZM61.9014 92.0915C61.3568 91.1126 61.703 89.8751 62.6751 89.3252L81.0022 78.9868C81.9756 78.4392 83.2061 78.7873 83.7529 79.765L92.1219 94.7698C92.6664 95.7488 92.3203 96.9863 91.3481 97.5361L73.021 107.875C72.0476 108.422 70.8171 108.074 70.2704 107.096L61.9014 92.0915Z" fill="#3F3D56"/>
<path d="M81.4134 84.341L72.0379 89.4899C71.8689 89.5872 71.6518 89.5397 71.5412 89.3812C71.4884 89.2997 71.4721 89.2005 71.4963 89.1069C71.5204 89.0133 71.5828 88.9335 71.6688 88.8863L81.2124 83.645C81.6818 83.7428 81.6866 84.191 81.4132 84.3411L81.4134 84.341Z" fill="#CCCCCC"/>
<path d="M82.1194 85.9914L72.744 91.1403C72.575 91.2376 72.3579 91.1901 72.2472 91.0316C72.1944 90.9501 72.1782 90.8509 72.2023 90.7573C72.2265 90.6637 72.2889 90.5839 72.3749 90.5366L81.9185 85.2954C82.3878 85.3932 82.3927 85.8414 82.1193 85.9915L82.1194 85.9914Z" fill="#CCCCCC"/>
<path d="M71.5115 93.3443L68.6088 94.9133C68.4113 95.0197 68.1617 94.9521 68.0508 94.762L66.1295 91.4612C66.019 91.2709 66.0892 91.0304 66.2864 90.9235L69.1891 89.3546C69.3865 89.2482 69.6361 89.3158 69.747 89.5058L71.6684 92.8066C71.7789 92.9969 71.7087 93.2375 71.5115 93.3443L71.5115 93.3443Z" fill="#CCCCCC"/>
<path d="M84.0028 89.3025L69.9133 97.2706C69.7468 97.3693 69.5331 97.3211 69.4241 97.1604C69.3721 97.0777 69.3561 96.9771 69.3799 96.8822C69.4037 96.7873 69.4651 96.7064 69.5498 96.6585L83.8051 88.5967C84.2672 88.6959 84.272 89.1503 84.0028 89.3025Z" fill="#CCCCCC"/>
<path d="M84.9433 90.9529L70.8537 98.921C70.6873 99.0196 70.4735 98.9715 70.3645 98.8108C70.3125 98.7281 70.2966 98.6275 70.3203 98.5326C70.3441 98.4377 70.4055 98.3568 70.4902 98.3089L84.7455 90.2471C85.2077 90.3463 85.2124 90.8007 84.9433 90.9529V90.9529Z" fill="#CCCCCC"/>
<path d="M85.8837 92.6043L71.7941 100.572C71.6277 100.671 71.4139 100.623 71.305 100.462C71.253 100.379 71.237 100.279 71.2608 100.184C71.2845 100.089 71.346 100.008 71.4306 99.9603L85.6859 91.8984C86.1481 91.9976 86.1529 92.452 85.8837 92.6043V92.6043Z" fill="#CCCCCC"/>
<path d="M86.5888 94.2546L72.4992 102.223C72.3328 102.321 72.119 102.273 72.01 102.113C71.9581 102.03 71.9421 101.929 71.9658 101.834C71.9896 101.739 72.051 101.659 72.1357 101.611L86.391 93.5488C86.8532 93.648 86.858 94.1024 86.5888 94.2546L86.5888 94.2546Z" fill="#CCCCCC"/>
<path d="M87.5302 95.905L73.4406 103.873C73.2742 103.972 73.0604 103.924 72.9514 103.763C72.8995 103.68 72.8835 103.58 72.9072 103.485C72.931 103.39 72.9924 103.309 73.0771 103.261L87.3324 95.1992C87.7946 95.2984 87.7994 95.7528 87.5302 95.905L87.5302 95.905Z" fill="#CCCCCC"/>
<path d="M85.2412 101.981C85.4018 101.635 85.3973 101.238 85.2288 100.896C85.0602 100.554 84.7451 100.303 84.3682 100.209L83.9719 95.6709L82.0664 97.1369L82.7348 101.222C82.613 101.864 83.003 102.493 83.6424 102.687C84.2819 102.881 84.9688 102.577 85.2412 101.981V101.981Z" fill="#FFB8B8"/>
<path d="M83.9356 99.7289L82.4193 99.9115C82.2636 99.9303 82.1072 99.8826 81.9877 99.78C81.8682 99.6774 81.7964 99.5291 81.7896 99.3709L81.5685 94.2034L78.6943 86.2715C78.4603 85.7714 78.4924 85.1858 78.7798 84.7149C78.8502 84.603 78.9308 84.4978 79.0206 84.401C79.3796 84.0104 79.905 83.822 80.4275 83.8963C80.9655 83.9687 81.4359 84.2989 81.6907 84.783L83.5651 88.7508C84.349 90.4104 84.7192 92.2386 84.6432 94.0759L84.4318 99.1876C84.4204 99.4637 84.2142 99.6916 83.943 99.7279L83.9356 99.7289Z" fill="#C42EA5"/>
<path d="M89.3565 122.163L87.9466 122.789L84.8887 117.583L86.9695 116.658L89.3565 122.163V122.163Z" fill="#FFB8B8"/>
<path d="M90.2967 123.414L85.7807 125.383L85.7557 125.327C85.551 124.863 85.5399 124.338 85.7249 123.867C85.9098 123.396 86.2756 123.017 86.7418 122.813L86.7419 122.813L89.5001 121.61L90.2967 123.414Z" fill="#2F2E41"/>
<path d="M70.0741 123.968H68.6401L67.958 117.837L70.0743 117.838L70.0741 123.968V123.968Z" fill="#FFB8B8"/>
<path d="M70.7796 125.384L65.6064 125.383V125.317C65.6064 124.771 65.8186 124.249 66.1962 123.863C66.5738 123.478 67.086 123.261 67.62 123.261H67.6201L70.7797 123.261L70.7796 125.384Z" fill="#2F2E41"/>
<path d="M85.614 121.973L76.924 102.678C76.8919 102.604 76.8162 102.559 76.7353 102.564C76.6543 102.57 76.5859 102.626 76.5646 102.704L71.2698 121.34C71.1977 121.61 70.9391 121.787 70.6603 121.758L67.7686 121.47C67.4589 121.438 67.2311 121.166 67.2546 120.857C68.1743 109.475 69.6243 98.7325 73.9678 91.7001L73.991 91.6626L80.561 92.9444L89.3324 120.735C89.4225 121.033 89.2571 121.348 88.96 121.444L86.315 122.29C86.0341 122.381 85.73 122.244 85.614 121.973H85.614Z" fill="#D5D4DE"/>
<ellipse cx="76.8939" cy="78.4567" rx="3.05694" ry="3.06555" fill="#FFB8B8"/>
<path d="M73.5002 92.0024L73.4608 91.9942L73.4515 91.9544C73.0354 90.1658 73.0255 88.2138 73.422 86.1529C73.8373 83.9784 75.7284 82.4229 77.9041 82.4662V82.4662C80.278 82.5152 82.2029 84.4396 82.294 86.855C82.4264 90.3997 81.0033 93.4728 80.989 93.5035L80.9678 93.5485L73.5002 92.0024Z" fill="#C42EA5"/>
<path d="M65.2098 98.0141C65.5847 97.9592 65.9158 97.7426 66.1141 97.4226C66.3123 97.1026 66.3572 96.7121 66.2368 96.3561L69.8395 93.6016L67.6026 92.8413L64.5244 95.5735C63.9209 95.8189 63.598 96.4727 63.7729 97.0954C63.9478 97.718 64.5651 98.1127 65.2098 98.0141V98.0141Z" fill="#FFB8B8"/>
<path d="M66.981 95.8271C66.7397 95.9696 66.4303 95.9151 66.2523 95.6988L65.2667 94.5085C65.1654 94.3863 65.1198 94.2274 65.1407 94.0701C65.1617 93.9129 65.2473 93.7714 65.377 93.6798L69.6108 90.6895L74.7191 83.9439C75.0122 83.4737 75.5235 83.1834 76.0779 83.1724C76.2109 83.1716 76.3436 83.1831 76.4744 83.2069V83.2069C77.0006 83.3004 77.4477 83.645 77.6715 84.1296C77.9057 84.6263 77.8854 85.2054 77.6171 85.6845L73.8346 91.8025L73.8263 91.8159L66.981 95.8271Z" fill="#C42EA5"/>
<path d="M77.643 78.122C77.414 77.7421 76.9087 77.6347 76.47 77.6781C76.0313 77.7214 75.6046 77.877 75.1638 77.8735C73.9398 77.864 72.995 76.3591 73.5096 75.2389C73.9316 74.3201 74.9857 73.9167 75.9392 73.6C77.9384 72.9362 80.2349 72.2983 82.049 73.3747C83.2263 74.0939 83.9254 75.3995 83.8763 76.7869C83.8355 77.634 83.5138 78.5042 83.7858 79.3067C84.0997 80.2326 85.0947 80.7293 86.035 80.9696C87.6834 81.3909 89.4213 81.323 91.08 81.7008C92.7386 82.0786 94.4383 83.0818 94.8854 84.7367C95.1791 85.8237 94.8727 86.9939 94.3652 87.9975C93.3187 90.067 91.4734 91.6102 89.2634 92.2641C87.0535 92.9179 84.6741 92.6246 82.6852 91.4532C80.68 90.2721 79.2323 88.276 78.3692 86.1016C77.8799 84.8332 77.5354 83.5127 77.3424 82.1656C77.1491 80.9046 77.3131 79.6303 77.6632 78.4042C77.6967 78.3115 77.6894 78.2089 77.643 78.122V78.122Z" fill="#2F2E41"/>
<path d="M88.7512 125.619H63.1543C63.0798 125.619 63.0195 125.566 63.0195 125.501C63.0195 125.436 63.0798 125.383 63.1543 125.383H88.7512C88.8256 125.383 88.8859 125.436 88.8859 125.501C88.8859 125.566 88.8256 125.619 88.7512 125.619Z" fill="#CCCCCC"/>
<path d="M71.4335 24.3621C71.3282 24.4486 71.2228 24.5313 71.1149 24.6127H44.5052C44.307 24.5313 44.1096 24.4477 43.9132 24.3621C41.104 23.1406 38.4893 21.5141 36.1525 19.5344C34.6008 18.221 33.1734 16.8649 32.1386 15.5941C30.6948 13.8207 29.3652 11.8881 28.7468 9.68609C28.1297 7.48406 28.314 4.95994 29.6926 3.1339C30.1195 2.57218 30.6442 2.09201 31.2417 1.71643C31.3408 1.65377 31.4411 1.59361 31.544 1.53721C33.1972 0.609778 35.2832 0.384187 37.1447 0.864196C39.8102 1.55225 42.0253 3.47354 43.6058 5.72695C45.1863 7.97911 46.2124 10.5659 47.2233 13.1239C48.2494 8.55813 51.3564 4.46865 55.5535 2.38945C59.7493 0.310243 64.9624 0.335308 69.0691 2.58747C70.3613 3.30039 71.5285 4.21897 72.5249 5.3071C72.6239 5.41363 72.7205 5.52267 72.8158 5.63296C74.819 7.95029 76.0721 10.9181 76.175 13.9786C76.3067 17.9214 74.4779 21.8818 71.4335 24.3621Z" fill="#F2F2F2"/>
<path d="M45.7813 24.6127H45.4107C45.4058 24.5256 45.3996 24.4397 45.3921 24.3526C45.2626 22.651 44.9914 20.9647 44.5817 19.313C43.6416 15.5423 42.036 11.9916 39.8486 8.84631C37.6674 5.69093 34.9177 3.01847 31.7562 0.981307C31.7094 0.953038 31.6775 0.903612 31.6698 0.847318C31.6574 0.773167 31.6868 0.698168 31.7452 0.654754C31.8036 0.611339 31.8806 0.607301 31.9428 0.644384C31.9513 0.64956 31.9596 0.655205 31.9675 0.661295C33.7586 1.81081 35.4213 3.16877 36.9242 4.70957C39.6125 7.4708 41.7802 10.7428 43.3128 14.3529C44.665 17.5146 45.4932 20.8966 45.7616 24.3526C45.769 24.4397 45.7751 24.5269 45.7813 24.6127Z" fill="white"/>
<path d="M72.7953 5.35059C72.7925 5.35202 72.7896 5.35289 72.7865 5.35314C72.5114 5.40402 72.2351 5.45744 71.9612 5.51468C69.7134 5.98213 67.513 6.65871 65.388 7.53581C63.2686 8.41167 61.23 9.47578 59.2959 10.7157C57.3594 11.955 55.5332 13.3628 53.8382 14.9233C52.1431 16.4816 50.5882 18.1893 49.1918 20.0264C48.1481 21.4028 47.1992 22.8503 46.3518 24.3587C46.3041 24.4426 46.2576 24.5278 46.2111 24.6131H45.7803C45.8255 24.5278 45.872 24.4426 45.9197 24.3587C46.9449 22.5105 48.1205 20.7521 49.4343 19.1017C50.887 17.2752 52.4974 15.5831 54.2464 14.0457C55.9842 12.5169 57.8494 11.1431 59.821 9.9398C61.8008 8.73162 63.8823 7.70326 66.0412 6.86676C68.1362 6.05573 70.2992 5.4376 72.5039 5.01989C72.5654 5.00844 72.6257 4.99699 72.6873 4.98554C72.9221 4.94229 73.0226 5.30099 72.7953 5.35059Z" fill="white"/>
<path fill-rule="evenodd" clip-rule="evenodd" d="M17.527 24.6128H78.3776C79.5622 24.6144 80.5221 25.5568 80.5238 26.7197V49.7714C80.5221 50.9343 79.5622 51.8766 78.3776 51.8783H17.527C16.3424 51.8766 15.3825 50.9343 15.3809 49.7714V26.7197C15.3825 25.5568 16.3424 24.6144 17.527 24.6128ZM78.3778 51.6301C79.4231 51.6289 80.2702 50.7973 80.2715 49.7711V26.7194C80.2702 25.6933 79.4231 24.8617 78.3778 24.8604H17.5272C16.4819 24.8617 15.6348 25.6933 15.6336 26.7194V49.7711C15.6348 50.7973 16.4819 51.6289 17.5272 51.6301H78.3778Z" fill="#3F3D56"/>
<path fill-rule="evenodd" clip-rule="evenodd" d="M20.8096 38.2458C20.8096 42.1609 23.9692 45.3348 27.8667 45.3348C31.7625 45.3303 34.9195 42.1591 34.9239 38.2458C34.9239 34.3306 31.7643 31.1567 27.8667 31.1567C23.9692 31.1567 20.8096 34.3306 20.8096 38.2458ZM21.0524 38.2455C21.0524 34.4654 24.1031 31.401 27.8662 31.401C31.6276 31.4052 34.6758 34.4672 34.68 38.2455C34.68 42.0257 31.6294 45.0901 27.8662 45.0901C24.1031 45.0901 21.0524 42.0257 21.0524 38.2455Z" fill="#3F3D56"/>
<path d="M43.028 33.3379C42.1743 33.3384 41.4734 34.0322 41.4402 34.9097C41.438 34.931 41.4372 34.9524 41.4376 34.9738C41.4388 35.8768 42.1502 36.6085 43.028 36.6097H72.4186C73.2969 36.6097 74.009 35.8773 74.009 34.9738C74.009 34.0703 73.2969 33.3379 72.4186 33.3379L43.028 33.3379Z" fill="#C42EA5"/>
<path d="M72.4186 38.7905H43.028C42.1743 38.791 41.4734 39.4849 41.4402 40.3623C41.438 40.3836 41.4372 40.405 41.4376 40.4265C41.4388 41.3294 42.1502 42.0611 43.028 42.0624H72.4186C73.2969 42.0624 74.009 41.33 74.009 40.4265C74.009 39.523 73.2969 38.7905 72.4186 38.7905V38.7905Z" fill="#C42EA5"/>
<path d="M27.0414 40.9724C26.8442 40.9728 26.6523 40.9102 26.4945 40.7941L26.4847 40.7869L24.425 39.2387C24.1654 39.0435 24.0317 38.7272 24.0742 38.409C24.1166 38.0908 24.3288 37.819 24.6307 37.6959C24.9327 37.5729 25.2786 37.6174 25.5381 37.8126L26.8722 38.8168L30.025 34.7804C30.1727 34.5914 30.3908 34.4676 30.6314 34.4364C30.872 34.4053 31.1154 34.4692 31.308 34.6142L31.2884 34.6403L31.3085 34.6146C31.709 34.9167 31.7848 35.4802 31.4779 35.8741L27.7694 40.6218C27.5956 40.8436 27.3265 40.9732 27.0414 40.9724V40.9724Z" fill="#C42EA5"/>
<path d="M65.1828 19.3791C62.5173 19.0381 59.8103 19.0948 57.164 19.5473C54.5254 19.9961 51.9782 20.8246 49.6138 22.0031C48.2851 22.6673 47.024 23.4424 45.8461 24.3189C45.6536 24.4619 45.926 24.7125 46.1167 24.5707C48.1837 23.0411 50.5007 21.8294 52.9797 20.9817C55.4391 20.1355 58.0242 19.6476 60.6437 19.5353C62.1258 19.4719 63.6111 19.5346 65.081 19.7225C65.1825 19.7451 65.2854 19.6908 65.3165 19.5982C65.3439 19.5034 65.2843 19.4058 65.1828 19.3791H65.1828Z" fill="white"/>
<path fill-rule="evenodd" clip-rule="evenodd" d="M17.527 53.6768H78.3777C79.5623 53.6784 80.5222 54.6419 80.5239 55.8309V79.4003C80.5222 80.5893 79.5623 81.5528 78.3777 81.5545H17.527C16.3424 81.5528 15.3825 80.5893 15.3809 79.4003V55.8309C15.3825 54.6419 16.3424 53.6784 17.527 53.6768ZM78.3781 81.3008C79.4235 81.2995 80.2705 80.4492 80.2718 79.4V55.8307C80.2705 54.7815 79.4235 53.9312 78.3781 53.9299H17.5275C16.4822 53.9312 15.6351 54.7815 15.6338 55.8307V79.4C15.6351 80.4492 16.4822 81.2995 17.5275 81.3008H78.3781Z" fill="#3F3D56"/>
<path fill-rule="evenodd" clip-rule="evenodd" d="M20.8096 67.6154C20.8096 71.6185 23.9692 74.8636 27.8667 74.8636C31.7625 74.8591 34.9195 71.6166 34.9239 67.6154C34.9239 63.6123 31.7643 60.3672 27.8667 60.3672C23.9692 60.3672 20.8096 63.6123 20.8096 67.6154ZM21.0527 67.6155C21.0527 63.7504 24.1034 60.6172 27.8665 60.6172C31.6279 60.6216 34.6761 63.7523 34.6804 67.6155C34.6804 71.4805 31.6297 74.6137 27.8665 74.6137C24.1034 74.6137 21.0527 71.4805 21.0527 67.6155Z" fill="#3F3D56"/>
<path d="M43.029 62.5972C42.1753 62.5977 41.4744 63.3071 41.4411 64.2043C41.439 64.226 41.4382 64.2479 41.4386 64.2698C41.4398 65.1931 42.1511 65.9412 43.029 65.9425H72.4196C73.2979 65.9425 74.01 65.1936 74.01 64.2698C74.01 63.346 73.2979 62.5972 72.4196 62.5972L43.029 62.5972Z" fill="#C42EA5"/>
<path d="M72.4196 68.1733H43.029C42.1753 68.1739 41.4744 68.8833 41.4411 69.7804C41.439 69.8022 41.4382 69.8241 41.4386 69.846C41.4398 70.7692 42.1511 71.5174 43.029 71.5187H72.4196C73.2979 71.5187 74.01 70.7698 74.01 69.846C74.01 68.9222 73.2979 68.1733 72.4196 68.1733V68.1733Z" fill="#C42EA5"/>
<path d="M27.0414 70.403C26.8442 70.4034 26.6523 70.3394 26.4945 70.2207L26.4847 70.2133L24.425 68.6304C24.1654 68.4308 24.0317 68.1075 24.0742 67.7821C24.1166 67.4567 24.3288 67.1788 24.6307 67.053C24.9327 66.9272 25.2786 66.9727 25.5381 67.1722L26.8722 68.1991L30.025 64.072C30.1727 63.8787 30.3908 63.7522 30.6314 63.7203C30.872 63.6884 31.1154 63.7538 31.308 63.902L31.2884 63.9287L31.3085 63.9024C31.709 64.2114 31.7848 64.7875 31.4779 65.1902L27.7694 70.0446C27.5956 70.2713 27.3265 70.4038 27.0414 70.403V70.403Z" fill="#C42EA5"/>
</svg>
