<svg width="16" height="16" viewBox="0 0 16 16" fill="none" xmlns="http://www.w3.org/2000/svg">
<path id="Mask" fill-rule="evenodd" clip-rule="evenodd" d="M14.6667 2.66667H11.5001C11.408 2.66667 11.3334 2.59205 11.3334 2.5V1.66667C11.3334 0.746192 10.5872 0 9.66675 0H6.33341C5.41294 0 4.66675 0.746192 4.66675 1.66667V2.5C4.66675 2.5442 4.64919 2.5866 4.61793 2.61785C4.58668 2.64911 4.54428 2.66667 4.50008 2.66667H1.33341C0.965225 2.66667 0.666748 2.96514 0.666748 3.33333C0.666748 3.70152 0.965225 4 1.33341 4H14.6667C15.0349 4 15.3334 3.70152 15.3334 3.33333C15.3334 2.96514 15.0349 2.66667 14.6667 2.66667ZM13.0001 5H3.00008C2.81599 5 2.66675 5.14924 2.66675 5.33333V14.6667C2.66675 15.403 3.2637 16 4.00008 16H12.0001C12.7365 16 13.3334 15.403 13.3334 14.6667V5.33333C13.3334 5.14924 13.1842 5 13.0001 5ZM6.83342 13.6667C6.83342 13.9428 6.60956 14.1667 6.33342 14.1667C6.05727 14.1667 5.83342 13.9428 5.83342 13.6667V7.66667C5.83342 7.39052 6.05727 7.16667 6.33342 7.16667C6.60956 7.16667 6.83342 7.39052 6.83342 7.66667V13.6667ZM9.66675 14.1667C9.94289 14.1667 10.1667 13.9428 10.1667 13.6667V7.66667C10.1667 7.39052 9.94289 7.16667 9.66675 7.16667C9.3906 7.16667 9.16675 7.39052 9.16675 7.66667V13.6667C9.16675 13.9428 9.3906 14.1667 9.66675 14.1667ZM6.00008 1.66667V2.5C6.00008 2.59205 6.0747 2.66667 6.16675 2.66667H9.83342C9.92546 2.66667 10.0001 2.59205 10.0001 2.5V1.66667C10.0001 1.48257 9.85084 1.33333 9.66675 1.33333H6.33342C6.14932 1.33333 6.00008 1.48257 6.00008 1.66667Z" fill="#595959"/>
</svg>
