<svg width="14" height="14" viewBox="0 0 14 14" fill="none" xmlns="http://www.w3.org/2000/svg">
<path id="Mask" fill-rule="evenodd" clip-rule="evenodd" d="M5.86913 1.13108C5.86913 0.506403 6.37554 0 7.00022 0C7.6249 0 8.1313 0.506403 8.1313 1.13108V6.41958C8.1313 6.50012 8.19659 6.56542 8.27713 6.56542H9.82822C10.0498 6.56551 10.251 6.69494 10.3429 6.89657C10.4348 7.09821 10.4005 7.33494 10.2552 7.50225L7.42722 10.7549C7.31986 10.8787 7.16407 10.9498 7.00022 10.9498C6.83637 10.9498 6.68058 10.8787 6.57322 10.7549L3.74522 7.50225C3.59993 7.33494 3.56567 7.09821 3.65757 6.89657C3.74948 6.69494 3.95062 6.56551 4.17222 6.56542H5.7233C5.80384 6.56542 5.86913 6.50012 5.86913 6.41958V1.13108ZM12.5156 10.5875C12.5156 10.197 12.8322 9.8805 13.2226 9.8805C13.4106 9.87972 13.5912 9.95387 13.7244 10.0865C13.8577 10.2192 13.9326 10.3995 13.9326 10.5875V11.6696C13.9326 12.9582 12.8879 14.0029 11.5992 14.0029H2.40122C1.11369 14.0013 0.0708008 12.9571 0.0708008 11.6696V10.5875C0.0708008 10.197 0.387336 9.8805 0.777801 9.8805C1.16827 9.8805 1.4848 10.197 1.4848 10.5875V11.6696C1.48544 12.1753 1.89546 12.5851 2.40122 12.5854H11.5992C12.105 12.5851 12.515 12.1753 12.5156 11.6696V10.5875Z" fill="#0768FD"/>
</svg>
