<?xml version="1.0" encoding="UTF-8"?>
<svg width="16px" height="12px" viewBox="0 0 16 12" version="1.1" xmlns="http://www.w3.org/2000/svg" xmlns:xlink="http://www.w3.org/1999/xlink">
    <title>icon/chevron/right12</title>
    <defs>
        <path d="M0.157358303,2.1069471 L7.02160524,10.2847301 L7.02160524,10.2847301 C7.14724783,10.4222476 7.3209365,10.5 7.50248998,10.5 C7.68404346,10.5 7.85773212,10.4222476 7.98337472,10.2847301 L14.844497,2.1069471 C14.9553677,1.97587559 15.0108427,1.80322847 14.99824,1.62847372 C14.9856374,1.45371898 14.9060346,1.29179742 14.7776293,1.17972512 L13.6215062,0.158731765 C13.3532684,-0.0785619939 12.9532094,-0.046158632 12.7228548,0.231519346 L7.62028955,6.43026708 C7.59061001,6.46645897 7.54736806,6.48727507 7.50186505,6.48727507 C7.45636203,6.48727507 7.41312009,6.46645897 7.38344054,6.43026708 L2.27900054,0.230863602 C2.16819419,0.0980203744 2.01186956,0.0164755903 1.84404826,0.00397618858 C1.67593882,-0.0117505711 1.50891475,0.0445405299 1.38097406,0.160043253 L0.224225967,1.17972512 C0.0950820382,1.29159857 0.014785964,1.45371865 0.00175037469,1.62890974 C-0.0108912629,1.80388325 0.0453467258,1.97664989 0.157358303,2.1069471 Z" id="path-1"></path>
    </defs>
    <g id="---↳--Resources" stroke="none" stroke-width="1" fill="none" fill-rule="evenodd">
        <g id="Resources---Desktop---6" transform="translate(-1068.000000, -1247.000000)">
            <g id="Group-2" transform="translate(290.000000, 1112.000000)">
                <g id="icon/chevron/right" transform="translate(778.500000, 135.750000)">
                    <mask id="mask-2" fill="white">
                        <use xlink:href="#path-1"></use>
                    </mask>
                    <use id="Mask" fill="#000000" fill-rule="nonzero" xlink:href="#path-1"></use>
                    <g id="color" mask="url(#mask-2)" fill="#595959">
                        <g transform="translate(-4.500000, -6.750000)" id="Rectangle">
                            <rect x="0" y="0" width="24" height="24"></rect>
                        </g>
                    </g>
                </g>
            </g>
        </g>
    </g>
</svg>