<svg width="16" height="17" viewBox="0 0 16 17" fill="none" xmlns="http://www.w3.org/2000/svg">
<path id="Mask" fill-rule="evenodd" clip-rule="evenodd" d="M6.70723 1.29267C6.70723 0.578747 7.28598 0 7.9999 0C8.71382 0 9.29257 0.578747 9.29257 1.29267V7.33667C9.29257 7.42871 9.36718 7.50333 9.45923 7.50333H11.2319C11.4851 7.50344 11.715 7.65136 11.8201 7.8818C11.9251 8.11224 11.8859 8.38279 11.7199 8.574L8.4879 12.2913C8.3652 12.4328 8.18716 12.514 7.9999 12.514C7.81264 12.514 7.6346 12.4328 7.5119 12.2913L4.2799 8.574C4.11385 8.38279 4.0747 8.11224 4.17974 7.8818C4.28477 7.65136 4.51465 7.50344 4.7679 7.50333H6.54057C6.63261 7.50333 6.70723 7.42871 6.70723 7.33667V1.29267ZM14.3032 12.1C14.3032 11.6538 14.665 11.292 15.1112 11.292C15.3261 11.2911 15.5325 11.3759 15.6847 11.5275C15.837 11.6791 15.9226 11.8851 15.9226 12.1V13.3367C15.9226 14.8094 14.7287 16.0033 13.2559 16.0033H2.7439C1.27244 16.0015 0.0805664 14.8081 0.0805664 13.3367V12.1C0.0805664 11.6538 0.44232 11.292 0.888566 11.292C1.33481 11.292 1.69657 11.6538 1.69657 12.1V13.3367C1.6973 13.9147 2.16589 14.383 2.7439 14.3833H13.2559C13.8339 14.383 14.3025 13.9147 14.3032 13.3367V12.1Z" fill="#595959"/>
</svg>
