<?xml version="1.0" encoding="UTF-8"?>
<svg width="152px" height="160px" viewBox="0 0 152 160" version="1.1" xmlns="http://www.w3.org/2000/svg" xmlns:xlink="http://www.w3.org/1999/xlink">
    <title>Group 9</title>
    <defs>
        <path d="M39.840074,14.4358789 C39.4645433,13.4356497 38.5028041,12.7710746 37.4262737,12.7679094 L26.9762006,12.7679094 C26.6117559,12.7681698 26.2868735,12.5402528 26.1658779,12.1994382 L22.4147017,1.65889228 C22.0384384,0.661239861 21.0769741,0 20.0026181,0 C18.9282622,0 17.9667978,0.661239861 17.5905345,1.65889228 L17.5819506,1.68612443 L13.8393583,12.1994382 C13.7185721,12.5396637 13.3945669,12.7674479 13.0307524,12.7679094 L2.57724574,12.7679094 C1.49334285,12.7671015 0.524957792,13.4392475 0.15488083,14.4492477 C-0.215196131,15.459248 0.0922659868,16.5908683 0.923981342,17.2799371 L9.82379714,24.5985787 C10.0962728,24.8227485 10.2019521,25.1897806 10.0898989,25.52277 L6.35074017,36.6385952 C5.9961504,37.6932116 6.37066656,38.8540761 7.27676657,39.5089418 C8.18286659,40.1638075 9.41224271,40.1621241 10.3165146,39.5047794 L19.4944496,32.8329015 C19.7964655,32.6135369 20.2070539,32.6135369 20.5090698,32.8329015 L29.6835713,39.5030774 C30.5874966,40.1626897 31.8182355,40.1659127 32.7256631,39.5110439 C33.6330908,38.8561752 34.0081741,37.6940687 33.6527793,36.6385952 L29.9136205,25.5159619 C29.8015673,25.1829726 29.9072466,24.8159404 30.1797223,24.5917707 L39.0967059,17.262917 C39.9176165,16.5681407 40.2143788,15.4395499 39.840074,14.4358789 Z" id="path-1"></path>
        <path d="M14.9400278,5.4134546 C15.0803921,5.78983122 14.9691062,6.21305275 14.6612647,6.47359387 L11.3173959,9.221914 C11.2152175,9.30597766 11.1755877,9.44361473 11.2176077,9.56848572 L12.6197922,13.7394732 C12.7530653,14.1352758 12.612409,14.5710657 12.2721237,14.8166415 C11.9318383,15.0622173 11.4703112,15.0610086 11.1313392,14.813654 L7.69090118,12.3123381 C7.57764523,12.2300763 7.42367456,12.2300763 7.31041861,12.3123381 L3.86869296,14.8142923 C3.52959102,15.0607965 3.06857497,15.0614278 2.72878747,14.8158532 C2.38899996,14.5702785 2.2485564,14.1349543 2.38152756,13.7394732 L3.78371208,9.57103873 C3.82573206,9.44616774 3.78610231,9.30853068 3.68392393,9.22446701 L0.346493003,6.47997641 C0.0345997451,6.22157561 -0.0806985492,5.797218 0.0580803114,5.4184679 C0.196859172,5.0397178 0.560003569,4.78766305 0.966467151,4.78796604 L4.88653214,4.78796604 C5.02296257,4.78779296 5.14446454,4.70237388 5.18975937,4.57478933 L6.59323148,0.632296662 C6.73754917,0.247964948 7.09809831,0 7.50098179,0 C7.90386527,0 8.26441441,0.247964948 8.40551313,0.622084604 L9.81220421,4.57478933 C9.85757756,4.70259481 9.97940845,4.78806366 10.1160752,4.78796604 L14.0348526,4.78796604 C14.4385515,4.78915299 14.7992037,5.03836864 14.9400278,5.4134546 Z" id="path-3"></path>
        <path d="M13.3910662,4.78796604 L9.47275267,4.78796587 C9.06275232,4.78825875 8.69725964,4.53185217 8.56130222,4.14889326 L7.1587058,0.207361535 C7.11167289,0.0826549826 6.99148985,0 6.85719535,0 C6.72290086,0 6.60271782,0.0826549826 6.56715302,0.174206072 L5.15325124,4.14843538 C5.01736676,4.53118903 4.65286085,4.78744626 4.2427457,4.78796604 L0.322196644,4.78796586 C0.186708783,4.78786486 0.065660651,4.87188311 0.0194010308,4.99813315 C-0.0268585894,5.12438318 0.0115741754,5.26583572 0.113724497,5.35047194 L3.45126745,8.09505469 C3.7578026,8.34724568 3.87669183,8.76015687 3.75065472,9.13470206 L2.34849841,13.3030526 C2.30417469,13.4348797 2.35098921,13.5799877 2.46425171,13.661846 C2.57751421,13.7437042 2.73118623,13.7434937 2.84421509,13.6613294 L6.28614959,11.1592234 C6.62591746,10.9124382 7.08782945,10.9124382 7.42783566,11.1593966 L10.8691865,13.6613774 C10.9821772,13.7438289 11.1360195,13.7442318 11.249448,13.6623732 C11.3628764,13.5805146 11.4097619,13.4352513 11.3652393,13.3030253 L9.963115,9.13221684 C9.83705508,8.75760386 9.95594432,8.34469267 10.2627212,8.09230288 L13.5994762,5.34991613 C13.7019115,5.26322016 13.739056,5.12248587 13.6926406,4.99719121 C13.6452141,4.87169585 13.5243859,4.78836083 13.3910662,4.78796604 Z" id="path-5"></path>
    </defs>
    <g id="---↳--Resources" stroke="none" stroke-width="1" fill="none" fill-rule="evenodd">
        <g id="Empty-1-Copy-3" transform="translate(-132.000000, -326.000000)">
            <g id="Group-12-Copy-2" transform="translate(16.000000, 244.000000)">
                <g id="Group-9" transform="translate(116.000000, 82.000000)">
                    <path d="M78.2463066,34.5509401 C75.862637,40.7933956 74.607905,44.4901542 74.4821105,45.6412158 C74.0557195,49.5428344 76.131237,50.5510319 76.3290982,54.3515864 C76.4610057,56.8852893 76.2385931,59.6350273 75.6618606,62.6008003" id="Path-2" stroke="#B5B5B5" stroke-linejoin="round" transform="translate(76.335424, 48.575870) scale(-1, 1) rotate(-27.000000) translate(-76.335424, -48.575870) "></path>
                    <g id="icon/star" transform="translate(61.000000, 4.000000)">
                        <mask id="mask-2" fill="white">
                            <use xlink:href="#path-1"></use>
                        </mask>
                        <use id="Mask" fill="#000000" fill-rule="nonzero" xlink:href="#path-1"></use>
                        <g id="color" mask="url(#mask-2)" fill="#B5B5B5">
                            <rect id="Rectangle" x="0" y="0" width="40" height="40"></rect>
                        </g>
                    </g>
                    <g id="undraw_loving_it_re_jfh4">
                        <path d="M8.81278828,145.899859 C10.2932601,151.022551 14.6160527,154.608491 19.1252718,157.654697 C19.7548806,158.080121 20.3846896,158.495749 21.0146989,158.901582 C21.0189656,158.903443 21.0233641,158.907427 21.0276835,158.909324 C21.0579956,158.928746 21.0883663,158.948198 21.1166066,158.967755 C21.2466315,159.051348 21.3767062,159.135006 21.5056527,159.217658 L21.434822,159.249394 C21.434822,159.249394 21.3652689,159.286283 21.4413626,159.25531 C21.4640117,159.24586 21.4877392,159.237375 21.5103385,159.227873 C24.1299077,158.174083 26.7960059,157.04264 28.8035106,155.068547 C30.8860044,153.018583 32.1030066,149.803302 30.9753553,147.110234 C30.8271335,146.757471 30.6399133,146.422305 30.4171692,146.110955 C30.3256996,145.980403 30.2271883,145.855452 30.1246183,145.732818 C28.8581063,144.191046 26.8556688,143.451489 24.8878726,143.798741 C22.9200765,144.145993 21.2935991,145.525935 20.6343326,147.407545 C20.3030505,144.331032 22.8464352,141.753995 25.2940689,139.85252 C27.7427839,137.952007 30.5252073,135.882304 30.9986081,132.82287 C31.2629744,131.120642 30.6695238,129.471019 29.5884308,128.146756 C29.5549597,128.10652 29.5215385,128.066337 29.4870652,128.027212 C28.1710797,126.484835 26.3201588,125.494412 24.3040088,125.253771 C20.5492249,124.864545 16.9020278,126.846895 14.1742564,129.450799 C9.78392967,133.64031 7.12978168,140.075387 8.81278828,145.899859 Z" id="Path" fill="#F2F2F2" fill-rule="nonzero"></path>
                        <path d="M15.8704293,139.199434 C15.1498148,140.317701 14.596553,141.534808 14.2281084,142.812335 C13.9165263,143.954177 13.7778506,145.136066 13.8166799,146.31881 C13.9171838,148.752583 14.6021944,151.126695 15.8140923,153.241446 C16.7269939,154.845797 17.8395334,156.32863 19.125263,157.654697 C19.7548718,158.080121 20.3846808,158.495749 21.0146901,158.901582 C21.0189568,158.903443 21.0233553,158.907427 21.0276747,158.909324 C21.0579868,158.928746 21.0883575,158.948198 21.1165978,158.967755 C21.2466227,159.051348 21.3766974,159.135006 21.505644,159.217658 C21.505644,159.217658 21.3652601,159.286283 21.4413538,159.25531 C21.4640029,159.24586 21.4877304,159.237375 21.5103297,159.227873 C21.0339139,155.332041 22.4812018,151.447685 25.3928205,148.807709 C26.8311697,147.526483 28.5527422,146.602454 30.4171663,146.110964 C30.3256967,145.980412 30.2271853,145.855461 30.1246154,145.732827 C29.4045401,145.93423 28.703728,146.198741 28.0303648,146.523269 C25.6233068,147.676191 23.6523828,149.571486 22.4093245,151.928617 C21.2938473,154.068984 20.8137615,156.482355 21.0254359,158.885369 C20.9178051,158.788085 20.8100513,158.688688 20.7055297,158.590232 C18.7149392,156.73917 16.9468982,154.614454 15.7503414,152.162351 C14.712258,150.085764 14.2020565,147.78643 14.264674,145.466866 C14.3623267,142.937646 15.3726593,140.594939 16.8354989,138.555477 C18.4387719,136.379646 20.332798,134.432691 22.4649495,132.76871 C24.613689,131.052121 26.964954,129.604242 29.4663238,128.457352 C29.5834934,128.402811 29.637198,128.266207 29.5884278,128.146765 C29.5717471,128.095154 29.53532,128.052194 29.4870623,128.02722 C29.436765,128.005582 29.3793178,128.008017 29.3310418,128.033832 C29.0222066,128.175639 28.7155136,128.319394 28.4112821,128.469353 C25.877312,129.718584 23.5087499,131.27696 21.3600088,133.10868 C19.2844689,134.873646 17.3304645,136.890115 15.8704293,139.199434 Z" id="Path" fill="#FFFFFF" fill-rule="nonzero"></path>
                        <ellipse id="Oval" fill="#2F2E41" fill-rule="nonzero" transform="translate(55.052018, 59.916594) rotate(-28.663210) translate(-55.052018, -59.916594) " cx="55.0520183" cy="59.916594" rx="8.72957468" ry="9.00038336"></ellipse>
                        <ellipse id="Oval" fill="#FFB8B8" fill-rule="nonzero" cx="55.0520176" cy="62.2275597" rx="7.19737143" ry="7.1787999"></ellipse>
                        <path d="M51.1928996,73.2083655 L50.2673407,75.8196322 L51.6287355,83.6788784 L57.2393231,88.3285902 L61.6947927,81.4568933 L59.5495678,74.9555262 L57.9406476,73.1450188 L57.9406476,73.1450188 C57.972569,72.8160223 57.8654496,72.4886571 57.6450941,72.2417844 C57.4247386,71.9949117 57.1111236,71.8509119 56.7797978,71.8444741 L53.2660425,71.7761995 C52.3377932,71.7581642 51.5023658,72.3352932 51.1928996,73.2083655 L51.1928996,73.2083655 Z" id="Path" fill="#CCCCCC" fill-rule="nonzero"></path>
                        <polygon id="Path" fill="#FFB8B8" fill-rule="nonzero" points="66.1028571 155.991177 69.6955311 155.990592 70.1916484 142.169059 66.101685 142.169644"></polygon>
                        <path d="M65.3331233,154.96681 L76.6241826,154.96681 L76.6241826,159.318009 L69.6955369,159.318009 C67.2862224,159.318009 65.3331233,157.369911 65.3331233,154.96681 L65.3331233,154.96681 L65.3331233,154.96681 Z" id="Path" fill="#2F2E41" fill-rule="nonzero" transform="translate(70.978653, 157.142410) rotate(179.994830) translate(-70.978653, -157.142410) "></path>
                        <polygon id="Path" fill="#FFB8B8" fill-rule="nonzero" points="40.9356777 155.991177 44.5283516 155.990592 46.2367766 142.169059 40.9345055 142.169644"></polygon>
                        <path d="M40.1659466,154.966808 L51.457003,154.966808 L51.457003,159.318006 L44.5283602,159.318006 C42.1190457,159.318006 40.1659466,157.369908 40.1659466,154.966808 L40.1659466,154.966808 L40.1659466,154.966808 Z" id="Path" fill="#2F2E41" fill-rule="nonzero" transform="translate(45.811475, 157.142407) rotate(179.994830) translate(-45.811475, -157.142407) "></path>
                        <path d="M72.5241993,58.9264469 C73.2703902,59.3766285 73.7783366,60.1333525 73.9113591,60.9929983 C74.0443817,61.8526441 73.788816,62.726906 73.21343,63.3805359 L76.1848586,69.4077099 L72.9531018,72.1021022 L68.8767209,63.5317812 C67.8166282,62.47161 67.7190685,60.78815 68.6496323,59.6132111 C69.5801962,58.4382721 71.2447494,58.1432308 72.5241934,58.9264469 L72.5241993,58.9264469 Z" id="Path" fill="#FFB8B8" fill-rule="nonzero"></path>
                        <path d="M51.1040967,106.122411 C49.3526852,106.099721 47.6042661,105.971088 45.8684718,105.737219 C45.2675259,105.66171 44.7288309,105.330276 44.3915024,104.828507 C44.0541738,104.326738 43.951285,103.70383 44.1094066,103.120647 L47.9984498,88.7577627 L44.8665114,79.9936633 C44.1659997,78.0288676 45.1220296,75.8599479 47.0471414,75.046526 L51.3491692,73.2324527 L52.6421304,81.2156098 L55.72257,85.0896609 C55.9303111,85.3508836 56.2550155,85.4915172 56.5882088,85.46458 C56.9214022,85.4376428 57.2191601,85.2466859 57.3820103,84.9555025 L59.7212542,80.7733283 L57.8104821,73.0885933 L60.659326,73.4246909 C62.5357201,73.6523134 64.1179391,74.9267749 64.7360645,76.7084624 C65.6115689,79.2479236 65.6879054,81.9936356 64.9548425,84.5775878 L63.7743092,88.7607587 L65.8472762,102.124481 C65.9618185,102.860348 65.7691436,103.610893 65.3141295,104.201301 C64.8591153,104.791708 64.1814846,105.170435 63.4390711,105.249268 C62.1145532,105.401434 60.7806764,105.457098 59.448044,105.415817 C58.2387165,105.364439 57.3893919,104.628877 56.9917802,103.288766 C56.9473733,103.127575 56.8008356,103.015561 56.6332394,103.014697 C56.4656433,103.013833 56.3179523,103.124329 56.2718769,103.285054 C56.1618071,103.674242 56.0407326,104.107625 55.9086535,104.585204 C55.588381,105.744497 53.5827077,106.122411 51.1040967,106.122411 Z" id="Path" fill="#2F2E41" fill-rule="nonzero"></path>
                        <path d="M63.6040967,80.1967581 C63.2469538,80.1977139 62.8931664,80.1280073 62.5632176,79.9916641 C61.7762157,79.6664094 61.2029746,78.9720021 61.0339868,78.1391992 C60.7761731,76.8036773 61.4243714,75.4570857 62.6304703,74.8226042 L71.0251136,70.2765099 L70.5659516,68.465719 C70.4360867,67.8980621 70.6579986,67.307843 71.1300689,66.9653367 L73.2946755,65.3614859 C73.6278011,65.1066165 74.0586888,65.0158442 74.466693,65.1145847 C74.8263317,65.204684 75.1257726,65.4522759 75.2812103,65.7880659 L76.4057934,68.2098271 C77.2955751,70.1258024 76.5348571,72.4856257 74.6362491,73.698719 L65.22097,79.7145115 C64.7392434,80.0259686 64.178167,80.1933111 63.6040967,80.1967581 Z" id="Path" fill="#2F2E41" fill-rule="nonzero"></path>
                        <path d="M45.9180864,149.566 C45.8888625,149.566 45.8594823,149.565047 45.8299458,149.563144 L41.2559121,149.379882 C40.8974394,149.357565 40.5636032,149.190371 40.3315499,148.916935 C40.0994965,148.643499 39.9893066,148.287484 40.026444,147.931161 L44.6688,103.383828 L56.8522227,98.9648866 L64.0269158,103.014484 L71.8761172,146.178905 C72.0040998,146.86472 71.5731308,147.530938 70.8939048,147.697269 L70.8749451,147.701978 L66.1925978,147.587236 C65.5236047,147.738167 64.8499315,147.353991 64.64097,146.702389 L54.6691018,111.799695 C54.6075865,111.61243 54.4283741,111.489104 54.2310159,111.498222 C54.0336576,111.507341 53.8666435,111.646664 53.8227487,111.838799 L47.2028923,148.53601 C47.0704668,149.137801 46.5357958,149.566 45.9180864,149.566 L45.9180864,149.566 Z" id="Path" fill="#2F2E41" fill-rule="nonzero"></path>
                        <path d="M48.7658549,57.6955886 C47.6208938,59.1906776 48.492252,61.735511 50.3149245,62.2197118 C52.1375971,62.7039127 54.1625934,60.9285144 53.9149011,59.063458 C53.5215473,61.020239 55.2005714,63.0680052 57.1938432,63.2419523 C59.187115,63.4158993 61.1251546,61.8582294 61.5612513,59.9104975 C61.997348,57.9627656 61.0240879,55.8347148 59.3672586,54.715778 C57.7104293,53.5968411 55.491748,53.4514912 53.6170784,54.1490887 C51.7033805,54.863033 50.024577,56.0903267 48.7658549,57.6955886 L48.7658549,57.6955886 Z" id="Path" fill="#2F2E41" fill-rule="nonzero"></path>
                        <path d="M57.4420806,51.3139616 C56.375959,49.0823721 55.2805568,46.8080009 53.5574212,45.0312406 C51.8342857,43.2544803 49.3416088,42.0307509 46.899074,42.4497314 C44.4565392,42.868712 42.3531399,45.3275291 42.8941333,47.7399139 C43.1689319,48.965283 42.1169905,50.1794431 40.9044308,50.5169728 C39.6918711,50.8545026 38.3995985,50.5388591 37.2008821,50.1552712 C36.0021656,49.7716833 34.7878066,49.3136419 33.5300718,49.3676443 C31.0081201,49.4759298 28.8996044,51.8569262 28.8110066,54.3731479 C28.7224088,56.8893695 30.4384879,59.2844862 32.7408703,60.3167461 C35.0432527,61.3490061 37.7972806,61.11771 40.0682725,60.0184322 C42.3392645,58.9191544 44.1551121,57.023981 45.4829451,54.8827073 C47.4450286,51.7186115 52.3756249,50.938204 55.2233934,53.340999 C55.855825,53.8362046 56.763599,53.763599 57.3088322,53.1742012 C57.8124864,52.5881071 57.7394755,51.5992397 57.4420806,51.3139616 Z" id="Path" fill="#2F2E41" fill-rule="nonzero"></path>
                        <g id="icon/star-outline" transform="translate(46.000000, 84.000000)">
                            <mask id="mask-4" fill="white">
                                <use xlink:href="#path-3"></use>
                            </mask>
                            <use id="Mask" fill="#0557D5" fill-rule="nonzero" xlink:href="#path-3"></use>
                            <g id="color" mask="url(#mask-4)" fill="#595959">
                                <rect id="Rectangle" x="0" y="0" width="15" height="15"></rect>
                            </g>
                            <g id="Group-7" mask="url(#mask-4)">
                                <g transform="translate(0.643786, 0.638254)" id="Rectangle">
                                    <mask id="mask-6" fill="white">
                                        <use xlink:href="#path-5"></use>
                                    </mask>
                                    <use id="Mask" fill="#FFFFFF" fill-rule="nonzero" xlink:href="#path-5"></use>
                                    <rect fill="#FFFFFF" fill-rule="nonzero" mask="url(#mask-6)" x="-0.643786436" y="-0.638253629" width="15" height="15"></rect>
                                </g>
                            </g>
                        </g>
                        <path d="M51.4493538,93.391779 C51.17189,92.5671554 50.5424742,91.9074682 49.7304706,91.5902271 C48.918467,91.2729859 48.0072873,91.3307788 47.2421128,91.7480547 L41.9749714,87.8016019 L40.7035311,91.4117292 L46.1468923,95.936095 C46.9525943,97.1994899 48.5783503,97.6621545 49.931144,97.0130337 C51.2839376,96.3639128 51.9361747,94.8081821 51.449348,93.391779 L51.4493538,93.391779 Z" id="Path" fill="#FFB8B8" fill-rule="nonzero"></path>
                        <path d="M43.8971751,94.6365558 C43.6651608,94.6365558 43.4379325,94.5707292 43.241937,94.4468868 L40.9799971,93.0210019 C39.1902769,91.8929692 38.5457817,89.4990363 39.4808498,87.4524743 L44.1177319,77.3040206 C44.495436,76.4405893 45.2731371,75.816388 46.1995634,75.6330935 C47.0376084,75.4802299 47.8969708,75.7533664 48.4918388,76.3616615 C49.4348514,77.344044 49.6227902,78.8260011 48.9547223,80.0116446 L44.3756747,88.3731431 L45.7464029,89.6456051 C46.1642279,90.0522464 46.2988606,90.6681342 46.088674,91.2113509 L45.1427399,93.730019 C45.0013166,94.1242899 44.6887936,94.4336731 44.2924513,94.5717652 C44.1650841,94.6145876 44.0315836,94.6365558 43.8971751,94.6365558 L43.8971751,94.6365558 Z" id="Path" fill="#2F2E41" fill-rule="nonzero"></path>
                        <path d="M92.3076923,160 L0.293040293,160 C0.131198608,160 0,159.77672 0,159.50129 C0,159.22586 0.131198608,159.00258 0.293040293,159.00258 L92.3076923,159.00258 C92.469534,159.00258 92.6007326,159.22586 92.6007326,159.50129 C92.6007326,159.77672 92.469534,160 92.3076923,160 Z" id="Path" fill="#CCCCCC" fill-rule="nonzero"></path>
                    </g>
                </g>
            </g>
        </g>
    </g>
</svg>