<?xml version="1.0" encoding="UTF-8"?>
<svg width="27px" height="32px" viewBox="0 0 27 32" version="1.1" xmlns="http://www.w3.org/2000/svg" xmlns:xlink="http://www.w3.org/1999/xlink">
    <title>image-file-landscape-alternate</title>
    <g id="---↳--Resources" stroke="none" stroke-width="1" fill="none" fill-rule="evenodd">
        <g id="PP-Lite---Resources---Mobile-3" transform="translate(-48.000000, -276.000000)" fill="#B5B5B5" fill-rule="nonzero">
            <g id="Documents" transform="translate(16.000000, 244.000000)">
                <g id="Group-8" transform="translate(16.000000, 16.000000)">
                    <g id="image-file-landscape-alternate" transform="translate(16.000000, 16.000000)">
                        <path d="M26.276,7.60933333 L19.0573333,0.390666667 C18.807343,0.140600834 18.4682598,0 18.1146667,0 L2.66666667,0 C1.19390733,0 0,1.19390733 0,2.66666667 L0,29.3333333 C0,30.8060927 1.19390733,32 2.66666667,32 L24,32 C25.4727593,32 26.6666667,30.8060927 26.6666667,29.3333333 L26.6666667,8.552 C26.6666667,8.19840692 26.5260658,7.85932364 26.276,7.60933333 Z M24,28.6666667 C24,29.0348565 23.7015232,29.3333333 23.3333333,29.3333333 L3.33333333,29.3333333 C2.9651435,29.3333333 2.66666667,29.0348565 2.66666667,28.6666667 L2.66666667,3.33333333 C2.66666667,2.9651435 2.9651435,2.66666667 3.33333333,2.66666667 L17.2866667,2.66666667 C17.4631366,2.66666667 17.6323926,2.73670806 17.7573333,2.86133333 L23.8053333,8.90933333 C23.9299586,9.03427405 24,9.20353006 24,9.38 L24,28.6666667 Z" id="Shape"></path>
                        <circle id="Oval" cx="9.06533333" cy="10.6666667" r="2.66666667"></circle>
                        <path d="M16.2973333,14.2373333 C16.175508,14.0424114 15.9618608,13.9239975 15.732,13.9239975 C15.5021392,13.9239975 15.288492,14.0424114 15.1666667,14.2373333 L11.932,19.4133333 C11.8706283,19.510157 11.7639689,19.5688316 11.6493333,19.5688316 C11.5346978,19.5688316 11.4280384,19.510157 11.3666667,19.4133333 L10.2146667,17.5706667 C10.0928413,17.3757447 9.87919411,17.2573308 9.64933333,17.2573308 C9.41947255,17.2573308 9.20582535,17.3757447 9.084,17.5706667 L5.384,23.4893333 C5.31941985,23.5921205 5.31582329,23.7218888 5.37461112,23.8280951 C5.43339896,23.9343015 5.54527569,24.0001525 5.66666667,24.0000003 L21.8,24.0000003 C21.921391,24.0001525 22.0332677,23.9343015 22.0920555,23.8280951 C22.1508434,23.7218888 22.1472468,23.5921205 22.0826667,23.4893333 L16.2973333,14.2373333 Z" id="Path"></path>
                    </g>
                </g>
            </g>
        </g>
    </g>
</svg>