<?xml version="1.0" encoding="UTF-8"?>
<svg width="10.1666667px" height="10.6666667px" viewBox="0 0 10.1666667 10.6666667" version="1.1" xmlns="http://www.w3.org/2000/svg" xmlns:xlink="http://www.w3.org/1999/xlink">
    <title>first-page-arrow</title>
    <defs>
        <path d="M8.76203527,10.2284278 L3.31017992,5.65226318 L3.31017992,5.65226318 C3.21850159,5.56850144 3.16666667,5.452709 3.16666667,5.33167335 C3.16666667,5.2106377 3.21850159,5.09484525 3.31017992,5.01108352 L8.76203527,0.437002002 C8.84941627,0.363088191 8.96451435,0.326104879 9.08101752,0.334506636 C9.19752068,0.342908394 9.30546839,0.395976906 9.38018325,0.481580445 L10.0608455,1.25232922 C10.2190413,1.43115439 10.1974391,1.69786039 10.0123204,1.85143016 L5.87982195,5.2531403 C5.85569402,5.27292666 5.84181662,5.30175463 5.84181662,5.33208997 C5.84181662,5.36242531 5.85569402,5.39125328 5.87982195,5.41103964 L10.0127576,8.81399964 C10.1013198,8.88787054 10.1556829,8.99208696 10.1640159,9.10396783 C10.1745004,9.21604078 10.136973,9.32739016 10.0599712,9.41268396 L9.38018325,10.1838494 C9.30560095,10.2699453 9.1975209,10.323476 9.08072684,10.3321664 C8.96407783,10.3405942 8.84890007,10.3031022 8.76203527,10.2284278 Z M0.666666667,0 C1.0348565,-6.76353751e-17 1.33333333,0.298476833 1.33333333,0.666666667 L1.33333333,10 C1.33333333,10.3681898 1.0348565,10.6666667 0.666666667,10.6666667 C0.298476833,10.6666667 6.00201762e-16,10.3681898 0,10 L0,0.666666667 C6.59320524e-17,0.298476833 0.298476833,6.76353751e-17 0.666666667,0 Z" id="path-1"></path>
    </defs>
    <g id="---↳--Document-Upload" stroke="none" stroke-width="1" fill="none" fill-rule="evenodd">
        <g id="first-page-arrow" transform="translate(-2.666667, -2.666667)">
            <g id="icon" transform="translate(2.666667, 2.666667)">
                <mask id="mask-2" fill="white">
                    <use xlink:href="#path-1"></use>
                </mask>
                <use id="Combined-Shape" fill="#000000" fill-rule="nonzero" xlink:href="#path-1"></use>
                <g id="color" mask="url(#mask-2)" fill="#595959">
                    <g transform="translate(-2.666667, -2.666667)" id="Rectangle">
                        <rect x="0" y="0" width="16" height="16"></rect>
                    </g>
                </g>
            </g>
            <rect id="container" x="0" y="0" width="16" height="16"></rect>
        </g>
    </g>
</svg>