<?xml version="1.0" encoding="UTF-8"?>
<svg width="103px" height="32px" viewBox="0 0 103 32" version="1.1" xmlns="http://www.w3.org/2000/svg" xmlns:xlink="http://www.w3.org/1999/xlink">
    <title>Group 5</title>
    <defs>
        <path d="M73.8860994,22.9586641 C73.7669079,22.8734833 73.6816402,22.7289271 73.6816402,22.5590221 C73.6816402,22.2870372 73.9032904,22.0746561 74.1762847,22.0746561 C74.3213774,22.0746561 74.4151261,22.116904 74.4836612,22.1678298 C74.9783057,22.5590221 75.5073324,22.7800812 76.1557798,22.7800812 C76.8042272,22.7800812 77.2138333,22.4738413 77.2138333,22.0321799 L77.2138333,22.014824 C77.2138333,21.5898333 76.9749919,21.3603246 75.8658237,21.1054673 C74.5943717,20.7994557 73.8776184,20.4253908 73.8776184,19.3290016 L73.8776184,19.3116458 C73.8776184,18.2917595 74.7309834,17.586106 75.9169385,17.586106 C76.6678447,17.586106 77.2736582,17.781588 77.8109367,18.1387537 C77.9305865,18.206807 78.0415263,18.3511349 78.0415263,18.5552948 C78.0415263,18.8270513 77.8194176,19.0396609 77.5466525,19.0396609 C77.4441937,19.0396609 77.358926,19.0143122 77.2736582,18.9633863 C76.8129374,18.665596 76.3689492,18.5125902 75.8997474,18.5125902 C75.2856822,18.5125902 74.9271909,18.8270513 74.9271909,19.2180154 L74.9271909,19.2351429 C74.9271909,19.6943886 75.2001852,19.8985485 76.3519873,20.1703051 C77.6149584,20.4763166 78.2634058,20.9268844 78.2634058,21.9129724 L78.2634058,21.9298715 C78.2634058,23.0433882 77.384598,23.7067939 76.1301078,23.7067939 C75.3196059,23.7067939 74.5517378,23.4514797 73.8860994,22.9586641 Z M67.9382162,23.0945424 L67.9382162,18.1981291 C67.9382162,17.9007955 68.1685766,17.6712868 68.4674721,17.6712868 L71.9398403,17.6712868 C72.1958727,17.6712868 72.4092713,17.883668 72.4092713,18.1387537 C72.4092713,18.402289 72.1958727,18.606449 71.9398403,18.606449 L68.9877887,18.606449 L68.9877887,20.1534059 L71.5559063,20.1534059 C71.8119387,20.1534059 72.0253373,20.3660154 72.0253373,20.6295508 C72.0253373,20.8844082 71.8119387,21.0885681 71.5559063,21.0885681 L68.9877887,21.0885681 L68.9877887,22.6864508 L71.9827034,22.6864508 C72.2385066,22.6864508 72.4519052,22.8990604 72.4519052,23.1541461 C72.4519052,23.4176814 72.2385066,23.621613 71.9827034,23.621613 L68.4674721,23.621613 C68.1685766,23.621613 67.9382162,23.3921044 67.9382162,23.0945424 Z M64.9089194,18.1472033 C64.9089194,17.8580909 65.1392798,17.6285822 65.4379461,17.6285822 C65.7281315,17.6285822 65.9582627,17.8580909 65.9582627,18.1472033 L65.9582627,23.1454682 C65.9582627,23.4345806 65.7281315,23.6640893 65.4379461,23.6640893 C65.1392798,23.6640893 64.9089194,23.4345806 64.9089194,23.1454682 L64.9089194,18.1472033 Z M57.5101094,20.6631207 L57.5101094,20.6462215 C57.5101094,18.9802855 58.7900423,17.5692068 60.5902918,17.5692068 C61.4862907,17.5692068 62.0833941,17.781588 62.6296119,18.172552 C62.7318415,18.2492833 62.8430104,18.3938395 62.8430104,18.5975427 C62.8430104,18.8782055 62.6124208,19.1161638 62.3224647,19.1161638 C62.1858529,19.1161638 62.0833941,19.05656 61.9981264,18.9969563 C61.6141923,18.7167502 61.1961053,18.5297177 60.547658,18.5297177 C59.4469706,18.5297177 58.6107967,19.490457 58.6107967,20.6295508 L58.6107967,20.6462215 C58.6107967,21.8704961 59.4212986,22.7716317 60.6414066,22.7716317 C61.2045863,22.7716317 61.7166511,22.5932772 62.0833941,22.3208355 L62.0833941,21.2073189 L60.90592,21.2073189 C60.6501168,21.2073189 60.4367182,21.0118368 60.4367182,20.7569795 C60.4367182,20.5016653 60.6501168,20.2977338 60.90592,20.2977338 L62.5697869,20.2977338 C62.8684532,20.2977338 63.0988137,20.5274708 63.0988137,20.8248044 L63.0988137,22.4144659 C63.0988137,22.7120279 62.9791638,22.9246374 62.7318415,23.0776432 C62.2200058,23.4176814 61.5032526,23.723693 60.6074829,23.723693 C58.7386983,23.723693 57.5101094,22.3975668 57.5101094,20.6631207 Z M55.0176326,20.6631207 L55.0176326,20.6462215 C55.0176326,19.490457 54.1727485,18.5297177 52.9870226,18.5297177 C51.8008384,18.5297177 50.9731454,19.4731011 50.9731454,20.6295508 L50.9731454,20.6462215 C50.9731454,21.8024428 51.8180295,22.7547325 53.0039845,22.7547325 C54.1899396,22.7547325 55.0176326,21.8195703 55.0176326,20.6631207 Z M49.8726873,20.6631207 L49.8726873,20.6462215 C49.8726873,18.9718359 51.1695821,17.5692068 53.0039845,17.5692068 C54.8383869,17.5692068 56.1183199,18.9547084 56.1183199,20.6295508 L56.1183199,20.6462215 C56.1183199,22.3208355 54.8214251,23.723693 52.9870226,23.723693 C51.152391,23.723693 49.8726873,22.3379631 49.8726873,20.6631207 Z M44.8123221,18.1472033 C44.8123221,17.8580909 45.0422241,17.6285822 45.3411196,17.6285822 C45.631305,17.6285822 45.8616654,17.8580909 45.8616654,18.1472033 L45.8616654,22.6695517 L48.5661655,22.6695517 C48.8306789,22.6695517 49.0440774,22.8819329 49.0440774,23.1454682 C49.0440774,23.4090035 48.8306789,23.621613 48.5661655,23.621613 L45.3411196,23.621613 C45.0422241,23.621613 44.8123221,23.3921044 44.8123221,23.0945424 L44.8123221,18.1472033 Z M42.0548735,20.6631207 L42.0548735,20.6462215 C42.0548735,19.490457 41.2104478,18.5297177 40.0242636,18.5297177 C38.8383085,18.5297177 38.0106155,19.4731011 38.0106155,20.6295508 L38.0106155,20.6462215 C38.0106155,21.8024428 38.8552704,22.7547325 40.0414546,22.7547325 C41.2274097,22.7547325 42.0548735,21.8195703 42.0548735,20.6631207 Z M36.9099282,20.6631207 L36.9099282,20.6462215 C36.9099282,18.9718359 38.206823,17.5692068 40.0414546,17.5692068 C41.8758571,17.5692068 43.15579,18.9547084 43.15579,20.6295508 L43.15579,20.6462215 C43.15579,22.3208355 41.8588952,23.723693 40.0242636,23.723693 C38.1898611,23.723693 36.9099282,22.3379631 36.9099282,20.6631207 Z M30.0488551,18.1641024 C30.0488551,17.8752184 30.2792155,17.6370318 30.578111,17.6370318 L30.6888216,17.6370318 C30.944854,17.6370318 31.0897175,17.7644605 31.2350393,17.9430433 L34.2212439,21.7939933 L34.2212439,18.1387537 C34.2212439,17.8580909 34.4516043,17.6285822 34.7333087,17.6285822 C35.0232649,17.6285822 35.2536253,17.8580909 35.2536253,18.1387537 L35.2536253,23.1370186 C35.2536253,23.426131 35.031975,23.6556397 34.7417897,23.6556397 L34.6989266,23.6556397 C34.4516043,23.6556397 34.2980307,23.528211 34.152938,23.3411786 L31.0812365,19.3796991 L31.0812365,23.1541461 C31.0812365,23.4345806 30.8508761,23.6640893 30.5694009,23.6640893 C30.2792155,23.6640893 30.0488551,23.4345806 30.0488551,23.1541461 L30.0488551,18.1641024 Z M23.1793011,18.1472033 C23.1793011,17.8580909 23.4094323,17.6285822 23.7083278,17.6285822 C23.9985131,17.6285822 24.2288736,17.8580909 24.2288736,18.1472033 L24.2288736,20.144728 L27.0784663,20.144728 L27.0784663,18.1472033 C27.0784663,17.8580909 27.3088268,17.6285822 27.5990121,17.6285822 C27.8976784,17.6285822 28.1278096,17.8580909 28.1278096,18.1472033 L28.1278096,23.1454682 C28.1278096,23.4345806 27.8976784,23.6640893 27.5990121,23.6640893 C27.3088268,23.6640893 27.0784663,23.4345806 27.0784663,23.1454682 L27.0784663,21.1139168 L24.2288736,21.1139168 L24.2288736,23.1454682 C24.2288736,23.4345806 23.9985131,23.6640893 23.7083278,23.6640893 C23.4094323,23.6640893 23.1793011,23.4345806 23.1793011,23.1454682 L23.1793011,18.1472033 Z M16.2329602,20.6631207 L16.2329602,20.6462215 C16.2329602,18.9547084 17.504183,17.5692068 19.3131426,17.5692068 C20.2345843,17.5692068 20.8403978,17.8411917 21.3609436,18.2408337 C21.4716541,18.3255578 21.5658612,18.470114 21.5658612,18.6571464 C21.5658612,18.9462588 21.3352716,19.1673179 21.0453155,19.1673179 C20.8999936,19.1673179 20.797764,19.1161638 20.7294581,19.065238 C20.3200813,18.7336493 19.8760931,18.5297177 19.3046617,18.5297177 C18.1698215,18.5297177 17.3336475,19.4646515 17.3336475,20.6295508 L17.3336475,20.6462215 C17.3336475,21.8111208 18.1613405,22.7547325 19.3046617,22.7547325 C19.935918,22.7547325 20.3627151,22.5505726 20.797764,22.1849573 C20.8745508,22.116904 20.9852613,22.0659782 21.1133921,22.0659782 C21.3779055,22.0659782 21.6082659,22.2870372 21.6082659,22.5505726 C21.6082659,22.7120279 21.5314791,22.8394566 21.4377304,22.9246374 C20.8745508,23.4176814 20.2345843,23.723693 19.2705088,23.723693 C17.529855,23.723693 16.2329602,22.3719897 16.2329602,20.6631207 Z M10.3960168,23.0945424 L10.3960168,18.1981291 C10.3960168,17.9007955 10.626148,17.6712868 10.9248143,17.6712868 L14.3976409,17.6712868 C14.6534441,17.6712868 14.8666135,17.883668 14.8666135,18.1387537 C14.8666135,18.402289 14.6534441,18.606449 14.3976409,18.606449 L11.4453601,18.606449 L11.4453601,20.1534059 L14.0134777,20.1534059 C14.2695101,20.1534059 14.4829086,20.3660154 14.4829086,20.6295508 C14.4829086,20.8844082 14.2695101,21.0885681 14.0134777,21.0885681 L11.4453601,21.0885681 L11.4453601,22.6864508 L14.4400456,22.6864508 C14.696078,22.6864508 14.9094766,22.8990604 14.9094766,23.1541461 C14.9094766,23.4176814 14.696078,23.621613 14.4400456,23.621613 L10.9248143,23.621613 C10.626148,23.621613 10.3960168,23.3921044 10.3960168,23.0945424 Z M5.94948764,18.6400189 L4.49901924,18.6400189 C4.22602495,18.6400189 4.01285561,18.4191882 4.01285561,18.1556529 C4.01285561,17.8923459 4.22602495,17.6712868 4.49901924,17.6712868 L8.46671963,17.6712868 C8.73100377,17.6712868 8.94440233,17.8923459 8.94440233,18.1556529 C8.94440233,18.4191882 8.73100377,18.6400189 8.46671963,18.6400189 L7.00754108,18.6400189 L7.00754108,23.1454682 C7.00754108,23.4345806 6.76847051,23.6640893 6.47851436,23.6640893 C6.18855821,23.6640893 5.94948764,23.4345806 5.94948764,23.1454682 L5.94948764,18.6400189 L5.94948764,18.6400189 Z M36.5470819,10.6410138 L35.9976551,9.59577882 C35.8023645,9.22422599 35.3418728,9.08081161 34.9689411,9.27538016 C34.5960093,9.4699487 34.4520627,9.92896604 34.6475826,10.3002905 L35.1264114,11.2112458 L35.1197641,11.2137578 C34.8467698,11.276102 34.5650654,11.3174364 34.2760261,11.3322802 C31.5621282,11.474096 29.2385824,9.38979194 29.0962403,6.68592863 C28.9538981,3.98206532 31.0461667,1.66711072 33.7600646,1.52529492 C36.4739625,1.38370748 38.7972792,3.46801157 38.9396213,6.17187489 C39.0384126,8.04768006 38.0608134,9.73531096 36.5470819,10.6410138 Z M33.6800688,0.00893914032 C30.1270172,0.194373009 27.3879057,3.22548599 27.5740278,6.76540029 C27.760379,10.3053146 30.8025119,13.0345266 34.3557927,12.8490927 C34.8722126,12.8219171 35.3707538,12.7333108 35.8463736,12.5930935 L35.8516456,12.5910382 L36.3352878,13.5113566 C36.5305785,13.882681 36.9910701,14.0260954 37.3640018,13.8315269 C37.7367044,13.6371867 37.880651,13.1781693 37.6855896,12.8066165 L37.2546666,11.9872363 C39.2788585,10.8127457 40.5924859,8.57886131 40.4618338,6.09240323 C40.2757117,2.55226057 37.2333496,-0.176723096 33.6800688,0.00893914032 L33.6800688,0.00893914032 Z M23.7679235,12.8216887 C23.347086,12.8216887 23.0057858,12.4818789 23.0057858,12.0625974 L23.0057858,0.795206149 C23.0057858,0.375924642 23.347086,0.0361147936 23.7679235,0.0361147936 C24.188761,0.0361147936 24.5300612,0.375924642 24.5300612,0.795206149 L24.5300612,12.0625974 C24.5300612,12.4818789 24.188761,12.8216887 23.7679235,12.8216887 M59.9558265,12.8216887 C59.5347597,12.8216887 59.1936888,12.4818789 59.1936888,12.0625974 L59.1936888,0.795206149 C59.1936888,0.375924642 59.5347597,0.0361147936 59.9558265,0.0361147936 C60.376664,0.0361147936 60.717735,0.375924642 60.717735,0.795206149 L60.717735,12.0625974 C60.717735,12.4818789 60.376664,12.8216887 59.9558265,12.8216887 M49.0984012,12.8216887 C49.0972551,12.8216887 49.0963383,12.8216887 49.0954214,12.8216887 C48.8130294,12.8207753 48.5542464,12.6641156 48.4231357,12.414739 L42.5018415,1.14757617 C42.3065508,0.776023335 42.4507267,0.317234366 42.8236584,0.122665824 C43.1965902,-0.0719027189 43.6568526,0.0717400196 43.8521432,0.443064491 L49.1048192,10.4377673 L54.4604125,0.437812054 C54.6586829,0.0678577835 55.1205498,-0.071674352 55.4914186,0.125406226 C55.8627459,0.322943537 56.0032543,0.78287434 55.8052131,1.15282861 L49.7706869,12.4199915 C49.638201,12.6675411 49.3796472,12.8216887 49.0984012,12.8216887 M71.4782026,0.0361147936 C71.7608239,0.0372566277 72.0196069,0.193916276 72.1504883,0.443064491 L78.0720118,11.7104557 C78.2673024,12.0817802 78.1233558,12.5407975 77.7504241,12.7353661 C77.6376506,12.7940563 77.5163962,12.8219171 77.397434,12.8219171 C77.1228352,12.8219171 76.8576342,12.6739354 76.7214809,12.414739 L71.469034,2.42026454 L66.1134408,12.4199915 C65.9151704,12.7901741 65.4533035,12.9299346 65.0822054,12.7323973 C64.7108782,12.5353167 64.570599,12.0751575 64.7686402,11.7052033 L70.8029371,0.437812054 C70.9358815,0.189577306 71.1951229,0.027208487 71.4782026,0.0361147936 Z M73.2724925,8.74716767 C73.6933301,8.74716767 74.0346303,9.08720589 74.0346303,9.50648739 C74.0346303,9.9257689 73.6933301,10.2658071 73.2724925,10.2658071 L69.5991034,10.2658071 C69.1782658,10.2658071 68.8369657,9.9257689 68.8369657,9.50648739 C68.8369657,9.08720589 69.1782658,8.74716767 69.5991034,8.74716767 L73.2724925,8.74716767 Z M13.6412336,10.7081537 L4.31518934,10.7081537 C3.95853181,10.7081537 3.66651273,10.999093 3.66651273,11.3546602 C3.66651273,11.709999 3.95853181,12.0009383 4.31518934,12.0009383 L13.6412336,12.0009383 C13.9981203,12.0009383 14.2899102,11.709999 14.2899102,11.3546602 C14.2899102,10.999093 13.9981203,10.7081537 13.6412336,10.7081537 M15.8799701,12.0009383 C15.5230834,12.0009383 15.2310643,11.709999 15.2310643,11.3546602 C15.2310643,10.999093 15.5230834,10.708382 15.8799701,10.708382 L18.5863039,10.708382 C18.9431907,10.708382 19.2352097,10.999093 19.2352097,11.3546602 C19.2352097,11.709999 18.9431907,12.0009383 18.5863039,12.0009383 L15.8799701,12.0009383 M17.1468378,9.53754528 C16.7901803,9.53754528 16.4981612,9.24660594 16.4981612,8.89126714 C16.4981612,8.53569998 16.7901803,8.24476064 17.1468378,8.24476064 L18.5863039,8.24476064 C18.9431907,8.24476064 19.2352097,8.53569998 19.2352097,8.89126714 C19.2352097,9.24660594 18.9431907,9.53754528 18.5863039,9.53754528 L17.1468378,9.53754528 M17.5103718,7.07415225 C17.1537142,7.07415225 16.8614659,6.7832129 16.8614659,6.42764574 C16.8614659,6.07230695 17.1537142,5.7813676 17.5103718,5.7813676 L18.5863039,5.7813676 C18.9431907,5.7813676 19.2352097,6.07230695 19.2352097,6.42764574 C19.2352097,6.7832129 18.9431907,7.07415225 18.5863039,7.07415225 L17.5103718,7.07415225 M17.1686132,4.61053084 C16.8117264,4.61053084 16.5199366,4.31981986 16.5199366,3.9642527 C16.5199366,3.60868554 16.8117264,3.31797456 17.1686132,3.31797456 L18.5863039,3.31797456 C18.9431907,3.31797456 19.2352097,3.60868554 19.2352097,3.9642527 C19.2352097,4.31981986 18.9431907,4.61053084 18.5863039,4.61053084 L17.1686132,4.61053084 M15.936586,2.14713781 C15.5799285,2.14713781 15.2879094,1.85619846 15.2879094,1.50085967 C15.2879094,1.14529251 15.5799285,0.854581526 15.936586,0.854581526 L18.5863039,0.854581526 C18.9431907,0.854581526 19.2352097,1.14529251 19.2352097,1.50085967 C19.2352097,1.85619846 18.9431907,2.14713781 18.5863039,2.14713781 L15.936586,2.14713781 M14.9083305,8.24476064 L2.48972626,8.24476064 C2.13283952,8.24476064 1.84104965,8.53569998 1.84104965,8.89126714 C1.84104965,9.24660594 2.13283952,9.53754528 2.48972626,9.53754528 L14.9083305,9.53754528 C15.264988,9.53754528 15.5570071,9.24660594 15.5570071,8.89126714 C15.5570071,8.53569998 15.264988,8.24476064 14.9083305,8.24476064 M15.2718644,5.7813676 L0.648676608,5.7813676 C0.292019081,5.7813676 -1.17506005e-12,6.07230695 -1.17506005e-12,6.42764574 C-1.17506005e-12,6.7832129 0.292019081,7.07415225 0.648676608,7.07415225 L15.2718644,7.07415225 C15.628522,7.07415225 15.920541,6.7832129 15.920541,6.42764574 C15.920541,6.07230695 15.628522,5.7813676 15.2718644,5.7813676 M14.9301058,3.31797456 L1.56920143,3.31797456 C1.21231469,3.31797456 0.920524826,3.60868554 0.920524826,3.9642527 C0.920524826,4.31981986 1.21231469,4.61053084 1.56920143,4.61053084 L14.9301058,4.61053084 C15.2867634,4.61053084 15.5787824,4.31981986 15.5787824,3.9642527 C15.5787824,3.60868554 15.2867634,3.31797456 14.9301058,3.31797456 M13.6980787,0.854581526 L6.2667203,0.854581526 C5.91006278,0.854581526 5.6180437,1.14529251 5.6180437,1.50085967 C5.6180437,1.85619846 5.91006278,2.14713781 6.2667203,2.14713781 L13.6980787,2.14713781 C14.0547362,2.14713781 14.3467553,1.85619846 14.3467553,1.50085967 C14.3467553,1.14529251 14.0547362,0.854581526 13.6980787,0.854581526" id="path-1"></path>
    </defs>
    <g id="---↳--Cookies" stroke="none" stroke-width="1" fill="none" fill-rule="evenodd">
        <g id="[UPDATED]-PP-Revamp---Cookies---Desktop-3-Copy" transform="translate(-1060.000000, -743.000000)">
            <g id="Login" transform="translate(904.000000, 76.000000)">
                <g id="Group" transform="translate(156.000000, 667.000000)">
                    <rect id="Rectangle" x="0" y="0" width="103" height="32"></rect>
                    <g id="footer/ui/logo" transform="translate(12.000000, 4.000000)">
                        <mask id="mask-2" fill="white">
                            <use xlink:href="#path-1"></use>
                        </mask>
                        <use id="Mask" fill="#10558A" xlink:href="#path-1"></use>
                        <g id="color/5-#B5B5B5" mask="url(#mask-2)" fill="#10558A">
                            <g transform="translate(-0.993078, -2.952381)" id="Rectangle">
                                <rect x="0" y="0" width="76.0856807" height="27.6675203"></rect>
                            </g>
                        </g>
                    </g>
                </g>
            </g>
        </g>
    </g>
</svg>