<?xml version="1.0" encoding="UTF-8"?>
<svg width="42px" height="40px" viewBox="0 0 42 40" version="1.1" xmlns="http://www.w3.org/2000/svg" xmlns:xlink="http://www.w3.org/1999/xlink">
    <title>Shape</title>
    <g id="---↳--Results" stroke="none" stroke-width="1" fill="none" fill-rule="evenodd">
        <g id="Past-Visits---Desktop-5" transform="translate(-1100.000000, -625.000000)" fill="#999999" fill-rule="nonzero">
            <path d="M1130.32137,625 C1126.34881,625 1122.83555,627.100502 1120.81465,630.20004 C1118.79376,627.100502 1115.2805,625 1111.30794,625 L1111.2081,625 C1105.00323,625.059086 1100.00337,630.100243 1100,636.300675 C1100,640.000166 1101.62151,645.249426 1104.78331,649.568825 C1110.80738,657.799228 1120.81465,665 1120.81465,665 C1120.81465,665 1130.82193,657.800559 1136.84467,649.568825 C1140.0078,645.249426 1141.62798,640.000166 1141.62798,636.300675 C1141.62462,630.100756 1136.62556,625.05981 1130.42121,625 L1130.32137,625 Z M1128.99274,650.202035 C1128.0667,650.198513 1127.23801,649.626742 1126.90662,648.762679 L1124.5316,648.762679 C1124.21099,648.760686 1123.92701,648.555481 1123.82469,648.251854 L1123.09515,646.055572 L1120.7867,654.115701 C1120.69436,654.434419 1120.40252,654.653944 1120.07047,654.654461 L1120.02387,654.654461 C1119.67628,654.637673 1119.38773,654.380392 1119.3316,654.037214 L1116.95259,639.739433 L1115.21393,648.199973 C1115.1319,648.530706 1114.83471,648.762899 1114.49371,648.762679 L1111.14819,648.762679 C1110.87505,648.774231 1110.61756,648.635204 1110.47754,648.400576 C1110.33753,648.165947 1110.33753,647.873496 1110.47754,647.638867 C1110.61756,647.404238 1110.87505,647.265212 1111.14819,647.276763 L1113.90794,647.276763 L1116.37082,635.901593 C1116.4542,635.554756 1116.77156,635.31537 1117.12822,635.330274 C1117.48488,635.345177 1117.78113,635.610203 1117.83524,635.962786 L1120.26483,650.547906 L1122.33365,643.336493 C1122.42212,643.024566 1122.70548,642.808014 1123.02991,642.804383 L1123.04456,642.804383 C1123.36549,642.804485 1123.65006,643.010513 1123.75014,643.315208 L1125.06944,647.280754 L1126.87733,647.280754 C1127.23403,646.197875 1128.3508,645.558325 1129.46616,645.798186 C1130.58152,646.038047 1131.33612,647.080041 1131.21543,648.213675 C1131.09473,649.347308 1130.13763,650.207343 1128.99674,650.207356 L1128.99274,650.202035 Z" id="Shape"></path>
        </g>
    </g>
</svg>