<?xml version="1.0" encoding="UTF-8"?>
<svg width="300px" height="205px" viewBox="0 0 300 205" version="1.1" xmlns="http://www.w3.org/2000/svg" xmlns:xlink="http://www.w3.org/1999/xlink">
    <title>Group 42</title>
    <g id="----------↳--Home-with-Events" stroke="none" stroke-width="1" fill="none" fill-rule="evenodd">
        <g id="Home-Events---Desktop-1" transform="translate(0.000000, -81.000000)" fill-rule="nonzero">
            <g id="Group-42" transform="translate(0.000000, 81.000000)">
                <path d="M0,75.8745789 L0,104.327546 L63.4361233,104.327546 L63.4361233,75.8745789 L0,75.8745789 Z M0,105.908266 L0,132.080196 C0.362910233,132.135272 0.719967075,132.190347 1.07995061,132.236611 C1.56285536,132.307108 2.0486868,132.370995 2.54329832,132.426071 L2.83596787,132.456913 C3.02912977,132.481147 3.22521836,132.500974 3.42130695,132.518598 C3.91006509,132.571471 4.39882322,132.611125 4.88465467,132.646373 C5.11293691,132.663998 5.34999924,132.677216 5.58120818,132.692637 L6.14606039,132.723479 L6.14606039,132.723479 C6.45336341,132.741103 6.75773974,132.754322 7.06211606,132.763134 C7.24942457,132.763134 7.43673308,132.774149 7.62696828,132.778555 C7.81720348,132.782961 7.91963782,132.778555 8.07182598,132.778555 L8.62497142,132.778555 C8.87666723,132.778555 9.12836303,132.778555 9.37713214,132.778555 L9.69906864,132.778555 C9.95076445,132.778555 10.2024603,132.778555 10.4512294,132.760931 L10.4658628,132.760931 C10.6414646,132.760931 10.8141396,132.760931 10.9897413,132.745509 C11.0394529,132.747692 11.0892912,132.747692 11.1390028,132.745509 C11.2853376,132.745509 11.4316723,132.745509 11.5721537,132.732291 C11.6052679,132.730257 11.6385472,132.730257 11.6716614,132.732291 C11.9965245,132.71687 12.3243144,132.697043 12.655031,132.675013 C12.9857476,132.652982 13.298904,132.626546 13.6296206,132.60011 L14.2939805,132.538425 C17.0087714,132.252326 19.6933632,131.822403 22.3277594,131.251859 C28.2484642,130.009353 34.0345411,128.271167 39.9523193,127.000022 C47.5968477,125.358769 56.0491441,124.550259 63.4361233,126.548402 L63.4361233,105.908266 L0,105.908266 Z M63.4361233,41.8497634 L63.4361233,0.003830268 C56.4917074,-0.0554920021 49.5659963,0.574482189 42.827285,1.87844445 C26.7633949,5.01189047 12.3383787,11.808219 0,20.4882507 L0,41.8474911 L3.1928774,41.8474911 L3.1928774,42.817746 L0,42.817746 L0,75.8745789 L63.4361233,75.8745789 L63.4361233,42.817746 L16.2541165,42.817746 L16.2541165,41.8452189 L63.4361233,41.8497634 Z M150.655833,27.1212974 C146.420453,27.0134503 142.210023,26.0495669 138.398804,24.5554353 C131.119438,21.7042278 125.299688,17.2959778 118.800032,13.5797466 C105.295467,5.83497717 88.5473122,1.15935627 71.3656388,0 L71.3656388,41.0987302 L167.865576,41.0987302 L168.105727,40.9167383 L150.655833,27.1212974 Z M160.176211,25.6859435 L169.69163,33.1951283 L169.69163,23.7108059 C166.48905,24.0014693 163.700323,24.6766322 160.176211,25.6767888 L160.176211,25.6859435 Z M169.401332,140.409866 L169.401332,106.346973 L149.716693,106.346973 C149.667281,106.202268 149.611692,106.055267 149.549927,105.908266 C149.608604,106.055267 149.661104,106.202268 149.713605,106.346973 L72.9515419,106.346973 L72.9515419,130.978832 C73.6803738,131.380788 74.3999409,131.805713 75.1133315,132.232934 L75.1133315,132.232934 C75.8833404,132.7015 76.6482022,133.175425 77.4079169,133.65471 L78.1738081,134.125572 C78.5413123,134.355262 78.9149931,134.584951 79.2855856,134.803155 C80.0288295,135.248752 80.7772205,135.689755 81.5307586,136.126165 C81.9075277,136.346666 82.2863556,136.563339 82.6672423,136.776185 C88.6992947,140.204881 95.0617751,143.29946 101.703345,146.034952 C103.191891,146.652816 104.695879,147.247711 106.209132,147.828824 C107.215908,148.214702 108.229891,148.592923 109.251079,148.963488 C110.782861,149.519336 112.326997,150.055277 113.883485,150.571312 C113.883485,150.571312 113.883485,150.571312 113.883485,150.571312 C128.233381,155.36214 143.40765,158.648939 158.972241,160.337693 C162.426987,160.715914 165.897174,161.01451 169.382803,161.23348 L169.382803,140.405272 L169.69163,140.405272 L169.401332,140.409866 Z M72.9515419,42.6794506 L72.9515419,74.2938585 L169.69163,74.2938585 L169.69163,42.6794506 L72.9515419,42.6794506 Z M72.9515419,75.8745789 L72.9515419,104.327546 L169.69163,104.327546 L169.69163,75.8786921 L72.9515419,75.8745789 Z M174.449339,23.7108059 L174.449339,34.7758487 L187.136564,24.769513 C182.931883,24.2708293 178.702808,23.9179269 174.449339,23.7108059 Z M179.207048,75.8745789 L179.207048,104.327546 L272.77533,104.327546 L272.77533,75.8745789 L179.207048,75.8745789 Z M272.445724,142.464654 L272.77533,105.908266 L179.207048,105.908266 L179.207048,161.125006 C185.23401,161.311747 191.270079,161.257348 197.289215,160.962044 L197.289215,160.962044 L197.39395,160.962044 C200.269025,160.824329 203.130751,160.628468 205.979129,160.374461 L206.043818,160.374461 C221.244347,159.056099 236.106851,156.097951 250.164921,151.592849 M285.949365,80.5461151 C285.61353,79.9975713 285.268961,79.4490275 284.915655,78.9004837 C284.257576,77.871964 283.564554,76.8722429 282.848237,75.8745789 L275.947137,75.8745789 L275.947137,104.327546 L293.39207,104.327546 C293.377511,96.2680662 290.488949,88.0399091 285.949365,80.5461151 L285.949365,80.5461151 Z M275.947137,107.491063 L275.947137,135.941954 C280.862721,132.583918 285.020717,128.739933 288.010278,124.34562 C291.608824,119.052093 293.255122,113.324534 293.39207,107.488987 L275.947137,107.491063 Z M275.947137,66.3902565 L275.947137,75.8745789 L285.462555,75.8745789 C282.578089,72.6142579 279.401723,69.4482716 275.947137,66.3902565 L275.947137,66.3902565 Z M213.4882,27.8288097 C213.01957,27.6829339 212.547974,27.537058 212.076379,27.3983564 C207.103958,25.9166655 202.02232,24.6851167 196.860744,23.7108059 L179.545174,39.0301627 L179.545174,39.0301627 L179.207048,39.3243058 L179.429499,39.5180098 L241.057269,39.5180098 C232.473623,34.7557852 223.219185,30.831932 213.4882,27.8288097 L213.4882,27.8288097 Z M247.300114,42.6794506 L180.519315,42.6794506 L179.207048,43.5247905 L179.207048,74.2938585 L190.712482,74.2938585 L190.712482,74.2938585 L272.77533,74.2938585 L272.77533,59.3863222 C265.355014,53.0559246 256.790299,47.4391088 247.300114,42.6794506 Z" id="Shape" fill-opacity="0.5" fill="#00BFB3" opacity="0.245595006" transform="translate(146.696035, 80.616740) scale(1, -1) translate(-146.696035, -80.616740) "></path>
                <g id="Group-40" transform="translate(19.823789, 169.162996)" fill="#3F3D56">
                    <path d="M279.982004,15.8590308 C200.745081,-2.04077739 128.895353,-1.08722959 82.5739952,2.86487418 C32.3906065,7.14639188 0.546646666,15.7679832 0.230976422,15.854546 L0,15.4257645 C0.316609892,15.3389767 32.2355067,6.69697959 82.4976295,2.40872195 C112.062848,-0.110661527 141.893065,-0.655203412 171.600119,0.782182089 C208.479114,2.56350688 244.928666,7.47792801 280.176211,15.421282 L279.982004,15.8590308 Z" id="Path"></path>
                </g>
                <g id="Group-39" transform="translate(174.449339, 109.691630) scale(-1, 1) translate(-174.449339, -109.691630) translate(151.982379, 40.969163)">
                    <polygon id="Path" fill="#A0616A" points="11.2339644 134.24854 14.4959065 134.24854 16.0478288 119.864768 11.2334802 119.865045"></polygon>
                    <path d="M11.2334802,132.650637 L18.0943846,132.650343 L18.0946613,132.650343 C20.5093349,132.65048 22.4667933,134.729246 22.4669604,137.293602 L22.4669604,137.444492 L11.2337,137.444934 L11.2334802,132.650637 Z" id="Path" fill="#2F2E41"></path>
                    <polygon id="Path" fill="#A0616A" points="35.3057076 134.24854 38.5676498 134.24854 40.1195721 119.864768 35.3052234 119.865045"></polygon>
                    <path d="M33.7004405,132.650637 L40.561345,132.650343 L40.5616217,132.650343 C42.9762953,132.65048 44.9337536,134.729246 44.9339207,137.293602 L44.9339207,137.444492 L33.7006603,137.444934 L33.7004405,132.650637 Z" id="Path" fill="#2F2E41"></path>
                    <polygon id="Path" fill="#555377" points="8.02391441 131.052146 17.2229072 131.052146 23.1024502 80.6697543 33.9126702 131.052146 40.1195721 131.052146 40.1195721 70.9728662 10.6087837 62.3296793"></polygon>
                    <ellipse id="Oval" fill="#C9A0A0" cx="24.0717432" cy="9.58918144" rx="8.02391441" ry="7.99098453"></ellipse>
                    <path d="M10.8597915,63.0343244 C19.5854209,69.604538 29.2168783,72.9162559 40.1195721,71.6540695 C35.5148919,56.0875852 34.1490831,40.6389931 38.5910777,25.4017879 L29.4201036,21.407271 L19.1112659,20.7765598 L11.6187537,22.8983012 C9.45218179,23.5125253 7.98033473,25.4465648 8.02489929,27.6207054 C8.28943529,40.6152618 7.39213326,52.776356 10.8597915,63.0343244 Z" id="Path" fill="#E6E6E6"></path>
                    <path d="M16.6994191,5.83545448 C17.4400954,4.32688828 18.3811722,1.32032908 19.8760931,0.762727216 C20.706291,0.465556813 21.56434,0.268228926 22.4346506,0.174328756 L24.9756331,1.22935925 L23.5927089,0.0682418871 C23.8619551,0.0509239226 24.131053,0.0367662636 24.4000024,0.0257689101 L26.1144545,0.737602241 L25.2373237,0.00113818797 C26.8356662,-0.0165702636 28.4855069,0.16284079 29.7239708,1.21323732 C30.7798216,2.10869788 31.8258858,5.50089172 31.9950418,6.93876883 C32.175848,8.31430915 32.1125555,9.71442635 31.8085409,11.0644257 L31.3743681,11.510108 C31.222478,11.1341671 31.1082801,10.741763 31.0337238,10.3395944 C30.7189992,8.82023076 29.8269373,7.51376944 28.5756562,6.7396532 L28.5520179,6.7252598 C27.8238045,6.2828325 26.9402134,6.30323067 26.1051206,6.33567659 L22.139057,6.48973875 C21.1848571,6.52681045 20.157357,6.59198629 19.4134657,7.23813041 C18.9110062,7.67449287 18.6099539,8.31865999 18.3236942,8.94238251 C17.9540567,9.74778254 17.2317042,12.7855752 17.2317042,12.7855752 C17.2317042,12.7855752 16.8230288,12.2121464 16.627151,12.6389378 C16.3130243,11.5254088 16.1220425,10.3756685 16.0581881,9.21369182 C15.9956973,8.04653982 16.2167389,6.88201264 16.6994191,5.83545448 L16.6994191,5.83545448 Z" id="Path" fill="#2F2E41"></path>
                    <path d="M16.0476624,69.0447599 C16.0440482,68.2081497 15.6951493,67.4162265 15.0948481,66.8820826 C14.494547,66.3479387 13.7045087,66.1264433 12.9373184,66.2771968 L8.32300906,57.5350886 L6.41913153,61.720904 L10.8289502,69.772269 C11.1576786,71.1686159 12.408116,72.080542 13.7395597,71.8949349 C15.0710034,71.7093277 16.0625957,70.4848562 16.0476624,69.0447653 L16.0476624,69.0447599 Z" id="Path" fill="#C9A0A0"></path>
                    <path d="M37.2448151,78.5109828 C36.8504644,77.8304735 36.8020197,77.0232389 37.1125164,76.3064895 C37.4230131,75.5897402 38.0605562,75.0371026 38.8535957,74.7972804 L39.0360388,65.5260731 L43.3291378,68.2516356 L42.4977213,76.6378689 C42.8524926,77.9259959 42.1102994,79.2561493 40.7701368,79.7340333 C39.4299743,80.2119174 37.915455,79.6864775 37.2448286,78.5109803 L37.2448151,78.5109828 Z" id="Path" fill="#C9A0A0"></path>
                    <path d="M9.10786042,67.1242701 L12.5601597,63.9354674 L10.7884564,46.7159372 L12.8382631,22.3747567 L12.8382631,22.3747567 C8.3854887,23.7535609 3.60438421,27.4574113 2.81688982,31.9901538 L0,48.2040533 L9.10786042,67.1242701 Z" id="Path" fill="#E6E6E6"></path>
                    <polygon id="Path" fill="#000000" opacity="0.2" points="11.1993104 38.3567257 8.02391441 49.5882873 12.8382631 65.5260731 9.73369706 50.4522535"></polygon>
                    <path d="M39.1119184,72.8899187 L44.9339207,73.5170577 L43.570738,33.1569586 C43.4463358,29.4737418 41.0267776,26.1985536 37.3831331,24.7812268 L35.3052234,23.9729536 L35.8650391,42.8916974 L39.1119184,72.8899187 Z" id="Path" fill="#E6E6E6"></path>
                    <polygon id="Path" fill="#000000" opacity="0.2" points="36.6193727 43.1513165 38.5147892 67.1242701 35.3052234 43.3184864"></polygon>
                </g>
                <g id="Group-32" transform="translate(111.674009, 122.907489) scale(-1, 1) translate(-111.674009, -122.907489) translate(81.938326, 59.471366)">
                    <rect id="Rectangle" fill="#CCCCCC" x="9.64400524" y="57.092511" width="24.1100131" height="28.5462555"></rect>
                    <path d="M21.5365649,119.127463 L21.1851737,124.900402 C21.1529902,125.429064 21.3123277,125.948678 21.6222756,126.325832 C21.9322234,126.702986 22.3625912,126.900943 22.8028805,126.868877 L25.2703691,126.689279 C25.5018382,126.672381 25.7150493,126.532593 25.8521546,126.307844 C25.9892599,126.083094 26.0360421,125.796688 25.9798084,125.526332 L24.6101423,118.942731 L21.5365649,119.127463 Z" id="Path" fill="#E6E6E6"></path>
                    <path d="M47.0161232,122.425261 C50.3957559,123.235256 52.8100132,124.386579 54.3959775,125.944758 C54.9607716,126.495433 55.6997938,126.820009 56.4785125,126.8594 C57.4731969,126.912996 58.2865086,126.798765 58.8977319,126.519051 L58.8978292,126.519051 C59.2166541,126.375044 59.4341159,126.065146 59.4658095,125.709642 C59.5035435,125.348496 59.3470864,124.994803 59.0571487,124.785806 L51.0418302,118.942731 L47.6371861,120.338173 L46.8429673,121.151884 C46.6686599,121.330515 46.5862027,121.582555 46.6202229,121.832729 C46.654243,122.082902 46.8008029,122.302252 47.0161297,122.425265 L47.0161232,122.425261 Z" id="Path" fill="#E6E6E6"></path>
                    <path d="M35.3493484,26.9603524 L11.2513394,26.7290161 C11.3119365,23.0900093 12.1285712,19.5165987 13.913644,16.3189201 C15.0860177,14.2188 15.060689,11.93324 14.7781591,10.0077 C14.3421573,7.03620387 15.3560335,3.9959234 17.6089851,2.10435322 C19.3306985,0.656280183 21.5036937,-0.0891335922 23.718691,0.00850920533 L24.1866153,0.0287234972 C27.2838721,0.162174523 30.1029107,1.92002862 31.6683377,4.69406454 C32.4513244,6.15138697 32.7670855,7.82908562 32.5699854,9.48468887 C32.4172442,11.0424802 32.782725,12.616139 33.6376213,14.204785 C35.112532,17.6932205 35.4319191,22.1571242 35.3493484,26.9603524 Z" id="Path" fill="#2F2E41"></path>
                    <path d="M51.4346946,119.30292 L46.7463173,120.528634 L23.9159635,70.6828987 L25.3428663,119.30292 L20.6544844,119.30292 C15.6446433,96.4285199 6.59968861,70.0290259 10.6662058,61.6943234 L34.9234555,60.2643172 L51.4346946,119.30292 Z" id="Path" fill="#00BFB3"></path>
                    <ellipse id="Oval" fill="#9F616A" cx="24.1100131" cy="12.6872247" rx="6.42933683" ry="6.34361233"></ellipse>
                    <path d="M28.9320157,23.7885463 L19.2880105,23.1277517 C20.2331423,20.6009563 20.6106814,18.1677622 20.2335002,15.8590308 L27.4192304,15.8590308 C27.4029459,17.6316815 28.1602616,20.6980392 28.9320157,23.7885463 Z" id="Path" fill="#9F616A"></path>
                    <polygon id="Path" fill="#00BFB3" points="35.3613525 61.8047798 12.8586737 63.4361233 15.1691441 22.96174 19.0870917 21.8402478 23.5072092 22.8597246 27.9273266 20.6167401 30.7401893 21.6364427"></polygon>
                    <path d="M17.9115536,91.9823789 L1.60733421,88.3623817 C6.45542848,72.7585137 15.1895025,37.0614421 12.3702611,24.3401651 L20.8953447,20.6167401 L17.9115536,91.9823789 Z" id="Path" fill="#E6E6E6"></path>
                    <path d="M10.3628397,47.5770925 L4.53625432,43.7877664 L9.5053042,28.5389307 C10.0595136,26.9654384 10.9849477,25.1805158 12.3702611,24.3401651 L14.1802596,23.7885463 L13.1756746,39.1563631 L10.3628397,47.5770925 Z" id="Path" fill="#E6E6E6"></path>
                    <path d="M48.2200262,88.6175114 C43.417473,91.4916923 31.4127093,93.0938745 26.1416812,91.0865258 C25.7538159,77.0635893 24.9931514,37.3979713 27.4345566,20.6167401 L36.1863326,24.3202617 L35.3907166,35.4308265 C31.2066554,44.9353102 43.3562623,78.0394912 48.2200262,88.6175114 Z" id="Path" fill="#E6E6E6"></path>
                    <polygon id="Path" fill="#E6E6E6" points="46.5997622 44.4052863 41.3392781 42.5861359 34.3255149 34.2989447 35.4945833 23.7885463 47.1841886 40.7669855"></polygon>
                    <path d="M32.1840918,52.7298793 C32.3684628,53.3698829 33.1727426,53.771178 33.9822831,53.6270862 L38.576021,52.804124 L37.9120987,50.4845815 L33.3182654,51.3073875 C32.5085835,51.4525166 32.0008455,52.0893279 32.184094,52.7298793 L32.1840918,52.7298793 Z" id="Path" fill="#9F616A"></path>
                    <path d="M29.3338537,11.1013216 C25.8743423,9.80570992 22.4575928,9.71195758 19.0870993,10.9183338 L17.6806763,6.34361233 L30.5393499,6.34361233 L29.3338537,11.1013216 Z" id="Path" fill="#2F2E41"></path>
                    <path d="M34.0397666,49.1629956 L36.6516836,53.9207048 C41.0448873,52.7117483 44.8522861,48.9004309 48.5057745,44.4052863 L47.5011895,41.2334802 L41.2727706,42.8193833 L34.0397666,49.1629956 Z" id="Path" fill="#E6E6E6"></path>
                    <path d="M33.7540183,38.061674 L33.0651608,38.061674 C33.0651608,26.3979129 31.0591323,18.2696035 29.104231,18.2696035 L28.9320157,17.4449339 C30.6851835,17.4449339 31.802901,20.8278662 32.4318015,23.6658939 C33.284466,27.5133129 33.7540183,32.6258195 33.7540183,38.061674 Z" id="Path" fill="#3F3D56"></path>
                    <path d="M15.3528226,36.4757709 L14.4660079,36.4757709 C14.4660079,25.7153641 17.0663436,19.030837 20.8953447,19.030837 L20.6736422,19.8615481 C18.0251442,19.8615481 15.3528226,24.9988358 15.3528226,36.4757709 Z" id="Path" fill="#3F3D56"></path>
                    <ellipse id="Oval" fill="#3F3D56" cx="33.7540183" cy="39.6475771" rx="1.60733421" ry="1.58590308"></ellipse>
                    <path d="M11.9657102,41.2334802 L11.2513394,41.2334802 C11.2513394,38.6100737 12.6934227,36.4757709 14.4660079,36.4757709 L14.4660079,37.2077262 C13.0873219,37.2077262 11.9657102,39.0136689 11.9657102,41.2334802 Z" id="Path" fill="#3F3D56"></path>
                    <path d="M17.6806763,41.2334802 L16.9663055,41.2334802 C16.9663055,39.0136717 15.8446938,37.2077313 14.4660079,37.2077313 L14.4660079,36.4757709 C16.2385931,36.4757709 17.6806763,38.610077 17.6806763,41.2334802 Z" id="Path" fill="#3F3D56"></path>
                    <ellipse id="Oval" fill="#3F3D56" cx="18.4843434" cy="42.0264317" rx="1" ry="1"></ellipse>
                    <ellipse id="Oval" fill="#3F3D56" cx="10.4476723" cy="42.0264317" rx="1" ry="1"></ellipse>
                    <polygon id="Path" fill="#00BFB3" points="1.60733421 33.3039648 6.49935299 34.2125222 17.6806763 50.7488987 11.7404762 49.2951166"></polygon>
                    <path d="M0.40799186,33.3039648 C0.256836133,33.3064034 0.11892363,33.3969155 0.0481700197,33.5401161 C-0.0225835909,33.6833167 -0.0149406787,33.8564617 0.0681108277,33.9918615 L10.4732765,50.9144178 C10.5313389,51.0090231 10.6210244,51.0761718 10.7238747,51.1020439 L15.5650896,52.3229877 C15.7322033,52.365149 15.9062386,52.2922405 16.0023953,52.1397874 C16.0985521,51.9873344 16.0968274,51.7870508 15.9980616,51.6365264 L4.57382954,34.2245262 C4.51125905,34.1287185 4.41572701,34.0634995 4.30827304,34.0432326 L0.486029495,33.3115221 C0.460272487,33.3065671 0.434160289,33.3039648 0.40799186,33.3039648 Z" id="Path" fill="#3F3D56"></path>
                    <path d="M6.42933683,44.8380673 L6.73059642,47.5770925 L11.4844635,47.1511416 C12.322403,47.0760748 12.9342701,46.4020696 12.851107,45.6457086 C12.7679438,44.8893477 12.0212425,44.3370497 11.1833029,44.4121164 L6.42933683,44.8380673 Z" id="Path" fill="#9F616A"></path>
                    <path d="M4.53625432,45.3252973 C4.54940937,47.4471858 6.15016189,49.1605382 8.12174286,49.1629956 L8.83731543,49.1629956 L9.35825694,44.4906126 L4.53625432,43.7877664 L4.53625432,45.3252973 Z" id="Path" fill="#E6E6E6"></path>
                </g>
                <g id="Group-30" transform="translate(185.022026, 95.154185)">
                    <path d="M55.6310938,61.3879716 C55.2588253,61.1137238 54.8766,60.8593012 54.4877491,60.6180952 C54.2538231,60.4661025 54.0133274,60.3240223 53.7728185,60.1852463 C53.7399985,60.1654211 53.7070732,60.1455894 53.6740424,60.125751 C52.4671274,59.4396113 51.1985654,58.8687791 49.8850997,58.4207887 C48.6111953,57.9850643 47.2997565,57.6687113 45.9676164,57.4757903 C45.9470412,57.4708791 45.9261192,57.4675651 45.9050362,57.4658777 C45.5459598,57.4130106 45.1835095,57.3700562 44.817837,57.3403184 C44.5641426,57.3138849 44.3070579,57.2940763 44.050138,57.2841472 C43.7206647,57.2610179 43.3911914,57.2478011 43.0551287,57.2444969 C42.9561878,57.2411894 42.8541928,57.2411894 42.7520363,57.2411894 C41.6758508,57.2406031 40.6010655,57.3190117 39.5362948,57.4757903 C39.3023688,57.5088322 39.0684691,57.5451783 38.8377719,57.5848285 C38.6830118,57.6145663 38.5314639,57.6443205 38.3799194,57.6740417 C37.7505749,57.8029051 37.1322766,57.9559993 36.5250244,58.1333242 C36.2481581,58.2159289 35.974669,58.3018379 35.7013412,58.3943552 C35.3322916,58.5166103 34.9698414,58.6487779 34.6107649,58.7941623 C34.2911067,58.9164173 33.9780412,59.0518891 33.6683561,59.1906651 C31.1170195,60.3438165 28.8054735,61.9692582 26.8549509,63.9817413 C26.0840843,64.7717721 25.3736841,65.6189425 24.7297857,66.5160555 C24.4233163,66.942296 24.1322925,67.380652 23.8567145,67.8311233 C23.3474354,68.6531878 22.8939201,69.5087047 22.4992451,70.3918709 C21.692963,72.1863716 21.130038,74.0811129 20.8254912,76.0255355 C20.6452448,77.1753727 20.5549333,78.3375849 20.5553807,79.501544 C20.5553807,79.7130121 20.5585981,79.9244803 20.5651941,80.1326443 C20.6947532,84.9563664 22.394608,89.6050839 25.4052982,93.3692315 C25.7280139,93.7789511 26.0674637,94.175454 26.4199408,94.5587401 C26.7725793,94.9420262 27.1382518,95.3153997 27.5171131,95.6722523 C27.9817232,96.1150138 28.462741,96.5313418 28.9601665,96.9311488 C35.1803098,101.895186 43.576341,103.134813 50.9590969,100.179168 C51.4598963,99.9809167 51.9508972,99.7661443 52.4285477,99.5282426 C52.0728528,99.1383481 51.7346386,98.7330341 51.4139051,98.3123005 C50.9361063,98.5369854 50.4517081,98.7418618 49.9542825,98.9268964 C42.9581861,101.536079 35.10258,100.155246 29.4083655,95.3153997 C28.9733586,94.9453304 28.5483249,94.5554359 28.1464598,94.1490204 C27.6950419,93.6963463 27.2634121,93.2238471 26.8581666,92.7315227 C26.5089051,92.3118905 26.1728358,91.8757374 25.8599318,91.4263675 C20.3767416,83.6396465 20.9114865,73.1028939 27.1546596,65.9147126 C27.3391844,65.6999535 27.5269841,65.4917894 27.7180589,65.2902206 C28.1102737,64.8771968 28.5155193,64.4773897 28.9371759,64.0974078 C30.9188922,62.304927 33.2282638,60.9146573 35.737524,60.0035158 C35.7605311,59.9936032 35.7869153,59.9869949 35.8099192,59.9770823 C35.8890718,59.9473446 35.9714401,59.920911 36.0538085,59.8911733 C36.8361522,59.6223338 37.6337972,59.4005588 38.4424897,59.227031 C38.7357637,59.1642514 39.0322468,59.1080802 39.328753,59.0585173 C39.3353425,59.0585173 39.3385647,59.0552131 39.3451608,59.0552131 C40.1826939,58.9177274 41.0276715,58.8305617 41.8755748,58.7941821 C42.1654718,58.7809653 42.4587425,58.7743569 42.7520231,58.7743569 C43.1144767,58.7743569 43.4801591,58.7842695 43.8392223,58.8073989 C44.096139,58.8173114 44.3564361,58.8371366 44.6101371,58.8602659 C44.8342382,58.880091 45.0583361,58.9032204 45.2790601,58.9329581 C47.8457379,59.2457222 50.3299372,60.0440343 52.599864,61.2855417 C53.1857564,61.6036672 53.7553813,61.951043 54.3065948,62.3263617 C54.7480363,62.6270431 55.179666,62.9442454 55.5948847,63.2746644 C56.0231374,62.9607663 56.4679592,62.6633892 56.9225928,62.3858372 C56.5041651,62.035593 56.0725353,61.6985655 55.6310938,61.3879716 Z" id="Path" fill="#3F3D56"></path>
                    <path d="M45.4780039,28.6205947 L44.2727644,49.2841293 L20.604015,49.2841293 C18.5502131,49.2642823 16.5637036,50.0221043 15.0368527,51.4079137 C13.6659076,52.6705672 12.8140529,54.4058342 12.6494651,56.2711315 L15.3497098,57.2411894 C15.3453244,56.9281077 15.3771659,56.6155791 15.4445886,56.3099423 C15.6317797,55.4899232 16.1497798,53.9973216 17.542207,53.1591932 C18.1543781,52.8083512 18.848674,52.6296819 19.5526394,52.6418307 L46.380642,52.6418307 L47.8884662,31.067734 L56.9225928,31.067734 L56.9225928,28.6205947 L45.4780039,28.6205947 Z" id="Path" fill="#3F3D56"></path>
                    <path d="M67.9908748,39.750826 L67.9842971,39.9109238 L67.254262,58.982162 L67.1950069,60.4981898 C66.9812614,60.4916552 66.7675193,60.4883879 66.550393,60.4883879 C66.1294886,60.4883879 65.7117986,60.5014637 65.2973228,60.5276152 C63.2658158,60.6444523 61.2635402,61.0640908 59.3576467,61.772457 C58.8643198,61.9554259 58.3775705,62.1579985 57.904003,62.3769077 C57.1594563,62.7204562 56.4367461,63.1089004 55.7399158,63.540067 C55.2860945,63.8145204 54.8420608,64.1085775 54.4145798,64.4189711 C52.5946647,65.7394076 51.0029284,67.3449836 49.7016533,69.172875 C49.245612,69.8090691 48.8293372,70.4724914 48.4551805,71.1593943 L46.7153808,71.1757308 L34.8360286,71.3064228 L27.9394068,71.3848381 L27.9360357,71.3848381 L23.07519,71.4371149 L21.378096,71.4567187 L21.2563692,71.4567187 L19.7073226,71.4730716 L16.3625922,71.5122792 L14.806968,71.5286157 L12.6494651,71.5514868 L13.9945506,58.9200996 L25.7260001,59.563758 L27.804495,59.6781135 L28.3504928,59.7075192 L33.4679574,59.9885072 L34.5663827,60.0473186 L37.2828908,60.1976144 L38.1939012,60.246624 L42.6108809,60.4884043 L42.6799467,60.0015764 L42.8114677,59.0605936 L42.8904756,58.4953504 L43.3147368,55.4534928 L43.449471,54.4994408 L43.6402504,53.1304415 L43.6402504,53.1206396 L43.65679,52.9964822 L44.097446,49.84682 L44.4558777,47.3015922 L44.7881334,44.9327987 L44.7881334,44.9229968 L45.3175949,41.1165906 L45.4063937,40.4925361 L46.4523027,40.4565958 L50.517274,40.3259037 L52.312984,40.2670923 L57.9599068,40.0808561 L65.8367561,39.8227393 L65.8399693,39.8227393 L66.4911609,39.7998878 L66.645809,39.7933532 L66.6490189,39.7933532 L67.9908748,39.750826 Z" id="Path" fill="#2F2E41"></path>
                    <ellipse id="Oval" fill="#3F3D56" cx="67.2002832" cy="80.2966685" rx="3.95295784" ry="3.9750826"></ellipse>
                    <ellipse id="Oval" fill="#3F3D56" cx="39.5295784" cy="80.2966685" rx="3.16236627" ry="2.38504956"></ellipse>
                    <path d="M58.2209258,58.8241633 C57.7247051,59.0191434 57.2352201,59.2372567 56.75551,59.4718938 C55.9152156,59.8841102 55.1019769,60.3499276 54.3207676,60.8664971 C53.8673781,61.1606196 53.4270962,61.473469 52.999922,61.8050453 C50.9235048,63.398923 49.141834,65.3475349 47.7362536,67.561915 L49.5762704,67.561915 C50.8762973,65.7130663 52.4665085,64.0890824 54.2846809,62.7535078 C54.7117577,62.4395568 55.1553581,62.1421295 55.6087433,61.8645308 C56.3049038,61.4284226 57.0269196,61.0355265 57.7707507,60.6880408 C58.2438697,60.4666227 58.7301446,60.2617284 59.2229975,60.0766625 C61.1270594,59.3601779 63.1274108,58.9357301 65.1569655,58.8175538 L65.1569655,57.2775416 C62.7766913,57.4101057 60.4338833,57.932513 58.2209258,58.8241633 L58.2209258,58.8241633 Z M46.1394596,70.5659302 L47.8184023,70.5659302 C47.9794765,70.228846 48.1503387,69.8950665 48.330989,69.5712013 L46.5928613,69.587725 C46.4317739,69.9082855 46.2806455,70.2354555 46.1394596,70.5659302 L46.1394596,70.5659302 Z M67.8479289,57.2907606 C67.6048703,57.2709322 67.3584439,57.2610179 67.1120175,57.2544084 C66.8787338,57.2444942 66.6454764,57.2411894 66.408838,57.2411894 C65.9883393,57.2411894 65.5708896,57.2544084 65.1569721,57.2775416 C62.7766979,57.4101057 60.4338899,57.932513 58.2209324,58.8241633 C57.7247117,59.0191434 57.2352267,59.2372567 56.7555166,59.4718938 C55.9152221,59.8841102 55.1019834,60.3499276 54.3207742,60.8664971 C53.8673846,61.1606196 53.4271028,61.473469 52.9999286,61.8050453 C50.3034187,63.875273 48.1121082,66.5370548 46.5928415,69.587725 C46.4317641,69.9082855 46.2806357,70.2354555 46.1394531,70.5659302 C45.652664,71.6720013 45.2591791,72.8172729 44.9631546,73.9896483 C44.7676148,74.7494233 44.6140576,75.5195068 44.5031882,76.2963619 C44.4045234,76.9771398 44.3377298,77.6656288 44.3028074,78.3618289 C44.2830735,78.7418748 44.2731278,79.1219207 44.2731278,79.5052714 C44.2736597,80.3488653 44.320846,81.1917763 44.4144681,82.0300983 C44.856939,85.9327304 46.3218934,89.6471755 48.659551,92.7936599 C48.9781705,93.2232771 49.313478,93.6429602 49.6616194,94.0461591 C56.2214481,101.690348 67.0755463,103.935357 76.1020503,99.5149703 C85.1285544,95.0945832 90.065674,85.1164255 88.1288045,75.2083182 C86.1919349,65.3002108 77.8664017,57.9448492 67.8479223,57.2907606 L67.8479289,57.2907606 Z M66.4088544,100.232648 C60.5815439,100.235462 55.0269477,97.750176 51.127045,93.3951239 C50.7723268,93.0051638 50.4350413,92.5997814 50.1151886,92.178977 C47.4658396,88.752024 45.9605284,84.5708694 45.8141176,80.2323158 C45.8043328,79.9910692 45.8009647,79.7498227 45.8009647,79.5052714 C45.7979036,76.4109649 46.4874346,73.3556567 47.8184319,70.5659302 C47.979506,70.228846 48.1503683,69.8950665 48.3310185,69.5712013 C48.7048157,68.876426 49.1206904,68.2054003 49.5762934,67.561915 C50.8763203,65.7130663 52.4665315,64.0890824 54.2847039,62.7535078 C54.7117807,62.4395568 55.1553811,62.1421295 55.6087663,61.8645308 C56.3049268,61.4284226 57.0269426,61.0355265 57.7707737,60.6880408 C58.2438927,60.4666227 58.7301676,60.2617284 59.2230205,60.0766625 C61.1270824,59.3601779 63.1274338,58.9357301 65.1569885,58.8175538 C65.570906,58.7911159 65.9881947,58.7778771 66.4088544,58.7778771 C66.625759,58.7778771 66.8392957,58.7811818 67.0528488,58.7877913 C67.3190091,58.7977055 67.5851661,58.8109245 67.8479585,58.8274483 C78.9236329,59.6054895 87.395664,69.0687778 87.0077716,80.2290264 C86.6198793,91.389275 77.5115093,100.234418 66.4088544,100.232648 Z M45.8141176,80.2323158 C45.8043328,79.9910692 45.8009749,79.7498227 45.8009749,79.5052714 C45.7979036,76.4109649 46.4874346,73.3556567 47.8184319,70.5659302 L46.1394596,70.5659302 C45.6526706,71.6720013 45.2591857,72.8172729 44.9631612,73.9896483 C45.0135098,74.2040734 45.0388707,74.4236645 45.0387319,74.6439883 C45.0390327,75.2379755 44.8514812,75.8166635 44.5032013,76.2963619 C44.4045366,76.9771398 44.337743,77.6656288 44.3028205,78.3618289 C44.2830867,78.7418748 44.2731409,79.1219207 44.2731409,79.5052714 C44.2736728,80.3488653 44.3208592,81.1917763 44.4144812,82.0300983 C44.8569521,85.9327304 46.3219066,89.6471755 48.6595641,92.7936599 C49.1556238,92.6085941 49.6386984,92.4036799 50.1151787,92.1789604 C47.4658318,88.7520124 45.9605197,84.5708641 45.8141045,80.2323158 L45.8141176,80.2323158 Z" id="Shape" fill="#3F3D56"></path>
                    <ellipse id="Oval" fill="#000000" opacity="0.1" cx="53.7602266" cy="49.2910242" rx="1" ry="1"></ellipse>
                    <ellipse id="Oval" fill="#000000" opacity="0.1" cx="53.7602266" cy="55.6511564" rx="1" ry="1"></ellipse>
                    <polygon id="Path" fill="#FFB7B7" points="9.48676025 90.6318833 6.27248161 90.6315359 4.7435494 77.9116189 9.4870988 77.9119663"></polygon>
                    <path d="M8.73707221,89.0457256 L5.67796639,89.0418502 L3.69440679,89.0418502 C2.71446668,89.0413723 1.77455298,89.5278606 1.08163354,90.3941911 C0.388714098,91.2605217 -0.000390432638,92.435654 0,93.6608252 L0,93.8119493 L9.4870988,93.8119493 L9.4870988,89.0457256 L8.73707221,89.0457256 Z" id="Path" fill="#2F2E41"></path>
                    <polygon id="Path" fill="#FFB7B7" points="20.3014253 92.2219163 17.087365 92.1546899 15.8118313 79.501652 20.5553807 79.6005954"></polygon>
                    <path d="M19.8114456,90.7571248 L16.7741091,90.6819044 L14.8096221,90.6330112 C13.838142,90.6063348 12.8979279,91.0537736 12.1965418,91.8765512 C11.4951556,92.6993287 11.0902754,93.8297843 11.0712824,95.0183585 L11.0682819,95.1650382 L20.4785244,95.4019824 L20.4939849,94.4504448 L20.5553807,90.7759299 L19.8114456,90.7571248 Z" id="Path" fill="#2F2E41"></path>
                    <path d="M30.2456913,49.2910242 L12.6725711,55.2875484 C10.541602,55.8306725 8.90510597,57.5973712 8.47140988,59.8229619 L3.16236627,87.0673711 L11.6724332,87.2049218 L17.0513786,64.3082339 L28.6644934,59.3931737 L19.7660717,64.7204786 C18.96283,65.3795346 18.3411684,66.2454359 17.9634031,67.2313834 L12.7268855,87.4518172 L22.1127459,87.4518172 L27.4471749,71.2821939 L50.5978603,57.6306744 L30.2456913,49.2910242 Z" id="Path" fill="#2F2E41"></path>
                    <path d="M47.9188419,21.11633 L36.5125929,22.5017171 C36.5125929,22.5017171 29.8170269,25.5070112 29.8170269,27.0343541 C29.8170269,28.5616971 27.1520811,50.4545936 27.1520811,50.4545936 C27.1520811,50.4545936 24.7811375,51.9187972 34.0400581,54.495436 C43.2989787,57.0720749 44.9604422,60.6292655 44.9604422,60.6292655 L45.6650703,63.6013216 L56.2721955,59.8721982 L58.0528316,34.4165063 L60.0849591,24.5043523 L53.2196813,20.6704295 L47.9188419,21.11633 Z" id="Path" fill="#CBCBCB"></path>
                    <ellipse id="Oval" fill="#FFB7B7" cx="44.2731278" cy="11.1302313" rx="7.90591567" ry="7.9501652"></ellipse>
                    <path d="M48.9539681,2.74839787 L49.116506,1.89243179 L46.9272943,1.49522683 C46.9272943,1.49522683 43.8308902,-1.28025366 40.2783919,0.731604647 C36.7258936,2.74346295 35.1685166,3.78910326 35.1685166,3.78910326 L33.5299249,5.26273305 L34.7621702,5.92904744 L33.2048458,6.97469741 L34.5183616,7.21301588 L33.3988605,8.33810105 L35.2436091,11.9933112 C35.2436091,11.9933112 35.5880821,8.73530601 38.2151006,9.21194295 C40.842119,9.68857989 44.5572244,6.82077482 44.5572244,6.82077482 L50.230896,12.7202643 C50.230896,12.7202643 50.2783681,10.0849865 51.8119811,10.3569738 C51.8120107,10.3569545 53.6889474,4.05023569 48.9539681,2.74839787 Z" id="Path" fill="#2F2E41"></path>
                    <path d="M51.1600459,37.716825 C51.6943397,36.8989401 52.5556614,36.3649316 53.512246,36.2584908 C54.4688306,36.15205 55.4224149,36.4841109 56.1164076,37.1653223 L66.4096916,31.8006608 L65.7421382,37.8990714 L56.0698086,42.0584897 C54.8459198,43.1992111 52.9806387,43.2241004 51.7280269,42.1164241 C50.4754151,41.0087478 50.2314051,39.1186263 51.1600491,37.7168218 L51.1600459,37.716825 Z" id="Path" fill="#FFB7B7"></path>
                    <polygon id="Path" fill="#CBCBCB" points="57.7841171 25.9052481 60.4880369 25.4405286 74.9149801 31.5759737 75.8967904 37.5883017 67.2443143 39.750826 62.7169845 34.214381 56.0905195 35.9628999 52.1790434 30.3652153"></polygon>
                    <path d="M31.1775242,40.0298861 C30.3012173,39.6454679 29.2977158,39.6690708 28.437041,40.0943439 C27.5763662,40.5196169 26.9469286,41.302875 26.7180967,42.2333598 L15.2561506,43.3494378 L18.9988229,47.992757 L29.3094926,46.2210371 C30.9346114,46.5006906 32.5175927,45.521641 32.9941763,43.9421168 C33.4707599,42.3625927 32.6903059,40.6818547 31.1775242,40.0298861 Z" id="Path" fill="#FFB7B7" transform="translate(24.194824, 43.875170) scale(-1, 1) rotate(35.000000) translate(-24.194824, -43.875170) "></path>
                    <polygon id="Path" fill="#CBCBCB" transform="translate(31.762066, 35.933820) rotate(25.000000) translate(-31.762066, -35.933820) " points="34.4623995 26.4621664 33.5128975 36.7556182 37.0062994 37.4065349 35.4921749 44.5837354 26.5178319 45.4054733 30.2951214 26.8243414"></polygon>
                    <path d="M67.6679688,28.6205947 L67.4405607,32.4803596 L67.3515672,33.9874055 L67.3515672,34.0071485 L67.074748,38.6631963 L67.0647708,38.8573354 L66.468165,48.9756018 L42.8255581,48.9756018 C40.8096783,48.9760429 38.8653387,49.7215412 37.3674318,51.0683555 C37.1209478,51.2929743 36.8897025,51.5337117 36.6752272,51.7889735 C36.5416634,51.9470328 36.4162371,52.1117701 36.299434,52.2825474 C36.1487374,52.4928055 36.0101057,52.7114259 35.8842068,52.9373556 C35.58847,53.4704531 35.3614085,54.038727 35.2084198,54.6286691 C35.1918202,54.6759376 35.1785898,54.7243188 35.1688276,54.7734508 C35.0801954,55.1301429 35.0196055,55.4932012 34.9876104,55.8593135 L35.0601929,58.7911429 L35.0700118,59.2485215 L35.0964033,60.3936131 L35.2480219,66.7837508 L35.3402389,70.5875609 L35.425999,74.1709079 C33.2603883,74.11826 29.5392899,75.2633516 27.3868766,82.9367817 C26.9122643,84.6280952 26.5298691,86.1055266 26.213461,87.3921094 C26.0520378,88.0469175 25.9059038,88.6534651 25.7750592,89.2117521 C25.5542499,90.1659951 25.3730294,90.9853279 25.2148254,91.686203 C25.0400454,92.4759213 24.8950387,93.1109865 24.7600092,93.621013 C24.2886172,95.3518124 23.9128208,95.5722754 22.7229908,95.1247683 C21.9293986,94.9080783 21.1172432,94.7659681 20.2971368,94.7002947 C17.8547101,94.4107313 14.0740618,94.1442014 10.4319863,93.9303193 C10.2803678,93.9237383 10.1319925,93.9138668 9.98038714,93.9039954 C4.78250746,93.60127 0,93.4104214 0,93.4104214 L0,96.3981892 L22.7229908,98.4382949 C22.7229908,98.4382949 25.0664402,99.4879622 26.8726721,95.9144867 C27.1197961,95.4250731 27.3302392,94.9180448 27.5022715,94.3975693 C27.617662,94.0718105 27.7264032,93.7197277 27.8284953,93.341321 C27.9900811,92.7556133 28.1526865,92.166615 28.3163115,91.5743262 C28.4646999,91.0379758 28.6163053,90.4983349 28.7646904,89.9652751 C29.7435299,86.4510284 30.6861557,83.1506637 31.2399524,81.2520492 C31.6667063,79.6973687 32.7631899,78.4122711 34.2327972,77.7443835 C34.7398803,77.5065917 35.2942226,77.386235 35.8544302,77.3923007 L38.5374656,77.273843 L38.2670836,71.4299271 L48.4750403,71.4299271 C48.6366228,71.0942968 48.8080243,70.761957 48.9892447,70.4394887 C49.3642216,69.7477101 49.7814089,69.0795787 50.2384498,68.4388688 L38.1518535,68.4388688 L38.0232645,65.2043141 L37.8024551,59.6203472 L37.7924746,59.3998841 L37.7398465,58.0738154 L37.6902771,56.8135565 C37.6831823,56.501658 37.7142051,56.1900594 37.782659,55.8856572 C37.8090505,55.7704899 37.842044,55.6388702 37.8848565,55.5006695 C38.0542674,54.9104517 38.3264998,54.3546402 38.6890743,53.8587134 C38.9453729,53.5091738 39.2557931,53.2026097 39.6086738,52.9505373 C39.6924433,52.8900518 39.779361,52.834035 39.8690622,52.7827221 C40.3823962,52.4923511 40.9547569,52.3213853 41.5434848,52.2825672 C41.6508501,52.2726479 41.7587262,52.2693512 41.8664983,52.2726957 L65.8683356,52.2726957 L65.8683356,59.7322437 C66.2835595,59.7059197 66.7021651,59.6927512 67.1241526,59.692738 C67.3417417,59.692738 67.5559523,59.6960285 67.7701795,59.7026095 C68.0371797,59.712481 68.3041767,59.725643 68.5677985,59.7420954 L68.5677985,52.2002851 L69.517023,38.7191347 L70.0609875,31.0226712 L79.0557749,31.0226712 L79.0591567,28.6205947 L67.6679688,28.6205947 Z" id="Path" fill="#3F3D56"></path>
                </g>
                <g id="Group-34" transform="translate(34.361233, 72.687225)">
                    <polygon id="Path" fill="#E2BCB4" points="46.4557469 123.29409 42.8807352 124.197229 28.8346015 84.380013 39.1417453 82.798153"></polygon>
                    <polygon id="Path" fill="#E2BCB4" points="5.16189783 124.197229 1.60192231 123.523964 10.8110131 82.798153 20.82499 85.676699"></polygon>
                    <path d="M43.163376,131.89294 C44.103451,132.289891 44.8908856,129.829698 45.6838528,130.55067 C47.9018929,132.567326 53.2228195,132.115276 53.2228195,132.115276 C53.5838382,132.007908 53.881571,131.768419 54.0466869,131.452577 C54.2118027,131.136736 54.2298909,130.772107 54.0967394,130.4436 L54.0967394,130.4436 C53.9366771,130.048696 53.577033,129.751815 53.1347872,129.649522 L50.7759037,129.103916 L47.0721193,123.077608 L43.0356513,122.604957 L42.9336991,122.759213 C41.3550714,125.113132 40.948688,127.982056 41.8183989,130.632839 C42.1540795,131.62795 42.6110019,131.659702 43.163376,131.89294 Z" id="Path" fill="#2F2E41"></path>
                    <path d="M1.04595204,130.22642 C1.82376181,130.779271 2.98254836,128.478527 3.56850454,129.327011 C5.20750083,131.700341 10.1002158,132.15859 10.1002158,132.15859 C10.4461138,132.113781 10.7587954,131.927443 10.965448,131.642969 C11.1721007,131.358495 11.2546884,131.000713 11.1939794,130.652937 L11.1939794,130.652937 C11.1209994,130.234871 10.8497736,129.879847 10.4685229,129.703342 L8.43498381,128.761888 L6.18106526,122.167464 L2.61758411,121.012685 L2.49738813,121.147994 C0.642592861,123.208902 -0.245932341,125.979009 0.0588726582,128.750423 C0.181601291,129.79239 0.58893174,129.901583 1.04595204,130.22642 Z" id="Path" fill="#2F2E41"></path>
                    <path d="M34.999963,54.1372539 C36.7882995,56.7738698 38.5218004,59.4367499 39.288748,62.4672233 C41.1431196,69.885142 42.4672479,77.4157469 43.2519023,85.0065428 C37.0384998,88.4242353 31.6479237,90.3860848 26.3821303,90.7241671 C26.1372657,90.7398058 25.8927956,90.7508655 25.6484732,90.7595138 L23.7288207,80.3698884 L22.1975265,90.6450094 C21.4392876,90.56773 20.6798615,90.4576336 19.916805,90.3101805 C16.6157788,89.6753992 13.2547906,88.3782499 9.66347966,86.3865012 C8.37601308,81.4767778 7.83544781,76.4144383 8.05854627,71.3564613 C8.3536177,64.5923588 9.94896059,58.8011331 11.4939182,54.150682 L34.999963,54.1372539 Z" id="Path" fill="#2F2E41"></path>
                    <path d="M21.4744165,23.8840826 L12.8153785,21.3909204 C15.9479057,18.7940238 17.22727,15.9427586 15.9326329,12.7381774 L25.6307569,14.2047437 C23.329547,17.9606398 20.3165237,20.2222393 21.4744165,23.8840826 Z" id="Path" fill="#E2BCB4"></path>
                    <path d="M33.6403684,54.4289312 C26.0713512,60.0768368 18.3654529,60.727857 10.4695602,54.4418856 C13.6525808,45.0675275 7.15886542,36.2521819 8.10477822,29.5974095 C8.6949235,25.4455915 10.535787,20.3029103 14.8160475,19.1072661 L19.4131952,20.4249228 C22.6558955,21.3531657 25.1505464,23.7965935 25.9991207,26.8756187 L26.5430053,28.860959 C29.1750147,31.4873664 30.0523567,34.9389734 29.3689291,39.1292614 C29.9459373,40.3182459 29.6810844,41.8177888 29.4162282,43.3195557 C29.1655609,44.7481139 28.9148937,46.1788898 29.3878535,47.3434757 C30.4056348,49.8472328 32.0451223,52.1277149 33.6403684,54.4289343" id="Path" fill="#E6E6E6"></path>
                    <ellipse id="Oval" fill="#E2BCB4" cx="22.4269123" cy="10.3497691" rx="8.00961153" ry="7.16522478"></ellipse>
                    <path d="M48.6639605,50.794696 L43.2519023,49.0334609 L43.6467083,44.7156868 L49.5892084,44.5844082 C50.5381726,44.5634436 51.4476134,44.962019 52.072219,45.672623 C52.6968245,46.383227 52.9722548,47.3326611 52.8242155,48.2648256 L52.8242155,48.2648256 C52.6778442,49.1864933 52.1322671,49.9979668 51.3316422,50.4848306 C50.5310172,50.9716944 49.5559054,51.0849588 48.6639605,50.794696 Z" id="Path" fill="#E2BCB4"></path>
                    <path d="M38.4461354,62.0986147 C36.2192429,61.129233 31.1510524,58.6854744 23.8292482,53.7325973 C13.746299,46.9108244 16.3107504,30.2531713 16.3107504,30.2531713 L29.7668397,42.6432768 C29.5094234,44.0951019 29.252007,45.5491809 29.737701,46.7327343 C31.9378584,52.0891394 36.9671986,56.4400973 38.4461354,62.0986147 Z" id="Path" fill="#000000" opacity="0.2"></path>
                    <path d="M44.1035754,49.6012514 C37.0104262,51.0881565 31.2074692,51.979647 26.4910374,48.8152257 C19.0111177,40.5844339 14.7600082,32.3214822 16.3511585,24.0003518 C16.6525055,22.4705323 17.8569018,21.2410734 19.446306,20.8407968 L19.446306,20.8407968 C21.5627751,20.2995881 23.769944,21.3555676 24.5637597,23.2891487 L30.2149189,41.2087301 L44.8538246,43.8894676 L44.1035754,49.6012514 Z" id="Path" fill="#2F2E41"></path>
                    <path d="M33.0203884,68.4677034 C31.2295986,68.4651322 29.6798426,67.2827721 29.2891859,65.6210455 L28.8346015,63.6750302 L36.2979695,62.0986147 L36.7524339,64.044402 C37.2102313,66.0039978 35.9107344,67.9454606 33.8498376,68.380913 L33.8498376,68.380913 C33.577507,68.4384966 33.2993717,68.4675997 33.0203884,68.4677034 Z M29.4229735,64.0313483 L29.7706244,65.5193702 C30.1694602,67.2260706 31.9478844,68.3022025 33.742846,67.9229782 C35.5378076,67.5437538 36.6695913,65.8527777 36.2707555,64.1460773 L35.9232245,62.6582835 L29.4229735,64.0313483 Z" id="Shape" fill="#3F3D56"></path>
                    <path d="M30.3886875,6.55835441 C30.3886875,6.55835441 31.6230073,-2.32695 21.5517888,0.586750398 C21.5517888,0.586750398 14.3588624,-0.634026935 12.0000182,7.68818401 L9.61153384,16.4119103 L10.7755611,15.8258751 L11.3182386,16.9231038 L13.2045034,17.3649615 L14.0116851,15.8830591 L14.4021611,17.6826441 L29.8517297,19.1072661 C29.8517297,19.1072661 22.9321772,15.3221178 22.8224547,8.53822235 L24.1404824,9.82653672 L30.3886875,6.55835441 Z" id="Path" fill="#2F2E41"></path>
                </g>
            </g>
        </g>
    </g>
</svg>