<?xml version="1.0" encoding="UTF-8"?>
<svg width="180px" height="140px" viewBox="0 0 180 140" version="1.1" xmlns="http://www.w3.org/2000/svg" xmlns:xlink="http://www.w3.org/1999/xlink">
    <title>42D79E18-FE96-43B4-B0D2-B575D97EDA45</title>
    <g id="----------↳--Home-with-Visits" stroke="none" stroke-width="1" fill="none" fill-rule="evenodd">
        <g id="Homescreen-Participant---Mobile-UI-1" transform="translate(-117.000000, -132.000000)" fill-rule="nonzero">
            <g id="Group-37" transform="translate(117.000000, 132.000000)">
                <g id="Group-36" fill="#00BFB3" opacity="0.1">
                    <path d="M163.290313,46.8523038 L180,46.8523038 L180,66.015395 L164.513615,66.015395 C164.472454,66.21211 164.43294,66.4102103 164.390132,66.6083107 L180,66.6083107 L180,82.062908 C179.972011,82.0559814 179.947314,82.0476695 179.920971,82.0393576 C179.479726,81.892514 179.041774,81.7373585 178.603822,81.5711204 L178.323927,81.464451 C177.884877,81.2899011 177.445828,81.1051921 177.006778,80.9103242 C176.853659,80.8424437 176.700541,80.7717925 176.549068,80.699756 C174.111655,79.5509414 171.897393,78.0952297 169.983078,76.383108 C169.927099,76.3373925 169.874413,76.2889064 169.818435,76.2445763 C169.551712,76.0007605 169.289928,75.754174 169.036377,75.5020463 L168.756483,75.2249829 C168.456831,74.9160572 168.167058,74.5988196 167.885518,74.277426 C167.844357,74.2303252 167.804842,74.1832245 167.762035,74.1388943 C166.617016,72.803072 165.666287,71.3566571 164.930164,69.8305582 C164.907114,69.7848427 164.887356,69.7349713 164.865953,69.6920265 C164.639842,69.2025478 164.439525,68.7084514 164.265003,68.2097372 C164.189267,68.0005543 164.116824,67.7941421 164.054259,67.5766473 C164.031209,67.5129227 164.011452,67.4505835 163.993341,67.3882442 C163.058165,64.3169962 162.947854,61.126611 162.947854,57.9583908 C162.947854,57.5885112 162.947854,57.2172462 162.947854,56.8501372 C162.947854,55.5687189 162.965964,54.2789887 162.992307,52.9906438 C162.992307,52.6567824 163.008772,52.3243063 163.017004,51.9890595 C163.040054,51.1384749 163.072983,50.2878902 163.11579,49.4373055 C163.125669,49.2004163 163.13884,48.9649124 163.153658,48.7294085 C163.153658,48.5936474 163.16189,48.4578863 163.178355,48.3221252 C163.217869,47.8289524 163.250798,47.3399354 163.290313,46.8523038 Z" id="Path" transform="translate(171.473927, 64.457606) scale(-1, 1) translate(-171.473927, -64.457606) "></path>
                    <path d="M172.113568,25.5156502 L162.947854,25.5156502 C164.43779,23.5534558 166.065723,21.6679124 167.822953,19.8690978 C169.184556,18.4616156 170.621896,17.0901517 172.113568,15.7685592 L172.113568,25.5156502 Z" id="Path" transform="translate(167.530711, 20.642105) scale(-1, 1) translate(-167.530711, -20.642105) "></path>
                    <path d="M179.604855,26.1085659 L179.604855,46.2593881 L162.947854,46.2593881 C162.947854,46.2012048 162.959379,46.1416362 162.964318,46.0834528 C162.979136,45.9241414 162.993954,45.7648299 163.010418,45.6069038 C163.028529,45.4212713 163.048286,45.2342535 163.06969,45.0527769 C163.091094,44.8713004 163.114144,44.6496497 163.13884,44.4487787 C163.163537,44.2479077 163.186587,44.0442661 163.214576,43.8433951 C163.242566,43.6425241 163.267262,43.4416532 163.296898,43.2421675 C163.326534,43.0426818 163.352877,42.8404256 163.384159,42.6409399 C163.408856,42.4747018 163.435199,42.3098491 163.461542,42.1436111 C163.49941,41.9094925 163.538925,41.6739886 163.581732,41.4412553 C163.581732,41.4066224 163.593257,41.3706041 163.599843,41.3373565 C163.900348,39.6336412 164.309808,37.9447974 164.826438,36.2781786 C165.367225,34.5298887 166.057791,32.8168498 166.892716,31.1525054 C167.780089,29.4114034 168.819072,27.7278202 170.001189,26.1154925 L179.604855,26.1085659 Z" id="Path" transform="translate(171.276354, 36.183977) scale(-1, 1) translate(-171.276354, -36.183977) "></path>
                    <path d="M0.00329287367,46.8509185 L0.00329287367,66.015395 L35.6931042,66.015395 L35.6931042,46.8509185 L0.00329287367,46.8509185 Z M0.00329287367,66.6069254 L0.00329287367,83.0644923 C0.207451041,83.1005105 0.409962772,83.1351434 0.610828066,83.1642351 C0.884136581,83.2085652 1.15579866,83.2487394 1.43404648,83.2833724 C1.48673246,83.2902989 1.54106488,83.2972255 1.59869017,83.3013815 C1.707355,83.31662 1.8193127,83.3290878 1.92797754,83.3415557 C2.20293249,83.373418 2.476241,83.399739 2.75119595,83.4205187 C2.88126446,83.4316013 3.01297941,83.4412985 3.14469436,83.4496104 L3.46245667,83.4703902 L3.46245667,83.4703902 C3.63533253,83.4814727 3.80656197,83.4897846 3.97614496,83.4939406 C4.08151692,83.4939406 4.18688887,83.5022525 4.29555371,83.5050231 C4.37787555,83.5050231 4.46019739,83.5050231 4.5458121,83.5050231 C4.63142682,83.5050231 4.75326315,83.5050231 4.85698867,83.5050231 C4.99858223,83.5050231 5.1401758,83.5050231 5.28012293,83.5050231 L5.46946317,83.5050231 C5.61105674,83.5050231 5.75265031,83.5050231 5.89259744,83.4939406 L5.90247606,83.4939406 C5.99961583,83.4939406 6.09840204,83.4939406 6.19718825,83.482858 C6.2246044,83.4842368 6.25209395,83.4842368 6.27951009,83.482858 C6.36183194,83.482858 6.44415378,83.482858 6.52318275,83.4731608 L6.58080803,83.4731608 L7.13236437,83.4371426 C7.31347243,83.4232894 7.49622692,83.4052803 7.68062784,83.3886565 L8.05601544,83.3512529 C9.58321333,83.1712017 11.0934407,82.9008576 12.5754846,82.5422277 C15.9045798,81.7609089 19.1612319,80.6678937 22.4886807,79.8671804 C26.7908202,78.8351192 31.5440833,78.3280932 35.7013364,79.590117 L35.7013364,66.6069254 L0.00329287367,66.6069254 Z M35.6931042,25.5156502 L35.6931042,0.00226552683 C31.7856775,-0.0333542512 27.8888502,0.351182312 24.0972495,1.14653743 C15.0599577,3.05688969 6.95125632,7.20037307 0.00329287367,12.4922843 L0.00329287367,25.5142649 L1.79461615,25.5142649 L1.79461615,26.1057952 L0.00329287367,26.1057952 L0.00329287367,46.2593881 L35.6931042,46.2593881 L35.6931042,26.1071806 L9.1492495,26.1071806 L9.1492495,25.5156502 L35.6931042,25.5156502 Z M81.534845,16.8975926 C79.2989838,16.8310974 77.0762941,16.2354111 75.0659947,15.3155605 C71.2215647,13.5562078 68.15096,10.839601 64.7197856,8.54690127 C57.5907141,3.7717133 48.7493483,0.890253774 39.6791278,0.175430162 L39.6791278,25.5156502 L90.6281157,25.5156502 L90.7548913,25.4034395 L81.534845,16.8975926 Z M86.1761504,16.2049341 L91.0973502,20.7487741 L91.0973502,15.0135614 C89.4492669,15.1853407 88.0053418,15.5940092 86.1827362,16.1993928 L86.1761504,16.2049341 Z M91.0973502,87.1511776 L91.0973502,66.6069254 L80.6111939,66.6069254 C80.5832045,66.5196504 80.5552151,66.4309901 80.5222864,66.3423298 C80.5535687,66.4309901 80.5799116,66.5196504 80.6095475,66.6069254 L39.6857135,66.6069254 L39.6857135,81.464451 C40.0742726,81.7068815 40.4578924,81.9617799 40.8382193,82.2208342 L40.8382193,82.2208342 C41.2481821,82.4978976 41.6532055,82.7901995 42.0598754,83.0769601 L42.4698382,83.3623354 C42.6657642,83.5008671 42.8633366,83.6393988 43.0625555,83.7696186 C43.4577003,84.0392937 43.8566868,84.3052746 44.259515,84.5675613 C44.4587339,84.706093 44.6628921,84.8307715 44.8654038,84.9609913 C48.0804192,87.0292284 51.4719008,88.8956692 55.012394,90.5452045 C55.8059766,90.9146224 56.6066937,91.2752666 57.4145454,91.6271371 C57.9529302,91.8584851 58.4946079,92.0884477 59.0379321,92.3114838 C59.8545647,92.6467305 60.6777832,92.9699711 61.5075873,93.2812057 L61.5075873,93.2812057 C69.1579795,96.1707569 77.2477079,98.1535645 85.5455651,99.1729592 C87.3884768,99.4019983 89.238523,99.5820896 91.0957037,99.7132329 L91.0957037,87.1497923 L91.2603474,87.1497923 L91.0973502,87.1511776 Z M39.6857135,26.1071806 L39.6857135,46.2593881 L91.1039359,46.2593881 L91.1039359,26.1071806 L39.6857135,26.1071806 Z M39.6857135,46.8509185 L39.6857135,66.015395 L91.1039359,66.015395 L91.1039359,46.8509185 L39.6857135,46.8509185 Z M95.0948988,14.9886257 L95.0948988,21.38602 L101.376055,15.5870827 C99.2949592,15.304478 97.2012403,15.1026835 95.0948988,14.9816991 L95.0948988,14.9886257 Z M95.0948988,46.8578451 L95.0948988,66.015395 L145.105418,66.015395 L145.105418,46.8509185 L95.0948988,46.8578451 Z M144.922663,88.6722558 L145.098832,66.6069254 L95.0948988,66.6069254 L95.0948988,99.9334983 C98.3161566,100.047361 101.542368,100.01499 104.759483,99.8365261 L104.759483,99.8365261 L104.815462,99.8365261 C106.352136,99.7552542 107.881676,99.6370405 109.404081,99.481885 L109.438657,99.481885 C117.560631,98.6865437 125.502408,96.9035253 133.015632,94.1885884 M154.748598,50.0066708 C154.560904,49.6340205 154.364978,49.2641408 154.16576,48.8984171 C153.793665,48.2057586 153.400166,47.5324945 152.995143,46.8592304 L149.093088,46.8592304 L149.093088,66.015395 L158.958537,66.015395 C158.953598,60.5904933 157.321979,55.049225 154.753538,49.9997442 L154.748598,50.0066708 Z M149.093088,66.6138519 L149.093088,85.5926959 C151.872273,83.3512529 154.220092,80.787031 155.910983,77.8557 C157.944332,74.3259121 158.874569,70.5038223 158.950305,66.6110813 L149.093088,66.6138519 Z M149.093088,41.2736319 L149.093088,46.2607734 L152.629634,46.2607734 C151.559764,44.5439812 150.380857,42.8768809 149.098027,41.2667054 L149.093088,41.2736319 Z M115.176489,18.7483762 C114.916352,18.6652572 114.656215,18.5807529 114.394431,18.4990192 C111.633499,17.6411313 108.812159,16.9277169 105.946564,16.3628602 L96.3346657,25.2385868 L96.3346657,25.2385868 L96.1502648,25.4034395 L96.2737476,25.5170355 L130.483412,25.5170355 C125.718968,22.7575498 120.582448,20.4831433 115.181428,18.7414497 L115.176489,18.7483762 Z M131.486092,26.1141071 L95.7962809,26.1141071 L95.0948988,26.6543808 L95.0948988,46.2593881 L101.242694,46.2593881 L101.252573,46.2593881 L101.252573,46.2593881 L145.112003,46.2593881 L145.112003,36.7630395 C141.144462,32.725642 136.565141,29.1431815 131.491031,26.1071806 L131.486092,26.1141071 Z" id="Shape" transform="translate(79.480915, 50.000000) scale(-1, 1) translate(-79.480915, -50.000000) "></path>
                    <path d="M179.604855,36.2726373 L179.604855,46.2593881 L162.947854,46.2593881 C162.947854,46.2012048 162.959379,46.1416362 162.964318,46.0834528 C162.979136,45.9241414 162.993954,45.7648299 163.010418,45.6069038 C163.028529,45.4212713 163.048286,45.2342535 163.06969,45.0527769 C163.091094,44.8713004 163.114144,44.6496497 163.13884,44.4487787 C163.163537,44.2479077 163.186587,44.0442661 163.214576,43.8433951 C163.242566,43.6425241 163.267262,43.4416532 163.296898,43.2421675 C163.326534,43.0426818 163.352877,42.8404256 163.384159,42.6409399 C163.408856,42.4747018 163.435199,42.3098491 163.461542,42.1436111 C163.49941,41.9094925 163.538925,41.6739886 163.581732,41.4412553 C163.581732,41.4066224 163.593257,41.3706041 163.599843,41.3373565 C163.900348,39.6336412 164.309808,37.9447974 164.826438,36.2781786 L179.604855,36.2726373 Z" id="Path" transform="translate(171.276354, 41.266013) scale(-1, 1) translate(-171.276354, -41.266013) "></path>
                    <path d="M163.290313,46.8523038 L180,46.8523038 L180,66.015395 L164.513615,66.015395 C164.472454,66.21211 164.43294,66.4102103 164.390132,66.6083107 L180,66.6083107 L180,82.062908 C179.972011,82.0559814 179.947314,82.0476695 179.920971,82.0393576 C179.479726,81.892514 179.041774,81.7373585 178.603822,81.5711204 L178.323927,81.464451 C177.884877,81.2899011 177.445828,81.1051921 177.006778,80.9103242 C176.853659,80.8424437 176.700541,80.7717925 176.549068,80.699756 C174.111655,79.5509414 171.897393,78.0952297 169.983078,76.383108 C169.927099,76.3373925 169.874413,76.2889064 169.818435,76.2445763 C169.551712,76.0007605 169.289928,75.754174 169.036377,75.5020463 L168.756483,75.2249829 C168.456831,74.9160572 168.167058,74.5988196 167.885518,74.277426 C167.844357,74.2303252 167.804842,74.1832245 167.762035,74.1388943 C166.617016,72.803072 165.666287,71.3566571 164.930164,69.8305582 C164.907114,69.7848427 164.887356,69.7349713 164.865953,69.6920265 C164.639842,69.2025478 164.439525,68.7084514 164.265003,68.2097372 C164.189267,68.0005543 164.116824,67.7941421 164.054259,67.5766473 C164.031209,67.5129227 164.011452,67.4505835 163.993341,67.3882442 C163.058165,64.3169962 162.947854,61.126611 162.947854,57.9583908 C162.947854,57.5885112 162.947854,57.2172462 162.947854,56.8501372 C162.947854,55.5687189 162.965964,54.2789887 162.992307,52.9906438 C162.992307,52.6567824 163.008772,52.3243063 163.017004,51.9890595 C163.040054,51.1384749 163.072983,50.2878902 163.11579,49.4373055 C163.125669,49.2004163 163.13884,48.9649124 163.153658,48.7294085 C163.153658,48.5936474 163.16189,48.4578863 163.178355,48.3221252 C163.217869,47.8289524 163.250798,47.3399354 163.290313,46.8523038 Z" id="Path" transform="translate(171.473927, 64.457606) scale(-1, 1) translate(-171.473927, -64.457606) "></path>
                    <polygon id="Path" transform="translate(152.676557, 34.703073) scale(-1, 1) translate(-152.676557, -34.703073) " points="158.958537 28.992796 158.958537 46.2593881 146.394578 46.2593881 146.394578 28.992796 148.185901 28.992796 148.185901 23.146758 155.538888 23.146758 155.538888 28.992796"></polygon>
                    <rect id="Rectangle" transform="translate(152.675734, 56.432464) scale(-1, 1) translate(-152.675734, -56.432464) " x="146.394578" y="46.8509185" width="12.5623131" height="19.1630912"></rect>
                    <path d="M146.394578,66.6083107 L158.958537,66.6083107 L158.958537,82.5394571 C157.476498,82.8977709 155.966258,83.1676543 154.439068,83.3470969 L154.063681,83.3858858 C153.87928,83.4038949 153.696525,83.4191334 153.515417,83.4343719 C153.334309,83.4496104 153.146615,83.4606929 152.963861,83.4703902 L152.906235,83.4703902 C152.827206,83.4703902 152.741592,83.4787021 152.664209,83.4800874 L152.580241,83.4800874 C152.481455,83.4800874 152.382669,83.4883993 152.283882,83.4911699 L152.283882,83.4911699 C152.143935,83.4980965 152.003988,83.4994818 151.860748,83.5008671 C151.79983,83.5008671 151.742205,83.5008671 151.681286,83.5008671 C151.539693,83.5008671 151.399746,83.5008671 151.258152,83.5008671 L150.946976,83.5008671 C150.863007,83.5008671 150.782332,83.5008671 150.695071,83.5008671 L150.377308,83.4911699 C150.212665,83.4911699 150.03485,83.4759314 149.86362,83.4662342 L149.86362,83.4662342 L149.547504,83.4468398 L149.154006,83.4163628 C148.877404,83.395583 148.60245,83.369262 148.330787,83.3373997 L148.0015,83.2986108 L147.836856,83.2792164 C147.561901,83.2431982 147.290239,83.2044093 147.013638,83.1600791 C146.811126,83.1309875 146.610261,83.0949692 146.406103,83.0603363 L146.394578,66.6083107 Z" id="Path" transform="translate(152.676557, 75.054589) scale(-1, 1) translate(-152.676557, -75.054589) "></path>
                    <rect id="Rectangle" transform="translate(73.037584, 36.605806) scale(-1, 1) translate(-73.037584, -36.605806) " x="67.8578942" y="26.9536093" width="10.3593806" height="19.3043935"></rect>
                    <polygon id="Path" transform="translate(93.566182, 56.433157) scale(-1, 1) translate(-93.566182, -56.433157) " points="119.276117 46.8509185 119.276117 66.015395 67.8562478 66.015395 67.8562478 57.749208 95.2447245 57.749208 95.2447245 62.6255241 108.91509 62.6255241 108.91509 46.8509185"></polygon>
                    <path d="M119.276117,87.1553336 L119.111473,87.1553336 L119.111473,99.7270861 C117.256487,99.5950192 115.40699,99.4153897 113.562981,99.1881977 C105.261039,98.1655234 97.1679098,96.1785011 89.5151244,93.2839763 C87.3056061,92.4472448 85.1410905,91.5338591 83.0215775,90.5438192 C79.4811431,88.8934707 76.0891834,87.0270696 72.8729408,84.959606 C72.0650891,84.4387268 71.2676649,83.9058415 70.4806681,83.3609501 C69.9356975,82.9827585 69.3940198,82.5948698 68.8457563,82.2180635 C68.4654294,81.9590092 68.0818096,81.7041109 67.6932505,81.4602951 L67.6932505,66.6083107 L108.615438,66.6083107 C108.587449,66.5196504 108.559459,66.4309901 108.529823,66.3437151 C108.561106,66.4309901 108.590742,66.5196504 108.618731,66.6083107 L119.111473,66.6083107 L119.111473,87.1470217 C119.167452,87.148407 119.221784,87.152563 119.276117,87.1553336 Z" id="Path" transform="translate(93.484684, 83.035401) scale(-1, 1) translate(-93.484684, -83.035401) "></path>
                    <path d="M47.5902568,25.5156502 L40.8398657,25.5156502 L40.8398657,23.7507562 L43.8660166,23.7507562 L43.8660166,18.4934779 C44.1283489,18.5738263 44.3895835,18.6564835 44.6497206,18.7414497 L44.6497206,23.7507562 L47.5902568,23.7507562 L47.5902568,25.5156502 Z" id="Path" transform="translate(44.215061, 22.004564) scale(-1, 1) translate(-44.215061, -22.004564) "></path>
                    <path d="M63.8669313,46.2593881 L30.7274507,46.2593881 C30.7274507,46.2593881 30.7274507,46.2593881 30.7389757,46.2663147 L30.7241578,46.2593881 L24.5763627,46.2593881 L24.5763627,26.9549946 L26.3182928,26.9549946 L26.3182928,41.2237605 L34.2788149,41.2237605 L34.2788149,32.7733263 L40.8546837,32.7733263 L40.8546837,26.1085659 L47.6050747,26.1085659 L47.6050747,32.7788676 L54.1809434,32.7788676 L54.1809434,41.2293018 L63.8669313,41.2293018 L63.8669313,46.2593881 Z" id="Path" transform="translate(44.221647, 36.187440) scale(-1, 1) translate(-44.221647, -36.187440) "></path>
                    <path d="M13.8564124,46.8509185 L13.8564124,66.015395 L53.1469811,66.015395 L53.1469811,46.8509185 L13.8564124,46.8509185 Z M63.8125989,88.5738983 L63.8669313,73.4046763 L53.1469811,73.4046763 L53.1469811,66.6166226 L13.8564124,66.6166226 L13.8564124,99.9334983 C17.0776702,100.047361 20.3038819,100.01499 23.5209966,99.8365261 L23.5209966,99.8365261 L23.5769755,99.8365261 C25.1136499,99.7552542 26.6431897,99.6370405 28.165595,99.481885 L28.2001701,99.481885 C36.3221447,98.6865437 44.263922,96.9035253 51.7771456,94.1885884" id="Shape" transform="translate(38.861672, 73.425459) scale(-1, 1) translate(-38.861672, -73.425459) "></path>
                    <path d="M0.696442782,66.6083107 L9.86215665,66.6083107 C9.78148124,70.4996664 8.85289087,74.3217562 6.82118781,77.8515441 C5.13029718,80.7842603 2.78083182,83.3484823 0.00493931051,85.58854 L0.00493931051,73.3977497 L0.696442782,73.3977497 L0.696442782,66.6083107 Z" id="Path" transform="translate(4.933548, 76.098425) scale(-1, 1) translate(-4.933548, -76.098425) "></path>
                    <path d="M9.17065318,66.015395 L0,66.015395 L0,49.9997442 L4.96236062,49.9997442 C7.53080209,55.049225 9.16242099,60.5904933 9.17065318,66.015395 Z" id="Path" transform="translate(4.585327, 58.007570) scale(-1, 1) translate(-4.585327, -58.007570) "></path>
                    <rect id="Rectangle" transform="translate(70.631317, 35.346553) scale(-1, 1) translate(-70.631317, -35.346553) " x="67.8562478" y="32.3203277" width="5.55013858" height="6.05245032"></rect>
                    <rect id="Rectangle" transform="translate(70.631317, 45.562574) scale(-1, 1) translate(-70.631317, -45.562574) " x="67.8562478" y="44.8657591" width="5.55013858" height="1.39362898"></rect>
                    <rect id="Rectangle" transform="translate(70.631317, 48.883871) scale(-1, 1) translate(-70.631317, -48.883871) " x="67.8562478" y="46.8509185" width="5.55013858" height="4.06590563"></rect>
                    <rect id="Rectangle" transform="translate(70.631317, 60.437416) scale(-1, 1) translate(-70.631317, -60.437416) " x="67.8562478" y="57.4111906" width="5.55013858" height="6.05245032"></rect>
                    <rect id="Rectangle" transform="translate(70.631317, 72.982847) scale(-1, 1) translate(-70.631317, -72.982847) " x="67.8562478" y="69.9566221" width="5.55013858" height="6.05245032"></rect>
                    <path d="M73.2417427,87.1470217 C73.2977215,87.1470217 73.3520539,87.1470217 73.4063863,87.1553336 L73.2417427,87.1553336 L73.2417427,88.5614304 L67.6932505,88.5614304 L67.6932505,82.5020535 L73.2417427,82.5020535 L73.2417427,87.1470217 Z" id="Path" transform="translate(70.549818, 85.531742) scale(-1, 1) translate(-70.549818, -85.531742) "></path>
                    <path d="M73.4063863,95.0447144 L73.4063863,99.7201595 C71.5514008,99.5880926 69.7019035,99.4084632 67.8578942,99.1812712 L67.8578942,95.0447144 L73.4063863,95.0447144 Z" id="Path" transform="translate(70.632140, 97.382437) scale(-1, 1) translate(-70.632140, -97.382437) "></path>
                    <rect id="Rectangle" transform="translate(107.383080, 65.793052) scale(-1, 1) translate(-107.383080, -65.793052) " x="95.4900436" y="65.5707082" width="23.786073" height="1"></rect>
                    <rect id="Rectangle" transform="translate(107.383080, 67.458895) scale(-1, 1) translate(-107.383080, -67.458895) " x="95.4900436" y="66.6069254" width="23.786073" height="1.70394001"></rect>
                    <rect id="Rectangle" transform="translate(107.383080, 75.266542) scale(-1, 1) translate(-107.383080, -75.266542) " x="95.4900436" y="73.8964638" width="23.786073" height="2.74015718"></rect>
                    <path d="M118.125257,82.2222195 L118.125257,84.9623767 L99.520521,84.9623767 C98.7126693,84.4433445 97.9146963,83.9104592 97.1266018,83.3637207 C96.5816313,82.9855292 96.0416,82.5976404 95.4916901,82.2222195 L118.125257,82.2222195 Z" id="Path" transform="translate(106.808474, 83.592298) scale(-1, 1) translate(-106.808474, -83.592298) "></path>
                    <path d="M103.94779,90.5465898 L103.94779,93.2839763 L101.983591,93.2839763 C99.7762675,92.4463213 97.6123007,91.5324738 95.4916901,90.5424338 L103.94779,90.5465898 Z" id="Path" transform="translate(99.719740, 91.913205) scale(-1, 1) translate(-99.719740, -91.913205) "></path>
                    <rect id="Rectangle" transform="translate(51.859467, 50.678550) scale(-1, 1) translate(-51.859467, -50.678550) " x="49.5182343" y="48.7086287" width="4.68246636" height="3.93984177"></rect>
                    <rect id="Rectangle" transform="translate(153.243755, 32.321713) scale(-1, 1) translate(-153.243755, -32.321713) " x="150.902522" y="30.3517921" width="4.68246636" height="3.93984177"></rect>
                    <rect id="Rectangle" transform="translate(153.243755, 41.473118) scale(-1, 1) translate(-153.243755, -41.473118) " x="150.902522" y="39.5031967" width="4.68246636" height="3.93984177"></rect>
                    <rect id="Rectangle" transform="translate(153.243755, 50.624522) scale(-1, 1) translate(-153.243755, -50.624522) " x="150.902522" y="48.6546013" width="4.68246636" height="3.93984177"></rect>
                    <rect id="Rectangle" transform="translate(153.243755, 59.774542) scale(-1, 1) translate(-153.243755, -59.774542) " x="150.902522" y="57.8046206" width="4.68246636" height="3.93984177"></rect>
                    <rect id="Rectangle" transform="translate(153.243755, 68.925946) scale(-1, 1) translate(-153.243755, -68.925946) " x="150.902522" y="66.9560253" width="4.68246636" height="3.93984177"></rect>
                    <rect id="Rectangle" transform="translate(153.243755, 78.077351) scale(-1, 1) translate(-153.243755, -78.077351) " x="150.902522" y="76.1074299" width="4.68246636" height="3.93984177"></rect>
                    <rect id="Rectangle" transform="translate(33.984103, 50.678550) scale(-1, 1) translate(-33.984103, -50.678550) " x="31.6428696" y="48.7086287" width="4.68246636" height="3.93984177"></rect>
                    <rect id="Rectangle" transform="translate(51.859467, 60.396549) scale(-1, 1) translate(-51.859467, -60.396549) " x="49.5182343" y="58.426628" width="4.68246636" height="3.93984177"></rect>
                    <rect id="Rectangle" transform="translate(33.984103, 60.396549) scale(-1, 1) translate(-33.984103, -60.396549) " x="31.6428696" y="58.426628" width="4.68246636" height="3.93984177"></rect>
                    <rect id="Rectangle" transform="translate(51.859467, 70.113163) scale(-1, 1) translate(-51.859467, -70.113163) " x="49.5182343" y="68.143242" width="4.68246636" height="3.93984177"></rect>
                    <rect id="Rectangle" transform="translate(33.984103, 70.113163) scale(-1, 1) translate(-33.984103, -70.113163) " x="31.6428696" y="68.143242" width="4.68246636" height="3.93984177"></rect>
                    <rect id="Rectangle" transform="translate(51.859467, 79.831162) scale(-1, 1) translate(-51.859467, -79.831162) " x="49.5182343" y="77.8612413" width="4.68246636" height="3.93984177"></rect>
                    <rect id="Rectangle" transform="translate(33.984103, 79.831162) scale(-1, 1) translate(-33.984103, -79.831162) " x="31.6428696" y="77.8612413" width="4.68246636" height="3.93984177"></rect>
                    <rect id="Rectangle" transform="translate(51.859467, 89.549162) scale(-1, 1) translate(-51.859467, -89.549162) " x="49.5182343" y="87.5792406" width="4.68246636" height="3.93984177"></rect>
                    <rect id="Rectangle" transform="translate(33.984103, 89.549162) scale(-1, 1) translate(-33.984103, -89.549162) " x="31.6428696" y="87.5792406" width="4.68246636" height="3.93984177"></rect>
                    <polygon id="Path" transform="translate(51.860291, 98.566190) scale(-1, 1) translate(-51.860291, -98.566190) " points="49.5198807 99.8365261 49.5198807 97.2958546 54.2007007 97.2958546 54.2007007 99.4749584"></polygon>
                    <path d="M162.947854,41.3345859 L162.947854,43.5884968 L178.972623,43.5884968 L178.972623,41.3345859 L162.947854,41.3345859 Z M164.544897,43.4471944 L163.237627,43.4471944 L163.237627,41.4731176 L164.554776,41.4731176 L164.544897,43.4471944 Z M166.140295,43.4471944 L164.823145,43.4471944 L164.823145,41.4731176 L166.140295,41.4731176 L166.140295,43.4471944 Z M167.732399,43.4471944 L166.41525,43.4471944 L166.41525,41.4731176 L167.732399,41.4731176 L167.732399,43.4471944 Z M169.327796,43.4471944 L168.012293,43.4471944 L168.012293,41.4731176 L169.329443,41.4731176 L169.327796,43.4471944 Z M170.921547,43.4471944 L169.604398,43.4471944 L169.604398,41.4731176 L170.921547,41.4731176 L170.921547,43.4471944 Z M172.516945,43.4471944 L171.199795,43.4471944 L171.199795,41.4731176 L172.516945,41.4731176 L172.516945,43.4471944 Z M174.112342,43.4471944 L172.795192,43.4471944 L172.795192,41.4731176 L174.112342,41.4731176 L174.112342,43.4471944 Z M175.706093,43.4471944 L174.388943,43.4471944 L174.388943,41.4731176 L175.706093,41.4731176 L175.706093,43.4471944 Z M177.299844,43.4471944 L175.982694,43.4471944 L175.982694,41.4731176 L177.299844,41.4731176 L177.299844,43.4471944 Z M178.893594,43.4471944 L177.576445,43.4471944 L177.576445,41.4731176 L178.893594,41.4731176 L178.893594,43.4471944 Z" id="Shape" transform="translate(170.960239, 42.461541) scale(-1, 1) translate(-170.960239, -42.461541) "></path>
                    <path d="M162.947854,47.8926769 L162.947854,50.1465878 L178.972623,50.1465878 L178.972623,47.8926769 L162.947854,47.8926769 Z M164.544897,50.0039002 L163.237627,50.0039002 L163.237627,48.0353646 L164.554776,48.0353646 L164.544897,50.0039002 Z M166.140295,50.0039002 L164.823145,50.0039002 L164.823145,48.0353646 L166.140295,48.0353646 L166.140295,50.0039002 Z M167.732399,50.0039002 L166.41525,50.0039002 L166.41525,48.0353646 L167.732399,48.0353646 L167.732399,50.0039002 Z M169.327796,50.0039002 L168.012293,50.0039002 L168.012293,48.0353646 L169.329443,48.0353646 L169.327796,50.0039002 Z M170.921547,50.0039002 L169.604398,50.0039002 L169.604398,48.0353646 L170.921547,48.0353646 L170.921547,50.0039002 Z M172.516945,50.0039002 L171.199795,50.0039002 L171.199795,48.0353646 L172.516945,48.0353646 L172.516945,50.0039002 Z M174.112342,50.0039002 L172.795192,50.0039002 L172.795192,48.0353646 L174.112342,48.0353646 L174.112342,50.0039002 Z M175.706093,50.0039002 L174.388943,50.0039002 L174.388943,48.0353646 L175.706093,48.0353646 L175.706093,50.0039002 Z M177.299844,50.0039002 L175.982694,50.0039002 L175.982694,48.0353646 L177.299844,48.0353646 L177.299844,50.0039002 Z M178.893594,50.0039002 L177.576445,50.0039002 L177.576445,48.0353646 L178.893594,48.0353646 L178.893594,50.0039002 Z" id="Shape" transform="translate(170.960239, 49.019632) scale(-1, 1) translate(-170.960239, -49.019632) "></path>
                    <path d="M162.947854,54.4535386 L162.947854,56.7116055 L178.972623,56.7116055 L178.972623,54.4535386 L162.947854,54.4535386 Z M164.544897,56.5647619 L163.237627,56.5647619 L163.237627,54.594841 L164.554776,54.594841 L164.544897,56.5647619 Z M166.140295,56.5647619 L164.823145,56.5647619 L164.823145,54.594841 L166.140295,54.594841 L166.140295,56.5647619 Z M167.732399,56.5647619 L166.41525,56.5647619 L166.41525,54.594841 L167.732399,54.594841 L167.732399,56.5647619 Z M169.327796,56.5647619 L168.012293,56.5647619 L168.012293,54.594841 L169.329443,54.594841 L169.327796,56.5647619 Z M170.921547,56.5647619 L169.604398,56.5647619 L169.604398,54.594841 L170.921547,54.594841 L170.921547,56.5647619 Z M172.516945,56.5647619 L171.199795,56.5647619 L171.199795,54.594841 L172.516945,54.594841 L172.516945,56.5647619 Z M174.112342,56.5647619 L172.795192,56.5647619 L172.795192,54.594841 L174.112342,54.594841 L174.112342,56.5647619 Z M175.706093,56.5647619 L174.388943,56.5647619 L174.388943,54.594841 L175.706093,54.594841 L175.706093,56.5647619 Z M177.299844,56.5647619 L175.982694,56.5647619 L175.982694,54.594841 L177.299844,54.594841 L177.299844,56.5647619 Z M178.893594,56.5647619 L177.576445,56.5647619 L177.576445,54.594841 L178.893594,54.594841 L178.893594,56.5647619 Z" id="Shape" transform="translate(170.960239, 55.582572) scale(-1, 1) translate(-170.960239, -55.582572) "></path>
                </g>
                <g id="Group-40" transform="translate(12.316855, 119.209926)" fill="#3F3D56">
                    <path d="M166.048246,9.45003367 C119.055397,-1.21605256 76.4436537,-0.647855239 48.9719585,1.70711298 C19.2098183,4.25837143 0.324198409,9.39578045 0.136984625,9.44736124 L0,9.19186018 C0.187771059,9.1401453 19.1178336,3.99057693 48.9266685,1.43530231 C66.4608405,-0.0659406721 84.152175,-0.390420724 101.770465,0.466084413 C123.642201,1.5275351 145.259249,4.45592623 166.163424,9.18918912 L166.048246,9.45003367 Z" id="Path"></path>
                </g>
                <g id="Group-39" transform="translate(103.765339, 83.381264) scale(-1, 1) translate(-103.765339, -83.381264) translate(90.482683, 42.664653)">
                    <polygon id="Path" fill="#A0616A" points="6.54394637 79.3802828 8.46298066 79.3802828 9.3759926 70.8752525 6.5436615 70.8754162"></polygon>
                    <path d="M6.5436615,78.4354532 L10.5800025,78.4352794 L10.5801653,78.4352794 C12.0007428,78.4353601 13.1523358,79.6645208 13.1524341,81.1808081 L13.1524341,81.2700281 L6.54379081,81.2702895 L6.5436615,78.4354532 Z" id="Path" fill="#2F2E41"></path>
                    <polygon id="Path" fill="#A0616A" points="20.7056019 79.3802828 22.6246361 79.3802828 23.5376481 70.8752525 20.705317 70.8754162"></polygon>
                    <path d="M19.7612066,78.4354532 L23.7975477,78.4352794 L23.7977104,78.4352794 C25.2182879,78.4353601 26.3698809,79.6645208 26.3699792,81.1808081 L26.3699792,81.2700281 L19.7613359,81.2702895 L19.7612066,78.4354532 Z" id="Path" fill="#2F2E41"></path>
                    <polygon id="Path" fill="#555377" points="4.65544077 77.4902761 10.0673033 77.4902761 13.5262993 47.6994975 19.8860636 77.4902761 23.5376481 77.4902761 23.5376481 41.9657911 6.17614609 36.8551313"></polygon>
                    <ellipse id="Oval" fill="#C9A0A0" cx="14.0965444" cy="5.6700202" rx="4.72055183" ry="4.72501683"></ellipse>
                    <path d="M6.32381656,37.2717833 C11.4571946,41.1567076 17.1234806,43.1149047 23.5376481,42.3685822 C20.8286671,33.1642219 20.0251477,24.0295705 22.6384191,15.0199109 L17.2430401,12.6579792 L11.1782443,12.2850438 L6.77032192,13.5396156 C5.49570524,13.9028022 4.62980239,15.0463872 4.65602018,16.3319422 C4.81164945,24.0155384 4.28375738,31.2063138 6.32381656,37.2717833 Z" id="Path" fill="#E6E6E6"></path>
                    <path d="M9.75932992,3.45046603 C10.1950774,2.55846071 10.7487227,0.780701942 11.6282001,0.450995609 C12.1166141,0.275280695 12.6214132,0.158602008 13.1334259,0.103079452 L14.6283122,0.726912076 L13.8147236,0.040350981 C13.9731239,0.030110982 14.131437,0.0217396509 14.2896627,0.0152369878 L15.2982926,0.436139376 L14.7822675,0.000673003094 C15.7225889,-0.00979788837 16.6932073,0.0962866931 17.4218084,0.717379286 C18.0429763,1.24685925 18.6583867,3.25264126 18.7579029,4.10284858 C18.8642731,4.91619656 18.8270375,5.7440767 18.6481825,6.54232248 L18.3927541,6.80585149 C18.3033956,6.58356012 18.2362118,6.35153416 18.1923496,6.11373444 C18.0071939,5.2153447 17.4823846,4.44284267 16.746243,3.98511281 L16.7323364,3.97660208 C16.3039209,3.71499772 15.7840951,3.72705902 15.2928013,3.74624409 L12.9595251,3.83734004 C12.3981595,3.85926029 11.7936705,3.89779833 11.3560316,4.27985912 C11.0604294,4.53787739 10.8833173,4.91876918 10.7149077,5.28757223 C10.4974462,5.7638 10.0724787,7.56002693 10.0724787,7.56002693 C10.0724787,7.56002693 9.83205074,7.22096219 9.71681383,7.47332117 C9.53200981,6.81489875 9.41965325,6.13506487 9.38208705,5.44799565 C9.3453231,4.75786631 9.47536416,4.06928901 9.75932992,3.45046603 L9.75932992,3.45046603 Z" id="Path" fill="#2F2E41"></path>
                    <path d="M9.37589468,40.8257144 C9.37376839,40.3310323 9.16850756,39.8627733 8.81534419,39.5469375 C8.46218083,39.2311017 7.99739313,39.100133 7.54604714,39.1892725 L4.83140124,34.0201212 L3.7113304,36.4951664 L6.30567232,41.2558858 C6.49906667,42.0815366 7.2347119,42.6207526 8.01801401,42.5110043 C8.80131612,42.401256 9.38468009,41.677234 9.37589468,40.8257177 L9.37589468,40.8257144 Z" id="Path" fill="#C9A0A0"></path>
                    <path d="M21.8463988,46.4230301 C21.6143983,46.0206494 21.5858977,45.5433368 21.7685661,45.1195277 C21.9512346,44.6957185 22.3263078,44.3689475 22.7928611,44.2271422 L22.9001943,38.745138 L25.4258688,40.3567452 L24.9367379,45.3154701 C25.1454535,46.0771311 24.7088135,46.8636422 23.9203821,47.1462119 C23.1319506,47.4287816 22.2409432,47.1180924 21.8464068,46.4230286 L21.8463988,46.4230301 Z" id="Path" fill="#C9A0A0"></path>
                    <path d="M5.29313741,39.6901414 L7.32416079,37.8046233 L6.28184941,27.6228278 L7.48777187,13.2300471 L7.48777187,13.2300471 C4.86815866,14.0453251 2.05538545,16.2353875 1.59209435,18.9155685 L-0.0651110597,28.5027411 L5.29313741,39.6901414 Z" id="Path" fill="#E6E6E6"></path>
                    <polygon id="Path" fill="#000000" opacity="0.2" points="6.52355908 22.6800808 4.65544077 29.3212296 7.48777187 38.745138 5.66132358 29.8320872"></polygon>
                    <path d="M22.944835,43.0993317 L26.3699792,43.4701549 L25.5680047,19.6054925 C25.4948176,17.4276306 24.0713665,15.4910332 21.9277728,14.6529771 L20.705317,14.1750505 L21.0346623,25.3615798 L22.944835,43.0993317 Z" id="Path" fill="#E6E6E6"></path>
                    <polygon id="Path" fill="#000000" opacity="0.2" points="21.4784446 25.5150909 22.5935377 39.6901414 20.705317 25.6139374"></polygon>
                </g>
                <g id="Group-32" transform="translate(66.603201, 90.859825) scale(-1, 1) translate(-66.603201, -90.859825) translate(49.137160, 53.059690)">
                    <rect id="Rectangle" fill="#CCCCCC" x="5.66466219" y="34.0201212" width="14.1616555" height="17.0100606"></rect>
                    <path d="M13.426341,70.9853302 L13.219942,74.4252924 C13.2010382,74.7403098 13.2946293,75.0499361 13.4766854,75.2746735 C13.6587415,75.4994108 13.9115294,75.6173688 14.170145,75.5982612 L15.6194899,75.4912433 C15.7554494,75.4811739 15.8806846,75.3978777 15.961217,75.2639546 C16.0417494,75.1300315 16.0692282,74.9593685 16.0361979,74.7982697 L15.2316882,70.8752525 L13.426341,70.9853302 Z" id="Path" fill="#E6E6E6"></path>
                    <path d="M27.6161666,72.9504122 C29.6012835,73.4330695 31.0193615,74.119117 31.9509197,75.0476002 C32.2826665,75.3757346 32.7167508,75.5691419 33.1741519,75.5926143 C33.7584061,75.6245511 34.2361264,75.5564831 34.5951445,75.3898082 L34.5952017,75.3898082 C34.7824719,75.3039975 34.9102039,75.1193367 34.92882,74.9074996 C34.950984,74.6923013 34.8590848,74.4815434 34.6887822,74.3570068 L29.9807724,70.8752525 L27.9809644,71.7067643 L27.5144589,72.1916359 C27.4120748,72.298078 27.3636414,72.448263 27.3836241,72.5973357 C27.4036067,72.7464085 27.4896925,72.877114 27.6161705,72.9504148 L27.6161666,72.9504122 Z" id="Path" fill="#E6E6E6"></path>
                    <path d="M20.7633771,16.0650572 L6.60877256,15.9272092 C6.64436587,13.7588083 7.1240379,11.6294947 8.17254772,9.72407114 C8.8611725,8.47265766 8.84629505,7.11074469 8.68034359,5.96335951 C8.42424639,4.19271292 9.01977348,2.38107934 10.3431043,1.25393595 C11.3543984,0.391062347 12.6307647,-0.0531126685 13.9318021,0.00507044079 L14.2066498,0.0171156749 C16.0259057,0.0966360879 17.6817428,1.14410113 18.6012379,2.79708567 C19.0611458,3.66547077 19.2466165,4.66517301 19.1308445,5.65170912 C19.041128,6.57996131 19.2558028,7.51766858 19.7579488,8.46430643 C20.6242767,10.5429853 20.8118772,13.2029234 20.7633771,16.0650572 Z" id="Path" fill="#2F2E41"></path>
                    <path d="M30.2115317,71.0898805 L27.457689,71.8202559 L14.0476753,42.1183223 L14.8858045,71.0898805 L12.1319591,71.0898805 C9.18929606,57.459549 3.8765021,41.7286945 6.26507877,36.762236 L20.5132176,35.9101279 L30.2115317,71.0898805 Z" id="Path" fill="#00BFB3"></path>
                    <ellipse id="Oval" fill="#9F616A" cx="14.1616555" cy="7.56002693" rx="3.77644146" ry="3.78001347"></ellipse>
                    <path d="M16.9939866,14.1750505 L11.3293244,13.7812981 C11.8844726,12.2756386 12.1062302,10.8257538 11.8846829,9.45003367 L16.105412,9.45003367 C16.0958469,10.5063156 16.5406764,12.333488 16.9939866,14.1750505 Z" id="Path" fill="#9F616A"></path>
                    <polygon id="Path" fill="#00BFB3" points="20.770428 36.8280544 7.55288293 37.8001347 8.90999901 13.6823756 11.2113094 13.014104 13.8075826 13.621587 16.4038558 12.2850438 18.0560653 12.8926612"></polygon>
                    <path d="M10.520826,54.8101953 L0.944110366,52.6531218 C3.79176709,43.3551338 8.92195704,22.0840655 7.26600086,14.5037476 L12.2734348,12.2850438 L10.520826,54.8101953 Z" id="Path" fill="#E6E6E6"></path>
                    <path d="M6.58516915,27.0743465 L3.16276973,24.8163737 L6.08147293,15.7299414 C6.76336559,14.7640063 6.45230028,15.0044933 7.26600086,14.5037476 L8.87322631,13.8297747 L8.23736229,22.0566264 L6.58516915,27.0743465 Z" id="Path" fill="#E6E6E6"></path>
                    <path d="M28.323311,52.8051477 C25.502404,54.5178064 18.4510877,55.4725101 15.3550096,54.2763769 C15.1271867,45.9204299 14.6803902,22.2845955 16.1144143,12.2850438 L21.255002,14.4918876 L20.7876758,21.112419 C18.3300565,26.7759233 25.4664503,46.5019475 28.323311,52.8051477 Z" id="Path" fill="#E6E6E6"></path>
                    <polygon id="Path" fill="#E6E6E6" points="27.649594 26.4600943 24.5597092 25.3761041 20.4399894 20.4379565 21.1266727 14.1750505 27.9928723 24.292114"></polygon>
                    <path d="M18.9041797,30.633026 C19.0124749,31.0143895 19.48489,31.253512 19.960395,31.167651 L22.6586488,30.6772667 L22.2686764,29.2951044 L19.5703666,29.7853956 C19.0947785,29.8718748 18.7965451,30.251336 18.904181,30.633026 L18.9041797,30.633026 Z" id="Path" fill="#9F616A"></path>
                    <path d="M17.2300168,6.61502357 C15.197981,5.84299821 13.1910626,5.78713334 11.2113139,6.50598532 L10.385214,3.78001347 L17.9380969,3.78001347 L17.2300168,6.61502357 Z" id="Path" fill="#2F2E41"></path>
                    <path d="M20.770428,29.2951044 L22.3046067,32.1301145 C24.8850714,31.4097249 27.1214481,29.1386481 29.2674213,26.4600943 L28.6773517,24.5700875 L25.0189247,25.5150909 L20.770428,29.2951044 Z" id="Path" fill="#E6E6E6"></path>
                    <path d="M19.8263177,22.6800808 L19.421699,22.6800808 C19.421699,15.7299124 18.2434049,10.8864388 17.0951418,10.8864388 L16.9939866,10.395037 C18.0237562,10.395037 18.6802771,12.410849 19.0496786,14.1019648 C19.5505136,16.3945538 19.8263177,19.4409794 19.8263177,22.6800808 Z" id="Path" fill="#3F3D56"></path>
                    <path d="M9.01788744,21.7350774 L8.49699329,21.7350774 C8.49699329,15.3231971 10.0243694,11.3400404 12.2734348,11.3400404 L12.1432119,11.8350422 C10.5875464,11.8350422 9.01788744,14.8962343 9.01788744,21.7350774 Z" id="Path" fill="#3F3D56"></path>
                    <ellipse id="Oval" fill="#3F3D56" cx="19.8263177" cy="23.6250842" rx="1" ry="1"></ellipse>
                    <path d="M7.02837717,24.5700875 L6.60877256,24.5700875 C6.60877256,23.0068596 7.45581837,21.7350774 8.49699329,21.7350774 L8.49699329,22.1712328 C7.68718555,22.1712328 7.02837717,23.2473528 7.02837717,24.5700875 Z" id="Path" fill="#3F3D56"></path>
                    <path d="M10.385214,24.5700875 L9.96560942,24.5700875 C9.96560942,23.2473545 9.30680104,22.1712359 8.49699329,22.1712359 L8.49699329,21.7350774 C9.53816821,21.7350774 10.385214,23.0068616 10.385214,24.5700875 Z" id="Path" fill="#3F3D56"></path>
                    <ellipse id="Oval" fill="#3F3D56" cx="10.8572692" cy="25.0425892" rx="1" ry="1"></ellipse>
                    <ellipse id="Oval" fill="#3F3D56" cx="6.13671738" cy="25.0425892" rx="1" ry="1"></ellipse>
                    <polygon id="Path" fill="#00BFB3" points="0.944110366 19.8450707 3.81756731 20.3864593 10.385214 30.2401077 6.89608002 29.3738322"></polygon>
                    <path d="M0.239644837,19.8450707 C0.150859513,19.8465238 0.0698529476,19.9004579 0.0282939383,19.9857879 C-0.0132650709,20.0711179 -0.00877580381,20.174291 0.0400067006,20.2549726 L6.15175665,30.3387368 C6.18586115,30.3951099 6.23854029,30.4351223 6.29895219,30.4505389 L9.14256811,31.1780713 C9.24072677,31.2031943 9.34295099,31.1597498 9.39943121,31.0689065 C9.45591144,30.9780633 9.45489838,30.8587188 9.39688565,30.7690248 L2.68656006,20.3936122 C2.64980762,20.3365226 2.59369434,20.2976601 2.53057841,20.2855835 L0.285482311,19.849574 C0.27035325,19.8466214 0.255015558,19.8450707 0.239644837,19.8450707 Z" id="Path" fill="#3F3D56"></path>
                    <path d="M3.77644146,26.7179785 L3.95339428,28.350101 L6.74570414,28.0962866 C7.23789016,28.051556 7.59728653,27.6499317 7.54843842,27.1992335 C7.49959031,26.7485354 7.06099551,26.4194336 6.56880948,26.4641641 L3.77644146,26.7179785 Z" id="Path" fill="#9F616A"></path>
                    <path d="M1.88822073,27.0083077 C1.8959477,28.2726926 2.83619214,29.2936401 3.9942525,29.2951044 L4.41456303,29.2951044 L4.72055183,26.5109382 L2.18700446,25.5150909 L1.88822073,27.0083077 Z" id="Path" fill="#E6E6E6"></path>
                </g>
                <g id="Group-30" transform="translate(109.543945, 74.843647)">
                    <path d="M33.2331084,36.4357963 C33.0108302,36.2728027 32.7826069,36.1215918 32.5504274,35.9782361 C32.4107523,35.8879023 32.2671544,35.8034599 32.1235487,35.7209812 C32.1039522,35.7091986 32.0842928,35.697412 32.0645704,35.6856215 C31.3439322,35.2778285 30.5864851,34.9385661 29.8022265,34.6723123 C29.0415895,34.4133484 28.2585411,34.2253305 27.4631321,34.1106719 C27.4508468,34.107753 27.4383545,34.1057834 27.425766,34.1047805 C27.2113647,34.0733601 26.9949489,34.047831 26.7766091,34.030157 C26.6251304,34.0144468 26.4716274,34.0026739 26.3182228,33.9967728 C26.1214972,33.9830263 25.9247717,33.9751712 25.7241116,33.9732075 C25.6650349,33.9712417 25.6041346,33.9712417 25.5431379,33.9712417 C24.9005571,33.9708932 24.2588124,34.0174938 23.6230473,34.1106719 C23.4833721,34.1303097 23.3437127,34.1519112 23.2059655,34.1754765 C23.1135595,34.1931505 23.0230717,34.2108344 22.9325858,34.2284985 C22.5568098,34.3050859 22.1876294,34.3960742 21.8250445,34.5014636 C21.6597301,34.550558 21.4964322,34.6016163 21.3332306,34.656602 C21.1128744,34.7292618 20.8964586,34.8078129 20.6820572,34.8942191 C20.4911921,34.9668789 20.3042635,35.0473938 20.1193533,35.1298724 C18.595973,35.8152242 17.2157694,36.781272 16.0511298,37.9773498 C15.5908521,38.4468883 15.1666785,38.9503866 14.7822125,39.4835672 C14.5992224,39.7368945 14.4254547,39.9974223 14.2609095,40.2651506 C13.9568235,40.7537277 13.6860335,41.2621866 13.4503766,41.7870782 C12.9689527,42.8536027 12.6328352,43.9797032 12.4509931,45.1353307 C12.3433696,45.8187127 12.2894453,46.5094495 12.2897125,47.2012246 C12.2897125,47.3269064 12.2916336,47.4525882 12.295572,47.5763062 C12.3729306,50.4431859 13.3878987,53.2060554 15.185555,55.4431989 C15.3782457,55.6867073 15.5809281,55.9223606 15.7913891,56.1501588 C16.0019464,56.377957 16.2202862,56.5998639 16.4465009,56.8119519 C16.7239154,57.075098 17.0111269,57.322534 17.3081352,57.5601511 C21.0221274,60.5104244 26.0353229,61.2471713 30.4435007,59.4905444 C30.7425235,59.3727177 31.0356957,59.2450722 31.3208966,59.1036802 C31.1085143,58.8719545 30.9065697,58.6310644 30.7150626,58.3810101 C30.4297731,58.514547 30.1405433,58.636311 29.8435349,58.7462825 C25.6662281,60.2969966 20.9757156,59.4763266 17.5757509,56.5998639 C17.3160121,56.3799208 17.0622283,56.148195 16.8222782,55.9066504 C16.5527406,55.6376129 16.2950183,55.3567927 16.0530498,55.0641899 C15.8445089,54.8147901 15.6438449,54.5555715 15.4570127,54.2884977 C12.1830487,49.6606206 12.5023401,43.3983189 16.2300831,39.1261715 C16.3402612,38.9985338 16.4523948,38.8748158 16.5664838,38.7550175 C16.8006718,38.5095453 17.0426403,38.2719282 17.2944077,38.0460938 C18.4776729,36.9807698 19.8565781,36.1544916 21.354835,35.6129735 C21.3685724,35.6070821 21.3843262,35.6031546 21.3980615,35.5972633 C21.4453229,35.5795893 21.4945043,35.563879 21.5436857,35.546205 C22.0108161,35.3864258 22.4870829,35.2546184 22.9699459,35.1514858 C23.1450573,35.114174 23.3220847,35.0807898 23.4991259,35.0513331 C23.5030604,35.0513331 23.5049844,35.0493693 23.5089228,35.0493693 C24.0090064,34.9676575 24.513535,34.9158524 25.0198105,34.8942309 C25.1929054,34.8863758 25.3680147,34.8824482 25.54313,34.8824482 C25.7595478,34.8824482 25.9778935,34.8883396 26.192287,34.902086 C26.3456896,34.9079773 26.5011107,34.91976 26.6525933,34.9335064 C26.7864021,34.9452891 26.9202089,34.9590356 27.0520012,34.9767096 C28.5845417,35.1625944 30.067835,35.6370548 31.423188,36.3749192 C31.7730192,36.5639905 32.1131371,36.7704461 32.4422618,36.9935091 C32.7058426,37.1722128 32.9635649,37.3607355 33.2114883,37.5571132 C33.4671941,37.3705544 33.7327933,37.1938144 34.0042509,37.0288571 C33.7544114,36.8206966 33.4966892,36.6203913 33.2331084,36.4357963 Z" id="Path" fill="#3F3D56"></path>
                    <path d="M27.1707888,16.9611811 L26.4511511,29.242127 L12.3187516,29.242127 C11.0924448,29.2303314 9.90631768,29.6807272 8.99464855,30.5043545 C8.17606949,31.2547866 7.66743463,32.2861068 7.56916069,33.3947078 L9.18145279,33.9712417 C9.17883428,33.7851681 9.19784658,33.5994231 9.23810405,33.4177742 C9.34987418,32.9304128 9.65916743,32.0433157 10.4905733,31.5451914 C10.8560953,31.3366757 11.2706531,31.2304873 11.6909846,31.2377077 L27.709746,31.2377077 L28.6100544,18.4155879 L34.0042509,18.4155879 L34.0042509,16.9611811 L27.1707888,16.9611811 Z" id="Path" fill="#3F3D56"></path>
                    <path d="M40.6130235,23.5762047 L40.609096,23.6713555 L40.1731986,35.0059529 L40.1378179,35.9069728 C40.0101924,35.9030891 39.8825689,35.9011472 39.7529247,35.9011472 C39.5016064,35.9011472 39.2522074,35.9089185 39.0047276,35.9244611 C37.7917329,35.9939009 36.596192,36.2433043 35.4581999,36.6643072 C35.1636388,36.773051 34.8730052,36.8934459 34.5902422,37.02355 C34.14568,37.227731 33.7141562,37.4585948 33.298085,37.7148498 C33.0271124,37.8779655 32.7619838,38.0527323 32.5067387,38.2372083 C31.4200836,39.0219825 30.469672,39.9762235 29.6926922,41.0625931 C29.4203941,41.440702 29.1718401,41.8349934 28.9484345,42.2432399 L27.9096156,42.2529492 L20.8165602,42.3306233 L16.6986487,42.3772278 L16.6966359,42.3772278 L13.7942682,42.4082974 L12.7809485,42.4199486 L12.7082665,42.4199486 L11.7833446,42.4296675 L9.78623586,42.4529698 L8.85738645,42.462679 L7.56916069,42.476272 L8.37229927,34.9690674 L15.3770433,35.3516125 L16.6180941,35.4195773 L16.9441045,35.437054 L19.999697,35.6040534 L20.655557,35.6390067 L22.2775598,35.728332 L22.821516,35.7574598 L25.4588552,35.9011569 L25.5000938,35.6118208 L25.5786238,35.0525671 L25.6257987,34.7166265 L25.8791213,32.9087611 L25.9595699,32.3417399 L26.0734826,31.5281034 L26.0734826,31.5222779 L26.0833582,31.4484874 L26.34647,29.5765506 L26.5604864,28.0638469 L26.7588733,26.6560033 L26.7588733,26.6501778 L27.07501,24.3879188 L27.128031,24.0170248 L27.752534,23.9956644 L30.1796921,23.9179903 L31.2518946,23.8830369 L34.6236219,23.7723513 L39.3268184,23.6189449 L39.328737,23.6189449 L39.7175577,23.6053636 L39.8098967,23.6014798 L39.8118133,23.6014798 L40.6130235,23.5762047 Z" id="Path" fill="#2F2E41"></path>
                    <ellipse id="Oval" fill="#3F3D56" cx="40.1409683" cy="47.6737905" rx="2.36027591" ry="2.36250842"></ellipse>
                    <ellipse id="Oval" fill="#3F3D56" cx="23.6190369" cy="47.6737905" rx="1.88822073" ry="1.41750505"></ellipse>
                    <path d="M34.779474,34.9120496 C34.483185,35.027932 34.1909179,35.1575632 33.9044873,35.2970149 C33.4027549,35.5420072 32.9171774,35.8188562 32.4507243,36.1258686 C32.1800094,36.3006743 31.917121,36.4866099 31.6620591,36.6836754 C30.4222489,37.6309638 29.3584291,38.7890811 28.5191696,40.1051522 L29.6178272,40.1051522 C30.3940617,39.0063272 31.3435627,38.0411458 32.4291772,37.2473745 C32.6841809,37.0607842 32.9490508,36.8840145 33.2197631,36.7190294 C33.6354343,36.4598375 34.0665435,36.2263278 34.5106785,36.0198068 C34.7931736,35.8882115 35.083524,35.7664368 35.3778021,35.6564467 C36.5147005,35.2306188 37.7090925,34.978357 38.9209215,34.9081214 L38.9209215,33.9928469 C37.499681,34.0716336 36.1008112,34.3821156 34.779474,34.9120496 L34.779474,34.9120496 Z M27.5657381,41.8905268 L28.5682199,41.8905268 C28.6643958,41.6901877 28.7664161,41.4918128 28.8742808,41.2993301 L27.8364602,41.3091507 C27.7402764,41.4996692 27.650039,41.6941159 27.5657381,41.8905268 L27.5657381,41.8905268 Z M40.5276718,34.0007033 C40.3825437,33.9889187 40.2354046,33.9830264 40.0882656,33.9790981 C39.948974,33.9732058 39.8096981,33.9712417 39.6684034,33.9712417 C39.4173274,33.9712417 39.1680719,33.9790981 38.9209254,33.9928469 C37.4996849,34.0716336 36.1008151,34.3821156 34.7794779,34.9120496 C34.483189,35.027932 34.1909218,35.1575632 33.9044912,35.2970149 C33.4027589,35.5420072 32.9171813,35.8188562 32.4507282,36.1258686 C32.1800133,36.3006743 31.9171249,36.4866099 31.662063,36.6836754 C30.052001,37.9140726 28.743589,39.4960477 27.8364484,41.3091507 C27.7402705,41.4996692 27.6500331,41.6941159 27.5657342,41.8905268 C27.2750768,42.5478973 27.0401305,43.2285659 26.8633769,43.9253431 C26.7466218,44.3768997 26.6549342,44.834583 26.588735,45.2962907 C26.5298232,45.7008971 26.4899413,46.1100863 26.4690894,46.5238585 C26.4573065,46.7497309 26.451368,46.9756034 26.451368,47.20344 C26.4516856,47.7048126 26.4798602,48.2057794 26.5357611,48.7040188 C26.7999565,51.0234677 27.6746677,53.2310717 29.0704622,55.1011198 C29.2607071,55.3564539 29.4609162,55.6058839 29.6687884,55.8455169 C33.5856036,60.3886831 40.066489,61.7229581 45.4561342,59.0957921 C50.8457794,56.4686262 53.7936895,50.5383138 52.6372019,44.6496344 C51.4807144,38.760955 46.5096126,34.3894474 40.5276679,34.0007033 L40.5276718,34.0007033 Z M39.6684133,59.5223293 C36.1889781,59.5240018 32.8723781,58.046923 30.543781,55.4585876 C30.3319819,55.2268228 30.1305917,54.9858921 29.9396105,54.7357957 C28.3577078,52.6990568 27.4588999,50.2140738 27.3714793,47.6355438 C27.3656369,47.4921639 27.3636258,47.348784 27.3636258,47.20344 C27.3617981,45.3644027 27.7735109,43.5485432 28.5682375,41.8905268 C28.6644135,41.6901877 28.7664338,41.4918128 28.8742985,41.2993301 C29.0974894,40.8864048 29.3458045,40.4875945 29.617841,40.1051522 C30.3940755,39.0063272 31.3435764,38.0411458 32.429191,37.2473745 C32.6841947,37.0607842 32.9490645,36.8840145 33.2197768,36.7190294 C33.6354481,36.4598375 34.0665572,36.2263278 34.5106922,36.0198068 C34.7931873,35.8882115 35.0835378,35.7664368 35.3778158,35.6564467 C36.5147142,35.2306188 37.7091062,34.978357 38.9209352,34.9081214 C39.1680817,34.8924086 39.4172411,34.8845403 39.6684133,34.8845403 C39.797925,34.8845403 39.9254259,34.8865044 40.0529366,34.8904327 C40.2118585,34.896325 40.3707784,34.9041814 40.5276895,34.914002 C47.140876,35.3764147 52.1994503,41.0007251 51.9678432,47.6335888 C51.7362362,54.2664526 46.2977096,59.523381 39.6684133,59.5223293 Z M27.3714793,47.6355438 C27.3656369,47.4921639 27.3636319,47.348784 27.3636319,47.20344 C27.3617981,45.3644027 27.7735109,43.5485432 28.5682375,41.8905268 L27.5657381,41.8905268 C27.2750807,42.5478973 27.0401344,43.2285659 26.8633808,43.9253431 C26.8934435,44.0527822 26.9085863,44.1832916 26.9085034,44.3142365 C26.908683,44.6672606 26.7966977,45.0111919 26.5887429,45.2962907 C26.529831,45.7008971 26.4899492,46.1100863 26.4690973,46.5238585 C26.4573144,46.7497309 26.4513759,46.9756034 26.4513759,47.20344 C26.4516935,47.7048126 26.479868,48.2057794 26.5357689,48.7040188 C26.7999643,51.0234677 27.6746756,53.2310717 29.0704701,55.1011198 C29.3666629,54.9911298 29.6551025,54.8693433 29.9396046,54.7357859 C28.3577032,52.6990499 27.4588947,50.2140706 27.3714715,47.6355438 L27.3714793,47.6355438 Z" id="Shape" fill="#3F3D56"></path>
                    <ellipse id="Oval" fill="#000000" opacity="0.1" cx="32.1580431" cy="29.2882775" rx="1" ry="1"></ellipse>
                    <ellipse id="Oval" fill="#000000" opacity="0.1" cx="32.1580431" cy="33.068291" rx="1" ry="1"></ellipse>
                    <polygon id="Path" fill="#FFB7B7" points="5.68073781 53.8163124 3.76152066 53.816106 2.84860886 46.2562855 5.68093996 46.2564919"></polygon>
                    <path d="M5.23310576,52.8736123 L3.40654092,52.871309 L2.22217515,52.871309 C1.63706164,52.871025 1.07584754,53.1601593 0.662111516,53.675045 C0.248375491,54.1899307 0.0160446411,54.8883464 0.0162777649,55.6165016 L0.0162777649,55.7063191 L5.68093996,55.7063191 L5.68093996,52.8736123 L5.23310576,52.8736123 Z" id="Path" fill="#2F2E41"></path>
                    <polygon id="Path" fill="#FFB7B7" points="12.138078 54.7613158 10.2189912 54.7213612 9.45738142 47.2012888 12.2897125 47.2600938"></polygon>
                    <path d="M11.8455154,53.8907471 L10.0319489,53.8460415 L8.85897121,53.8169828 C8.27890908,53.8011282 7.71751564,54.0670543 7.29872422,54.5560551 C6.8799328,55.045056 6.6381824,55.716919 6.62684188,56.4233236 L6.62505033,56.5104996 L12.2438223,56.6513225 L12.2530536,56.0857957 L12.2897125,53.9019236 L11.8455154,53.8907471 Z" id="Path" fill="#2F2E41"></path>
                    <path d="M18.0757106,29.2462249 L7.5829571,32.8101354 C6.31057445,33.13293 5.33343722,34.182931 5.07448115,35.505665 L1.9044985,51.6978181 L6.98578364,51.7795685 L10.1975041,38.171394 L17.1315915,35.2502292 L11.8184231,38.4164031 C11.3388147,38.8080994 10.9676261,39.3227301 10.7420658,39.9087076 L7.61538772,51.9263057 L13.2196014,51.9263057 L16.4047414,42.3162233 L30.2278095,34.2027241 L18.0757106,29.2462249 Z" id="Path" fill="#2F2E41"></path>
                    <path d="M28.6281914,12.501176 L21.8176218,13.3245523 C21.8176218,13.3245523 17.819759,15.1106869 17.819759,16.0184317 C17.819759,16.9261765 16.2285435,29.9377683 16.2285435,29.9377683 C16.2285435,29.9377683 14.8128743,30.8079876 20.3412933,32.3393598 C25.8697123,33.870732 26.8617574,35.9848749 26.8617574,35.9848749 L27.2824845,37.7512552 L33.6159045,35.5349275 L34.6791064,20.4058617 L35.8924717,14.5147773 L31.7932754,12.2361643 L28.6281914,12.501176 Z" id="Path" fill="#CBCBCB"></path>
                    <ellipse id="Oval" fill="#FFB7B7" cx="26.451368" cy="6.56614408" rx="4.72055183" ry="4.72501683"></ellipse>
                    <path d="M29.2462561,1.58457415 L29.343306,1.07584835 L28.0361472,0.839777765 C28.0361472,0.839777765 26.1873119,-0.809771859 24.0661468,0.385934659 C21.9449817,1.58164118 21.0150858,2.20309595 21.0150858,2.20309595 L20.0366973,3.07891744 L20.7724599,3.47492767 L19.8425954,4.09638817 L20.626884,4.23802784 L19.9584399,4.90669903 L21.0599228,7.07909786 C21.0599228,7.07909786 21.2656046,5.14276961 22.8341739,5.42604895 C24.4027433,5.70932829 26.6209996,4.00490745 26.6209996,4.00490745 L30.0086984,7.51114745 C30.0086984,7.51114745 30.0370435,5.94492439 30.9527502,6.10657446 C30.9527679,6.10656298 32.07347,2.35829462 29.2462561,1.58457415 Z" id="Path" fill="#2F2E41"></path>
                    <path d="M30.5634855,22.3673381 C30.8825076,21.8812451 31.3967951,21.5638681 31.9679632,21.5006072 C32.5391314,21.4373464 33.108508,21.6346999 33.5228849,22.0395639 L39.6689131,18.8511878 L39.2703229,22.4756525 L33.4950611,24.947717 C32.764288,25.6256813 31.6505452,25.6404738 30.9026219,24.9821492 C30.1546986,24.3238246 30.0090023,23.2004698 30.5634874,22.3673362 L30.5634855,22.3673381 Z" id="Path" fill="#FFB7B7"></path>
                    <polygon id="Path" fill="#CBCBCB" points="34.5186594 15.3473708 36.1331458 15.0711744 44.7473451 18.7176497 45.3335753 22.2909529 40.1672589 23.5762047 37.4640306 20.2857327 33.5074273 21.3249289 31.1719198 17.9980604"></polygon>
                    <path d="M18.6289073,23.7300834 C18.1069673,23.5024002 17.5086666,23.5177517 16.9949955,23.7720071 C16.4813244,24.0262626 16.1050484,24.4933043 15.9674155,25.0474611 L9.13255533,25.7266658 L11.3578461,28.4856893 L17.5071861,27.4177155 C18.4756907,27.5820671 19.4207068,26.9972455 19.7068872,26.0564344 C19.9930675,25.1156233 19.5299554,24.1161969 18.6289073,23.7300834 Z" id="Path" fill="#FFB7B7" transform="translate(14.461864, 26.027685) scale(-1, 1) rotate(35.000000) translate(-14.461864, -26.027685) "></path>
                    <polygon id="Path" fill="#CBCBCB" transform="translate(18.975310, 21.306419) rotate(25.000000) translate(-18.975310, -21.306419) " points="20.6021304 15.668263 20.0247712 21.7920456 22.1082386 22.1755303 21.1973232 26.4462934 15.8423804 26.9445747 18.1155582 15.888101"></polygon>
                    <path d="M40.4202192,16.9611811 L40.2844359,19.2551528 L40.2312986,20.1508345 L40.2312986,20.1625683 L40.0660123,22.9297944 L40.0600551,23.0451769 L39.703827,29.0587601 L25.5870371,29.0587601 C24.3833732,29.0590222 23.2224253,29.5020938 22.3280385,30.3025451 C22.1808651,30.4360427 22.0427905,30.57912 21.9147292,30.7308295 C21.8349795,30.8247688 21.7600886,30.9226771 21.6903465,31.0241751 C21.6003669,31.1491376 21.5175912,31.2790701 21.442418,31.4133468 C21.2658362,31.7301823 21.1302598,32.0679242 21.0389116,32.4185441 C21.0290001,32.4466371 21.0211004,32.4753915 21.0152715,32.5045921 C20.96235,32.7165847 20.9261723,32.9323609 20.9070683,33.1499522 L20.9504067,34.8924246 L20.9562695,35.1642581 L20.9720276,35.8448197 L21.0625577,39.6426664 L21.1176197,41.9033825 L21.1688262,44.033071 C19.8757594,44.0017808 17.6539246,44.6823424 16.3687378,49.2428874 C16.0853511,50.2480847 15.8570263,51.1261656 15.6681018,51.8908196 C15.5717175,52.2799913 15.4844622,52.6404804 15.406336,52.9722867 C15.2744927,53.5394214 15.1662876,54.026375 15.0718254,54.4429256 C14.9674658,54.9122784 14.8808837,55.2897163 14.8002587,55.59284 C14.5187948,56.621505 14.2944101,56.7525327 13.5839732,56.4865661 C13.1101263,56.3577808 12.6251956,56.2733205 12.1355173,56.2342889 C10.6771661,56.0621929 8.41977473,55.9037863 6.24512388,55.7766699 C6.15459379,55.7727586 6.06600025,55.7668917 5.97547803,55.7610248 C2.87187037,55.5811062 0.0162777649,55.4676793 0.0162777649,55.4676793 L0.0162777649,57.2433975 L13.5839732,58.4558923 C13.5839732,58.4558923 14.983226,59.0797404 16.0617109,56.9559189 C16.2092665,56.665046 16.3349202,56.3637042 16.4376391,56.0543703 C16.5065377,55.8607623 16.5714662,55.6515091 16.6324244,55.4266109 C16.7289059,55.0785076 16.8259961,54.7284486 16.9236951,54.376434 C17.0122966,54.0576652 17.1028188,53.7369407 17.1914182,53.4201276 C17.7758746,51.3315075 18.338708,49.3700038 18.6693751,48.2416013 C18.924186,47.317609 19.5788866,46.5538377 20.4563761,46.1568925 C20.7591508,46.0155659 21.0901437,45.9440344 21.4246387,45.9476394 L23.0266552,45.8772365 L22.8652125,42.4040255 L28.9602926,42.4040255 C29.056772,42.2045506 29.1591143,42.0070313 29.2673195,41.8153789 C29.4912148,41.4042345 29.7403136,41.0071444 30.0132087,40.6263517 L22.7964097,40.6263517 L22.7196303,38.7039607 L22.587787,35.3852451 L22.5818278,35.2542174 L22.550404,34.4660958 L22.5208065,33.7170869 C22.5165702,33.5317165 22.5350937,33.3465242 22.5759669,33.1656091 C22.5917251,33.0971618 22.6114252,33.0189363 22.6369881,32.9367996 C22.7381419,32.5860158 22.9006894,32.2556807 23.1171794,31.9609368 C23.270213,31.7531951 23.4555622,31.5709951 23.6662641,31.4211811 C23.7162821,31.3852327 23.7681799,31.3519403 23.8217397,31.3214436 C24.1282469,31.1488675 24.4699983,31.0472575 24.8215225,31.0241868 C24.8856294,31.0182915 24.9500412,31.0163321 25.014391,31.0183199 L39.3456743,31.0183199 L39.3456743,35.4517485 C39.5936008,35.4361034 39.8435465,35.4282769 40.0955114,35.4282691 C40.2254319,35.4282691 40.3533352,35.4302247 40.4812483,35.434136 C40.6406718,35.4400029 40.8000933,35.4478255 40.9574995,35.4576037 L40.9574995,30.9752841 L41.524273,22.9630402 L41.8490694,18.3888058 L47.2197768,18.3888058 L47.2217961,16.9611811 L40.4202192,16.9611811 Z" id="Path" fill="#3F3D56"></path>
                </g>
                <g id="Group-34" transform="translate(20.813849, 61.890584)">
                    <polygon id="Path" fill="#E2BCB4" points="27.3792006 72.848392 25.2722285 73.3843994 16.9939866 49.7531356 23.0686141 48.8143118"></polygon>
                    <polygon id="Path" fill="#E2BCB4" points="3.04222073 73.3843994 0.944110366 72.9848207 6.37158834 48.8143118 12.2734348 50.5227106"></polygon>
                    <path d="M24.6599149,77.9517545 C25.2139584,78.1873423 25.6780415,76.7272336 26.1453853,77.1551256 C27.4526115,78.3519985 30.5885576,78.0837096 30.5885576,78.0837096 C30.8013279,78.0199872 30.9767999,77.8778519 31.0741127,77.6904019 C31.1714256,77.5029519 31.182086,77.2865472 31.1036117,77.0915803 L31.1036117,77.0915803 C31.0092773,76.8572073 30.7973171,76.6810103 30.5366748,76.6203001 L29.146441,76.2964865 L26.9635754,72.7199109 L24.584639,72.439396 L24.5245523,72.5309455 C23.5941709,73.9279817 23.3546644,75.6306696 23.867238,77.2038926 C24.065075,77.7944846 24.3343672,77.8133294 24.6599149,77.9517545 Z" id="Path" fill="#2F2E41"></path>
                    <path d="M0.616443231,76.9626857 C1.0748539,77.290799 1.75779737,75.9253219 2.10313703,76.4288919 C3.06909736,77.8374481 5.95267221,78.1094162 5.95267221,78.1094162 C6.15653097,78.082822 6.34081327,77.9722318 6.46260627,77.8033983 C6.58439928,77.6345648 6.63307324,77.4222233 6.5972937,77.2158205 L6.5972937,77.2158205 C6.55428219,76.9677012 6.39443227,76.7569965 6.16973801,76.652242 L4.97124961,76.0934949 L3.64287816,72.1797464 L1.54270171,71.4943926 L1.47186291,71.5746973 C0.378719104,72.7978332 -0.144942905,74.4418743 0.0346972426,76.0866905 C0.107028699,76.7050914 0.347093338,76.7698969 0.616443231,76.9626857 Z" id="Path" fill="#2F2E41"></path>
                    <path d="M20.6276096,31.8042512 C21.6815852,33.369066 22.7032428,34.9494683 23.1552517,36.7480349 C24.2481458,41.1505223 25.0285352,45.6198882 25.4909799,50.1249771 C21.8290434,52.1533558 18.6520486,53.3177009 15.5485959,53.5183506 C15.4042823,53.5276321 15.2602012,53.5341959 15.1162071,53.5393287 L13.984839,47.3731523 L13.0823541,53.471371 C12.6354778,53.4255062 12.1879017,53.3601647 11.738186,53.2726522 C9.79269028,52.8959136 7.81185527,52.1260638 5.69527703,50.9439736 C4.93649457,48.0300841 4.61790654,45.025618 4.74939205,42.0237409 C4.92329561,38.0092893 5.86352833,34.5722338 6.77406595,31.8122208 L20.6276096,31.8042512 Z" id="Path" fill="#2F2E41"></path>
                    <path d="M12.6561814,13.8491873 L7.55288293,12.3695115 C9.39907197,10.8282699 10.1530793,9.13606219 9.39007078,7.2341637 L15.1057659,8.10456145 C13.7495227,10.3336618 11.9737646,11.6759067 12.6561814,13.8491873 Z" id="Path" fill="#E2BCB4"></path>
                    <path d="M19.8263177,31.9773598 C15.3654349,35.3293558 10.8238797,35.7157321 6.17034939,31.9850482 C8.04629726,26.4214265 4.21915533,21.1895752 4.77663935,17.2400103 C5.1244479,14.7759328 6.20938085,11.7237844 8.73199902,11.0141772 L11.4413781,11.796198 C13.3524989,12.3471042 14.8227485,13.7972631 15.3228651,15.6246448 L15.6434094,16.8029316 C17.1946128,18.3616877 17.7116839,20.4101944 17.3088984,22.8971035 C17.6489644,23.6027583 17.4928705,24.4927274 17.3367746,25.3840165 C17.1890411,26.2318566 17.0413077,27.081013 17.3200517,27.7721873 C17.9198922,29.2581511 18.886142,30.6116027 19.8263177,31.9773617" id="Path" fill="#E6E6E6"></path>
                    <ellipse id="Oval" fill="#E2BCB4" cx="13.2175451" cy="5.81665865" rx="4.72055183" ry="4.25251515"></ellipse>
                    <path d="M28.6806354,29.8204645 L25.4909799,28.7751827 L25.7236631,26.2126113 L29.2259403,26.1346983 C29.7852227,26.122256 30.3212116,26.3588079 30.6893296,26.7805469 C31.0574477,27.2022858 31.2197755,27.7657689 31.132527,28.3190026 L31.132527,28.3190026 C31.0462615,28.8660064 30.7247197,29.3476108 30.2528626,29.6365613 C29.7810056,29.9255119 29.2063128,29.9927336 28.6806354,29.8204645 Z" id="Path" fill="#E2BCB4"></path>
                    <path d="M22.6586488,36.5292681 C21.3462054,35.9539462 18.3592121,34.5035911 14.0440271,31.5640901 C8.10153109,27.5154115 9.61291844,17.6292007 9.61291844,17.6292007 L17.5434113,24.9826492 C17.3917002,25.8442982 17.2399891,26.7072848 17.5262381,27.4097162 C18.8229249,30.5887084 21.7870213,33.1709741 22.6586488,36.5292681 Z" id="Path" fill="#000000" opacity="0.2"></path>
                    <path d="M25.9929227,29.1121627 C21.8124979,29.9946314 18.392462,30.5237254 15.6127816,28.6456615 C11.2044094,23.7607392 8.69897164,18.8567301 9.63673341,13.9181923 C9.81433556,13.0102542 10.5241596,12.2805782 11.4608923,12.0430166 L11.4608923,12.0430166 C12.7082565,11.7218127 14.0090755,12.3485297 14.4769194,13.4960978 L17.8074917,24.1312549 L26.4350902,25.7222555 L25.9929227,29.1121627 Z" id="Path" fill="#2F2E41"></path>
                    <path d="M19.4609257,40.3092815 C18.4055042,40.3077556 17.4921386,39.6060324 17.2619008,38.6198083 L16.9939866,37.4648606 L21.3926038,36.5292681 L21.6604474,37.6840804 C21.9302552,38.847088 21.1643826,39.9993338 19.9497706,40.257772 L19.9497706,40.257772 C19.7892696,40.2919475 19.6253475,40.30922 19.4609257,40.3092815 Z M17.34075,37.6763331 L17.5456419,38.5594646 C17.7807001,39.5723804 18.8288338,40.2110578 19.8867139,39.9859906 C20.9445941,39.7609234 21.6116232,38.7573398 21.3765649,37.744424 L21.1717438,36.8614279 L17.34075,37.6763331 Z" id="Shape" fill="#3F3D56"></path>
                    <path d="M17.9099041,3.56647823 C17.9099041,3.56647823 18.6373639,-1.70689319 12.7017815,0.0223693845 C12.7017815,0.0223693845 8.46255203,-0.702154167 7.07234149,4.23702488 L5.66466219,9.41450071 L6.35069435,9.06669258 L6.67052722,9.71789082 L7.78221794,9.98013051 L8.2579393,9.10063094 L8.48807054,10.1686731 L17.5934422,11.0141772 C17.5934422,11.0141772 13.5153285,8.76771587 13.4506623,4.74151721 L14.2274563,5.50612357 L17.9099041,3.56647823 Z" id="Path" fill="#2F2E41"></path>
                </g>
            </g>
        </g>
    </g>
</svg>