<!-- Created By Leonid Bartenev -->

<svg xmlns="http://www.w3.org/2000/svg" xmlns:xlink="http://www.w3.org/1999/xlink" display="none">
    <symbol id="gear_icon" name="Account Settings" width="20px" height="20px" viewBox="0 0 20 20" version="1.1" xmlns="http://www.w3.org/2000/svg" xmlns:xlink="http://www.w3.org/1999/xlink">
        <path d="M18.6835536,8.1340747 L17.6285704,7.759914 C17.3230689,7.65131201 17.077935,7.4182777 16.9540209,7.11865983 C16.8301068,6.81904196 16.839032,6.48093547 16.9785808,6.18827236 L16.9785808,6.18827236 L17.4585732,5.17745513 C17.817333,4.42108748 17.6616359,3.52082679 17.0696897,2.92888057 C16.4777435,2.33693435 15.5774828,2.18123729 14.8211152,2.53999714 L13.8102979,3.02082281 C13.5174669,3.15973887 13.1795018,3.16813983 12.8801305,3.04394443 C12.5807593,2.91974903 12.3479901,2.67457658 12.2394896,2.36916653 L11.8644956,1.31501665 C11.5833492,0.526493917 10.8366701,0 9.9995253,0 C9.16238052,0 8.41570137,0.526493917 8.134555,1.31501665 L7.75956097,2.36999985 C7.65088663,2.67526007 7.41804533,2.92023528 7.11869447,3.04426341 C6.81934361,3.16829153 6.4814747,3.15977504 6.18875266,3.02082281 L5.17793543,2.53999714 C4.42156778,2.18123729 3.52130709,2.33693435 2.92936087,2.92888057 C2.33741465,3.52082679 2.18171758,4.42108748 2.54047743,5.17745513 L3.02046979,6.18827236 C3.15974571,6.48097037 3.16853157,6.81896437 3.0446503,7.11850292 C2.92076904,7.41804146 2.67581313,7.65109454 2.37048014,7.759914 L1.31549695,8.13490802 C0.526771091,8.41563398 0,9.16226662 0,9.99946166 C0,10.8366567 0.526771091,11.5832893 1.31549695,11.8640153 L2.37048014,12.2390093 C2.67575881,12.3476403 2.9207146,12.5805349 3.04460824,12.8799445 C3.16850188,13.1793542 3.15973077,13.5172392 3.02046979,13.8098176 L2.54047743,14.8206349 C2.18171758,15.5770025 2.33741465,16.4772632 2.92936087,17.0692094 C3.52130709,17.6611556 4.42156778,17.8168527 5.17793543,17.4580929 L6.18875266,16.9781005 C6.48140519,16.8386022 6.81949934,16.8298071 7.11900889,16.953901 C7.41851845,17.0779949 7.65132196,17.3233264 7.75956097,17.6289235 L8.134555,18.6830734 C8.41570137,19.4715961 9.16238052,19.99809 9.9995253,19.99809 C10.8366701,19.99809 11.5833492,19.4715961 11.8644956,18.6830734 L12.2394896,17.6280902 C12.3481206,17.3228115 12.5810152,17.0778557 12.8804248,16.9539621 C13.1798345,16.8300684 13.5177195,16.8388395 13.8102979,16.9781005 L14.8211152,17.4580929 C15.5774828,17.8168527 16.4777435,17.6611556 17.0696897,17.0692094 C17.6616359,16.4772632 17.817333,15.5770025 17.4585732,14.8206349 L16.9785808,13.8098176 C16.8393198,13.5172392 16.8305487,13.1793542 16.9544424,12.8799445 C17.078336,12.5805349 17.3232918,12.3476403 17.6285704,12.2390093 L18.6835536,11.863182 C19.4722795,11.582456 19.9990506,10.8358234 19.9990506,9.99862834 C19.9990506,9.1614333 19.4722795,8.41480066 18.6835536,8.1340747 Z M9.9995253,13.9856482 C8.3922058,13.9623308 6.94614211,13.0037153 6.29875091,11.5323539 C5.45477104,9.48870306 6.42390632,7.14749587 8.46538306,6.29827061 C10.5089481,5.48101176 12.8314158,6.44238992 13.6994664,8.46490277 C14.5434462,10.5085536 13.574311,12.8497608 11.5328342,13.6989861 C11.0468553,13.8988733 10.5248952,13.9964572 9.9995253,13.9856482 Z" id="path-1"></path>
        <g id="5---Dev-Handoff" stroke="none" stroke-width="1" fill="none" fill-rule="evenodd">
            <g id="Login/Account-Settings-Assets" transform="translate(-106.000000, -1000.000000)">
                <g id="Group" transform="translate(48.500000, 1000.001910)">
                    <g id="icon/user" transform="translate(57.500000, 0.001910)">
                        <mask id="mask-2" fill="white">
                            <use xlink:href="#path-1"></use>
                        </mask>
                        <use id="Mask" fill="#000000" fill-rule="nonzero" xlink:href="#path-1"></use>
                        <g id="color" mask="url(#mask-2)" fill="#005587">
                            <rect id="Rectangle" x="0" y="0" width="19.9996815" height="19.9996815"></rect>
                        </g>
                    </g>
                </g>
            </g>
        </g>
    </symbol>
    <symbol id="navigation-menu-horizontal" name="navigation menu horizontal" xmlns="http://www.w3.org/2000/svg" viewBox="0 0 24 24">
        <title>navigation-menu-horizontal</title>
        <circle cx="3.25" cy="12" r="3.25" />
        <circle cx="12" cy="12" r="3.25" />
        <circle cx="20.75" cy="12" r="3.25" />
    </symbol>
    <symbol id="check-circle-1-alternate" name="check circle 1 alternate" width="24px" height="20px" viewBox="0 0 24 20" version="1.1" xmlns="http://www.w3.org/2000/svg" xmlns:xlink="http://www.w3.org/1999/xlink">
        <title>check-circle-1-alternate</title>
        <g id="----------?-Home-(empty-states)" stroke="none" stroke-width="1" fill="none" fill-rule="evenodd">
            <g id="check-circle-1-alternate" fill="#FFFFFF" fill-rule="nonzero">
                <path d="M23.1210322,0.418815274 C22.6624432,0.0807744776 22.0883064,-0.0611492926 21.5250346,0.0242926207 C20.9617628,0.109734534 20.4555408,0.415536434 20.1178282,0.874367115 L9.9340957,14.6956381 L3.45838331,9.51438052 C2.52964948,8.80294554 1.20257255,8.96443705 0.471565309,9.87784533 C-0.259441927,10.7912536 -0.126183345,12.1214622 0.771486981,12.8717116 L8.99376794,19.4488488 C9.45274857,19.8078494 10.0367701,19.9672895 10.6145006,19.8913148 C11.1922311,19.8153402 11.7151748,19.5103283 12.0657345,19.0448688 L23.5834603,3.42373836 C23.9208742,2.96402899 24.061724,2.38905435 23.9749897,1.82544273 C23.8882554,1.26183111 23.5810507,0.755807634 23.1210322,0.418815274 Z" id="Path"></path>
            </g>
        </g>
    </symbol>
    <symbol id="dropdown_arrow" name="Dropdown Arrow" width="11px" height="9px" viewBox="0 0 11 9" version="1.1" xmlns="http://www.w3.org/2000/svg" xmlns:xlink="http://www.w3.org/1999/xlink">
        <path d="M10.476394,0.418493869 C10.3163025,0.159987393 10.0155768,0 9.68952491,0 L0.902970519,0 C0.577103741,0.000143933081 0.276575947,0.159993161 0.116505253,0.418316935 C-0.0435654417,0.676640709 -0.0383689271,0.993400212 0.130104255,1.24725972 L4.52338145,7.85354309 C4.68705418,8.09964723 4.98015686,8.25 5.29624771,8.25 C5.61233857,8.25 5.90544125,8.09964723 6.06911398,7.85354309 L10.4623912,1.24725972 C10.6309149,0.993510933 10.6362654,0.676838392 10.476394,0.418493869 Z" id="path-1"></path>
        <g id="5---Dev-Handoff" stroke="none" stroke-width="1" fill="none" fill-rule="evenodd">
            <g id="navigation/nav-bar/nav-item/avatar/image" transform="translate(-45.000000, -14.000000)">
                <g id="dropdown-arrow" transform="translate(45.296324, 14.375000)">
                    <mask id="mask-2" fill="white">
                        <use xlink:href="#path-1"></use>
                    </mask>
                    <use id="Mask" fill="#FFFFFF" fill-rule="nonzero" xlink:href="#path-1"></use>
                    <g id="icon-color" mask="url(#mask-2)" fill="#000000">
                        <g transform="translate(-5.296324, -6.875000)" id="Rectangle">
                            <rect x="0" y="0" width="21.1852954" height="22"></rect>
                        </g>
                    </g>
                </g>
            </g>
        </g>
    </symbol>
    <symbol id="iqvia_tech" name="IQVIA Technology" width="85px" height="26px" viewBox="0 0 85 26" version="1.1" xmlns="http://www.w3.org/2000/svg" xmlns:xlink="http://www.w3.org/1999/xlink">
        <path d="M80.1149854,24.8941689 C79.9857456,24.801807 79.8932895,24.6450642 79.8932895,24.4608356 C79.8932895,24.1659213 80.1336257,23.9356356 80.4296345,23.9356356 C80.5869591,23.9356356 80.6886111,23.9814451 80.762924,24.0366642 C81.299269,24.4608356 81.8728947,24.7005308 82.5760088,24.7005308 C83.2791228,24.7005308 83.7232602,24.3684737 83.7232602,23.8895785 L83.7232602,23.8707594 C83.7232602,23.4099404 83.4642836,23.1610832 82.2616082,22.8847404 C80.8829678,22.5529308 80.1057895,22.1473308 80.1057895,20.9585118 L80.1057895,20.9396927 C80.1057895,19.8338261 81.0310965,19.0686832 82.3170322,19.0686832 C83.1312427,19.0686832 83.7881287,19.2806451 84.3707018,19.6679213 C84.5004386,19.7417118 84.620731,19.898207 84.620731,20.1195785 C84.620731,20.4142451 84.3798977,20.6447785 84.0841374,20.6447785 C83.9730409,20.6447785 83.8805848,20.6172927 83.7881287,20.5620737 C83.2885673,20.2391785 82.8071491,20.0732737 82.2983918,20.0732737 C81.6325585,20.0732737 81.243845,20.4142451 81.243845,20.8381689 L81.243845,20.8567404 C81.243845,21.3547023 81.5398538,21.5760737 82.7887573,21.8707404 C84.1582018,22.2025499 84.8613158,22.6911023 84.8613158,23.7603213 L84.8613158,23.7786451 C84.8613158,24.9860356 83.9084211,25.7053689 82.5481725,25.7053689 C81.6693421,25.7053689 80.8367398,25.4285308 80.1149854,24.8941689 Z M73.6656725,25.0415023 L73.6656725,19.7323023 C73.6656725,19.4099023 73.9154532,19.1610451 74.2395468,19.1610451 L78.0046491,19.1610451 C78.2822661,19.1610451 78.513655,19.3913308 78.513655,19.6679213 C78.513655,19.9536737 78.2822661,20.1750451 78.0046491,20.1750451 L74.8037281,20.1750451 L74.8037281,21.8524166 L77.588348,21.8524166 C77.8659649,21.8524166 78.0973538,22.0829499 78.0973538,22.3687023 C78.0973538,22.6450451 77.8659649,22.8664166 77.588348,22.8664166 L74.8037281,22.8664166 L74.8037281,24.599007 L78.0511257,24.599007 C78.3284942,24.599007 78.559883,24.8295404 78.559883,25.1061308 C78.559883,25.3918832 78.3284942,25.613007 78.0511257,25.613007 L74.2395468,25.613007 C73.9154532,25.613007 73.6656725,25.3641499 73.6656725,25.0415023 Z M70.3809942,19.6770832 C70.3809942,19.3635975 70.6307749,19.1147404 70.9546199,19.1147404 C71.269269,19.1147404 71.5188012,19.3635975 71.5188012,19.6770832 L71.5188012,25.0967213 C71.5188012,25.410207 71.269269,25.6590642 70.9546199,25.6590642 C70.6307749,25.6590642 70.3809942,25.410207 70.3809942,25.0967213 L70.3809942,19.6770832 Z M62.3584357,22.4051023 L62.3584357,22.3867785 C62.3584357,20.5803975 63.7462719,19.0503594 65.6982895,19.0503594 C66.6698246,19.0503594 67.3172661,19.2806451 67.9095322,19.7045689 C68.0203801,19.7877689 68.1409211,19.9445118 68.1409211,20.165388 C68.1409211,20.4697118 67.8908918,20.7277308 67.5764912,20.7277308 C67.4283626,20.7277308 67.3172661,20.6631023 67.2248099,20.5984737 C66.8085088,20.2946451 66.3551754,20.0918451 65.6520614,20.0918451 C64.4585819,20.0918451 63.5519152,21.1335785 63.5519152,22.3687023 L63.5519152,22.3867785 C63.5519152,23.7142642 64.4307456,24.6913689 65.7537135,24.6913689 C66.3643713,24.6913689 66.9196053,24.4979785 67.3172661,24.2025689 L67.3172661,22.9951785 L66.0405263,22.9951785 C65.7631579,22.9951785 65.531769,22.7832166 65.531769,22.5068737 C65.531769,22.2300356 65.7631579,22.0089118 66.0405263,22.0089118 L67.8446637,22.0089118 C68.1685088,22.0089118 68.4182895,22.2580166 68.4182895,22.5804166 L68.4182895,24.3040927 C68.4182895,24.6267404 68.2885526,24.8572737 68.0203801,25.0231785 C67.4653947,25.3918832 66.6882164,25.7236927 65.7169298,25.7236927 C63.6905994,25.7236927 62.3584357,24.2857689 62.3584357,22.4051023 Z M59.6558333,22.4051023 L59.6558333,22.3867785 C59.6558333,21.1335785 58.7397222,20.0918451 57.4540351,20.0918451 C56.1678509,20.0918451 55.2703801,21.1147594 55.2703801,22.3687023 L55.2703801,22.3867785 C55.2703801,23.6404737 56.1864912,24.6730451 57.4724269,24.6730451 C58.7583626,24.6730451 59.6558333,23.6590451 59.6558333,22.4051023 Z M54.0771491,22.4051023 L54.0771491,22.3867785 C54.0771491,20.5712356 55.4833772,19.0503594 57.4724269,19.0503594 C59.4614766,19.0503594 60.8493129,20.5526642 60.8493129,22.3687023 L60.8493129,22.3867785 C60.8493129,24.2025689 59.4430848,25.7236927 57.4540351,25.7236927 C55.4647368,25.7236927 54.0771491,24.2211404 54.0771491,22.4051023 Z M48.5901754,19.6770832 C48.5901754,19.3635975 48.8394591,19.1147404 49.1635526,19.1147404 C49.4782018,19.1147404 49.7279825,19.3635975 49.7279825,19.6770832 L49.7279825,24.5806832 L52.6604825,24.5806832 C52.9472953,24.5806832 53.1786842,24.8109689 53.1786842,25.0967213 C53.1786842,25.3824737 52.9472953,25.613007 52.6604825,25.613007 L49.1635526,25.613007 C48.8394591,25.613007 48.5901754,25.3641499 48.5901754,25.0415023 L48.5901754,19.6770832 Z M45.6002632,22.4051023 L45.6002632,22.3867785 C45.6002632,21.1335785 44.6846491,20.0918451 43.3984649,20.0918451 C42.1125292,20.0918451 41.2150585,21.1147594 41.2150585,22.3687023 L41.2150585,22.3867785 C41.2150585,23.6404737 42.1309211,24.6730451 43.4171053,24.6730451 C44.7030409,24.6730451 45.6002632,23.6590451 45.6002632,22.4051023 Z M40.0215789,22.4051023 L40.0215789,22.3867785 C40.0215789,20.5712356 41.427807,19.0503594 43.4171053,19.0503594 C45.406155,19.0503594 46.7939912,20.5526642 46.7939912,22.3687023 L46.7939912,22.3867785 C46.7939912,24.2025689 45.3877632,25.7236927 43.3984649,25.7236927 C41.4094152,25.7236927 40.0215789,24.2211404 40.0215789,22.4051023 Z M32.5820906,19.695407 C32.5820906,19.3821689 32.8318713,19.1239023 33.1559649,19.1239023 L33.2760088,19.1239023 C33.5536257,19.1239023 33.7107018,19.2620737 33.8682749,19.4557118 L37.1062281,23.6313118 L37.1062281,19.6679213 C37.1062281,19.3635975 37.3560088,19.1147404 37.661462,19.1147404 C37.9758626,19.1147404 38.2256433,19.3635975 38.2256433,19.6679213 L38.2256433,25.0875594 C38.2256433,25.4010451 37.985307,25.6499023 37.6706579,25.6499023 L37.6241813,25.6499023 C37.3560088,25.6499023 37.1894883,25.5117308 37.0321637,25.3089308 L33.7015058,21.0134832 L33.7015058,25.1061308 C33.7015058,25.410207 33.4517251,25.6590642 33.1465205,25.6590642 C32.8318713,25.6590642 32.5820906,25.410207 32.5820906,25.1061308 L32.5820906,19.695407 Z M25.1334064,19.6770832 C25.1334064,19.3635975 25.3829386,19.1147404 25.7070322,19.1147404 C26.0216813,19.1147404 26.271462,19.3635975 26.271462,19.6770832 L26.271462,21.843007 L29.3612865,21.843007 L29.3612865,19.6770832 C29.3612865,19.3635975 29.6110673,19.1147404 29.9257164,19.1147404 C30.2495614,19.1147404 30.4990936,19.3635975 30.4990936,19.6770832 L30.4990936,25.0967213 C30.4990936,25.410207 30.2495614,25.6590642 29.9257164,25.6590642 C29.6110673,25.6590642 29.3612865,25.410207 29.3612865,25.0967213 L29.3612865,22.8939023 L26.271462,22.8939023 L26.271462,25.0967213 C26.271462,25.410207 26.0216813,25.6590642 25.7070322,25.6590642 C25.3829386,25.6590642 25.1334064,25.410207 25.1334064,25.0967213 L25.1334064,19.6770832 Z M17.601462,22.4051023 L17.601462,22.3867785 C17.601462,20.5526642 18.9798538,19.0503594 20.9413158,19.0503594 C21.9404386,19.0503594 22.5973246,19.3452737 23.1617544,19.778607 C23.2817982,19.8704737 23.3839474,20.0272166 23.3839474,20.2300166 C23.3839474,20.5435023 23.1339181,20.7831975 22.8195175,20.7831975 C22.6619444,20.7831975 22.5510965,20.7277308 22.4770322,20.6725118 C22.0331433,20.3129689 21.5517251,20.0918451 20.9321199,20.0918451 C19.7016082,20.0918451 18.7949415,21.1055975 18.7949415,22.3687023 L18.7949415,22.3867785 C18.7949415,23.6498832 19.6924123,24.6730451 20.9321199,24.6730451 C21.6165936,24.6730451 22.0793713,24.4516737 22.5510965,24.0552356 C22.6343567,23.9814451 22.7544006,23.9262261 22.8933333,23.9262261 C23.1801462,23.9262261 23.4299269,24.1659213 23.4299269,24.4516737 C23.4299269,24.6267404 23.3466667,24.7649118 23.2450146,24.8572737 C22.6343567,25.3918832 21.9404386,25.7236927 20.8950877,25.7236927 C19.0076901,25.7236927 17.601462,24.2580356 17.601462,22.4051023 Z M11.2724415,25.0415023 L11.2724415,19.7323023 C11.2724415,19.4099023 11.5219737,19.1610451 11.8458187,19.1610451 L15.6114181,19.1610451 C15.8887865,19.1610451 16.1199269,19.3913308 16.1199269,19.6679213 C16.1199269,19.9536737 15.8887865,20.1750451 15.6114181,20.1750451 L12.4102485,20.1750451 L12.4102485,21.8524166 L15.1948684,21.8524166 C15.4724854,21.8524166 15.7038743,22.0829499 15.7038743,22.3687023 C15.7038743,22.6450451 15.4724854,22.8664166 15.1948684,22.8664166 L12.4102485,22.8664166 L12.4102485,24.599007 L15.6573977,24.599007 C15.9350146,24.599007 16.1664035,24.8295404 16.1664035,25.1061308 C16.1664035,25.3918832 15.9350146,25.613007 15.6573977,25.613007 L11.8458187,25.613007 C11.5219737,25.613007 11.2724415,25.3641499 11.2724415,25.0415023 Z M6.45105263,20.2114451 L4.87830409,20.2114451 C4.58229532,20.2114451 4.35115497,19.9719975 4.35115497,19.6862451 C4.35115497,19.4007404 4.58229532,19.1610451 4.87830409,19.1610451 L9.18049708,19.1610451 C9.4670614,19.1610451 9.69845029,19.4007404 9.69845029,19.6862451 C9.69845029,19.9719975 9.4670614,20.2114451 9.18049708,20.2114451 L7.59830409,20.2114451 L7.59830409,25.0967213 C7.59830409,25.410207 7.33907895,25.6590642 7.02467836,25.6590642 C6.71027778,25.6590642 6.45105263,25.410207 6.45105263,25.0967213 L6.45105263,20.2114451 L6.45105263,20.2114451 Z M39.6281433,11.5380927 L39.0323977,10.4047404 C38.8206433,10.0018642 38.3213304,9.84635941 37.9169591,10.0573308 C37.5125877,10.2683023 37.3565058,10.7660166 37.5685088,11.1686451 L38.0877047,12.1563975 L38.0804971,12.1591213 C37.7844883,12.2267213 37.4790351,12.2715404 37.1656287,12.2876356 C34.2229386,12.441407 31.7035088,10.181388 31.5491667,7.24957846 C31.3948246,4.31776894 33.6634795,1.80765465 36.6061696,1.65388322 C39.5488596,1.50035941 42.0680409,3.76037846 42.222383,6.69218798 C42.3295029,8.72613084 41.2694883,10.5560356 39.6281433,11.5380927 Z M36.5194298,0.00969274468 C32.6668421,0.210759411 29.6968129,3.49740703 29.8986257,7.33574989 C30.1006871,11.1740927 33.3992836,14.133388 37.2521199,13.9323213 C37.812076,13.9028546 38.3526462,13.8067785 38.8683626,13.6547404 L38.8740789,13.6525118 L39.3984942,14.6504166 C39.6102485,15.0530451 40.1095614,15.2085499 40.5139327,14.9975785 C40.9180556,14.7868546 41.0741374,14.2891404 40.8626316,13.8862642 L40.3953801,12.997807 C42.5902193,11.7243023 44.0145906,9.30209274 43.872924,6.60601655 C43.6711111,2.76742608 40.3722661,-0.191621541 36.5194298,0.00969274468 L36.5194298,0.00969274468 Z M25.771652,13.902607 C25.3153363,13.902607 24.9452632,13.5341499 24.9452632,13.0795213 L24.9452632,0.862245126 C24.9452632,0.407616554 25.3153363,0.0391594113 25.771652,0.0391594113 C26.2279678,0.0391594113 26.5980409,0.407616554 26.5980409,0.862245126 L26.5980409,13.0795213 C26.5980409,13.5341499 26.2279678,13.902607 25.771652,13.902607 M65.0103363,13.902607 C64.5537719,13.902607 64.1839474,13.5341499 64.1839474,13.0795213 L64.1839474,0.862245126 C64.1839474,0.407616554 64.5537719,0.0391594113 65.0103363,0.0391594113 C65.466652,0.0391594113 65.8364766,0.407616554 65.8364766,0.862245126 L65.8364766,13.0795213 C65.8364766,13.5341499 65.466652,13.902607 65.0103363,13.902607 M53.2375877,13.902607 C53.236345,13.902607 53.2353509,13.902607 53.2343567,13.902607 C52.9281579,13.9016166 52.6475585,13.7317499 52.5053947,13.4613499 L46.0849123,1.24432132 C45.8731579,0.841445126 46.0294883,0.343978459 46.4338596,0.13300703 C46.838231,-0.0779643982 47.3372953,0.0777879828 47.5490497,0.480416554 L53.2445468,11.3177118 L59.0516374,0.474721316 C59.2666228,0.073578459 59.7674269,-0.0777167791 60.1695614,0.135978459 C60.572193,0.350168935 60.7245468,0.848873697 60.5098099,1.25001655 L53.9665497,13.4670451 C53.8228947,13.7354642 53.5425439,13.902607 53.2375877,13.902607 M77.5040936,0.0391594113 C77.8105409,0.0403975066 78.0911404,0.210264173 78.2330556,0.480416554 L84.6537865,12.6976927 C84.8655409,13.1003213 84.7094591,13.5980356 84.3050877,13.809007 C84.182807,13.8726451 84.0513304,13.9028546 83.9223392,13.9028546 C83.6245906,13.9028546 83.3370322,13.7423975 83.1894006,13.4613499 L77.494152,2.62430227 L71.6870614,13.4670451 C71.472076,13.8684356 70.9712719,14.0199785 70.5688889,13.805788 C70.1662573,13.5920927 70.014152,13.0931404 70.2288889,12.6919975 L76.7719006,0.474721316 C76.9160526,0.205559411 77.1971491,0.0295022685 77.5040936,0.0391594113 Z M79.4496491,9.48458798 C79.9059649,9.48458798 80.276038,9.85329274 80.276038,10.3079213 C80.276038,10.7625499 79.9059649,11.1312546 79.4496491,11.1312546 L75.4665789,11.1312546 C75.0102632,11.1312546 74.6401901,10.7625499 74.6401901,10.3079213 C74.6401901,9.85329274 75.0102632,9.48458798 75.4665789,9.48458798 L79.4496491,9.48458798 Z M14.7912427,11.6108927 L4.67897661,11.6108927 C4.29225146,11.6108927 3.97561404,11.9263594 3.97561404,12.3119023 C3.97561404,12.6971975 4.29225146,13.0126642 4.67897661,13.0126642 L14.7912427,13.0126642 C15.1782164,13.0126642 15.4946053,12.6971975 15.4946053,12.3119023 C15.4946053,11.9263594 15.1782164,11.6108927 14.7912427,11.6108927 M17.2187135,13.0126642 C16.8317398,13.0126642 16.5151023,12.6971975 16.5151023,12.3119023 C16.5151023,11.9263594 16.8317398,11.6111404 17.2187135,11.6111404 L20.1532018,11.6111404 C20.5401754,11.6111404 20.8568129,11.9263594 20.8568129,12.3119023 C20.8568129,12.6971975 20.5401754,13.0126642 20.1532018,13.0126642 L17.2187135,13.0126642 M18.592383,10.3415975 C18.2056579,10.3415975 17.8890205,10.0261308 17.8890205,9.6408356 C17.8890205,9.25529274 18.2056579,8.93982608 18.592383,8.93982608 L20.1532018,8.93982608 C20.5401754,8.93982608 20.8568129,9.25529274 20.8568129,9.6408356 C20.8568129,10.0261308 20.5401754,10.3415975 20.1532018,10.3415975 L18.592383,10.3415975 M18.9865643,7.67053084 C18.5998392,7.67053084 18.2829532,7.35506417 18.2829532,6.96952132 C18.2829532,6.58422608 18.5998392,6.26875941 18.9865643,6.26875941 L20.1532018,6.26875941 C20.5401754,6.26875941 20.8568129,6.58422608 20.8568129,6.96952132 C20.8568129,7.35506417 20.5401754,7.67053084 20.1532018,7.67053084 L18.9865643,7.67053084 M18.6159942,4.99921655 C18.2290205,4.99921655 17.9126316,4.68399751 17.9126316,4.29845465 C17.9126316,3.91291179 18.2290205,3.59769274 18.6159942,3.59769274 L20.1532018,3.59769274 C20.5401754,3.59769274 20.8568129,3.91291179 20.8568129,4.29845465 C20.8568129,4.68399751 20.5401754,4.99921655 20.1532018,4.99921655 L18.6159942,4.99921655 M17.2801023,2.32814989 C16.8933772,2.32814989 16.5767398,2.01268322 16.5767398,1.62738798 C16.5767398,1.24184513 16.8933772,0.926626078 17.2801023,0.926626078 L20.1532018,0.926626078 C20.5401754,0.926626078 20.8568129,1.24184513 20.8568129,1.62738798 C20.8568129,2.01268322 20.5401754,2.32814989 20.1532018,2.32814989 L17.2801023,2.32814989 M16.1651608,8.93982608 L2.69961988,8.93982608 C2.3126462,8.93982608 1.99625731,9.25529274 1.99625731,9.6408356 C1.99625731,10.0261308 2.3126462,10.3415975 2.69961988,10.3415975 L16.1651608,10.3415975 C16.551886,10.3415975 16.8685234,10.0261308 16.8685234,9.6408356 C16.8685234,9.25529274 16.551886,8.93982608 16.1651608,8.93982608 M16.5593421,6.26875941 L0.703362573,6.26875941 C0.316637427,6.26875941 -1.27364785e-12,6.58422608 -1.27364785e-12,6.96952132 C-1.27364785e-12,7.35506417 0.316637427,7.67053084 0.703362573,7.67053084 L16.5593421,7.67053084 C16.9460673,7.67053084 17.2627047,7.35506417 17.2627047,6.96952132 C17.2627047,6.58422608 16.9460673,6.26875941 16.5593421,6.26875941 M16.1887719,3.59769274 L1.70149123,3.59769274 C1.31451754,3.59769274 0.998128655,3.91291179 0.998128655,4.29845465 C0.998128655,4.68399751 1.31451754,4.99921655 1.70149123,4.99921655 L16.1887719,4.99921655 C16.5754971,4.99921655 16.8921345,4.68399751 16.8921345,4.29845465 C16.8921345,3.91291179 16.5754971,3.59769274 16.1887719,3.59769274 M14.8528801,0.926626078 L6.79502924,0.926626078 C6.40830409,0.926626078 6.09166667,1.24184513 6.09166667,1.62738798 C6.09166667,2.01268322 6.40830409,2.32814989 6.79502924,2.32814989 L14.8528801,2.32814989 C15.2396053,2.32814989 15.5562427,2.01268322 15.5562427,1.62738798 C15.5562427,1.24184513 15.2396053,0.926626078 14.8528801,0.926626078" id="path-1"></path>
        <g id="3---Ready-for-UI-🖥" stroke="none" stroke-width="1" fill="none" fill-rule="evenodd">
            <g id="Current-PP---Account-Settings---OPT1---Mobile" transform="translate(-24.000000, -1967.000000)">
                <g id="Group-2" transform="translate(24.000000, 1964.000000)">
                    <g id="footer/ui/logo" transform="translate(0.000000, 3.000000)">
                        <mask id="mask-2" fill="white">
                            <use xlink:href="#path-1"></use>
                        </mask>
                        <use id="Mask" fill="#005587" xlink:href="#path-1"></use>
                        <g id="color/5-#B5B5B5" mask="url(#mask-2)" fill="#005587">
                            <g transform="translate(-1.076798, -3.201279)" id="Rectangle">
                                <rect x="0" y="0" width="88" height="32"></rect>
                            </g>
                        </g>
                    </g>
                </g>
            </g>
        </g>
    </symbol>
    <symbol id="participant_settings" name="Participant Settings" width="20px" height="20px" viewBox="0 0 20 20" version="1.1" xmlns="http://www.w3.org/2000/svg" xmlns:xlink="http://www.w3.org/1999/xlink">
        <path d="M5.72439418,7.23954576 C7.65859035,7.23954576 9.22656614,5.61891824 9.22656614,3.61977288 C9.22656614,1.62062752 7.65859035,0 5.72439418,0 C3.79019802,0 2.22222222,1.62062752 2.22222222,3.61977288 C2.22222222,5.61891824 3.79019802,7.23954576 5.72439418,7.23954576 Z M5.73925974,7.78277933 C3.09292523,7.67123136 0.720705402,9.45785254 0.0126980243,12.0957002 C-0.0376764141,12.3679241 0.0641949065,12.6463142 0.276257853,12.8159466 C0.527835486,13.0257786 0.843090371,13.1369182 1.16628973,13.1297173 L10.3136096,13.1297173 C10.636809,13.1369182 10.9520639,13.0257786 11.2036415,12.8159466 C11.4157045,12.6463142 11.5175758,12.3679241 11.4672014,12.0957002 C10.7590777,9.45731516 8.38609997,7.67055375 5.73925974,7.78277933 L5.73925974,7.78277933 Z" id="path-1"></path>
        <path d="M9.34192562,4.06710213 L8.81442562,3.8800188 C8.66167243,3.82571694 8.53910348,3.70919793 8.47714546,3.55938661 C8.41518744,3.40957528 8.41965009,3.24051935 8.48942562,3.09418546 L8.48942562,3.09418546 L8.72942562,2.5887688 C8.9088084,2.21057895 8.83095862,1.76044144 8.5349808,1.46446361 C8.23900298,1.16848579 7.78886546,1.09063601 7.41067562,1.2700188 L6.90525895,1.51043546 C6.75884113,1.5798946 6.58985586,1.58409515 6.44016784,1.52199646 C6.29047982,1.45989777 6.17409338,1.33730959 6.11984228,1.18460213 L5.93234228,0.657518798 C5.79176686,0.263251152 5.41842134,0 4.99984228,0 C4.58126323,0 4.2079177,0.263251152 4.06734228,0.657518798 L3.87984228,1.1850188 C3.82550425,1.33765134 3.70908174,1.4601409 3.55940393,1.52215595 C3.40972611,1.584171 3.24078897,1.57991268 3.09442562,1.51043546 L2.58900895,1.2700188 C2.2108191,1.09063601 1.76068159,1.16848579 1.46470376,1.46446361 C1.16872594,1.76044144 1.09087617,2.21057895 1.27025895,2.5887688 L1.51025895,3.09418546 C1.57989802,3.2405368 1.58429102,3.40953649 1.5223494,3.55930815 C1.46040778,3.70907981 1.33792787,3.8256082 1.18525895,3.8800188 L0.657758949,4.0675188 C0.263389741,4.20788401 0,4.58120628 0,4.99981046 C0,5.41841465 0.263389741,5.79173692 0.657758949,5.93210213 L1.18525895,6.11960213 C1.33790072,6.17391849 1.46038056,6.29036765 1.52232837,6.44007484 C1.58427617,6.58978204 1.57989055,6.75872725 1.51025895,6.9050188 L1.27025895,7.41043546 C1.09087617,7.78862531 1.16872594,8.23876283 1.46470376,8.53474065 C1.76068159,8.83071847 2.2108191,8.90856825 2.58900895,8.72918546 L3.09442562,8.48918546 C3.24075421,8.41943522 3.40980398,8.4150376 3.55956114,8.47708553 C3.70931831,8.53913346 3.82572191,8.66180115 3.87984228,8.81460213 L4.06734228,9.34168546 C4.2079177,9.73595311 4.58126323,9.99920426 4.99984228,9.99920426 C5.41842134,9.99920426 5.79176686,9.73595311 5.93234228,9.34168546 L6.11984228,8.81418546 C6.17415864,8.6615437 6.2906078,8.53906385 6.440315,8.47711605 C6.59002219,8.41516824 6.7589674,8.41955387 6.90525895,8.48918546 L7.41067562,8.72918546 C7.78886546,8.90856825 8.23900298,8.83071847 8.5349808,8.53474065 C8.83095862,8.23876283 8.9088084,7.78862531 8.72942562,7.41043546 L8.48942562,6.9050188 C8.41979402,6.75872725 8.41540839,6.58978204 8.4773562,6.44007484 C8.539304,6.29036765 8.66178385,6.17391849 8.81442562,6.11960213 L9.34192562,5.93168546 C9.73629482,5.79132025 9.99968457,5.41799799 9.99968457,4.9993938 C9.99968457,4.58078961 9.73629482,4.20746735 9.34192562,4.06710213 Z M4.99984228,6.99293546 C4.19616973,6.9812766 3.47312637,6.5019612 3.14942562,5.7662688 C2.72742896,4.74442709 3.21200432,3.57380486 4.23275895,3.14918546 C5.25455773,2.74054953 6.4158101,3.22124626 6.84984228,4.2325188 C7.27183894,5.2543605 6.78726358,6.42498274 5.76650895,6.84960213 C5.52351564,6.94954736 5.26253143,6.99834006 4.99984228,6.99293546 Z" id="path-3"></path>
        <g id="4---UI-Design-💪" stroke="none" stroke-width="1" fill="none" fill-rule="evenodd">
            <g id="PP-Lite---Account-Settings---Mobile-3---US5" transform="translate(-338.000000, -488.000000)">
                <g id="menu/basic/small/simple-copy-9" transform="translate(85.000000, 191.000000)">
                    <g id="Participant-Copy" transform="translate(24.000000, 278.000000)">
                        <g id="Participant-Settings" transform="translate(229.000000, 19.000000)">
                            <rect id="Rectangle" x="0" y="0" width="20" height="20"></rect>
                            <g id="Oval" transform="translate(1.111111, 0.000000)">
                                <g id="Mask">
                                    <mask id="mask-2" fill="white">
                                        <use xlink:href="#path-1"></use>
                                    </mask>
                                    <use fill="#595959" fill-rule="nonzero" xlink:href="#path-1"></use>
                                    <g id="color" mask="url(#mask-2)" fill="#005587">
                                        <g transform="translate(-1.111111, 0.000000)" id="Rectangle">
                                            <rect x="0" y="0" width="20" height="20"></rect>
                                        </g>
                                    </g>
                                </g>
                                <circle fill="#FFFFFF" cx="12.3888889" cy="14" r="5"></circle>
                            </g>
                            <g id="icon/cog" transform="translate(10.000000, 10.000000)">
                                <mask id="mask-4" fill="white">
                                    <use xlink:href="#path-3"></use>
                                </mask>
                                <use id="Mask" fill="#000000" fill-rule="nonzero" xlink:href="#path-3"></use>
                                <g id="color" mask="url(#mask-4)" fill="#005587">
                                    <g transform="translate(-10.000000, -10.000000)" id="Rectangle">
                                        <rect x="0" y="0" width="20" height="20"></rect>
                                    </g>
                                </g>
                            </g>
                        </g>
                    </g>
                </g>
            </g>
        </g>
    </symbol>
    <symbol id="participant_profile" name="Participant Profile" xmlns="http://www.w3.org/2000/svg" viewBox="0 0 24 24">
        <path d="M12,0A12,12,0,1,0,24,12,12.013,12.013,0,0,0,12,0Zm6.134,17.9a.749.749,0,0,1-.634.35H6.5a.75.75,0,0,1-.677-1.072,6.834,6.834,0,0,1,12.354,0A.748.748,0,0,1,18.134,17.9ZM12,4.35a3.7,3.7,0,1,1-3.7,3.7A3.7,3.7,0,0,1,12,4.35Z"></path>
    </symbol>
    <symbol id="manage_delegate" name="Manage Delegates" xmlns="http://www.w3.org/2000/svg" viewBox="0 0 24 24">
        <circle cx="12" cy="6.25" r="5.5" />
        <path d="M12,13.25a9.511,9.511,0,0,0-9.5,9.5.5.5,0,0,0,.5.5H21a.5.5,0,0,0,.5-.5A9.511,9.511,0,0,0,12,13.25Z" />
    </symbol>
    <symbol id="participant_switcher" name="Participant Switcher" xmlns="http://www.w3.org/2000/svg" viewBox="0 0 24 24">
        <path d="M12,0A12,12,0,1,0,24,12,12.013,12.013,0,0,0,12,0Zm6.134,17.9a.749.749,0,0,1-.634.35H6.5a.75.75,0,0,1-.677-1.072,6.834,6.834,0,0,1,12.354,0A.748.748,0,0,1,18.134,17.9ZM12,4.35a3.7,3.7,0,1,1-3.7,3.7A3.7,3.7,0,0,1,12,4.35Z"></path>
    </symbol>
    <symbol xmlns="http://www.w3.org/2000/svg" viewBox="0 0 24 24" id="info">
        <path d="M12 .9C5.9.9.9 5.9.9 12s5 11.1 11.1 11.1 11.1-5 11.1-11.1S18.1.9 12 .9zm0 5.6c.8 0 1.4.6 1.4 1.4s-.6 1.4-1.4 1.4-1.4-.6-1.4-1.4.6-1.4 1.4-1.4zm2.3 9.7c0 .2-.2.4-.5.4h-3.6c-.3 0-.5-.1-.5-.4v-.9c0-.3.2-.5.5-.5.2 0 .4-.2.4-.4v-1.9c0-.2-.2-.5-.4-.5-.3 0-.5-.1-.5-.4v-.9c0-.3.2-.5.5-.5h2.7c.3 0 .5.2.5.5v3.7c0 .2.2.4.4.4.3 0 .5.2.5.5v.9z"></path>
    </symbol>
    <symbol id="delegate_profile" name="Delegate Profile" width="40px" height="40px" viewBox="0 0 40 40" version="1.1" xmlns="http://www.w3.org/2000/svg" xmlns:xlink="http://www.w3.org/1999/xlink">
        <circle id="path-1" cx="13" cy="13" r="13"></circle>
        <path d="M5.90582634,7.46321966 C7.90132601,7.46321966 9.51899811,5.79252103 9.51899811,3.73160983 C9.51899811,1.67069863 7.90132601,0 5.90582634,0 C3.91032668,0 2.29265458,1.67069863 2.29265458,3.73160983 C2.29265458,5.79252103 3.91032668,7.46321966 5.90582634,7.46321966 Z M5.92116306,8.02323704 C3.19095414,7.90824267 0.743547843,9.75006351 0.0131004826,12.4694105 C-0.0388705515,12.750045 0.0662295359,13.0370363 0.285013724,13.2119097 C0.544565,13.4282247 0.86981175,13.542798 1.20325478,13.5353746 L10.640495,13.5353746 C10.973938,13.542798 11.2991847,13.4282247 11.558736,13.2119097 C11.7775202,13.0370363 11.8826203,12.750045 11.8306493,12.4694105 C11.1000819,9.74950953 8.65189373,7.90754412 5.92116306,8.02323704 L5.92116306,8.02323704 Z" id="path-3"></path>
        <linearGradient x1="50%" y1="-140.727151%" x2="50%" y2="100%" id="linearGradient-5">
            <stop stop-color="#00E1DA" offset="0%"></stop>
            <stop stop-color="#005E8B" offset="100%"></stop>
        </linearGradient>
        <filter x="-52.5%" y="-52.5%" width="205.0%" height="205.0%" filterUnits="objectBoundingBox" id="filter-6">
            <feOffset dx="2" dy="-1" in="SourceAlpha" result="shadowOffsetOuter1"></feOffset>
            <feGaussianBlur stdDeviation="1.5" in="shadowOffsetOuter1" result="shadowBlurOuter1"></feGaussianBlur>
            <feColorMatrix values="0 0 0 0 0   0 0 0 0 0   0 0 0 0 0  0 0 0 0.08 0" type="matrix" in="shadowBlurOuter1" result="shadowMatrixOuter1"></feColorMatrix>
            <feMerge>
                <feMergeNode in="shadowMatrixOuter1"></feMergeNode>
                <feMergeNode in="SourceGraphic"></feMergeNode>
            </feMerge>
        </filter>
        <circle id="path-7" cx="10" cy="10" r="10"></circle>
        <path d="M4.24194513,5.36056539 C5.67524161,5.36056539 6.83715798,4.16056195 6.83715798,2.68028269 C6.83715798,1.20000344 5.67524161,0 4.24194513,0 C2.80864866,0 1.64673229,1.20000344 1.64673229,2.68028269 C1.64673229,4.16056195 2.80864866,5.36056539 4.24194513,5.36056539 Z M4.25296095,5.76280597 C2.29194893,5.6802096 0.534063986,7.00312404 0.00940961096,8.95633429 C-0.0279193354,9.15790412 0.0475703214,9.36403976 0.204715227,9.48964507 C0.391141682,9.64501648 0.624754861,9.72731043 0.864255134,9.72197848 L7.64268931,9.72197848 C7.88218958,9.72731043 8.11580276,9.64501648 8.30222922,9.48964507 C8.45937412,9.36403976 8.53486378,9.15790412 8.49753483,8.95633429 C7.97279427,7.00272614 6.21434772,5.67970786 4.25296095,5.76280597 L4.25296095,5.76280597 Z" id="path-9"></path>

        <g id="5---Dev-Handoff" stroke="none" stroke-width="1" fill="none" fill-rule="evenodd">
            <g id="Avatar-Delegate" transform="translate(8.000000, 0.000000)">
                <rect id="Rectangle" x="0" y="0" width="32" height="32"></rect>
                <g id="avatar-copy" transform="translate(6.000000, 0.000000)">
                    <mask id="mask-2" fill="white">
                        <use xlink:href="#path-1"></use>
                    </mask>
                    <g id="container"></g>
                    <g id="color" mask="url(#mask-2)" fill="#FFFFFF">
                        <rect id="Rectangle" x="0" y="0" width="26" height="26"></rect>
                    </g>
                    <g id="icon" mask="url(#mask-2)">
                        <g transform="translate(7.000000, 6.000000)">
                            <mask id="mask-4" fill="white">
                                <use xlink:href="#path-3"></use>
                            </mask>
                            <use id="Mask" stroke="none" fill="#595959" fill-rule="nonzero" xlink:href="#path-3"></use>
                            <g id="color" stroke="none" stroke-width="1" fill="none" fill-rule="evenodd" mask="url(#mask-4)">
                                <g transform="translate(-0.845982, 0.000000)" fill="url(#linearGradient-5)" id="Rectangle">
                                    <rect x="0" y="0" width="13.535714" height="13.535714"></rect>
                                </g>
                            </g>
                        </g>
                    </g>
                </g>
                <g id="avatar-copy" filter="url(#filter-6)" transform="translate(0.000000, 12.000000)">
                    <mask id="mask-8" fill="white">
                        <use xlink:href="#path-7"></use>
                    </mask>
                    <g id="container"></g>
                    <g id="color" mask="url(#mask-8)" fill="#FFFFFF">
                        <rect id="Rectangle" x="0" y="0" width="20" height="20"></rect>
                    </g>
                    <g id="icon" mask="url(#mask-8)">
                        <g transform="translate(5.722222, 5.111111)">
                            <mask id="mask-10" fill="white">
                                <use xlink:href="#path-9"></use>
                            </mask>
                            <use id="Mask" stroke="none" fill="#595959" fill-rule="nonzero" xlink:href="#path-9"></use>
                            <g id="color" stroke="none" stroke-width="1" fill="none" fill-rule="evenodd" mask="url(#mask-10)">
                                <g transform="translate(-0.607639, 0.000000)" fill="url(#linearGradient-5)" id="Rectangle">
                                    <rect x="0" y="0" width="9.72222222" height="9.72222222"></rect>
                                </g>
                            </g>
                        </g>
                    </g>
                </g>
            </g>
        </g>
    </symbol>
    <symbol id="delegate_switcher" name="Delegate Switcher" width="40px" height="40px" viewBox="0 0 40 40" version="1.1" xmlns="http://www.w3.org/2000/svg" xmlns:xlink="http://www.w3.org/1999/xlink">

        <circle id="path-1" cx="13" cy="13" r="13"></circle>
        <path d="M5.90582634,7.46321966 C7.90132601,7.46321966 9.51899811,5.79252103 9.51899811,3.73160983 C9.51899811,1.67069863 7.90132601,0 5.90582634,0 C3.91032668,0 2.29265458,1.67069863 2.29265458,3.73160983 C2.29265458,5.79252103 3.91032668,7.46321966 5.90582634,7.46321966 Z M5.92116306,8.02323704 C3.19095414,7.90824267 0.743547843,9.75006351 0.0131004826,12.4694105 C-0.0388705515,12.750045 0.0662295359,13.0370363 0.285013724,13.2119097 C0.544565,13.4282247 0.86981175,13.542798 1.20325478,13.5353746 L10.640495,13.5353746 C10.973938,13.542798 11.2991847,13.4282247 11.558736,13.2119097 C11.7775202,13.0370363 11.8826203,12.750045 11.8306493,12.4694105 C11.1000819,9.74950953 8.65189373,7.90754412 5.92116306,8.02323704 L5.92116306,8.02323704 Z" id="path-3"></path>
        <filter x="-52.5%" y="-52.5%" width="205.0%" height="205.0%" filterUnits="objectBoundingBox" id="filter-5">
            <feOffset dx="2" dy="-1" in="SourceAlpha" result="shadowOffsetOuter1"></feOffset>
            <feGaussianBlur stdDeviation="1.5" in="shadowOffsetOuter1" result="shadowBlurOuter1"></feGaussianBlur>
            <feColorMatrix values="0 0 0 0 0   0 0 0 0 0   0 0 0 0 0  0 0 0 0.08 0" type="matrix" in="shadowBlurOuter1" result="shadowMatrixOuter1"></feColorMatrix>
            <feMerge>
                <feMergeNode in="shadowMatrixOuter1"></feMergeNode>
                <feMergeNode in="SourceGraphic"></feMergeNode>
            </feMerge>
        </filter>
        <circle id="path-6" cx="10" cy="10" r="10"></circle>
        <path d="M4.24194513,5.36056539 C5.67524161,5.36056539 6.83715798,4.16056195 6.83715798,2.68028269 C6.83715798,1.20000344 5.67524161,0 4.24194513,0 C2.80864866,0 1.64673229,1.20000344 1.64673229,2.68028269 C1.64673229,4.16056195 2.80864866,5.36056539 4.24194513,5.36056539 Z M4.25296095,5.76280597 C2.29194893,5.6802096 0.534063986,7.00312404 0.00940961096,8.95633429 C-0.0279193354,9.15790412 0.0475703214,9.36403976 0.204715227,9.48964507 C0.391141682,9.64501648 0.624754861,9.72731043 0.864255134,9.72197848 L7.64268931,9.72197848 C7.88218958,9.72731043 8.11580276,9.64501648 8.30222922,9.48964507 C8.45937412,9.36403976 8.53486378,9.15790412 8.49753483,8.95633429 C7.97279427,7.00272614 6.21434772,5.67970786 4.25296095,5.76280597 L4.25296095,5.76280597 Z" id="path-8"></path>

        <g id="4---UI-Design-💪" stroke="none" stroke-width="1" fill="none" fill-rule="evenodd">
            <g id="PP-Lite---Account-Settings---Desktop-4---US5" transform="translate(-1056.000000, -171.000000)">
                <g id="menu/basic/small/simple-copy-8" transform="translate(1032.000000, 139.000000)">
                    <g id="Avatar-Delegate" transform="translate(32.000000, 32.000000)">
                        <rect id="Rectangle" x="0" y="0" width="32" height="32"></rect>
                        <g id="avatar-copy" transform="translate(6.000000, 0.000000)">
                            <mask id="mask-2" fill="white">
                                <use xlink:href="#path-1"></use>
                            </mask>
                            <g id="container"></g>
                            <g id="color" mask="url(#mask-2)" fill="#FFFFFF">
                                <rect id="Rectangle" x="0" y="0" width="26" height="26"></rect>
                            </g>
                            <g id="icon" mask="url(#mask-2)">
                                <g transform="translate(7.000000, 6.000000)">
                                    <mask id="mask-4" fill="white">
                                        <use xlink:href="#path-3"></use>
                                    </mask>
                                    <use id="Mask" stroke="none" fill="#595959" fill-rule="nonzero" xlink:href="#path-3"></use>
                                    <g id="color" stroke="none" stroke-width="1" fill="none" fill-rule="evenodd" mask="url(#mask-4)">
                                        <g transform="translate(-0.845982, 0.000000)" fill="#005587" id="Rectangle">
                                            <rect x="0" y="0" width="13.535714" height="13.535714"></rect>
                                        </g>
                                    </g>
                                </g>
                            </g>
                        </g>
                        <g id="avatar-copy" filter="url(#filter-5)" transform="translate(0.000000, 12.000000)">
                            <mask id="mask-7" fill="white">
                                <use xlink:href="#path-6"></use>
                            </mask>
                            <g id="container"></g>
                            <g id="color" mask="url(#mask-7)" fill="#FFFFFF">
                                <rect id="Rectangle" x="0" y="0" width="20" height="20"></rect>
                            </g>
                            <g id="icon" mask="url(#mask-7)">
                                <g transform="translate(5.722222, 5.111111)">
                                    <mask id="mask-9" fill="white">
                                        <use xlink:href="#path-8"></use>
                                    </mask>
                                    <use id="Mask" stroke="none" fill="#595959" fill-rule="nonzero" xlink:href="#path-8"></use>
                                    <g id="color" stroke="none" stroke-width="1" fill="none" fill-rule="evenodd" mask="url(#mask-9)">
                                        <g transform="translate(-0.607639, 0.000000)" fill="#005587" id="Rectangle">
                                            <rect x="0" y="0" width="9.72222222" height="9.72222222"></rect>
                                        </g>
                                    </g>
                                </g>
                            </g>
                        </g>
                    </g>
                </g>
            </g>
        </g>
    </symbol>
    <symbol id="time_clock" name="time clock" xmlns="http://www.w3.org/2000/svg" viewBox="0 0 24 24">
        <path d="M12,0A12,12,0,1,0,24,12,12.013,12.013,0,0,0,12,0Zm5.2,17.221a1.016,1.016,0,0,1-1.413.062l-4.959-4.546A1,1,0,0,1,10.5,12V6.5a1,1,0,0,1,2,0v5.06l4.634,4.248A1,1,0,0,1,17.2,17.222Z" />
    </symbol>
    <symbol id="calendar" name="calendar" xmlns="http://www.w3.org/2000/svg" viewBox="0 0 24 24">
        <path d="M21.5,3H18.75a.25.25,0,0,1-.25-.25V1a1,1,0,0,0-2,0v4.75a.75.75,0,0,1-.75.75h0a.75.75,0,0,1-.75-.75V3.5a.5.5,0,0,0-.5-.5H8.25A.25.25,0,0,1,8,2.751V1A1,1,0,1,0,6,1v4.75a.75.75,0,0,1-.75.75h0a.75.75,0,0,1-.75-.75V3.5A.5.5,0,0,0,4,3H2.5a2,2,0,0,0-2,2V22a2,2,0,0,0,2,2h19a2,2,0,0,0,2-2V5A2,2,0,0,0,21.5,3ZM21,22H3a.5.5,0,0,1-.5-.5V9.5A.5.5,0,0,1,3,9H21a.5.5,0,0,1,.5.5v12A.5.5,0,0,1,21,22Z" />
    </symbol>
    <symbol id="location_pin" name="location pin" xmlns="http://www.w3.org/2000/svg" viewBox="0 0 24 24">
        <path d="M12,0A8.009,8.009,0,0,0,4,8c0,3.51,5,12.025,7.148,15.524A1,1,0,0,0,12,24a.991.991,0,0,0,.852-.477C15,20.026,20,11.514,20,8A8.009,8.009,0,0,0,12,0Zm0,11.5A3.5,3.5,0,1,1,15.5,8,3.5,3.5,0,0,1,12,11.5Z" />
    </symbol>
    <symbol id="reminderbell_icom" name="reminder pin" xmlns="http://www.w3.org/2000/svg" viewBox="0 0 24 24">
        <path d="m12.236 21h-4.472c-0.12707 2.171e-4 -0.23377 0.095726-0.248 0.222-0.010897 0.092262-0.01624 0.1851-0.016 0.278 0 1.3807 1.1193 2.5 2.5 2.5 1.3807 0 2.5-1.1193 2.5-2.5 2.401e-4 -0.092904-0.0051029-0.18574-0.016-0.278-0.013357-0.12672-0.12058-0.2227-0.248-0.222z" />
        <path d="m19.446 19.276c-1.1445-2.2749-1.7424-4.7854-1.746-7.332v-0.768c0.056259-3.0248-1.3922-5.8805-3.866-7.622-0.70959-0.45744-1.5029-0.76947-2.334-0.918v-1.136c0-0.82843-0.67157-1.5-1.5-1.5-0.82843-5.0727e-17 -1.5 0.67157-1.5 1.5v1.149c-1.0372 0.19645-2.0138 0.63387-2.851 1.277-2.1617 1.7809-3.3945 4.4495-3.349 7.25v0.768c-0.0036425 2.5466-0.60149 5.0571-1.746 7.332-0.077588 0.15483-0.069526 0.33879 0.021308 0.48625 0.090835 0.14745 0.25151 0.2374 0.42469 0.23775h18c0.17347-1.784e-4 0.33446-0.090261 0.42536-0.23802 0.090895-0.14776 0.098708-0.33207 0.020645-0.48698v1e-3z" />
    </symbol>
    <symbol id="alarm_bell_off" width="24px" height="26px" viewBox="0 0 24 26" version="1.1" xmlns="http://www.w3.org/2000/svg" xmlns:xlink="http://www.w3.org/1999/xlink">
        <title>A782385D-E172-442D-971F-3F3F406138B5</title>
        <g id="---↳--Visits" stroke="none" stroke-width="1" fill="none" fill-rule="evenodd">
            <g id="My-Visits---Create-Reminder---Desktop-1" transform="translate(-296.000000, -347.000000)" fill="#B5B5B5" fill-rule="nonzero">
                <g id="Group-15" transform="translate(32.000000, 176.000000)">
                    <g id="Group-28" transform="translate(0.000000, 144.000000)">
                        <g id="alarm-bell-off" transform="translate(276.000000, 40.000000) scale(-1, 1) translate(-276.000000, -40.000000) translate(264.000000, 27.000000)">
                            <path d="M13.7409993,21 L9.26799996,21 C9.14092651,21.0002171 9.03423206,21.0957258 9.02,21.222 C9.00826427,21.3142322 9.00158761,21.4070378 9,21.5 C9,22.8807119 10.119288,24 11.5,24 C12.8807113,24 14,22.8807119 14,21.5 C14.0000694,21.4071292 13.9950619,21.3143241 13.9849993,21.222 C13.9713786,21.0970104 13.8667162,21.0017847 13.7409993,21 L13.7409993,21 Z" id="Path"></path>
                            <path d="M9,20 L20.5146598,20 C20.6830572,20.0001777 20.8394801,19.9053093 20.9278581,19.7494005 C21.0162362,19.5934917 21.0239113,19.3988726 20.9481323,19.2353052 C19.8380741,16.8362843 19.2579854,14.1886336 19.2540014,11.5029245 L19.2540014,10.6928756 C19.2579408,10.1247512 19.2095354,9.55762681 19.1095105,9 L9,20 Z" id="Path"></path>
                            <path d="M0.993957841,26 C1.25858066,26.0044067 1.51368524,25.8930423 1.70142022,25.6910279 L23.7158082,1.85086366 C24.0947306,1.42252594 24.0947306,0.746929009 23.7158082,0.318591286 C23.5281172,0.115107852 23.2734283,0.000773010374 23.0078455,0.000773010374 C22.7422626,0.000773010374 22.4875737,0.115107852 22.2998828,0.318591286 L17.6848665,5.32177485 C17.1035932,4.78516777 16.4879881,4.29377256 15.8426625,3.85127017 C15.1311292,3.35485743 14.3355106,3.01669916 13.5021328,2.85648514 L13.5021328,1.62546575 C13.5021328,0.727745803 12.8301207,0 12.0011518,0 C11.1721829,0 10.5001708,0.727745803 10.5001708,1.62546575 L10.5001708,2.87057251 C9.4627518,3.08415433 8.48600557,3.55810202 7.64830692,4.25438568 C5.77908526,5.84300753 4.29611603,7.09895073 4.29611603,10.4853377 L4.29611603,12.9430419 C4.29611603,15.5221142 3.76777072,16.6534384 2.71408206,18.9095848 L2.54897415,19.2628527 C2.47133553,19.430638 2.47940223,19.6299835 2.57029637,19.7897708 C2.66119051,19.9495581 2.8219665,20.0470294 2.99526584,20.0474109 L4.08597869,20.0474109 L0.293500042,24.1587556 C0.00786992791,24.4661973 -0.0783848054,24.9298186 0.0750271719,25.3330527 C0.228439149,25.7362868 0.591239892,25.9995499 0.993957841,26 Z" id="Path"></path>
                        </g>
                    </g>
                </g>
            </g>
        </g>
    </symbol>

    <symbol id="icon_bell" width="19px" height="24px" viewBox="0 0 19 24" version="1.1" xmlns="http://www.w3.org/2000/svg" xmlns:xlink="http://www.w3.org/1999/xlink">
        <title>E2FF6855-7331-4CDD-AC0E-2B4C3929C4B4</title>
        <path d="M11.4416096,20.9999962 L7.08140964,20.9999962 C6.957513,21.0002171 6.8534859,21.0957258 6.83960964,21.222 C6.82898493,21.3142625 6.82377554,21.4070965 6.82400209,21.4999962 C6.82400209,22.8807119 7.91531556,23.9999962 9.26150964,23.9999962 C10.6077037,23.9999962 11.6990172,22.8807119 11.6990172,21.4999962 C11.6992437,21.4070965 11.6940343,21.3142625 11.6834096,21.222 C11.6703864,21.0952763 11.5658478,20.999298 11.4416096,20.9999962 Z M18.4713596,19.276 C17.3554672,17.001124 16.7725611,14.4905544 16.7690096,11.944 L16.7690096,11.176 C16.8238622,8.15115278 15.411659,5.29553783 12.9996596,3.554 C12.3078128,3.0965642 11.5343151,2.78453427 10.7240096,2.636 L10.7240096,1.5 C10.7240096,0.671572875 10.0692261,0 9.26150964,0 C8.45379319,0 7.79900964,0.671572875 7.79900964,1.5 L7.79900964,2.649 C6.78769166,2.84544634 5.83552831,3.28286824 5.01928464,3.926 C2.91160654,5.70689585 1.70969412,8.37554247 1.75400964,11.176 L1.75400964,11.944 C1.75045821,14.4905544 1.16755204,17.001124 0.0516596368,19.276 C-0.0239885439,19.4308343 -0.0161286535,19.6147929 0.0724352096,19.7622466 C0.160999073,19.9097002 0.317653218,19.999648 0.486509637,20 L18.0365096,20 C18.2056474,20 18.3626085,19.9097386 18.4512311,19.7619834 C18.5398537,19.6142282 18.5474718,19.4299179 18.4713596,19.275 L18.4713596,19.276 Z" id="path-1"></path>
        <g id="---↳--Visits" stroke="none" stroke-width="1" fill="none" fill-rule="evenodd">
            <g id="My-Visits---Create-Reminder---Desktop-1" transform="translate(-299.000000, -436.000000)">
                <g id="Group-15" transform="translate(32.000000, 176.000000)">
                    <g id="Group-29" transform="translate(0.000000, 232.000000)">
                        <g id="icon/bell" transform="translate(267.000000, 28.000000)">
                            <mask id="mask-2" fill="white">
                                <use xlink:href="#path-1"></use>
                            </mask>
                            <use id="Mask" fill="#000000" fill-rule="nonzero" xlink:href="#path-1"></use>
                            <g id="color" mask="url(#mask-2)" fill="#009DD6">
                                <g transform="translate(-2.738490, 0.000000)" id="Rectangle">
                                    <rect x="0" y="0" width="24" height="24"></rect>
                                </g>
                            </g>
                        </g>
                    </g>
                </g>
            </g>
        </g>
    </symbol>
    <symbol id="Pencil_Icon" width="16px" height="16px" viewBox="0 0 16.0 16.0" xmlns="http://www.w3.org/2000/svg" xmlns:xlink="http://www.w3.org/1999/xlink">
        <defs>
            <clipPath id="i0">
                <path d="M1366,0 L1366,947 L0,947 L0,0 L1366,0 Z"></path>
            </clipPath>
            <clipPath id="i1">
                <path d="M1.51134053,10.6787185 L4.81134053,13.9793852 C4.8974969,14.065393 4.9299134,14.191529 4.89590125,14.3084197 C4.86188911,14.4253104 4.76685849,14.5143626 4.6480072,14.5407185 L0.405340529,15.4833852 C0.294079111,15.5068885 0.178441303,15.4730983 0.0973405287,15.3933852 C0.0168875808,15.3127293 -0.0168030784,15.196572 0.00800719539,15.0853852 L0.950673862,10.8420519 C0.977176916,10.7234773 1.06609806,10.6287153 1.18274929,10.5947325 C1.29940051,10.5607497 1.42530229,10.5929295 1.51134053,10.6787185 Z M11.8826739,4.55071852 L13.0613405,5.72938519 C13.1914678,5.8595518 13.1914678,6.0705519 13.0613405,6.20071852 L5.9900072,13.2720519 C5.85880866,13.399663 5.64987239,13.399663 5.51867386,13.2720519 L4.3400072,12.0933852 C4.27545067,12.0279628 4.27545067,11.9228075 4.3400072,11.8573852 L11.6466739,4.55071852 C11.7120962,4.486162 11.8172515,4.486162 11.8826739,4.55071852 Z M9.76134053,2.43005185 L10.9400072,3.60805185 C11.0045637,3.6734742 11.0045637,3.7786295 10.9400072,3.84405185 L3.63334053,11.1507185 C3.56791818,11.215275 3.46276288,11.215275 3.39734053,11.1507185 L2.21867386,9.97205185 C2.08854655,9.84188524 2.08854655,9.63088514 2.21867386,9.50071852 L9.2900072,2.43005185 C9.42017381,2.29992454 9.63117391,2.29992454 9.76134053,2.43005185 Z M14.7113405,0.780051853 C15.752359,1.82138479 15.752359,3.50938558 14.7113405,4.55071852 L14.2393405,5.02205185 C14.1073097,5.14759702 13.900038,5.14759702 13.7680072,5.02205185 L10.4680072,1.72271852 C10.3378799,1.5925519 10.3378799,1.3815518 10.4680072,1.25138519 L10.9393405,0.780051853 C11.9815869,-0.260017284 13.6690941,-0.260017284 14.7113405,0.780051853 Z"></path>
            </clipPath>
            <clipPath id="i2">
                <path d="M16,0 L16,16 L0,16 L0,0 L16,0 Z"></path>
            </clipPath>
        </defs>
        <g transform="translate(-761.0 -443.0)">
            <g clip-path="url(#i0)">
                <g transform="translate(745.0 424.0)">
                    <g transform="translate(16.0 11.0)">
                        <g transform="translate(0.0 8.0)">
                            <g transform="translate(0.2546594712751231 0.2546148141035687)">
                                <g clip-path="url(#i1)">
                                    <polygon points="-9.02056208e-16,-1.11022302e-16 15.4921044,-1.11022302e-16 15.4921044,15.4907177 -9.02056208e-16,15.4907177 -9.02056208e-16,-1.11022302e-16" stroke="none" fill="#000000"></polygon>
                                    <g transform="translate(-0.2546594712751231 -0.2546148141035687)">
                                        <g clip-path="url(#i2)">
                                            <polygon points="0.254659471,0.254614814 15.7467639,0.254614814 15.7467639,15.7453325 0.254659471,15.7453325 0.254659471,0.254614814" stroke="none" fill="#999999"></polygon>
                                        </g>
                                    </g>
                                </g>
                            </g>
                        </g>
                    </g>
                </g>
            </g>
        </g>
    </symbol>
    <symbol id="icon-close" viewBox="0 0 16.0 16.0" width="16px" height="16px">
        <path d="M16 14.114l-6.6-6.6-1.886 1.886 6.6 6.6-6.6 6.6 1.886 1.886 6.6-6.6 6.6 6.6 1.886-1.886-6.6-6.6 6.6-6.6-1.886-1.886-6.6 6.6z"></path>
    </symbol>
    <symbol id="icon-opentask" width="24px" height="24px" viewBox="0 0 24.0 24.0" xmlns="http://www.w3.org/2000/svg" xmlns:xlink="http://www.w3.org/1999/xlink">
        <defs>
            <clipPath id="i0">
                <path d="M1366,0 L1366,947 L0,947 L0,0 L1366,0 Z"></path>
            </clipPath>
            <clipPath id="i1">
                <path d="M12,0 C18.627417,0 24,5.372583 24,12 C24,18.627417 18.627417,24 12,24 C5.372583,24 0,18.627417 0,12 C0,5.372583 5.372583,0 12,0 Z"></path>
            </clipPath>
        </defs>
        <g transform="translate(-466.0 -412.0)">
            <g clip-path="url(#i0)">
                <g transform="translate(428.0 376.0)">
                    <g transform="translate(38.0 36.0)">
                        <g clip-path="url(#i1)">
                            <polygon points="0,0 24,0 24,24 0,24 0,0" stroke="none"></polygon>
                            <path d="M12,24 C18.627417,24 24,18.627417 24,12 C24,5.372583 18.627417,0 12,0 C5.372583,0 0,5.372583 0,12 C0,18.627417 5.372583,24 12,24 Z" stroke="#C42EA4" stroke-width="2" fill="none" stroke-miterlimit="5"></path>
                        </g>
                    </g>
                </g>
            </g>
        </g>
    </symbol>
    <symbol id="icon-completedtask" width="24px" height="24px" viewBox="0 0 24.0 24.0" xmlns="http://www.w3.org/2000/svg" xmlns:xlink="http://www.w3.org/1999/xlink">
        <defs>
            <clipPath id="i0">
                <path d="M1366,0 L1366,947 L0,947 L0,0 L1366,0 Z"></path>
            </clipPath>
            <clipPath id="i1">
                <path d="M12,0 C18.627417,0 24,5.372583 24,12 C24,18.627417 18.627417,24 12,24 C5.372583,24 0,18.627417 0,12 C0,5.372583 5.372583,0 12,0 Z"></path>
            </clipPath>
            <clipPath id="i2">
                <path d="M9,0 C13.9705627,0 18,4.02943725 18,9 C18,13.9705627 13.9705627,18 9,18 C4.02943725,18 0,13.9705627 0,9 C0,4.02943725 4.02943725,0 9,0 Z"></path>
            </clipPath>
        </defs>
        <g transform="translate(-462.0 -260.0)">
            <g clip-path="url(#i0)">
                <g transform="translate(428.0 224.0)">
                    <g transform="translate(34.0 36.0)">
                        <g clip-path="url(#i1)">
                            <path d="M12,24 C18.627417,24 24,18.627417 24,12 C24,5.372583 18.627417,0 12,0 C5.372583,0 0,5.372583 0,12 C0,18.627417 5.372583,24 12,24 Z" stroke="#C42EA4" stroke-width="2" fill="none" stroke-miterlimit="5"></path>
                        </g>
                        <g transform="translate(3.0 3.0)">
                            <g clip-path="url(#i2)">
                                <polygon points="0,0 18,0 18,18 0,18 0,0" stroke="none" fill="#C32EA5"></polygon>
                                <path d="M9,18 C13.9705627,18 18,13.9705627 18,9 C18,4.02943725 13.9705627,0 9,0 C4.02943725,0 0,4.02943725 0,9 C0,13.9705627 4.02943725,18 9,18 Z" stroke="#C42EA4" stroke-width="2" fill="none" stroke-miterlimit="5"></path>
                            </g>
                        </g>
                    </g>
                </g>
            </g>
        </g>
    </symbol>
    <symbol id="task-illustration" width="60px" height="47px" viewBox="0 0 60 47" version="1.1" xmlns="http://www.w3.org/2000/svg" xmlns:xlink="http://www.w3.org/1999/xlink">
        <title>A5E9F31E-D2FE-463B-BD10-F554022927DB</title>
        <g id="---↳--Tasks" stroke="none" stroke-width="1" fill="none" fill-rule="evenodd">
            <g id="PP-Lite---Open-Tasks---Desktop" transform="translate(-452.000000, -297.000000)" fill-rule="nonzero">
                <g id="task-1" transform="translate(428.000000, 272.000000)">
                    <g id="Task-Illustration" transform="translate(24.000000, 25.000000)">
                        <path d="M51.6267664,21.7701693 C51.529738,21.8494609 51.432653,21.925305 51.3333151,22 L26.8243426,22 C26.6417928,21.925305 26.4600329,21.8486948 26.2790628,21.7701693 C23.6916556,20.650166 21.2833717,19.1587842 19.1310844,17.3436295 C17.7019409,16.1393165 16.3871995,14.8959323 15.4340605,13.7306906 C14.104315,12.1046382 12.8796643,10.3326433 12.3100754,8.31358616 C11.7416672,6.29452325 11.911468,3.98012786 13.1811866,2.30581104 C13.574359,1.7907678 14.0577077,1.35048824 14.6080183,1.0061183 C14.6992886,0.948660619 14.7916968,0.893501246 14.8864123,0.841789333 C16.4091448,-0.00858434441 18.330428,-0.215431996 20.0449609,0.22469384 C22.5000158,0.855579176 24.5402728,2.61723167 25.9959874,4.68340988 C27.451701,6.74843893 28.3967735,9.120292 29.3279117,11.4657145 C30.2729842,7.2793479 33.1347129,3.52965965 37.00041,1.62321379 C40.8649772,-0.283232059 45.6664939,-0.260248987 49.4489825,1.80478006 C50.6391307,2.45846415 51.7142052,3.30072752 52.6319225,4.29844342 C52.7231408,4.39612147 52.8121593,4.49609784 52.8999359,4.59722336 C54.7449507,6.7220084 55.8991465,9.44320416 55.9938585,12.2494373 C56.1152006,15.8646677 54.4307349,19.4959966 51.6267664,21.7701693 Z" id="Path" fill="#F2F2F2"></path>
                        <path d="M28,22 L27.6586202,22 C27.6541197,21.9200842 27.6483959,21.8413611 27.6415626,21.7614453 C27.5222337,20.2012446 27.2724443,18.6550391 26.8950719,17.1406403 C26.0292624,13.6832518 24.5503776,10.4275623 22.5356449,7.54358375 C20.5266784,4.65038151 17.9940527,2.19996849 15.0821858,0.332074458 C15.0390172,0.30615404 15.0096461,0.260834992 15.0025635,0.209218776 C14.9911892,0.141228404 15.0182541,0.0724612552 15.0720548,0.032654084 C15.1258555,-0.00715308728 15.1967363,-0.0108561921 15.2540467,0.0231460912 C15.2618772,0.0278914904 15.269463,0.0330673956 15.2767723,0.0386521482 C16.9265116,1.09265207 18.4579349,2.33778034 19.8421719,3.75056365 C22.3182369,6.28236604 24.3147883,9.28250523 25.7264219,12.5925945 C26.9717972,15.4916084 27.7346162,18.5926626 27.9818397,21.7614453 C27.9886651,21.8413587 27.9943274,21.9212805 28,22 Z" id="Path" fill="#FFFFFF"></path>
                        <path d="M52.8822115,4.33802884 C52.8796989,4.33933842 52.8769531,4.3401313 52.8741337,4.34036138 C52.6207716,4.38701212 52.3662224,4.4359954 52.1139906,4.48847748 C50.0436341,4.91709104 48.0169489,5.53745685 46.0597329,6.34167823 C44.1076733,7.14476413 42.2299649,8.12046232 40.4485911,9.25734965 C38.6649367,10.3936486 36.9829502,11.6845414 35.4217358,13.1153661 C33.860496,14.5441347 32.4283475,16.1099877 31.1422012,17.7944356 C30.1809326,19.0565049 29.3069299,20.3837417 28.5263829,21.7667463 C28.4824332,21.84372 28.4396127,21.92186 28.3967933,22 L28,22 C28.0416335,21.92186 28.0844564,21.84372 28.1284037,21.7667463 C29.0727166,20.0721445 30.1555008,18.4598341 31.3655119,16.9465583 C32.7036007,15.2717944 34.1868592,13.7203715 35.7977424,12.3106408 C37.3983624,10.9088604 39.116254,9.64926169 40.9322125,8.54592582 C42.7557175,7.43812899 44.6729151,6.49521465 46.6613618,5.72822097 C48.5910034,4.98457746 50.58322,4.41780968 52.613823,4.03479901 C52.6704828,4.02430259 52.7260146,4.01380618 52.7827357,4.00330976 C52.9990354,3.9636543 53.0916239,4.29254203 52.8822115,4.33802884 Z" id="Path" fill="#FFFFFF"></path>
                        <path d="M58.0232558,22 L1.97674419,22 C0.885659024,22.0015097 0.00154477199,22.8655304 0,23.9318182 L0,45.0681818 C0.00154413327,46.1344698 0.885658759,46.998491 1.97674419,47 L58.0232558,47 C59.1143415,46.9984916 59.9984565,46.1344701 60,45.0681818 L60,23.9318182 C59.9984559,22.8655302 59.1143412,22.001509 58.0232558,22 L58.0232558,22 Z M59.7674419,45.0681818 C59.7662707,46.0091018 58.9860576,46.7715827 58.0232558,46.7727273 L1.97674419,46.7727273 C1.01394237,46.7715827 0.233729334,46.0091018 0.23255814,45.0681818 L0.23255814,23.9318182 C0.233729334,22.9908982 1.01394237,22.2284173 1.97674419,22.2272727 L58.0232558,22.2272727 C58.9860576,22.2284173 59.7662707,22.9908982 59.7674419,23.9318182 L59.7674419,45.0681818 Z" id="Shape" fill="#3F3D56"></path>
                        <path d="M11.5,41 C7.91014913,41 5,38.0898509 5,34.5 C5,30.9101491 7.91014913,28 11.5,28 C15.0898509,28 18,30.9101491 18,34.5 C17.9959448,38.0881698 15.0881698,40.9959448 11.5,41 L11.5,41 Z M11.5,28.2241379 C8.03393709,28.2241379 5.22413793,31.0339371 5.22413793,34.5 C5.22413793,37.9660629 8.03393709,40.7758621 11.5,40.7758621 C14.9660629,40.7758621 17.7758621,37.9660629 17.7758621,34.5 C17.7719385,31.0355636 14.9644364,28.2280615 11.5,28.2241379 L11.5,28.2241379 Z" id="Shape" fill="#3F3D56"></path>
                        <path d="M25.4649366,30 C24.6786601,30.0004651 24.0330638,30.6366609 24.0024414,31.4412 C24.0004896,31.4607327 24,31.4803694 24,31.5 C24.0012349,32.3279442 24.6563999,32.9988354 25.4649366,33 L52.535161,33 C53.3441692,33 54,32.3284271 54,31.5 C54,30.6715729 53.3441692,30 52.535161,30 L25.4649366,30 Z" id="Path" fill="#C42EA5"></path>
                        <path d="M52.535161,35 L25.4649366,35 C24.6786601,35.0004651 24.0330638,35.6366609 24.0024414,36.4412 C24.0004896,36.4607327 24,36.4803694 24,36.5 C24.0012349,37.3279442 24.6563999,37.9988354 25.4649366,38 L52.535161,38 C53.3441692,38 54,37.3284271 54,36.5 C54,35.6715729 53.3441692,35 52.535161,35 L52.535161,35 Z" id="Path" fill="#C42EA5"></path>
                        <path d="M10.7401327,37 C10.5585084,37.0003296 10.381699,36.9429332 10.2363757,36.8364658 L10.227367,36.8298555 L8.33024256,35.4103615 C8.09121759,35.2313818 7.96805441,34.9413776 8.00714739,34.6495905 C8.04624037,34.3578035 8.24165036,34.108563 8.5197683,33.9957555 C8.79788624,33.8829481 9.1164594,33.9237119 9.35548435,34.1026915 L10.5842978,35.0235136 L13.4881788,31.3224979 C13.6241933,31.1491337 13.8251095,31.0356764 14.0467249,31.007087 C14.2683403,30.9784976 14.4924998,31.0371183 14.6698873,31.1700521 L14.651833,31.1940092 L14.6703508,31.1704009 C15.0392598,31.4474856 15.1090433,31.9641156 14.8263429,32.3252609 L11.4106894,36.6785416 C11.2505684,36.8818713 11.0026711,37.0007096 10.7401327,37 L10.7401327,37 Z" id="Path" fill="#C42EA5"></path>
                        <path d="M45.870723,17.2012335 C43.4156353,16.8884971 40.922392,16.9405586 38.4850187,17.3554547 C36.0547537,17.7669219 33.7085673,18.5266155 31.530903,19.6071926 C30.3070914,20.2162093 29.1455471,20.9269273 28.0605891,21.7305851 C27.8833503,21.8617158 28.1342556,22.0914144 28.3098914,21.96147 C30.2136762,20.5589335 32.3477778,19.4479085 34.6310759,18.6706267 C36.8963082,17.8947132 39.2773173,17.4473645 41.6899579,17.34439 C43.055109,17.2863277 44.4231331,17.3437995 45.7770014,17.5160898 C45.8704163,17.5368142 45.9651982,17.4869749 45.9938511,17.4020633 C46.0191232,17.3151889 45.9642304,17.2256518 45.8707277,17.2012335 L45.870723,17.2012335 Z" id="Path" fill="#FFFFFF"></path>
                    </g>
                </g>
            </g>
        </g>
    </symbol>

    <symbol id="task-survey" width="45px" height="56px" viewBox="0 0 45 56" version="1.1" xmlns="http://www.w3.org/2000/svg" xmlns:xlink="http://www.w3.org/1999/xlink">
        <title>E089359F-062F-4D47-9332-A287C5BDB77B</title>
        <defs>
            <path d="M18.1109389,0 C19.18812,0 20.0613477,0.871582583 20.0613477,1.94673419 L20.0613477,5.979255 L0,5.979255 L0,1.94673419 C0,0.871582583 0.873227768,0 1.95040881,0 L18.1109389,0 Z M19.3647732,4.3106257 L0.696574575,4.3106257 L0.696574575,5.00588791 L19.3647732,5.00588791 L19.3647732,4.3106257 Z" id="path-1"></path>
        </defs>
        <g id="---↳-Survey" stroke="none" stroke-width="1" fill="none" fill-rule="evenodd">
            <g id="Home-Page---w/-Survey-Copy" transform="translate(-517.000000, -486.000000)">
                <g id="Tasks" transform="translate(477.000000, 312.000000)">
                    <g id="Group-33" transform="translate(40.000000, 174.000000)">
                        <path d="M32,8 C33.6568542,8 35,9.34314575 35,11 L35,53 C35,54.6568542 33.6568542,56 32,56 L3,56 C1.34314575,56 1.97926296e-15,54.6568542 0,53 L0,11 C2.41183085e-16,9.34314575 1.34314575,8 3,8 L32,8 Z M32,8.5 L3,8.5 C1.61928813,8.5 0.5,9.61928813 0.5,11 L0.5,53 C0.5,54.3807119 1.61928813,55.5 3,55.5 L32,55.5 C33.3807119,55.5 34.5,54.3807119 34.5,53 L34.5,11 C34.5,9.61928813 33.3807119,8.5 32,8.5 Z" id="Combined-Shape" fill="#3F3D56"></path>
                        <path d="M30.974359,43 L30.9744406,43.0011173 C31.5453579,43.0260105 32,43.463704 32,44 C32,44.536296 31.5453579,44.9739895 30.9744406,44.9988827 L30.974359,45 L17.1282051,45 L17.1282868,44.9988827 C17.1112659,44.9996248 17.0941416,45 17.0769231,45 C16.4821549,45 16,44.5522848 16,44 C16,43.4477152 16.4821549,43 17.0769231,43 C17.0941416,43 17.1112659,43.0003752 17.1282868,43.0011173 L17.1282051,43 L30.974359,43 Z" id="Text3" fill="#C42EA5" fill-rule="nonzero"></path>
                        <path d="M26.025641,30 L26.0257278,30.0011173 C26.6323274,30.0260105 27.1153846,30.463704 27.1153846,31 C27.1153846,31.536296 26.6323274,31.9739895 26.0257278,31.9988827 L26.025641,32 L17.1987179,32 L17.1988047,31.9988827 C17.1807201,31.9996248 17.1625255,32 17.1442308,32 C16.5122896,32 16,31.5522848 16,31 C16,30.4477152 16.5122896,30 17.1442308,30 C17.1625255,30 17.1807201,30.0003752 17.1988047,30.0011173 L17.1987179,30 L26.025641,30 Z" id="Text2" fill="#C42EA5" fill-rule="nonzero"></path>
                        <path d="M17.115942,20 L17.1160228,19.9988827 C17.099187,19.9996248 17.0822488,20 17.0652174,20 C16.4769141,20 16,19.5522848 16,19 C16,18.4477152 16.4769141,18 17.0652174,18 C17.0822488,18 17.099187,18.0003752 17.1160228,18.0011173 L17.115942,18 L28.9855072,18 L28.985588,18.0011173 C29.5502997,18.0260105 30,18.463704 30,19 C30,19.536296 29.5502997,19.9739895 28.985588,19.9988827 L28.9855072,20 L17.115942,20 Z" id="Text1" fill="#C42EA5" fill-rule="nonzero"></path>
                        <path d="M13.2546774,15.9327988 L13.2546774,23.7296679 L5.45780834,23.7296679 L5.45780834,15.9327988 L13.2546774,15.9327988 Z M12.6549182,16.532558 L6.0575675,16.532558 L6.0575675,23.1299087 L12.6549182,23.1299087 L12.6549182,16.532558 Z" id="Combined-Shape-Copy-3" fill="#D8D8D8"></path>
                        <path d="M13.2546774,28.4077893 L13.2546774,36.2046584 L5.45780834,36.2046584 L5.45780834,28.4077893 L13.2546774,28.4077893 Z M12.6549182,29.0075485 L6.0575675,29.0075485 L6.0575675,35.6048992 L12.6549182,35.6048992 L12.6549182,29.0075485 Z" id="Combined-Shape-Copy-5" fill="#D8D8D8"></path>
                        <path d="M13.2546774,40.8827798 L13.2546774,48.6796489 L5.45780834,48.6796489 L5.45780834,40.8827798 L13.2546774,40.8827798 Z M12.6549182,41.482539 L6.0575675,41.482539 L6.0575675,48.0798897 L12.6549182,48.0798897 L12.6549182,41.482539 Z" id="Combined-Shape-Copy-6" fill="#D8D8D8"></path>
                        <path d="M17.8820161,0 C20.2503666,0 22.1702941,1.91992745 22.1702941,4.28827798 C22.1702941,6.65662852 20.2503666,8.57655597 17.8820161,8.57655597 C15.5136656,8.57655597 13.5937381,6.65662852 13.5937381,4.28827798 C13.5937381,1.91992745 15.5136656,0 17.8820161,0 Z M17.8820161,3.11874762 C17.2361023,3.11874762 16.7124857,3.6423642 16.7124857,4.28827798 C16.7124857,4.93419177 17.2361023,5.45780834 17.8820161,5.45780834 C18.5279299,5.45780834 19.0515465,4.93419177 19.0515465,4.28827798 C19.0515465,3.6423642 18.5279299,3.11874762 17.8820161,3.11874762 Z" id="Combined-Shape" fill="#F2F2F2"></path>
                        <path d="M14.7700915,15.8198048 C15.090008,16.1391186 15.0992696,16.6510849 14.7978764,16.9815532 L14.7984976,16.9822637 L10.1966975,21.575394 L10.1960762,21.5746835 C10.1870907,21.5845358 10.1778291,21.5942269 10.1682913,21.6037466 C9.84581171,21.9256186 9.32721069,21.9324328 8.99642721,21.6241889 C8.97710249,21.6096804 8.95830761,21.5940466 8.94006478,21.5774715 L8.93935299,21.5780916 L7.26427283,19.9025872 L7.26427283,19.9025872 C6.9348186,19.5737537 6.9348186,19.0406092 7.26427283,18.7117757 C7.58671739,18.3899387 8.10524074,18.383091 8.43602909,18.6912329 L8.48492725,18.7393734 L8.48492725,18.7393734 L9.56730248,19.8220209 L9.56730248,19.8220209 L13.6054384,15.7914522 L13.6061502,15.7920724 C13.9372423,15.4912469 14.450175,15.500491 14.7700915,15.8198048 Z" id="Checkmark" fill="#C42EA5" fill-rule="nonzero"></path>
                        <g id="Clip-Line" transform="translate(7.356243, 6.237495)">
                            <mask id="mask-2" fill="white">
                                <use xlink:href="#path-1"></use>
                            </mask>
                            <use id="Combined-Shape" fill="#F2F2F2" fill-rule="nonzero" xlink:href="#path-1"></use>
                        </g>
                        <path d="M43.2526565,49.6680447 L43.2526565,50.1744425 L42.8975138,51.4051227 L42.7475719,51.9183936 L42.5613746,52.5489799 L42.3706521,53.1849291 L42.2732733,53.5046249 L42.1472369,53.9118677 L42.0487642,54.2234825 L41.9734436,54.4567542 L41.9311923,54.585194 L41.8592512,54.7988324 L41.8054909,54.9531506 L41.7568128,55.0875568 L41.7236394,55.1752943 L41.6933247,55.2518312 L41.6747032,55.2966332 L41.6573522,55.3364573 L41.6412717,55.3713034 L41.6264617,55.4011714 C41.6217368,55.4102978 41.6172238,55.4185945 41.6129223,55.4260615 L41.6006535,55.4459735 C41.587081,55.4663004 41.5761026,55.4765168 41.5677182,55.4765168 C41.5622453,55.4765979 41.5556671,55.472294 41.5479837,55.4637074 L41.538233,55.4513229 L41.5274213,55.4347772 C41.5255309,55.4316728 41.5235964,55.4283951 41.5216176,55.4249438 L41.5092143,55.4021565 L41.49575,55.3752081 L41.4812246,55.3440984 L41.4574471,55.289632 L41.4312821,55.2258029 L41.3926818,55.1261336 L41.3498373,55.0098198 L41.3149188,54.9116616 L41.2646468,54.76622 L41.2101308,54.6041338 L41.1360173,54.3781199 L41.0719517,54.1785836 L40.9496243,53.7893445 L40.834427,53.4151399 L40.6437257,52.7836142 L40.4805478,52.2341718 L40.2516485,51.4528456 L40.0301447,50.6875945 L39.8827798,50.1744425 L39.8827798,49.6680447 L43.2526565,49.6680447 Z M43.2526565,48.2173676 L43.2526565,48.9648183 L39.8827798,48.9648183 L39.8827798,48.2173676 L43.2526565,48.2173676 Z M43.2526565,46.7666906 L43.2526565,47.5141412 L39.8827798,47.5141412 L39.8827798,46.7666906 L43.2526565,46.7666906 Z M44.4951479,9.94439073 C44.6514761,10.1779624 44.7929408,10.5261452 44.9195416,10.9889392 L44.9522307,11.112268 C44.9576227,11.1332561 44.9629866,11.1544609 44.9683224,11.1758823 L45,11.3070107 L45,11.3070107 L45,22.3941947 L44.9764189,22.3941078 C44.8933023,23.038913 44.6000936,23.5153707 44.2511385,23.5153707 C43.8375538,23.5153707 43.502277,22.8460806 43.502277,22.0204694 C43.502277,21.3737686 43.7079888,20.8229798 43.9959132,20.6146359 L43.9671913,11.4111066 C43.9227246,11.0781253 43.8256868,10.833303 43.676078,10.6766398 C43.5264691,10.5199765 43.3853287,10.3994262 43.2526565,10.3149889 L43.2526565,46.0633396 L39.8827798,46.0633396 L39.8827798,9.18923393 L43.2526565,9.18923393 C43.7502424,9.17843719 44.0592813,9.39017771 44.307969,9.69013592 L44.3512547,9.74395814 L44.3512547,9.74395814 L44.393444,9.79944782 C44.4003928,9.80882595 44.4073026,9.81826671 44.4141764,9.82776671 L44.4550147,9.88545004 L44.4550147,9.88545004 L44.4951479,9.94439073 L44.4951479,9.94439073 Z M41.5053131,5.57655597 C42.0144932,5.57655597 42.4346547,5.95697265 42.4960708,6.44858775 L42.503795,6.44858168 L42.503795,8.81550862 L40.5068311,8.81550862 L40.5068311,6.44858168 L40.5145553,6.44858775 C40.5759715,5.95697265 40.9961329,5.57655597 41.5053131,5.57655597 Z" id="Pen" fill="#D8D8D8" fill-rule="nonzero"></path>
                    </g>
                </g>
            </g>
        </g>
    </symbol>

    <symbol id="all-resources-empty" version="1.1" width="185px" height="160px" viewBox="0 0 185.0 160.0" xmlns="http://www.w3.org/2000/svg" xmlns:xlink="http://www.w3.org/1999/xlink">
        <defs>
            <clipPath id="i0">
                <path d="M1366,0 L1366,994 L0,994 L0,0 L1366,0 Z"></path>
            </clipPath>
            <clipPath id="i1">
                <path d="M7.58552912,0 C7.58552912,0 10.1963783,5.74532216 8.5141158,11.364822 C6.83185331,16.9843218 1.49351397,20.3499628 1.49351397,20.3499628 C1.49351397,20.3499628 -1.11734002,14.604631 0.564927292,8.98514324 C2.24719943,3.3656603 7.58552912,0 7.58552912,0 Z"></path>
            </clipPath>
            <clipPath id="i2">
                <path d="M1.85420249,0 C1.85420249,0 7.02820313,3.61321207 8.44406425,9.30566131 C9.78407567,14.6931579 7.27756428,20.012235 7.00516379,20.5666746 L6.98148407,20.6141755 C6.98148407,20.6141755 1.80748342,17.0009586 0.39163677,11.3085094 C-0.923077981,6.02266364 1.46491021,0.802684043 1.81275911,0.0839412734 L1.85148975,0.00534096227 Z"></path>
            </clipPath>
            <clipPath id="i3">
                <path d="M1.58028177,0 L11.6944708,5.44107694 L10.6237551,8.19548203 L0,4.06520013 L1.58028177,0 Z"></path>
            </clipPath>
            <clipPath id="i4">
                <path d="M4.07063786,0.314116875 C4.97103792,-0.0821995966 5.99204703,-0.104355208 6.90879135,0.25252974 L7.02100196,0.297060133 L3.56890584,9.17931874 L0,7.79101854 L0.272246682,7.08828247 L1.38591868,4.22225251 L2.10830222,2.36549374 C2.46429904,1.44840417 3.1702378,0.710433347 4.07063786,0.314116875 Z"></path>
            </clipPath>
            <clipPath id="i5">
                <path d="M20.9600952,2.04221949 L20.9800507,2.05809435 L38.5468857,11.7310989 L38.0811533,12.9660977 L36.9188845,16.048621 L36.891003,16.125714 C33.9298042,16.5061941 30.6835545,15.7602919 27.6810119,14.6015375 C26.4797036,14.1381755 25.3030998,13.6131469 24.1558916,13.0285449 C22.4579179,12.1705985 20.9375957,11.2650989 19.7247319,10.49065 C17.8986146,9.31861651 16.7694555,8.43858806 16.7694555,8.43858806 C16.7694555,8.43858806 16.4711472,8.70815915 15.931347,9.17042291 C15.2078522,9.78945659 14.0517662,10.7561209 12.5873782,11.8940106 C12.0287613,12.331119 11.4289821,12.7883257 10.7880408,13.2656306 C6.0633165,16.7701247 0,7.41885315 0,7.41885315 C0,7.41885315 1.70527733,6.33319283 2.15076927,6.12238092 C3.58526547,5.44370824 6.95532,3.8422773 9.86279741,2.41911979 C11.3607025,1.68479978 12.7340628,0.996347957 13.6561317,0.507046344 C16.7879871,-1.16040466 20.6500429,1.79794374 20.9600952,2.04221949 Z"></path>
            </clipPath>
            <clipPath id="i6">
                <path d="M41.5346306,0 C64.4735737,0 83.0692612,18.5956875 83.0692612,41.5346306 C83.0692612,64.4735737 64.4735737,83.0692612 41.5346306,83.0692612 C18.5956875,83.0692612 0,64.4735737 0,41.5346306 C0,18.5956875 18.5956875,0 41.5346306,0 Z"></path>
            </clipPath>
            <clipPath id="i7">
                <path d="M10.5251974,0 C2.52328229,18.7178894 9.26521055,40.4766952 26.448598,51.3909622 C43.6319854,62.3052293 66.1929644,59.1585718 79.7341703,43.9590398 C73.2669194,59.0891609 58.4782799,68.9755871 42.0250487,69.1681502 C25.5718175,69.3607134 10.5558456,59.8231104 3.73625902,44.848494 C-3.08332758,29.8738776 -0.420864001,12.2853424 10.5251974,0 Z"></path>
            </clipPath>
            <clipPath id="i8">
                <path d="M2.2822007,0 L4.33613313,117.757507 L0,117.757507 L2.16794604,0 L2.2822007,0 Z"></path>
            </clipPath>
            <clipPath id="i9">
                <path d="M2.05390832,0 L2.05390832,7.75922447 L0,7.75922447 L0,0 L2.05390832,0 Z"></path>
            </clipPath>
            <clipPath id="i10">
                <path d="M184.398346,0 C184.53147,0 184.639389,0.107918891 184.639389,0.241043589 C184.639389,0.374168288 184.53147,0.482087178 184.398346,0.482087178 L0.241043589,0.482087178 C0.107918891,0.482087178 0,0.374168288 0,0.241043589 C0,0.107918891 0.107918891,0 0.241043589,0 L184.398346,0 Z"></path>
            </clipPath>
            <clipPath id="i11">
                <path d="M8.07496024,0 C12.5346376,0 16.1499205,3.61528284 16.1499205,8.07496024 L16.1499205,14.10105 C16.1492457,14.6998314 15.6640057,15.1850713 15.0652243,15.1857461 L1.08469615,15.1857461 C0.485914749,15.1850713 0.000674815627,14.6998314 0,14.10105 L0,8.07496024 C0,3.61528284 3.61528284,0 8.07496024,0 Z"></path>
            </clipPath>
            <clipPath id="i12">
                <path d="M5.5336425,0.0371084844 C6.66644997,-0.169377902 7.77466607,0.504043261 8.11322015,1.60462062 C8.45177424,2.70519798 7.91365478,3.88505663 6.86064772,4.35095954 L1.56136949,9.3641359 L0,6.53565811 L3.80162379,3.03913043 C3.57202521,2.41085865 3.63250334,1.71315801 3.96678482,1.13376452 C4.30106631,0.554371026 4.87481312,0.152801114 5.5336425,0.0371084844 Z"></path>
            </clipPath>
            <clipPath id="i13">
                <path d="M6.19573283,1.5486398 L11.8146493,14.1561138 L19.4603688,7.94393841 L23.8873078,9.66725786 L16.4110734,17.9210001 C15.2490061,19.1966219 13.6040034,19.9246641 11.8784294,19.9270492 C11.7067068,19.9270492 11.5347318,19.9196339 11.3625046,19.9048033 C9.27779848,19.7308507 7.42930935,18.4963823 6.46990786,16.637402 L0.379377536,4.91477496 C-0.449695745,3.3190888 0.122939822,1.35353125 1.67930478,0.452806561 C3.23566973,-0.447918125 5.2252175,0.0348112696 6.19573283,1.5486398 Z"></path>
            </clipPath>
            <clipPath id="i14">
                <path d="M6.463631,0.370073379 C6.95706996,-0.123357793 7.75708433,-0.123357793 8.25052329,0.370073379 L15.0242555,7.14381765 C15.0459687,7.16554211 15.06686,7.18801219 15.0869292,7.2112279 C15.3060073,7.4648065 15.4153786,7.7950277 15.3909827,8.1292464 C15.3665868,8.46346511 15.2104219,8.77430378 14.9568428,8.99338127 L8.41850656,14.6421486 C7.91746332,15.075024 7.16722783,15.0476796 6.69902694,14.5794773 L0.370073172,8.25052349 C-0.123357724,7.75708536 -0.123357724,6.95707175 0.370073172,6.46363362 Z"></path>
            </clipPath>
            <clipPath id="i15">
                <path d="M5.75395152,0 L12.7263784,6.97218582 L6.70173491,12.4554454 L0,5.75395152 L5.75395152,0 Z"></path>
            </clipPath>
            <clipPath id="i16">
                <path d="M1.88809443,0 L11.5541834,6.20205155 L10.2749651,8.86582425 L0,3.93166198 L1.88809443,0 Z"></path>
            </clipPath>
            <clipPath id="i17">
                <path d="M4.63301903,0.209418714 C5.56120384,-0.116553641 6.58089648,-0.0602060235 7.46751352,0.366051217 L7.57598313,0.419080807 L3.45170081,9.00987432 L0,7.35149443 L0.325430539,6.67175151 L1.65599115,3.89975023 L2.51888863,2.1039755 C2.94428831,1.21694668 3.70483423,0.535391068 4.63301903,0.209418714 Z"></path>
            </clipPath>
            <clipPath id="i18">
                <path d="M37.4529123,2.46783769 L54.2247132,13.4618478 L53.6654752,14.657424 L52.2698328,17.6415437 L52.2361132,17.7162672 C49.254433,17.8681247 46.0750825,16.8750251 43.1704373,15.4890244 C42.0082785,14.9347409 40.8754888,14.3208708 39.7765846,13.6498618 C38.1495403,12.6639936 36.7032788,11.6443792 35.5535009,10.7790327 C33.8228224,9.47016601 32.7646097,8.50599165 32.7646097,8.50599165 C32.7646097,8.50599165 32.4464731,8.75185611 31.8727605,9.17127196 C31.1038435,9.73290352 29.8769195,10.6078917 28.3294197,11.6299166 C27.7388725,12.0228176 27.1057402,12.4325917 26.4300227,12.8592389 C21.450026,15.9903951 14.3682015,19.8037047 8.34445715,20.6087903 C-2.23491946,22.0237161 0.255077689,7.90579311 0.255077689,7.90579311 L8.6747158,3.53326241 L12.2494091,4.25880361 L16.2290388,5.0638892 L17.63911,5.35073107 C17.63911,5.35073107 17.9066925,5.24949276 18.3670616,5.07353094 C19.8494556,4.50707851 23.3325813,3.16928659 26.3408029,1.97369833 C27.8906963,1.35662674 29.3128872,0.775711693 30.2698134,0.358706284 C33.6588428,-1.12371179 37.4529123,2.46783769 37.4529123,2.46783769 Z"></path>
            </clipPath>
            <clipPath id="i19">
                <path d="M6.28018238,0 L7.98570558,2.74396791 L4.3699505,6.43237593 C4.63172591,7.04793774 4.60740109,7.74783361 4.30352134,8.34373612 C3.99964159,8.93963864 3.44742215,9.3703353 2.79545378,9.5199346 C1.67484286,9.78472889 0.533281325,9.16950676 0.138274626,8.08789981 C-0.256732072,7.00629285 0.2196728,5.80018365 1.24719224,5.28046477 L6.28018238,0 Z"></path>
            </clipPath>
            <clipPath id="i20">
                <path d="M5.63710564,0 C8.75039311,0 11.2742113,2.52381816 11.2742113,5.63710564 C11.2742113,8.75039311 8.75039311,11.2742113 5.63710564,11.2742113 C2.52381816,11.2742113 0,8.75039311 0,5.63710564 C0,2.52381816 2.52381816,0 5.63710564,0 Z"></path>
            </clipPath>
            <clipPath id="i21">
                <path d="M9.22762586,0 L15.0234973,7.05416715 L15.0639926,7.08606204 C15.0808247,7.09430091 16.7539468,7.92641954 17.2804655,9.75931499 C17.6862263,11.1717991 17.3225421,12.7993133 16.1993585,14.5964283 L16.1767004,14.6327969 L16.583582,17.8881798 L4.96317428,26.0105726 C4.64050611,25.917843 4.3746223,25.6884742 4.23557215,25.3828951 C3.97481361,24.788995 4.1980272,23.8782552 4.8810218,22.7491878 L4.91050625,22.7004608 L0,8.778781 L1.47997389,1.37646013 L9.22762586,0 Z"></path>
            </clipPath>
            <clipPath id="i22">
                <path d="M19.908319,2.18939054 C20.8457351,3.71653447 20.8089788,5.6495171 19.8141832,7.13991944 L13.0264752,17.3093074 L3.28963274,31.7462564 L0,27.6974762 L7.93019187,14.6065025 L11.6274703,3.17800166 C12.1790274,1.4730963 13.6721098,0.244895243 15.4513782,0.0324768567 C17.2306466,-0.17994153 18.9709029,0.6622466 19.908319,2.18939054 Z"></path>
            </clipPath>
            <clipPath id="i23">
                <path d="M7.59287306,0 C11.1190256,0.00398510742 13.9765431,2.86150261 13.9805282,6.38765511 L13.9805282,6.50817691 L5.43177748,6.50817691 L5.34409305,5.28083116 L4.90578903,6.50817691 L3.58946686,6.50817691 L3.41574434,4.07561321 L2.54702324,6.50817691 L0,6.50817691 L0,6.38765511 C0.00395190563,2.86151236 2.86145214,0.00398517129 6.38759485,0 L7.59287306,0 Z"></path>
            </clipPath>
            <clipPath id="i24">
                <path d="M6.89080709,0 L6.72020367,0.19890917 C4.34660888,2.96714293 6.13483895,7.45587593 7.4120277,9.88514215 C7.60413836,10.2482271 7.57112745,10.6892909 7.32711045,11.0197343 C7.12397497,11.3006259 6.7983883,11.4669931 6.45174137,11.4669931 C6.38738239,11.4669931 6.32315133,11.4612585 6.25977667,11.4500453 L0,10.3455836 L0,0 L6.89080709,0 Z"></path>
            </clipPath>
        </defs>
        <g transform="translate(-596.0 -386.0)">
            <g clip-path="url(#i0)">
                <g transform="translate(596.0000000000002 386.0)">
                    <g transform="translate(17.72329086188701 139.145395965745)">
                        <g clip-path="url(#i1)">
                            <polygon points="5.32907052e-15,0 9.07904108,0 9.07904108,20.3499628 5.32907052e-15,20.3499628 5.32907052e-15,0" stroke="none" fill="#F2F2F2"></polygon>
                        </g>
                    </g>
                    <g transform="translate(12.39837229385033 138.9768655195077)">
                        <g clip-path="url(#i2)">
                            <polygon points="-5.82867088e-15,0 8.83570507,0 8.83570507,20.6141755 -5.82867088e-15,20.6141755 -5.82867088e-15,0" stroke="none" fill="#F2F2F2"></polygon>
                        </g>
                    </g>
                    <g transform="translate(94.35916445853702 145.7395338379971)">
                        <g clip-path="url(#i3)">
                            <polygon points="0,0 11.6944708,0 11.6944708,8.19548203 0,8.19548203 0,0" stroke="none" fill="#FFB8B8"></polygon>
                        </g>
                    </g>
                    <g transform="translate(103.8113658092748 146.49714305654078)">
                        <g clip-path="url(#i4)">
                            <polygon points="0,1.2490009e-14 7.02100196,1.2490009e-14 7.02100196,9.17931874 0,9.17931874 0,1.2490009e-14" stroke="none" fill="#2F2E41"></polygon>
                        </g>
                    </g>
                    <g transform="translate(65.53715344436186 136.903096107055)">
                        <g clip-path="url(#i5)">
                            <polygon points="0,7.10542736e-15 38.5468857,7.10542736e-15 38.5468857,16.2258529 0,16.2258529 0,7.10542736e-15" stroke="none" fill="#2F2E41"></polygon>
                        </g>
                    </g>
                    <g transform="translate(65.53715344436186 136.903096107055)">
                        <g clip-path="url(#i5)">
                            <polygon points="0,7.10542736e-15 38.5468857,7.10542736e-15 38.5468857,16.2258529 0,16.2258529 0,7.10542736e-15" stroke="none" fill="#000000" opacity="14%"></polygon>
                        </g>
                    </g>
                    <g transform="translate(2.715857402621623 0.0)">
                        <g clip-path="url(#i6)">
                            <polygon points="0,0 83.0692612,0 83.0692612,83.0692612 0,83.0692612 0,0" stroke="none" fill="#E6E6E6"></polygon>
                        </g>
                    </g>
                    <g transform="translate(3.05745698834653 13.792755215671598)">
                        <g clip-path="url(#i7)">
                            <polygon points="1.77635684e-15,0 79.7341703,0 79.7341703,69.1710126 1.77635684e-15,69.1710126 1.77635684e-15,0" stroke="none" fill="#000000" opacity="20%"></polygon>
                        </g>
                    </g>
                    <g transform="translate(42.19660863223302 41.53446189279386)">
                        <g clip-path="url(#i8)">
                            <polygon points="0,0 4.33613313,0 4.33613313,117.757507 0,117.757507 0,0" stroke="none" fill="#3F3C55"></polygon>
                        </g>
                    </g>
                    <g transform="translate(37.01399169229039 96.75787001630192) rotate(-62.23413000000001)">
                        <g clip-path="url(#i9)">
                            <polygon points="-4.54747351e-13,1.8189894e-12 2.05390832,1.8189894e-12 2.05390832,7.75922447 -4.54747351e-13,7.75922447 -4.54747351e-13,1.8189894e-12" stroke="none" fill="#3F3C55"></polygon>
                        </g>
                    </g>
                    <g transform="translate(0.0 159.27867745176349)">
                        <g clip-path="url(#i10)">
                            <polygon points="0,0 184.639389,0 184.639389,0.482087178 0,0.482087178 0,0" stroke="none" fill="#B8B8B8"></polygon>
                        </g>
                    </g>
                    <g transform="translate(41.7598376486641 107.5238878339438)">
                        <g clip-path="url(#i11)">
                            <polygon points="0,0 16.1499205,0 16.1499205,15.1857461 0,15.1857461 0,0" stroke="none" fill="#2F2E41"></polygon>
                        </g>
                    </g>
                    <g transform="translate(64.58680534797213 130.24172804531133)">
                        <g clip-path="url(#i12)">
                            <polygon points="0,1.77635684e-15 8.21405124,1.77635684e-15 8.21405124,9.3641359 0,9.3641359 0,1.77635684e-15" stroke="none" fill="#FFB8B8"></polygon>
                        </g>
                    </g>
                    <g transform="translate(46.80313578305485 126.24901454048208)">
                        <g clip-path="url(#i13)">
                            <polygon points="4.5519144e-15,-1.35447209e-14 23.8873078,-1.35447209e-14 23.8873078,19.9270492 4.5519144e-15,19.9270492 4.5519144e-15,-1.35447209e-14" stroke="none" fill="#CCCCCC"></polygon>
                        </g>
                    </g>
                    <g transform="translate(66.18657654287767 120.9190665970032)">
                        <g clip-path="url(#i14)">
                            <polygon points="5.16253706e-15,3.44169138e-15 15.3943381,3.44169138e-15 15.3943381,14.9495598 5.16253706e-15,14.9495598 5.16253706e-15,3.44169138e-15" stroke="none" fill="#3F3C55"></polygon>
                        </g>
                    </g>
                    <g transform="translate(67.52546898180312 122.2785202608749)">
                        <g clip-path="url(#i15)">
                            <polygon points="0,0 12.7263784,0 12.7263784,12.4554454 0,12.4554454 0,0" stroke="none" fill="#F2F2F2"></polygon>
                        </g>
                    </g>
                    <g transform="translate(93.85345500846663 148.9430031380141)">
                        <g clip-path="url(#i16)">
                            <polygon points="0,0 11.5541834,0 11.5541834,8.86582425 0,8.86582425 0,0" stroke="none" fill="#FFB8B8"></polygon>
                        </g>
                    </g>
                    <g transform="translate(102.9333789983527 150.7195570492813)">
                        <g clip-path="url(#i17)">
                            <polygon points="0,6.10622664e-15 7.57598313,6.10622664e-15 7.57598313,9.00987432 0,9.00987432 0,6.10622664e-15" stroke="none" fill="#2F2E41"></polygon>
                        </g>
                    </g>
                    <g transform="translate(49.41489459070331 138.9928855993546)">
                        <g clip-path="url(#i18)">
                            <polygon points="-3.55271368e-15,-7.99360578e-15 54.2247132,-7.99360578e-15 54.2247132,20.708459 -3.55271368e-15,20.708459 -3.55271368e-15,-7.99360578e-15" stroke="none" fill="#2F2E41"></polygon>
                        </g>
                    </g>
                    <g transform="translate(31.46762453538659 150.4188166170423)">
                        <g clip-path="url(#i19)">
                            <polygon points="-3.55271368e-15,0 7.98570558,0 7.98570558,9.58118338 -3.55271368e-15,9.58118338 -3.55271368e-15,0" stroke="none" fill="#FFB8B8"></polygon>
                        </g>
                    </g>
                    <g transform="translate(46.17711809846521 111.7044875835429)">
                        <g clip-path="url(#i20)">
                            <polygon points="0,0 11.2742113,0 11.2742113,11.2742113 0,11.2742113 0,0" stroke="none" fill="#FFB8B8"></polygon>
                        </g>
                    </g>
                    <g transform="translate(44.48053038568396 124.21072567162999)">
                        <g clip-path="url(#i21)">
                            <polygon points="0,0 17.4411294,0 17.4411294,26.0105726 0,26.0105726 0,0" stroke="none" fill="#CCCCCC"></polygon>
                        </g>
                    </g>
                    <g transform="translate(33.72337207279075 125.6791621893965)">
                        <g clip-path="url(#i22)">
                            <polygon points="0,-1.73472348e-15 20.5866617,-1.73472348e-15 20.5866617,31.7462564 0,31.7462564 0,-1.73472348e-15" stroke="none" fill="#CCCCCC"></polygon>
                        </g>
                    </g>
                    <g transform="translate(45.83957511881241 109.6932801364385)">
                        <g clip-path="url(#i23)">
                            <polygon points="0,0 13.9805282,0 13.9805282,6.50817691 0,6.50817691 0,0" stroke="none" fill="#2F2E41"></polygon>
                        </g>
                    </g>
                    <g transform="translate(44.749648321680226 112.3675310051337)">
                        <g clip-path="url(#i24)">
                            <polygon points="0,0 7.53610206,0 7.53610206,11.4669931 0,11.4669931 0,0" stroke="none" fill="#2F2E41"></polygon>
                        </g>
                    </g>
                </g>
            </g>
        </g>
    </symbol>

    <symbol id="empty-thumbnail" xmlns="http://www.w3.org/2000/svg" viewBox="0 0 38 30">
        <title>image-file-landscape-alternate</title>
        <path d="M21.707,5.707,16.293.293A1,1,0,0,0,15.586,0H4A2,2,0,0,0,2,2V22a2,2,0,0,0,2,2H20a2,2,0,0,0,2-2V6.414A1,1,0,0,0,21.707,5.707ZM20,21.5a.5.5,0,0,1-.5.5H4.5a.5.5,0,0,1-.5-.5V2.5A.5.5,0,0,1,4.5,2H14.965a.5.5,0,0,1,.353.146l4.536,4.536A.5.5,0,0,1,20,7.035Z" />
        <circle cx="8.799" cy="8" r="2" />
        <path d="M14.223,10.678a.5.5,0,0,0-.848,0L10.949,14.56a.251.251,0,0,1-.424,0l-.864-1.382a.5.5,0,0,0-.848,0L6.038,17.617A.25.25,0,0,0,6.25,18h12.1a.25.25,0,0,0,.212-.383Z" />
    </symbol>
    <symbol id="empty-thumbnail-updates" xmlns="http://www.w3.org/2000/svg" viewBox="0 0 24 28">
        <title>image-file-landscape-alternate-updates</title>
        <path d="M21.707,5.707,16.293.293A1,1,0,0,0,15.586,0H4A2,2,0,0,0,2,2V22a2,2,0,0,0,2,2H20a2,2,0,0,0,2-2V6.414A1,1,0,0,0,21.707,5.707ZM20,21.5a.5.5,0,0,1-.5.5H4.5a.5.5,0,0,1-.5-.5V2.5A.5.5,0,0,1,4.5,2H14.965a.5.5,0,0,1,.353.146l4.536,4.536A.5.5,0,0,1,20,7.035Z" />
        <circle cx="8.799" cy="8" r="2" />
        <path d="M14.223,10.678a.5.5,0,0,0-.848,0L10.949,14.56a.251.251,0,0,1-.424,0l-.864-1.382a.5.5,0,0,0-.848,0L6.038,17.617A.25.25,0,0,0,6.25,18h12.1a.25.25,0,0,0,.212-.383Z" />
    </symbol>
    <symbol id="pp-close-new" xmlns="http://www.w3.org/2000/svg" viewBox="0 0 28 28">
        <title>close</title>
        <path d="M14.3,12.179a.25.25,0,0,1,0-.354l9.263-9.262A1.5,1.5,0,0,0,21.439.442L12.177,9.7a.25.25,0,0,1-.354,0L2.561.442A1.5,1.5,0,0,0,.439,2.563L9.7,11.825a.25.25,0,0,1,0,.354L.439,21.442a1.5,1.5,0,0,0,2.122,2.121L11.823,14.3a.25.25,0,0,1,.354,0l9.262,9.263a1.5,1.5,0,0,0,2.122-2.121Z" />
    </symbol>
</svg>