<!-- Created By Leonid Bartenev -->

<svg xmlns="http://www.w3.org/2000/svg" xmlns:xlink="http://www.w3.org/1999/xlink" display="none">
    <symbol id="gear_icon" name="Account Settings" width="20px" height="20px" viewBox="0 0 20 20" version="1.1" xmlns="http://www.w3.org/2000/svg" xmlns:xlink="http://www.w3.org/1999/xlink">
        <path d="M18.6835536,8.1340747 L17.6285704,7.759914 C17.3230689,7.65131201 17.077935,7.4182777 16.9540209,7.11865983 C16.8301068,6.81904196 16.839032,6.48093547 16.9785808,6.18827236 L16.9785808,6.18827236 L17.4585732,5.17745513 C17.817333,4.42108748 17.6616359,3.52082679 17.0696897,2.92888057 C16.4777435,2.33693435 15.5774828,2.18123729 14.8211152,2.53999714 L13.8102979,3.02082281 C13.5174669,3.15973887 13.1795018,3.16813983 12.8801305,3.04394443 C12.5807593,2.91974903 12.3479901,2.67457658 12.2394896,2.36916653 L11.8644956,1.31501665 C11.5833492,0.526493917 10.8366701,0 9.9995253,0 C9.16238052,0 8.41570137,0.526493917 8.134555,1.31501665 L7.75956097,2.36999985 C7.65088663,2.67526007 7.41804533,2.92023528 7.11869447,3.04426341 C6.81934361,3.16829153 6.4814747,3.15977504 6.18875266,3.02082281 L5.17793543,2.53999714 C4.42156778,2.18123729 3.52130709,2.33693435 2.92936087,2.92888057 C2.33741465,3.52082679 2.18171758,4.42108748 2.54047743,5.17745513 L3.02046979,6.18827236 C3.15974571,6.48097037 3.16853157,6.81896437 3.0446503,7.11850292 C2.92076904,7.41804146 2.67581313,7.65109454 2.37048014,7.759914 L1.31549695,8.13490802 C0.526771091,8.41563398 0,9.16226662 0,9.99946166 C0,10.8366567 0.526771091,11.5832893 1.31549695,11.8640153 L2.37048014,12.2390093 C2.67575881,12.3476403 2.9207146,12.5805349 3.04460824,12.8799445 C3.16850188,13.1793542 3.15973077,13.5172392 3.02046979,13.8098176 L2.54047743,14.8206349 C2.18171758,15.5770025 2.33741465,16.4772632 2.92936087,17.0692094 C3.52130709,17.6611556 4.42156778,17.8168527 5.17793543,17.4580929 L6.18875266,16.9781005 C6.48140519,16.8386022 6.81949934,16.8298071 7.11900889,16.953901 C7.41851845,17.0779949 7.65132196,17.3233264 7.75956097,17.6289235 L8.134555,18.6830734 C8.41570137,19.4715961 9.16238052,19.99809 9.9995253,19.99809 C10.8366701,19.99809 11.5833492,19.4715961 11.8644956,18.6830734 L12.2394896,17.6280902 C12.3481206,17.3228115 12.5810152,17.0778557 12.8804248,16.9539621 C13.1798345,16.8300684 13.5177195,16.8388395 13.8102979,16.9781005 L14.8211152,17.4580929 C15.5774828,17.8168527 16.4777435,17.6611556 17.0696897,17.0692094 C17.6616359,16.4772632 17.817333,15.5770025 17.4585732,14.8206349 L16.9785808,13.8098176 C16.8393198,13.5172392 16.8305487,13.1793542 16.9544424,12.8799445 C17.078336,12.5805349 17.3232918,12.3476403 17.6285704,12.2390093 L18.6835536,11.863182 C19.4722795,11.582456 19.9990506,10.8358234 19.9990506,9.99862834 C19.9990506,9.1614333 19.4722795,8.41480066 18.6835536,8.1340747 Z M9.9995253,13.9856482 C8.3922058,13.9623308 6.94614211,13.0037153 6.29875091,11.5323539 C5.45477104,9.48870306 6.42390632,7.14749587 8.46538306,6.29827061 C10.5089481,5.48101176 12.8314158,6.44238992 13.6994664,8.46490277 C14.5434462,10.5085536 13.574311,12.8497608 11.5328342,13.6989861 C11.0468553,13.8988733 10.5248952,13.9964572 9.9995253,13.9856482 Z" id="path-1"></path>
        <g id="5---Dev-Handoff" stroke="none" stroke-width="1" fill="none" fill-rule="evenodd">
            <g id="Login/Account-Settings-Assets" transform="translate(-106.000000, -1000.000000)">
                <g id="Group" transform="translate(48.500000, 1000.001910)">
                    <g id="icon/user" transform="translate(57.500000, 0.001910)">
                        <mask id="mask-2" fill="white">
                            <use xlink:href="#path-1"></use>
                        </mask>
                        <use id="Mask" fill="#000000" fill-rule="nonzero" xlink:href="#path-1"></use>
                        <g id="color" mask="url(#mask-2)" fill="#005587">
                            <rect id="Rectangle" x="0" y="0" width="19.9996815" height="19.9996815"></rect>
                        </g>
                    </g>
                </g>
            </g>
        </g>
    </symbol>
    <symbol id="dropdown_arrow" name="Dropdown Arrow" width="11px" height="9px" viewBox="0 0 11 9" version="1.1" xmlns="http://www.w3.org/2000/svg" xmlns:xlink="http://www.w3.org/1999/xlink">
        <path d="M10.476394,0.418493869 C10.3163025,0.159987393 10.0155768,0 9.68952491,0 L0.902970519,0 C0.577103741,0.000143933081 0.276575947,0.159993161 0.116505253,0.418316935 C-0.0435654417,0.676640709 -0.0383689271,0.993400212 0.130104255,1.24725972 L4.52338145,7.85354309 C4.68705418,8.09964723 4.98015686,8.25 5.29624771,8.25 C5.61233857,8.25 5.90544125,8.09964723 6.06911398,7.85354309 L10.4623912,1.24725972 C10.6309149,0.993510933 10.6362654,0.676838392 10.476394,0.418493869 Z" id="path-1"></path>
        <g id="5---Dev-Handoff" stroke="none" stroke-width="1" fill="none" fill-rule="evenodd">
            <g id="navigation/nav-bar/nav-item/avatar/image" transform="translate(-45.000000, -14.000000)">
                <g id="dropdown-arrow" transform="translate(45.296324, 14.375000)">
                    <mask id="mask-2" fill="white">
                        <use xlink:href="#path-1"></use>
                    </mask>
                    <use id="Mask" fill="#FFFFFF" fill-rule="nonzero" xlink:href="#path-1"></use>
                    <g id="icon-color" mask="url(#mask-2)" fill="#000000">
                        <g transform="translate(-5.296324, -6.875000)" id="Rectangle">
                            <rect x="0" y="0" width="21.1852954" height="22"></rect>
                        </g>
                    </g>
                </g>
            </g>
        </g>
    </symbol>
    <symbol id="iqvia_tech" name="IQVIA Technology" width="85px" height="26px" viewBox="0 0 85 26" version="1.1" xmlns="http://www.w3.org/2000/svg" xmlns:xlink="http://www.w3.org/1999/xlink">
        <path d="M80.1149854,24.8941689 C79.9857456,24.801807 79.8932895,24.6450642 79.8932895,24.4608356 C79.8932895,24.1659213 80.1336257,23.9356356 80.4296345,23.9356356 C80.5869591,23.9356356 80.6886111,23.9814451 80.762924,24.0366642 C81.299269,24.4608356 81.8728947,24.7005308 82.5760088,24.7005308 C83.2791228,24.7005308 83.7232602,24.3684737 83.7232602,23.8895785 L83.7232602,23.8707594 C83.7232602,23.4099404 83.4642836,23.1610832 82.2616082,22.8847404 C80.8829678,22.5529308 80.1057895,22.1473308 80.1057895,20.9585118 L80.1057895,20.9396927 C80.1057895,19.8338261 81.0310965,19.0686832 82.3170322,19.0686832 C83.1312427,19.0686832 83.7881287,19.2806451 84.3707018,19.6679213 C84.5004386,19.7417118 84.620731,19.898207 84.620731,20.1195785 C84.620731,20.4142451 84.3798977,20.6447785 84.0841374,20.6447785 C83.9730409,20.6447785 83.8805848,20.6172927 83.7881287,20.5620737 C83.2885673,20.2391785 82.8071491,20.0732737 82.2983918,20.0732737 C81.6325585,20.0732737 81.243845,20.4142451 81.243845,20.8381689 L81.243845,20.8567404 C81.243845,21.3547023 81.5398538,21.5760737 82.7887573,21.8707404 C84.1582018,22.2025499 84.8613158,22.6911023 84.8613158,23.7603213 L84.8613158,23.7786451 C84.8613158,24.9860356 83.9084211,25.7053689 82.5481725,25.7053689 C81.6693421,25.7053689 80.8367398,25.4285308 80.1149854,24.8941689 Z M73.6656725,25.0415023 L73.6656725,19.7323023 C73.6656725,19.4099023 73.9154532,19.1610451 74.2395468,19.1610451 L78.0046491,19.1610451 C78.2822661,19.1610451 78.513655,19.3913308 78.513655,19.6679213 C78.513655,19.9536737 78.2822661,20.1750451 78.0046491,20.1750451 L74.8037281,20.1750451 L74.8037281,21.8524166 L77.588348,21.8524166 C77.8659649,21.8524166 78.0973538,22.0829499 78.0973538,22.3687023 C78.0973538,22.6450451 77.8659649,22.8664166 77.588348,22.8664166 L74.8037281,22.8664166 L74.8037281,24.599007 L78.0511257,24.599007 C78.3284942,24.599007 78.559883,24.8295404 78.559883,25.1061308 C78.559883,25.3918832 78.3284942,25.613007 78.0511257,25.613007 L74.2395468,25.613007 C73.9154532,25.613007 73.6656725,25.3641499 73.6656725,25.0415023 Z M70.3809942,19.6770832 C70.3809942,19.3635975 70.6307749,19.1147404 70.9546199,19.1147404 C71.269269,19.1147404 71.5188012,19.3635975 71.5188012,19.6770832 L71.5188012,25.0967213 C71.5188012,25.410207 71.269269,25.6590642 70.9546199,25.6590642 C70.6307749,25.6590642 70.3809942,25.410207 70.3809942,25.0967213 L70.3809942,19.6770832 Z M62.3584357,22.4051023 L62.3584357,22.3867785 C62.3584357,20.5803975 63.7462719,19.0503594 65.6982895,19.0503594 C66.6698246,19.0503594 67.3172661,19.2806451 67.9095322,19.7045689 C68.0203801,19.7877689 68.1409211,19.9445118 68.1409211,20.165388 C68.1409211,20.4697118 67.8908918,20.7277308 67.5764912,20.7277308 C67.4283626,20.7277308 67.3172661,20.6631023 67.2248099,20.5984737 C66.8085088,20.2946451 66.3551754,20.0918451 65.6520614,20.0918451 C64.4585819,20.0918451 63.5519152,21.1335785 63.5519152,22.3687023 L63.5519152,22.3867785 C63.5519152,23.7142642 64.4307456,24.6913689 65.7537135,24.6913689 C66.3643713,24.6913689 66.9196053,24.4979785 67.3172661,24.2025689 L67.3172661,22.9951785 L66.0405263,22.9951785 C65.7631579,22.9951785 65.531769,22.7832166 65.531769,22.5068737 C65.531769,22.2300356 65.7631579,22.0089118 66.0405263,22.0089118 L67.8446637,22.0089118 C68.1685088,22.0089118 68.4182895,22.2580166 68.4182895,22.5804166 L68.4182895,24.3040927 C68.4182895,24.6267404 68.2885526,24.8572737 68.0203801,25.0231785 C67.4653947,25.3918832 66.6882164,25.7236927 65.7169298,25.7236927 C63.6905994,25.7236927 62.3584357,24.2857689 62.3584357,22.4051023 Z M59.6558333,22.4051023 L59.6558333,22.3867785 C59.6558333,21.1335785 58.7397222,20.0918451 57.4540351,20.0918451 C56.1678509,20.0918451 55.2703801,21.1147594 55.2703801,22.3687023 L55.2703801,22.3867785 C55.2703801,23.6404737 56.1864912,24.6730451 57.4724269,24.6730451 C58.7583626,24.6730451 59.6558333,23.6590451 59.6558333,22.4051023 Z M54.0771491,22.4051023 L54.0771491,22.3867785 C54.0771491,20.5712356 55.4833772,19.0503594 57.4724269,19.0503594 C59.4614766,19.0503594 60.8493129,20.5526642 60.8493129,22.3687023 L60.8493129,22.3867785 C60.8493129,24.2025689 59.4430848,25.7236927 57.4540351,25.7236927 C55.4647368,25.7236927 54.0771491,24.2211404 54.0771491,22.4051023 Z M48.5901754,19.6770832 C48.5901754,19.3635975 48.8394591,19.1147404 49.1635526,19.1147404 C49.4782018,19.1147404 49.7279825,19.3635975 49.7279825,19.6770832 L49.7279825,24.5806832 L52.6604825,24.5806832 C52.9472953,24.5806832 53.1786842,24.8109689 53.1786842,25.0967213 C53.1786842,25.3824737 52.9472953,25.613007 52.6604825,25.613007 L49.1635526,25.613007 C48.8394591,25.613007 48.5901754,25.3641499 48.5901754,25.0415023 L48.5901754,19.6770832 Z M45.6002632,22.4051023 L45.6002632,22.3867785 C45.6002632,21.1335785 44.6846491,20.0918451 43.3984649,20.0918451 C42.1125292,20.0918451 41.2150585,21.1147594 41.2150585,22.3687023 L41.2150585,22.3867785 C41.2150585,23.6404737 42.1309211,24.6730451 43.4171053,24.6730451 C44.7030409,24.6730451 45.6002632,23.6590451 45.6002632,22.4051023 Z M40.0215789,22.4051023 L40.0215789,22.3867785 C40.0215789,20.5712356 41.427807,19.0503594 43.4171053,19.0503594 C45.406155,19.0503594 46.7939912,20.5526642 46.7939912,22.3687023 L46.7939912,22.3867785 C46.7939912,24.2025689 45.3877632,25.7236927 43.3984649,25.7236927 C41.4094152,25.7236927 40.0215789,24.2211404 40.0215789,22.4051023 Z M32.5820906,19.695407 C32.5820906,19.3821689 32.8318713,19.1239023 33.1559649,19.1239023 L33.2760088,19.1239023 C33.5536257,19.1239023 33.7107018,19.2620737 33.8682749,19.4557118 L37.1062281,23.6313118 L37.1062281,19.6679213 C37.1062281,19.3635975 37.3560088,19.1147404 37.661462,19.1147404 C37.9758626,19.1147404 38.2256433,19.3635975 38.2256433,19.6679213 L38.2256433,25.0875594 C38.2256433,25.4010451 37.985307,25.6499023 37.6706579,25.6499023 L37.6241813,25.6499023 C37.3560088,25.6499023 37.1894883,25.5117308 37.0321637,25.3089308 L33.7015058,21.0134832 L33.7015058,25.1061308 C33.7015058,25.410207 33.4517251,25.6590642 33.1465205,25.6590642 C32.8318713,25.6590642 32.5820906,25.410207 32.5820906,25.1061308 L32.5820906,19.695407 Z M25.1334064,19.6770832 C25.1334064,19.3635975 25.3829386,19.1147404 25.7070322,19.1147404 C26.0216813,19.1147404 26.271462,19.3635975 26.271462,19.6770832 L26.271462,21.843007 L29.3612865,21.843007 L29.3612865,19.6770832 C29.3612865,19.3635975 29.6110673,19.1147404 29.9257164,19.1147404 C30.2495614,19.1147404 30.4990936,19.3635975 30.4990936,19.6770832 L30.4990936,25.0967213 C30.4990936,25.410207 30.2495614,25.6590642 29.9257164,25.6590642 C29.6110673,25.6590642 29.3612865,25.410207 29.3612865,25.0967213 L29.3612865,22.8939023 L26.271462,22.8939023 L26.271462,25.0967213 C26.271462,25.410207 26.0216813,25.6590642 25.7070322,25.6590642 C25.3829386,25.6590642 25.1334064,25.410207 25.1334064,25.0967213 L25.1334064,19.6770832 Z M17.601462,22.4051023 L17.601462,22.3867785 C17.601462,20.5526642 18.9798538,19.0503594 20.9413158,19.0503594 C21.9404386,19.0503594 22.5973246,19.3452737 23.1617544,19.778607 C23.2817982,19.8704737 23.3839474,20.0272166 23.3839474,20.2300166 C23.3839474,20.5435023 23.1339181,20.7831975 22.8195175,20.7831975 C22.6619444,20.7831975 22.5510965,20.7277308 22.4770322,20.6725118 C22.0331433,20.3129689 21.5517251,20.0918451 20.9321199,20.0918451 C19.7016082,20.0918451 18.7949415,21.1055975 18.7949415,22.3687023 L18.7949415,22.3867785 C18.7949415,23.6498832 19.6924123,24.6730451 20.9321199,24.6730451 C21.6165936,24.6730451 22.0793713,24.4516737 22.5510965,24.0552356 C22.6343567,23.9814451 22.7544006,23.9262261 22.8933333,23.9262261 C23.1801462,23.9262261 23.4299269,24.1659213 23.4299269,24.4516737 C23.4299269,24.6267404 23.3466667,24.7649118 23.2450146,24.8572737 C22.6343567,25.3918832 21.9404386,25.7236927 20.8950877,25.7236927 C19.0076901,25.7236927 17.601462,24.2580356 17.601462,22.4051023 Z M11.2724415,25.0415023 L11.2724415,19.7323023 C11.2724415,19.4099023 11.5219737,19.1610451 11.8458187,19.1610451 L15.6114181,19.1610451 C15.8887865,19.1610451 16.1199269,19.3913308 16.1199269,19.6679213 C16.1199269,19.9536737 15.8887865,20.1750451 15.6114181,20.1750451 L12.4102485,20.1750451 L12.4102485,21.8524166 L15.1948684,21.8524166 C15.4724854,21.8524166 15.7038743,22.0829499 15.7038743,22.3687023 C15.7038743,22.6450451 15.4724854,22.8664166 15.1948684,22.8664166 L12.4102485,22.8664166 L12.4102485,24.599007 L15.6573977,24.599007 C15.9350146,24.599007 16.1664035,24.8295404 16.1664035,25.1061308 C16.1664035,25.3918832 15.9350146,25.613007 15.6573977,25.613007 L11.8458187,25.613007 C11.5219737,25.613007 11.2724415,25.3641499 11.2724415,25.0415023 Z M6.45105263,20.2114451 L4.87830409,20.2114451 C4.58229532,20.2114451 4.35115497,19.9719975 4.35115497,19.6862451 C4.35115497,19.4007404 4.58229532,19.1610451 4.87830409,19.1610451 L9.18049708,19.1610451 C9.4670614,19.1610451 9.69845029,19.4007404 9.69845029,19.6862451 C9.69845029,19.9719975 9.4670614,20.2114451 9.18049708,20.2114451 L7.59830409,20.2114451 L7.59830409,25.0967213 C7.59830409,25.410207 7.33907895,25.6590642 7.02467836,25.6590642 C6.71027778,25.6590642 6.45105263,25.410207 6.45105263,25.0967213 L6.45105263,20.2114451 L6.45105263,20.2114451 Z M39.6281433,11.5380927 L39.0323977,10.4047404 C38.8206433,10.0018642 38.3213304,9.84635941 37.9169591,10.0573308 C37.5125877,10.2683023 37.3565058,10.7660166 37.5685088,11.1686451 L38.0877047,12.1563975 L38.0804971,12.1591213 C37.7844883,12.2267213 37.4790351,12.2715404 37.1656287,12.2876356 C34.2229386,12.441407 31.7035088,10.181388 31.5491667,7.24957846 C31.3948246,4.31776894 33.6634795,1.80765465 36.6061696,1.65388322 C39.5488596,1.50035941 42.0680409,3.76037846 42.222383,6.69218798 C42.3295029,8.72613084 41.2694883,10.5560356 39.6281433,11.5380927 Z M36.5194298,0.00969274468 C32.6668421,0.210759411 29.6968129,3.49740703 29.8986257,7.33574989 C30.1006871,11.1740927 33.3992836,14.133388 37.2521199,13.9323213 C37.812076,13.9028546 38.3526462,13.8067785 38.8683626,13.6547404 L38.8740789,13.6525118 L39.3984942,14.6504166 C39.6102485,15.0530451 40.1095614,15.2085499 40.5139327,14.9975785 C40.9180556,14.7868546 41.0741374,14.2891404 40.8626316,13.8862642 L40.3953801,12.997807 C42.5902193,11.7243023 44.0145906,9.30209274 43.872924,6.60601655 C43.6711111,2.76742608 40.3722661,-0.191621541 36.5194298,0.00969274468 L36.5194298,0.00969274468 Z M25.771652,13.902607 C25.3153363,13.902607 24.9452632,13.5341499 24.9452632,13.0795213 L24.9452632,0.862245126 C24.9452632,0.407616554 25.3153363,0.0391594113 25.771652,0.0391594113 C26.2279678,0.0391594113 26.5980409,0.407616554 26.5980409,0.862245126 L26.5980409,13.0795213 C26.5980409,13.5341499 26.2279678,13.902607 25.771652,13.902607 M65.0103363,13.902607 C64.5537719,13.902607 64.1839474,13.5341499 64.1839474,13.0795213 L64.1839474,0.862245126 C64.1839474,0.407616554 64.5537719,0.0391594113 65.0103363,0.0391594113 C65.466652,0.0391594113 65.8364766,0.407616554 65.8364766,0.862245126 L65.8364766,13.0795213 C65.8364766,13.5341499 65.466652,13.902607 65.0103363,13.902607 M53.2375877,13.902607 C53.236345,13.902607 53.2353509,13.902607 53.2343567,13.902607 C52.9281579,13.9016166 52.6475585,13.7317499 52.5053947,13.4613499 L46.0849123,1.24432132 C45.8731579,0.841445126 46.0294883,0.343978459 46.4338596,0.13300703 C46.838231,-0.0779643982 47.3372953,0.0777879828 47.5490497,0.480416554 L53.2445468,11.3177118 L59.0516374,0.474721316 C59.2666228,0.073578459 59.7674269,-0.0777167791 60.1695614,0.135978459 C60.572193,0.350168935 60.7245468,0.848873697 60.5098099,1.25001655 L53.9665497,13.4670451 C53.8228947,13.7354642 53.5425439,13.902607 53.2375877,13.902607 M77.5040936,0.0391594113 C77.8105409,0.0403975066 78.0911404,0.210264173 78.2330556,0.480416554 L84.6537865,12.6976927 C84.8655409,13.1003213 84.7094591,13.5980356 84.3050877,13.809007 C84.182807,13.8726451 84.0513304,13.9028546 83.9223392,13.9028546 C83.6245906,13.9028546 83.3370322,13.7423975 83.1894006,13.4613499 L77.494152,2.62430227 L71.6870614,13.4670451 C71.472076,13.8684356 70.9712719,14.0199785 70.5688889,13.805788 C70.1662573,13.5920927 70.014152,13.0931404 70.2288889,12.6919975 L76.7719006,0.474721316 C76.9160526,0.205559411 77.1971491,0.0295022685 77.5040936,0.0391594113 Z M79.4496491,9.48458798 C79.9059649,9.48458798 80.276038,9.85329274 80.276038,10.3079213 C80.276038,10.7625499 79.9059649,11.1312546 79.4496491,11.1312546 L75.4665789,11.1312546 C75.0102632,11.1312546 74.6401901,10.7625499 74.6401901,10.3079213 C74.6401901,9.85329274 75.0102632,9.48458798 75.4665789,9.48458798 L79.4496491,9.48458798 Z M14.7912427,11.6108927 L4.67897661,11.6108927 C4.29225146,11.6108927 3.97561404,11.9263594 3.97561404,12.3119023 C3.97561404,12.6971975 4.29225146,13.0126642 4.67897661,13.0126642 L14.7912427,13.0126642 C15.1782164,13.0126642 15.4946053,12.6971975 15.4946053,12.3119023 C15.4946053,11.9263594 15.1782164,11.6108927 14.7912427,11.6108927 M17.2187135,13.0126642 C16.8317398,13.0126642 16.5151023,12.6971975 16.5151023,12.3119023 C16.5151023,11.9263594 16.8317398,11.6111404 17.2187135,11.6111404 L20.1532018,11.6111404 C20.5401754,11.6111404 20.8568129,11.9263594 20.8568129,12.3119023 C20.8568129,12.6971975 20.5401754,13.0126642 20.1532018,13.0126642 L17.2187135,13.0126642 M18.592383,10.3415975 C18.2056579,10.3415975 17.8890205,10.0261308 17.8890205,9.6408356 C17.8890205,9.25529274 18.2056579,8.93982608 18.592383,8.93982608 L20.1532018,8.93982608 C20.5401754,8.93982608 20.8568129,9.25529274 20.8568129,9.6408356 C20.8568129,10.0261308 20.5401754,10.3415975 20.1532018,10.3415975 L18.592383,10.3415975 M18.9865643,7.67053084 C18.5998392,7.67053084 18.2829532,7.35506417 18.2829532,6.96952132 C18.2829532,6.58422608 18.5998392,6.26875941 18.9865643,6.26875941 L20.1532018,6.26875941 C20.5401754,6.26875941 20.8568129,6.58422608 20.8568129,6.96952132 C20.8568129,7.35506417 20.5401754,7.67053084 20.1532018,7.67053084 L18.9865643,7.67053084 M18.6159942,4.99921655 C18.2290205,4.99921655 17.9126316,4.68399751 17.9126316,4.29845465 C17.9126316,3.91291179 18.2290205,3.59769274 18.6159942,3.59769274 L20.1532018,3.59769274 C20.5401754,3.59769274 20.8568129,3.91291179 20.8568129,4.29845465 C20.8568129,4.68399751 20.5401754,4.99921655 20.1532018,4.99921655 L18.6159942,4.99921655 M17.2801023,2.32814989 C16.8933772,2.32814989 16.5767398,2.01268322 16.5767398,1.62738798 C16.5767398,1.24184513 16.8933772,0.926626078 17.2801023,0.926626078 L20.1532018,0.926626078 C20.5401754,0.926626078 20.8568129,1.24184513 20.8568129,1.62738798 C20.8568129,2.01268322 20.5401754,2.32814989 20.1532018,2.32814989 L17.2801023,2.32814989 M16.1651608,8.93982608 L2.69961988,8.93982608 C2.3126462,8.93982608 1.99625731,9.25529274 1.99625731,9.6408356 C1.99625731,10.0261308 2.3126462,10.3415975 2.69961988,10.3415975 L16.1651608,10.3415975 C16.551886,10.3415975 16.8685234,10.0261308 16.8685234,9.6408356 C16.8685234,9.25529274 16.551886,8.93982608 16.1651608,8.93982608 M16.5593421,6.26875941 L0.703362573,6.26875941 C0.316637427,6.26875941 -1.27364785e-12,6.58422608 -1.27364785e-12,6.96952132 C-1.27364785e-12,7.35506417 0.316637427,7.67053084 0.703362573,7.67053084 L16.5593421,7.67053084 C16.9460673,7.67053084 17.2627047,7.35506417 17.2627047,6.96952132 C17.2627047,6.58422608 16.9460673,6.26875941 16.5593421,6.26875941 M16.1887719,3.59769274 L1.70149123,3.59769274 C1.31451754,3.59769274 0.998128655,3.91291179 0.998128655,4.29845465 C0.998128655,4.68399751 1.31451754,4.99921655 1.70149123,4.99921655 L16.1887719,4.99921655 C16.5754971,4.99921655 16.8921345,4.68399751 16.8921345,4.29845465 C16.8921345,3.91291179 16.5754971,3.59769274 16.1887719,3.59769274 M14.8528801,0.926626078 L6.79502924,0.926626078 C6.40830409,0.926626078 6.09166667,1.24184513 6.09166667,1.62738798 C6.09166667,2.01268322 6.40830409,2.32814989 6.79502924,2.32814989 L14.8528801,2.32814989 C15.2396053,2.32814989 15.5562427,2.01268322 15.5562427,1.62738798 C15.5562427,1.24184513 15.2396053,0.926626078 14.8528801,0.926626078" id="path-1"></path>
        <g id="3---Ready-for-UI-🖥" stroke="none" stroke-width="1" fill="none" fill-rule="evenodd">
            <g id="Current-PP---Account-Settings---OPT1---Mobile" transform="translate(-24.000000, -1967.000000)">
                <g id="Group-2" transform="translate(24.000000, 1964.000000)">
                    <g id="footer/ui/logo" transform="translate(0.000000, 3.000000)">
                        <mask id="mask-2" fill="white">
                            <use xlink:href="#path-1"></use>
                        </mask>
                        <use id="Mask" fill="#005587" xlink:href="#path-1"></use>
                        <g id="color/5-#B5B5B5" mask="url(#mask-2)" fill="#005587">
                            <g transform="translate(-1.076798, -3.201279)" id="Rectangle">
                                <rect x="0" y="0" width="88" height="32"></rect>
                            </g>
                        </g>
                    </g>
                </g>
            </g>
        </g>
    </symbol>
    <symbol id="participant_settings" name="Participant Settings" width="20px" height="20px" viewBox="0 0 20 20" version="1.1" xmlns="http://www.w3.org/2000/svg" xmlns:xlink="http://www.w3.org/1999/xlink">
        <path d="M5.72439418,7.23954576 C7.65859035,7.23954576 9.22656614,5.61891824 9.22656614,3.61977288 C9.22656614,1.62062752 7.65859035,0 5.72439418,0 C3.79019802,0 2.22222222,1.62062752 2.22222222,3.61977288 C2.22222222,5.61891824 3.79019802,7.23954576 5.72439418,7.23954576 Z M5.73925974,7.78277933 C3.09292523,7.67123136 0.720705402,9.45785254 0.0126980243,12.0957002 C-0.0376764141,12.3679241 0.0641949065,12.6463142 0.276257853,12.8159466 C0.527835486,13.0257786 0.843090371,13.1369182 1.16628973,13.1297173 L10.3136096,13.1297173 C10.636809,13.1369182 10.9520639,13.0257786 11.2036415,12.8159466 C11.4157045,12.6463142 11.5175758,12.3679241 11.4672014,12.0957002 C10.7590777,9.45731516 8.38609997,7.67055375 5.73925974,7.78277933 L5.73925974,7.78277933 Z" id="path-1"></path>
        <path d="M9.34192562,4.06710213 L8.81442562,3.8800188 C8.66167243,3.82571694 8.53910348,3.70919793 8.47714546,3.55938661 C8.41518744,3.40957528 8.41965009,3.24051935 8.48942562,3.09418546 L8.48942562,3.09418546 L8.72942562,2.5887688 C8.9088084,2.21057895 8.83095862,1.76044144 8.5349808,1.46446361 C8.23900298,1.16848579 7.78886546,1.09063601 7.41067562,1.2700188 L6.90525895,1.51043546 C6.75884113,1.5798946 6.58985586,1.58409515 6.44016784,1.52199646 C6.29047982,1.45989777 6.17409338,1.33730959 6.11984228,1.18460213 L5.93234228,0.657518798 C5.79176686,0.263251152 5.41842134,0 4.99984228,0 C4.58126323,0 4.2079177,0.263251152 4.06734228,0.657518798 L3.87984228,1.1850188 C3.82550425,1.33765134 3.70908174,1.4601409 3.55940393,1.52215595 C3.40972611,1.584171 3.24078897,1.57991268 3.09442562,1.51043546 L2.58900895,1.2700188 C2.2108191,1.09063601 1.76068159,1.16848579 1.46470376,1.46446361 C1.16872594,1.76044144 1.09087617,2.21057895 1.27025895,2.5887688 L1.51025895,3.09418546 C1.57989802,3.2405368 1.58429102,3.40953649 1.5223494,3.55930815 C1.46040778,3.70907981 1.33792787,3.8256082 1.18525895,3.8800188 L0.657758949,4.0675188 C0.263389741,4.20788401 0,4.58120628 0,4.99981046 C0,5.41841465 0.263389741,5.79173692 0.657758949,5.93210213 L1.18525895,6.11960213 C1.33790072,6.17391849 1.46038056,6.29036765 1.52232837,6.44007484 C1.58427617,6.58978204 1.57989055,6.75872725 1.51025895,6.9050188 L1.27025895,7.41043546 C1.09087617,7.78862531 1.16872594,8.23876283 1.46470376,8.53474065 C1.76068159,8.83071847 2.2108191,8.90856825 2.58900895,8.72918546 L3.09442562,8.48918546 C3.24075421,8.41943522 3.40980398,8.4150376 3.55956114,8.47708553 C3.70931831,8.53913346 3.82572191,8.66180115 3.87984228,8.81460213 L4.06734228,9.34168546 C4.2079177,9.73595311 4.58126323,9.99920426 4.99984228,9.99920426 C5.41842134,9.99920426 5.79176686,9.73595311 5.93234228,9.34168546 L6.11984228,8.81418546 C6.17415864,8.6615437 6.2906078,8.53906385 6.440315,8.47711605 C6.59002219,8.41516824 6.7589674,8.41955387 6.90525895,8.48918546 L7.41067562,8.72918546 C7.78886546,8.90856825 8.23900298,8.83071847 8.5349808,8.53474065 C8.83095862,8.23876283 8.9088084,7.78862531 8.72942562,7.41043546 L8.48942562,6.9050188 C8.41979402,6.75872725 8.41540839,6.58978204 8.4773562,6.44007484 C8.539304,6.29036765 8.66178385,6.17391849 8.81442562,6.11960213 L9.34192562,5.93168546 C9.73629482,5.79132025 9.99968457,5.41799799 9.99968457,4.9993938 C9.99968457,4.58078961 9.73629482,4.20746735 9.34192562,4.06710213 Z M4.99984228,6.99293546 C4.19616973,6.9812766 3.47312637,6.5019612 3.14942562,5.7662688 C2.72742896,4.74442709 3.21200432,3.57380486 4.23275895,3.14918546 C5.25455773,2.74054953 6.4158101,3.22124626 6.84984228,4.2325188 C7.27183894,5.2543605 6.78726358,6.42498274 5.76650895,6.84960213 C5.52351564,6.94954736 5.26253143,6.99834006 4.99984228,6.99293546 Z" id="path-3"></path>
        <g id="4---UI-Design-💪" stroke="none" stroke-width="1" fill="none" fill-rule="evenodd">
            <g id="PP-Lite---Account-Settings---Mobile-3---US5" transform="translate(-338.000000, -488.000000)">
                <g id="menu/basic/small/simple-copy-9" transform="translate(85.000000, 191.000000)">
                    <g id="Participant-Copy" transform="translate(24.000000, 278.000000)">
                        <g id="Participant-Settings" transform="translate(229.000000, 19.000000)">
                            <rect id="Rectangle" x="0" y="0" width="20" height="20"></rect>
                            <g id="Oval" transform="translate(1.111111, 0.000000)">
                                <g id="Mask">
                                    <mask id="mask-2" fill="white">
                                        <use xlink:href="#path-1"></use>
                                    </mask>
                                    <use fill="#595959" fill-rule="nonzero" xlink:href="#path-1"></use>
                                    <g id="color" mask="url(#mask-2)" fill="#005587">
                                        <g transform="translate(-1.111111, 0.000000)" id="Rectangle">
                                            <rect x="0" y="0" width="20" height="20"></rect>
                                        </g>
                                    </g>
                                </g>
                                <circle fill="#FFFFFF" cx="12.3888889" cy="14" r="5"></circle>
                            </g>
                            <g id="icon/cog" transform="translate(10.000000, 10.000000)">
                                <mask id="mask-4" fill="white">
                                    <use xlink:href="#path-3"></use>
                                </mask>
                                <use id="Mask" fill="#000000" fill-rule="nonzero" xlink:href="#path-3"></use>
                                <g id="color" mask="url(#mask-4)" fill="#005587">
                                    <g transform="translate(-10.000000, -10.000000)" id="Rectangle">
                                        <rect x="0" y="0" width="20" height="20"></rect>
                                    </g>
                                </g>
                            </g>
                        </g>
                    </g>
                </g>
            </g>
        </g>
    </symbol>
    <symbol id="participant_profile" name="Participant Profile" xmlns="http://www.w3.org/2000/svg" viewBox="0 0 24 24">
        <path d="M12,0A12,12,0,1,0,24,12,12.013,12.013,0,0,0,12,0Zm6.134,17.9a.749.749,0,0,1-.634.35H6.5a.75.75,0,0,1-.677-1.072,6.834,6.834,0,0,1,12.354,0A.748.748,0,0,1,18.134,17.9ZM12,4.35a3.7,3.7,0,1,1-3.7,3.7A3.7,3.7,0,0,1,12,4.35Z"></path>
    </symbol>
    <symbol id="manage_delegate" name="Manage Delegates" xmlns="http://www.w3.org/2000/svg" viewBox="0 0 24 24">
        <circle cx="12" cy="6.25" r="5.5"/>
        <path d="M12,13.25a9.511,9.511,0,0,0-9.5,9.5.5.5,0,0,0,.5.5H21a.5.5,0,0,0,.5-.5A9.511,9.511,0,0,0,12,13.25Z"/>
    </symbol>
    <symbol id="participant_switcher" name="Participant Switcher" xmlns="http://www.w3.org/2000/svg" viewBox="0 0 24 24">
        <path d="M12,0A12,12,0,1,0,24,12,12.013,12.013,0,0,0,12,0Zm6.134,17.9a.749.749,0,0,1-.634.35H6.5a.75.75,0,0,1-.677-1.072,6.834,6.834,0,0,1,12.354,0A.748.748,0,0,1,18.134,17.9ZM12,4.35a3.7,3.7,0,1,1-3.7,3.7A3.7,3.7,0,0,1,12,4.35Z"></path>
    </symbol>
    <symbol xmlns="http://www.w3.org/2000/svg" viewBox="0 0 24 24" id="info">
        <path d="M12 .9C5.9.9.9 5.9.9 12s5 11.1 11.1 11.1 11.1-5 11.1-11.1S18.1.9 12 .9zm0 5.6c.8 0 1.4.6 1.4 1.4s-.6 1.4-1.4 1.4-1.4-.6-1.4-1.4.6-1.4 1.4-1.4zm2.3 9.7c0 .2-.2.4-.5.4h-3.6c-.3 0-.5-.1-.5-.4v-.9c0-.3.2-.5.5-.5.2 0 .4-.2.4-.4v-1.9c0-.2-.2-.5-.4-.5-.3 0-.5-.1-.5-.4v-.9c0-.3.2-.5.5-.5h2.7c.3 0 .5.2.5.5v3.7c0 .2.2.4.4.4.3 0 .5.2.5.5v.9z"></path>
    </symbol>
    <symbol id="delegate_profile" name="Delegate Profile" width="40px" height="40px" viewBox="0 0 40 40" version="1.1" xmlns="http://www.w3.org/2000/svg" xmlns:xlink="http://www.w3.org/1999/xlink">
        <circle id="path-1" cx="13" cy="13" r="13"></circle>
        <path d="M5.90582634,7.46321966 C7.90132601,7.46321966 9.51899811,5.79252103 9.51899811,3.73160983 C9.51899811,1.67069863 7.90132601,0 5.90582634,0 C3.91032668,0 2.29265458,1.67069863 2.29265458,3.73160983 C2.29265458,5.79252103 3.91032668,7.46321966 5.90582634,7.46321966 Z M5.92116306,8.02323704 C3.19095414,7.90824267 0.743547843,9.75006351 0.0131004826,12.4694105 C-0.0388705515,12.750045 0.0662295359,13.0370363 0.285013724,13.2119097 C0.544565,13.4282247 0.86981175,13.542798 1.20325478,13.5353746 L10.640495,13.5353746 C10.973938,13.542798 11.2991847,13.4282247 11.558736,13.2119097 C11.7775202,13.0370363 11.8826203,12.750045 11.8306493,12.4694105 C11.1000819,9.74950953 8.65189373,7.90754412 5.92116306,8.02323704 L5.92116306,8.02323704 Z" id="path-3"></path>
        <linearGradient x1="50%" y1="-140.727151%" x2="50%" y2="100%" id="linearGradient-5">
            <stop stop-color="#00E1DA" offset="0%"></stop>
            <stop stop-color="#005E8B" offset="100%"></stop>
        </linearGradient>
        <filter x="-52.5%" y="-52.5%" width="205.0%" height="205.0%" filterUnits="objectBoundingBox" id="filter-6">
            <feOffset dx="2" dy="-1" in="SourceAlpha" result="shadowOffsetOuter1"></feOffset>
            <feGaussianBlur stdDeviation="1.5" in="shadowOffsetOuter1" result="shadowBlurOuter1"></feGaussianBlur>
            <feColorMatrix values="0 0 0 0 0   0 0 0 0 0   0 0 0 0 0  0 0 0 0.08 0" type="matrix" in="shadowBlurOuter1" result="shadowMatrixOuter1"></feColorMatrix>
            <feMerge>
                <feMergeNode in="shadowMatrixOuter1"></feMergeNode>
                <feMergeNode in="SourceGraphic"></feMergeNode>
            </feMerge>
        </filter>
        <circle id="path-7" cx="10" cy="10" r="10"></circle>
        <path d="M4.24194513,5.36056539 C5.67524161,5.36056539 6.83715798,4.16056195 6.83715798,2.68028269 C6.83715798,1.20000344 5.67524161,0 4.24194513,0 C2.80864866,0 1.64673229,1.20000344 1.64673229,2.68028269 C1.64673229,4.16056195 2.80864866,5.36056539 4.24194513,5.36056539 Z M4.25296095,5.76280597 C2.29194893,5.6802096 0.534063986,7.00312404 0.00940961096,8.95633429 C-0.0279193354,9.15790412 0.0475703214,9.36403976 0.204715227,9.48964507 C0.391141682,9.64501648 0.624754861,9.72731043 0.864255134,9.72197848 L7.64268931,9.72197848 C7.88218958,9.72731043 8.11580276,9.64501648 8.30222922,9.48964507 C8.45937412,9.36403976 8.53486378,9.15790412 8.49753483,8.95633429 C7.97279427,7.00272614 6.21434772,5.67970786 4.25296095,5.76280597 L4.25296095,5.76280597 Z" id="path-9"></path>

        <g id="5---Dev-Handoff" stroke="none" stroke-width="1" fill="none" fill-rule="evenodd">
            <g id="Avatar-Delegate" transform="translate(8.000000, 0.000000)">
                <rect id="Rectangle" x="0" y="0" width="32" height="32"></rect>
                <g id="avatar-copy" transform="translate(6.000000, 0.000000)">
                    <mask id="mask-2" fill="white">
                        <use xlink:href="#path-1"></use>
                    </mask>
                    <g id="container"></g>
                    <g id="color" mask="url(#mask-2)" fill="#FFFFFF">
                        <rect id="Rectangle" x="0" y="0" width="26" height="26"></rect>
                    </g>
                    <g id="icon" mask="url(#mask-2)">
                        <g transform="translate(7.000000, 6.000000)">
                            <mask id="mask-4" fill="white">
                                <use xlink:href="#path-3"></use>
                            </mask>
                            <use id="Mask" stroke="none" fill="#595959" fill-rule="nonzero" xlink:href="#path-3"></use>
                            <g id="color" stroke="none" stroke-width="1" fill="none" fill-rule="evenodd" mask="url(#mask-4)">
                                <g transform="translate(-0.845982, 0.000000)" fill="url(#linearGradient-5)" id="Rectangle">
                                    <rect x="0" y="0" width="13.535714" height="13.535714"></rect>
                                </g>
                            </g>
                        </g>
                    </g>
                </g>
                <g id="avatar-copy" filter="url(#filter-6)" transform="translate(0.000000, 12.000000)">
                    <mask id="mask-8" fill="white">
                        <use xlink:href="#path-7"></use>
                    </mask>
                    <g id="container"></g>
                    <g id="color" mask="url(#mask-8)" fill="#FFFFFF">
                        <rect id="Rectangle" x="0" y="0" width="20" height="20"></rect>
                    </g>
                    <g id="icon" mask="url(#mask-8)">
                        <g transform="translate(5.722222, 5.111111)">
                            <mask id="mask-10" fill="white">
                                <use xlink:href="#path-9"></use>
                            </mask>
                            <use id="Mask" stroke="none" fill="#595959" fill-rule="nonzero" xlink:href="#path-9"></use>
                            <g id="color" stroke="none" stroke-width="1" fill="none" fill-rule="evenodd" mask="url(#mask-10)">
                                <g transform="translate(-0.607639, 0.000000)" fill="url(#linearGradient-5)" id="Rectangle">
                                    <rect x="0" y="0" width="9.72222222" height="9.72222222"></rect>
                                </g>
                            </g>
                        </g>
                    </g>
                </g>
            </g>
        </g>
    </symbol>
    <symbol id="delegate_switcher" name="Delegate Switcher" width="40px" height="40px" viewBox="0 0 40 40" version="1.1" xmlns="http://www.w3.org/2000/svg" xmlns:xlink="http://www.w3.org/1999/xlink">
 
        <circle id="path-1" cx="13" cy="13" r="13"></circle>
        <path d="M5.90582634,7.46321966 C7.90132601,7.46321966 9.51899811,5.79252103 9.51899811,3.73160983 C9.51899811,1.67069863 7.90132601,0 5.90582634,0 C3.91032668,0 2.29265458,1.67069863 2.29265458,3.73160983 C2.29265458,5.79252103 3.91032668,7.46321966 5.90582634,7.46321966 Z M5.92116306,8.02323704 C3.19095414,7.90824267 0.743547843,9.75006351 0.0131004826,12.4694105 C-0.0388705515,12.750045 0.0662295359,13.0370363 0.285013724,13.2119097 C0.544565,13.4282247 0.86981175,13.542798 1.20325478,13.5353746 L10.640495,13.5353746 C10.973938,13.542798 11.2991847,13.4282247 11.558736,13.2119097 C11.7775202,13.0370363 11.8826203,12.750045 11.8306493,12.4694105 C11.1000819,9.74950953 8.65189373,7.90754412 5.92116306,8.02323704 L5.92116306,8.02323704 Z" id="path-3"></path>
        <filter x="-52.5%" y="-52.5%" width="205.0%" height="205.0%" filterUnits="objectBoundingBox" id="filter-5">
            <feOffset dx="2" dy="-1" in="SourceAlpha" result="shadowOffsetOuter1"></feOffset>
            <feGaussianBlur stdDeviation="1.5" in="shadowOffsetOuter1" result="shadowBlurOuter1"></feGaussianBlur>
            <feColorMatrix values="0 0 0 0 0   0 0 0 0 0   0 0 0 0 0  0 0 0 0.08 0" type="matrix" in="shadowBlurOuter1" result="shadowMatrixOuter1"></feColorMatrix>
            <feMerge>
                <feMergeNode in="shadowMatrixOuter1"></feMergeNode>
                <feMergeNode in="SourceGraphic"></feMergeNode>
            </feMerge>
        </filter>
        <circle id="path-6" cx="10" cy="10" r="10"></circle>
        <path d="M4.24194513,5.36056539 C5.67524161,5.36056539 6.83715798,4.16056195 6.83715798,2.68028269 C6.83715798,1.20000344 5.67524161,0 4.24194513,0 C2.80864866,0 1.64673229,1.20000344 1.64673229,2.68028269 C1.64673229,4.16056195 2.80864866,5.36056539 4.24194513,5.36056539 Z M4.25296095,5.76280597 C2.29194893,5.6802096 0.534063986,7.00312404 0.00940961096,8.95633429 C-0.0279193354,9.15790412 0.0475703214,9.36403976 0.204715227,9.48964507 C0.391141682,9.64501648 0.624754861,9.72731043 0.864255134,9.72197848 L7.64268931,9.72197848 C7.88218958,9.72731043 8.11580276,9.64501648 8.30222922,9.48964507 C8.45937412,9.36403976 8.53486378,9.15790412 8.49753483,8.95633429 C7.97279427,7.00272614 6.21434772,5.67970786 4.25296095,5.76280597 L4.25296095,5.76280597 Z" id="path-8"></path>

        <g id="4---UI-Design-💪" stroke="none" stroke-width="1" fill="none" fill-rule="evenodd">
            <g id="PP-Lite---Account-Settings---Desktop-4---US5" transform="translate(-1056.000000, -171.000000)">
                <g id="menu/basic/small/simple-copy-8" transform="translate(1032.000000, 139.000000)">
                    <g id="Avatar-Delegate" transform="translate(32.000000, 32.000000)">
                        <rect id="Rectangle" x="0" y="0" width="32" height="32"></rect>
                        <g id="avatar-copy" transform="translate(6.000000, 0.000000)">
                            <mask id="mask-2" fill="white">
                                <use xlink:href="#path-1"></use>
                            </mask>
                            <g id="container"></g>
                            <g id="color" mask="url(#mask-2)" fill="#FFFFFF">
                                <rect id="Rectangle" x="0" y="0" width="26" height="26"></rect>
                            </g>
                            <g id="icon" mask="url(#mask-2)">
                                <g transform="translate(7.000000, 6.000000)">
                                    <mask id="mask-4" fill="white">
                                        <use xlink:href="#path-3"></use>
                                    </mask>
                                    <use id="Mask" stroke="none" fill="#595959" fill-rule="nonzero" xlink:href="#path-3"></use>
                                    <g id="color" stroke="none" stroke-width="1" fill="none" fill-rule="evenodd" mask="url(#mask-4)">
                                        <g transform="translate(-0.845982, 0.000000)" fill="#005587" id="Rectangle">
                                            <rect x="0" y="0" width="13.535714" height="13.535714"></rect>
                                        </g>
                                    </g>
                                </g>
                            </g>
                        </g>
                        <g id="avatar-copy" filter="url(#filter-5)" transform="translate(0.000000, 12.000000)">
                            <mask id="mask-7" fill="white">
                                <use xlink:href="#path-6"></use>
                            </mask>
                            <g id="container"></g>
                            <g id="color" mask="url(#mask-7)" fill="#FFFFFF">
                                <rect id="Rectangle" x="0" y="0" width="20" height="20"></rect>
                            </g>
                            <g id="icon" mask="url(#mask-7)">
                                <g transform="translate(5.722222, 5.111111)">
                                    <mask id="mask-9" fill="white">
                                        <use xlink:href="#path-8"></use>
                                    </mask>
                                    <use id="Mask" stroke="none" fill="#595959" fill-rule="nonzero" xlink:href="#path-8"></use>
                                    <g id="color" stroke="none" stroke-width="1" fill="none" fill-rule="evenodd" mask="url(#mask-9)">
                                        <g transform="translate(-0.607639, 0.000000)" fill="#005587" id="Rectangle">
                                            <rect x="0" y="0" width="9.72222222" height="9.72222222"></rect>
                                        </g>
                                    </g>
                                </g>
                            </g>
                        </g>
                    </g>
                </g>
            </g>
        </g>
    </symbol>

        <symbol id="alarm_bell_off" width="24px" height="26px" viewBox="0 0 24 26" version="1.1" xmlns="http://www.w3.org/2000/svg" xmlns:xlink="http://www.w3.org/1999/xlink">
            <title>A782385D-E172-442D-971F-3F3F406138B5</title>
            <g id="---↳--Visits" stroke="none" stroke-width="1" fill="none" fill-rule="evenodd">
                <g id="My-Visits---Create-Reminder---Desktop-1" transform="translate(-296.000000, -347.000000)" fill="#B5B5B5" fill-rule="nonzero">
                    <g id="Group-15" transform="translate(32.000000, 176.000000)">
                        <g id="Group-28" transform="translate(0.000000, 144.000000)">
                            <g id="alarm-bell-off" transform="translate(276.000000, 40.000000) scale(-1, 1) translate(-276.000000, -40.000000) translate(264.000000, 27.000000)">
                                <path d="M13.7409993,21 L9.26799996,21 C9.14092651,21.0002171 9.03423206,21.0957258 9.02,21.222 C9.00826427,21.3142322 9.00158761,21.4070378 9,21.5 C9,22.8807119 10.119288,24 11.5,24 C12.8807113,24 14,22.8807119 14,21.5 C14.0000694,21.4071292 13.9950619,21.3143241 13.9849993,21.222 C13.9713786,21.0970104 13.8667162,21.0017847 13.7409993,21 L13.7409993,21 Z" id="Path"></path>
                                <path d="M9,20 L20.5146598,20 C20.6830572,20.0001777 20.8394801,19.9053093 20.9278581,19.7494005 C21.0162362,19.5934917 21.0239113,19.3988726 20.9481323,19.2353052 C19.8380741,16.8362843 19.2579854,14.1886336 19.2540014,11.5029245 L19.2540014,10.6928756 C19.2579408,10.1247512 19.2095354,9.55762681 19.1095105,9 L9,20 Z" id="Path"></path>
                                <path d="M0.993957841,26 C1.25858066,26.0044067 1.51368524,25.8930423 1.70142022,25.6910279 L23.7158082,1.85086366 C24.0947306,1.42252594 24.0947306,0.746929009 23.7158082,0.318591286 C23.5281172,0.115107852 23.2734283,0.000773010374 23.0078455,0.000773010374 C22.7422626,0.000773010374 22.4875737,0.115107852 22.2998828,0.318591286 L17.6848665,5.32177485 C17.1035932,4.78516777 16.4879881,4.29377256 15.8426625,3.85127017 C15.1311292,3.35485743 14.3355106,3.01669916 13.5021328,2.85648514 L13.5021328,1.62546575 C13.5021328,0.727745803 12.8301207,0 12.0011518,0 C11.1721829,0 10.5001708,0.727745803 10.5001708,1.62546575 L10.5001708,2.87057251 C9.4627518,3.08415433 8.48600557,3.55810202 7.64830692,4.25438568 C5.77908526,5.84300753 4.29611603,7.09895073 4.29611603,10.4853377 L4.29611603,12.9430419 C4.29611603,15.5221142 3.76777072,16.6534384 2.71408206,18.9095848 L2.54897415,19.2628527 C2.47133553,19.430638 2.47940223,19.6299835 2.57029637,19.7897708 C2.66119051,19.9495581 2.8219665,20.0470294 2.99526584,20.0474109 L4.08597869,20.0474109 L0.293500042,24.1587556 C0.00786992791,24.4661973 -0.0783848054,24.9298186 0.0750271719,25.3330527 C0.228439149,25.7362868 0.591239892,25.9995499 0.993957841,26 Z" id="Path"></path>
                            </g>
                        </g>
                    </g>
                </g>
            </g>
        </symbol>

       <symbol id="icon_bell" width="19px" height="24px" viewBox="0 0 19 24" version="1.1" xmlns="http://www.w3.org/2000/svg" xmlns:xlink="http://www.w3.org/1999/xlink">
    <title>E2FF6855-7331-4CDD-AC0E-2B4C3929C4B4</title>
    <!--defs-->
        <path d="M11.4416096,20.9999962 L7.08140964,20.9999962 C6.957513,21.0002171 6.8534859,21.0957258 6.83960964,21.222 C6.82898493,21.3142625 6.82377554,21.4070965 6.82400209,21.4999962 C6.82400209,22.8807119 7.91531556,23.9999962 9.26150964,23.9999962 C10.6077037,23.9999962 11.6990172,22.8807119 11.6990172,21.4999962 C11.6992437,21.4070965 11.6940343,21.3142625 11.6834096,21.222 C11.6703864,21.0952763 11.5658478,20.999298 11.4416096,20.9999962 Z M18.4713596,19.276 C17.3554672,17.001124 16.7725611,14.4905544 16.7690096,11.944 L16.7690096,11.176 C16.8238622,8.15115278 15.411659,5.29553783 12.9996596,3.554 C12.3078128,3.0965642 11.5343151,2.78453427 10.7240096,2.636 L10.7240096,1.5 C10.7240096,0.671572875 10.0692261,0 9.26150964,0 C8.45379319,0 7.79900964,0.671572875 7.79900964,1.5 L7.79900964,2.649 C6.78769166,2.84544634 5.83552831,3.28286824 5.01928464,3.926 C2.91160654,5.70689585 1.70969412,8.37554247 1.75400964,11.176 L1.75400964,11.944 C1.75045821,14.4905544 1.16755204,17.001124 0.0516596368,19.276 C-0.0239885439,19.4308343 -0.0161286535,19.6147929 0.0724352096,19.7622466 C0.160999073,19.9097002 0.317653218,19.999648 0.486509637,20 L18.0365096,20 C18.2056474,20 18.3626085,19.9097386 18.4512311,19.7619834 C18.5398537,19.6142282 18.5474718,19.4299179 18.4713596,19.275 L18.4713596,19.276 Z" id="path-1"></path>
    <!--/defs-->
    <g id="---↳--Visits" stroke="none" stroke-width="1" fill="none" fill-rule="evenodd">
        <g id="My-Visits---Create-Reminder---Desktop-1" transform="translate(-299.000000, -436.000000)">
            <g id="Group-15" transform="translate(32.000000, 176.000000)">
                <g id="Group-29" transform="translate(0.000000, 232.000000)">
                    <g id="icon/bell" transform="translate(267.000000, 28.000000)">
                        <mask id="mask-2" fill="white">
                            <use xlink:href="#path-1"></use>
                        </mask>
                        <use id="Mask" fill="#000000" fill-rule="nonzero" xlink:href="#path-1"></use>
                        <g id="color" mask="url(#mask-2)" fill="#009DD6">
                            <g transform="translate(-2.738490, 0.000000)" id="Rectangle">
                                <rect x="0" y="0" width="24" height="24"></rect>
                            </g>
                        </g>
                    </g>
                </g>
            </g>
        </g>
    </g>
</symbol>
</svg>
