<svg width="25" height="24" viewBox="0 0 25 24" fill="none" xmlns="http://www.w3.org/2000/svg">
<mask id="mask0_778_18621" style="mask-type:luminance" maskUnits="userSpaceOnUse" x="0" y="0" width="25" height="24">
<path fill-rule="evenodd" clip-rule="evenodd" d="M12.7825 0C6.20615 0 0.875 5.37258 0.875 12C0.875 18.6274 6.20615 24 12.7825 24C19.3588 24 24.6899 18.6274 24.6899 12C24.6828 5.37555 19.3558 0.00716485 12.7825 0ZM13.0305 5C13.8526 5 14.519 5.67157 14.519 6.5C14.519 7.32843 13.8526 8 13.0305 8C12.2085 8 11.5421 7.32843 11.5421 6.5C11.5421 5.67157 12.2085 5 13.0305 5ZM11.294 18.5H15.2632C15.8112 18.5 16.2555 18.0523 16.2555 17.5C16.2555 16.9477 15.8112 16.5 15.2632 16.5H14.519C14.382 16.5 14.2709 16.3881 14.2709 16.25V11.5C14.2709 10.3954 13.3824 9.5 12.2863 9.5H11.294C10.746 9.5 10.3017 9.94771 10.3017 10.5C10.3017 11.0523 10.746 11.5 11.294 11.5H12.0382C12.1752 11.5 12.2863 11.6119 12.2863 11.75V16.25C12.2863 16.3881 12.1752 16.5 12.0382 16.5H11.294C10.746 16.5 10.3017 16.9477 10.3017 17.5C10.3017 18.0523 10.746 18.5 11.294 18.5Z" fill="white"/>
</mask>
<g mask="url(#mask0_778_18621)">
<rect x="0.875" width="23.8149" height="24" fill="#00BFB3"/>
</g>
</svg>
