<?xml version="1.0" encoding="UTF-8"?>
<svg width="92px" height="96px" viewBox="0 0 92 96" version="1.1" xmlns="http://www.w3.org/2000/svg" xmlns:xlink="http://www.w3.org/1999/xlink">
    <title>undraw_void_-3-ggu</title>
    <g id="---↳--Notifications-(Updates)" stroke="none" stroke-width="1" fill="none" fill-rule="evenodd">
        <g id="Resource-Not-Available---Desktop-(with-suggestions)" transform="translate(-637.000000, -197.000000)" fill-rule="nonzero">
            <g id="undraw_void_-3-ggu" transform="translate(637.000000, 197.000000)">
                <ellipse id="Oval" fill="#3F3D56" cx="35.4895147" cy="89.7303775" rx="35.4895147" ry="6.26962253"></ellipse>
                <circle id="Oval" fill="#3F3D56" cx="57.059317" cy="34.6842421" r="34.6842421"></circle>
                <circle id="Oval" fill="#000000" opacity="0.05" cx="57.059317" cy="34.6842421" r="28.6329485"></circle>
                <circle id="Oval" fill="#000000" opacity="0.05" cx="57.059317" cy="34.6842421" r="23.4672109"></circle>
                <circle id="Oval" fill="#000000" opacity="0.05" cx="57.059317" cy="34.6842421" r="16.8255467"></circle>
                <path d="M22.6822622,37.7882505 C22.6822622,37.7882505 19.955386,45.4639032 21.1673305,48.1907794 C22.379275,50.9176557 24.298189,53.5435358 24.298189,53.5435358 C24.298189,53.5435358 23.5912206,38.2932278 22.6822622,37.7882505 Z" id="Path" fill="#D0CDE1"></path>
                <path d="M22.6822622,37.7882505 C22.6822622,37.7882505 19.955386,45.4639032 21.1673305,48.1907794 C22.379275,50.9176557 24.298189,53.5435358 24.298189,53.5435358 C24.298189,53.5435358 23.5912206,38.2932278 22.6822622,37.7882505 Z" id="Path" fill="#000000" opacity="0.1"></path>
                <path d="M24.6011751,55.5634448 C24.6011751,55.5634448 24.399184,57.4823577 24.298189,57.5833527 C24.197194,57.6843477 24.399184,57.8863388 24.298189,58.189325 C24.197194,58.4923111 24.0961979,58.8962933 24.298189,58.9972883 C24.5001801,59.0982833 23.1872395,67.9858805 23.1872395,67.9858805 C23.1872395,67.9858805 19.955386,72.2276885 21.2683266,78.8933855 L21.6723077,85.6600787 C21.6723077,85.6600787 24.8031663,85.8620698 24.8031663,84.7511192 C24.8031663,84.7511192 24.6011751,83.4381797 24.6011751,82.8322063 C24.6011751,82.2262329 25.1061524,82.2262341 24.8031663,81.9232479 C24.5001801,81.6202618 24.5001801,81.4182707 24.5001801,81.4182707 C24.5001801,81.4182707 25.0051562,81.0142896 24.9041612,80.9132934 C24.8031663,80.8122973 25.8131196,73.6416242 25.8131196,73.6416242 C25.8131196,73.6416242 26.9240691,72.5306747 26.9240691,71.9247013 L26.9240691,71.318729 C26.9240691,71.318729 27.4290464,70.0057895 27.4290464,69.9047934 C27.4290464,69.8037972 30.1559226,63.6430775 30.1559226,63.6430775 L31.2668721,68.0868755 L32.4788178,74.4495875 C32.4788178,74.4495875 33.08479,80.2063262 34.2967345,82.4282286 C34.2967345,82.4282286 36.4176385,89.6998991 36.4176385,89.4979079 C36.4176385,89.2959168 39.9524782,88.7909395 39.8514832,87.8819812 C39.7504882,86.9730228 37.7305792,74.2475999 37.7305792,74.2475999 L38.2355564,55.3614572 L24.6011751,55.5634448 Z" id="Path" fill="#2F2E41"></path>
                <path d="M21.8742989,85.1551014 C21.8742989,85.1551014 19.1474226,90.5078636 20.9653405,90.709849 C22.7832584,90.9118343 23.4902256,90.9118401 24.298189,90.1038767 C24.7399017,89.662164 25.6343986,89.0695224 26.3545861,88.6229976 C27.2253475,88.0918191 27.7155766,87.1093994 27.6164402,86.0942403 C27.5631772,85.6001124 27.3785489,85.1929746 26.9240691,85.1551014 C25.7121246,85.0541065 24.2981901,83.943157 24.2981901,83.943157 L21.8742989,85.1551014 Z" id="Path" fill="#2F2E41"></path>
                <path d="M36.9226158,89.0939222 C36.9226158,89.0939222 34.1957395,94.4466843 36.0136574,94.6486709 C37.8315753,94.8506574 38.5385426,94.8506609 39.3465059,94.0426986 C39.7882187,93.6009847 40.6827155,93.0083443 41.402903,92.5618195 C42.2736644,92.030641 42.7638935,91.0482213 42.6647571,90.0330622 C42.6114941,89.5389343 42.4268658,89.1317965 41.9723872,89.0939222 C40.7604416,88.9929272 39.3465082,87.8819777 39.3465082,87.8819777 L36.9226158,89.0939222 Z" id="Path" fill="#2F2E41"></path>
                <circle id="Oval" fill="#FFB8B8" cx="34.0405854" cy="24.7831299" r="4.24546857"></circle>
                <path d="M31.3113554,26.1780692 C31.3113554,26.1780692 28.2788736,31.7578284 28.0362794,31.7578284 C27.7936853,31.7578284 33.4947394,33.5773155 33.4947394,33.5773155 C33.4947394,33.5773155 35.0716277,28.2401538 35.3142252,27.7549575 L31.3113554,26.1780692 Z" id="Path" fill="#FFB8B8"></path>
                <path d="M35.9631599,32.2840005 C35.9631599,32.2840005 29.903434,28.951152 29.2974583,29.052147 C28.6914826,29.153142 22.227779,34.8088868 22.3287752,37.1317808 C22.4297713,39.4546748 23.2377335,43.2925017 23.2377335,43.2925017 C23.2377335,43.2925017 23.5407197,53.9980156 24.1466919,54.0990106 C24.7526642,54.2000056 24.0456969,56.0179235 24.2476881,56.0179235 C24.4496792,56.0179235 38.3870455,56.0179235 38.4880416,55.7149373 C38.5890377,55.4119512 35.9631599,32.2840005 35.9631599,32.2840005 Z" id="Path" fill="#D0CDE1"></path>
                <path d="M39.3465059,56.2704121 C39.3465059,56.2704121 41.2654188,62.1281469 39.6494921,61.9261557 C38.0335653,61.7241646 37.3265981,56.8763843 37.3265981,56.8763843 L39.3465059,56.2704121 Z" id="Path" fill="#FFB8B8"></path>
                <path d="M34.1957395,31.9305169 C34.1957395,31.9305169 30.4589088,32.7384802 31.0648822,37.7882505 C31.6708556,42.8380208 32.7818039,47.8877922 32.7818039,47.8877922 L36.5186347,56.0684209 L36.9226158,57.5833527 L39.6494921,56.8763843 L37.6295842,45.1609159 C37.6295842,45.1609159 36.9226158,32.6374852 36.0136574,32.233503 C35.4404697,31.9891444 34.8171956,31.8852655 34.1957395,31.9305169 Z" id="Path" fill="#D0CDE1"></path>
                <polygon id="Path" fill="#000000" opacity="0.1" points="31.9233074 47.7363307 36.5691552 56.0178694 32.6549551 47.2913601"></polygon>
                <path d="M38.2672451,23.5330397 L38.2812798,23.208616 L38.9266598,23.3692472 C38.9126655,23.1584643 38.806968,22.9644123 38.6374749,22.8383275 L39.3249258,22.7998896 C38.1592507,21.1434028 36.3668519,20.035683 34.3639288,19.7339452 C32.8769549,19.5184243 31.2212523,19.8302972 30.2015896,20.9338532 C29.7070073,21.4691294 29.39624,22.1498355 29.1751754,22.8442877 C28.7680226,24.1233148 28.6850657,25.6480054 29.5340555,26.6876675 C30.3969166,27.7443152 31.9040878,27.9513002 33.2619983,28.0820707 C33.7397873,28.1280863 34.2404977,28.1708992 34.683255,27.9855208 C34.732534,27.4776703 34.667524,26.9652291 34.4929921,26.4857719 C34.4203122,26.3373494 34.385577,26.1732186 34.391897,26.0080773 C34.452258,25.6041019 34.9911165,25.5023258 35.3959132,25.556906 C35.80071,25.6114863 36.2874467,25.6949884 36.5534351,25.385001 C36.7366473,25.1714784 36.7258405,24.8605385 36.7501137,24.5802173 C36.816199,23.8170881 38.2603278,23.693022 38.2672451,23.5330397 Z" id="Path" fill="#2F2E41"></path>
                <circle id="Oval" fill="#005587" cx="64.3067705" cy="85.6464949" r="4.94667466"></circle>
                <circle id="Oval" fill="#005587" cx="6.21210306" cy="83.9209107" r="4.94667466"></circle>
                <circle id="Oval" fill="#005587" cx="6.21210306" cy="77.3636908" r="3.56620731"></circle>
                <circle id="Oval" fill="#005587" cx="6.21210306" cy="71.8418214" r="2.5308568"></circle>
            </g>
        </g>
    </g>
</svg>