<?xml version="1.0" encoding="UTF-8"?><svg version="1.1" width="106px" height="72px" viewBox="0 0 106.0 72.0" xmlns="http://www.w3.org/2000/svg" xmlns:xlink="http://www.w3.org/1999/xlink"><defs><clipPath id="i0"><path d="M1366,0 L1366,996 L0,996 L0,0 L1366,0 Z"></path></clipPath><clipPath id="i1"><path d="M858,0 C862.418278,-8.11624501e-16 866,3.581722 866,8 L866,240 C866,244.418278 862.418278,248 858,248 L8,248 C3.581722,248 5.41083001e-16,244.418278 0,240 L0,8 C-5.41083001e-16,3.581722 3.581722,8.11624501e-16 8,0 L858,0 Z"></path></clipPath><clipPath id="i2"><path d="M828,0 C832.418278,-8.11624501e-16 836,3.581722 836,8 L836,208 C836,212.418278 832.418278,216 828,216 L8,216 C3.581722,216 5.41083001e-16,212.418278 0,208 L0,8 C-5.41083001e-16,3.581722 3.581722,8.11624501e-16 8,0 L828,0 Z"></path></clipPath><clipPath id="i3"><path d="M7.79932625,0.853935741 C8.18608574,-0.136792283 8.92694515,-0.264088461 9.46467782,0.464965239 C9.57279627,0.611558654 9.74999272,0.686233423 9.84899162,0.836460373 C9.79541264,0.902837622 9.9922328,1.98474072 10.0632682,1.97542295 C10.0178489,2.22967605 9.93586497,2.47601576 9.8198665,2.70677949 C9.49967464,3.34874182 8.99039318,3.8771268 8.3606514,4.22073082 C7.05952594,5.85030241 6.16350704,7.76527149 5.74617893,9.8083741 C5.66970318,10.1849199 5.60991915,10.564186 5.56682685,10.9461721 C5.51468534,11.4121258 5.48863569,11.8806303 5.48879984,12.3494923 C5.49140116,14.2179324 5.89572059,16.0639706 6.67434543,17.762446 C6.59081792,17.3958871 6.57150992,17.0176169 6.61728011,16.6444582 C6.7212039,15.8002508 7.14327412,15.0004604 7.47478433,14.20203 C7.64438268,13.7929928 8.04292853,13.5257229 8.48572906,13.5240777 C8.92852958,13.5224325 9.32905047,13.7867335 9.50168362,14.1944991 C9.5054187,14.2034102 9.50913239,14.2123291 9.51282472,14.2212558 L9.48478688,14.3327192 C9.35858965,14.4493825 9.31874284,14.6324717 9.38504208,14.7910292 C9.45134132,14.9495867 9.60965531,15.049817 9.78133469,15.0419262 C9.89315552,15.4924559 9.94640847,15.9554335 9.93988977,16.4195026 L9.75582415,16.6461954 L9.57181975,16.8726991 C9.56711144,16.8788077 9.5620563,16.884641 9.55667929,16.8901701 C9.31560958,17.1859687 9.07453986,17.4841081 8.83347015,17.779917 C9.12984933,17.8343963 9.43178402,17.852382 9.73253484,17.8334727 C9.72204816,17.8695792 9.71157751,17.9068488 9.69991755,17.9429495 L6.45075254,17.9429495 C6.05640752,17.091769 5.75159031,16.2019101 5.54121283,15.2877124 C3.62262729,15.9439015 1.8301253,15.7301117 1.41278028,13.476792 C0.98505408,13.008403 0.641143556,12.4698842 0.396111756,11.8848224 C0.404251867,11.8836564 0.411242014,11.8824904 0.41939087,11.8813244 L0.430718523,11.8795856 C0.656925482,11.8447098 0.838527092,11.674554 0.888034555,11.4510928 C0.937542019,11.2276316 0.844801605,10.9966957 0.654492141,10.8695414 C0.580476646,10.8205997 0.504829727,10.7743262 0.427551386,10.7307208 C0.292510271,10.6549487 0.152879436,10.5876638 0.0094703303,10.5292571 L0.00553509312,10.5035439 C-0.0270478381,10.2576219 0.0860950519,10.0151519 0.295495809,9.88214579 C0.504896567,9.7491397 0.772464509,9.74979179 0.981214479,9.88381696 C1.94323131,10.4726217 3.20307417,10.7423706 4.09480183,11.4748917 C4.69519193,11.9753258 5.10448516,12.667625 5.25356302,13.4348788 L5.25706101,13.4593327 C5.19805354,12.7693434 5.19493747,12.0757123 5.24774324,11.3852207 C5.34101873,10.2148414 5.58608283,9.06155858 5.97677217,7.95437746 C5.93135224,7.93224248 5.88709103,7.90895317 5.8416711,7.88566531 C3.7841236,7.84343147 2.34312719,6.90329165 3.01058569,4.32205589 C2.94120961,4.05091082 2.89254647,3.77488407 2.86501689,3.49636151 L2.87633434,3.49461252 C3.10254526,3.45974603 3.28415354,3.28959136 3.33366171,3.06612774 C3.38316989,2.84266411 3.29042328,2.61172636 3.1001065,2.48457851 C3.02609198,2.43562513 2.95044506,2.3893516 2.87316575,2.34575792 C2.87417822,2.33607141 2.87521887,2.32638295 2.8762877,2.31669255 C2.98638981,1.3157402 4.26789688,0.971138765 4.89284169,1.76074702 C5.41312086,2.41812256 6.00393551,3.0585416 6.31914655,3.81895331 C6.63016104,4.63487928 6.74302693,5.51298529 6.64846031,6.38104195 C7.03732364,5.60619356 7.50118918,4.87132033 8.03340582,4.1869592 L8.12191951,4.07631199 C7.83892931,3.62329915 7.79460688,3.05073234 7.47207776,2.62758503 C6.96511864,1.96247311 6.97311592,1.27092513 7.79932625,0.853935741 Z"></path></clipPath><clipPath id="i4"><path d="M3.73614333,0 L5.05925752,1.39846669 L0.896505329,4.48252665 L0,3.53500898 L3.73614333,0 Z"></path></clipPath><clipPath id="i5"><path d="M2.58384758,0 L2.83307927,0.233546124 L3.84801046,1.18696956 L4.17493976,1.49354057 L3.49721467,2.13447119 L3.88181415,4.62263129 C3.92061271,4.87479508 3.79094807,5.12289564 3.56176892,5.2350064 C3.33258977,5.34711716 3.05713658,5.29719373 2.88188058,5.11178273 L1.09983612,3.22829368 L1.46329463,2.26880415 L0.672137053,2.77618303 L0,2.06577069 L2.58384758,0 Z"></path></clipPath><clipPath id="i6"><path d="M15.7598728,0.0489351892 C16.5035927,0.15655347 17.2236421,0.389664495 17.8893244,0.738330443 C18.4334535,1.01169222 18.9440637,1.34720236 19.4109334,1.73814449 L19.1266942,4.84115188 C19.1266942,4.84115188 18.6305628,7.17898593 18.9740944,6.98949988 C19.317626,6.80001384 18.7016885,7.6528701 18.8639078,8.39243817 C19.026127,9.13200624 17.478251,14.6471464 18.1793222,14.0758199 C18.6581026,13.6856458 18.2939801,15.4027271 17.7920967,17.151033 L17.6826987,17.5253913 C17.4792121,18.2098171 17.2622375,18.8761757 17.0745292,19.3985926 C16.8603167,20.0005206 16.6401956,20.6097799 16.4186563,21.2146317 L16.2860723,21.5804994 C15.9989152,22.3675337 15.7117565,23.142895 15.436341,23.8745605 C15.3969886,23.9766143 15.3590544,24.0785953 15.3211988,24.1792251 C14.4116897,26.5709267 13.6348331,28.4481631 13.3244041,28.7586635 C13.1773481,28.9057208 11.0427974,30.4512918 8.71222062,32.1261401 L8.24402239,32.4624574 C8.16573067,32.5186722 8.08735385,32.5749366 8.00895827,32.6312036 L7.55667906,32.9556896 C6.27732715,33.8732785 5.02726906,34.7675857 4.09704894,35.4324957 L3.78248953,35.657309 C3.03165768,36.1938514 2.55644667,36.5329184 2.55644667,36.5329184 L0,33.8511417 C0,33.8511417 0.0612031406,33.8336343 0.176356925,33.7986909 C0.389151232,33.7374163 0.78269827,33.6222683 1.29865596,33.4692605 C2.33957345,33.1624742 2.23698683,32.7731093 2.0750671,32.3729935 L2.00970467,32.212544 C1.86180144,31.8376186 1.78813694,31.4616704 2.67018231,31.1430981 C3.22108491,30.9448977 3.58837663,30.7903959 3.67142762,30.7087645 C3.79276702,30.590343 3.92449225,30.4309295 4.05863157,30.2658226 L4.22024733,30.0672206 C4.57071463,29.6407848 4.91594558,29.2713098 5.11582874,29.5792057 C5.27983543,29.8318382 5.75313397,28.9485354 6.22018282,28.0162549 L6.39441689,27.6664768 C6.73983396,26.9708209 7.05954907,26.3240416 7.22044314,26.1846992 C7.43615243,25.9966823 8.14013138,25.1178375 8.74355337,24.3453227 C9.262359,23.6806962 9.7083613,23.0933576 9.7083613,23.0933576 C9.7083613,23.0933576 9.71711501,22.7785153 9.73020915,22.2771457 C9.74921197,21.535304 9.77689564,20.3824019 9.80607323,19.2280773 C9.81625092,18.7922483 9.82642716,18.3579147 9.83668063,17.9454436 C9.84394042,17.6262609 9.85119874,17.3187498 9.85852995,17.0345091 C9.87600374,16.2488285 9.88850502,15.6394864 9.8903249,15.4242794 L9.89055403,15.3788149 C9.89055403,14.8526795 9.89055403,15.2622444 10.3059548,14.9444813 C10.367987,14.8957621 10.4268893,14.8431843 10.4823117,14.7870601 C10.5711239,14.7071296 10.6530422,14.619857 10.7271971,14.5261685 C10.7578045,14.4606249 10.5668581,14.5495117 10.3190547,14.4999802 C10.1848722,14.4730341 10.0607722,14.4094575 9.96051089,14.3162979 C9.43871593,13.8470252 10.0013616,12.4041181 10.0013616,12.4041181 C8.81494003,10.0312764 8.90098034,8.08550571 9.45622336,6.58573726 C9.87144372,5.50951551 10.5304746,4.54418701 11.3815746,3.76554079 C11.7054999,3.45685306 12.0584091,3.18008823 12.4354122,2.93908123 L12.4718495,2.74237621 L12.8726607,0.572146835 C13.0857979,0.455059959 13.3074631,0.354216445 13.5357701,0.270474467 C14.2476801,0.0150353147 15.0115631,-0.0610538382 15.7598728,0.0489351892 Z"></path></clipPath><clipPath id="i7"><path d="M0.476163699,0 L2.3932072,0.178251669 L1.29877402,5.24217317 L0,5.12134681 L0.476163699,0 Z"></path></clipPath><clipPath id="i8"><path d="M0.578656222,0 L0.919688249,0.011671622 L2.31163265,0.0568627197 L2.76048143,0.0714522472 L2.67301714,1.00131673 L4.60277583,2.61765564 C4.74969863,2.74018874 4.82706036,2.92707339 4.80972996,3.11759983 C4.79881756,3.24248402 4.7470979,3.36030314 4.66255646,3.45286601 C4.55248737,3.5772409 4.39430802,3.64836057 4.22822287,3.64814898 C4.2107169,3.64814898 4.19178549,3.64665603 4.17427952,3.64523352 L2.10901895,3.45286892 L1.59306563,3.40475992 L1.23303224,2.44279994 L0.975055578,3.34640327 L0,3.25609395 L0.578656222,0 Z"></path></clipPath><clipPath id="i9"><path d="M2.09059525,0 C2.92424318,0.63986082 3.73461929,1.26662605 4.46920272,1.8467077 C6.23712406,3.24733586 7.56203534,4.36671699 7.74856704,4.72233854 C7.83310759,4.88260909 7.80392854,5.31117537 7.69027306,5.92911692 C7.19616322,8.61822481 5.10464296,14.9233201 3.83958226,18.6137374 C3.26384395,20.3000347 2.86160295,21.4412651 2.86160295,21.4412651 L2.20573009,21.234311 L1.09510121,20.8844553 L0.69137503,20.7562132 L0.20018164,20.6002874 L0.200784194,20.5678004 C0.206886493,20.2356888 0.257396588,17.4131202 0.262878714,14.68576 C0.267220592,13.4687369 0.261384781,12.2692213 0.238112954,11.3189314 C0.211853262,10.2826727 0.166662165,9.5408295 0.0923634291,9.39358022 C-0.215219081,8.79015678 0.299316095,8.72603573 0.842958909,8.57445039 C1.3880257,8.42144254 0.962448742,8.19114663 0.75108278,7.70144863 C0.608322578,7.37493472 0.889573979,6.93917862 1.08926832,6.69137819 C1.14436662,6.62164573 1.20324031,6.55498124 1.26562524,6.49168385 C1.26562524,6.49168385 1.16940724,6.45816146 0.99746798,6.39987914 C1.51627362,5.73525256 1.96227591,5.14791404 1.96227591,5.14791404 C1.96227591,5.14791404 1.97102963,4.83307174 1.98412376,4.33170212 C2.00312659,3.58986036 2.03081025,2.4369583 2.05998785,1.28263372 C2.07016554,0.846804741 2.08034177,0.412471156 2.09059525,0 Z"></path></clipPath><clipPath id="i10"><path d="M1.83750965,0.824207048 C1.84269984,0.873543334 1.84379574,0.923224685 1.8407861,0.972741847 L4.84640949,2.25624569 L4.73172793,4.01050446 L0.804485112,1.80711415 C0.384231818,1.74877702 0.0560662722,1.41456293 0.00541334051,0.993314392 C-0.0206328651,0.757637501 0.0480103691,0.521266546 0.196242205,0.336200816 C0.344474041,0.151135086 0.560152,0.032534326 0.795829048,0.00648953958 C0.803968673,0.0055917225 0.812118015,0.00480467507 0.820277073,0.00412839727 C1.32549597,-0.0431201478 1.77649104,0.32046576 1.83750965,0.824207048 Z"></path></clipPath><clipPath id="i11"><path d="M1.01875129,0 L10.7665276,3.78798935 C10.785459,3.79531909 12.333335,4.37248284 13.4774834,4.48905331 C13.865129,4.52841443 14.2047371,4.51532029 14.4248553,4.41034857 C14.451045,4.39725443 14.4773047,4.38558281 14.5005765,4.37540657 C14.5137421,4.36957076 14.5253423,4.36373495 14.5370139,4.35932166 C14.5720288,4.34330961 14.6055483,4.33021548 14.6346544,4.31854386 C14.8183367,4.24566909 14.9159773,4.23840931 14.9742625,4.28644689 C15.0209475,4.32580218 15.0267833,4.38999464 15.0121953,4.475965 C15.0014969,4.54295136 14.9864005,4.60916081 14.9670042,4.67416395 C14.9332346,4.78884423 14.9074107,4.90571603 14.8897161,5.02394824 C14.8790283,5.0943592 14.8741724,5.16553242 14.875198,5.23674254 C14.8853757,5.73377174 15.2264777,5.77604494 15.6971743,5.83433017 C15.7890504,5.84599888 15.8837745,5.8576705 15.9799911,5.87368254 C16.1781915,5.9057795 16.6110982,6.28908327 17.2713129,7.01348901 C17.3849713,7.13731927 17.5059551,7.27139717 17.6298567,7.41572418 C17.8338915,7.64602009 18.0540097,7.90399966 18.29007,8.18524961 C18.3535142,8.26037109 18.4124051,8.33922265 18.4664269,8.42138133 C18.6608906,8.71010139 18.7988725,9.03306157 18.8730681,9.37316508 C19.0224024,10.072019 18.8943822,10.8015556 18.5160255,11.4078095 C18.1237854,12.0372053 17.4938465,12.4813837 16.7692766,12.6394656 C16.0447068,12.7975475 15.2870033,12.6561159 14.6682512,12.2472918 L12.5373771,10.842246 L12.03743,10.512887 L9.79581976,9.03354391 L3.78514578,4.49929513 L3.4906574,4.276259 L3.14820286,4.01828234 L0,1.64402258 L0.186527327,1.34376981 L0.555312978,0.749100089 L0.639859363,0.612104281 L0.714158098,0.492615905 L0.928440508,0.145749525 L1.01875129,0 Z"></path></clipPath><clipPath id="i12"><path d="M105.191872,0 C105.272367,0 105.337621,0.0652542851 105.337621,0.145749525 C105.337621,0.226244765 105.272367,0.29149905 105.191872,0.29149905 L0.145749525,0.29149905 C0.0652542851,0.29149905 0,0.226244765 0,0.145749525 C0,0.0652542851 0.0652542851,0 0.145749525,0 L105.191872,0 Z"></path></clipPath><clipPath id="i13"><path d="M8.16197341,0 L7.47068341,4.98128152 L0.112518633,5.85534142 L0.27313461,2.53341825 L0,0 L7.28106328,0.00874497151 L8.16197341,0 Z"></path></clipPath><clipPath id="i14"><path d="M4.11253906,0 L5.56619818,0.0845201496 L8.33543916,2.27076303 L10.4941077,4.48791646 C12.9419374,6.23636566 10.6689532,9.28926874 10.6689532,9.28926874 L9.49691129,15.4390504 C9.49691129,15.4390504 1.42738244,20.4002899 0.407135761,19.0885442 C-0.613110915,17.7767985 0.552822613,17.7767985 0.990071189,17.7106952 C1.42731976,17.644592 1.33562291,16.8939368 1.33562291,16.8939368 C1.33562291,16.8939368 1.28163,16.0278056 1.73192461,15.9572264 C2.18221923,15.8866472 2.01038054,15.2990566 2.01038054,15.2990566 L0.178253621,7.11058735 L1.42738244,4.07634312 L1.95555394,1.38181481 L4.11253906,0 Z"></path></clipPath><clipPath id="i15"><path d="M4.17921816,0 L6.35727866,1.09656113 L2.56392719,12.3011142 C2.84913684,12.9183567 2.62761034,13.6513691 2.04828316,14.0073367 C1.46895598,14.3633042 0.714943897,14.2297113 0.293180195,13.6963744 C0.0461720528,13.3881411 -0.0516226115,12.9863292 0.026112254,12.5990583 C0.10384712,12.2117874 0.349126375,11.8788389 0.695950262,11.6898028 L4.17921816,0 Z"></path></clipPath><clipPath id="i16"><path d="M3.9729761,1.13405318 C4.3456161,-0.118850546 4.86889074,-0.0221196831 4.9938869,0.0216396533 L5.0182884,0.0314892949 L5.47577905,0.264257911 L7.78491793,2.33907236 L4.68651331,8.79277389 L3.94383349,10.8211788 C4.17509426,11.0232692 4.01828817,11.7041673 3.42056937,12.2083018 L0,11.7499195 C0.0202482318,11.2716186 0.361887689,10.8677682 0.830216988,10.7685238 C0.846428786,10.0057825 1.43921531,8.15206731 2.10839783,6.25972523 L2.34693759,5.59194947 C3.06718657,3.59409196 3.80711259,1.69172876 3.9729761,1.13405318 Z"></path></clipPath><clipPath id="i17"><path d="M1.69501888,0 L9.68555732,9.12585437 C10.0800224,9.14631994 10.4451623,9.34045776 10.6827253,9.65602929 C10.9202883,9.97160081 11.0058712,10.3761897 10.9164456,10.7609294 C10.7668084,11.4242075 10.1447159,11.8707303 9.46842326,11.8002938 C8.79213059,11.7298574 8.27540279,11.1647255 8.26564359,10.4848448 L0,2.02253555 L1.69501888,0 Z"></path></clipPath><clipPath id="i18"><path d="M2.9159714,0.684809479 C3.71910958,1.57097534 9.1663261,6.53120334 9.91602959,8.01277933 C10.3812217,7.89973773 10.8639076,8.11613421 11.0890028,8.53864361 L8.20303979,10.4311546 C7.44609401,10.2350733 7.01025483,9.68894405 7.13138143,9.4067205 L5.58456796,7.89895186 L0,3.41977746 L1.18482412,0.550426959 L1.49447628,0.145507086 C1.49447628,0.145507086 1.91277742,-0.422099865 2.9159714,0.684809479 Z"></path></clipPath><clipPath id="i19"><path d="M20.4049335,0 C31.6742671,0 40.809867,9.13559992 40.809867,20.4049335 C40.809867,31.6742671 31.6742671,40.809867 20.4049335,40.809867 C9.13559992,40.809867 0,31.6742671 0,20.4049335 C0,9.13559992 9.13559992,0 20.4049335,0 Z"></path></clipPath><clipPath id="i20"><path d="M2.55651177,0 C1.29494718,1.97182612 1.57516663,4.55581196 3.23010049,6.21135942 L3.41032449,6.38296791 C5.36681675,8.15613525 8.39162764,8.0989363 10.2791961,6.21137108 L10.9761091,5.48773489 L10.9391354,5.64459781 L8.50900983,8.16789084 C6.56245484,10.1144425 3.40646919,10.1144425 1.45991421,8.16789084 L1.28831731,7.98765525 C-0.484850601,6.03116374 -0.427651636,3.00635268 1.45991421,1.11878502 Z"></path></clipPath><clipPath id="i21"><path d="M2.92341337,0.865240927 C5.19866394,-0.684395671 8.29934746,-0.0961709126 9.84898627,2.17907816 L9.97658744,2.37607898 C11.3636358,4.63025998 10.745393,7.59930723 8.53514758,9.10467146 L7.24924324,9.99946424 C8.8562167,8.29732526 9.06252113,5.7063914 7.745156,3.77140047 L7.60858681,3.58050942 C6.01900956,1.46427155 3.02982689,0.952189132 0.819583102,2.45755012 L0,3.03861121 L0.0655625089,2.89138961 Z"></path></clipPath><clipPath id="i22"><path d="M10.0238604,0 C11.4625404,-0.000573640881 12.8424582,0.570697303 13.8597426,1.5880139 C14.0304806,1.75875195 14.0304806,2.03557301 13.8597425,2.20631106 C13.6890045,2.3770491 13.4121834,2.37704911 13.2414454,2.20631108 C11.4656273,0.430554269 8.58652046,0.430560142 6.8107096,2.20632419 C6.13490987,4.58877508 4.6747095,6.22347261 2.20963612,6.90055494 C1.05893784,8.0484753 0.608437257,9.72329201 1.02797744,11.293583 C1.44751763,12.8638739 2.67329597,14.0908333 4.24318219,14.5118855 C5.81306841,14.9329377 7.48831818,14.4840501 8.63734614,13.3344578 C8.53771322,12.3570528 8.82330504,11.43829 11.0617131,10.817005 C11.16996,10.7039888 11.3303564,10.6574462 11.4822848,10.6949668 C11.6342133,10.7324874 11.7545021,10.8483486 11.7976913,10.9987638 C11.8408806,11.149179 11.8003832,11.3112073 11.6915041,11.4236145 L9.26137564,13.9469076 C8.24613639,14.9701638 6.86336755,15.5441846 5.42192651,15.5407711 C3.22903263,15.5407711 1.25205227,14.2198307 0.412864356,12.1938625 C-0.426323561,10.1678943 0.0375482297,7.83590061 1.58817327,6.28530538 L6.18924675,1.59107464 C7.20571891,0.572946518 8.58518036,0.000574505377 10.0238604,0 Z"></path></clipPath><clipPath id="i23"><path d="M10.388409,0.184856902 C12.2593871,0.686175992 13.7207917,2.14756891 14.2221258,4.0185431 C14.7234598,5.88951729 14.1885587,7.88582725 12.8189145,9.25548234 L7.79546767,14.2789292 C6.78094487,15.2990274 5.40048021,15.8708518 3.96178585,15.8669602 C2.52305718,15.8708439 1.1425643,15.2989911 0.128032605,14.2788534 C-0.0427054286,14.1080759 -0.0426734455,13.8312229 0.128104041,13.6604848 C0.298881527,13.4897468 0.575734563,13.4897788 0.746472617,13.6605562 C1.59921574,14.5133434 2.75580933,14.992439 3.96180135,14.9924415 C5.16779337,14.9924439 6.32438891,14.513353 7.17713551,13.6605694 C7.65995559,10.752035 9.37375639,9.91332705 11.1218365,9.1323461 L11.6641198,8.88959849 C11.8443645,8.80781539 12.0236513,8.72442254 12.2006552,8.63719245 C13.9764638,6.8613644 13.9764481,3.98219407 12.2006201,2.20638541 C10.4247921,0.430576764 7.54562181,0.430592357 5.76981308,2.20642024 L5.71235924,2.37213779 L5.59663212,2.70202534 C5.07108691,4.17751404 4.46027094,5.49216751 2.92043755,5.05579431 C2.74969588,5.22654162 2.47286436,5.22654619 2.30211706,5.05580451 C2.13136975,4.88506284 2.13136518,4.60823132 2.30210685,4.43748401 L5.15148092,1.58810995 C6.52112508,0.218454852 8.51743077,-0.316462187 10.388409,0.184856902 Z"></path></clipPath><clipPath id="i24"><path d="M20.5506867,1.30042302e-05 C25.0489635,-0.00505853012 29.4233772,1.47339047 32.9962634,4.20633842 C33.3125282,4.44823308 33.6229586,4.69895433 33.9246339,4.95835642 C34.083549,5.09392971 34.2394762,5.23242091 34.393978,5.37375714 C34.6723829,5.62881881 34.9448806,5.89121022 35.208696,6.15936749 C36.3914198,7.36513298 37.4226938,8.71062615 38.2796837,10.1660555 C41.8475724,16.2471087 42.0440339,23.7339505 38.7999803,29.9937553 C38.5497332,30.4747238 38.2825258,30.9440451 37.9983579,31.401719 C33.6837019,38.341882 25.6667817,42.0658493 17.5803453,40.8861604 C9.4939089,39.7064715 2.87501503,33.8473602 0.722916877,25.9637955 C0.574249446,25.4172348 0.446011726,24.8604978 0.342529564,24.2964297 C0.340903649,24.2897283 0.33990292,24.2828905 0.339540241,24.2760043 C0.113130285,23.0471731 -0.000521089702,21.800224 1.79601817e-06,20.5507091 C1.79601817e-06,9.21868354 9.22008504,1.30042302e-05 20.5506867,1.30042302e-05 Z M20.5506867,0.291525126 C9.3804241,0.291525126 0.29150146,9.37895118 0.29150146,20.5507091 C0.289658433,25.9243439 2.42350981,31.0784183 6.22324366,34.8781521 C10.0229775,38.677886 15.1770518,40.8117373 20.5506867,40.8098943 C28.1530814,40.7930152 35.110683,36.5354471 38.5856994,29.7737201 C38.8771984,29.2082236 39.1410138,28.6252255 39.378568,28.0305558 C39.6146939,27.4373742 39.8245616,26.8324568 40.0038335,26.2145167 C41.63093,20.6215583 40.7706266,14.598787 37.6427335,9.68503975 C37.2718421,9.1021959 36.8704737,8.53931578 36.4402999,7.99874398 C36.0058394,7.4463092 35.5416712,6.91789893 35.0498494,6.41585167 C31.2401805,2.50305338 26.0117816,0.294620923 20.5506867,0.291525126 Z"></path></clipPath><clipPath id="i25"><path d="M0,0 L1.97723806,0.0167611954 L1.9326387,5.29901549 L0.593054818,5.28764702 L0,0 Z"></path></clipPath><clipPath id="i26"><path d="M2.41077566,0 L2.8699435,0.0306074003 L4.29683135,0.128247922 L4.64661564,0.151518291 L4.90018629,3.54019184 L3.89452914,3.53150954 L3.72401386,2.58122263 L3.25758623,3.52567956 L0.594742404,3.50375883 C0.332538538,3.50185714 0.102044139,3.3296494 0.0258757751,3.07874531 C-0.0502925889,2.82784122 0.0455692802,2.55655968 0.262465551,2.40921487 L2.40209336,0.957549603 L2.41077566,0 Z"></path></clipPath><clipPath id="i27"><path d="M1.88993409,0 L3.44187504,5.0492008 L2.16146546,5.44287027 L0,0.580957607 L1.88993409,0 Z"></path></clipPath><clipPath id="i28"><path d="M3.62625134,0 L4.89003089,3.15261178 L3.92942201,3.44845125 L3.47907784,2.59437944 L3.32023418,3.63647397 L0.774029324,4.41916641 C0.717316434,4.43641091 0.658378759,4.44523445 0.599102201,4.44535469 C0.369569401,4.44504114 0.160335259,4.31378587 0.0601573226,4.10726762 C-0.0400206141,3.90074937 -0.0135801049,3.65517297 0.128262733,3.4747124 L1.73008354,1.44589067 L1.44883359,0.529126161 L1.89632982,0.419814017 L3.28522077,0.0831238692 L3.62625134,0 Z"></path></clipPath><clipPath id="i29"><path d="M3.10715513,0 L10.120013,1.25900626 L10.33935,3.50527316 C12.911268,7.28583075 13.2785219,14.1285946 13.2785219,14.1285946 C13.2785219,14.1285946 13.366043,15.8587887 13.3934264,16.5604327 C13.4208098,17.2620768 13.5706141,16.9839386 14.0776476,17.0313086 C14.584681,17.0786787 14.388903,17.3930808 13.8747715,18.1163847 C13.6810718,18.3888911 15.938302,24.2810037 15.4846421,25.1916249 C15.2074054,25.7481156 15.36302,25.9686278 15.5555608,26.1636224 L15.6618655,26.2693183 C15.7495383,26.3583995 15.8299673,26.453871 15.8659695,26.5848897 C15.9220121,26.7888386 15.9784364,26.9938989 16.0351316,27.1997553 L16.2059188,27.8193971 L16.3776654,28.4419225 L16.5497055,29.0654387 C17.982748,34.260277 19.3770374,39.3611544 18.9990435,39.4389558 C18.1111666,39.6217111 16.6159528,39.5644228 16.084053,39.5847053 C15.8155751,39.5949296 13.1690625,30.5482405 12.0421592,30.5348899 C10.915256,30.5215392 11.6820297,29.6514612 11.5023205,29.2084818 C11.2872685,28.6784024 11.5658177,26.9044966 10.8620691,27.624986 C10.1583204,28.3454755 7.44821583,19.0383233 7.44821583,19.0383233 C7.44821583,19.0383233 7.02474787,24.2123003 6.65798668,29.4529883 C6.6323027,29.8199856 6.1730853,30.1109847 6.58193458,30.5532077 C6.99078386,30.9954307 6.51947362,31.4768603 6.48964015,31.9317067 C6.22641213,35.9450394 6.04440596,39.5039251 6.1730853,40.1677063 C6.49246332,41.8151933 5.43420662,41.0013542 3.69534337,39.8762072 C2.89546627,39.3586396 2.18458621,32.9474674 1.61028059,26.1664604 L1.5361496,25.2803378 C0.900461313,17.5903013 0.441942584,9.73456065 0.229322011,9.69255039 C-0.179563707,9.61176142 0.0244900005,9.15962308 0.327902617,8.99833082 C0.631315233,8.83703857 -0.177883215,8.63554714 0.466267014,8.02393112 L0.550686596,7.4294188 L3.10715513,0 Z"></path></clipPath><clipPath id="i30"><path d="M9.35229924,0 L11.9856929,3.2679084 L10.6954234,15.2914397 C10.7864963,15.5397557 10.8995751,15.7451973 11.0184116,15.9394163 L11.1385656,16.1310666 C11.5414645,16.7652465 11.9481607,17.3919573 11.7568749,19.1834782 L12.2301134,20.9186365 C12.2301134,20.9186365 11.8614225,21.1214207 12.5387205,22.0501979 C13.2160186,22.9789751 13.3189177,24.9109084 13.3189177,24.9109084 C5.85552181,26.5099541 -0.67303667,26.0769046 0.0557109561,21.5586693 C0.991196996,19.28176 1.97244547,15.8665382 2.95938547,12.305424 C0.36593299,8.17148211 4.0845718,5.55454938 4.0845718,5.55454938 L5.75752129,2.93759042 L5.96209241,0.482722427 L9.35229924,0 Z"></path></clipPath><clipPath id="i31"><path d="M3.15919527,0 L4.83537894,0.530079363 L1.75830622,3.81789715 C1.60134708,4.21208075 1.19846407,4.45099058 0.777299687,4.39963452 C0.54221772,4.3686753 0.329062726,4.24559779 0.184726713,4.05747783 C0.0403907007,3.86935787 -0.0233029788,3.63160539 0.00765765992,3.39652361 L0.0112008309,3.3722228 C0.0859057172,2.87032857 0.546628531,2.51915074 1.05037454,2.58013097 C1.09952271,2.58686621 1.14802872,2.59765989 1.19539532,2.61240137 L3.15919527,0 Z"></path></clipPath><clipPath id="i32"><path d="M12.2181885,0.215569938 C13.260817,-0.223874747 14.4662638,0.0214851137 15.2541628,0.833520232 C15.3095301,0.890382951 15.3619795,0.948668187 15.4100885,1.00844735 C15.8148422,1.49845272 16.0355258,2.11455844 16.0339458,2.75011191 C16.0339458,2.77487767 16.0324419,2.79822092 16.0324419,2.82298668 C16.0154541,3.56452084 15.6970596,4.26712223 15.1506865,4.76875741 L10.8670875,8.73317219 L8.60363819,10.5768789 L7.49884513,11.4775643 L6.88232464,11.9804293 L1.35401892,16.4840751 L1.10628699,16.2319284 L0.842473065,15.9622772 L0.740419248,15.8573784 L0.628192113,15.7422362 L0.120983766,15.2247817 L0,15.1009529 L2.04632333,12.1830474 L2.30287893,11.8171782 L2.53751672,11.4834118 L6.00489793,6.53959957 C6.38031474,5.97949901 6.72009733,5.39631914 7.02222961,4.79352026 C7.22387341,4.40896786 7.37477294,3.99987908 7.47114981,3.57649715 C7.5029667,3.43136772 7.50692694,3.28151551 7.48281997,3.13490815 C7.40994521,2.78362847 7.41286312,2.63204314 7.49299766,2.57233393 C7.57604866,2.51113079 7.69852636,2.57816974 7.86754771,2.67139842 C7.91422837,2.69765957 7.96376571,2.72534324 8.01771053,2.75160439 C8.13589639,2.81546845 8.26176858,2.86394684 8.39226057,2.89585852 C8.78581053,2.98332281 8.94031523,2.78946428 9.07439459,2.4775399 C9.10641867,2.40466513 9.13702024,2.32453204 9.1691172,2.23998566 C9.20263959,2.15401967 9.23616198,2.0651285 9.27551436,1.97474776 C9.38923834,1.70801447 10.3292805,1.1381105 12.071015,0.282614719 C12.1190526,0.259267103 12.168657,0.235923859 12.2181885,0.215569938 Z"></path></clipPath><clipPath id="i33"><path d="M3.78829688,0 C5.88051547,0 7.57659376,1.69607829 7.57659376,3.78829688 C7.57659376,5.88051547 5.88051547,7.57659376 3.78829688,7.57659376 C1.69607829,7.57659376 0,5.88051547 0,3.78829688 C0,1.69607829 1.69607829,0 3.78829688,0 Z"></path></clipPath><clipPath id="i34"><path d="M5.7807664,0.000952952936 C7.38505474,0.0292618832 9.61218765,1.35279875 9.69947995,2.95473906 C9.70656338,3.11516702 9.71835743,3.28974872 9.73015003,3.47612447 C9.84339012,5.26916428 9.70420661,6.92300163 10.9286484,8.23474444 C11.372189,8.70894198 11.3768967,10.9549524 11.2070387,12.110991 C10.7658491,11.6462161 10.4520649,9.8390357 9.8150637,9.77060921 C10.3234871,10.4982603 10.6635815,11.3299506 10.8106787,12.205355 C10.4009466,12.467484 9.9239878,12.6051621 9.43759284,12.6017712 C9.4210765,12.5380152 9.40456016,12.4743139 9.3856958,12.4106097 C9.24475062,11.9173515 9.03507856,11.4463871 8.76284978,11.0115761 C8.80016255,11.4804426 8.73660714,11.9518623 8.57646092,12.394108 C8.31943396,12.2772926 8.04399073,12.206234 7.76252998,12.184131 C7.53323606,12.1841144 7.30707961,12.2374197 7.101929,12.3398352 C6.86365622,11.5494909 6.64423323,10.8228377 6.48852901,10.3014392 C6.48380672,11.6084728 4.56809537,12.7479907 2.47780232,12.5828448 C2.40230407,12.535657 3.15963026,10.386382 3.08649315,10.336833 C2.91898176,10.2259555 2.75619266,10.1056305 2.59340356,9.98766815 L2.90213173,9.51044731 C3.48095178,8.61264131 4.00163853,7.77279861 3.89335377,7.62842059 C3.90278523,7.83839755 3.15254537,8.84814881 2.3362533,9.80128074 C1.88326377,9.46863368 4.45721788,4.05651074 3.18557805,3.6176939 C3.16433797,3.80879339 2.88358503,3.80879339 2.5415109,3.76869041 C2.451272,3.45338214 2.31704752,3.15236438 2.14279704,2.87451707 C2.16545555,3.15439933 2.13175857,3.4359836 2.04369902,3.70261632 C1.70589569,3.70271176 1.3690371,3.738297 1.03867005,3.8087861 C0.962238079,3.68850858 0.877906646,3.57343708 0.786231874,3.46433042 C0.795265158,3.59730254 0.791315129,3.73083859 0.774437822,3.86304428 C0.437052449,3.93617993 0.158662111,4.02110964 0.118564959,4.08953904 C-0.145670185,3.99280071 0.304940707,3.55634501 0.139805038,3.3298517 C-0.280148899,2.76364103 0.342697122,1.93790293 0.736687238,1.35279875 C1.54590901,0.154309146 3.32242956,-0.260921049 4.57990254,0.458647272 C4.63653643,0.262825497 4.92671936,0.133070525 5.29948543,0.0457796769 C5.45743596,0.0109574286 5.61910186,-0.00410020613 5.7807664,0.000952952936 Z"></path></clipPath><clipPath id="i35"><path d="M0.437248575,0 C0.678734296,0 0.874497151,0.195762855 0.874497151,0.437248575 C0.874497151,0.678734296 0.678734296,0.874497151 0.437248575,0.874497151 C0.195762855,0.874497151 0,0.678734296 0,0.437248575 C0,0.195762855 0.195762855,0 0.437248575,0 Z"></path></clipPath><clipPath id="i36"><path d="M0.437248575,0 C0.678734296,0 0.874497151,0.195762855 0.874497151,0.437248575 C0.874497151,0.678734296 0.678734296,0.874497151 0.437248575,0.874497151 C0.195762855,0.874497151 0,0.678734296 0,0.437248575 C0,0.195762855 0.195762855,0 0.437248575,0 Z"></path></clipPath><clipPath id="i37"><path d="M6.18979036,7.12560001e-05 L6.4086897,0.00818817706 C6.77884248,0.0526548997 7.16251936,0.230660252 7.34715632,0.536764862 C7.48835116,0.761078405 7.49196284,1.04558959 7.35650761,1.27341503 C7.20249175,1.49896885 6.94199824,1.62787593 6.66925487,1.61350697 C7.18552009,1.70301321 7.74548394,1.81475063 8.11078326,2.17802549 C8.37405937,2.44010208 8.37315573,2.85001679 8.58952235,3.12470218 C9.57272824,4.37290694 10.729946,5.36608501 9.47600886,8.11884755 C9.29997113,8.5053097 9.49482512,9.01626527 9.16763056,9.29216912 C8.84043599,9.56807297 8.3177301,9.53889975 7.85079671,9.49082573 C6.18126797,10.1210161 4.90632983,9.83497971 3.9480471,8.73883397 C2.98843223,8.8600932 1.35060546,9.35463591 0.996327721,8.24411344 C1.01873472,7.83282926 1.12324497,7.4301915 1.3036989,7.05993061 C0.973237806,7.19762901 0.675076447,7.40264197 0.428206275,7.66191113 C0.290470797,7.4953828 0.166409256,7.31800281 0.057231466,7.13150091 L0,7.18778209 C0.127156258,6.29870999 1.06593186,4.66894463 1.39869406,3.8401968 C1.73259602,3.01189204 2.2909231,2.24599578 3.11832567,1.80464873 C3.77853703,1.46461843 4.52663448,1.33367731 5.26308969,1.42924605 C5.10275161,1.40756309 4.94600884,1.36465488 4.7969827,1.30164963 C4.59898559,1.22413759 4.44717871,1.06051505 4.38469665,0.857273898 C4.3552398,0.634802888 4.46691094,0.417403293 4.66490594,0.311766948 C4.86983202,0.202999281 5.0925779,0.131803368 5.32259922,0.101549493 C5.67769888,0.0149129206 6.04401394,-0.0165758515 6.4086897,0.00818817706 Z"></path></clipPath><clipPath id="i38"><path d="M2.95766013,0 C4.59113072,0 5.91532027,1.32418955 5.91532027,2.95766013 C5.91532027,4.59113072 4.59113072,5.91532027 2.95766013,5.91532027 C1.32418955,5.91532027 0,4.59113072 0,2.95766013 C0,1.32418955 1.32418955,0 2.95766013,0 Z"></path></clipPath><clipPath id="i39"><path d="M2.75909898,0.0224102696 C3.09388564,-0.00708506178 3.43845938,-0.0314674998 3.7248572,0.113940971 C4.14945763,0.331421125 4.37894463,0.942938036 4.27314359,1.57852111 L4.32525342,1.46134723 C4.94087193,1.28290035 5.57321517,1.16825905 6.2122973,1.11923375 C6.50186371,1.09832889 6.81567264,1.10255563 6.99759574,1.33823261 C7.22467787,1.62942996 7.16044022,2.15813928 7.04478069,2.61710453 C6.96490918,3.00842338 6.80197622,3.37804048 6.56699043,3.70098253 C6.26159661,4.1073575 5.72702978,4.26728419 5.24863642,4.09539532 C4.84108868,3.9316676 4.54306879,3.54350892 4.29102997,3.13134675 C4.16296604,3.61195975 3.68068854,3.90786999 3.19420358,3.80432478 C2.91734167,3.77911886 2.64199944,3.74665169 2.36817689,3.70692329 C2.41158636,3.3843157 2.50655784,3.0707804 2.6494589,2.77830934 C2.31899737,2.9160056 2.02083578,3.12101772 1.77396628,3.38028694 C1.71453108,3.44225672 1.65762026,3.50781777 1.60411561,3.57471681 C1.45909046,3.54711476 1.31538726,3.5160978 1.1725673,3.48281007 C0.719611299,3.37864872 0.229548926,3.21164016 0.0580542044,2.69335485 C-0.0898786486,2.24575952 0.0578020577,1.63039045 0.354976595,1.1791849 C0.6328035,0.764376222 1.03201055,0.445540599 1.49797935,0.266300238 C1.90416378,0.123769032 2.32906086,0.041597496 2.75909898,0.0224102696 Z"></path></clipPath><clipPath id="i40"><path d="M1.44915014,0.00290677734 C1.52910259,0.0151109918 1.59843963,0.0647172738 1.63580542,0.136446868 C1.67321452,0.272883212 1.66040304,0.418215412 1.59970181,0.546003034 C1.55730806,0.676032602 1.49421379,0.798371028 1.41285091,0.908302831 C1.27652284,1.08806932 1.09084389,1.22429516 0.878445705,1.30037634 C0.632592722,1.38966742 0.364505313,1.39732839 0.113954466,1.32222274 C0.0463212249,1.29416382 0.00164128411,1.22880983 4.42119415e-05,1.15560459 C-0.00155286023,1.08239935 0.0402343537,1.01515896 0.10657954,0.984177119 L0.524443428,0.813135678 L0.570697241,0.799704263 L0.605,0.798 L0.608,0.798 L0.618065268,0.798726397 L0.662,0.808 C0.666714095,0.806355593 0.70432895,0.81271264 0.684661509,0.813240618 C0.697689293,0.812485513 0.710634148,0.810672736 0.72336821,0.807820193 L0.737,0.803 L0.777590261,0.787737922 C0.804417025,0.773681906 0.828434989,0.754556071 0.848242031,0.731275458 C0.917716107,0.645360985 0.972218255,0.548355114 1.00945995,0.44433108 C1.05647371,0.306863392 1.13202468,0.180890802 1.23115518,0.0746796767 C1.28821887,0.0173641195 1.36919769,-0.0092974371 1.44915014,0.00290677734 Z"></path></clipPath></defs><g transform="translate(-527.0 -394.0)"><g clip-path="url(#i0)"><g transform="translate(465.0 306.0)"><g transform="translate(0.0 40.0)"><g clip-path="url(#i1)"><g transform="translate(15.0 16.0)"><g clip-path="url(#i2)"><g transform="translate(46.999999999999766 32.0)"><g transform="translate(26.81800783844582 53.926652764332815)"><g clip-path="url(#i3)"><polygon points="2.77555756e-16,5.60662627e-15 10.0632682,5.60662627e-15 10.0632682,17.9429495 2.77555756e-16,17.9429495 2.77555756e-16,5.60662627e-15" stroke="none" fill="#F2F2F2"></polygon></g></g><g transform="translate(11.6077836819128 60.51916706948244)"><g clip-path="url(#i4)"><polygon points="0,0 5.05925752,0 5.05925752,4.48252665 0,4.48252665 0,0" stroke="none" fill="#A06169"></polygon></g></g><g transform="translate(9.228862847422116 63.39131887202971)"><g clip-path="url(#i5)"><polygon points="0,0 4.17493976,0 4.17493976,5.29433178 0,5.29433178 0,0" stroke="none" fill="#2F2E41"></polygon></g></g><g transform="translate(11.899596093689768 27.816942599484)"><g clip-path="url(#i6)"><polygon points="0,-2.10942375e-15 19.4109334,-2.10942375e-15 19.4109334,36.5329184 0,36.5329184 0,-2.10942375e-15" stroke="none" fill="#2F2E41"></polygon></g></g><g transform="translate(20.1163494610583 63.767340986951986)"><g clip-path="url(#i7)"><polygon points="0,0 2.3932072,0 2.3932072,5.24217317 0,5.24217317 0,0" stroke="none" fill="#A06169"></polygon></g></g><g transform="translate(19.25410838773437 68.25592644066845)"><g clip-path="url(#i8)"><polygon points="0,0 4.81212841,0 4.81212841,3.64814945 0,3.64814945 0,0" stroke="none" fill="#2F2E41"></polygon></g></g><g transform="translate(19.645666904534828 45.76239056446872)"><g clip-path="url(#i9)"><polygon points="3.37230244e-15,0 7.79732451,0 7.79732451,21.4412651 3.37230244e-15,21.4412651 3.37230244e-15,0" stroke="none" fill="#2F2E41"></polygon></g></g><g transform="translate(69.96772833493128 4.206989153487777)"><g clip-path="url(#i10)"><polygon points="-6.33174069e-16,3.58220398e-16 4.84640949,3.58220398e-16 4.84640949,4.01050446 -6.33174069e-16,4.01050446 -6.33174069e-16,3.58220398e-16" stroke="none" fill="#FFB6B6"></polygon></g></g><g transform="translate(72.36379243171339 5.666754495802191)"><g clip-path="url(#i11)"><polygon points="0,0 18.9339098,0 18.9339098,12.7026451 0,12.7026451 0,0" stroke="none" fill="#E6E6E6"></polygon></g></g><g transform="translate(0.0 71.70850094970211)"><g clip-path="url(#i12)"><polygon points="0,0 105.337621,0 105.337621,0.29149905 0,0.29149905 0,0" stroke="none" fill="#E6E6E6"></polygon></g></g><g transform="translate(24.036282939939355 24.30973803957751)"><g clip-path="url(#i13)"><polygon points="0,0 8.16197341,0 8.16197341,5.85534142 0,5.85534142 0,0" stroke="none" fill="#FFB6B6"></polygon></g></g><g transform="translate(21.9597656407271 13.856338694187702)"><g clip-path="url(#i14)"><polygon points="1.11022302e-15,0 11.6292889,0 11.6292889,19.309348 1.11022302e-15,19.309348 1.11022302e-15,0" stroke="none" fill="#E6E6E6"></polygon></g></g><g transform="translate(17.9129920223824 21.02232980743312)"><g clip-path="url(#i15)"><polygon points="-3.66373598e-15,0 6.35727866,0 6.35727866,14.2060066 -3.66373598e-15,14.2060066 -3.66373598e-15,0" stroke="none" fill="#A06169"></polygon></g></g><g transform="translate(19.39406874174437 15.09693151285449)"><g clip-path="url(#i16)"><polygon points="0,-7.49400542e-16 7.78491793,-7.49400542e-16 7.78491793,12.2083018 0,12.2083018 0,-7.49400542e-16" stroke="none" fill="#E6E6E6"></polygon></g></g><g transform="translate(31.77624734318337 20.11533488491696)"><g clip-path="url(#i17)"><polygon points="0,0 10.9511106,0 10.9511106,11.8075895 0,11.8075895 0,0" stroke="none" fill="#A06169"></polygon></g></g><g transform="translate(27.128485918061244 15.75356804526034)"><g clip-path="url(#i18)"><polygon points="0,-1.0269563e-15 11.0890028,-1.0269563e-15 11.0890028,10.4311546 0,10.4311546 0,-1.0269563e-15" stroke="none" fill="#E6E6E6"></polygon></g></g><g transform="translate(38.01540556604458 0.14547972908111717)"><g clip-path="url(#i19)"><polygon points="0,0 40.809867,0 40.809867,40.809867 0,40.809867 0,0" stroke="none" fill="#005587"></polygon></g></g><g transform="translate(47.17595755611828 21.56087867534426)"><g clip-path="url(#i20)"><polygon points="2.22044605e-15,0 10.9761091,0 10.9761091,9.62780457 2.22044605e-15,9.62780457 2.22044605e-15,0" stroke="none" fill="#000000" opacity="20%"></polygon></g></g><g transform="translate(58.95049423965562 9.725801195639605)"><g clip-path="url(#i21)"><polygon points="0,0 10.714229,0 10.714229,9.99946424 0,9.99946424 0,0" stroke="none" fill="#000000" opacity="20%"></polygon></g></g><g transform="translate(46.7385098253179 16.27151331854803)"><g clip-path="url(#i22)"><polygon points="4.77395901e-15,-4.31597989e-07 13.9877961,-4.31597989e-07 13.9877961,15.5407863 4.77395901e-15,15.5407863 4.77395901e-15,-4.31597989e-07" stroke="none" fill="#FFFFFF"></polygon></g></g><g transform="translate(55.66852936046872 9.304611829579441)"><g clip-path="url(#i23)"><polygon points="1.77635684e-15,1.55431223e-15 14.4069939,1.55431223e-15 14.4069939,15.8669799 1.77635684e-15,15.8669799 1.77635684e-15,1.55431223e-15" stroke="none" fill="#FFFFFF"></polygon></g></g><g transform="translate(37.86925454023941 0.0)"><g clip-path="url(#i24)"><polygon points="-9.47379733e-15,2.66453526e-15 41.1013795,2.66453526e-15 41.1013795,41.1020437 -9.47379733e-15,41.1020437 -9.47379733e-15,2.66453526e-15" stroke="none" fill="#3F3C55"></polygon></g></g><g transform="translate(84.44377688269896 63.63602066479279)"><g clip-path="url(#i25)"><polygon points="0,0 1.97723806,0 1.97723806,5.29901549 0,5.29901549 0,0" stroke="none" fill="#FFB6B6"></polygon></g></g><g transform="translate(82.08517081065486 68.16561128991461)"><g clip-path="url(#i26)"><polygon points="-6.77236045e-15,0 4.90018629,0 4.90018629,3.54019184 -6.77236045e-15,3.54019184 -6.77236045e-15,0" stroke="none" fill="#2F2E41"></polygon></g></g><g transform="translate(97.03886784797082 62.90698153999773)"><g clip-path="url(#i27)"><polygon points="0,0 3.44187504,0 3.44187504,5.44287027 0,5.44287027 0,0" stroke="none" fill="#FFB6B6"></polygon></g></g><g transform="translate(97.00704174596788 67.26044552393908)"><g clip-path="url(#i28)"><polygon points="-5.74540415e-15,0 4.89003089,0 4.89003089,4.44535469 -5.74540415e-15,4.44535469 -5.74540415e-15,0" stroke="none" fill="#2F2E41"></polygon></g></g><g transform="translate(80.57471902525921 24.47366690299829)"><g clip-path="url(#i29)"><polygon points="2.1649349e-15,0 19.061794,0 19.061794,41.1010917 2.1649349e-15,41.1010917 2.1649349e-15,0" stroke="none" fill="#2F2E41"></polygon></g></g><g transform="translate(80.7163570064617 10.2890593088618)"><g clip-path="url(#i30)"><polygon points="-3.08780779e-15,0 13.3189177,0 13.3189177,25.756621 -3.08780779e-15,25.756621 -3.08780779e-15,0" stroke="none" fill="#E6E6E6"></polygon></g></g><g transform="translate(73.78248043476965 27.93270540347235)"><g clip-path="url(#i31)"><polygon points="6.8278716e-15,0 4.83537894,0 4.83537894,4.40654571 6.8278716e-15,4.40654571 6.8278716e-15,0" stroke="none" fill="#FFB6B6"></polygon></g></g><g transform="translate(75.82677199934739 14.031472221262172)"><g clip-path="url(#i32)"><polygon points="0,-2.77555756e-15 16.0339543,-2.77555756e-15 16.0339543,16.4840751 0,16.4840751 0,-2.77555756e-15" stroke="none" fill="#E6E6E6"></polygon></g></g><g transform="translate(84.24505906512042 2.62310942947893)"><g clip-path="url(#i33)"><polygon points="0,0 7.57659376,0 7.57659376,7.57659376 0,7.57659376 0,0" stroke="none" fill="#FFB6B6"></polygon></g></g><g transform="translate(83.23862152103558 1.8938082044967235)"><g clip-path="url(#i34)"><polygon points="2.88657986e-15,3.26128013e-16 11.3105566,3.26128013e-16 11.3105566,12.6018323 2.88657986e-15,12.6018323 2.88657986e-15,3.26128013e-16" stroke="none" fill="#2F2E41"></polygon></g></g><g transform="translate(50.89342113704977 20.18776219644922)"><g clip-path="url(#i35)"><polygon points="0,0 0.874497151,0 0.874497151,0.874497151 0,0.874497151 0,0" stroke="none" fill="#005587"></polygon></g></g><g transform="translate(64.73962602620017 19.89626314615132)"><g clip-path="url(#i36)"><polygon points="0,0 0.874497151,0 0.874497151,0.874497151 0,0.874497151 0,0" stroke="none" fill="#005587"></polygon></g></g><g transform="translate(22.15653965413131 4.146413537822268)"><g clip-path="url(#i37)"><polygon points="0,-1.72258041e-15 10.0240751,-1.72258041e-15 10.0240751,9.82036491 0,9.82036491 0,-1.72258041e-15" stroke="none" fill="#2F2E41"></polygon></g></g><g transform="translate(25.07776386430096 6.7175663047638405)"><g clip-path="url(#i38)"><polygon points="0,0 5.91532027,0 5.91532027,5.91532027 0,5.91532027 0,0" stroke="none" fill="#A06169"></polygon></g></g><g transform="translate(25.13136254114766 5.396023472706789)"><g clip-path="url(#i39)"><polygon points="-1.94289029e-15,6.24500451e-16 7.14979542,6.24500451e-16 7.14979542,4.1637403 -1.94289029e-15,4.1637403 -1.94289029e-15,6.24500451e-16" stroke="none" fill="#2F2E41"></polygon></g></g><g transform="translate(28.741380571241805 4.514910038505439)"><g clip-path="url(#i40)"><polygon points="1.96362566e-15,-2.49800181e-16 1.65682684,-2.49800181e-16 1.65682684,1.37344473 1.96362566e-15,1.37344473 1.96362566e-15,-2.49800181e-16" stroke="none" fill="#2F2E41"></polygon></g></g></g></g></g></g></g></g></g></g></svg>