<?xml version="1.0" encoding="UTF-8"?>
<svg width="101px" height="91px" viewBox="0 0 101 91" version="1.1" xmlns="http://www.w3.org/2000/svg" xmlns:xlink="http://www.w3.org/1999/xlink">
    <title>Group 3</title>
    <g id="---↳--Messages" stroke="none" stroke-width="1" fill="none" fill-rule="evenodd">
        <g id="Messages---Participant-Tablet-03" transform="translate(-334.000000, -494.000000)" fill-rule="nonzero">
            <g id="Group-4" transform="translate(193.000000, 238.000000)">
                <g id="Group" transform="translate(41.000000, 256.000000)">
                    <g id="Group-3" transform="translate(100.000000, 0.000000)">
                        <path d="M100.82131,35 C100.784859,35 100.74928,34.988784 100.719382,34.9678975 L51.3338931,0.517302191 C51.0260853,0.303587545 50.6180216,0.304284654 50.3109434,0.519049731 L1.28118131,34.9675487 C1.20042449,35.0242855 1.08904017,35.0047047 1.03239747,34.9238137 C0.975754777,34.8429228 0.995303136,34.7313535 1.07605996,34.6746167 L50.1058632,0.226117701 C50.5358021,-0.0745071891 51.1070825,-0.0754475858 51.5380055,0.223760222 L100.923492,34.6742625 C100.987521,34.7189535 101.015169,34.8001097 100.99177,34.8746837 C100.968371,34.9492576 100.899344,35 100.821303,35 L100.82131,35 Z" id="Path" fill="#3F3D56"></path>
                        <polygon id="Path" fill="#E6E6E6" points="4 35.3156494 50.8223691 1 98 37.7573633 53.2348616 64 28.9312335 58.5217391"></polygon>
                        <path d="M30.9305686,81 L8.06943142,81 C7.68752423,81.000459 7.33441713,80.8099608 7.14332163,80.5003712 C6.95222612,80.1907815 6.95222612,79.8092185 7.14332163,79.4996288 C7.33441713,79.1900392 7.68752423,78.999541 8.06943142,79 L30.9305686,79 C31.3124758,78.999541 31.6655829,79.1900392 31.8566784,79.4996288 C32.0477739,79.8092185 32.0477739,80.1907815 31.8566784,80.5003712 C31.6655829,80.8099608 31.3124758,81.000459 30.9305686,81 Z" id="Path" fill="#00BFB3"></path>
                        <path d="M15.9658268,76 L8.03417321,76 C7.66485716,76.000459 7.32339169,75.8099608 7.13859644,75.5003712 C6.95380119,75.1907815 6.95380119,74.8092185 7.13859644,74.4996288 C7.32339169,74.1900392 7.66485716,73.999541 8.03417321,74 L15.9658268,74 C16.3351428,73.999541 16.6766083,74.1900392 16.8614036,74.4996288 C17.0461988,74.8092185 17.0461988,75.1907815 16.8614036,75.5003712 C16.6766083,75.8099608 16.3351428,76.000459 15.9658268,76 L15.9658268,76 Z" id="Path" fill="#00BFB3"></path>
                        <path d="M51.4403632,55 C51.2642457,55 51.0897832,54.9659645 50.9267517,54.8992487 L22,42.8793084 L22,5.25489989 C22.0008059,4.56217241 22.56136,4.0008071 23.2530864,4 L78.7469136,4 C79.4386396,4.00080809 79.9991931,4.56217281 80,5.25489989 L80,42.9055717 L79.9456322,42.9288572 L51.9695344,54.8933811 C51.8020018,54.9638821 51.6220861,55 51.4403632,55 L51.4403632,55 Z" id="Path" fill="#FFFFFF"></path>
                        <path d="M51.4390082,55 C51.25179,55 51.0663262,54.9638844 50.8929927,54.8930576 L22,42.892174 L22,5.33982814 C22.0008369,4.6002088 22.5995966,4.0008378 23.3384615,4 L78.6615385,4 C79.4004034,4.0008378 79.9991631,4.6002088 80,5.33982814 L80,42.9176451 L52.0015797,54.8865978 C51.8234975,54.961609 51.6322139,55 51.4390082,55 Z M22.3569159,42.6535185 L51.0290982,54.5627239 C51.2965279,54.6713418 51.5960401,54.6695536 51.8621566,54.5577504 L79.6430858,42.6817799 L79.6430858,5.33982814 C79.6424437,4.79745241 79.2033699,4.35793031 78.6615474,4.3572875 L23.3384705,4.3572875 C22.7966479,4.35793031 22.3575741,4.79745241 22.3569159,5.33982814 L22.3569159,42.6535185 Z" id="Shape" fill="#3F3D56"></path>
                        <path d="M99.7596491,34 L99.7241751,34 L79.3824561,42.7866074 L51.5507863,54.8085885 C51.3311479,54.902047 51.0837892,54.9033367 50.8632102,54.8121734 L22.1491228,42.7615094 L1.30766295,34.0143396 L1.27582491,34 L1.24035088,34 C0.555638946,34.0007685 0,34.5620745 0,35.254717 L0,89.745283 C0,90.4379251 0.55563935,90.9992305 1.24035088,91 L99.7596491,91 C100.444361,90.9992305 101,90.4379251 101,89.745283 L101,35.254717 C101,34.5620745 100.444361,34.0007685 99.7596491,34 L99.7596491,34 Z M100.645614,89.745283 C100.645614,90.2401732 100.248873,90.6415094 99.7596491,90.6415094 L1.24035088,90.6415094 C0.751126999,90.6415094 0.354385965,90.2401732 0.354385965,89.745283 L0.354385965,35.254717 C0.354385965,34.7731538 0.731028058,34.3778062 1.20669484,34.3584906 L22.1491228,43.1486757 L50.7268549,55.14377 C51.0362024,55.2710953 51.3828335,55.2691616 51.6907741,55.1383926 L79.3824561,43.175566 L99.7951232,34.3584906 C100.269868,34.3792273 100.644521,34.7740275 100.645614,35.254717 L100.645614,89.745283 Z" id="Shape" fill="#3F3D56"></path>
                        <path d="M51.0493332,44 C49.9855339,44.0019753 48.9499366,43.6575961 48.0987573,43.0187917 L48.0459905,42.9791289 L36.9342752,34.4621618 C35.5342732,33.3882839 34.8128899,31.6482586 35.0418635,29.8975367 C35.270837,28.1468148 36.4153809,26.6513725 38.0443565,25.9745286 C39.673332,25.2976846 41.5392592,25.5422677 42.9392611,26.6161457 L50.1365893,32.1410811 L67.1450212,9.9349888 C67.9416775,8.89480347 69.1184723,8.214059 70.4165052,8.04252234 C71.7145381,7.87098568 73.0274725,8.22270936 74.0664566,9.02031254 L73.9607088,9.16405521 L74.0692028,9.02240307 C76.2299514,10.6849143 76.6386806,13.7846933 74.982865,15.951565 L54.9768682,42.0712508 C54.0390204,43.2912279 52.5870543,44.004258 51.0493332,44 L51.0493332,44 Z" id="Path" fill="#00BFB3"></path>
                    </g>
                </g>
            </g>
        </g>
    </g>
</svg>