<?xml version="1.0" encoding="UTF-8"?>
<svg width="16px" height="16px" viewBox="0 0 16 16" version="1.1" xmlns="http://www.w3.org/2000/svg" xmlns:xlink="http://www.w3.org/1999/xlink">
    <title>4CF8E1F4-4B97-474A-9B73-C64E08F7F885</title>
    <g id="---↳--Messages" stroke="none" stroke-width="1" fill="none" fill-rule="evenodd">
        <g id="Messages---Participant-Desktop-07" transform="translate(-423.000000, -399.000000)" fill="#595959" fill-rule="nonzero">
            <g id="hyperlink-3-copy" transform="translate(423.000000, 399.000000)">
                <path d="M6.96622828,12.2764464 L5.13010794,14.1118959 C4.3903264,14.8187864 3.22539318,14.8187864 2.48561164,14.1118959 L1.88721217,13.5141672 C1.15724816,12.7840502 1.15724816,11.6004589 1.88721217,10.8703418 L5.77815042,6.97940355 C6.50865083,6.24973276 7.69214631,6.24973276 8.42264672,6.97940355 L9.02171704,7.57780302 C9.28440225,7.84048823 9.71029914,7.84048823 9.97298435,7.57780302 C10.2356696,7.3151178 10.2356696,6.88922092 9.97298435,6.6265357 L9.37391403,6.02813624 C8.11909563,4.77498192 6.08639747,4.77498192 4.83157906,6.02813624 L0.940640814,9.91907448 C0.338360145,10.5213267 0,11.3381731 0,12.1899065 C0,13.0416399 0.338360145,13.8584863 0.940640814,14.4607386 L1.53904028,15.0584672 C2.141145,15.6612823 2.95820069,16 3.81020777,16 C4.66221485,16 5.47927054,15.6612823 6.08137526,15.0584672 L7.91682475,13.2236886 C8.08639279,13.0542404 8.15268059,12.8072003 8.09071816,12.575626 C8.02875574,12.3440517 7.84795666,12.1631247 7.61642619,12.1009986 C7.38489573,12.0388725 7.13780887,12.1049856 6.96824084,12.2744338 L6.96622828,12.2764464 Z" id="Path"></path>
                <path d="M15.0620632,1.53544426 L14.4636638,0.937044797 C13.2075529,-0.312348266 11.1781105,-0.312348266 9.92199965,0.937044797 L7.97317627,2.88251392 C7.71894222,3.14574185 7.72257813,3.56415584 7.98134819,3.8229259 C8.24011826,4.08169597 8.65853224,4.08533187 8.92176018,3.83109783 L10.8672293,1.88562871 C11.5978053,1.15677377 12.7804787,1.15677377 13.5110548,1.88562871 L14.1101251,2.48469903 C14.4610399,2.83525746 14.6582117,3.31093065 14.6582117,3.80694718 C14.6582117,4.30296371 14.4610399,4.7786369 14.1101251,5.12919533 L10.2191868,9.02013358 C9.86934501,9.37211837 9.39320573,9.56948305 8.89693867,9.56821919 L8.89693867,9.56821919 C8.40118895,9.56952635 7.92552989,9.37240203 7.57603222,9.02080443 C7.40873678,8.84215386 7.15742463,8.76879083 6.92029026,8.82938026 C6.68315589,8.88996969 6.49783805,9.07489463 6.43674547,9.31189987 C6.37565288,9.54890511 6.44848237,9.8003724 6.62677746,9.96804663 C7.22758744,10.5718977 8.04511683,10.9101191 8.89693867,10.9072582 L8.89693867,10.9072582 C9.74897809,10.9102236 10.5667546,10.572 11.1677707,9.96804663 L15.058709,6.07710839 C15.6613594,5.47491624 15.9999634,4.65789331 15.9999634,3.8059409 C15.9999634,2.95398849 15.6613594,2.13696556 15.058709,1.53477341 L15.0620632,1.53544426 Z" id="Path"></path>
            </g>
        </g>
    </g>
</svg>