<svg width="25" height="24" viewBox="0 0 25 24" fill="none" xmlns="http://www.w3.org/2000/svg">
<g id="Group 7">
<g id="icon/info">
<path id="icon color" fill-rule="evenodd" clip-rule="evenodd" d="M16.0143 12.3333C18.0363 12.3333 19.681 13.772 19.681 15.5411C19.6724 16.2335 19.4275 16.8976 18.994 17.4132L18.8907 17.5296L19.3916 19.2898C19.423 19.4015 19.3888 19.5223 19.3043 19.5975C19.2339 19.6601 19.1398 19.6812 19.053 19.6567L19.002 19.6366L17.054 18.6109C14.6173 19.2505 12.3477 17.607 12.3477 15.5411C12.3477 13.772 13.9923 12.3333 16.0143 12.3333ZM13.0143 6.33334C16.6904 6.33334 19.681 8.67093 19.681 11.5442C19.6795 11.9117 19.6278 12.2776 19.5271 12.6327C19.5146 12.6769 19.4783 12.7117 19.4315 12.7244C19.3966 12.7343 19.3594 12.7305 19.328 12.7148L19.2988 12.6953C15.0143 9.66668 10.681 13 11.826 16.4632C11.841 16.5087 11.84 16.5581 11.8087 16.596C11.7774 16.634 11.7265 16.6528 11.676 16.6451C11.3803 16.5996 11.0878 16.5375 10.8002 16.459L10.5143 16.3752L7.47432 17.6445C7.37526 17.6855 7.25985 17.6688 7.17861 17.6016C7.11092 17.5457 7.07724 17.4632 7.08575 17.381L7.09599 17.3319L7.88432 14.8666C6.92039 13.9956 6.36721 12.7995 6.34766 11.5442C6.34766 8.67093 9.33821 6.33334 13.0143 6.33334Z" fill="#015FF1"/>
</g>
</g>
</svg>
