<?xml version="1.0" encoding="UTF-8"?>
<svg width="24px" height="24px" viewBox="0 0 24 24" version="1.1" xmlns="http://www.w3.org/2000/svg" xmlns:xlink="http://www.w3.org/1999/xlink">
    <title>Group 15 Copy</title>
    <g id="---↳--Motivational-Messages" stroke="none" stroke-width="1" fill="none" fill-rule="evenodd">
        <g id="Motivational-Messages-color-Mobile---Long-version" transform="translate(-40.000000, -94.000000)" fill-rule="nonzero">
            <g id="Group-45" transform="translate(24.000000, 78.000000)">
                <g id="Group-15-Copy" transform="translate(16.000000, 16.000000)">
                    <path d="M23.2076817,11.8096569 C23.0087924,11.809702 22.8180741,11.7305181 22.6776817,11.5896074 C21.4597734,10.4271844 19.54359,10.4271844 18.3256817,11.5896074 C18.0326946,11.8826603 17.5576687,11.8826603 17.2646817,11.5896074 C16.9716946,11.2965544 16.9716946,10.8214216 17.2646817,10.5283686 C19.052585,8.74154441 21.9497784,8.74154441 23.7376817,10.5283686 C23.9515944,10.7431637 24.0154432,11.0655238 23.899562,11.3456696 C23.7836807,11.6258154 23.5107892,11.8088214 23.2076817,11.8096569 L23.2076817,11.8096569 Z" id="Path" fill="#FFFFFF"></path>
                    <ellipse id="Oval" fill="#00BFB3" cx="20.7616817" cy="14.566277" rx="1" ry="1"></ellipse>
                    <ellipse id="Oval" fill="#00BFB3" cx="9.43468168" cy="3.23672818" rx="1" ry="1"></ellipse>
                    <ellipse id="Oval" fill="#00BFB3" cx="23.1886817" cy="0.809182044" rx="1" ry="1"></ellipse>
                    <ellipse id="Oval" fill="#00BFB3" cx="22.9186817" cy="6.47345636" rx="1" ry="1"></ellipse>
                    <path d="M12.9406817,6.95456685 C12.63754,6.9542979 12.3643659,6.77152836 12.2483947,6.4913839 C12.1324235,6.21123944 12.1964614,5.88881165 12.4106817,5.67427656 C13.6094464,4.47059997 13.6094464,2.52397362 12.4106817,1.32029703 C12.1353228,1.02472078 12.1434478,0.564117189 12.4290599,0.278440843 C12.714672,-0.00723550371 13.1751719,-0.0153623165 13.4706817,0.260058506 C15.2549012,2.04927565 15.2549012,4.94529795 13.4706817,6.73451509 C13.3305417,6.87580235 13.1396592,6.95505443 12.9406817,6.95456685 L12.9406817,6.95456685 Z" id="Path" fill="#FFFFFF"></path>
                    <path d="M16.1766817,8.57293036 C15.87354,8.57266199 15.6003659,8.38989245 15.4843947,8.10974799 C15.3684235,7.82960353 15.4324614,7.50717573 15.6466817,7.29264065 L20.7706817,2.16748763 C21.0650993,1.88333014 21.5328794,1.88761506 21.8220446,2.17711822 C22.1112099,2.46662139 22.1150527,2.93451054 21.8306817,3.22872638 L16.7066817,8.3538794 C16.5661877,8.49451701 16.375449,8.57334943 16.1766817,8.57293036 Z" id="Path" fill="#FFFFFF"></path>
                    <path d="M14.0136817,9.98124551 C11.7866817,7.76474686 8.69168168,6.36143115 7.08368168,7.96779254 C6.93929912,8.10940975 6.81844505,8.27317348 6.72568168,8.45290168 C6.68868168,8.51591585 0.27768168,20.5236173 0.27768168,20.5236173 C-0.21097609,21.441044 -0.0432913429,22.5700838 0.690892718,23.3058125 C1.42507678,24.0415413 2.55354589,24.2113824 3.47168168,23.7243373 L15.4716817,17.3058934 C15.6836767,17.2100857 15.875182,17.0742358 16.0356817,16.9058034 C17.6376817,15.3034429 16.2336817,12.2127475 14.0136817,9.98124551 Z M14.5086817,15.388462 L14.5086817,15.388462 C14.4926817,15.4044656 14.4476817,15.4624786 14.2576817,15.4534766 C13.3496817,15.4534766 11.6576817,14.3702329 10.6436817,13.3530041 C9.12468168,11.832662 8.27068168,9.83021154 8.61568168,9.48413368 C8.68839313,9.43472899 8.77628049,9.41275221 8.86368168,9.42211973 C10.2731542,9.68375275 11.5516047,10.4174839 12.4886817,11.5025878 C14.3876817,13.4160182 14.7376817,15.1584102 14.5086817,15.388462 L14.5086817,15.388462 Z" id="Shape" fill="#FECF33"></path>
                </g>
            </g>
        </g>
    </g>
</svg>