<svg width="83" height="44" viewBox="0 0 83 44" fill="none" xmlns="http://www.w3.org/2000/svg">
<g id="undraw_bibliophile_re_xarc">
<path id="Path" d="M82.9635 38.8069L77.5177 9.7428C77.3258 8.75606 76.4745 8.03297 75.4666 8.00073C75.4226 7.99976 75.3785 7.99976 75.3345 8.00073L71.6247 8.13338L71.2254 8.14801L69.374 8.21434L68.9747 8.22799L67.7838 8.27091L43.7695 9.13025C43.7333 9.1322 43.6961 9.1322 43.6599 9.13122L38.2787 9.01905L36.2873 8.97809L36.2236 8.97711L34.7538 8.9459L21.9462 8.68059L18.5505 8.60938L16.8762 8.57525L16.475 8.56647L14.5657 8.52745L14.1655 8.51867L12.2123 8.47868L11.812 8.4699L9.666 8.42503L9.32937 8.4182L7.41527 8.37821L7.11289 8.37236H7.06886C6.01971 8.37662 5.12625 9.13372 4.95318 10.1652L0.0279835 40.3247C-0.0732447 40.943 0.103042 41.5745 0.510155 42.0518C0.917269 42.5291 1.51414 42.8042 2.14269 42.8041H30.4275C30.8438 42.8053 31.249 42.9385 31.5842 43.1846L32.1205 43.5806C32.4901 43.8517 32.9366 43.9986 33.3955 44H50.0647C50.6336 44.0014 51.1794 43.7759 51.5805 43.3738C51.92 43.0354 52.3732 42.8343 52.8526 42.809L80.9691 41.3323C81.586 41.3001 82.1589 41.0042 82.5409 40.5205C82.923 40.0367 83.077 39.4121 82.9635 38.8069Z" fill="#CCCCCC"/>
<path id="Path_2" d="M78.989 37.9476L75.936 8.13257C75.935 8.11996 75.933 8.10638 75.931 8.09376C75.8739 7.61739 75.6354 7.18016 75.2637 6.87044L68.696 1.47749C68.4104 1.24118 68.0554 1.10142 67.6832 1.07876C64.6783 0.88861 49.4021 0.184296 43.7635 5.00875C43.4172 5.30583 42.9552 5.43654 42.5017 5.36576C42.0474 5.2931 41.6478 5.02885 41.4073 4.64204C40.9278 3.90545 40.2996 3.27405 39.5618 2.78715C39.2305 2.56044 38.8854 2.35405 38.5284 2.16918C38.2124 2.00523 37.8689 1.84613 37.4949 1.69285C37.1731 1.56091 36.8296 1.43382 36.4615 1.31256C34.5531 0.683914 32.002 0.214369 28.5926 0.057209C27.1783 -0.00876016 25.6409 -0.0174874 24.0238 0.030048C22.5475 0.0727343 20.9786 0.161013 19.3615 0.29295L19.3379 0.293921L8.39624 6.87819C7.89922 7.18363 7.57224 7.69731 7.50945 8.2713L7.48681 8.4692L4.01249 39.0681C3.95184 39.5935 4.11386 40.1204 4.46031 40.5242C4.79801 40.9184 5.29413 41.1468 5.81756 41.149H32.7775C33.136 41.1508 33.4833 41.2722 33.7628 41.4934L34.9399 42.4228C35.2466 42.6656 35.6263 42.8013 36.0196 42.8089L47.8736 43H47.9022C48.2015 42.9995 48.4958 42.924 48.7575 42.7808L51.0438 41.5293C51.2524 41.4148 51.4846 41.3485 51.7229 41.3353L77.2735 40.0052C77.7771 39.9787 78.2455 39.7424 78.5619 39.3552C78.8902 38.9615 79.0441 38.4543 78.989 37.9476Z" fill="#E6E6E6"/>
<path id="Path_3" d="M69.9908 32.5699L69.632 27.9719L68.1182 8.58446L67.8932 5.71641C67.7753 4.15553 66.4588 2.93707 64.8514 2.90103C59.3048 2.76241 49.2609 3.00638 44.3323 6.22099C43.1984 6.9713 41.6689 6.78749 40.7565 5.79126C40.0745 5.06247 39.2557 4.46727 38.3442 4.03772C37.6771 3.71206 36.9836 3.44037 36.2708 3.2254C34.1846 2.57666 31.552 2.18252 28.373 2.04297L20.8284 2H20.8156C19.7309 2.00098 18.8335 2.82179 18.765 3.87553L18.4374 8.91715L17.0063 31.0271C16.9521 31.8595 17.251 32.677 17.8332 33.289C18.4153 33.901 19.2297 34.2538 20.0865 34.2653C32.7505 34.4482 38.283 37.0501 40.6953 39.1987C41.7506 40.1412 43.3286 40.2657 44.526 39.5009C48.9049 36.7091 56.1847 35.9329 61.9791 35.8123C63.7535 35.7762 65.3883 35.7998 66.7582 35.8469C67.6488 35.8781 68.5107 35.5383 69.1279 34.9126C69.7451 34.2869 70.059 33.4348 69.9908 32.5699Z" fill="white"/>
<path id="Path_4" d="M7.23447 39C7.22898 39 7.22326 38.9998 7.21776 38.9994C7.15579 38.9957 7.09809 38.971 7.05736 38.9309C7.01663 38.8907 6.9962 38.8383 7.00058 38.7853L9.53211 8.18658C9.53575 8.1333 9.56435 8.08353 9.61144 8.04853C9.65852 8.01354 9.7201 7.99628 9.78224 8.00067C9.84421 8.0044 9.90191 8.02906 9.94264 8.06922C9.98337 8.10938 10.0038 8.16174 9.99942 8.21479L7.4679 38.8135C7.45934 38.9185 7.3574 38.9999 7.23447 39Z" fill="white"/>
<path id="Path_5" d="M10.2345 38C10.229 38 10.2233 37.9998 10.2178 37.9994C10.1558 37.9957 10.0981 37.971 10.0574 37.9309C10.0166 37.8907 9.9962 37.8383 10.0006 37.7853L12.5321 7.18658C12.5358 7.1333 12.5644 7.08353 12.6114 7.04853C12.6585 7.01354 12.7201 6.99628 12.7822 7.00067C12.8442 7.0044 12.9019 7.02906 12.9426 7.06922C12.9834 7.10938 13.0038 7.16174 12.9994 7.21479L10.4679 37.8135C10.4593 37.9185 10.3574 37.9999 10.2345 38Z" fill="white"/>
<path id="Path_6" d="M12.2345 37C12.229 37 12.2233 36.9998 12.2178 36.9994C12.1558 36.9957 12.0981 36.971 12.0574 36.9309C12.0166 36.8907 11.9962 36.8383 12.0006 36.7853L14.5321 6.18658C14.5358 6.1333 14.5644 6.08352 14.6114 6.04853C14.6585 6.01354 14.7201 5.99628 14.7822 6.00067C14.8442 6.0044 14.9019 6.02906 14.9426 6.06922C14.9834 6.10938 15.0038 6.16174 14.9994 6.21479L12.4679 36.8135C12.4593 36.9185 12.3574 36.9999 12.2345 37Z" fill="white"/>
<path id="Path_7" d="M14.2345 36C14.229 36 14.2233 35.9998 14.2178 35.9994C14.1558 35.9957 14.0981 35.971 14.0574 35.9309C14.0166 35.8907 13.9962 35.8383 14.0006 35.7853L16.5321 5.18658C16.5358 5.1333 16.5644 5.08352 16.6114 5.04853C16.6585 5.01354 16.7201 4.99628 16.7822 5.00067C16.8442 5.0044 16.9019 5.02906 16.9426 5.06922C16.9834 5.10938 17.0038 5.16174 16.9994 5.21479L14.4679 35.8135C14.4593 35.9185 14.3574 35.9999 14.2345 36Z" fill="white"/>
<path id="Path_8" d="M76.7655 39C76.771 39 76.7767 38.9998 76.7822 38.9994C76.8442 38.9957 76.9019 38.971 76.9426 38.9309C76.9834 38.8907 77.0038 38.8383 76.9994 38.7853L74.4679 8.18658C74.4642 8.1333 74.4356 8.08353 74.3886 8.04853C74.3415 8.01354 74.2799 7.99628 74.2178 8.00067C74.1558 8.0044 74.0981 8.02906 74.0574 8.06922C74.0166 8.10938 73.9962 8.16174 74.0006 8.21479L76.5321 38.8135C76.5407 38.9185 76.6426 38.9999 76.7655 39Z" fill="white"/>
<path id="Path_9" d="M73.7655 38C73.771 38 73.7767 37.9998 73.7822 37.9994C73.8442 37.9957 73.9019 37.971 73.9426 37.9309C73.9834 37.8907 74.0038 37.8383 73.9994 37.7853L71.4679 7.18658C71.4642 7.1333 71.4356 7.08353 71.3886 7.04853C71.3415 7.01354 71.2799 6.99628 71.2178 7.00067C71.1558 7.0044 71.0981 7.02906 71.0574 7.06922C71.0166 7.10938 70.9962 7.16174 71.0006 7.21479L73.5321 37.8135C73.5407 37.9185 73.6426 37.9999 73.7655 38Z" fill="white"/>
<path id="Path_10" d="M71.7655 36C71.771 36 71.7767 35.9998 71.7822 35.9994C71.8442 35.9957 71.9019 35.971 71.9426 35.9309C71.9834 35.8907 72.0038 35.8383 71.9994 35.7853L69.4679 5.18658C69.4642 5.1333 69.4356 5.08352 69.3886 5.04853C69.3415 5.01354 69.2799 4.99628 69.2178 5.00067C69.1558 5.0044 69.0981 5.02906 69.0574 5.06922C69.0166 5.10938 68.9962 5.16174 69.0006 5.21479L71.5321 35.8135C71.5407 35.9185 71.6426 35.9999 71.7655 36Z" fill="white"/>
<path id="Path_11" d="M22.3653 8.58734C26.8396 7.02987 31.8312 7.4422 36.0699 9.63636C37.2794 10.2592 38.4216 11.0267 39.4756 11.9249C39.7737 12.1802 40.198 11.7235 39.8966 11.4655C36.0034 8.17087 31.1117 6.60578 26.2042 7.08466C24.8466 7.21721 23.5062 7.51101 22.207 7.96085C21.8433 8.08745 21.9987 8.71494 22.3653 8.58734H22.3653Z" fill="#3F3D56"/>
<path id="Path_12" d="M47.4427 11.8998C51.5393 9.54187 56.4449 9.02768 60.899 10.3662C62.1688 10.7468 63.396 11.2812 64.5579 11.9592C64.8907 12.1537 65.1873 11.5996 64.8538 11.4047C60.6088 8.92421 55.5129 8.35319 50.8772 9.73593C49.584 10.1224 48.3331 10.662 47.1467 11.3453C46.8125 11.5377 47.1086 12.0921 47.4427 11.8998H47.4427Z" fill="#3F3D56"/>
<path id="Path_13" d="M47.4427 15.8998C51.5393 13.5419 56.4449 13.0277 60.899 14.3662C62.1688 14.7468 63.396 15.2812 64.5579 15.9592C64.8907 16.1537 65.1873 15.5996 64.8538 15.4047C60.6088 12.9242 55.5129 12.3532 50.8772 13.7359C49.584 14.1224 48.3331 14.662 47.1467 15.3453C46.8125 15.5377 47.1086 16.0921 47.4427 15.8998L47.4427 15.8998Z" fill="#3F3D56"/>
<path id="Path_14" d="M64.998 19.407C65.0043 19.3052 64.947 19.2101 64.8535 19.1669C61.4522 17.4085 57.5957 16.6953 53.7804 17.1191C53.7564 17.121 53.7344 17.1248 53.7086 17.1266H53.7076C53.6841 17.1287 53.6608 17.1322 53.6377 17.137C51.3685 17.3949 49.167 18.0648 47.1445 19.1131C47.0548 19.1658 46.9999 19.2613 47 19.3644V26.5664C47.0015 26.6562 47.0447 26.7403 47.1172 26.7946C47.1897 26.8488 47.2834 26.8671 47.3714 26.8442C47.4613 26.8187 47.5513 26.7941 47.6432 26.7705C49.6879 26.2241 51.7869 25.8999 53.9029 25.8038C53.9479 25.8019 53.9928 25.8 54.0397 25.7981C55.7632 25.725 57.4898 25.7863 59.2035 25.9814C59.2394 25.9834 59.2752 25.9872 59.3107 25.9928C59.3988 26.0022 59.4887 26.0126 59.5768 26.0239C59.6122 26.0277 59.6457 26.0315 59.6782 26.0372C60.0209 26.0797 60.3607 26.1279 60.7014 26.1799C61.1934 26.2574 61.6854 26.3437 62.1773 26.4388C62.208 26.4445 62.2395 26.452 62.2711 26.4577C63.0608 26.6127 63.8466 26.7922 64.6286 26.9907C64.7168 27.0132 64.8106 26.9944 64.883 26.9399C64.9555 26.8853 64.9986 26.8009 64.9999 26.711V19.4183C65.0002 19.4144 64.9996 19.4105 64.998 19.407Z" fill="#3F3D56"/>
<path id="Path_15" d="M53.3967 18.0759C53.1674 17.9947 52.9046 17.978 52.6592 18.029C52.4403 18.0884 52.2634 18.2087 52.1681 18.363C52.083 18.5095 52.0285 18.6643 52.0064 18.8224C51.9934 18.8846 51.9926 18.963 52.0791 18.9921C52.143 19.0088 52.2145 18.9986 52.2648 18.9655C52.3095 18.9337 52.3463 18.8965 52.3736 18.8557C52.6786 18.5126 53.2048 18.3058 53.7689 18.3073L54 18.3738C53.8182 18.2555 53.6153 18.1552 53.3967 18.0759Z" fill="#FF6582"/>
<path id="Path_16" d="M56.5719 19.6421C56.3988 19.3848 56.1938 19.11 55.8728 19.026C55.5009 18.9287 55.119 19.122 54.795 19.3128C53.8315 19.8796 52.8985 20.4978 52 21.1647L52.001 21.1747L54.0866 21.0453C54.5889 21.0142 55.1085 20.9787 55.5524 20.765C55.7118 20.6641 55.8899 20.5971 56.0759 20.5681C56.3089 20.5808 56.5272 20.6871 56.6823 20.8633C57.6435 21.7837 57.9216 23.1913 59 24C58.3138 22.4808 57.5015 21.0229 56.5719 19.6421Z" fill="white"/>
<path id="Path_17" d="M54 25.9925C53.9537 25.995 53.9093 25.9975 53.8649 26C53.5425 25.8493 53.2124 25.7161 52.8784 25.6006C52.6622 25.5252 52.4421 25.4574 52.222 25.3996C51.973 25.3293 51.7221 25.274 51.4711 25.2263C50.9933 25.1358 50.5117 25.083 50.029 25.068C50.019 25.0694 50.0093 25.0633 50.004 25.0522C49.9987 25.0411 49.9987 25.0271 50.004 25.016C50.0093 25.0049 50.019 24.9988 50.029 25.0002C50.0908 25.0002 50.1526 25.0027 50.2124 25.0077C50.6961 25.031 51.1784 25.0922 51.6564 25.1911C51.9055 25.2439 52.1545 25.3067 52.4016 25.377C52.6255 25.4423 52.8494 25.5152 53.0695 25.5956C53.3842 25.7111 53.6943 25.8434 54 25.9925Z" fill="white"/>
<path id="Path_18" d="M59 27C58.9661 26.9935 58.9322 26.9892 58.8963 26.9849C58.7587 26.8616 58.6191 26.7448 58.4736 26.6302C58.2921 26.4874 58.1046 26.3533 57.9132 26.2279C57.4892 25.9487 57.0466 25.7043 56.589 25.4968C55.8656 25.1701 55.1169 24.9138 54.3516 24.7311C53.4786 24.5237 52.595 24.3735 51.7054 24.2812C50.8159 24.1817 49.9225 24.1212 49.0292 24.0606C48.9913 24.0585 48.9893 23.9979 49.0292 24.0001C49.1408 24.0087 49.2525 24.0152 49.3662 24.0238C50.2695 24.0844 51.1729 24.1536 52.0703 24.264C52.96 24.3674 53.8427 24.5336 54.7125 24.7614C55.4551 24.9599 56.1799 25.2299 56.8782 25.5682C57.2798 25.7639 57.6689 25.9886 58.0428 26.2408C58.2801 26.403 58.5094 26.5761 58.7288 26.7599C58.8205 26.8378 58.9123 26.9157 59 27Z" fill="white"/>
<path id="Path_19" d="M59 27C58.9626 26.9931 58.9249 26.9883 58.8871 26.9858C58.844 26.9457 58.7988 26.9079 58.7537 26.8702C58.4376 26.6101 58.1078 26.3728 57.7662 26.1597C57.456 25.9659 57.1373 25.7902 56.8116 25.6334C56.0673 25.2758 55.2964 24.9961 54.5083 24.7978C53.6097 24.5715 52.7 24.4075 51.7842 24.3069C50.8686 24.1983 49.9489 24.1323 49.0292 24.0662C48.9903 24.0614 48.9903 23.9977 49.0292 24.0001C49.1463 24.0095 49.2612 24.0166 49.3762 24.026C50.3061 24.0921 51.2361 24.1676 52.1599 24.288C53.0758 24.4009 53.9844 24.5822 54.8799 24.8309C55.6444 25.0471 56.3905 25.3417 57.1093 25.7113C57.3803 25.8529 57.6451 26.0063 57.9038 26.1739C58.2873 26.416 58.6538 26.6922 59 27Z" fill="white"/>
<path id="Path_20" d="M62 27C61.9671 26.9938 61.9342 26.9856 61.9014 26.9795C61.8644 26.9405 61.8294 26.8995 61.7945 26.8584C61.6178 26.6553 61.4432 26.4501 61.2705 26.2428C60.5904 25.4343 59.9452 24.6012 59.337 23.7517C58.8151 23.0253 58.3199 22.2846 57.8514 21.5295C57.6274 21.1724 57.4116 20.8113 57.2 20.446C57.0356 20.1629 56.8753 19.879 56.7192 19.5945C56.674 19.5124 56.6308 19.4303 56.5877 19.3482C56.487 19.1553 56.3863 18.9604 56.2795 18.7696C56.1633 18.5358 55.9928 18.3331 55.7822 18.1786C55.6769 18.1082 55.5551 18.0665 55.4288 18.0575C55.2506 18.0582 55.0754 18.1033 54.9192 18.1888C53.7696 18.7235 52.6851 19.3878 51.687 20.169C50.7121 20.9262 49.8306 21.7961 49.0609 22.7606C49.0363 22.7894 48.9828 22.7627 49.0055 22.7319C49.0979 22.617 49.1924 22.5021 49.2869 22.3892C50.0267 21.5154 50.8597 20.7248 51.7712 20.0315C51.7733 20.0295 51.7774 20.0274 51.7794 20.0254C51.8595 19.9618 51.9397 19.9002 52.0219 19.8407C52.5308 19.4665 53.0604 19.1212 53.6082 18.8065C53.8877 18.6444 54.1733 18.4905 54.4651 18.3448C54.537 18.3079 54.611 18.2709 54.6849 18.236C54.7589 18.1991 54.8329 18.1643 54.9068 18.1293C55.0533 18.0548 55.2134 18.0108 55.3774 18.0001C55.9486 17.9919 56.2424 18.5664 56.4459 18.9542C56.5096 19.0753 56.5754 19.1964 56.6391 19.3174C56.8856 19.775 57.1425 20.2306 57.4096 20.6799C57.5719 20.959 57.7404 21.236 57.911 21.511C58.1555 21.9029 58.4062 22.2907 58.6671 22.6765C58.6671 22.6771 58.6673 22.6776 58.6677 22.678C58.6681 22.6784 58.6686 22.6786 58.6692 22.6786C58.9712 23.1341 59.2856 23.5814 59.6103 24.0267C60.1671 24.788 60.7507 25.5322 61.361 26.2593C61.5706 26.5096 61.7836 26.7565 62 27Z" fill="white"/>
<path id="Path_21" d="M65 25.9111V26C64.7969 25.7758 64.5898 25.5534 64.3846 25.3311C64.2985 25.2383 64.2123 25.1455 64.1262 25.0527C63.761 24.6622 63.3939 24.2729 63.0247 23.885C62.6534 23.4983 62.2821 23.1116 61.9067 22.7269C61.8165 22.6341 61.7262 22.5413 61.6339 22.4485C61.5601 22.3706 61.4798 22.2981 61.3939 22.232C61.3073 22.164 61.2077 22.1122 61.1006 22.0792C60.9773 22.047 60.8472 22.0457 60.7232 22.0754C60.5816 22.1063 60.4463 22.1547 60.3088 22.1953C60.1673 22.2397 60.0278 22.2822 59.8863 22.3248C59.6032 22.4118 59.3222 22.4988 59.0391 22.5858C59.032 22.5885 59.0241 22.5884 59.0171 22.5855C59.0102 22.5825 59.0048 22.5771 59.0022 22.5703C58.9989 22.5629 58.9993 22.5545 59.0033 22.5474C59.0073 22.5403 59.0144 22.5352 59.0227 22.5336C59.0925 22.5123 59.1642 22.4911 59.2361 22.4698C59.5212 22.3809 59.8042 22.2939 60.0894 22.2069C60.2309 22.1624 60.3724 22.1199 60.514 22.0773C60.6452 22.0303 60.7839 22.0042 60.9242 22C61.1533 22.0155 61.3682 22.1106 61.5273 22.2668C61.6155 22.3441 61.6955 22.4253 61.7755 22.5085C61.8698 22.6051 61.9642 22.7018 62.0586 22.7985C62.438 23.189 62.8147 23.5808 63.1887 23.9739C63.5641 24.3683 63.9361 24.7633 64.3046 25.159C64.3313 25.188 64.3579 25.217 64.3846 25.246C64.5918 25.4664 64.7949 25.6888 65 25.9111Z" fill="white"/>
<path id="Path_22" d="M55 17.7212L54.9436 17.7438C54.6814 17.3384 54.2151 17.0799 53.7012 17.0551C52.867 17.0009 52.1342 17.5099 52.0676 18.1896C52.0405 18.4696 52.129 18.7486 52.3156 18.9717L52.2633 19C52.069 18.7677 51.9768 18.4771 52.005 18.1856C52.0743 17.4777 52.8375 16.9476 53.7062 17.0041C54.2414 17.0299 54.7269 17.2991 55 17.7212Z" fill="#FF6582"/>
<path id="Path_23" d="M51.2325 19.1852C50.833 18.8986 50.3743 18.9468 50 19.3146C50.6735 19.4851 51.3411 19.7139 52 20C51.7272 19.7653 51.5138 19.3975 51.2325 19.1852Z" fill="white"/>
<path id="Path_24" d="M50.0272 19.9792L49.9699 20.0207C49.9893 20.0062 50.0094 19.9926 50.0301 19.9797L50.0272 19.9792Z" fill="white"/>
<path id="Path_25" d="M61.3536 23.1855C61.2877 23.1021 61.1997 23.0379 61.0993 23L61 23.0034C61.7795 24.1941 62.8008 25.2142 64 26C63.1179 25.0618 62.2358 24.1237 61.3536 23.1855Z" fill="white"/>
<path id="Path_26" d="M51.9487 19.9505C51.9166 19.9169 51.8848 19.8833 51.8526 19.8497C51.6055 19.5655 51.308 19.3353 50.977 19.1723C50.8084 19.0973 50.6276 19.0578 50.4448 19.0562C50.2558 19.0609 50.069 19.0992 49.8922 19.1696C49.809 19.2009 49.7276 19.2364 49.6475 19.2742C49.5559 19.3176 49.466 19.3638 49.3765 19.4105C49.2084 19.498 49.0426 19.5893 48.8789 19.6845C48.5532 19.8739 48.2378 20.0778 47.9325 20.2961C47.7743 20.4093 47.6193 20.5262 47.4676 20.6469C47.3265 20.7589 47.1882 20.874 47.0528 20.9921C47.0239 21.0172 46.9806 20.9766 47.0096 20.9514C47.0453 20.9201 47.0814 20.889 47.1174 20.8583C47.2194 20.7716 47.323 20.6865 47.4282 20.6031C47.6201 20.4508 47.817 20.3043 48.0188 20.1637C48.3326 19.9449 48.6572 19.741 48.9927 19.5519C49.1603 19.4575 49.3302 19.367 49.5025 19.2805C49.5545 19.2545 49.6071 19.2289 49.6603 19.2047C49.7819 19.1471 49.9073 19.0991 50.0355 19.061C50.2195 19.0053 50.4119 18.9875 50.6022 19.0086C50.7844 19.0332 50.9613 19.0908 51.1251 19.1788C51.4496 19.3711 51.7423 19.6179 51.9919 19.9096C52.018 19.9372 51.975 19.9781 51.9487 19.9505Z" fill="white"/>
<path id="Path_27" d="M22.3653 12.5873C26.8396 11.0299 31.8312 11.4422 36.0699 13.6364C37.2794 14.2592 38.4216 15.0267 39.4756 15.9249C39.7737 16.1802 40.198 15.7235 39.8966 15.4655C36.0034 12.1709 31.1117 10.6058 26.2042 11.0847C24.8466 11.2172 23.5062 11.511 22.207 11.9608C21.8433 12.0874 21.9987 12.7149 22.3653 12.5873H22.3653Z" fill="#3F3D56"/>
<path id="Path_28" d="M22.3653 16.5873C26.8396 15.0299 31.8312 15.4422 36.0699 17.6364C37.2794 18.2592 38.4216 19.0267 39.4756 19.9249C39.7737 20.1802 40.198 19.7235 39.8966 19.4655C36.0034 16.1709 31.1117 14.6058 26.2042 15.0847C24.8466 15.2172 23.5062 15.511 22.207 15.9608C21.8433 16.0874 21.9987 16.7149 22.3653 16.5873H22.3653Z" fill="#3F3D56"/>
<path id="Path_29" d="M22.3653 20.5873C26.8396 19.0299 31.8312 19.4422 36.0699 21.6364C37.2794 22.2592 38.4216 23.0267 39.4756 23.9249C39.7737 24.1802 40.198 23.7235 39.8966 23.4655C36.0034 20.1709 31.1117 18.6058 26.2042 19.0847C24.8466 19.2172 23.5062 19.511 22.207 19.9608C21.8433 20.0874 21.9987 20.7149 22.3653 20.5873H22.3653Z" fill="#3F3D56"/>
<path id="Path_30" d="M22.3653 24.5873C26.8396 23.0299 31.8312 23.4422 36.0699 25.6364C37.2794 26.2592 38.4216 27.0267 39.4756 27.9249C39.7737 28.1802 40.198 27.7235 39.8966 27.4655C36.0034 24.1709 31.1117 22.6058 26.2042 23.0847C24.8466 23.2172 23.5062 23.511 22.207 23.9608C21.8433 24.0874 21.9987 24.7149 22.3653 24.5873H22.3653Z" fill="#3F3D56"/>
<path id="Path_31" d="M22.3653 28.5873C26.8396 27.0299 31.8312 27.4422 36.0699 29.6364C37.2794 30.2592 38.4216 31.0267 39.4756 31.9249C39.7737 32.1802 40.198 31.7235 39.8966 31.4655C36.0034 28.1709 31.1117 26.6058 26.2042 27.0847C24.8466 27.2172 23.5062 27.511 22.207 27.9608C21.8433 28.0874 21.9987 28.7149 22.3653 28.5873L22.3653 28.5873Z" fill="#3F3D56"/>
<path id="Path_32" d="M38 2.83124V13.6099C38 13.7935 37.6762 13.9469 37.239 13.9883C37.1629 13.9959 37.0829 13.9996 37 13.9996C36.7594 14.0042 36.52 13.9656 36.2933 13.8857C36.2513 13.8696 36.2106 13.8504 36.1714 13.8283C36.0629 13.7652 36 13.6909 36 13.6099V2C36.3562 2.11767 36.6886 2.24099 37 2.36902C37.3619 2.51776 37.6943 2.67215 38 2.83124Z" fill="#B4B4B4"/>
<rect id="Rectangle" x="42.95" y="6" width="0.1" height="36" fill="#E6E6E6"/>
</g>
</svg>
