<svg width="98" height="91" viewBox="0 0 98 91" fill="none" xmlns="http://www.w3.org/2000/svg">
<g id="undraw_add_files_re_v09g">
<path id="Path" d="M56.1139 0.214555L52.5487 1.1382L8.62418 12.5177L5.05893 13.4413C1.45574 14.3792 -0.711842 18.0701 0.213573 21.6921L15.6733 81.9177C16.6068 85.5375 20.2808 87.7151 23.8861 86.7854L23.8953 86.7831L74.9318 73.561L74.9411 73.5587C78.5443 72.6208 80.7118 68.9299 79.7864 65.3079L64.3268 5.0823C63.3932 1.46247 59.7192 -0.715123 56.1139 0.214555Z" fill="#F2F2F2"/>
<path id="Path_2" d="M56.573 2.15259L52.3567 3.24527L9.8132 14.2708L5.59702 15.3635C3.03507 16.0305 1.49386 18.6558 2.15185 21.2319L17.5876 81.3851C18.2513 83.9598 20.8636 85.5086 23.4271 84.8474L23.4363 84.845L74.3938 71.6389L74.403 71.6365C76.965 70.9694 78.5061 68.3442 77.8481 65.7681L62.4124 5.61486C61.7487 3.04022 59.1364 1.49138 56.573 2.15259Z" fill="white"/>
<path id="Path_3" d="M53.1601 21.234L27.4003 27.9638C26.8012 28.1203 26.1903 27.7551 26.0358 27.1482C25.8813 26.5412 26.2417 25.9223 26.8408 25.7658L52.6006 19.036C53.1995 18.8801 53.8098 19.2452 53.9642 19.8518C54.1186 20.4584 53.7588 21.077 53.1601 21.234V21.234Z" fill="#F2F2F2"/>
<path id="Path_4" d="M59.1456 24.197L28.4229 31.9644C27.8141 32.1183 27.1933 31.7592 27.0363 31.1624C26.8793 30.5655 27.2456 29.9569 27.8544 29.803L58.5771 22.0356C59.1859 21.8817 59.8067 22.2408 59.9637 22.8376C60.1207 23.4345 59.7544 24.0431 59.1456 24.197V24.197Z" fill="#F2F2F2"/>
<path id="Path_5" d="M58.1594 38.234L32.4001 44.964C32.0125 45.0653 31.6011 44.9494 31.3207 44.66C31.0404 44.3705 30.9338 43.9516 31.041 43.5609C31.1482 43.1703 31.453 42.8672 31.8406 42.766L57.5999 36.036C57.9875 35.9347 58.3989 36.0506 58.6793 36.34C58.9596 36.6295 59.0662 37.0484 58.959 37.4391C58.8518 37.8297 58.547 38.1328 58.1594 38.234H58.1594Z" fill="#F2F2F2"/>
<path id="Path_6" d="M63.1456 40.1971L32.4227 47.9646C32.0289 48.0642 31.6108 47.9502 31.3259 47.6656C31.041 47.381 30.9327 46.969 31.0416 46.5849C31.1506 46.2007 31.4603 45.9027 31.8542 45.8032L62.5771 38.0356C63.1859 37.8817 63.8067 38.2408 63.9637 38.8377C64.1207 39.4345 63.7544 40.0432 63.1456 40.1971Z" fill="#F2F2F2"/>
<path id="Path_7" d="M62.1592 54.2342L36.3996 60.964C35.8006 61.12 35.1902 60.7548 35.0358 60.1482C34.8813 59.5415 35.2413 58.9228 35.8401 58.766L61.5997 52.0362C62.1988 51.8797 62.8097 52.2449 62.9642 52.8518C63.1187 53.4588 62.7583 54.0777 62.1592 54.2342V54.2342Z" fill="#F2F2F2"/>
<path id="Path_8" d="M68.1456 57.197L37.4236 64.9644C37.0297 65.0643 36.6112 64.9505 36.3261 64.6659C36.041 64.3812 35.9326 63.969 36.0417 63.5846C36.1509 63.2003 36.461 62.9023 36.8551 62.803L67.5771 55.0356C68.1859 54.8817 68.8067 55.2408 68.9637 55.8376C69.1207 56.4345 68.7544 57.0431 68.1456 57.197V57.197Z" fill="#F2F2F2"/>
<path id="Path_9" d="M22.6062 35.5377L13.7002 37.9823C13.4196 38.059 13.1336 37.8794 13.061 37.5809L11.0166 29.1427C10.9446 28.844 11.1133 28.5396 11.3938 28.4623L20.2998 26.0177C20.5804 25.941 20.8664 26.1206 20.939 26.4191L22.9834 34.8573C23.0554 35.156 22.8867 35.4604 22.6062 35.5377Z" fill="#E6E6E6"/>
<path id="Path_10" d="M27.6062 51.5377L18.7002 53.9823C18.4196 54.059 18.1336 53.8794 18.061 53.5809L16.0166 45.1427C15.9446 44.844 16.1133 44.5396 16.3938 44.4623L25.2998 42.0177C25.5804 41.941 25.8664 42.1206 25.939 42.4191L27.9834 50.8573C28.0554 51.156 27.8867 51.4604 27.6062 51.5377V51.5377Z" fill="#E6E6E6"/>
<path id="Path_11" d="M31.6062 68.5377L22.7002 70.9823C22.4196 71.059 22.1336 70.8794 22.061 70.5809L20.0166 62.1427C19.9446 61.844 20.1133 61.5396 20.3938 61.4623L29.2998 59.0177C29.5804 58.941 29.8664 59.1206 29.939 59.4191L31.9834 67.8573C32.0554 68.156 31.8867 68.4604 31.6062 68.5377V68.5377Z" fill="#E6E6E6"/>
<path id="Path_12" d="M91.2788 15H38.7212C35.0109 15.0042 32.0042 18.0448 32 21.7968V84.2033C32.0042 87.9552 35.0109 90.9958 38.7212 91H91.2788C94.9891 90.9958 97.9958 87.9552 98 84.2033V21.7968C97.9958 18.0448 94.9891 15.0042 91.2788 15V15Z" fill="#E6E6E6"/>
<path id="Path_13" d="M91.2237 17H38.7763C36.1397 17.003 34.003 19.1656 34 21.8343V84.1657C34.003 86.8344 36.1397 88.997 38.7763 89H91.2237C93.8604 88.997 95.997 86.8344 96 84.1657V21.8343C95.997 19.1656 93.8604 17.003 91.2237 17Z" fill="white"/>
<path id="Path_14" d="M83.8749 51H57.1277C56.7249 51.0004 56.3526 50.8099 56.1511 50.5003C55.9496 50.1908 55.9496 49.8092 56.1511 49.4997C56.3526 49.1901 56.7249 48.9996 57.1277 49H83.8749C84.4965 49.0006 85 49.4482 85 50C85 50.5518 84.4965 50.9994 83.8749 51V51Z" fill="#E6E6E6"/>
<path id="Path_15" d="M88.8618 55H57.1395C56.7325 55.0004 56.3563 54.8099 56.1527 54.5003C55.9491 54.1908 55.9491 53.8092 56.1527 53.4997C56.3563 53.1901 56.7325 52.9996 57.1395 53H88.8618C89.4904 53 90 53.4477 90 54C90 54.5523 89.4904 55 88.8618 55V55Z" fill="#E6E6E6"/>
<path id="Path_16" d="M83.8737 68H57.1276C56.7249 68.0004 56.3526 67.8099 56.1511 67.5003C55.9496 67.1908 55.9496 66.8092 56.1511 66.4997C56.3526 66.1901 56.7249 65.9996 57.1276 66H83.8737C84.4957 66 85 66.4477 85 67C85 67.5523 84.4957 68 83.8737 68Z" fill="#E6E6E6"/>
<path id="Path_17" d="M88.8606 72H57.1394C56.7325 72.0004 56.3563 71.8099 56.1527 71.5003C55.9491 71.1908 55.9491 70.8092 56.1527 70.4997C56.3563 70.1901 56.7325 69.9996 57.1394 70H88.8606C89.2675 69.9996 89.6437 70.1901 89.8473 70.4997C90.0509 70.8092 90.0509 71.1908 89.8473 71.5003C89.6437 71.8099 89.2675 72.0004 88.8606 72V72Z" fill="#E6E6E6"/>
<path id="Path_18" d="M51.4366 57H41.5634C41.2524 56.9997 41.0003 56.7709 41 56.4886V48.5114C41.0003 48.2291 41.2524 48.0003 41.5634 48H51.4366C51.7476 48.0003 51.9997 48.2291 52 48.5114V56.4886C51.9997 56.7709 51.7476 56.9997 51.4366 57Z" fill="#E6E6E6"/>
<path id="Path_19" d="M51.4366 74H41.5634C41.2524 73.9997 41.0003 73.7709 41 73.4886V65.5114C41.0003 65.2291 41.2524 65.0003 41.5634 65H51.4366C51.7476 65.0003 51.9997 65.2291 52 65.5114V73.4886C51.9997 73.7709 51.7476 73.9997 51.4366 74Z" fill="#E6E6E6"/>
<path id="Path_20" d="M83.8722 32H64.1278C63.5049 32 63 31.5523 63 31C63 30.4477 63.5049 30 64.1278 30H83.8722C84.4951 30 85 30.4477 85 31C85 31.5523 84.4951 32 83.8722 32Z" fill="#005587"/>
<path id="Path_21" d="M88.8575 36H64.1425C63.7343 36 63.3572 35.8094 63.1531 35.5C62.949 35.1906 62.949 34.8094 63.1531 34.5C63.3572 34.1906 63.7343 34 64.1425 34H88.8575C89.4885 34 90 34.4477 90 35C90 35.5523 89.4885 36 88.8575 36V36Z" fill="#005587"/>
<path id="Path_22" d="M59.4672 41H41.5328C41.2387 40.9997 41.0003 40.7623 41 40.4694V26.5306C41.0003 26.2377 41.2387 26.0003 41.5328 26H59.4672C59.7613 26.0003 59.9997 26.2377 60 26.5306V40.4694C59.9997 40.7623 59.7613 40.9997 59.4672 41V41Z" fill="#005587"/>
</g>
</svg>
