<svg width="61" height="54" viewBox="0 0 61 54" fill="none" xmlns="http://www.w3.org/2000/svg">
<g id="Group 3">
<path id="Path" d="M60.8928 21C60.8709 21 60.8496 20.9933 60.8316 20.9807L31.2003 0.310381C31.0157 0.182153 30.7708 0.182571 30.5866 0.31143L1.16871 20.9805C1.12025 21.0146 1.05342 21.0028 1.01944 20.9543C0.985453 20.9058 0.997182 20.8388 1.04564 20.8048L30.4635 0.135671C30.7215 -0.0447043 31.0642 -0.0452686 31.3228 0.134256L60.9541 20.8046C60.9925 20.8314 61.0091 20.8801 60.9951 20.9248C60.981 20.9696 60.9396 21 60.8928 21L60.8928 21Z" fill="#3F3D56"/>
<path id="Path_2" d="M3 21.6983L30.8942 1L59 23.1711L32.3314 39L17.8526 35.6957L3 21.6983V21.6983Z" fill="#E6E6E6"/>
<path id="Path_3" d="M18.4011 47H5.59888C5.38501 47.0002 5.18727 46.905 5.08026 46.7502C4.97325 46.5954 4.97325 46.4046 5.08026 46.2498C5.18727 46.095 5.38501 45.9998 5.59888 46H18.4011C18.615 45.9998 18.8127 46.095 18.9197 46.2498C19.0268 46.4046 19.0268 46.5954 18.9197 46.7502C18.8127 46.905 18.615 47.0002 18.4011 47Z" fill="#00BFB3"/>
<path id="Path_4" d="M10.3795 45H5.6205C5.39891 45.0002 5.19404 44.905 5.08316 44.7502C4.97228 44.5954 4.97228 44.4046 5.08316 44.2498C5.19404 44.095 5.39891 43.9998 5.6205 44H10.3795C10.6011 43.9998 10.806 44.095 10.9168 44.2498C11.0277 44.4046 11.0277 44.5954 10.9168 44.7502C10.806 44.905 10.6011 45.0002 10.3795 45V45Z" fill="#00BFB3"/>
<path id="Path_5" d="M29.7657 33C29.6595 33.0001 29.5542 32.98 29.4558 32.9407L12 25.8702V3.73818C12.0005 3.33069 12.3388 3.00047 12.7562 3H46.2438C46.6612 3.00048 46.9995 3.33069 47 3.73818V25.8856L46.9672 25.8993L30.0851 32.9373C29.984 32.9788 29.8754 33.0001 29.7657 33V33Z" fill="white"/>
<path id="Shape" fill-rule="evenodd" clip-rule="evenodd" d="M29.4354 32.9371C29.54 32.9788 29.6519 33.0001 29.7649 33C29.8815 33.0001 29.9969 32.9774 30.1044 32.9333L47 25.8927V3.78813C46.9995 3.35306 46.6382 3.00049 46.1923 3H12.8077C12.3618 3.00049 12.0005 3.35306 12 3.78813V25.8777L29.4354 32.9371ZM29.5176 32.7428L12.2154 25.7374L12.2154 3.78813C12.2158 3.46909 12.4807 3.21055 12.8077 3.21017H46.1923C46.5193 3.21055 46.7842 3.46909 46.7846 3.78813V25.754L30.0203 32.7399C29.8597 32.8056 29.6789 32.8067 29.5176 32.7428Z" fill="#3F3D56"/>
<path id="Shape_2" fill-rule="evenodd" clip-rule="evenodd" d="M59.2421 20H59.2632C59.6699 20.0005 59.9995 20.3353 60 20.7484V53.2516C59.9995 53.6647 59.6699 53.9995 59.2632 54H0.736842C0.330083 53.9995 0.000451911 53.6647 0 53.2516V20.7484C0.000451332 20.3353 0.330083 20.0005 0.736842 20H0.757916L0.776829 20.0086L13.1579 25.2262L30.2158 32.4143C30.3468 32.4687 30.4938 32.4679 30.6242 32.4121L47.1579 25.2411L59.2421 20ZM59.2632 53.7862C59.5538 53.786 59.7894 53.5468 59.7895 53.2516V20.7484C59.7888 20.4617 59.5663 20.2262 59.2842 20.2138L47.1579 25.4731L30.7074 32.6089C30.5245 32.6869 30.3185 32.688 30.1348 32.6121L13.1579 25.4571L0.716848 20.2138C0.434274 20.2254 0.210923 20.4612 0.210526 20.7484V53.2516C0.210643 53.5468 0.446214 53.786 0.736842 53.7862H59.2632Z" fill="#3F3D56"/>
<path id="Path_6" d="M29.7862 26C29.1375 26.0012 28.5061 25.8003 27.987 25.4276L27.9549 25.4045L21.1794 20.4363C20.3258 19.8098 19.8859 18.7948 20.0255 17.7736C20.1651 16.7523 20.863 15.88 21.8563 15.4851C22.8496 15.0903 23.9874 15.233 24.841 15.8594L29.2296 19.0823L39.6006 6.12874C40.0864 5.52197 40.8039 5.12487 41.5954 5.0248C42.3869 4.92474 43.1875 5.12991 43.821 5.59518L43.7565 5.67903L43.8227 5.5964C45.1402 6.5662 45.3894 8.3744 44.3798 9.63841L32.181 24.8749C31.6092 25.5866 30.7238 26.0025 29.7862 26V26Z" fill="#00BFB3"/>
</g>
</svg>
