<svg width="71" height="60" viewBox="0 0 71 60" fill="none" xmlns="http://www.w3.org/2000/svg">
<g id="illustration">
<path id="Path" d="M36.561 9.64154C36.6716 9.97495 36.9176 10.2399 37.2328 10.3651C37.5479 10.4903 37.8998 10.4629 38.1938 10.2903L48.0711 13.6083L51.3402 10.9224L38.5997 8.58618C38.2831 8.07702 37.6528 7.89632 37.1327 8.16557C36.6126 8.43482 36.367 9.06892 36.561 9.64154Z" fill="#FFB6B6"/>
<path id="Path_2" d="M55.0136 13.0366C55.0136 13.0366 54.9267 12.7892 53.7794 13.3274C52.3552 13.9955 44.7733 13.5489 44.3531 11.1488C44.0772 11.4795 43.6434 11.5512 43.299 11.323L44.4842 8.30276C45.1012 8.07379 45.4364 7.90438 45.4763 8.19608L47.3313 8.0694L54.8439 9.53761L55.0515 12.5483L55.0136 13.0366Z" fill="#F2F2F2"/>
<path id="Path_3" d="M52.5634 10.2233L56.3347 9.89691L59.8703 11.5127L61.8557 38.9691L54.0645 35.3669L50.7217 36.2915L52.5634 10.2233V10.2233Z" fill="#F2F2F2"/>
<path id="Path_4" d="M61.2368 58.1443L59.5604 58.1442L58.7629 52.5773L61.2371 52.5774L61.2368 58.1443V58.1443Z" fill="#FFB6B6"/>
<path id="Path_5" d="M62.4741 59.3815L57.5258 59.3813V59.3234C57.5258 58.3394 58.3881 57.5417 59.4518 57.5416H59.4519L60.3558 56.9072L62.0422 57.5417L62.4742 57.5417L62.4741 59.3815Z" fill="#2F2E41"/>
<path id="Path_6" d="M55.6701 57.2179L54.3522 57.5258L52.5773 52.4131L54.5224 51.9587L55.6701 57.2179V57.2179Z" fill="#FFB6B6"/>
<path id="Path_7" d="M56.2887 58.3385L51.4025 59.3814L51.3885 59.323C51.1514 58.3301 51.8106 57.3435 52.8609 57.1193L52.861 57.1192L53.6006 56.2886L55.4188 56.5733L55.8453 56.4823L56.2887 58.3385Z" fill="#2F2E41"/>
<path id="Path_8" d="M63.2443 24.7422C63.9255 26.7979 63.8535 29.0293 63.0806 31.4242L62.7502 44.9081C63.2964 45.5096 63.3799 50.8917 62.5385 52.6478C61.4149 54.9929 62.4482 55.3064 61.654 56.8622H59.3503L58.2855 49.8138L58.2096 44.1006C57.9037 43.3757 58.1549 40.8247 58.1549 40.8247L58.0664 35.535L53.9126 44.8014C55.7945 46.4131 55.6251 51.6194 55.6562 53.9287L56.2732 56.6536L53.4379 56.9072L52.1866 53.2119L50.7798 50.9347C50.0629 46.8999 49.8504 43.9378 50.4616 42.7278L54.6314 27.2046L63.2443 24.7422Z" fill="#2F2E41"/>
<path id="Path_9" d="M63.5513 23.6113L63.1913 22.846C62.7507 19.944 62.3154 17.2372 62.9068 14.8025C62.9439 12.677 62.326 10.6803 60.6102 9.58991L59.8362 9.09777L59.4444 8.04126L55.8366 8.13495L55.826 9.51993L54.5338 11.7108V11.7199L54.6145 23.6418L54.9713 24.8721L54.433 26.3034L54.7186 27.2165L61.8312 26.0076L62.6583 25.8665C62.7538 25.834 62.846 25.7913 62.9333 25.739C63.2301 25.5638 63.4627 25.2874 63.5937 24.9545C63.6012 24.9353 63.6075 24.9172 63.6139 24.8981C63.6697 24.7427 63.702 24.5788 63.7095 24.4127C63.7224 24.1355 63.6679 23.8595 63.5513 23.6113Z" fill="#3F3D56"/>
<path id="Path_10" opacity="0.2" d="M63.7113 24.9755C63.7043 25.1446 63.6742 25.3112 63.6221 25.4693L62.9865 26.3247C62.9049 26.3779 62.8188 26.4214 62.7296 26.4544L61.9572 26.598L63.0747 24.1649L60.6185 17.9382L63.7113 24.9755Z" fill="black"/>
<path id="Path_11" d="M5.2579 48.8651C4.33911 48.8741 3.42103 48.8125 2.5123 48.6806C1.66617 48.5417 1.23712 48.3445 1.23712 48.0943L1.23744 48.0898L2.81591 36.4279L2.02092 34.2165C1.95319 34.0281 1.98428 33.8194 2.10425 33.6573C2.22422 33.4952 2.41803 33.4 2.62368 33.4021L7.85162 33.4549C8.05341 33.4569 8.24203 33.5525 8.35916 33.7119C8.47629 33.8714 8.50783 34.0755 8.44401 34.2613L7.69986 36.4276L9.27836 48.0898C9.27868 48.7028 6.75128 48.8651 5.2579 48.8651Z" fill="#F2F2F2"/>
<rect id="Rectangle" x="2.47424" y="47.598" width="2.47423" height="0.12" fill="#CCCCCC"/>
<rect id="Rectangle_2" x="2.47424" y="46.3608" width="2.47423" height="0.12" fill="#CCCCCC"/>
<rect id="Rectangle_3" x="2.47424" y="45.7422" width="2.47423" height="0.12" fill="#CCCCCC"/>
<rect id="Rectangle_4" x="2.47424" y="45.1237" width="2.47423" height="0.12" fill="#CCCCCC"/>
<rect id="Rectangle_5" x="2.47424" y="43.8866" width="2.47423" height="0.12" fill="#CCCCCC"/>
<path id="Path_12" d="M26.9074 48.8651C25.9886 48.8741 25.0705 48.8125 24.1618 48.6806C23.3156 48.5417 22.8866 48.3445 22.8866 48.0943L22.8869 48.0898L24.4654 36.4279L23.6704 34.2165C23.6027 34.0281 23.6338 33.8194 23.7537 33.6573C23.8737 33.4952 24.0675 33.4 24.2732 33.4021L29.5011 33.4549C29.7029 33.4569 29.8915 33.5525 30.0086 33.7119C30.1258 33.8714 30.1573 34.0755 30.0935 34.2613L29.3493 36.4276L30.9278 48.0898C30.9281 48.7028 28.4008 48.8651 26.9074 48.8651Z" fill="#F2F2F2"/>
<rect id="Rectangle_6" x="24.1237" y="47.598" width="2.47423" height="0.12" fill="#CCCCCC"/>
<rect id="Rectangle_7" x="24.1237" y="46.3608" width="2.47423" height="0.12" fill="#CCCCCC"/>
<rect id="Rectangle_8" x="24.1237" y="45.7422" width="2.47423" height="0.12" fill="#CCCCCC"/>
<rect id="Rectangle_9" x="24.1237" y="45.1237" width="2.47423" height="0.12" fill="#CCCCCC"/>
<rect id="Rectangle_10" x="24.1237" y="43.8866" width="2.47423" height="0.12" fill="#CCCCCC"/>
<path id="Path_13" d="M17.6291 48.8651C16.7103 48.8741 15.7922 48.8125 14.8835 48.6806C14.0373 48.5417 13.6083 48.3445 13.6083 48.0943L13.6086 48.0898L15.1871 36.4279L14.3921 34.2165C14.3243 34.0281 14.3554 33.8194 14.4754 33.6573C14.5954 33.4952 14.7892 33.4 14.9948 33.4021L20.2228 33.4549C20.4246 33.4569 20.6132 33.5525 20.7303 33.7119C20.8474 33.8714 20.879 34.0755 20.8152 34.2613L20.071 36.4276L21.6495 48.0898C21.6498 48.7028 19.1224 48.8651 17.6291 48.8651Z" fill="#F2F2F2"/>
<rect id="Rectangle_11" x="14.2268" y="47.598" width="2.47423" height="0.12" fill="#CCCCCC"/>
<rect id="Rectangle_12" x="14.2268" y="46.3608" width="2.47423" height="0.12" fill="#CCCCCC"/>
<rect id="Rectangle_13" x="14.2268" y="45.7422" width="2.47423" height="0.12" fill="#CCCCCC"/>
<rect id="Rectangle_14" x="14.2268" y="45.1237" width="2.47423" height="0.12" fill="#CCCCCC"/>
<rect id="Rectangle_15" x="14.2268" y="43.8866" width="2.47423" height="0.12" fill="#CCCCCC"/>
<path id="Shape" fill-rule="evenodd" clip-rule="evenodd" d="M27.9451 50.023H32.4696C32.8026 50.0227 33.1105 50.2071 33.2771 50.5067C33.4437 50.8063 33.4437 51.1755 33.2771 51.4751C33.1105 51.7747 32.8026 51.9591 32.4696 51.9588H0.931504C0.417049 51.9588 0 51.5254 0 50.9909C0 50.4564 0.417049 50.023 0.931504 50.023H4.79059V42.1419H0.931504C0.417048 42.1419 0 41.7086 0 41.174C0 40.6395 0.417048 40.2062 0.931504 40.2062H32.4696C32.984 40.2062 33.4011 40.6395 33.4011 41.174C33.4011 41.7086 32.984 42.1419 32.4696 42.1419H27.9451V50.023ZM6.6536 42.1419V50.023H26.0821V42.1419H6.6536Z" fill="#CCCCCC"/>
<path id="Path_14" d="M31.8561 59.3814C29.396 59.3814 27.1016 59.2274 25.3956 58.9478C23.2911 58.6029 22.2681 58.1018 22.2681 57.4157L22.2692 57.394L25.963 30.1447L24.1137 25.0087C23.9335 24.5181 24.0149 23.973 24.3311 23.552C24.6401 23.1242 25.1495 22.8746 25.6883 22.887L37.9343 23.0106C38.4608 23.0159 38.953 23.2647 39.2586 23.6801C39.5642 24.0955 39.6465 24.6273 39.48 25.1113L37.7489 30.1428L41.4433 57.3945V57.405C41.4437 58.1447 40.2855 58.6699 37.9024 59.0106C35.5614 59.3453 32.8942 59.3814 31.8561 59.3814Z" fill="white"/>
<path id="Shape_2" fill-rule="evenodd" clip-rule="evenodd" d="M25.3956 58.9478C27.1016 59.2274 29.396 59.3814 31.8561 59.3814C32.8942 59.3814 35.5614 59.3453 37.9024 59.0106C40.2855 58.6699 41.4437 58.1447 41.4433 57.405V57.3945L37.7489 30.1428L39.48 25.1113C39.6465 24.6273 39.5642 24.0955 39.2586 23.6801C38.953 23.2647 38.4608 23.0159 37.9343 23.0106L25.6883 22.887C25.1495 22.8746 24.6401 23.1242 24.3311 23.552C24.0149 23.973 23.9335 24.5181 24.1137 25.0087L25.963 30.1447L22.2692 57.394L22.2681 57.4157C22.2681 58.1017 23.2911 58.6029 25.3956 58.9478ZM24.6044 23.7421C24.844 23.41 25.2361 23.2122 25.6544 23.2127C25.6639 23.2127 25.6734 23.2127 25.683 23.213L37.9309 23.3365C38.3498 23.3408 38.7414 23.5388 38.9846 23.8694C39.2278 24.1999 39.2933 24.6231 39.1608 25.0082L37.4052 30.111L41.1067 57.4149C41.0925 57.9307 39.9086 58.3944 37.8533 58.6882C36.2445 58.9182 34.0025 59.0555 31.8561 59.0555C29.4141 59.0555 27.1398 58.903 25.4518 58.6263C22.9744 58.2205 22.6045 57.6935 22.6038 57.4263L26.3018 30.1487L26.307 30.1104L24.4314 24.9013C24.288 24.5109 24.3527 24.0772 24.6044 23.7421Z" fill="#3F3D56"/>
<path id="Path_15" opacity="0.5" d="M39.5876 55.0515H25.9794L28.1366 40.5681L28.1954 40.1689L29.0941 34.1394C29.1489 33.7716 29.5753 34.0572 29.8769 33.8368C31.749 32.4679 33.6436 32.4282 35.5546 33.7476C35.8499 33.9515 36.258 33.7128 36.3131 34.0658L37.2572 40.1136L37.3484 40.6986L39.5876 55.0515Z" fill="#003346"/>
<path id="Path_16" d="M38.3044 56.2886H27.8811C27.3281 56.2886 26.8026 56.0529 26.4413 55.6429C26.0801 55.2329 25.9189 54.6892 25.9999 54.1535L29.0452 33.9841C29.0772 33.7742 29.2215 33.5971 29.4234 33.5201C29.6253 33.443 29.8539 33.4777 30.0225 33.611C31.8786 35.0672 33.9014 35.0344 36.0347 33.514C36.203 33.3935 36.4235 33.3684 36.6156 33.4478C36.8116 33.5266 36.951 33.7004 36.9828 33.9056L40.1838 54.1409C40.2687 54.6783 40.1097 55.2252 39.7484 55.6381C39.3871 56.051 38.8596 56.2886 38.3044 56.2886L38.3044 56.2886Z" fill="#003346"/>
<rect id="Rectangle_16" x="27.8351" y="54.433" width="5.56701" height="0.618557" fill="white"/>
<rect id="Rectangle_17" x="27.8351" y="51.3402" width="5.56701" height="0.618557" fill="white"/>
<rect id="Rectangle_18" x="27.8351" y="50.7217" width="5.56701" height="0.618557" fill="white"/>
<rect id="Rectangle_19" x="27.8351" y="48.2474" width="5.56701" height="0.618557" fill="white"/>
<rect id="Rectangle_20" x="27.8351" y="46.3917" width="5.56701" height="0.618557" fill="white"/>
<path id="Path_17" d="M37.1134 41.2787C36.244 42.2714 35.0406 42.7778 33.8192 42.6649C33.1308 42.5932 32.5031 42.2977 31.8987 41.9252C31.2742 41.5402 30.6698 41.0799 29.9783 40.865C29.3724 40.6769 28.6544 40.6519 28.1341 41.1175C28.0468 41.1953 27.9258 41.1989 27.8351 41.1265L27.8943 40.6608C28.4737 40.1952 29.1777 40.1236 29.8677 40.2829C31.257 40.6053 32.3115 41.927 33.7351 42.1168C34.9825 42.2783 36.217 41.7076 37.02 40.5981L37.0215 40.5964L37.1134 41.2787Z" fill="white"/>
<path id="Path_18" d="M70.5155 59.6907C70.5156 59.7729 70.5017 59.8517 70.477 59.9097C70.4523 59.9678 70.4188 60.0003 70.3839 60H0.131594C0.0589165 60 0 59.8616 0 59.6907C0 59.5199 0.0589165 59.3815 0.131594 59.3815H70.3839C70.4188 59.3812 70.4523 59.4137 70.477 59.4718C70.5017 59.5298 70.5156 59.6086 70.5155 59.6907V59.6907Z" fill="#CCCCCC"/>
<path id="Path_19" d="M56.2747 9.60471L60.046 9.27832L63.5816 10.8941L65.567 38.3505L57.7758 34.7483L54.433 35.6729L56.2747 9.60471V9.60471Z" fill="#F2F2F2"/>
<circle id="Oval" cx="37.1134" cy="8.65982" r="0.618557" fill="#003346"/>
<circle id="Oval_2" cx="36.4948" cy="17.3196" r="0.618557" fill="#003346"/>
<circle id="Oval_3" cx="32.7835" cy="22.268" r="0.618557" fill="#003346"/>
<path id="Path_20" d="M48.866 27.8801V20.3674C48.8663 20.0508 49.099 19.7942 49.3861 19.7938H54.5314C54.8185 19.7942 55.0512 20.0508 55.0515 20.3674V27.8801C55.0512 28.1967 54.8185 28.4533 54.5314 28.4536H49.3861C49.099 28.4533 48.8663 28.1967 48.866 27.8801H48.866Z" fill="#E6E6E6"/>
<path id="Path_21" d="M49.4846 25.3556V20.3504C49.4849 20.0432 49.7097 19.7942 49.9871 19.7938H54.549C54.8264 19.7942 55.0512 20.0432 55.0516 20.3504V27.2784C55.0512 27.5857 54.8264 27.8347 54.549 27.8351H51.723C50.4873 27.8335 49.486 26.7244 49.4846 25.3556H49.4846Z" fill="white"/>
<path id="Path_22" d="M50.7217 22.5773C50.7219 22.4066 50.9186 22.2683 51.1612 22.2681H53.9935C54.2362 22.2681 54.433 22.4065 54.433 22.5773C54.433 22.7482 54.2362 22.8866 53.9935 22.8866H51.1612C50.9186 22.8864 50.7219 22.7481 50.7217 22.5773H50.7217Z" fill="#E6E6E6"/>
<path id="Path_23" d="M50.7217 23.8144C50.7219 23.6437 50.9186 23.5053 51.1612 23.5051H53.9935C54.2362 23.5051 54.433 23.6436 54.433 23.8144C54.433 23.9852 54.2362 24.1237 53.9935 24.1237H51.1612C50.9186 24.1235 50.7219 23.9851 50.7217 23.8144H50.7217Z" fill="#E6E6E6"/>
<path id="Path_24" d="M50.7217 25.6701C50.7219 25.4994 50.9186 25.361 51.1612 25.3608H53.9935C54.2362 25.3608 54.433 25.4993 54.433 25.6701C54.433 25.8409 54.2362 25.9794 53.9935 25.9794H51.1612C50.9186 25.9792 50.7219 25.8409 50.7217 25.6701H50.7217Z" fill="#E6E6E6"/>
<path id="Path_25" d="M53.0513 29.5993C53.3866 29.4683 53.6434 29.2036 53.7524 28.8765C53.8614 28.5494 53.8116 28.1934 53.6162 27.9044L57.8842 24.2398L59.3814 18.7657L56.7242 18.5567L55.9119 22.8524L51.8422 27.5871C51.3392 27.9371 51.1927 28.5874 51.5011 29.1008C51.8096 29.6142 52.4756 29.8283 53.0513 29.5993L53.0513 29.5993Z" fill="#FFB6B6"/>
<path id="Path_26" d="M59.6596 14.2397C59.6596 14.2397 60.1706 14.2478 59.9404 15.3799C59.7561 16.2863 59.057 21.3868 58.499 22.5278C58.7617 22.7704 58.8375 23.1726 58.6831 23.5052L56.3509 22.537C56.1476 21.9709 56.4885 21.795 56.706 21.7442L56.6633 19.9685L56.9976 15.4422L59.2903 14.2268L59.6596 14.2397Z" fill="#F2F2F2"/>
<path id="Path_27" d="M60.5922 5.70529C60.3369 7.57443 58.6219 8.88257 56.7602 8.62814C54.8984 8.37372 53.594 6.65293 53.8455 4.78329L53.8521 4.73476C54.1456 2.89171 55.8571 1.62574 57.6971 1.89069C59.5371 2.15563 60.8253 3.85355 60.5911 5.70515L60.5922 5.70529Z" fill="#FFB8B8"/>
<path id="Path_28" d="M59.27 6.61283C59.4602 6.25457 59.6556 5.86995 59.6021 5.47372C59.5487 5.0775 59.1297 4.69878 58.7182 4.81653C58.4722 4.88695 58.2862 5.11225 58.029 5.12378C57.6751 5.13965 57.4722 4.76407 57.3621 4.45181L56.9135 3.18005C56.0413 3.8104 54.9113 4.04718 53.8316 3.82586C53.4151 3.73755 52.9942 3.56537 52.7499 3.24033C52.5056 2.91529 52.5071 2.41109 52.8422 2.16531C53.0065 2.04479 53.2252 1.999 53.3822 1.8704C53.5823 1.7066 53.643 1.44064 53.5317 1.21573C53.4204 0.990826 53.1634 0.860065 52.899 0.893859L54.0286 0.762946L53.692 0.198494C53.9345 0.375765 54.272 0.399605 54.5759 0.348863C54.8798 0.298121 55.166 0.182087 55.4633 0.104706C56.8906 -0.266774 58.5493 0.379126 59.2627 1.58414C59.8317 1.40792 60.459 1.57589 60.8392 2.00628C61.1416 2.36217 61.2238 2.8371 61.2356 3.29005C61.2576 4.18315 61.0476 5.06806 60.6233 5.8701C60.5016 6.12485 60.3268 6.35479 60.109 6.54667C59.8869 6.73925 59.5845 6.83098 59.2826 6.79727" fill="#2F2E41"/>
</g>
</svg>
