<?xml version="1.0" encoding="UTF-8"?>
<svg width="79px" height="72px" viewBox="0 0 79 72" version="1.1" xmlns="http://www.w3.org/2000/svg" xmlns:xlink="http://www.w3.org/1999/xlink">
    <title>7872E83C-CA94-4BC4-8FF1-64AC203DFFA3</title>
    <g id="---↳--Document-Upload" stroke="none" stroke-width="1" fill="none" fill-rule="evenodd">
        <g id="Upload-Files_Desktop-2" transform="translate(-400.000000, -500.000000)" fill-rule="nonzero">
            <g id="undraw_add_files_re_v09g" transform="translate(400.000000, 500.000000)">
                <path d="M44.4927841,0.169339601 L41.6659043,0.898334882 L6.83811913,9.87972463 L4.01123485,10.6087199 C1.15425638,11.3489136 -0.564420436,14.2620546 0.169342435,17.1206915 L12.4273377,64.6544212 C13.1675215,67.5114031 16.0806589,69.2300891 18.9392982,68.4963325 L18.9465991,68.4944495 L59.4135431,58.0588341 L59.4208441,58.0569511 C62.2778249,57.316764 63.9965071,54.4036243 63.2627465,51.5449862 L51.0047512,4.01125646 C50.2645679,1.15427067 47.3514269,-0.564418222 44.4927841,0.169339601 Z" id="Path" fill="#F2F2F2"></path>
                <path d="M44.8771633,1.65965681 L41.5289135,2.52310332 L7.74376281,11.2356184 L4.39556296,12.0990504 C2.36103562,12.6261479 1.13711624,14.7006648 1.65964631,16.73637 L13.9176416,64.2700998 C14.4447444,66.3046231 16.519262,67.5285353 18.5549634,67.0060009 L18.5622644,67.0041179 L59.0292084,56.5685036 L59.0365615,56.5666072 C61.0710621,56.0394921 62.2949527,53.9649906 61.7724226,51.9293077 L49.5144273,4.3955779 C48.9873369,2.36107183 46.9128527,1.13715509 44.8771633,1.65965681 Z" id="Path" fill="#FFFFFF"></path>
                <path d="M42.3489508,17.0523277 L21.8777065,22.331452 C21.4015824,22.4542347 20.9160726,22.1677949 20.7932899,21.6916708 C20.6705072,21.2155467 20.956947,20.7300368 21.4330711,20.6072541 L41.9043153,15.3281286 C42.3802498,15.2058457 42.8652616,15.4922822 42.9879672,15.9681078 C43.1106729,16.4439334 42.8246673,16.9291995 42.3489508,17.0523277 L42.3489508,17.0523277 Z" id="Path" fill="#F2F2F2"></path>
                <path d="M46.6554297,19.0448493 L22.6280215,25.2410365 C22.1518973,25.3638192 21.6663874,25.0773794 21.5436048,24.6012553 C21.4208221,24.1251311 21.7072619,23.6396212 22.183386,23.5168385 L46.2107942,17.3206514 C46.6869183,17.1978684 47.1724285,17.484308 47.2952115,17.9604321 C47.4179945,18.4365562 47.1315549,18.9220663 46.6554308,19.0448493 L46.6554297,19.0448493 Z" id="Path" fill="#F2F2F2"></path>
                <path d="M45.7115093,30.0915759 L25.240265,35.3707003 C24.9322667,35.4501269 24.6052909,35.3592051 24.3825063,35.1321841 C24.1597216,34.905163 24.0749743,34.5765328 24.160188,34.2700851 C24.2454016,33.9636374 24.4876301,33.725929 24.7956284,33.6465023 L45.2668727,28.367378 C45.574871,28.2879515 45.9018467,28.3788735 46.1246312,28.6058946 C46.3474157,28.8329157 46.4321628,29.161546 46.346949,29.4679936 C46.2617352,29.7744412 46.0195065,30.0121495 45.7115082,30.0915759 L45.7115093,30.0915759 Z" id="Path" fill="#F2F2F2"></path>
                <path d="M50.0179926,32.0840976 L25.9905844,38.2802847 C25.6825861,38.3597114 25.3556103,38.2687895 25.1328256,38.0417685 C24.9100409,37.8147475 24.8252937,37.4861172 24.9105073,37.1796695 C24.9957209,36.8732218 25.2379495,36.6355134 25.5459478,36.5560868 L49.5733561,30.3598996 C50.0494802,30.2371166 50.5349903,30.5235562 50.6577733,30.9996803 C50.7805563,31.4758044 50.4941167,31.9613145 50.0179926,32.0840976 Z" id="Path" fill="#F2F2F2"></path>
                <path d="M49.0740711,43.1308241 L28.6028268,48.4099496 C28.1268502,48.5323438 27.6417275,48.2459068 27.5190044,47.7700148 C27.3962813,47.2941229 27.6823832,46.8088023 28.1581902,46.6857505 L48.6294345,41.4066262 C49.1055587,41.2838432 49.5910688,41.5702828 49.7138518,42.0464069 C49.8366348,42.522531 49.5501952,43.0080411 49.0740711,43.1308241 L49.0740711,43.1308241 Z" id="Path" fill="#F2F2F2"></path>
                <path d="M53.3805534,45.1233413 L29.3531451,51.3195296 C29.0450348,51.3992768 28.7177887,51.3084883 28.4948048,51.0813985 C28.271821,50.8543087 28.1870178,50.5254606 28.272373,50.2188565 C28.3577282,49.9122525 28.6002582,49.6745303 28.9085096,49.5953305 L52.9359179,43.3991434 C53.412042,43.2763604 53.8975521,43.5628 54.0203351,44.0389241 C54.1431181,44.5150482 53.8566785,45.0005583 53.3805545,45.1233413 L53.3805534,45.1233413 Z" id="Path" fill="#F2F2F2"></path>
                <path d="M18.3829586,27.7444199 L11.1383802,29.612653 C10.9101173,29.6712503 10.6774991,29.5340108 10.6184011,29.3058771 L8.95541478,22.8571924 C8.89681813,22.6289302 9.03405686,22.3963129 9.26218961,22.3372144 L16.5067691,20.4689813 C16.7350313,20.4103846 16.9676486,20.5476234 17.0267472,20.7757561 L18.6897346,27.2244397 C18.7483326,27.4527029 18.6110929,27.6853219 18.3829586,27.7444199 Z" id="Path" fill="#E6E6E6"></path>
                <path d="M21.7455205,40.7836682 L14.5009409,42.6519012 C14.272678,42.7104985 14.0400598,42.5732591 13.9809618,42.3451253 L12.3179755,35.8964428 C12.2593808,35.6681824 12.3966179,35.4355678 12.6247481,35.3764682 L19.8693265,33.5082351 C20.0975891,33.4496377 20.3302071,33.5868766 20.3893057,33.8150099 L22.0522919,40.2636935 C22.1108867,40.4919535 21.9736502,40.7245681 21.7455205,40.7836682 L21.7455205,40.7836682 Z" id="Path" fill="#E6E6E6"></path>
                <path d="M25.1080812,53.8229164 L17.8635027,55.6911495 C17.6352402,55.7497468 17.4026222,55.6125079 17.3435236,55.3843746 L15.6805373,48.9356911 C15.62194,48.7074285 15.7591788,48.4748105 15.9873121,48.4157119 L23.2318917,46.5474788 C23.4601542,46.4888823 23.6927716,46.6261216 23.7518697,46.8542548 L25.4148571,53.3029372 C25.4734544,53.5312001 25.3362149,53.7638183 25.1080812,53.8229164 L25.1080812,53.8229164 Z" id="Path" fill="#E6E6E6"></path>
                <path d="M72.7266485,12.2185432 L30.9207134,12.2185432 C27.9694062,12.2218663 25.5777298,14.6135486 25.574414,17.5648559 L25.574414,66.6536928 C25.5777304,69.6049989 27.9694073,71.9966793 30.9207134,72 L72.7266485,72 C75.6779546,71.9966793 78.0696315,69.6049989 78.0729479,66.6536928 L78.0729479,17.5648559 C78.0696321,14.6135486 75.6779558,12.2218663 72.7266485,12.2185432 L72.7266485,12.2185432 Z" id="Path" fill="#E6E6E6"></path>
                <path d="M72.7267074,13.7576319 L30.9207134,13.7576319 C28.819017,13.7599878 27.1158418,15.4631595 27.1134817,17.5648559 L27.1134817,66.6536928 C27.1158443,68.7553873 28.8190189,70.458556 30.9207134,70.4609112 L72.7267074,70.4609112 C74.8283834,70.4585327 76.5315289,68.7553688 76.5338847,66.6536928 L76.5338847,17.5648559 C76.5315313,15.4631779 74.8283853,13.7600111 72.7267074,13.7576319 Z" id="Path" fill="#FFFFFF"></path>
                <path d="M66.434869,40.7318232 L45.2938869,40.7318232 C44.9755752,40.7321782 44.6812909,40.5625651 44.5220323,40.2869582 C44.3627737,40.0113513 44.3627737,39.6716869 44.5220323,39.39608 C44.6812909,39.1204731 44.9755752,38.95086 45.2938869,38.951215 L66.434869,38.951215 C66.9261817,38.9517644 67.3241786,39.3502061 67.3241786,39.8415191 C67.3241786,40.3328322 66.9261817,40.7312738 66.434869,40.7318232 L66.434869,40.7318232 Z" id="Path" fill="#E6E6E6"></path>
                <path d="M70.1073695,43.7365968 L45.2938869,43.7365968 C44.9755752,43.7369518 44.6812909,43.5673387 44.5220323,43.2917318 C44.3627737,43.0161249 44.3627737,42.6764605 44.5220323,42.4008536 C44.6812909,42.1252467 44.9755752,41.9556336 45.2938869,41.9559886 L70.1073695,41.9559886 C70.5990706,41.9559886 70.9976731,42.3545916 70.9976731,42.8462927 C70.9976731,43.3379938 70.5990706,43.7365968 70.1073695,43.7365968 L70.1073695,43.7365968 Z" id="Path" fill="#E6E6E6"></path>
                <path d="M66.434869,54.1976645 L45.2938869,54.1976645 C44.9755752,54.1980195 44.6812909,54.0284064 44.5220323,53.7527995 C44.3627737,53.4771926 44.3627737,53.1375282 44.5220323,52.8619213 C44.6812909,52.5863143 44.9755752,52.4167013 45.2938869,52.4170563 L66.434869,52.4170563 C66.92657,52.4170563 67.3251725,52.8156593 67.3251725,53.3073604 C67.3251725,53.7990614 66.92657,54.1976645 66.434869,54.1976645 Z" id="Path" fill="#E6E6E6"></path>
                <path d="M70.1073695,57.2024358 L45.2938869,57.2024358 C44.9755752,57.2027908 44.6812909,57.0331778 44.5220323,56.7575708 C44.3627737,56.4819639 44.3627737,56.1422995 44.5220323,55.8666926 C44.6812909,55.5910857 44.9755752,55.4214726 45.2938869,55.4218276 L70.1073695,55.4218276 C70.4256812,55.4214726 70.7199656,55.5910857 70.8792242,55.8666926 C71.0384828,56.1422995 71.0384828,56.4819639 70.8792242,56.7575708 C70.7199656,57.0331778 70.4256812,57.2027908 70.1073695,57.2024358 L70.1073695,57.2024358 Z" id="Path" fill="#E6E6E6"></path>
                <path d="M40.5581799,45.1006364 L33.0765891,45.1006364 C32.8409248,45.100378 32.6499456,44.9093988 32.6496872,44.6737345 L32.6496872,38.0140773 C32.6499456,37.778413 32.8409248,37.5874338 33.0765891,37.5871755 L40.5581799,37.5871755 C40.7938442,37.5874338 40.9848234,37.778413 40.9850818,38.0140773 L40.9850818,44.6737345 C40.9848234,44.9093988 40.7938442,45.100378 40.5581799,45.1006364 Z" id="Path" fill="#E6E6E6"></path>
                <path d="M40.5581799,58.5664754 L33.0765891,58.5664754 C32.8409248,58.566217 32.6499456,58.3752378 32.6496872,58.1395735 L32.6496872,51.4799164 C32.6499456,51.2442521 32.8409248,51.0532729 33.0765891,51.0530145 L40.5581799,51.0530145 C40.7938442,51.0532729 40.9848234,51.2442521 40.9850818,51.4799164 L40.9850818,58.1395735 C40.9848234,58.3752378 40.7938442,58.566217 40.5581799,58.5664754 Z" id="Path" fill="#E6E6E6"></path>
                <path d="M66.4583283,25.7416867 L50.871943,25.7416867 C50.3802419,25.7416867 49.9816395,25.3430843 49.9816395,24.8513832 C49.9816395,24.3596821 50.3802419,23.9610796 50.871943,23.9610796 L66.4583283,23.9610796 C66.9500293,23.9610796 67.3486318,24.3596821 67.3486318,24.8513832 C67.3486318,25.3430843 66.9500293,25.7416867 66.4583283,25.7416867 Z" id="Path" fill-opacity="0.8" fill="#A9A9A9"></path>
                <path d="M70.1308299,28.7464592 L50.871943,28.7464592 C50.5538684,28.7464592 50.2599553,28.5767684 50.100918,28.3013077 C49.9418806,28.025847 49.9418806,27.6864654 50.100918,27.4110047 C50.2599553,27.135544 50.5538684,26.9658532 50.871943,26.9658532 L70.1308299,26.9658532 C70.6225306,26.9658532 71.0211328,27.3644555 71.0211328,27.8561562 C71.0211328,28.3478569 70.6225306,28.7464592 70.1308299,28.7464592 L70.1308299,28.7464592 Z" id="Path" fill-opacity="0.8" fill="#A9A9A9"></path>
                <path d="M47.4224207,32.387884 L33.0531287,32.387884 C32.8174653,32.387625 32.6264869,32.1966467 32.6262279,31.9609832 L32.6262279,20.7465556 C32.6264869,20.5108922 32.8174653,20.3199138 33.0531287,20.3196548 L47.4224207,20.3196548 C47.6580841,20.3199138 47.8490624,20.5108922 47.8493214,20.7465556 L47.8493214,31.9609832 C47.8490624,32.1966467 47.6580841,32.387625 47.4224207,32.387884 L47.4224207,32.387884 Z" id="Path" fill="#A9A9A9"></path>
            </g>
        </g>
    </g>
</svg>