<?xml version="1.0" encoding="UTF-8"?>
<svg width="14px" height="14px" viewBox="0 0 14 14" version="1.1" xmlns="http://www.w3.org/2000/svg" xmlns:xlink="http://www.w3.org/1999/xlink">
    <title>open_in_new_FILL0_wght400_GRAD0_opsz48</title>
    <g id="---↳--Resources" stroke="none" stroke-width="1" fill="none" fill-rule="evenodd">
        <g id="PP-Lite---Resources---Mobile-4" transform="translate(-361.000000, -453.000000)" fill="#015FF1" fill-rule="nonzero">
            <g id="Links" transform="translate(16.000000, 302.000000)">
                <g id="Group-4-Copy-4" transform="translate(16.000000, 129.000000)">
                    <g id="open_in_new_FILL0_wght400_GRAD0_opsz48" transform="translate(329.000000, 22.000000)">
                        <path d="M1.16666667,14 C0.855555556,14 0.583333333,13.8833333 0.35,13.65 C0.116666667,13.4166667 0,13.1444444 0,12.8333333 L0,1.16666667 C0,0.855555556 0.116666667,0.583333333 0.35,0.35 C0.583333333,0.116666667 0.855555556,0 1.16666667,0 L5.29712343,0 L5.29712343,1.16666667 L1.16666667,1.16666667 L1.16666667,12.8333333 L12.8333333,12.8333333 L12.8333333,8.51332411 L14,8.51332411 L14,12.8333333 C14,13.1444444 13.8833333,13.4166667 13.65,13.65 C13.4166667,13.8833333 13.1444444,14 12.8333333,14 L1.16666667,14 Z M5.09444444,9.74166667 L4.27777778,8.90555556 L12.0166667,1.16666667 L7.75833333,1.16666667 L7.75833333,0 L14,0 L14,6.24166667 L12.8333333,6.24166667 L12.8333333,2.00277778 L5.09444444,9.74166667 Z" id="Shape"></path>
                    </g>
                </g>
            </g>
        </g>
    </g>
</svg>