<?xml version="1.0" encoding="UTF-8"?><svg version="1.1" width="24px" height="24px" viewBox="0 0 24.0 24.0" xmlns="http://www.w3.org/2000/svg" xmlns:xlink="http://www.w3.org/1999/xlink"><defs><clipPath id="i0"><path d="M1366,0 L1366,947 L0,947 L0,0 L1366,0 Z"></path></clipPath><clipPath id="i1"><path d="M12,0 C18.627417,0 24,5.372583 24,12 C24,18.627417 18.627417,24 12,24 C5.372583,24 0,18.627417 0,12 C0,5.372583 5.372583,0 12,0 Z"></path></clipPath><clipPath id="i2"><path d="M9,0 C13.9705627,0 18,4.02943725 18,9 C18,13.9705627 13.9705627,18 9,18 C4.02943725,18 0,13.9705627 0,9 C0,4.02943725 4.02943725,0 9,0 Z"></path></clipPath></defs><g transform="translate(-462.0 -260.0)"><g clip-path="url(#i0)"><g transform="translate(428.0 224.0)"><g transform="translate(34.0 36.0)"><g clip-path="url(#i1)"><path d="M12,24 C18.627417,24 24,18.627417 24,12 C24,5.372583 18.627417,0 12,0 C5.372583,0 0,5.372583 0,12 C0,18.627417 5.372583,24 12,24 Z" stroke="#C42EA4" stroke-width="2" fill="none" stroke-miterlimit="5"></path></g><g transform="translate(3.0 3.0)"><g clip-path="url(#i2)"><polygon points="0,0 18,0 18,18 0,18 0,0" stroke="none" fill="#C32EA5"></polygon><path d="M9,18 C13.9705627,18 18,13.9705627 18,9 C18,4.02943725 13.9705627,0 9,0 C4.02943725,0 0,4.02943725 0,9 C0,13.9705627 4.02943725,18 9,18 Z" stroke="#C42EA4" stroke-width="2" fill="none" stroke-miterlimit="5"></path></g></g></g></g></g></g></svg>