<?xml version="1.0" encoding="UTF-8"?><svg version="1.1" width="16px" height="16px" viewBox="0 0 16.0 16.0" xmlns="http://www.w3.org/2000/svg" xmlns:xlink="http://www.w3.org/1999/xlink"><defs><clipPath id="i0"><path d="M1366,0 L1366,947 L0,947 L0,0 L1366,0 Z"></path></clipPath><clipPath id="i1"><path d="M1.51134053,10.6787185 L4.81134053,13.9793852 C4.8974969,14.065393 4.9299134,14.191529 4.89590125,14.3084197 C4.86188911,14.4253104 4.76685849,14.5143626 4.6480072,14.5407185 L0.405340529,15.4833852 C0.294079111,15.5068885 0.178441303,15.4730983 0.0973405287,15.3933852 C0.0168875808,15.3127293 -0.0168030784,15.196572 0.00800719539,15.0853852 L0.950673862,10.8420519 C0.977176916,10.7234773 1.06609806,10.6287153 1.18274929,10.5947325 C1.29940051,10.5607497 1.42530229,10.5929295 1.51134053,10.6787185 Z M11.8826739,4.55071852 L13.0613405,5.72938519 C13.1914678,5.8595518 13.1914678,6.0705519 13.0613405,6.20071852 L5.9900072,13.2720519 C5.85880866,13.399663 5.64987239,13.399663 5.51867386,13.2720519 L4.3400072,12.0933852 C4.27545067,12.0279628 4.27545067,11.9228075 4.3400072,11.8573852 L11.6466739,4.55071852 C11.7120962,4.486162 11.8172515,4.486162 11.8826739,4.55071852 Z M9.76134053,2.43005185 L10.9400072,3.60805185 C11.0045637,3.6734742 11.0045637,3.7786295 10.9400072,3.84405185 L3.63334053,11.1507185 C3.56791818,11.215275 3.46276288,11.215275 3.39734053,11.1507185 L2.21867386,9.97205185 C2.08854655,9.84188524 2.08854655,9.63088514 2.21867386,9.50071852 L9.2900072,2.43005185 C9.42017381,2.29992454 9.63117391,2.29992454 9.76134053,2.43005185 Z M14.7113405,0.780051853 C15.752359,1.82138479 15.752359,3.50938558 14.7113405,4.55071852 L14.2393405,5.02205185 C14.1073097,5.14759702 13.900038,5.14759702 13.7680072,5.02205185 L10.4680072,1.72271852 C10.3378799,1.5925519 10.3378799,1.3815518 10.4680072,1.25138519 L10.9393405,0.780051853 C11.9815869,-0.260017284 13.6690941,-0.260017284 14.7113405,0.780051853 Z"></path></clipPath><clipPath id="i2"><path d="M16,0 L16,16 L0,16 L0,0 L16,0 Z"></path></clipPath></defs><g transform="translate(-761.0 -443.0)"><g clip-path="url(#i0)"><g transform="translate(745.0 424.0)"><g transform="translate(16.0 11.0)"><g transform="translate(0.0 8.0)"><g transform="translate(0.2546594712751231 0.2546148141035687)"><g clip-path="url(#i1)"><polygon points="-9.02056208e-16,-1.11022302e-16 15.4921044,-1.11022302e-16 15.4921044,15.4907177 -9.02056208e-16,15.4907177 -9.02056208e-16,-1.11022302e-16" stroke="none" fill="#000000"></polygon><g transform="translate(-0.2546594712751231 -0.2546148141035687)"><g clip-path="url(#i2)"><polygon points="0.254659471,0.254614814 15.7467639,0.254614814 15.7467639,15.7453325 0.254659471,15.7453325 0.254659471,0.254614814" stroke="none" fill="#999999"></polygon></g></g></g></g></g></g></g></g></g></svg>