<?xml version="1.0" encoding="UTF-8"?>
<svg width="18px" height="16px" viewBox="0 0 18 16" version="1.1" xmlns="http://www.w3.org/2000/svg" xmlns:xlink="http://www.w3.org/1999/xlink">
    <title>arrow2-refresh</title>
    <defs>
        <path d="M8.59407301,0.00742297917 C11.9630155,0.137374474 14.9151843,2.23689291 16.0605923,5.3174496 C16.0911147,5.40074496 16.1781699,5.45129984 16.2681446,5.43797984 L17.5617081,5.2527204 C17.7061181,5.23506491 17.8488291,5.29595101 17.9331577,5.41119534 C18.0160764,5.52898881 18.0223251,5.68247972 17.9492411,5.80626668 L15.8974609,9.30313162 C15.8382771,9.40351112 15.7343929,9.47143198 15.6163846,9.48690304 L15.565071,9.48690304 L15.565071,9.48690304 C15.4639709,9.4866855 15.3670616,9.44763751 15.2954828,9.37827702 L12.4081325,6.59120126 C12.3054739,6.4919805 12.2692113,6.3449904 12.3144212,6.21134321 C12.3596311,6.07769602 12.4785792,5.98025559 12.6218118,5.95953352 L13.9352881,5.76981 C13.9945899,5.76112281 14.0463207,5.72604717 14.0751647,5.67496772 C14.1040088,5.62388827 14.106661,5.56265806 14.0823362,5.50940516 C12.8195496,2.73197549 9.65790579,1.26690891 6.64128003,2.0613119 C3.62465427,2.85571489 1.65753101,5.6713991 2.01157616,8.68813818 C2.3656213,11.7048772 4.93468038,14.0181528 8.05796023,14.1325253 C10.15176,14.2124595 12.1492352,13.2750037 13.3861554,11.6318949 C13.70971,11.2515018 14.2827562,11.1828129 14.6917879,11.4753935 C15.1008196,11.767974 15.2034251,12.319957 14.925565,12.7330353 C13.3744742,14.7864635 10.9095321,15.9996407 8.28772285,16 L8.13540938,15.999256 L8.13540938,15.999256 L7.98137269,15.9940479 C5.02897053,15.906032 2.35129759,14.2884482 0.964266631,11.7550101 C-0.422764328,9.22157196 -0.30661862,6.16047811 1.26863792,3.73311168 C2.79756338,1.37713839 5.47364515,-0.0314494855 8.32799548,0.000533222632 L8.59407301,0.00742297917 Z" id="path-1"></path>
    </defs>
    <g id="---↳--Notifications-(Updates)" stroke="none" stroke-width="1" fill="none" fill-rule="evenodd">
        <g id="Group-18" transform="translate(-55.000000, 0.000000)">
            <g id="arrow2-refresh" transform="translate(55.000000, 0.000000)">
                <mask id="mask-2" fill="white">
                    <use xlink:href="#path-1"></use>
                </mask>
                <use id="icon-color" fill="#015FF1" xlink:href="#path-1"></use>
            </g>
        </g>
    </g>
</svg>