<?xml version="1.0" encoding="UTF-8"?>
<svg width="91px" height="78px" viewBox="0 0 91 78" version="1.1" xmlns="http://www.w3.org/2000/svg" xmlns:xlink="http://www.w3.org/1999/xlink">
    <title>illustration</title>
    <g id="---↳--Results" stroke="none" stroke-width="1" fill="none" fill-rule="evenodd">
        <g id="PP-Lite---My-Study---Results-6---Tablet" transform="translate(-339.000000, -478.000000)" fill-rule="nonzero">
            <g id="Group-5" transform="translate(72.000000, 430.000000)">
                <g id="illustration" transform="translate(267.000000, 48.000000)">
                    <path d="M47.18181,12.4423557 C47.3246043,12.8726125 47.6420466,13.2145345 48.0487195,13.3761174 C48.4553925,13.5377004 48.9095216,13.5023459 49.2889098,13.2795672 L62.0356159,17.5614035 L66.254386,14.095257 L49.8127322,11.0804083 C49.4041415,10.4233359 48.5908365,10.1901454 47.9196171,10.537615 C47.2483977,10.8850846 46.9314269,11.7033841 47.18181,12.4423557 Z" id="Path" fill="#FFB6B6"></path>
                    <path d="M70.9948949,16.8236151 C70.9948949,16.8236151 70.8827686,16.5044128 69.4021296,17.1989683 C67.5642559,18.061089 57.7798277,17.4847337 57.237609,14.3874564 C56.8815269,14.8141861 56.3217061,14.9067184 55.877193,14.6123185 L57.406763,10.7146577 C58.2029443,10.4191716 58.635608,10.2005496 58.6870905,10.5769916 L61.080905,10.4135102 L70.7758806,12.3082284 L71.0438596,16.1935268 L70.9948949,16.8236151 Z" id="Path" fill="#F2F2F2"></path>
                    <polygon id="Path" fill="#F2F2F2" points="67.8329187 13.1931347 72.6997775 12.7719298 77.2624575 14.8570363 79.8245614 50.2894737 69.7700116 45.6408517 65.4561404 46.8340284"></polygon>
                    <polygon id="Path" fill="#FFB6B6" points="79.0259822 75.0350877 76.8625743 75.0349441 75.8333333 67.8508772 79.0263158 67.8510208"></polygon>
                    <path d="M80.622694,76.6315789 L74.2368421,76.63136 L74.2368421,76.5566383 C74.2369382,75.2867507 75.3497084,74.2573315 76.7223946,74.2572636 L76.7225473,74.2572636 L77.8890074,73.4385965 L80.0653616,74.257388 L80.622807,74.2574092 L80.622694,76.6315789 Z" id="Path" fill="#2F2E41"></path>
                    <polygon id="Path" fill="#FFB6B6" points="71.8421053 73.8396124 70.1413735 74.2368421 67.8508772 67.6390183 70.3610396 67.0526316"></polygon>
                    <path d="M72.6403509,75.2857448 L66.3347088,76.6315789 L66.3166986,76.5561867 C66.0107077,75.2748914 66.8613586,74.0016857 68.216771,73.7122668 L68.2169256,73.7122347 L69.171396,72.6403509 L71.5177589,73.0077382 L72.0682026,72.8902552 L72.6403509,75.2857448 Z" id="Path" fill="#2F2E41"></path>
                    <path d="M81.6166364,31.9298246 C82.4957106,34.5826949 82.4027737,37.4623126 81.4053388,40.5529234 L80.9789501,57.9538607 C81.6838518,58.7300766 81.7916359,65.6755582 80.7057977,67.9418757 C79.2558117,70.9682222 80.5892673,71.3727904 79.5643023,73.3805495 L76.5913365,73.3805495 L75.2172863,64.2845767 L75.1193776,56.9117453 C74.724525,55.9763039 75.0486839,52.6842112 75.0486839,52.6842112 L74.9345302,45.8577875 L69.5740669,57.8160629 C72.0026564,59.8960365 71.7840451,66.6147548 71.8241396,69.5948278 L72.6204197,73.111297 L68.9614054,73.4385965 L67.3466914,68.6697813 L65.5312377,65.7311185 C64.6060796,60.5241667 64.3317764,56.7015682 65.1205202,55.1401143 L70.501609,35.1074478 L81.6166364,31.9298246 Z" id="Path" fill="#2F2E41"></path>
                    <path d="M82.0127298,30.4702587 L81.5482381,29.4826482 C80.9796126,25.7375944 80.417838,22.2445416 81.1810293,19.1025419 C81.2289857,16.3596651 80.4315398,13.7828467 78.2173258,12.3757203 L77.2184631,11.7406198 L76.712866,10.377193 L72.0569877,10.4980951 L72.0432859,12.2854079 L70.3757745,15.1127705 L70.3757745,15.1244237 L70.4799083,30.5095883 L70.9402963,32.0973396 L70.245614,33.9443751 L70.614193,35.122807 L79.7930418,33.5627321 L80.8604136,33.3806505 C80.9836525,33.3387251 81.1025576,33.2835736 81.2152907,33.2160488 C81.5982765,32.9899435 81.8984907,32.6333255 82.0675439,32.2036752 C82.0771352,32.1789122 82.0853562,32.1556057 82.0935773,32.1308426 C82.1655792,31.9303016 82.2072019,31.7188877 82.2168937,31.504482 C82.2335735,31.1468167 82.1632571,30.7906183 82.0127298,30.4702587 Z" id="Path" fill="#3F3D56"></path>
                    <path d="M82.2192982,32.2308336 C82.2102468,32.448935 82.1713742,32.663993 82.1041298,32.8679907 L81.2838742,33.9719024 C81.1785897,34.0405911 81.067541,34.0966932 80.9524448,34.1393413 L79.9555976,34.3245614 L81.397763,31.1847106 L78.2280702,23.1491228 L82.2192982,32.2308336 Z" id="Path" fill="#000000" opacity="0.2"></path>
                    <path d="M6.78529411,63.0602807 C5.59960303,63.07197 4.41482449,62.9923744 3.24210585,62.8222426 C2.15017253,62.6429893 1.59649123,62.3884442 1.59649123,62.0656313 L1.59689798,62.0597928 L3.63390917,47.0101467 L2.60798345,44.1563255 C2.52057606,43.9131492 2.56069976,43.6439013 2.71551893,43.4347145 C2.8703381,43.2255277 3.12044974,43.1026188 3.3858429,43.1052632 L10.1324888,43.1734864 C10.3928893,43.1761256 10.6363029,43.299388 10.7874618,43.5051588 C10.9386208,43.7109295 10.979313,43.9744167 10.8969557,44.2141455 L9.93663234,47.0097959 L11.9736842,62.0597898 C11.9740955,62.8508229 8.71250004,63.0602807 6.78529411,63.0602807 Z" id="Path" fill="#F2F2F2"></path>
                    <rect id="Rectangle" fill="#CCCCCC" x="3.19298246" y="61.425" width="3.19298246" height="1"></rect>
                    <rect id="Rectangle" fill="#CCCCCC" x="3.19298246" y="59.8285088" width="3.19298246" height="1"></rect>
                    <rect id="Rectangle" fill="#CCCCCC" x="3.19298246" y="59.0302632" width="3.19298246" height="1"></rect>
                    <rect id="Rectangle" fill="#CCCCCC" x="3.19298246" y="58.2320175" width="3.19298246" height="1"></rect>
                    <rect id="Rectangle" fill="#CCCCCC" x="3.19298246" y="56.6355263" width="3.19298246" height="1"></rect>
                    <path d="M34.7238906,63.0602807 C33.5381995,63.07197 32.353421,62.9923744 31.1807023,62.8222426 C30.088769,62.6429893 29.5350877,62.3884442 29.5350877,62.0656313 L29.5354945,62.0597928 L31.5725057,47.0101467 L30.5465799,44.1563255 C30.4591726,43.9131492 30.4992963,43.6439013 30.6541154,43.4347145 C30.8089346,43.2255277 31.0590462,43.1026188 31.3244394,43.1052632 L38.0710853,43.1734864 C38.3314858,43.1761256 38.5748994,43.299388 38.7260583,43.5051588 C38.8772173,43.7109295 38.9179095,43.9744167 38.8355522,44.2141455 L37.8752288,47.0097959 L39.9122807,62.0597898 C39.9126874,62.8508229 36.6510965,63.0602807 34.7238906,63.0602807 Z" id="Path" fill="#F2F2F2"></path>
                    <rect id="Rectangle" fill="#CCCCCC" x="31.1315789" y="61.425" width="3.19298246" height="1"></rect>
                    <rect id="Rectangle" fill="#CCCCCC" x="31.1315789" y="59.8285088" width="3.19298246" height="1"></rect>
                    <rect id="Rectangle" fill="#CCCCCC" x="31.1315789" y="59.0302632" width="3.19298246" height="1"></rect>
                    <rect id="Rectangle" fill="#CCCCCC" x="31.1315789" y="58.2320175" width="3.19298246" height="1"></rect>
                    <rect id="Rectangle" fill="#CCCCCC" x="31.1315789" y="56.6355263" width="3.19298246" height="1"></rect>
                    <path d="M22.7502049,63.0602807 C21.5645143,63.07197 20.3797363,62.9923743 19.2070181,62.8222426 C18.1150848,62.6429893 17.5614035,62.3884442 17.5614035,62.0656313 L17.5618103,62.0597928 L19.5988199,47.0101467 L18.5728957,44.1563255 C18.4854883,43.9131492 18.525612,43.6439013 18.6804312,43.4347145 C18.8352504,43.2255277 19.085362,43.1026188 19.3507552,43.1052632 L26.0974011,43.1734864 C26.3578016,43.1761256 26.6012152,43.299388 26.7523741,43.5051588 C26.903533,43.7109295 26.9442252,43.9744167 26.861868,44.2141455 L25.9015446,47.0097959 L27.9385965,62.0597898 C27.9390078,62.850823 24.6774108,63.0602807 22.7502049,63.0602807 Z" id="Path" fill="#F2F2F2"></path>
                    <rect id="Rectangle" fill="#CCCCCC" x="18.3596491" y="61.425" width="3.19298246" height="1"></rect>
                    <rect id="Rectangle" fill="#CCCCCC" x="18.3596491" y="59.8285088" width="3.19298246" height="1"></rect>
                    <rect id="Rectangle" fill="#CCCCCC" x="18.3596491" y="59.0302632" width="3.19298246" height="1"></rect>
                    <rect id="Rectangle" fill="#CCCCCC" x="18.3596491" y="58.2320175" width="3.19298246" height="1"></rect>
                    <rect id="Rectangle" fill="#CCCCCC" x="18.3596491" y="56.6355263" width="3.19298246" height="1"></rect>
                    <path d="M41.9018649,64.5545897 L36.0630809,64.5545897 L36.0630809,54.3840039 L41.9018649,54.3840039 C42.5657679,54.3840038 43.1039676,53.8247988 43.1039676,53.1349844 C43.1039676,52.4451701 42.5657679,51.8859649 41.9018649,51.8859649 L1.20210284,51.8859649 C0.538199772,51.8859649 0,52.44517 0,53.1349844 C0,53.8247988 0.538199772,54.3840039 1.20210284,54.3840039 L6.18224295,54.3840039 L6.18224295,64.5545897 L1.20210284,64.5545897 C0.538200157,64.5545897 0,65.1137944 0,65.8036085 C0,66.4934225 0.538200157,67.052628 1.20210284,67.052628 L41.9018649,67.052628 C42.3316432,67.0531085 42.728973,66.8151521 42.9439959,66.4285067 C43.1590189,66.0418613 43.1590189,65.5653556 42.9439959,65.1787102 C42.728973,64.7920648 42.3316432,64.5541085 41.9018649,64.5545897 L41.9018649,64.5545897 Z M8.58644863,64.5545897 L8.58644863,54.3840039 L33.6588752,54.3840039 L33.6588752,64.5545897 L8.58644863,64.5545897 Z" id="Shape" fill="#CCCCCC"></path>
                    <path d="M41.1101232,76.6315789 C37.9353996,76.6315789 34.9744653,76.4327734 32.7729769,76.0719264 C30.0570997,75.6268726 28.7368421,74.9801391 28.7368421,74.0947575 L28.7383262,74.0668256 L33.5051813,38.9016953 L31.1186276,32.2736516 C30.8861169,31.6405599 30.9911052,30.9370865 31.3991922,30.3937303 C31.7979491,29.8417117 32.4553707,29.5196257 33.1506318,29.5356594 L48.9540805,29.6951387 C49.6335213,29.7019757 50.2686551,30.023055 50.6630745,30.5590869 C51.057494,31.0951187 51.1636746,31.7815153 50.9487814,32.4060171 L48.7147534,38.8992295 L53.4824561,74.0674424 L53.4824561,74.0809979 C53.4829858,75.0355916 51.988262,75.7133368 48.9129616,76.1530506 C45.891816,76.5849587 42.4497775,76.6315789 41.1101232,76.6315789 Z" id="Path" fill="#FFFFFF"></path>
                    <path d="M41.1101229,76.6315789 C37.9353993,76.6315789 34.9744652,76.4327734 32.7729768,76.0719264 C30.0570996,75.6268726 28.7368421,74.9801391 28.7368421,74.0947575 L28.7383262,74.0668256 L33.5051812,38.9016953 L31.1186275,32.2736516 C30.8861169,31.6405599 30.9911052,30.9370865 31.3991922,30.3937303 C31.797949,29.8417117 32.4553706,29.5196257 33.1506317,29.5356594 L48.9540799,29.6951387 C49.6335207,29.7019757 50.2686545,30.023055 50.6630739,30.5590869 C51.0574933,31.0951187 51.163674,31.7815153 50.9487807,32.4060171 L48.7147529,38.8992295 L53.4824554,74.0674424 L53.4824554,74.0809979 C53.4829851,75.0355916 51.9882614,75.7133368 48.912961,76.1530506 C45.8918155,76.5849587 42.4497771,76.6315789 41.1101229,76.6315789 Z M33.1069573,29.9558646 C32.5671183,29.9553354 32.0610972,30.210484 31.7518273,30.6391561 C31.4270857,31.0714996 31.3435528,31.6312738 31.5286052,32.1350217 L33.9490771,38.8573338 L33.9423989,38.9068296 L29.1701448,74.1085186 C29.1709922,74.4533471 29.6483878,75.133351 32.8454761,75.6570632 C35.0237523,76.0142093 37.9588238,76.2109661 41.1101229,76.2109661 C43.8800555,76.2109661 46.7733654,76.0337259 48.8495709,75.7369553 C51.5018501,75.3578283 53.02975,74.7593584 53.048087,74.0937309 L48.271268,38.8581505 L50.5368841,32.2730319 C50.7078583,31.7760784 50.6233604,31.2298865 50.3095161,30.8033318 C49.9956717,30.3767771 49.4902896,30.1212466 48.9496277,30.1157472 L33.1437427,29.9558646 C33.1314443,29.9558646 33.1191518,29.9558646 33.1069573,29.9558646 Z" id="Shape" fill="#3F3D56"></path>
                    <path d="M51.0877193,71.0438596 L33.5263158,71.0438596 L36.3101986,52.3530425 L36.3860335,51.8378761 L37.545808,44.0568173 C37.6165555,43.5821685 38.1669136,43.9507616 38.5560374,43.666244 C40.9720283,41.8997403 43.416935,41.8485085 45.8830649,43.5511315 C46.2642604,43.8143138 46.7908364,43.5063009 46.8619528,43.9618594 L48.0803299,51.7665356 L48.1980761,52.5214594 L51.0877193,71.0438596 Z" id="Path" fill="#003346" opacity="0.5"></path>
                    <path d="M49.4317582,72.6403509 L35.9804722,72.6403509 C35.2669044,72.6403509 34.5886671,72.3361862 34.1224788,71.807079 C33.6562905,71.2779717 33.4483217,70.5763345 33.5527599,69.8849831 L37.4827927,43.8564522 C37.5240778,43.5855524 37.710305,43.3570423 37.9708659,43.2575619 C38.2314268,43.1580815 38.5264271,43.2028622 38.7440169,43.3749254 C41.139201,45.2541738 43.7496782,45.2118367 46.5027401,43.2497659 C46.7199057,43.0942922 47.0044438,43.0618365 47.2522772,43.1642702 C47.5052812,43.2659809 47.6852029,43.4903 47.7261948,43.7551316 L51.8570407,69.8687438 C51.9666834,70.5622184 51.7614439,71.2679924 51.2951914,71.8008209 C50.828939,72.3336493 50.1482352,72.6403509 49.431745,72.6403509 L49.4317582,72.6403509 Z" id="Path" fill="#003346"></path>
                    <rect id="Rectangle" fill="#FFFFFF" x="35.9210526" y="70.245614" width="7.18421053" height="1"></rect>
                    <rect id="Rectangle" fill="#FFFFFF" x="35.9210526" y="66.254386" width="7.18421053" height="1"></rect>
                    <rect id="Rectangle" fill="#FFFFFF" x="35.9210526" y="65.4561404" width="7.18421053" height="1"></rect>
                    <rect id="Rectangle" fill="#FFFFFF" x="35.9210526" y="62.2631579" width="7.18421053" height="1"></rect>
                    <rect id="Rectangle" fill="#FFFFFF" x="35.9210526" y="59.8684211" width="7.18421053" height="1"></rect>
                    <path d="M47.8947368,53.2700341 C46.7726753,54.5511931 45.2197596,55.2046383 43.6435429,55.0588772 C42.7551172,54.9664254 41.9450744,54.5850793 41.1651851,54.1043704 C40.3591782,53.6074675 39.5792903,53.0135054 38.686841,52.7361581 C37.9049358,52.4934896 36.97833,52.4611302 36.306973,53.0620382 C36.1943281,53.1623715 36.0380858,53.167049 35.9210526,53.0735915 L35.9974347,52.4726993 C36.745156,51.8717914 37.6536886,51.7793539 38.5441248,51.985035 C40.3370582,52.4010616 41.6978453,54.1066851 43.5350051,54.3516668 C45.1448252,54.5600585 46.7378609,53.8235519 47.7741242,52.3917993 L47.7761373,52.3894845 L47.8947368,53.2700341 Z" id="Path" fill="#FFFFFF"></path>
                    <path d="M91,77.0307017 C91,77.1366552 90.9822837,77.2383598 90.950405,77.3132786 C90.9185263,77.3881974 90.8752513,77.4301438 90.8301693,77.4298246 L0.169821364,77.4298246 C0.0760316143,77.4298246 0,77.2511302 0,77.0307017 C0,76.8102733 0.0760316143,76.6315789 0.169821364,76.6315789 L90.8301693,76.6315789 C90.8752508,76.6312633 90.9185249,76.6732108 90.9504033,76.7481288 C90.9822817,76.8230469 91,76.9247494 91,77.0307017 L91,77.0307017 Z" id="Path" fill="#CCCCCC"></path>
                    <polygon id="Path" fill="#F2F2F2" points="72.6223924 12.3948891 77.4892511 11.9736842 82.0519312 14.0587907 84.6140351 49.4912281 74.5594853 44.8426061 70.245614 46.0357828"></polygon>
                    <circle id="Oval" fill="#003346" cx="47.8947368" cy="11.1754386" r="1"></circle>
                    <circle id="Oval" fill="#003346" cx="47.0964912" cy="22.3508772" r="1"></circle>
                    <circle id="Oval" fill="#003346" cx="42.3070175" cy="28.7368421" r="1"></circle>
                    <path d="M63.0614035,35.9791576 L63.0614035,26.2840018 C63.0618218,25.8754244 63.3620857,25.5443217 63.7326091,25.5438596 L70.3726567,25.5438596 C70.7431795,25.5443225 71.0434421,25.8754252 71.0438596,26.2840018 L71.0438596,35.9791576 C71.0434414,36.3877336 70.7431789,36.7188354 70.3726567,36.7192982 L63.7326091,36.7192982 C63.3620862,36.7188362 63.0618225,36.3877345 63.0614035,35.9791576 L63.0614035,35.9791576 Z" id="Path" fill="#E6E6E6"></path>
                    <path d="M63.8596491,32.7213659 L63.8596491,26.2621837 C63.860048,25.8656474 64.1501573,25.5443015 64.508148,25.5438596 L70.3953255,25.5438596 C70.7533235,25.5442972 71.0434452,25.8656394 71.0438596,26.2621837 L71.0438596,35.2027286 C71.043446,35.5992733 70.7533239,35.920616 70.3953255,35.9210526 L66.7483436,35.9210526 C65.1537176,35.9190695 63.8614589,34.4876883 63.8596491,32.7213659 L63.8596491,32.7213659 Z" id="Path" fill="#FFFFFF"></path>
                    <path d="M65.4561404,29.1359649 C65.4564814,28.915635 65.7102144,28.7370821 66.0233149,28.7368421 L69.6784395,28.7368421 C69.9916814,28.7368421 70.245614,28.9155355 70.245614,29.1359649 C70.245614,29.3563944 69.9916814,29.5350877 69.6784395,29.5350877 L66.0233149,29.5350877 C65.7102147,29.5348472 65.4564821,29.3562947 65.4561404,29.1359649 L65.4561404,29.1359649 Z" id="Path" fill="#E6E6E6"></path>
                    <path d="M65.4561404,30.7324561 C65.4564814,30.5121262 65.7102144,30.3335733 66.0233149,30.3333333 L69.6784395,30.3333333 C69.9916814,30.3333333 70.245614,30.5120267 70.245614,30.7324561 C70.245614,30.9528856 69.9916814,31.1315789 69.6784395,31.1315789 L66.0233149,31.1315789 C65.7102147,31.1313384 65.4564821,30.9527859 65.4561404,30.7324561 L65.4561404,30.7324561 Z" id="Path" fill="#E6E6E6"></path>
                    <path d="M65.4561404,33.127193 C65.4564814,32.906863 65.7102144,32.7283102 66.0233149,32.7280702 L69.6784395,32.7280702 C69.9916814,32.7280702 70.245614,32.9067635 70.245614,33.127193 C70.245614,33.3476224 69.9916814,33.5263158 69.6784395,33.5263158 L66.0233149,33.5263158 C65.7102147,33.5260753 65.4564821,33.3475227 65.4561404,33.127193 L65.4561404,33.127193 Z" id="Path" fill="#E6E6E6"></path>
                    <path d="M68.462528,38.1978102 C68.8952924,38.0287561 69.2266051,37.6872052 69.3673159,37.2650628 C69.5080266,36.8429203 69.443681,36.3835504 69.1915934,36.0105613 L74.6994124,31.2814209 L76.6315789,24.2170333 L73.2024413,23.9473684 L72.1542003,29.4909217 L66.9021697,35.6010619 C66.2530443,36.052782 66.0639662,36.8920033 66.462056,37.5545025 C66.8601458,38.2170017 67.719573,38.4933725 68.4625296,38.1978058 L68.462528,38.1978102 Z" id="Path" fill="#FFB6B6"></path>
                    <path d="M76.9905139,18.3762559 C76.9905139,18.3762559 77.6499885,18.386703 77.3529382,19.8477194 C77.1151294,21.017374 76.2129432,27.5995557 75.4928841,29.0720951 C75.8318642,29.385192 75.9296054,29.9041996 75.7304045,30.3333333 L72.7207383,29.083974 C72.4584094,28.3534229 72.8982644,28.1263417 73.178938,28.0607954 L73.12386,25.7692578 L73.5553215,19.9281309 L76.5139401,18.3596491 L76.9905139,18.3762559 Z" id="Path" fill="#F2F2F2"></path>
                    <path d="M78.1939714,7.36268274 C77.8645954,9.77480553 75.6513647,11.4629517 73.2488079,11.1346162 C70.8462512,10.8062807 69.1628298,8.58561474 69.4874314,6.17283947 L69.4959179,6.11022003 C69.8746747,3.73176651 72.0833661,2.09803344 74.457865,2.43994864 C76.8323639,2.78186384 78.4948,4.97301867 78.1926192,7.36249874 L78.1939714,7.36268274 Z" id="Path" fill="#FFB8B8"></path>
                    <path d="M76.4877898,8.53383371 C76.7332249,8.07150858 76.9853549,7.57514969 76.91638,7.06382559 C76.8474052,6.55250149 76.3066509,6.06376386 75.7756617,6.21572395 C75.4581407,6.30659358 75.2181575,6.59734672 74.8862456,6.61222791 C74.4295547,6.6326997 74.1677231,6.14802337 74.0255705,5.74505073 L73.4466393,4.10384873 C72.3210564,4.9173103 70.8628827,5.22286791 69.4694719,4.93725685 C68.9319509,4.82329379 68.3889086,4.60109831 68.0736046,4.18163536 C67.7583006,3.76217241 67.760193,3.11151049 68.1926659,2.79432104 C68.4047191,2.63879401 68.6869613,2.579702 68.8896088,2.41374441 C69.1477299,2.20235806 69.2260715,1.85913949 69.0824497,1.56889902 C68.9388278,1.27865855 68.6071465,1.10991172 68.2660038,1.15352238 L69.7236995,0.984579028 L69.2893795,0.256155685 C69.602323,0.484923482 70.0378753,0.51568858 70.4300586,0.450206314 C70.8222419,0.384724047 71.1916012,0.234982273 71.5752593,0.135123147 C73.4171024,-0.344270679 75.5576975,0.489260678 76.478283,2.04432376 C77.2126695,1.8169222 78.0222023,2.03368433 78.5128333,2.58909902 C78.9030549,3.04837538 79.0091766,3.66127135 79.0242954,4.245804 C79.0526768,5.39834901 78.7816804,6.54031553 78.2341734,7.57534296 C78.0771413,7.9041066 77.8515625,8.20083546 77.570413,8.44846085 C77.2838877,8.69698753 76.8935516,8.8153617 76.5040353,8.77185289" id="Path" fill="#2F2E41"></path>
                </g>
            </g>
        </g>
    </g>
</svg>