<?xml version="1.0" encoding="UTF-8"?>
<svg width="16px" height="15px" viewBox="0 0 16 15" version="1.1" xmlns="http://www.w3.org/2000/svg" xmlns:xlink="http://www.w3.org/1999/xlink">
    <title>icon</title>
    <defs>
        <path d="M7.63917601,0.00695904297 C10.6337915,0.128788569 13.2579416,2.09708711 14.2760821,4.985109 C14.3032131,5.0631984 14.3805954,5.1105936 14.460573,5.0981061 L15.6104072,4.92442537 C15.7387716,4.90787335 15.8656258,4.96495407 15.9405846,5.07299563 C16.0142902,5.18342701 16.0198445,5.32732474 15.954881,5.44337501 L14.1310763,8.7216859 C14.0784686,8.81579167 13.9861271,8.87946748 13.8812308,8.8939716 L13.8356186,8.8939716 L13.8356186,8.8939716 C13.7457519,8.89376766 13.6596103,8.85716017 13.5959847,8.7921347 L11.0294511,6.17925118 C10.938199,6.08623172 10.9059656,5.9484285 10.9461522,5.82313426 C10.9863388,5.69784002 11.0920704,5.60648962 11.2193882,5.58706268 L12.3869227,5.40919688 C12.4396355,5.40105264 12.4856184,5.36816922 12.5112575,5.32028224 C12.5368967,5.27239525 12.5392542,5.21499193 12.5176322,5.16506734 C11.3951552,2.56122703 8.58480515,1.1877271 5.90336003,1.93247991 C3.22191491,2.67723271 1.4733609,5.31693666 1.7880677,8.14512954 C2.10277449,10.9733224 4.38638256,13.1420182 7.16263132,13.2492425 C9.02378662,13.3241808 10.7993202,12.445316 11.8988048,10.9049014 C12.1864089,10.548283 12.6957833,10.4838871 13.059367,10.7581814 C13.4229507,11.0324757 13.5141556,11.5499597 13.2671689,11.9372206 C11.8884215,13.8623095 9.69736183,14.9996631 7.36686476,15 L7.23147501,14.9993025 L7.23147501,14.9993025 L7.0945535,14.9944199 C4.47019603,14.911905 2.0900423,13.3954202 0.857125895,11.0203219 C-0.375790513,8.64522372 -0.272549884,5.77544822 1.12767815,3.4997922 C2.486723,1.29106724 4.86546236,-0.0294838927 7.40266265,0.000499896218 L7.63917601,0.00695904297 Z" id="path-1"></path>
    </defs>
    <g id="---↳--Document-Upload" stroke="none" stroke-width="1" fill="none" fill-rule="evenodd">
        <g id="Upload-Files_Mobile-Delete-file-2" transform="translate(-365.000000, -563.000000)">
            <g id="Group-37" transform="translate(16.000000, 533.000000)">
                <g id="icon" transform="translate(349.000000, 30.000000)">
                    <mask id="mask-2" fill="white">
                        <use xlink:href="#path-1"></use>
                    </mask>
                    <use id="icon-color" fill="#595959" xlink:href="#path-1"></use>
                </g>
            </g>
        </g>
    </g>
</svg>