<?xml version="1.0" encoding="UTF-8"?>
<svg width="12px" height="16px" viewBox="0 0 12 16" version="1.1" xmlns="http://www.w3.org/2000/svg"
    xmlns:xlink="http://www.w3.org/1999/xlink">
    <title>icon/chevron/right</title>
    <defs>
        <path
            d="M-2.0926417,4.3569471 L4.77160524,12.5347301 L4.77160524,12.5347301 C4.89724783,12.6722476 5.0709365,12.75 5.25248998,12.75 C5.43404346,12.75 5.60773212,12.6722476 5.73337472,12.5347301 L12.594497,4.3569471 C12.7053677,4.22587559 12.7608427,4.05322847 12.74824,3.87847372 C12.7356374,3.70371898 12.6560346,3.54179742 12.5276293,3.42972512 L11.3715062,2.40873177 C11.1032684,2.17143801 10.7032094,2.20384137 10.4728548,2.48151935 L5.37028955,8.68026708 C5.34061001,8.71645897 5.29736806,8.73727507 5.25186505,8.73727507 C5.20636203,8.73727507 5.16312009,8.71645897 5.13344054,8.68026708 L0.0290005406,2.4808636 C-0.0818058129,2.34802037 -0.238130439,2.26647559 -0.405951741,2.25397619 C-0.574061176,2.23824943 -0.741085246,2.29454053 -0.869025938,2.41004325 L-2.02577403,3.42972512 C-2.15491796,3.54159857 -2.23521404,3.70371865 -2.24824963,3.87890974 C-2.26089126,4.05388325 -2.20465327,4.22664989 -2.0926417,4.3569471 Z"
            id="path-1"></path>
    </defs>
    <g id="---↳--Resources" stroke="none" stroke-width="1" fill="none" fill-rule="evenodd">
        <g id="Resources---Desktop---6" transform="translate(-1070.000000, -1245.000000)">
            <g id="Group-2" transform="translate(290.000000, 1112.000000)">
                <g id="icon/chevron/right" transform="translate(780.750000, 133.500000)">
                    <mask id="mask-2" fill="white">
                        <use xlink:href="#path-1"
                            transform="translate(5.250000, 7.500000) rotate(-90.000000) translate(-5.250000, -7.500000) "></use>
                    </mask>
                    <use id="Mask" fill="#000000" fill-rule="nonzero"
                        transform="translate(5.250000, 7.500000) rotate(-90.000000) translate(-5.250000, -7.500000) "
                        xlink:href="#path-1"></use>
                    <g id="color" mask="url(#mask-2)" fill="#0768FD">
                        <g transform="translate(-6.750000, -4.500000)" id="Rectangle">
                            <rect x="0" y="0" width="24" height="24"></rect>
                        </g>
                    </g>
                </g>
            </g>
        </g>
    </g>
</svg>