<?xml version="1.0" encoding="UTF-8"?>
<svg width="14px" height="24px" viewBox="0 0 14 24" version="1.1" xmlns="http://www.w3.org/2000/svg" xmlns:xlink="http://www.w3.org/1999/xlink">
    <title>form/time picker/ui/small/arrow/active</title>
    <defs>
        <path d="M6.92317541,0.236723804 C6.81738125,0.0904979192 6.61865094,0 6.4031842,0 L0.596715176,0 C0.381370768,8.14166924e-05 0.182771266,0.090501182 0.076990833,0.236623721 C-0.0287896002,0.382746259 -0.0253555577,0.561923352 0.0859775396,0.705520651 L2.98921205,4.44240821 C3.09737284,4.58161864 3.29106556,4.66666667 3.49994969,4.66666667 C3.70883382,4.66666667 3.90252654,4.58161864 4.01068733,4.44240821 L6.91392184,0.705520651 C7.02528835,0.561985982 7.02882415,0.38285808 6.92317541,0.236723804 Z" id="path-1"></path>
        <path d="M0.0768245852,4.42994286 C0.182618752,4.57616875 0.381349059,4.66666667 0.596815797,4.66666667 L6.40328482,4.66666667 C6.61862923,4.66658525 6.81722873,4.57616548 6.92300917,4.43004295 C7.0287896,4.28392041 7.02535556,4.10474331 6.91402246,3.96114602 L4.01078795,0.224258454 C3.90262716,0.0850480299 3.70893444,8.8817842e-16 3.50005031,8.8817842e-16 C3.29116618,8.8817842e-16 3.09747346,0.0850480299 2.98931267,0.224258454 L0.0860781601,3.96114602 C-0.025288347,4.10468068 -0.0288241503,4.28380859 0.0768245852,4.42994286 Z" id="path-3"></path>
    </defs>
    <g id="---↳--Document-Upload" stroke="none" stroke-width="1" fill="none" fill-rule="evenodd">
        <g id="Upload-Files_Sort-01" transform="translate(-351.000000, -268.000000)">
            <g id="right" transform="translate(351.000000, 268.000000)">
                <g id="icon" transform="translate(3.500000, 14.666667)">
                    <mask id="mask-2" fill="white">
                        <use xlink:href="#path-1"></use>
                    </mask>
                    <use id="icon-color" fill="#595959" xlink:href="#path-1"></use>
                </g>
                <g id="caret-up" transform="translate(3.500000, 4.666667)">
                    <mask id="mask-4" fill="white">
                        <use xlink:href="#path-3"></use>
                    </mask>
                    <use id="icon-color" fill="#595959" xlink:href="#path-3"></use>
                </g>
            </g>
        </g>
    </g>
</svg>