<svg width="24" height="24" viewBox="0 0 24 24" fill="none" xmlns="http://www.w3.org/2000/svg">
<path fill-rule="evenodd" clip-rule="evenodd" d="M23.393 10.5354L13.4643 0.606519C12.6554 -0.202173 11.3441 -0.202173 10.5352 0.606519L0.606506 10.5365C-0.202169 11.3454 -0.202169 12.6567 0.606506 13.4656L10.5352 23.3935C11.3441 24.2022 12.6554 24.2022 13.4643 23.3935L23.393 13.4656C23.7816 13.0771 24 12.5501 24 12.0005C24 11.451 23.7816 10.9239 23.393 10.5354ZM11.0344 6.21729C11.0344 5.64525 11.4981 5.18152 12.0702 5.18152C12.6422 5.18152 13.1059 5.64525 13.1059 6.21729V12.4319C13.1059 13.004 12.6422 13.4677 12.0702 13.4677C11.4981 13.4677 11.0344 13.004 11.0344 12.4319V6.21729ZM12.094 18.139H12.123C12.5334 18.1318 12.9236 17.9597 13.2057 17.6616C13.4878 17.3635 13.6381 16.9644 13.6228 16.5543C13.5911 15.7059 12.8953 15.0339 12.0463 15.0317H12.0173C11.607 15.0389 11.2168 15.211 10.9346 15.5091C10.6525 15.8072 10.5022 16.2063 10.5176 16.6164C10.5503 17.4643 11.2455 18.1358 12.094 18.139Z" fill="black"/>
<mask id="mask0_34_12999" style="mask-type:luminance" maskUnits="userSpaceOnUse" x="0" y="0" width="24" height="24">
<path fill-rule="evenodd" clip-rule="evenodd" d="M23.393 10.5354L13.4643 0.606519C12.6554 -0.202173 11.3441 -0.202173 10.5352 0.606519L0.606506 10.5365C-0.202169 11.3454 -0.202169 12.6567 0.606506 13.4656L10.5352 23.3935C11.3441 24.2022 12.6554 24.2022 13.4643 23.3935L23.393 13.4656C23.7816 13.0771 24 12.5501 24 12.0005C24 11.451 23.7816 10.9239 23.393 10.5354ZM11.0344 6.21729C11.0344 5.64525 11.4981 5.18152 12.0702 5.18152C12.6422 5.18152 13.1059 5.64525 13.1059 6.21729V12.4319C13.1059 13.004 12.6422 13.4677 12.0702 13.4677C11.4981 13.4677 11.0344 13.004 11.0344 12.4319V6.21729ZM12.094 18.139H12.123C12.5334 18.1318 12.9236 17.9597 13.2057 17.6616C13.4878 17.3635 13.6381 16.9644 13.6228 16.5543C13.5911 15.7059 12.8953 15.0339 12.0463 15.0317H12.0173C11.607 15.0389 11.2168 15.211 10.9346 15.5091C10.6525 15.8072 10.5022 16.2063 10.5176 16.6164C10.5503 17.4643 11.2455 18.1358 12.094 18.139Z" fill="white"/>
</mask>
<g mask="url(#mask0_34_12999)">
<rect x="-0.429199" y="-0.429199" width="24.858" height="24.8585" fill="#00BFB3"/>
</g>
</svg>
