<svg width="45" height="36" viewBox="0 0 45 36" fill="none" xmlns="http://www.w3.org/2000/svg">
<path d="M38.7201 16.3276C38.6473 16.3871 38.5745 16.444 38.5 16.5H20.1183C19.9813 16.444 19.845 16.3865 19.7093 16.3276C17.7687 15.4876 15.9625 14.3691 14.3483 13.0077C13.2765 12.1045 12.2904 11.1719 11.5755 10.298C10.5782 9.07848 9.65975 7.74948 9.23256 6.23519C8.80625 4.72089 8.9336 2.9851 9.88589 1.72936C10.1808 1.34308 10.5433 1.01287 10.956 0.754589C11.0245 0.711495 11.0938 0.670126 11.1648 0.631342C12.3069 -0.00643829 13.7478 -0.161574 15.0337 0.16852C16.875 0.641684 18.4052 1.96292 19.497 3.51256C20.5888 5.06133 21.2976 6.84022 21.9959 8.59929C22.7047 5.45951 24.851 2.64724 27.7503 1.21741C30.6487 -0.212424 34.2499 -0.195187 37.0867 1.35359C37.9793 1.84385 38.7857 2.47555 39.4739 3.22383C39.5424 3.29709 39.6091 3.37207 39.675 3.44792C41.0587 5.04151 41.9244 7.0824 41.9954 9.18708C42.0864 11.8985 40.8231 14.622 38.7201 16.3276Z" fill="#F2F2F2"/>
<path d="M21 16.5H20.744C20.7406 16.4401 20.7363 16.381 20.7312 16.3211C20.6417 15.1509 20.4543 13.9913 20.1713 12.8555C19.5219 10.2624 18.4128 7.82067 16.9017 5.65769C15.395 3.48779 13.4955 1.64998 11.3116 0.249056C11.2793 0.229616 11.2572 0.195626 11.2519 0.156914C11.2434 0.105921 11.2637 0.0543459 11.304 0.0244906C11.3444 -0.00536481 11.3976 -0.00814214 11.4405 0.0173596C11.4464 0.0209186 11.4521 0.0248005 11.4576 0.0289891C12.6949 0.819489 13.8435 1.75334 14.8816 2.81292C16.7387 4.71177 18.2361 6.96188 19.2948 9.44445C20.2288 11.6187 20.801 13.9445 20.9864 16.3211C20.9915 16.381 20.9957 16.441 21 16.5Z" fill="white"/>
<path d="M39.6617 3.25352C39.6598 3.2545 39.6577 3.2551 39.6556 3.25527C39.4656 3.29026 39.2747 3.327 39.0855 3.36636C37.5327 3.68782 36.0127 4.15309 34.5448 4.75626C33.0808 5.35857 31.6725 6.09035 30.3364 6.94301C28.9987 7.79524 27.7372 8.76341 26.5663 9.83652C25.3954 10.9081 24.3213 12.0825 23.3567 13.3458C22.6357 14.2924 21.9802 15.2878 21.3948 16.3251C21.3618 16.3828 21.3297 16.4414 21.2976 16.5H21C21.0312 16.4414 21.0633 16.3828 21.0963 16.3251C21.8045 15.0541 22.6166 13.8449 23.5241 12.7099C24.5277 11.4538 25.6401 10.2903 26.8483 9.23298C28.0488 8.18164 29.3372 7.23695 30.6992 6.40944C32.0668 5.5786 33.5047 4.87141 34.996 4.29617C36.4433 3.73843 37.9374 3.31336 39.4604 3.0261C39.5029 3.01823 39.5445 3.01035 39.5871 3.00248C39.7493 2.97274 39.8187 3.21941 39.6617 3.25352Z" fill="white"/>
<path fill-rule="evenodd" clip-rule="evenodd" d="M1.48256 16.5H43.5174C44.3358 16.5011 44.9988 17.1491 45 17.9489V33.8011C44.9988 34.6009 44.3358 35.2489 43.5174 35.25H1.48256C0.664244 35.2489 0.0011581 34.6009 0 33.8011V17.9489C0.00115858 17.1491 0.664244 16.5011 1.48256 16.5ZM43.5173 35.0794C44.2394 35.0785 44.8246 34.5067 44.8255 33.801V17.9487C44.8246 17.243 44.2394 16.6711 43.5173 16.6703H1.48246C0.760355 16.6711 0.175195 17.243 0.174316 17.9487V33.801C0.175195 34.5067 0.760355 35.0785 1.48246 35.0794H43.5173Z" fill="#3F3D56"/>
<path fill-rule="evenodd" clip-rule="evenodd" d="M3.75 25.875C3.75 28.5674 5.93261 30.75 8.625 30.75C11.3161 30.747 13.497 28.5661 13.5 25.875C13.5 23.1826 11.3174 21 8.625 21C5.93261 21 3.75 23.1826 3.75 25.875ZM3.91846 25.875C3.91846 23.2754 6.02581 21.1681 8.62535 21.1681C11.2237 21.171 13.3293 23.2767 13.3323 25.875C13.3323 28.4745 11.2249 30.5819 8.62535 30.5819C6.02581 30.5819 3.91846 28.4745 3.91846 25.875Z" fill="#3F3D56"/>
<path d="M19.0987 22.5C18.509 22.5003 18.0248 22.9775 18.0018 23.5809C18.0004 23.5955 17.9998 23.6103 18.0001 23.625C18.0009 24.246 18.4923 24.7491 19.0987 24.75H39.4014C40.0081 24.75 40.5 24.2463 40.5 23.625C40.5 23.0037 40.0081 22.5 39.4014 22.5L19.0987 22.5Z" fill="#C42EA5"/>
<path d="M39.4014 26.25H19.0987C18.509 26.2503 18.0248 26.7275 18.0018 27.3309C18.0004 27.3455 17.9998 27.3603 18.0001 27.375C18.0009 27.996 18.4923 28.4991 19.0987 28.5H39.4014C40.0081 28.5 40.5 27.9963 40.5 27.375C40.5 26.7537 40.0081 26.25 39.4014 26.25V26.25Z" fill="#C42EA5"/>
<path d="M8.0551 27.75C7.91888 27.7502 7.78627 27.7072 7.67728 27.6273L7.67053 27.6224L6.24768 26.5578C6.06841 26.4235 5.97604 26.206 6.00536 25.9872C6.03468 25.7684 6.18124 25.5814 6.38983 25.4968C6.59841 25.4122 6.83734 25.4428 7.01661 25.577L7.93822 26.2676L10.1161 23.4919C10.2181 23.3619 10.3688 23.2768 10.535 23.2553C10.7013 23.2339 10.8694 23.2778 11.0024 23.3775L10.9889 23.3955L11.0028 23.3778C11.2794 23.5856 11.3318 23.9731 11.1198 24.2439L8.55802 27.5089C8.43793 27.6614 8.252 27.7505 8.0551 27.75V27.75Z" fill="#C42EA5"/>
<path d="M34.403 12.9009C32.5617 12.6664 30.6918 12.7054 28.8638 13.0166C27.0411 13.3252 25.2814 13.895 23.6482 14.7054C22.7303 15.1622 21.8592 15.6952 21.0454 16.2979C20.9125 16.3963 21.1007 16.5686 21.2324 16.4711C22.6603 15.4192 24.2608 14.5859 25.9733 14.003C27.6722 13.421 29.458 13.0855 31.2675 13.0083C32.2913 12.9647 33.3174 13.0078 34.3328 13.1371C34.4028 13.1526 34.4739 13.1152 34.4954 13.0515C34.5143 12.9864 34.4732 12.9192 34.403 12.9009H34.403Z" fill="white"/>
</svg>
