<?xml version="1.0" encoding="UTF-8"?>
<svg width="40px" height="40px" viewBox="0 0 40 40" version="1.1" xmlns="http://www.w3.org/2000/svg" xmlns:xlink="http://www.w3.org/1999/xlink">
    <title>Group 27</title>
    <defs>
        <circle id="path-1" cx="20" cy="20" r="20"></circle>
        <path d="M-1.74386808,3.63078925 L3.9763377,10.4456084 L3.9763377,10.4456084 C4.08103986,10.5602063 4.22578042,10.625 4.37707498,10.625 C4.52836955,10.625 4.6731101,10.5602063 4.77781227,10.4456084 L10.4954142,3.63078925 C10.5878064,3.52156299 10.6340356,3.37769039 10.6235334,3.23206144 C10.6130312,3.08643249 10.5466955,2.95149785 10.4396911,2.85810427 L9.47625514,2.00727647 C9.25272368,1.80953167 8.91934118,1.83653447 8.72737897,2.06793279 L4.4752413,7.2335559 C4.45050834,7.26371581 4.41447338,7.28106256 4.37655421,7.28106256 C4.33863503,7.28106256 4.30260007,7.26371581 4.27786712,7.2335559 L0.0241671171,2.06738633 C-0.0681715108,1.95668365 -0.198442032,1.88872966 -0.338293118,1.87831349 C-0.478384313,1.86520786 -0.617571039,1.91211711 -0.724188282,2.00836938 L-1.68814503,2.85810427 C-1.79576497,2.95133214 -1.86267836,3.08643221 -1.87354135,3.23242479 C-1.88407605,3.37823604 -1.83721106,3.52220824 -1.74386808,3.63078925 Z" id="path-3"></path>
    </defs>
    <g id="---↳--Tasks" stroke="none" stroke-width="1" fill="none" fill-rule="evenodd">
        <g id="Home-Page---w/-Visits" transform="translate(-809.000000, -681.000000)">
            <g id="Tasks" transform="translate(477.000000, 306.000000)">
                <g id="Group-12-Copy-3" transform="translate(16.000000, 351.000000)">
                    <g id="Group-27" transform="translate(316.000000, 24.000000)">
                        <mask id="mask-2" fill="white">
                            <use xlink:href="#path-1"></use>
                        </mask>
                        <circle stroke="#D9D9D9" cx="20" cy="20" r="19.5"></circle>
                        <g id="icon" transform="translate(15.625000, 13.750000)">
                            <mask id="mask-4" fill="white">
                                <use xlink:href="#path-3" transform="translate(4.375000, 6.250000) rotate(-90.000000) translate(-4.375000, -6.250000) "></use>
                            </mask>
                            <use id="Mask" fill="#000000" fill-rule="nonzero" transform="translate(4.375000, 6.250000) rotate(-90.000000) translate(-4.375000, -6.250000) " xlink:href="#path-3"></use>
                            <g id="color" mask="url(#mask-4)" fill="#C42EA5">
                                <g transform="translate(-5.625000, -3.750000)" id="Rectangle">
                                    <rect x="0" y="0" width="20" height="20"></rect>
                                </g>
                            </g>
                        </g>
                    </g>
                </g>
            </g>
        </g>
    </g>
</svg>