<?xml version="1.0" encoding="UTF-8"?>
<svg width="60px" height="47px" viewBox="0 0 60 47" version="1.1" xmlns="http://www.w3.org/2000/svg" xmlns:xlink="http://www.w3.org/1999/xlink">
    <title>A5E9F31E-D2FE-463B-BD10-F554022927DB</title>
    <g id="---↳--Tasks" stroke="none" stroke-width="1" fill="none" fill-rule="evenodd">
        <g id="PP-Lite---Open-Tasks---Desktop" transform="translate(-452.000000, -297.000000)" fill-rule="nonzero">
            <g id="task-1" transform="translate(428.000000, 272.000000)">
                <g id="Task-Illustration" transform="translate(24.000000, 25.000000)">
                    <path d="M51.6267664,21.7701693 C51.529738,21.8494609 51.432653,21.925305 51.3333151,22 L26.8243426,22 C26.6417928,21.925305 26.4600329,21.8486948 26.2790628,21.7701693 C23.6916556,20.650166 21.2833717,19.1587842 19.1310844,17.3436295 C17.7019409,16.1393165 16.3871995,14.8959323 15.4340605,13.7306906 C14.104315,12.1046382 12.8796643,10.3326433 12.3100754,8.31358616 C11.7416672,6.29452325 11.911468,3.98012786 13.1811866,2.30581104 C13.574359,1.7907678 14.0577077,1.35048824 14.6080183,1.0061183 C14.6992886,0.948660619 14.7916968,0.893501246 14.8864123,0.841789333 C16.4091448,-0.00858434441 18.330428,-0.215431996 20.0449609,0.22469384 C22.5000158,0.855579176 24.5402728,2.61723167 25.9959874,4.68340988 C27.451701,6.74843893 28.3967735,9.120292 29.3279117,11.4657145 C30.2729842,7.2793479 33.1347129,3.52965965 37.00041,1.62321379 C40.8649772,-0.283232059 45.6664939,-0.260248987 49.4489825,1.80478006 C50.6391307,2.45846415 51.7142052,3.30072752 52.6319225,4.29844342 C52.7231408,4.39612147 52.8121593,4.49609784 52.8999359,4.59722336 C54.7449507,6.7220084 55.8991465,9.44320416 55.9938585,12.2494373 C56.1152006,15.8646677 54.4307349,19.4959966 51.6267664,21.7701693 Z" id="Path" fill="#F2F2F2"></path>
                    <path d="M28,22 L27.6586202,22 C27.6541197,21.9200842 27.6483959,21.8413611 27.6415626,21.7614453 C27.5222337,20.2012446 27.2724443,18.6550391 26.8950719,17.1406403 C26.0292624,13.6832518 24.5503776,10.4275623 22.5356449,7.54358375 C20.5266784,4.65038151 17.9940527,2.19996849 15.0821858,0.332074458 C15.0390172,0.30615404 15.0096461,0.260834992 15.0025635,0.209218776 C14.9911892,0.141228404 15.0182541,0.0724612552 15.0720548,0.032654084 C15.1258555,-0.00715308728 15.1967363,-0.0108561921 15.2540467,0.0231460912 C15.2618772,0.0278914904 15.269463,0.0330673956 15.2767723,0.0386521482 C16.9265116,1.09265207 18.4579349,2.33778034 19.8421719,3.75056365 C22.3182369,6.28236604 24.3147883,9.28250523 25.7264219,12.5925945 C26.9717972,15.4916084 27.7346162,18.5926626 27.9818397,21.7614453 C27.9886651,21.8413587 27.9943274,21.9212805 28,22 Z" id="Path" fill="#FFFFFF"></path>
                    <path d="M52.8822115,4.33802884 C52.8796989,4.33933842 52.8769531,4.3401313 52.8741337,4.34036138 C52.6207716,4.38701212 52.3662224,4.4359954 52.1139906,4.48847748 C50.0436341,4.91709104 48.0169489,5.53745685 46.0597329,6.34167823 C44.1076733,7.14476413 42.2299649,8.12046232 40.4485911,9.25734965 C38.6649367,10.3936486 36.9829502,11.6845414 35.4217358,13.1153661 C33.860496,14.5441347 32.4283475,16.1099877 31.1422012,17.7944356 C30.1809326,19.0565049 29.3069299,20.3837417 28.5263829,21.7667463 C28.4824332,21.84372 28.4396127,21.92186 28.3967933,22 L28,22 C28.0416335,21.92186 28.0844564,21.84372 28.1284037,21.7667463 C29.0727166,20.0721445 30.1555008,18.4598341 31.3655119,16.9465583 C32.7036007,15.2717944 34.1868592,13.7203715 35.7977424,12.3106408 C37.3983624,10.9088604 39.116254,9.64926169 40.9322125,8.54592582 C42.7557175,7.43812899 44.6729151,6.49521465 46.6613618,5.72822097 C48.5910034,4.98457746 50.58322,4.41780968 52.613823,4.03479901 C52.6704828,4.02430259 52.7260146,4.01380618 52.7827357,4.00330976 C52.9990354,3.9636543 53.0916239,4.29254203 52.8822115,4.33802884 Z" id="Path" fill="#FFFFFF"></path>
                    <path d="M58.0232558,22 L1.97674419,22 C0.885659024,22.0015097 0.00154477199,22.8655304 0,23.9318182 L0,45.0681818 C0.00154413327,46.1344698 0.885658759,46.998491 1.97674419,47 L58.0232558,47 C59.1143415,46.9984916 59.9984565,46.1344701 60,45.0681818 L60,23.9318182 C59.9984559,22.8655302 59.1143412,22.001509 58.0232558,22 L58.0232558,22 Z M59.7674419,45.0681818 C59.7662707,46.0091018 58.9860576,46.7715827 58.0232558,46.7727273 L1.97674419,46.7727273 C1.01394237,46.7715827 0.233729334,46.0091018 0.23255814,45.0681818 L0.23255814,23.9318182 C0.233729334,22.9908982 1.01394237,22.2284173 1.97674419,22.2272727 L58.0232558,22.2272727 C58.9860576,22.2284173 59.7662707,22.9908982 59.7674419,23.9318182 L59.7674419,45.0681818 Z" id="Shape" fill="#3F3D56"></path>
                    <path d="M11.5,41 C7.91014913,41 5,38.0898509 5,34.5 C5,30.9101491 7.91014913,28 11.5,28 C15.0898509,28 18,30.9101491 18,34.5 C17.9959448,38.0881698 15.0881698,40.9959448 11.5,41 L11.5,41 Z M11.5,28.2241379 C8.03393709,28.2241379 5.22413793,31.0339371 5.22413793,34.5 C5.22413793,37.9660629 8.03393709,40.7758621 11.5,40.7758621 C14.9660629,40.7758621 17.7758621,37.9660629 17.7758621,34.5 C17.7719385,31.0355636 14.9644364,28.2280615 11.5,28.2241379 L11.5,28.2241379 Z" id="Shape" fill="#3F3D56"></path>
                    <path d="M25.4649366,30 C24.6786601,30.0004651 24.0330638,30.6366609 24.0024414,31.4412 C24.0004896,31.4607327 24,31.4803694 24,31.5 C24.0012349,32.3279442 24.6563999,32.9988354 25.4649366,33 L52.535161,33 C53.3441692,33 54,32.3284271 54,31.5 C54,30.6715729 53.3441692,30 52.535161,30 L25.4649366,30 Z" id="Path" fill="#C42EA5"></path>
                    <path d="M52.535161,35 L25.4649366,35 C24.6786601,35.0004651 24.0330638,35.6366609 24.0024414,36.4412 C24.0004896,36.4607327 24,36.4803694 24,36.5 C24.0012349,37.3279442 24.6563999,37.9988354 25.4649366,38 L52.535161,38 C53.3441692,38 54,37.3284271 54,36.5 C54,35.6715729 53.3441692,35 52.535161,35 L52.535161,35 Z" id="Path" fill="#C42EA5"></path>
                    <path d="M10.7401327,37 C10.5585084,37.0003296 10.381699,36.9429332 10.2363757,36.8364658 L10.227367,36.8298555 L8.33024256,35.4103615 C8.09121759,35.2313818 7.96805441,34.9413776 8.00714739,34.6495905 C8.04624037,34.3578035 8.24165036,34.108563 8.5197683,33.9957555 C8.79788624,33.8829481 9.1164594,33.9237119 9.35548435,34.1026915 L10.5842978,35.0235136 L13.4881788,31.3224979 C13.6241933,31.1491337 13.8251095,31.0356764 14.0467249,31.007087 C14.2683403,30.9784976 14.4924998,31.0371183 14.6698873,31.1700521 L14.651833,31.1940092 L14.6703508,31.1704009 C15.0392598,31.4474856 15.1090433,31.9641156 14.8263429,32.3252609 L11.4106894,36.6785416 C11.2505684,36.8818713 11.0026711,37.0007096 10.7401327,37 L10.7401327,37 Z" id="Path" fill="#C42EA5"></path>
                    <path d="M45.870723,17.2012335 C43.4156353,16.8884971 40.922392,16.9405586 38.4850187,17.3554547 C36.0547537,17.7669219 33.7085673,18.5266155 31.530903,19.6071926 C30.3070914,20.2162093 29.1455471,20.9269273 28.0605891,21.7305851 C27.8833503,21.8617158 28.1342556,22.0914144 28.3098914,21.96147 C30.2136762,20.5589335 32.3477778,19.4479085 34.6310759,18.6706267 C36.8963082,17.8947132 39.2773173,17.4473645 41.6899579,17.34439 C43.055109,17.2863277 44.4231331,17.3437995 45.7770014,17.5160898 C45.8704163,17.5368142 45.9651982,17.4869749 45.9938511,17.4020633 C46.0191232,17.3151889 45.9642304,17.2256518 45.8707277,17.2012335 L45.870723,17.2012335 Z" id="Path" fill="#FFFFFF"></path>
                </g>
            </g>
        </g>
    </g>
</svg>