<?xml version="1.0" encoding="UTF-8"?>
<svg width="23px" height="24px" viewBox="0 0 23 24" version="1.1" xmlns="http://www.w3.org/2000/svg" xmlns:xlink="http://www.w3.org/1999/xlink">
    <title>multiple-actions-information</title>
    <g id="---↳--Messages" stroke="none" stroke-width="1" fill="none" fill-rule="evenodd">
        <g id="Messages---P&amp;A-Mobile-13" transform="translate(-333.000000, -360.000000)" fill="#015FF1" fill-rule="nonzero">
            <g id="multiple-actions-information" transform="translate(333.000000, 360.000000)">
                <path d="M16.7744337,11 C13.3341599,11 10.545267,13.9101491 10.545267,17.5 C10.545267,21.0898509 13.3341599,24 16.7744337,24 C20.2147074,24 23.0036004,21.0898509 23.0036004,17.5 C22.9993761,13.9119765 20.2129562,11.0044079 16.7744337,11 L16.7744337,11 Z M16.295267,13.25 C16.8245399,13.25 17.2536004,13.6977153 17.2536004,14.25 C17.2536004,14.8022847 16.8245399,15.25 16.295267,15.25 C15.7659941,15.25 15.3369337,14.8022847 15.3369337,14.25 C15.3369337,13.6977153 15.7659941,13.25 16.295267,13.25 Z M18.2119337,21.75 L15.3369337,21.75 C14.939979,21.75 14.6181837,21.4142136 14.6181837,21 C14.6181837,20.5857864 14.939979,20.25 15.3369337,20.25 L15.8161004,20.25 C15.9484186,20.25 16.0556837,20.1380712 16.0556837,20 L16.0556837,18 C16.0559397,17.9336143 16.0307802,17.8698705 15.985794,17.8229284 C15.9408078,17.7759863 15.8797199,17.7497329 15.8161004,17.75 L15.3369337,17.75 C14.939979,17.75 14.6181837,17.4142136 14.6181837,17 C14.6181837,16.5857864 14.939979,16.25 15.3369337,16.25 L16.295267,16.25 C16.9564205,16.2511012 17.4921284,16.8101007 17.4931837,17.5 L17.4931837,20 C17.4931837,20.1380712 17.6004488,20.25 17.732767,20.25 L18.2119337,20.25 C18.6088884,20.25 18.9306837,20.5857864 18.9306837,21 C18.9306837,21.4142136 18.6088884,21.75 18.2119337,21.75 Z" id="Shape"></path>
                <path d="M11.525642,8.534 C11.3901943,8.59789744 11.2908359,8.72377114 11.2566854,8.87473168 C11.2225349,9.02569221 11.25746,9.1846427 11.3512254,9.305 C11.6382692,9.67470977 11.8908185,10.072181 12.1054337,10.492 C12.1677769,10.6127267 12.2749043,10.7014343 12.4017394,10.7373578 C12.5285745,10.7732812 12.6639826,10.753267 12.776267,10.682 C13.9778689,9.90805198 15.3623555,9.49874862 16.7744337,9.5 C16.9121615,9.50092734 17.033587,9.40592734 17.071336,9.26771178 C17.109085,9.12949621 17.0538964,8.98197422 16.936392,8.907 C15.3057533,7.84734738 13.2757026,7.7074021 11.525642,8.534 L11.525642,8.534 Z" id="Path"></path>
                <ellipse id="Oval" cx="13.4327254" cy="3.5" rx="3.366625" ry="3.5"></ellipse>
                <path d="M11.0848087,11.733 C10.0852907,9.18765862 7.56079998,7.67167043 4.94955606,8.04870424 C2.33831215,8.42573806 0.303184964,10.600083 0.00360035848,13.333 C-0.0147506242,13.5033795 0.0376270166,13.6738118 0.147513156,13.8012797 C0.257399295,13.9287476 0.414295215,14.0010727 0.578600358,14.0000118 L9.59747536,14.0000118 C9.77423111,14.000074 9.93667165,13.8986027 10.0201004,13.736 C10.2923079,13.2041566 10.6215293,12.7062986 11.0014337,12.252 C11.1212808,12.1094885 11.1535683,11.9085022 11.0848087,11.733 Z" id="Path"></path>
                <ellipse id="Oval" cx="5.28689203" cy="3.5" rx="3.366625" ry="3.5"></ellipse>
            </g>
        </g>
    </g>
</svg>