<?xml version="1.0" encoding="UTF-8"?>
<svg width="73px" height="55px" viewBox="0 0 73 55" version="1.1" xmlns="http://www.w3.org/2000/svg" xmlns:xlink="http://www.w3.org/1999/xlink">
    <title>undraw_video_call_re_4p26</title>
    <g id="---↳--Notifications-(Updates)" stroke="none" stroke-width="1" fill="none" fill-rule="evenodd">
        <g id="Master-Notification-Types-Copy" transform="translate(-994.000000, -957.000000)" fill-rule="nonzero">
            <g id="Group-5-Copy" transform="translate(960.000000, 942.000000)">
                <g id="undraw_video_call_re_4p26" transform="translate(34.000000, 15.000000)">
                    <circle id="Oval" fill="#F0F0F0" cx="7" cy="7" r="7"></circle>
                    <circle id="Oval" fill="#F0F0F0" cx="66" cy="23" r="7"></circle>
                    <path d="M42.836235,53.5108546 L41.5770876,53.006355 L40.7133175,47 L29.2106646,47 L28.2744018,52.981816 L27.1478963,53.5177764 C27.0369306,53.5705742 26.9786767,53.6890435 27.0071837,53.8039395 C27.0356906,53.9188356 27.1434767,54 27.2675413,54 L42.7324584,54 C42.8597938,54 42.9694853,53.9146045 42.9946836,53.7958335 C43.0198819,53.6770626 42.9536013,53.557853 42.836235,53.5108546 Z" id="Path" fill="#E6E6E6"></path>
                    <path d="M63.8780759,47 L7.12192409,47 C6.50189826,46.9986268 6,46.5026505 6,45.8913044 L6,38 L65,38 L65,45.8913044 C65,46.502648 64.4980992,46.9986207 63.8780759,47 Z" id="Path" fill="#CCCCCC"></path>
                    <path d="M65,42 L6,42 L6,8.332637 C6.00086388,7.59697603 6.60611992,7.00082457 7.35298938,7 L63.6469942,7 C64.3938671,7.00082268 64.999129,7.59697263 65,8.332637 L65,42 Z" id="Path" fill="#3F3D56"></path>
                    <path d="M60.9576876,40 L9.04231236,40 C8.4669319,39.9993604 8.00064653,39.5262193 8,38.9423626 L8,10.0577032 C8.00064171,9.47383381 8.46691944,9.00067101 9.04231236,9 L60.9576876,9 C61.5330806,9.00067101 61.9993583,9.47383381 62,10.0577032 L62,38.94236 C61.9993549,39.5262177 61.5330691,39.9993604 60.9576876,40 Z" id="Path" fill="#FFFFFF"></path>
                    <path d="M49.8654582,54.0499883 L20.1400282,54.0499883 C20.0774133,54.0504822 20.0217525,54.0352423 20.0044516,54.0128675 C19.9938058,53.9978571 20.0024913,53.9818602 20.0279654,53.9695597 C20.0534395,53.9572592 20.0928208,53.9500464 20.1345808,53.9500328 L49.8544426,53.9500328 C49.9205748,53.9491715 49.9795761,53.9653703 49.9968092,53.9891196 C50.0056393,54.0039287 49.9959223,54.0194273 49.9703894,54.0312594 C49.9448564,54.0430915 49.9062637,54.0499798 49.8654582,54.0499883 Z" id="Path" fill="#CCCCCC"></path>
                    <path d="M55.8890136,33.9996254 L45.1109872,33.9996254 C45.0551601,34.0043956 45.0058271,33.9630152 45,33.9065296 L45,25.0934704 C45.0058271,25.0369848 45.0551601,24.9956044 45.1109872,25.0003745 L55.8890136,25.0003745 C55.9448413,24.995602 55.9941755,25.0369837 56,25.0934704 L56,33.9065321 C55.9941743,33.9630178 55.9448405,34.004398 55.8890136,33.9996254 L55.8890136,33.9996254 Z" id="Path" fill="#F0F0F0"></path>
                    <path d="M53.8974353,26 L46.102564,26 C46.0459545,26.0000948 46.0000845,26.0515101 46,26.1149633 L46,32.8850358 C46.000085,32.9484889 46.0459545,32.9999043 46.102564,33 L53.8974353,33 C53.9540448,32.9999043 53.9999146,32.9484891 54,32.8850358 L54,26.1149633 C53.999915,26.05151 53.9540448,26.0000948 53.8974353,26 L53.8974353,26 Z" id="Path" fill="#FFFFFF"></path>
                    <circle id="Oval" fill="#FFB8B8" cx="49.1" cy="29.5" r="1.5"></circle>
                    <polygon id="Path" fill="#005587" points="51 33 48 33 48.0980153 31.2940981 48.121337 31.2751455 48.4580497 31 49.5293401 31 49.9264527 31.2975062 49.9584796 31.3215295 50.8039693 31.9482959"></polygon>
                    <path d="M48.5,33 L46.5076417,33 C46.5027359,32.5569712 46.5,32.291707 46.5,32.291707 L46.6152618,32.2205447 L46.615809,32.2202683 L46.616092,32.2202683 L47.8856951,31.4388764 L48.1522845,31 L48.1536581,31.0155061 L48.2320559,31.9406064 C48.2320559,31.9406064 48.3615179,32.3648068 48.5,33 Z" id="Path" fill="#2F2E41"></path>
                    <path d="M52,33 L50.0705836,33 C50.0997999,31.7080132 49.9424753,31 50.023394,31 L50.0705836,31.0412585 L50.63922,31.5391125 L51.3886686,31.8439726 L51.3891688,31.8439726 L51.9058596,32.0541338 L51.9965111,32.0909616 L51.9965111,32.1383111 C51.9967569,32.2518328 51.9972563,32.5622311 52,33 Z" id="Path" fill="#2F2E41"></path>
                    <path d="M47.9259378,30 C47.9259378,30 48.0337481,29.827418 48.0086835,29.25088 C47.983619,28.6743419 48.9467577,29.0004255 49.7515609,28.9454267 C50.5563641,28.8904279 50.3860017,29.9079704 50.3860017,29.9079704 C50.3860017,29.9079704 50.4440628,29.8474833 50.5683728,29.3563841 C50.6926829,28.865285 50.4104334,28.3758919 50.4104334,28.3758919 C50.3273067,27.8598418 49.8793128,28.0252359 49.8793128,28.0252359 C49.9966479,28.0524224 50.0721084,28.1564313 50.053624,28.2654929 C49.8709989,27.9736327 49.4230031,28.1390268 49.4230031,28.1390268 C48.8255086,27.7972555 48.2199542,28.2473247 48.2199542,28.2473247 C47.4981506,28.3966489 47.9214609,28.9198841 47.9214609,28.9198841 C47.1955715,29.254269 47.9259378,30 47.9259378,30 Z" id="Path" fill="#2F2E41"></path>
                    <path d="M47,33 L46.002366,33 C46.010146,32.8688644 46.0103683,32.7373428 46.0030317,32.6061781 C45.9434465,32.3529819 46.7816318,32.0106546 46.8069216,32.0003545 L46.8075884,32 L46.8079333,32 L46.9677074,32.0916196 L47,33 Z" id="Path" fill="#2F2E41"></path>
                    <path d="M52,33 L51.1109773,33 L51,32.076631 L51.1245322,32 C51.1245322,32 51.1358398,32.0021428 51.1558888,32.006426 L51.1564546,32.006426 C51.3595755,32.0453594 51.5559401,32.1060626 51.7407526,32.1870532 C51.7799584,32.2055955 51.8147223,32.2301299 51.8432655,32.259401 C51.860747,32.2770722 51.8694488,32.2997526 51.8675526,32.3227034 C51.8630297,32.3572112 51.9149953,32.6113756 52,33 Z" id="Path" fill="#2F2E41"></path>
                    <path d="M55.8890136,22.9996268 L45.1109864,22.9996268 C45.0551495,23.0043896 45.0058146,22.9630074 45,22.9065312 L45,14.0934697 C45.0058147,14.0369933 45.0551493,13.9956109 45.1109864,14.0003732 L55.8890136,14.0003732 C55.9448511,13.9956095 55.9941866,14.0369926 56,14.0934697 L56,22.9065312 C55.9941862,22.9630079 55.9448508,23.0043906 55.8890136,22.9996268 Z" id="Path" fill="#F0F0F0"></path>
                    <path d="M53.897436,15 L46.102564,15 C46.0459549,15.0000957 46.0000854,15.0515105 46,15.1149633 L46,21.8850367 C46.0000854,21.9484895 46.0459549,21.9999043 46.102564,22 L53.897436,22 C53.9540451,21.9999043 53.9999146,21.9484895 54,21.8850367 L54,15.1149633 C53.9999146,15.0515105 53.9540451,15.0000957 53.897436,15 Z" id="Path" fill="#FFFFFF"></path>
                    <path d="M51.8691991,22 C51.9266012,21.7575017 51.9712142,21.5485004 51.9941113,21.4005582 C52.0011883,21.3549384 52.0018916,21.3082717 51.9961936,21.262387 C51.9105362,20.5474528 50.3633562,19.9431267 50.1649768,19.8684572 L50.1170921,19.2459871 L48.1695919,19 L47.9230299,19.7962317 L47.2240965,20.1036285 C47.1987983,20.1145908 47.174729,20.1291183 47.1524178,20.1468918 C47.032341,20.242005 46.9754872,20.4148083 47.0099542,20.5799002 L47.3076716,22 L51.8692073,22 L51.8691991,22 Z" id="Path" fill="#005587"></path>
                    <path d="M49,22 L47,22 C47.0716459,21.5731216 47.1358146,21.195559 47.1775338,20.9553928 C47.3302552,20.081307 47.996262,20.006775 48.1005674,20.0007541 C48.1088413,20 48.1139544,20 48.1143487,20 L48.5351293,20 L49,22 Z" id="Path" fill="#005587"></path>
                    <path d="M51.5695315,22 L52,22 C51.979086,21.7342128 51.8814414,21.4800106 51.7187279,21.2677525 C51.6371015,21.1608534 51.5317812,21.0739848 51.4109016,21.013856 L51.3784065,21 L51,22 L51.5695315,22 Z" id="Path" fill="#005587"></path>
                    <circle id="e3e8db5d-807d-4643-8c1f-aca9b0b4bfae" fill="#A0616A" cx="49.5" cy="18.5" r="1.5"></circle>
                    <path d="M48.6017923,18.1298883 C48.7423037,18.2773689 48.9800458,18.3189627 49.1993884,18.3358788 C49.7122001,18.3610099 50.2264771,18.3237726 50.7279028,18.2252033 C50.7591676,18.4922762 50.67431,18.7802654 50.8516206,19 C50.9347647,18.7340031 50.9831112,18.4604018 50.9957056,18.1845981 C51.0089302,18.0662678 50.9915152,17.9468214 50.9447885,17.835367 C50.8937947,17.721419 50.7741084,17.6431596 50.6362999,17.6336553 C50.7374234,17.5656348 50.8558713,17.5207392 50.9811888,17.5029311 L50.5502333,17.310846 L50.6609099,17.2100695 L49.8806827,17.1677227 L50.1066791,17.0404061 C49.7664257,16.9989662 49.4222031,16.9893671 49.0796866,17.0117672 C48.9196832,17.0118177 48.7627166,17.0505184 48.6256385,17.1237144 C48.496828,17.2054361 48.4223748,17.3678108 48.5023672,17.4877611 C48.2988053,17.5174115 48.1270062,17.6383188 48.0481859,17.8074009 C47.9991534,17.9395942 47.9873164,18.0804175 48.0137066,18.217598 C48.0430927,18.4376867 48.1007558,18.6540737 48.1855723,18.8625427" id="b5b1c5aa-1c33-4801-a876-6607b8c48426-86" fill="#2F2E41"></path>
                    <path d="M15,33.7921688 L15,14.2078312 C15.0141976,14.0814295 15.1262119,13.9895611 15.2522426,14.0009547 L39.7477574,14.0009547 C39.8737872,13.9895639 39.9857998,14.0814309 40,14.2078312 L40,33.7921688 C39.9857998,33.9185691 39.8737872,34.0104361 39.7477574,33.9990453 L15.2522426,33.9990453 C15.1262119,34.0104389 15.0141976,33.9185705 15,33.7921688 Z" id="Path" fill="#E4E4E4"></path>
                    <path d="M18,16.2627733 L18,31.7372259 C18.0002135,31.8822613 18.1148875,31.9997812 18.2564107,32 L37.7435902,32 C37.8851132,31.9997812 37.9997869,31.8822611 38,31.7372259 L38,16.2627733 C37.9997865,16.1177383 37.8851129,16.0002188 37.7435902,16 L18.2564107,16 C18.1148877,16.0002183 18.0002135,16.117738 18,16.2627733 L18,16.2627733 Z" id="Path" fill="#FFFFFF"></path>
                    <path d="M26,33 L31,33 L30.6883766,28.2800627 L28.8846473,28.7001489 L27.1303279,28.0190624 L27.083826,28.0014679 L27.080918,28 C27.0802918,28.0014146 27.0798046,28.0028877 27.0794635,28.0043983 C27.0518681,28.1165739 26.5012291,30.341643 26,33 Z" id="Path" fill="#005587"></path>
                    <polygon id="Path" fill="#2F2E41" points="23 29.0736937 23.3991216 33 27 33 26.5406971 28.0481708 26.536305 28 26.5009812 28.0306143 26.4972432 28.0335769 25.6089151 28.7945443"></polygon>
                    <path d="M30,33 L33.943074,33 L34,30.3650184 L31.0982912,29.5771959 L30.4470696,29 C30.4470696,29 30.2413611,30.7365649 30,33 Z" id="Path" fill="#2F2E41"></path>
                    <path d="M21,33 L24,33 L23.8076495,30.1345805 L22.7428634,29 C22.7428634,29 21.9003534,30.8830501 21,33 Z" id="Path" fill="#2F2E41"></path>
                    <path d="M31,33 L33,33 C32.9911846,32.1256799 32.9858959,31.5215726 32.9858959,31.3510961 C33.0062679,30.81578 32.6902418,30.3080967 32.1448565,30 L31.1347378,30.2702192 L31,33 Z" id="Path" fill="#2F2E41"></path>
                    <path d="M32,27 L25,27 L25,24.1344102 C25,23.1523281 25.7123454,21.9715968 26.5879233,21.5023306 C27.8168588,20.8437862 29.1603967,20.8322148 30.2739759,21.4707434 C31.3402673,22.0839931 31.9958734,23.196777 32,24.4003863 L32,27 Z" id="Path" fill="#2F2E41"></path>
                    <circle id="Oval" fill="#FFB8B8" transform="translate(28.611554, 24.634279) rotate(-61.336750) translate(-28.611554, -24.634279) " cx="28.6115542" cy="24.6342789" r="2.4959558"></circle>
                    <path d="M30.7703594,24 L27.4202654,24 L27.4123296,23.9618058 C27.3735538,23.7613456 27.323452,23.5632615 27.2622671,23.3685131 C27.1292276,23.5641594 27.0065441,23.7667032 26.8947263,23.9753031 L26.8810718,24 L26.2297885,24 C26.1489838,23.9999208 26.0719412,23.9657156 26.017518,23.9057568 C25.9998017,23.8861678 25.9583462,23.8403355 26.1298859,21.7382696 C26.1394943,21.6364349 26.2017772,21.54719 26.2938387,21.5033427 C27.763767,20.8144955 29.2533498,20.8327251 30.7215513,21.5577979 L30.7477411,21.5577979 L30.7569376,21.5943518 C31.0465866,23.8317126 31.0049213,23.8800287 30.987135,23.9006489 C30.9326556,23.9637667 30.8535539,24 30.7703594,24 Z" id="Path" fill="#2F2E41"></path>
                </g>
            </g>
        </g>
    </g>
</svg>