<?xml version="1.0" encoding="UTF-8"?>
<svg width="166px" height="120px" viewBox="0 0 166 120" version="1.1" xmlns="http://www.w3.org/2000/svg" xmlns:xlink="http://www.w3.org/1999/xlink">
    <title>E7217F2F-1D37-40F7-B1A8-2CFD3153C032</title>
    <g id="---↳-eDiaries" stroke="none" stroke-width="1" fill="none" fill-rule="evenodd">
        <g id="eDiaries-—-Mobile1-Copy" transform="translate(-125.000000, -354.000000)" fill-rule="nonzero">
            <g id="undraw_under_construction_-46-pa" transform="translate(125.546726, 354.000000)">
                <path d="M163.237053,116.747718 C163.237053,117.933653 159.151395,119.044924 152.021896,120 L17.1691396,120 C11.1692793,120.012704 5.27302458,118.436496 0.0798726154,115.431557 L0,115.386411 C2.04890622,114.639776 5.74735559,113.943495 10.7810667,113.314932 L10.7810667,113.314932 L11.0067937,113.28715 C13.2640632,113.011069 15.7869961,112.748878 18.5443377,112.500579 C18.6137921,112.500579 18.6849829,112.490161 18.7544374,112.481479 L18.7544374,112.481479 C20.9422525,112.287006 23.2695553,112.104688 25.7363458,111.934525 C25.814482,111.934525 25.8908819,111.920634 25.9690182,111.917161 C26.9205441,111.848865 27.8917488,111.78404 28.8826323,111.722689 L28.8826323,111.722689 L29.2646317,111.69838 C36.4792126,111.250399 44.6800465,110.892708 53.5736886,110.656563 L53.5841068,110.656563 C54.8296566,110.621836 56.0885184,110.59116 57.3606924,110.564536 C58.775248,110.530966 60.2071672,110.501448 61.65645,110.475982 C62.7625121,110.451673 63.8824651,110.434309 65.0058908,110.416945 L65.0319362,110.416945 C70.1003746,110.340545 75.33724,110.302346 80.6921779,110.302346 C93.9336685,110.302346 106.44936,110.5437 117.539499,110.97779 L117.570754,110.97779 C119.27586,111.043772 120.949712,111.116699 122.581892,111.191362 L123.970981,111.257344 C125.812681,111.34532 127.606921,111.439662 129.353701,111.540371 L129.353701,111.540371 C149.894854,112.708942 163.237053,114.606785 163.237053,116.747718 Z" id="Path" fill="#C42EA5" opacity="0.1"></path>
                <g id="Group" opacity="0.2" transform="translate(86.234712, 62.789731)">
                    <path d="M10.2323074,46.7156248 C10.2267581,46.9029027 10.2052653,47.0893675 10.168062,47.2729968 C8.95955465,47.0808395 7.7441018,46.9072033 6.52170351,46.7520884 C6.52170351,46.7034703 6.52170351,46.6531158 6.52170351,46.6027613 C6.53301779,46.082101 6.68285381,45.5738572 6.95579382,45.130327 C7.31348422,44.5642733 7.85696528,44.2100556 8.4560099,44.2291556 C9.05505451,44.2482556 9.57422651,44.6354641 9.89545334,45.2206178 C10.138415,45.6802316 10.2546787,46.1962264 10.2323074,46.7156248 Z" id="Path" fill="#3F3D56"></path>
                    <ellipse id="Oval" fill="#3F3D56" transform="translate(8.475071, 43.689815) rotate(-88.190000) translate(-8.475071, -43.689815) " cx="8.47507051" cy="43.6898148" rx="2.43264205" ry="1.85790649"></ellipse>
                    <ellipse id="Oval" fill="#3F3D56" transform="translate(8.569806, 40.717083) rotate(-88.190000) translate(-8.569806, -40.717083) " cx="8.569806" cy="40.717083" rx="2.43264205" ry="1.85790649"></ellipse>
                    <ellipse id="Oval" fill="#3F3D56" transform="translate(8.662805, 37.744351) rotate(-88.190000) translate(-8.662805, -37.744351) " cx="8.66280512" cy="37.7443511" rx="2.43264205" ry="1.85790649"></ellipse>
                    <ellipse id="Oval" fill="#3F3D56" transform="translate(8.755804, 34.771619) rotate(-88.190000) translate(-8.755804, -34.771619) " cx="8.75580425" cy="34.7716192" rx="2.43264205" ry="1.85790649"></ellipse>
                    <path d="M2.4360456,14.2039976 C2.19152404,13.8729179 1.9710212,13.5247555 1.77622834,13.1621809 L6.68318511,12.5145182 L1.40117432,12.3877638 C0.448536117,10.1281404 0.468003573,7.57601977 1.45500152,5.33119187 L8.42128267,9.22932277 L2.04015524,4.22165706 C3.79483397,1.38366483 6.98893061,-0.235137946 10.3151853,0.0277821854 C13.64144,0.290702317 16.5415475,2.39121473 17.8285699,5.46963487 C19.1155923,8.54805501 18.5735056,12.0876761 16.4241715,14.6398243 C16.8044963,15.1548027 17.1276267,15.7096555 17.3878519,16.2945765 L10.9476882,19.3852995 L17.7767968,17.3311842 C18.6505276,20.2141336 18.009141,23.3433425 16.0716901,25.6500907 C18.8273246,29.3888625 18.2462856,34.6177364 14.7370947,37.660353 C11.2279038,40.7029696 5.96945912,40.5371745 2.65891085,37.2795364 C-0.651637428,34.0218983 -0.902124437,28.7668069 2.08356427,25.2090549 C-0.354480909,21.9002084 -0.210976251,17.3525458 2.43083651,14.2039976 L2.4360456,14.2039976 Z" id="Path" fill="#C42EA5"></path>
                    <path d="M18.155366,20.2083347 C18.0945488,22.2053684 17.3602298,24.1231648 16.0716901,25.6500907 C18.8273246,29.3888625 18.2462856,34.6177364 14.7370947,37.660353 C11.2279038,40.7029696 5.96945912,40.5371745 2.65891085,37.2795364 C-0.651637428,34.0218983 -0.902124437,28.7668069 2.08356427,25.2090549 C0.942774962,23.6584844 18.1865781,19.209927 18.155366,20.2083347 Z" id="Path" fill="#000000" opacity="0.1"></path>
                </g>
                <g id="Group" opacity="0.2" transform="translate(59.842022, 62.789731)">
                    <path d="M10.2323074,46.7156248 C10.2267581,46.9029027 10.2052653,47.0893675 10.168062,47.2729968 C8.95955465,47.0808395 7.7441018,46.9072033 6.52170351,46.7520884 C6.52170351,46.7034703 6.52170351,46.6531158 6.52170351,46.6027613 C6.53301779,46.082101 6.68285381,45.5738572 6.95579382,45.130327 C7.31348422,44.5642733 7.85696528,44.2100556 8.4560099,44.2291556 C9.05505451,44.2482556 9.57422651,44.6354641 9.89545334,45.2206178 C10.138415,45.6802316 10.2546787,46.1962264 10.2323074,46.7156248 L10.2323074,46.7156248 Z" id="Path" fill="#3F3D56"></path>
                    <ellipse id="Oval" fill="#3F3D56" transform="translate(8.473169, 43.690537) rotate(-88.190000) translate(-8.473169, -43.690537) " cx="8.47316898" cy="43.6905374" rx="2.43264205" ry="1.85790649"></ellipse>
                    <ellipse id="Oval" fill="#3F3D56" transform="translate(8.567904, 40.717806) rotate(-88.190000) translate(-8.567904, -40.717806) " cx="8.56790447" cy="40.7178056" rx="2.43264205" ry="1.85790649"></ellipse>
                    <ellipse id="Oval" fill="#3F3D56" transform="translate(8.660904, 37.745074) rotate(-88.190000) translate(-8.660904, -37.745074) " cx="8.6609036" cy="37.7450737" rx="2.43264205" ry="1.85790649"></ellipse>
                    <ellipse id="Oval" fill="#3F3D56" transform="translate(8.753903, 34.772342) rotate(-88.190000) translate(-8.753903, -34.772342) " cx="8.75390272" cy="34.7723418" rx="2.43264205" ry="1.85790649"></ellipse>
                    <path d="M2.4360456,14.2039976 C2.19152404,13.8729179 1.9710212,13.5247555 1.77622834,13.1621809 L6.68318511,12.5145182 L1.40117432,12.3877638 C0.448536117,10.1281404 0.468003573,7.57601977 1.45500152,5.33119187 L8.42128267,9.22932277 L2.04015524,4.22165706 C3.79483397,1.38366483 6.98893061,-0.235137946 10.3151853,0.0277821854 C13.64144,0.290702317 16.5415475,2.39121473 17.8285699,5.46963487 C19.1155923,8.54805501 18.5735056,12.0876761 16.4241715,14.6398243 C16.8044963,15.1548027 17.1276267,15.7096555 17.3878519,16.2945765 L10.9476882,19.3852995 L17.7767968,17.3311842 C18.6505276,20.2141336 18.009141,23.3433425 16.0716901,25.6500907 C18.8273246,29.3888625 18.2462856,34.6177364 14.7370947,37.660353 C11.2279038,40.7029696 5.96945912,40.5371745 2.65891085,37.2795364 C-0.651637428,34.0218983 -0.902124437,28.7668069 2.08356427,25.2090549 C-0.354480909,21.9002084 -0.210976251,17.3525458 2.43083651,14.2039976 L2.4360456,14.2039976 Z" id="Path" fill="#C42EA5"></path>
                    <path d="M18.155366,20.2083347 C18.0945488,22.2053684 17.3602298,24.1231648 16.0716901,25.6500907 C18.8273246,29.3888625 18.2462856,34.6177364 14.7370947,37.660353 C11.2279038,40.7029696 5.96945912,40.5371745 2.65891085,37.2795364 C-0.651637428,34.0218983 -0.902124437,28.7668069 2.08356427,25.2090549 C0.942774962,23.6584844 18.1865781,19.209927 18.155366,20.2083347 Z" id="Path" fill="#000000" opacity="0.1"></path>
                </g>
                <g id="Group" opacity="0.2" transform="translate(122.480484, 21.502287)">
                    <path d="M19.687562,89.9026484 C19.6743173,90.2574303 19.631923,90.6105224 19.5608076,90.958356 C17.2340836,90.5867747 14.8905748,90.2545509 12.5302811,89.9616847 C12.5302811,89.8679212 12.5302811,89.7724213 12.5302811,89.6751851 C12.5523195,88.6724453 12.841209,87.6936971 13.3672072,86.8397072 C14.0617517,85.7510088 15.1035684,85.0686188 16.2547759,85.103346 C17.4059834,85.1380732 18.4078638,85.8864449 19.0329538,87.0133433 C19.5043383,87.9010491 19.7303139,88.8984587 19.687562,89.9026484 L19.687562,89.9026484 Z" id="Path" fill="#3F3D56"></path>
                    <ellipse id="Oval" fill="#3F3D56" transform="translate(16.299641, 84.072919) rotate(-88.190000) translate(-16.299641, -84.072919) " cx="16.2996412" cy="84.072919" rx="4.68470253" ry="3.57864044"></ellipse>
                    <ellipse id="Oval" fill="#3F3D56" transform="translate(16.480100, 78.349781) rotate(-88.190000) translate(-16.480100, -78.349781) " cx="16.4801001" cy="78.3497805" rx="4.68470253" ry="3.57864044"></ellipse>
                    <ellipse id="Oval" fill="#3F3D56" transform="translate(16.662295, 72.626697) rotate(-88.190000) translate(-16.662295, -72.626697) " cx="16.6622945" cy="72.6266969" rx="4.68470253" ry="3.57864044"></ellipse>
                    <ellipse id="Oval" fill="#3F3D56" transform="translate(16.637400, 66.648813) rotate(-88.281642) translate(-16.637400, -66.648813) " cx="16.6374005" cy="66.648813" rx="4.68681017" ry="3.58025047"></ellipse>
                    <path d="M4.67671938,27.3137724 C4.20818527,26.6763488 3.78408932,26.0074259 3.40743934,25.3117479 L12.8532443,24.0650406 L2.68684944,23.8202137 C0.851562992,19.4704623 0.887987008,14.5569881 2.78755839,10.2349236 L16.2009487,17.7377403 L3.91792954,8.09746294 C7.30312182,2.64718955 13.4486197,-0.456306796 19.8442397,0.0546246413 C26.2398598,0.565556079 31.8146955,4.60536302 34.2916555,10.5239503 C36.7686155,16.4425377 35.7329484,23.2488749 31.6076817,28.162853 C32.3391859,29.1550864 32.9615099,30.2233414 33.4638518,31.3490758 L21.0644964,37.3030584 L34.2104871,33.3441549 C35.8936599,38.8875421 34.6638394,44.9060213 30.940919,49.3447234 C36.244837,56.5424722 35.1256584,66.607978 28.3702034,72.4648511 C21.6147484,78.3217242 11.4922429,78.0025813 5.11914947,71.7317908 C-1.25394398,65.4610002 -1.73683865,55.3449841 4.00995668,48.4956427 C-0.680886466,42.1260224 -0.405414482,33.3740479 4.67671938,27.312036 L4.67671938,27.3137724 Z" id="Path" fill="#C42EA5"></path>
                    <path d="M34.9415785,38.8709926 C34.827564,42.7133624 33.4204543,46.4048841 30.9478644,49.3481961 C36.2517824,56.5459449 35.1326038,66.6114508 28.3771488,72.4683238 C21.6216938,78.3251969 11.4991884,78.0060541 5.12609491,71.7352635 C-1.24699854,65.464473 -1.72989321,55.3484569 4.01690213,48.4991155 C1.80477795,45.5108378 35.0022678,36.9488407 34.9415785,38.8709926 Z" id="Path" fill="#000000" opacity="0.1"></path>
                </g>
                <polygon id="Path" fill="#F1C0C0" points="5.74909195 111.710534 7.57053485 111.705325 10.1386131 111.705325 13.3856085 58.9581447 45.5412817 5.2993744 44.1435109 3.79915832 44.1435109 0 9.3676687 57.7149101"></polygon>
                <polygon id="Path" fill="#000000" opacity="0.1" points="7.76500731 111.705325 10.1386131 111.705325 13.3856085 58.9581447 45.5412817 5.2993744 44.1435109 3.79915832 10.9755392 58.1542095"></polygon>
                <polygon id="Path" fill="#F1C0C0" points="0.381999465 112.149834 83.7012919 118.525752 83.7724827 118.530961 164.407361 113.571914 164.468133 113.568441 164.468133 110.163437 75.6185305 108.532993 1.49153428 108.461803 0.949789579 108.461803 0.890753298 108.843802"></polygon>
                <polygon id="Path" fill="#000000" opacity="0.1" points="0.381999465 112.149834 83.7012919 118.525752 83.7724827 118.530961 164.407361 113.571914 164.468133 113.505932 164.468133 110.234627 164.396943 110.234627 83.7012919 112.92946 1.49153428 108.461803 1.47937975 108.461803 1.33352541 108.557303 0.890753298 108.843802"></polygon>
                <polygon id="Path" fill="#000000" opacity="0.1" points="0.381999465 112.149834 83.7012919 118.525752 83.7012919 112.92946 1.33352541 108.557303 0.890753298 108.843802"></polygon>
                <polygon id="Path" fill="#F1C0C0" points="44.1330927 3.72796751 80.865814 43.153785 79.7302338 112.504052 82.8504749 112.880842 82.9025657 112.887787 86.0228068 112.887787 86.3961245 46.1316445 155.178601 69.107176 156.33849 110.015846 158.849268 110.297136 159.700085 110.392636 157.731052 66.2699618 85.8283344 41.0267426 46.4025168 0.0399363077 44.1330927 0.0399363077"></polygon>
                <polygon id="Path" fill="#000000" opacity="0.1" points="86.1130976 44.855419 86.3961245 46.1316445 155.178601 69.107176 156.33849 110.015846 158.849268 110.297136 156.880235 68.256359"></polygon>
                <polygon id="Path" fill="#000000" opacity="0.1" points="44.1330927 3.72796751 80.865814 43.153785 79.7302338 112.504052 82.8504749 112.880842 83.7012919 40.8843609 44.1330927 0.0399363077"></polygon>
                <polygon id="Path" fill="#F1C0C0" points="86.2467974 72.6875528 111.474389 77.6552822 111.483071 77.6570185 155.668255 86.3613973 157.691116 85.5505166 157.68417 85.408135 157.552207 82.586548 86.2728428 68.1834318"></polygon>
                <polygon id="Path" fill="#000000" opacity="0.1" points="111.483071 77.6570185 155.668255 86.3613973 157.691116 85.5505166 157.68417 85.408135"></polygon>
                <polygon id="Path" fill="#F1C0C0" points="113.172551 55.0756411 113.854941 92.6400794 114.207422 111.911952 117.313772 111.807771 119.268915 111.741789 118.661188 55.6191221 117.313772 55.1711409 117.018591 55.0756411"></polygon>
                <polygon id="Path" fill="#000000" opacity="0.1" points="113.200332 55.0669593 113.200332 55.0756411 113.854941 92.6400794 114.207422 111.911952 117.313772 111.807771 117.313772 55.0669593"></polygon>
                <path d="M64.5145006,64.6690367 C64.6967419,64.7680742 64.8709147,64.8812865 65.0354089,65.0076272 C65.2299192,65.1779103 65.4046543,65.3695364 65.5563173,65.57889 C66.3012163,66.5425705 66.9888153,67.6625234 66.9158881,68.8779763 C66.9190321,69.2351499 66.7796793,69.578845 66.5286796,69.8329749 C66.2213436,70.0951655 65.7803079,70.10732 65.3774721,70.10732 C64.9399091,70.10732 64.4797733,70.10732 64.1012466,69.8815931 C63.7227199,69.6558661 63.4067021,69.2165667 62.9587209,69.2269849 C62.8954841,69.2374457 62.8309581,69.2374457 62.7677212,69.2269849 C62.6131851,69.1766304 62.5819306,68.9734761 62.4812216,68.8449854 C62.3075855,68.6140494 61.9412133,68.6713493 61.6686046,68.7720582 C61.3959958,68.8727672 61.093869,69.0238306 60.824733,68.9074944 C60.6684924,68.825063 60.5407922,68.6973628 60.4583608,68.5411222 C59.8141708,67.4993055 59.6769983,66.2473891 59.555453,65.0371453 C59.4807894,64.3009281 58.911263,61.7901498 60.4826699,62.3614127 C61.1772143,62.6114487 61.8266134,63.1115207 62.4586489,63.4778929 L64.5145006,64.6690367 Z" id="Path" fill="#3F3D56"></path>
                <path d="M62.9621937,64.9173364 C63.2510016,65.1250745 63.6441967,65.109318 63.915456,64.8791364 C64.1740066,64.6455083 64.3387808,64.3258339 64.3790644,63.9797013 C64.5527005,63.9258741 64.6412549,64.1533374 64.7523821,64.2922463 C64.9468545,64.5283915 65.3427449,64.5249187 65.5198537,64.7766911 C65.6431354,64.9503272 65.6153536,65.1916814 65.7021716,65.3878903 C65.8150351,65.641399 66.0945893,65.7733624 66.285589,65.9782531 C66.4659494,66.2021113 66.5962107,66.4620419 66.6675885,66.7405156 L66.9523517,67.5948054 C67.0886045,67.9500747 67.1762156,68.3221297 67.2128059,68.7008674 C67.2490812,69.0833268 67.1302136,69.4643289 66.8828973,69.7583114 C66.5008978,70.169829 65.8740714,70.213238 65.3201722,70.2010835 C65.1351907,70.2050154 64.9505517,70.1833962 64.771482,70.1368382 C64.2800918,69.9840384 63.9658104,69.4891754 63.8355833,68.9908398 C63.7053563,68.4925041 63.7192471,67.9698594 63.6428472,67.4593692 C63.5603279,66.9579258 63.4144644,66.4689912 63.2087569,66.0042985 C63.0559572,65.6431354 62.6357577,65.1048634 62.6427032,64.7211276 C62.7677212,64.7211276 62.858012,64.8357274 62.9621937,64.9173364 Z" id="Path" fill="#3F3D56"></path>
                <path d="M63.5855473,63.1584025 C63.5043723,62.911854 63.4570581,62.655423 63.4449021,62.3961399 C63.4449021,61.8752315 63.6827836,61.3855777 63.9224014,60.9202329 L61.9377405,61.1893689 C61.6981227,61.2223597 61.4307231,61.2709778 61.2952869,61.4706594 C61.1908924,61.6714748 61.1908924,61.9105613 61.2952869,62.1113767 C61.3947801,62.3094782 61.473901,62.5171704 61.531432,62.7312576 C61.5359333,62.9186098 61.5574367,63.1051663 61.5956774,63.2886296 C61.6574403,63.4234 61.7440309,63.5453338 61.8509225,63.6480563 C62.4187126,64.2766191 62.8441211,65.0180453 63.2677932,65.7525261 C63.2556387,65.7316898 64.4641461,64.7957911 64.415528,64.4901915 C64.3877462,64.3165554 64.0387376,64.1081921 63.9276105,63.9415014 C63.7741065,63.699554 63.6587362,63.4354321 63.5855473,63.1584025 L63.5855473,63.1584025 Z" id="Path" fill="#BE6F72"></path>
                <polygon id="Path" fill="#F1C0C0" points="80.6018871 56.3744392 80.6018871 58.084755 51.3146827 63.7973834 49.7953666 64.7176548 44.5532922 64.7176548 44.5532922 63.7539744 73.32827 56.8015841"></polygon>
                <polygon id="Path" fill="#000000" opacity="0.1" points="80.6018871 58.084755 51.3146827 63.7973834 49.7953666 64.7176548 44.5532922 64.7176548 73.5418425 58.5136362"></polygon>
                <path d="M57.0880837,104.926571 C56.4161864,104.112858 55.2720651,103.869642 54.3272694,104.339681 C54.2290572,104.385924 54.1424378,104.453558 54.0737606,104.537626 C53.9001245,104.780717 54.0112516,105.115835 54.0268789,105.416225 C54.0668152,106.14897 53.4833978,106.744541 52.9590168,107.256768 C52.6777262,107.531113 52.3912266,107.824558 52.2644723,108.197876 C52.1377179,108.571193 52.2314814,109.04522 52.5718082,109.239692 C52.7203264,109.314146 52.881921,109.358968 53.0475712,109.371656 C53.6025825,109.479924 54.1716669,109.495765 54.7318415,109.418538 C55.2857408,109.31262 55.8292218,108.998338 56.0688397,108.487848 C56.1150684,108.349442 56.1915902,108.223092 56.2928303,108.118003 C56.5984298,107.876649 57.0672474,108.159676 57.4145196,107.987776 C57.7010192,107.845394 57.7131737,107.621404 57.7166465,107.326222 C57.7270646,106.510133 57.6055193,105.586389 57.0880837,104.926571 Z" id="Path" fill="#C42EA5"></path>
                <path d="M61.2553506,104.895317 C61.468923,105.457898 61.4984412,106.070833 61.5262229,106.671614 C61.5418502,107.018887 61.5522684,107.390468 61.3647413,107.683913 C61.1772143,107.977358 60.8108421,108.131894 60.4600972,108.204821 C59.7360345,108.354148 58.8973721,108.213503 58.4302909,107.638767 C58.0726005,107.199468 57.997937,106.596951 58.0639187,106.027424 C58.1194823,105.560343 58.2375548,105.013389 57.9024371,104.681744 C57.815619,104.59319 57.7027556,104.530681 57.622883,104.435181 C57.4492468,104.223345 57.4770286,103.903855 57.5707921,103.6434 C57.692907,103.394315 57.7844415,103.131372 57.8434008,102.860301 C57.8572917,102.731811 60.1944339,102.950592 60.4097427,103.05651 C60.7031877,103.200628 60.6580423,103.441982 60.7465968,103.733691 C60.8698784,104.14 61.1060235,104.506372 61.2553506,104.895317 Z" id="Path" fill="#C42EA5"></path>
                <path d="M61.6842318,79.9507517 C62.1426312,80.2476695 62.31974,80.8310868 62.3909308,81.3728315 C62.5871396,82.8574203 62.2433401,84.3576364 62.2172947,85.8561161 C62.1929856,87.9553768 62.8007121,90.0928375 62.2815401,92.1261165 C61.9707314,93.3415693 62.2346583,94.7306583 61.9429496,95.9582656 C61.8561316,96.3229015 61.6963863,96.666701 61.613041,97.0313369 C61.4394049,97.8213812 61.6217228,98.6478891 61.8665497,99.4205699 C61.9447153,99.6288178 61.994362,99.8466793 62.0141404,100.068233 C62.0023683,100.409294 61.9158264,100.743606 61.7606317,101.04754 L60.718815,103.511437 C60.6024788,103.787518 60.1440794,103.832664 59.8506344,103.869127 C59.2984715,103.935109 58.6820633,103.981991 58.2427639,103.639928 C57.8034645,103.297864 57.6975465,102.724865 57.6298284,102.190066 C57.4999439,101.16339 57.441924,100.128895 57.4561923,99.094134 C57.4752771,98.8240756 57.451246,98.5527009 57.3850015,98.2901987 C57.2895016,97.993281 57.0794019,97.7362995 57.022102,97.4220181 C56.9491748,97.0157096 57.1558018,96.6163465 57.2322017,96.2065653 C57.2845982,95.832287 57.2787409,95.4521532 57.2148381,95.0796669 C57.14712,94.5240313 57.0689837,93.9683957 56.9804293,93.4162328 C56.8554113,92.6435521 57.0342565,91.8812895 57.1540654,91.1068724 C57.2669289,90.3793371 57.1228109,89.6379108 56.9804293,88.9155846 C56.992739,89.5018383 56.9196237,90.0867608 56.7633842,90.6519458 C56.671357,90.9280272 56.5393936,91.1919541 56.4595209,91.4732446 C56.1035669,92.7355792 56.8623567,94.0604228 56.7547023,95.3679028 C56.7043479,95.979102 56.46473,96.5833557 56.5324481,97.185873 C56.5793299,97.6269088 56.7842205,98.0314809 56.9248657,98.4516803 C57.065511,98.8718797 57.1384382,99.3528518 56.9248657,99.7452694 C56.3605484,100.811395 56.7824841,102.261257 57.2877652,103.355164 C57.3903267,103.549174 57.4796633,103.749892 57.5551649,103.955945 C57.7044919,104.449072 57.5794739,104.978662 57.6194102,105.492625 C57.3247354,105.540862 57.0242798,105.450533 56.8050568,105.247798 C56.7286569,105.167925 56.6661479,105.074162 56.5914844,104.990817 C56.3828672,104.791994 56.1359052,104.63779 55.8656854,104.537626 C55.7070279,104.448831 55.5262857,104.40726 55.344777,104.417817 C55.1539547,104.471123 54.9822888,104.577737 54.8499141,104.725153 C54.6781828,104.876161 54.4959894,105.014836 54.3046967,105.140144 C54.2232151,105.202751 54.1279726,105.245015 54.0268789,105.263425 C53.9226264,105.279539 53.8197743,105.227064 53.7716338,105.133198 C53.7607842,105.104227 53.7543458,105.073791 53.7525338,105.042907 C53.6880436,104.518618 53.6538384,103.991046 53.6500885,103.462819 C53.6500885,102.554702 52.5631264,101.929612 52.4259539,101.031913 C52.3165631,100.30785 52.5197174,99.5698969 52.4519993,98.8406252 C52.4190084,98.4655712 52.3148267,98.0974626 52.3217722,97.7224086 C52.3217722,97.4793181 52.3773357,97.2414366 52.3964357,97.0000824 C52.4123545,96.732174 52.4082918,96.4634518 52.3842812,96.1961471 L52.330454,95.3574847 C52.2783632,94.5292404 52.2210632,93.6836325 51.8946273,92.926579 C51.5075307,92.0425938 51.2783374,91.0976124 51.2174465,90.1345102 C51.1827192,89.5267837 51.2052919,88.9190573 51.1358375,88.3095945 C51.0733285,87.759168 50.9344196,87.2122142 50.9743559,86.6600514 C51.0073468,86.2329065 51.147992,85.8196526 51.1809829,85.3925077 C51.248701,84.5712089 50.9361559,83.7724827 50.691329,82.9859111 C50.4465021,82.1993394 50.2659205,81.3276861 50.5871473,80.5688963 C50.6330533,80.444347 50.7094702,80.3333036 50.8094016,80.2459331 C50.9325646,80.1644344 51.0727288,80.1121698 51.2191828,80.0931333 C54.1983432,79.4673154 57.2519398,79.2725916 60.286461,79.514925 C60.781148,79.5429752 61.2612668,79.6926769 61.6842318,79.9507517 Z" id="Path" fill="#3F3D56"></path>
                <circle id="Oval" fill="#BE6F72" cx="51.8269092" cy="58.7272087" r="2.78165065"></circle>
                <path d="M51.2886373,62.2016674 C51.3286233,62.3606737 51.3286233,62.527106 51.2886373,62.6861122 C51.2448957,62.7972195 51.1833136,62.9004428 51.1063193,62.9917118 C50.8370526,63.339045 50.5390875,63.6631475 50.215566,63.9606013 C50.3803781,64.3287201 50.6771162,64.6217413 51.0472831,64.7819002 C51.4148155,64.9383404 51.8003389,65.0485733 52.1950178,65.1100725 C52.392018,65.1618686 52.597026,65.1760071 52.7992715,65.1517451 C52.9856621,65.1048998 53.1621073,65.0249114 53.3201799,64.9156 L54.8655414,63.9901195 C55.0987149,63.8638169 55.3146437,63.707998 55.507995,63.526511 C55.7914205,63.2351985 55.9518384,62.8459673 55.9559762,62.4395489 C55.9631728,62.3667521 55.9434015,62.2938456 55.9004126,62.2346583 C55.8411787,62.1830991 55.7668821,62.1520407 55.6885766,62.1461039 C55.1450955,62.026295 54.7162143,61.5852592 54.4731237,61.0851872 C54.2533719,60.5725662 54.1111676,60.0300834 54.051188,59.4755804 L52.4033812,60.343761 C52.1585542,60.473988 51.9154637,60.6042151 51.6619549,60.7170786 C51.5004733,60.7900058 51.1740374,60.8507784 51.0594376,60.9983691 C50.8406561,61.2709778 51.2313374,61.8734952 51.2886373,62.2016674 Z" id="Path" fill="#BE6F72"></path>
                <path d="M50.2259842,63.4553202 C49.9913673,63.647669 49.8081967,63.8952775 49.6929213,64.1759101 C49.5852669,64.5231824 49.6929213,64.8895546 49.7901576,65.2333541 C50.2458758,66.6987222 50.5940723,68.195387 50.8319743,69.7114297 C50.9778286,70.7532464 51.0316558,71.8106904 51.1028466,72.8646616 C51.248701,75.0142768 51.460537,78.4418538 51.7435639,80.5775781 C52.7853806,80.6244598 53.8011519,80.3205966 54.8342869,80.2094695 C56.7651205,80.0045789 58.7532541,80.4733964 60.6441514,80.0358334 C60.1857521,78.2248086 59.7273527,75.1323493 59.2689534,73.323061 C59.066107,72.6102077 58.925513,71.8810941 58.848754,71.1439277 C58.8088177,70.6143375 58.8331267,70.083011 58.8400722,69.5499481 C58.8556994,68.5081313 58.7983995,67.4663146 58.7410996,66.4244979 C58.6751178,65.2090451 58.6091361,63.9935922 58.3209002,62.8041848 C58.3008211,62.6526284 58.2297924,62.5124078 58.1194823,62.4065581 C57.9458461,62.2798037 57.7201192,62.3249491 57.5134922,62.3527309 C56.8808198,62.4330846 56.2404701,62.2813254 55.7111493,61.925586 C55.4819496,61.7693135 55.1746137,61.5783138 54.9610412,61.7519499 C54.8699009,61.8566893 54.8097706,61.9847668 54.7874051,62.1217948 C54.5962174,62.618739 54.2001035,63.0091579 53.700443,63.1931297 C53.205623,63.3723278 52.6874186,63.4787761 52.162027,63.5091474 C52.0012448,63.5436633 51.8335907,63.5247641 51.6845276,63.4553202 C51.4379643,63.3042568 51.4206007,62.7607758 51.1097921,62.7243122 C50.8371834,62.6930577 50.4100385,63.2799478 50.2259842,63.4553202 Z" id="Path" fill="#3F3D56"></path>
                <path d="M54.3342148,67.6955143 C53.6934975,67.0825788 53.412207,66.1935619 52.9451259,65.4382447 C52.6270713,64.9303418 52.2207304,64.4834256 51.7453003,64.1186102 C51.5062944,63.9607692 51.2871021,63.7748056 51.0924285,63.564711 C50.9274741,63.3615567 50.8024561,63.0906844 50.5524201,63.0125481 C50.3426829,62.9669121 50.1239133,63.0272847 49.9672664,63.1740297 C49.8141988,63.3198998 49.6692825,63.4740907 49.5331761,63.6359018 C48.7969589,64.3981644 47.5033698,64.5040824 46.9199525,65.3861539 C46.7625565,65.5731677 46.6555683,65.7973051 46.6091438,66.0372894 C46.4411699,67.3211138 46.7731363,68.6203832 47.5363607,69.6662843 C47.6841384,69.9087204 47.9110683,70.0927175 48.1788144,70.1871926 C48.1425035,70.5109528 48.185407,70.8386875 48.3038324,71.1421913 C48.6253305,72.2411366 49.020376,73.317215 49.4862943,74.3631413 C49.3748936,74.7722644 49.2970777,75.189799 49.2536219,75.611585 C49.1320767,76.6725017 49.2449401,77.7490457 49.1303403,78.8116987 C49.0365768,79.6798793 48.7830681,80.5254872 48.7743862,81.3954042 C48.7743862,81.5343131 48.7865408,81.6992674 48.9063497,81.7704582 C48.970084,81.8032024 49.041454,81.8181961 49.1129767,81.8138673 L51.248701,81.8781126 C52.4884629,81.9145762 53.7403793,81.9510398 54.9610412,81.7218401 C55.1235915,81.6977887 55.2812656,81.6479661 55.4281224,81.5742494 C55.8413764,81.3433134 55.9785489,80.822405 56.0445306,80.3587966 C56.1307011,79.7574434 56.164976,79.1497916 56.1469759,78.5425627 C56.4056937,79.3603889 56.7130297,80.2059968 57.4943922,80.5602145 C57.9076462,80.7477415 58.3799364,80.7338506 58.8331267,80.7216961 C59.809914,80.6781969 60.7833427,80.5778972 61.7484772,80.4213056 C61.8690854,80.4362839 61.9896593,80.3932426 62.073519,80.3052754 C62.1573788,80.2173083 62.1946097,80.0948155 62.1738857,79.9750607 L62.1843038,79.0270075 C62.2051402,77.1013829 61.7276408,75.2608401 61.5418502,73.3438973 C61.4828139,72.7396436 61.488023,72.1284445 61.3404323,71.5363453 C61.2796596,71.2880456 61.1911052,71.0449551 61.137278,70.7949191 C61.0909463,70.550125 61.061935,70.3023684 61.05046,70.0534928 L60.9150238,68.1434955 C60.8507784,67.2596876 60.7587513,66.4071343 60.6910332,65.5250628 C60.6538179,64.6661553 60.5293165,63.8132622 60.3194519,62.9795573 C60.1683885,62.4586489 59.8541071,61.8682861 59.310626,61.8040407 C59.0206537,61.7710499 58.7393632,61.8978042 58.4632818,61.9863587 C57.7847,62.1999899 57.0564264,62.1969555 56.3796483,61.9776769 C56.1705478,61.8951138 55.9526521,61.8368529 55.7302492,61.8040407 C55.5023102,61.7730189 55.2753453,61.8672558 55.1364137,62.050604 C55.0690339,62.1862616 55.0373603,62.3368606 55.0443866,62.488167 C54.9627776,64.2227919 54.8117142,66.0095076 54.3342148,67.6955143 Z" id="Path" fill="#C42EA5"></path>
                <path d="M51.5404096,67.7476051 C50.7399471,66.9037336 49.9186483,66.0442348 48.8872497,65.5076992 C48.4809412,65.2958631 48.0190691,65.1361179 47.5693516,65.2159905 C47.119634,65.2958631 46.701171,65.6865444 46.7220073,66.1432074 C46.7358982,66.4262343 46.907798,66.6762703 46.9616252,66.9540881 C47.0241342,67.2666331 46.9338434,67.6000144 47.0310796,67.9021413 C47.1100934,68.1012286 47.2281719,68.2824791 47.3783518,68.4352042 L48.6076956,69.8920112 C49.1286039,70.4997376 49.6495123,71.1161459 50.3197477,71.5363453 C50.9899831,71.9565447 51.8581637,72.1527535 52.5943809,71.8540994 C53.1181851,71.6106369 53.5537136,71.2108969 53.8410882,70.7098374 C54.1466878,70.2236562 54.3619966,69.6923297 54.6484962,69.1905213 C55.094405,68.3887165 55.6828211,67.6749678 56.3848574,67.0843152 C56.0236943,66.9905517 55.570504,66.8585882 55.3430407,66.5634068 C55.278298,66.4695658 55.2230417,66.3695228 55.1780864,66.2647527 L54.8967959,65.6570262 C54.7033988,65.6469466 54.5145757,65.71807 54.3758875,65.8532351 C54.255264,65.9926583 54.1259359,66.1243062 53.9886789,66.2473891 C53.743852,66.4314433 53.412207,66.4817978 53.1899528,66.6918975 C53.103959,66.7820946 53.0260991,66.87971 52.9572804,66.9836062 C52.6172007,67.4306068 52.1007488,67.7090857 51.5404096,67.7476051 Z" id="Path" fill="#3F3D56"></path>
                <path d="M56.4491028,64.1168739 C57.0516201,63.0177572 57.0238383,61.6998591 57.1957381,60.4583608 C57.2143547,60.129582 57.3297366,59.8136408 57.5273831,59.5502439 C57.8746553,59.1578263 58.4875908,59.1526172 59.0119719,59.2029716 C59.1665081,59.2203353 59.3592442,59.2932624 59.3505623,59.4477986 C59.3383857,59.5031719 59.311376,59.5541901 59.2724261,59.5953893 C58.7641727,60.2513624 58.4652708,61.0452071 58.4146637,61.8734952 C58.6872724,62.0627586 59.1092081,61.6738136 59.3713987,61.8734952 C59.5450348,62.0193495 59.4651622,62.3075855 59.3609805,62.5159488 C59.1190475,62.9986572 58.8695903,63.4778929 58.6126088,63.9536559 C58.4074732,64.3729999 58.1399253,64.7588075 57.8190918,65.0979179 C57.5985739,65.309754 57.3398561,65.4764447 57.1158655,65.684808 C56.5949571,66.1727255 56.2806757,66.8620609 55.7424038,67.3378239 C55.6969285,67.3870924 55.6353505,67.4184972 55.5687676,67.4263783 C55.5002848,67.4214786 55.4357247,67.3925803 55.3864497,67.3447693 C55.117559,67.1260552 54.8945101,66.8563902 54.7301052,66.5512523 C54.5252146,66.1727255 54.5564691,66.0615984 54.8794322,65.7941988 C55.4836859,65.3166994 56.0723124,64.8044729 56.4491028,64.1168739 Z" id="Path" fill="#BE6F72"></path>
                <path d="M50.5333202,67.0009698 C50.6375018,67.0652152 50.7659926,67.1381424 50.8805924,67.0843152 C50.9274213,67.0559941 50.9672018,67.0174011 50.9969286,66.9714517 C51.1954309,66.7065538 51.3610192,66.4185233 51.4900552,66.1136892 C51.5122628,66.0706257 51.5247122,66.0231992 51.5265188,65.9747803 C51.5265188,65.8636532 51.4275462,65.7820443 51.335519,65.7177989 C50.8424093,65.40352 50.3122515,65.1515638 49.7571667,64.9676908 C49.2987673,64.7940547 48.8195316,64.6429913 48.3333505,64.6864003 C47.9642133,64.7111895 47.6211748,64.8855308 47.3835609,65.1691087 C47.0362887,65.6153536 47.6179697,65.7507898 47.9826055,65.9122713 C48.8264771,66.2960072 49.7398031,66.5182614 50.5333202,67.0009698 Z" id="Path" fill="#C42EA5"></path>
                <path d="M49.9863664,69.9527839 C49.9744666,70.0331617 50.0015471,70.114403 50.0592935,70.1715654 C50.109648,69.9250021 50.0436663,69.6645479 50.0957571,69.4162483 C50.172157,69.0429306 50.5350565,68.7616401 50.566311,68.3865861 C49.9012847,68.256359 49.9915755,69.5499481 49.9863664,69.9527839 Z" id="Path" fill="#000000" opacity="0.1"></path>
                <polygon id="Path" fill="#000000" opacity="0.2" points="80.6018871 56.3744392 80.6018871 58.084755 73.5418425 58.5136362 73.32827 56.8015841"></polygon>
                <path d="M49.3230764,59.1404626 C49.7641121,58.7810359 49.508867,58.0274551 49.8075212,57.5447467 C49.9811573,57.2808198 50.2746023,57.1419109 50.5628383,57.0238383 C50.9107073,56.8610702 51.2834022,56.7577721 51.6654277,56.7182388 C52.0529935,56.681003 52.4364308,56.8222357 52.7072444,57.1019746 C52.8201079,57.2304653 52.8965078,57.3867378 53.0024258,57.5204376 C53.2696699,57.8382317 53.6898289,57.98362 54.0963333,57.8989644 C54.3272694,57.8468735 54.5668872,57.6715011 54.55126,57.4353559 C54.5251794,57.2917278 54.4518394,57.160938 54.3428966,57.0637746 L53.8462973,56.5133481 C53.2819799,55.8882581 52.6551535,55.2249681 51.8269092,55.0686956 C51.2504373,54.9593049 50.6600745,55.113841 50.1044389,55.2996317 C49.8804483,55.3742952 49.628676,55.4854223 49.566167,55.7128856 C49.5244943,55.8691581 49.5870033,56.0393215 49.5505397,56.1973304 C49.4793489,56.5116118 49.0765131,56.6175298 48.8889861,56.8814567 C48.7014591,57.1453836 48.758759,57.4579286 48.7049318,57.7496373 C48.6511046,58.041346 48.4948321,58.3261092 48.4757321,58.6282361 C48.4635776,58.810554 48.5556047,59.1491444 48.7604954,59.2151262 C48.965386,59.2811079 49.196322,58.9234175 49.3230764,59.1404626 Z" id="Path" fill="#3F3D56"></path>
                <path d="M54.3828329,57.1853199 C54.2364245,56.4213731 53.9207856,55.6999128 53.4590888,55.0739047 C53.0485604,54.4890092 52.4774513,54.0354991 51.8147547,53.7681611 C51.1436059,53.5058948 50.3893139,53.5653937 49.7675849,53.9296427 C49.3120208,54.2548229 48.9575185,54.7020133 48.7448681,55.219759 C48.2951506,56.1886486 48.1284599,57.3728469 48.6511046,58.3035365 C48.8594679,58.0500278 49.2171584,58.1646276 49.5331761,58.0726005 C49.9290665,57.959737 50.2641842,57.6958101 50.6409745,57.5308558 C51.7782911,57.0290474 53.1673801,57.4353559 54.3828329,57.1853199 Z" id="Path" fill="#FED253"></path>
                <path d="M48.9167679,57.1314927 C48.8768316,56.8189477 48.8507861,56.4560482 49.0730404,56.233794 C49.09544,56.2061834 49.1295403,56.1907417 49.1650675,56.1921213 C49.196378,56.2022919 49.222124,56.2248981 49.2362583,56.2546303 C49.3645439,56.4571007 49.4738216,56.671006 49.5626942,56.8936112 C49.297907,56.8325882 49.0226809,56.9392383 48.8681498,57.1627472" id="Path" fill="#000000" opacity="0.1"></path>
                <path d="M52.974644,56.2494212 L52.912135,55.6295403 C52.9020545,55.5784586 52.9062603,55.5255862 52.9242895,55.4767405 C52.9785072,55.3920441 53.0879829,55.3620508 53.1777983,55.4072861 C53.2632214,55.4546213 53.3336173,55.5250172 53.3809525,55.6104403 C53.5254898,55.8323198 53.6454273,56.0692838 53.7386429,56.3171393 C53.458981,56.2632622 53.1712847,56.2668067 52.893035,56.3275575" id="Path" fill="#000000" opacity="0.1"></path>
                <polygon id="Path" fill="#000000" opacity="0.1" points="54.5286873 81.4075587 54.5286873 82.8244295 53.3323344 82.9043021 47.0397614 82.9043021 47.0397614 81.4075587"></polygon>
                <polygon id="Path" fill="#F1C0C0" points="54.5286873 81.4075587 54.5286873 82.9043021 47.0397614 82.9043021 27.1445347 57.9823097 27.1445347 56.8050568 31.3152743 56.8050568"></polygon>
                <polygon id="Path" fill="#000000" opacity="0.1" points="54.5286873 81.4075587 54.5286873 82.9043021 47.0397614 82.9043021 27.1445347 57.9823097 27.1445347 56.8050568 31.3152743 56.8050568"></polygon>
                <polygon id="Path" fill="#000000" opacity="0.1" points="54.5286873 81.4075587 54.5286873 82.9043021 47.0397614 82.9043021 27.1445347 57.9823097 27.1445347 56.8050568 47.1474158 81.4075587"></polygon>
                <path d="M29.7525492,106.386851 C29.7790097,106.52923 29.745005,106.676198 29.6586956,106.792485 C29.5723863,106.908772 29.4415635,106.983881 29.2976226,106.999787 C28.8149142,107.163004 28.3026876,107.324486 27.9606245,107.694331 C27.6185613,108.064176 27.5508432,108.750039 27.9606245,109.050429 C28.1700892,109.176749 28.4105763,109.242282 28.655169,109.239692 C29.4417406,109.29352 30.2613031,109.283102 30.9749475,108.94972 C31.4854377,108.713575 31.9664098,108.310739 32.5272545,108.347203 C32.8172268,108.364566 33.1262991,108.500003 33.3850169,108.368039 C33.6437347,108.236076 33.7166619,107.867967 33.7183982,107.560631 C33.7249879,106.919042 33.6282505,106.280575 33.4318986,105.669734 C33.4058532,105.586389 32.3015275,105.522143 32.169564,105.496098 L30.8308296,105.322462 C30.5773208,105.289471 30.030367,105.098471 29.8306855,105.310307 C29.631004,105.522143 29.7525492,106.135079 29.7525492,106.386851 Z" id="Path" fill="#C42EA5"></path>
                <path d="M37.7415472,102.052893 C37.7982229,102.365594 37.8902622,102.670838 38.0158922,102.962747 C38.2016829,103.435037 38.4395644,103.936845 38.894491,104.166045 C39.307745,104.372672 39.8147624,104.298009 40.2349618,104.1018 C40.4103382,104.029165 40.5640308,103.91255 40.6812067,103.763209 C40.8167565,103.526936 40.8773102,103.25505 40.8548428,102.983583 C40.8548428,102.311611 40.8149065,101.617067 40.5075706,101.019759 C40.2436436,100.49885 39.7835079,100.050869 39.7765625,99.4743971 L38.1947374,99.7799966 C38.1100585,99.7881379 38.0294029,99.820039 37.962065,99.8720238 C37.9119445,99.9248052 37.8771312,99.9902302 37.8613561,100.061287 C37.6924617,100.711076 37.6517675,101.387544 37.7415472,102.052893 L37.7415472,102.052893 Z" id="Path" fill="#C42EA5"></path>
                <path d="M18.8516736,85.557462 C18.7856919,86.1165703 18.8134737,86.7156149 19.1051823,87.1983234 C19.396891,87.6810318 20.0115629,88.0005222 20.5428894,87.8077861 C20.5978857,87.7937411 20.6448591,87.7580413 20.6731165,87.7088136 C20.6872543,87.6501312 20.6792155,87.5882945 20.6505438,87.5351774 C20.4159787,86.909178 20.4352944,86.2163028 20.704371,85.6043438 C20.7390982,85.5244712 20.8137618,85.4307076 20.8953707,85.4619622 C20.9295051,85.47925 20.9569734,85.5073287 20.973507,85.5418348 C21.0575645,85.6872645 21.0996391,85.8531585 21.0950523,86.0210705 C21.0705414,86.1732028 21.0658721,86.3278723 21.0811614,86.4812062 C21.1141523,86.6305332 21.2738975,86.7711785 21.4128064,86.7069331 C21.4939617,86.6570946 21.5510877,86.5761138 21.5708153,86.4829425 C21.9580238,85.3629896 21.7826513,84.1388549 21.6055425,82.9668111 C21.6085383,82.9123314 21.5872081,82.8593306 21.5473091,82.8221139 C21.5074102,82.7848972 21.4530553,82.7673011 21.3989155,82.774075 C20.579353,82.692466 20.1313718,82.4962572 19.6625543,83.2585198 C19.2597185,83.9009734 18.8516736,84.7847813 18.8516736,85.557462 Z" id="Path" fill="#C42EA5"></path>
                <path d="M28.4329147,82.7080933 C28.1898242,83.7186555 27.9449972,84.7413723 27.92937,85.7797163 C27.9336417,86.4264876 27.9823747,87.0722001 28.0752243,87.7122863 L28.2575423,89.2159751 C28.3200513,89.7229925 28.3808239,90.2282737 28.4693783,90.730082 C28.52587,90.9886043 28.5566952,91.2520731 28.5614055,91.5166537 C28.5443732,91.777481 28.5031014,92.0361568 28.4381238,92.2893344 C28.3289365,92.821032 28.2679168,93.3614925 28.2558059,93.9041503 C28.2367059,94.7723309 28.3443603,95.6405115 28.4120784,96.5086921 C28.547268,98.2387544 28.5269289,99.9774584 28.3513058,101.703885 C28.2811916,102.169883 28.3823606,102.645501 28.636069,103.042619 C28.7390213,103.167837 28.8237816,103.306961 28.8878414,103.455873 C29.0180685,103.8535 28.7142052,104.251127 28.636069,104.659172 C28.5320012,105.321706 28.9842326,105.94333 29.6466312,106.048261 C31.0357202,106.213215 32.4630091,106.138551 33.7149255,106.77406 C33.846889,106.388587 33.558653,105.951024 33.6906165,105.558607 C33.7739618,105.315516 34.0031615,105.157507 34.159434,104.952617 C34.369376,104.640433 34.4740206,104.269309 34.4580881,103.893436 C34.4642235,103.402817 34.3770142,102.915506 34.2011067,102.457466 C34.053516,102.075466 33.8416799,101.698676 33.8538344,101.288895 C33.8538344,101.087477 33.9250252,100.875641 33.8434162,100.68985 C33.787449,100.583112 33.7113926,100.488189 33.6194257,100.410296 C33.1004812,99.8417875 32.7815832,99.1192366 32.7113087,98.3527077 C32.6436003,97.5920211 32.6680869,96.825939 32.7842359,96.0711291 C32.8693176,95.3522756 32.9839175,94.5934857 33.4405804,94.0326411 C33.2288098,92.332035 33.3532923,90.6063886 33.8069527,88.9537845 C33.8520981,88.8009847 33.9232889,88.6238759 34.0795614,88.5874123 C34.2055455,88.5745009 34.3299271,88.6237353 34.4129427,88.7193758 C34.6855514,88.9746209 34.8157785,89.3444658 34.9338511,89.6986835 C35.0640782,90.0824193 35.1960416,90.4922006 35.097069,90.8846182 C35.0553964,91.0582543 34.972051,91.2110541 34.9234329,91.3777448 C34.8178009,91.71272 34.8362919,92.0745279 34.9755238,92.3969888 C35.0433875,92.5148333 35.0859642,92.64552 35.1005418,92.7807246 C35.0844403,92.8968374 35.0492377,93.0094858 34.9963601,93.114106 C34.8661136,93.5296459 34.9185029,93.9809516 35.1404781,94.3556042 C35.3617916,94.7243273 35.6348679,95.0593866 35.9513588,95.3505392 C35.8001459,96.0169741 35.8392536,96.7124899 36.0642222,97.3577728 C36.0970108,97.4164817 36.1051306,97.4858124 36.0867949,97.5505089 C36.0555404,97.6164906 35.9756678,97.6407996 35.9131588,97.6876814 C35.7395227,97.830063 35.8471771,98.099199 35.9635133,98.2849897 C36.2823567,98.7949403 36.6344425,99.2833361 37.0174845,99.7470058 C37.3647568,100.161996 37.3335023,100.962459 37.8509379,101.111786 C38.0683703,101.158746 38.2933228,101.158746 38.5107552,101.111786 C39.0212454,101.033649 39.5907718,100.886059 39.8408078,100.434605 C39.9432532,100.248814 39.9849258,100.023087 40.1446711,99.8841783 C40.3044163,99.7452694 40.5110433,99.7209604 40.5995977,99.5542697 C40.6881521,99.387579 40.5891795,99.1687975 40.6186977,98.9760614 C40.6482158,98.7833253 40.8166428,98.6287892 40.87047,98.4256349 C40.9989608,97.9568174 40.452007,97.5713452 40.3773435,97.0921095 C40.2696891,96.397565 41.1448151,95.8766567 41.1083515,95.1821122 C41.0319516,93.6732143 40.9833335,92.157371 40.9051973,90.6484731 C40.807135,89.2968627 40.7932173,87.9404622 40.8635246,86.5871242 C40.9242972,85.744989 41.0371607,84.8629175 40.7280884,84.0798186 C40.28358,82.9754929 39.0577089,82.355612 37.8717742,82.2375394 C36.6858395,82.1194668 35.5033776,82.4007573 34.327861,82.5848116 C32.3768957,82.8854827 30.3947446,82.9269357 28.4329147,82.7080933 Z" id="Path" fill="#3F3D56"></path>
                <circle id="Oval" fill="#FBBEBE" cx="31.957728" cy="63.3303022" r="2.78165065"></circle>
                <path d="M30.8256205,66.6311249 C30.6321895,67.0815132 30.1816052,67.3664922 29.6917766,67.3482421 C29.5910677,67.7649687 29.8324219,68.1851682 30.1085033,68.5133404 C31.2758473,69.871753 33.0864666,70.4927834 34.8418239,70.1368382 C35.1772884,70.0767759 35.495543,69.9440217 35.7742499,69.7478932 C36.1499757,69.4341578 36.4022352,68.9973182 36.486158,68.5150768 C36.5660746,68.0361774 36.5888067,67.5494787 36.5538761,67.0652152 C36.5636173,66.9695849 36.5362687,66.8738648 36.4774762,66.7978156 C36.4080375,66.7440377 36.3221884,66.7158301 36.2343856,66.7179429 C35.6474955,66.6658521 35.03456,66.6432794 34.5188608,66.3550435 C34.0031615,66.0668075 33.6367893,65.415672 33.8850889,64.8808728 C33.8451526,64.9642181 32.8311177,65.0041544 32.6974179,65.021518 C32.2789548,65.0805543 31.8604918,65.1465361 31.4437651,65.2229359 C31.2435226,65.2339281 31.0456059,65.271293 30.8551386,65.3340631 C30.6033662,65.4642902 30.6971297,65.4000448 30.756166,65.6361899 C30.8447204,65.997353 30.9749475,66.2560709 30.8256205,66.6311249 Z" id="Path" fill="#FBBEBE"></path>
                <path d="M32.9422448,68.3223407 C32.5676094,68.3266612 32.193846,68.2852615 31.8292372,68.1990591 C31.4610977,68.113067 31.1366115,67.8965372 30.9159113,67.5895963 C30.7874205,67.3951238 30.7040752,67.1502969 30.4991846,67.0409061 C30.1640669,66.86727 29.7820674,67.160715 29.5146678,67.429851 C29.2712029,67.6952766 28.9890453,67.9224076 28.6777417,68.1035592 C28.3061604,68.299768 27.8720701,68.3692224 27.5213251,68.6001585 C27.247314,68.8071993 27.0121632,69.0611623 26.8267806,69.3502665 L24.3663568,72.7014437 C23.3783673,74.04886 22.5188685,75.4952488 21.6385333,76.9173287 C20.8762708,78.1484088 20.4769077,79.5652795 19.9021721,80.8935958 C19.8566499,80.9748854 19.8378208,81.0684238 19.8483449,81.1609954 C19.8691813,81.2512862 19.978572,81.3242134 20.0549719,81.2721226 C19.7962541,81.529104 20.0237174,81.966667 19.9629448,82.3278302 C19.8938591,82.5805412 19.7497685,82.8063639 19.5496908,82.9754929 C19.9318725,82.9256412 20.3198628,82.943865 20.6956892,83.0293201 C21.084103,83.139403 21.4506331,83.3156194 21.7791786,83.5502285 C21.9892783,83.5172376 21.9701783,83.1439199 22.1264508,83.005011 C22.2202143,82.9234021 22.3591232,82.9338202 22.4824049,82.9095112 C22.9460133,82.8192204 23.1300676,82.2618484 23.4860217,81.9475671 C23.7829394,81.6853765 24.2031388,81.6002948 24.5174202,81.3537315 C25.0279104,80.9526321 25.1373012,80.2389876 25.4047008,79.6468885 C25.6321641,79.1450801 25.9898545,78.7075171 26.1895361,78.1935541 C26.3197631,77.8601728 26.3822721,77.4990097 26.5680628,77.1916737 C26.8649806,76.6950744 27.4240889,76.4311475 27.9571518,76.193266 C28.2940058,76.0422026 28.6516962,75.8859301 29.0145957,75.9102392 C28.9954958,76.7176471 28.8930505,77.5129006 29.0684229,78.3012085 C29.1291956,78.5790263 29.2142773,78.8498987 29.2872044,79.1259801 C29.6188494,80.3692147 29.6969857,81.6645402 29.7126129,82.9459748 C30.5103856,82.7634295 31.3252068,82.665651 32.1435186,82.6542661 C32.7877086,82.6351661 33.4301623,82.7185114 34.0743523,82.7063569 C34.8383512,82.692466 35.5936683,82.5448753 36.3576673,82.4927845 C37.1216662,82.4406937 37.9203924,82.4927845 38.5958369,82.8400567 C38.5409938,81.7396379 38.5717622,80.6366208 38.687864,79.5409704 L38.8719183,77.8150274 C38.9134534,77.313578 38.9906271,76.8157208 39.1028543,76.3252295 C39.2035633,75.9293391 39.3494176,75.5473397 39.4605447,75.1531857 C39.851226,73.7640967 39.7800352,72.2812442 39.7053717,70.8348554 C39.6671717,70.0916928 39.3806721,69.3606847 39.0438181,68.6991311 C38.9218953,68.4533968 38.7826344,68.2166534 38.6270914,67.9906957 C37.799701,66.8507188 36.4453783,66.2148558 35.0397691,66.3064253 C34.9514403,66.3091475 34.8643512,66.3279776 34.7827877,66.3619889 C34.6362276,66.45583 34.5217506,66.5921122 34.4546154,66.7526702 C34.0953662,67.3983577 33.5741328,67.9393394 32.9422448,68.3223407 L32.9422448,68.3223407 Z" id="Path" fill="#3F3D56"></path>
                <path d="M29.511195,64.25231 C29.5893313,64.0786739 29.799431,64.0144285 29.9279217,63.8755196 C30.174485,63.6115927 30.0633579,63.189657 30.1015579,62.8337029 C30.1640669,62.3127946 30.5964208,61.8769679 31.0912837,61.6911773 C31.5959452,61.5292136 32.1329463,61.4952036 32.6540088,61.5922047 C32.9048311,61.6105121 33.1471287,61.691079 33.3589715,61.8266134 C33.4492623,61.8925952 33.5326076,61.9776769 33.6176893,62.0384495 C33.9402305,62.2333942 34.359387,62.1355396 34.5622698,61.8179316 C33.9475979,61.0782417 33.2669443,60.2968792 32.332782,60.0694159 C32.0123073,60.0039966 31.6857395,59.9731444 31.3586834,59.9773887 C30.9263294,59.9687069 30.4800846,59.9617615 30.0807215,60.1267158 C29.5372405,60.3507064 29.155241,60.8664057 28.9590322,61.4220413 C28.7874462,61.9852404 28.6956832,62.5697182 28.6864235,63.1584025 C28.6508277,63.5511728 28.6508277,63.9463577 28.6864235,64.3391281 C28.7535463,64.8755162 28.9528251,65.3868392 29.2663681,65.8271896 C29.3087585,65.895581 29.3687216,65.9513467 29.4400042,65.9886712 C30.2317849,66.3359435 29.4469497,64.396428 29.511195,64.25231 Z" id="Path" fill="#3F3D56"></path>
                <path d="M34.471979,61.3890504 C34.3764791,60.5712243 33.7930618,59.8957798 33.1731808,59.3522987 C32.6735587,58.8810503 32.0784181,58.5227816 31.4281378,58.3018002 C30.7735296,58.1090641 30.0199489,58.1507368 29.4591042,58.541418 C29.0076503,58.8556994 28.7211507,59.3557714 28.5006328,59.8593162 C28.2109432,60.453542 28.0674701,61.1083988 28.0821698,61.7693135 C28.1255788,62.425658 28.4450693,63.0906844 29.0145957,63.4223294 C29.2194864,63.1202025 29.5754404,62.96393 29.9175036,62.8406484 C31.4083726,62.275 32.928753,61.7904258 34.471979,61.3890504 L34.471979,61.3890504 Z" id="Path" fill="#FED253"></path>
                <path d="M29.2055955,61.0487236 C29.261159,61.0487236 29.2976226,61.1060235 29.3254044,61.1529053 C29.4667798,61.3731703 29.5882274,61.605606 29.6883039,61.8474498 C29.4851496,61.8908588 29.136141,61.9394769 29.0354321,61.7606317 C28.9816049,61.6703409 29.0458502,61.0400418 29.2055955,61.0487236 Z" id="Path" fill="#000000" opacity="0.1"></path>
                <path d="M33.1627627,60.656306 C33.12109,60.6962423 33.0724719,60.6146333 33.0724719,60.555597 L33.0724719,59.8818889 C33.0713384,59.863157 33.0755538,59.8444889 33.0846264,59.8280617 C33.0991762,59.8114238 33.1198523,59.8013991 33.1419263,59.8002799 C33.2825716,59.7846527 33.3989078,59.9044616 33.4891986,60.0190614 C33.6262178,60.2047869 33.7453978,60.4030327 33.8451526,60.6111606 L33.1106718,60.5885879" id="Path" fill="#000000" opacity="0.1"></path>
                <path d="M42.3290135,71.8124267 C42.4888072,71.6607479 42.6594207,71.5208913 42.8395037,71.3939637 C43.3204757,71.0727368 43.9021567,70.9459825 44.442165,70.7410919 C44.9821734,70.5362012 45.5308635,70.2045562 45.7409632,69.6662843 C45.8461392,69.3296973 45.8804297,68.9749681 45.8416722,68.6244675 C45.8467133,68.4777206 45.8206776,68.3315655 45.7652723,68.1955863 C45.6991766,68.0754177 45.605066,67.9729682 45.4909272,67.8969322 C44.7581828,67.3551875 43.7754023,67.3117785 42.8655491,67.367342 C40.8596137,67.491737 38.8934352,67.982546 37.0643663,68.8154673 C36.9676377,68.847424 36.8828765,68.9079677 36.8212757,68.9891034 C36.785665,69.0643533 36.7695437,69.1473483 36.774394,69.2304576 C36.7420414,69.7425045 36.8086587,70.2559886 36.9706028,70.7428282 C37.2102206,71.3609728 37.7033472,71.8593085 37.9099742,72.4896076 C38.0037377,72.7726345 38.0349922,73.073025 38.1166012,73.3577882 C38.1835528,73.6518797 38.357459,73.910573 38.6045187,74.0835872 C39.2903813,74.4933684 39.9380441,73.9429419 40.413807,73.5157971 L42.3290135,71.8124267 Z" id="Path" fill="#3F3D56"></path>
                <path d="M33.3468169,74.217287 L32.4664818,72.2968715 C32.3374048,72.0307388 32.2260356,71.7563761 32.1331005,71.4755726 C32.0323915,71.1404549 31.9837734,70.7931827 31.8900099,70.4563286 C31.5809376,69.3346393 30.8013114,68.400477 30.4210483,67.3013603 C30.3970059,67.2021181 30.347994,67.1106689 30.2786667,67.035697 C30.1663049,66.9562186 30.0244386,66.9307717 29.8914581,66.9662426 C29.3601316,67.0582697 28.9451413,67.4628419 28.4589602,67.6920416 C28.2332332,67.7962233 27.9901426,67.8656777 27.7644157,67.9854866 C27.5361002,68.0936215 27.3662094,68.2958421 27.2990709,68.5393858 C27.2452437,68.8050491 27.3772071,69.0602942 27.4883342,69.319012 C27.9606245,70.3851378 28.0682789,71.5762816 28.0891152,72.7431163 C28.1047425,73.5279516 28.0648062,74.3700868 27.6011977,75.0003859 C26.7104444,76.2158387 27.2799709,78.0008181 27.6133522,79.471516 C27.6532886,79.6451521 27.7001703,79.8326791 27.7279521,80.0167334 C27.7573324,80.247044 27.7706767,80.4791176 27.7678884,80.7112779 C27.7678884,81.4909041 27.7244794,82.2948393 27.3980435,83.0015383 C27.720329,83.1730087 28.0755282,83.2736484 28.4398602,83.2967197 C29.4481073,83.4252105 30.4604058,83.5155012 31.4767559,83.5675921 C31.79519,83.597534 32.1162828,83.5811577 32.4300182,83.518974 C33.1964762,83.3118369 33.7248065,82.6112094 33.7131892,81.81734 C33.7687527,82.298312 33.871198,82.8209568 34.2202066,83.1543381 C34.5692152,83.4877195 35.0779691,83.5380739 35.5519957,83.5641194 C36.8898454,83.6350726 38.2312471,83.5973276 39.5629901,83.4512559 C39.6479939,83.4474207 39.7315694,83.4279982 39.8095533,83.393956 C40.0665348,83.2654652 40.0804257,82.9112475 40.0595894,82.6264843 C40.0213894,82.0934214 39.9814531,81.5603585 39.9172077,81.0307684 C39.8627356,80.6931489 39.8348681,80.3517721 39.8338624,80.009788 C39.8603399,79.6580063 39.9184535,79.309325 40.0074985,78.9679712 C40.2401709,77.8844819 40.4242252,76.7784198 40.346089,75.668885 C40.3152087,75.3986046 40.3041822,75.1264241 40.3130981,74.8545315 C40.3582435,74.241596 40.6812067,73.6581787 40.620434,73.0487159 C40.4467979,71.2567911 40.3061527,69.4179846 39.8060806,67.6885689 C39.7157898,67.3794966 39.60119,67.0478516 39.332054,66.8707427 C38.9847818,66.6380703 38.4968643,66.7596156 38.0992376,66.6120249 C37.9126633,66.5251974 37.7352488,66.4199121 37.5696474,66.2977435 C37.2098321,66.0727146 36.7973743,65.9458045 36.3732945,65.929635 C36.0538041,65.9174804 35.69785,65.9886712 35.5051139,66.2456527 C35.415865,66.3903374 35.3568022,66.551579 35.3314778,66.7196793 C35.0797054,67.7788596 34.784524,68.8258854 34.4893426,69.8729113 L34.2063157,70.876528 L33.4475259,73.5713606 C33.3728624,73.8578602 33.4232168,73.9464146 33.3468169,74.217287 Z" id="Path" fill="#C42EA5"></path>
                <polyline id="Path" fill="#F1C0C0" points="37.7866925 63.7036199 54.5825145 81.3537315 54.5825145 82.8504749 47.0935886 82.8504749 34.471979 66.3776161"></polyline>
                <polyline id="Path" fill="#000000" opacity="0.1" points="37.7866925 63.7036199 54.5825145 81.3537315 54.5825145 82.8504749 47.0935886 82.8504749 34.471979 66.3776161"></polyline>
                <polygon id="Path" fill="#000000" opacity="0.1" points="34.7393786 66.1449437 34.7932058 66.1640437 47.201243 81.3537315 54.5825145 81.3537315 54.5825145 82.8504749 47.0935886 82.8504749 34.471979 66.3776161"></polygon>
                <path d="M36.6719487,66.516525 C36.0642222,66.7821883 35.3887777,67.1225151 35.2064598,67.761496 C35.1704653,67.8736307 35.1627116,67.9929175 35.1838871,68.1087683 C35.2748071,68.387649 35.5281897,68.5816558 35.8211317,68.5966858 C36.1070648,68.6036149 36.3913628,68.551602 36.6563214,68.443886 L40.2419073,67.2596876 C40.3391435,67.2284331 40.4502706,67.1815514 40.4745797,67.0860515 C40.4808231,67.025993 40.468715,66.9654527 40.4398525,66.9124154 C40.3287253,66.641543 40.2193346,66.0876438 39.9866622,65.8983805 C39.7956625,65.7455807 39.4171357,65.7994079 39.1861997,65.8028806 C38.2971827,65.809826 37.461993,66.1692528 36.6719487,66.516525 Z" id="Path" fill="#C42EA5"></path>
                <path d="M39.8685896,67.4003329 C40.4726448,67.3985732 41.0732253,67.4917364 41.6483599,67.6764143 C42.2260709,67.8639763 42.7377492,68.2135328 43.1225305,68.6835038 C43.2345865,68.814871 43.314277,68.9706838 43.3552029,69.1384305 C43.3899302,69.3120666 43.9559839,69.4162483 43.8309659,69.5343208 C44.211229,69.4735482 44.1209382,69.6523934 44.5064104,69.6489207 C44.8918826,69.6454479 45.3086093,69.5464753 45.5395453,69.2391394 C45.6999914,68.98666 45.7714938,68.6878166 45.7426996,68.3900588 C45.747761,68.1839191 45.7086876,67.9790798 45.6280997,67.7892778 C45.4544636,67.424642 45.0551005,67.2284331 44.686992,67.0600061 L41.5858509,65.641399 C41.4059538,65.5457054 41.2128503,65.4772415 41.0128517,65.4382447 C40.8445349,65.4223476 40.6749282,65.4264275 40.5075706,65.4503993 L39.1028543,65.6118809 C39.727859,66.0163484 40.0929146,66.7207142 40.0630621,67.4645783" id="Path" fill="#3F3D56"></path>
            </g>
        </g>
    </g>
</svg>