<?xml version="1.0" encoding="UTF-8"?>
<svg width="210px" height="153px" viewBox="0 0 210 153" version="1.1" xmlns="http://www.w3.org/2000/svg" xmlns:xlink="http://www.w3.org/1999/xlink">
    <title>03821164-1A47-4964-AC1F-3DCA5AC49EDD</title>
    <g id="---↳-eDiaries" stroke="none" stroke-width="1" fill="none" fill-rule="evenodd">
        <g id="eDiaries-—-Desktop-3-Copy" transform="translate(-580.000000, -336.000000)" fill-rule="nonzero">
            <g id="undraw_under_construction_-46-pa" transform="translate(580.546726, 336.369883)">
                <path d="M207.624088,148.493483 C207.624088,150.001894 202.427468,151.41534 193.359332,152.630117 L21.8377316,152.630117 C14.2064034,152.646276 6.70685301,150.641469 0.101591389,146.819433 L0,146.762012 C2.60603997,145.812354 7.31016298,144.926742 13.712629,144.127262 L13.712629,144.127262 L13.9997351,144.091926 C16.8707961,143.740773 20.0797589,143.407288 23.5868703,143.091471 C23.6752106,143.091471 23.7657595,143.07822 23.8540998,143.067178 L23.8540998,143.067178 C26.6368205,142.819825 29.596958,142.587931 32.7345123,142.371497 C32.8338952,142.371497 32.9310695,142.353829 33.0304524,142.349412 C34.2407151,142.262544 35.4760075,142.180093 36.7363296,142.102059 L36.7363296,142.102059 L37.2222015,142.07114 C46.3985541,141.501345 56.8293395,141.046392 68.1413198,140.746035 L68.1545709,140.746035 C69.7388076,140.701865 71.3399762,140.662848 72.9580768,140.628984 C74.757275,140.586286 76.5785583,140.548742 78.4219267,140.51635 C79.8287466,140.485431 81.2532345,140.463346 82.6821395,140.441261 L82.7152671,140.441261 C89.1619033,140.344087 95.8227648,140.295499 102.633805,140.295499 C119.47589,140.295499 135.394819,140.602482 149.500563,141.154609 L149.540316,141.154609 C151.709071,141.238533 153.838073,141.33129 155.914071,141.426256 L157.680878,141.510179 C160.023369,141.622077 162.305495,141.742073 164.527254,141.870166 L164.527254,141.870166 C190.653909,143.356492 207.624088,145.770392 207.624088,148.493483 Z" id="Path" fill="#C42EA5" opacity="0.1"></path>
                <g id="Group" opacity="0.2" transform="translate(109.683452, 79.863367)">
                    <path d="M13.0146523,59.4184275 C13.0075941,59.6566295 12.980257,59.8937974 12.9329375,60.1273587 C11.3958156,59.8829504 9.84985972,59.6620996 8.29506977,59.4648062 C8.29506977,59.4029679 8.29506977,59.3389212 8.29506977,59.2748744 C8.3094606,58.6126373 8.50003968,57.9661931 8.84719688,57.4020593 C9.30214962,56.6820855 9.99341277,56.2315498 10.7553482,56.2558434 C11.5172836,56.280137 12.1776276,56.7726343 12.5862017,57.5169017 C12.8952289,58.1014925 13.0431067,58.7577955 13.0146523,59.4184275 Z" id="Path" fill="#3F3D56"></path>
                    <ellipse id="Oval" fill="#3F3D56" transform="translate(10.779592, 55.569846) rotate(-88.190000) translate(-10.779592, -55.569846) " cx="10.7795917" cy="55.5698464" rx="3.09412034" ry="2.36310404"></ellipse>
                    <ellipse id="Oval" fill="#3F3D56" transform="translate(10.900087, 51.788776) rotate(-88.190000) translate(-10.900087, -51.788776) " cx="10.9000875" cy="51.7887763" rx="3.09412034" ry="2.36310404"></ellipse>
                    <ellipse id="Oval" fill="#3F3D56" transform="translate(11.018375, 48.007706) rotate(-88.190000) translate(-11.018375, -48.007706) " cx="11.0183747" cy="48.0077061" rx="3.09412034" ry="2.36310404"></ellipse>
                    <ellipse id="Oval" fill="#3F3D56" transform="translate(11.136662, 44.226636) rotate(-88.190000) translate(-11.136662, -44.226636) " cx="11.1366619" cy="44.226636" rx="3.09412034" ry="2.36310404"></ellipse>
                    <path d="M3.09844938,18.0663152 C2.78743809,17.645209 2.50697664,17.2023752 2.25921617,16.7412101 L8.50046105,15.9174365 L1.78217834,15.7562154 C0.570501001,12.8821605 0.595262002,9.63607322 1.8506421,6.780837 L10.711178,11.7389385 L2.59490945,5.3696001 C4.82671628,1.75990771 8.88934415,-0.299076103 13.1200662,0.0353366518 C17.3507882,0.369749406 21.0394861,3.04142821 22.6764726,6.9569251 C24.3134592,10.872422 23.6239695,15.3745286 20.8901935,18.6206508 C21.3739353,19.275661 21.7849306,19.981388 22.1159157,20.7253594 L13.9245578,24.6565044 L22.6106216,22.0438389 C23.7219351,25.7107132 22.9061442,29.6908093 20.4418663,32.6248029 C23.9468064,37.3802128 23.2077725,44.0309098 18.7443708,47.9008675 C14.280969,51.7708252 7.59266038,51.5599476 3.38191562,47.4165001 C-0.828829142,43.2730527 -1.14742799,36.5890093 2.65012216,32.0638418 C-0.450870522,27.8552614 -0.268344416,22.0710091 3.09182385,18.0663152 L3.09844938,18.0663152 Z" id="Path" fill="#C42EA5"></path>
                    <path d="M23.0921304,25.7033374 C23.0147759,28.2433998 22.0807826,30.682679 20.4418663,32.6248029 C23.9468064,37.3802128 23.2077725,44.0309098 18.7443708,47.9008675 C14.280969,51.7708252 7.59266038,51.5599476 3.38191562,47.4165001 C-0.828829142,43.2730527 -1.14742799,36.5890093 2.65012216,32.0638418 C1.19913211,30.0916437 23.1318296,24.4334451 23.0921304,25.7033374 Z" id="Path" fill="#000000" opacity="0.1"></path>
                </g>
                <g id="Group" opacity="0.2" transform="translate(76.114123, 79.863367)">
                    <path d="M13.0146523,59.4184275 C13.0075941,59.6566295 12.980257,59.8937974 12.9329375,60.1273587 C11.3958156,59.8829504 9.84985972,59.6620996 8.29506977,59.4648062 C8.29506977,59.4029679 8.29506977,59.3389212 8.29506977,59.2748744 C8.3094606,58.6126373 8.50003968,57.9661931 8.84719688,57.4020593 C9.30214962,56.6820855 9.99341277,56.2315498 10.7553482,56.2558434 C11.5172836,56.280137 12.1776276,56.7726343 12.5862017,57.5169017 C12.8952289,58.1014925 13.0431067,58.7577955 13.0146523,59.4184275 L13.0146523,59.4184275 Z" id="Path" fill="#3F3D56"></path>
                    <ellipse id="Oval" fill="#3F3D56" transform="translate(10.777173, 55.570765) rotate(-88.190000) translate(-10.777173, -55.570765) " cx="10.7771731" cy="55.5707655" rx="3.09412034" ry="2.36310404"></ellipse>
                    <ellipse id="Oval" fill="#3F3D56" transform="translate(10.897669, 51.789695) rotate(-88.190000) translate(-10.897669, -51.789695) " cx="10.8976689" cy="51.7896953" rx="3.09412034" ry="2.36310404"></ellipse>
                    <ellipse id="Oval" fill="#3F3D56" transform="translate(11.015956, 48.008625) rotate(-88.190000) translate(-11.015956, -48.008625) " cx="11.0159561" cy="48.0086252" rx="3.09412034" ry="2.36310404"></ellipse>
                    <ellipse id="Oval" fill="#3F3D56" transform="translate(11.134243, 44.227555) rotate(-88.190000) translate(-11.134243, -44.227555) " cx="11.1342433" cy="44.2275551" rx="3.09412034" ry="2.36310404"></ellipse>
                    <path d="M3.09844938,18.0663152 C2.78743809,17.645209 2.50697664,17.2023752 2.25921617,16.7412101 L8.50046105,15.9174365 L1.78217834,15.7562154 C0.570501001,12.8821605 0.595262002,9.63607322 1.8506421,6.780837 L10.711178,11.7389385 L2.59490945,5.3696001 C4.82671628,1.75990771 8.88934415,-0.299076103 13.1200662,0.0353366518 C17.3507882,0.369749406 21.0394861,3.04142821 22.6764726,6.9569251 C24.3134592,10.872422 23.6239695,15.3745286 20.8901935,18.6206508 C21.3739353,19.275661 21.7849306,19.981388 22.1159157,20.7253594 L13.9245578,24.6565044 L22.6106216,22.0438389 C23.7219351,25.7107132 22.9061442,29.6908093 20.4418663,32.6248029 C23.9468064,37.3802128 23.2077725,44.0309098 18.7443708,47.9008675 C14.280969,51.7708252 7.59266038,51.5599476 3.38191562,47.4165001 C-0.828829142,43.2730527 -1.14742799,36.5890093 2.65012216,32.0638418 C-0.450870522,27.8552614 -0.268344416,22.0710091 3.09182385,18.0663152 L3.09844938,18.0663152 Z" id="Path" fill="#C42EA5"></path>
                    <path d="M23.0921304,25.7033374 C23.0147759,28.2433998 22.0807826,30.682679 20.4418663,32.6248029 C23.9468064,37.3802128 23.2077725,44.0309098 18.7443708,47.9008675 C14.280969,51.7708252 7.59266038,51.5599476 3.38191562,47.4165001 C-0.828829142,43.2730527 -1.14742799,36.5890093 2.65012216,32.0638418 C1.19913211,30.0916437 23.1318296,24.4334451 23.0921304,25.7033374 Z" id="Path" fill="#000000" opacity="0.1"></path>
                </g>
                <g id="Group" opacity="0.2" transform="translate(155.785089, 27.349138)">
                    <path d="M25.0409575,114.348765 C25.0241113,114.800018 24.9701893,115.249122 24.8797364,115.691538 C21.920335,115.218917 18.9395848,114.796356 15.9374856,114.423854 C15.9374856,114.304595 15.9374856,114.183127 15.9374856,114.05945 C15.9655166,112.784048 16.3329603,111.539161 17.0019867,110.452956 C17.8853901,109.068221 19.2104952,108.200277 20.6747363,108.244447 C22.1389774,108.288618 23.4132868,109.240485 24.2083498,110.673807 C24.807912,111.802895 25.0953343,113.071518 25.0409575,114.348765 L25.0409575,114.348765 Z" id="Path" fill="#3F3D56"></path>
                    <ellipse id="Oval" fill="#3F3D56" transform="translate(20.731801, 106.933829) rotate(-88.190000) translate(-20.731801, -106.933829) " cx="20.7318013" cy="106.933829" rx="5.95855581" ry="4.55173592"></ellipse>
                    <ellipse id="Oval" fill="#3F3D56" transform="translate(20.961330, 99.654468) rotate(-88.190000) translate(-20.961330, -99.654468) " cx="20.9613301" cy="99.6544683" rx="5.95855581" ry="4.55173592"></ellipse>
                    <ellipse id="Oval" fill="#3F3D56" transform="translate(21.193066, 92.375177) rotate(-88.190000) translate(-21.193066, -92.375177) " cx="21.1930664" cy="92.3751772" rx="5.95855581" ry="4.55173592"></ellipse>
                    <ellipse id="Oval" fill="#3F3D56" transform="translate(21.161403, 84.771801) rotate(-88.281642) translate(-21.161403, -84.771801) " cx="21.1614032" cy="84.7718012" rx="5.96123655" ry="4.55378374"></ellipse>
                    <path d="M5.9484019,34.740869 C5.3524651,33.9301187 4.81304997,33.0793039 4.33398222,32.1944588 L16.3482682,30.6087497 L3.41745121,30.29735 C1.08311799,24.7648245 1.12944634,18.51529 3.54554471,13.0179799 L20.6062725,22.5609449 L4.98328371,10.299306 C9.2889695,3.36700709 17.1055366,-0.580384665 25.2402386,0.0694780451 C33.3749406,0.719340755 40.4656725,5.85764249 43.6161617,13.3855981 C46.7666508,20.9135538 45.4493676,29.5706542 40.202368,35.8208297 C41.1327811,37.0828688 41.924326,38.4416012 42.5632635,39.8734427 L26.7923047,47.4464182 L43.5129222,42.4110189 C45.6537793,49.4617509 44.0895489,57.1167608 39.3543008,62.7624243 C46.1004477,71.917368 44.6769446,84.7198625 36.0845622,92.1693227 C27.4921798,99.6187829 14.6171865,99.2128595 6.51113653,91.2369303 C-1.59491347,83.2610012 -2.20911573,70.3942618 5.10033466,61.6824637 C-0.86603151,53.5808312 -0.515653832,42.4490404 5.9484019,34.7386605 L5.9484019,34.740869 Z" id="Path" fill="#C42EA5"></path>
                    <path d="M44.4428102,49.4407013 C44.2977931,54.3278793 42.5080655,59.0231909 39.3631348,62.7668413 C46.1092817,71.921785 44.6857787,84.7242795 36.0933963,92.1737397 C27.5010139,99.6231999 14.6260206,99.2172765 6.51997057,91.2413474 C-1.58607944,83.2654182 -2.20028169,70.3986789 5.10916869,61.6868807 C2.29552892,57.8860376 44.520002,46.9958824 44.4428102,49.4407013 Z" id="Path" fill="#000000" opacity="0.1"></path>
                </g>
                <polygon id="Path" fill="#F1C0C0" points="7.31237149 142.0866 9.62909686 142.079974 12.8954809 142.079974 17.0253917 74.9899045 57.9247597 6.7403678 56.1469104 4.8322165 56.1469104 0 11.9149031 73.4086125"></polygon>
                <polygon id="Path" fill="#000000" opacity="0.1" points="9.8764498 142.079974 12.8954809 142.079974 17.0253917 74.9899045 57.9247597 6.7403678 56.1469104 4.8322165 13.9599819 73.9673651"></polygon>
                <polygon id="Path" fill="#F1C0C0" points="0.48587186 142.645352 106.46115 150.754996 106.551699 150.761621 209.112623 144.454121 209.189921 144.449704 209.189921 140.118819 96.1805431 138.045029 1.89710876 137.954481 1.20805412 137.954481 1.13296484 138.440352"></polygon>
                <polygon id="Path" fill="#000000" opacity="0.1" points="0.48587186 142.645352 106.46115 150.754996 106.551699 150.761621 209.112623 144.454121 209.189921 144.370198 209.189921 140.209368 209.099372 140.209368 106.46115 143.636973 1.89710876 137.954481 1.8816492 137.954481 1.69613449 138.075948 1.13296484 138.440352"></polygon>
                <polygon id="Path" fill="#000000" opacity="0.1" points="0.48587186 142.645352 106.46115 150.754996 106.46115 143.636973 1.69613449 138.075948 1.13296484 138.440352"></polygon>
                <polygon id="Path" fill="#F1C0C0" points="56.1336594 4.74166765 102.854656 54.8880606 101.410291 143.095888 105.378981 143.575135 105.445236 143.583969 109.413926 143.583969 109.888755 58.6756526 197.3744 87.8986364 198.849684 139.931096 202.043187 140.288874 203.125356 140.410342 200.620908 84.2899336 109.166573 52.1826377 59.0201799 0.0507956944 56.1336594 0.0507956944"></polygon>
                <polygon id="Path" fill="#000000" opacity="0.1" points="109.528768 57.0523989 109.888755 58.6756526 197.3744 87.8986364 198.849684 139.931096 202.043187 140.288874 199.538739 86.8164673"></polygon>
                <polygon id="Path" fill="#000000" opacity="0.1" points="56.1336594 4.74166765 102.854656 54.8880606 101.410291 143.095888 105.378981 143.575135 106.46115 52.00154 56.1336594 0.0507956944"></polygon>
                <polygon id="Path" fill="#F1C0C0" points="109.698823 92.4525809 141.786243 98.7711236 141.797285 98.7733321 197.9972 109.844585 200.570112 108.813211 200.561278 108.632114 200.393432 105.043288 109.731951 86.7237099"></polygon>
                <polygon id="Path" fill="#000000" opacity="0.1" points="141.797285 98.7733321 197.9972 109.844585 200.570112 108.813211 200.561278 108.632114"></polygon>
                <polygon id="Path" fill="#F1C0C0" points="143.946164 70.0516796 144.814108 117.830552 145.262435 142.342787 149.213457 142.210276 151.700237 142.126353 150.927259 70.7429428 149.213457 70.1731476 148.83801 70.0516796"></polygon>
                <polygon id="Path" fill="#000000" opacity="0.1" points="143.9815 70.0406371 143.9815 70.0516796 144.814108 117.830552 145.262435 142.342787 149.213457 142.210276 149.213457 70.0406371"></polygon>
                <path d="M82.0571316,82.2536888 C82.2889276,82.3796563 82.510461,82.5236531 82.7196841,82.684348 C82.9670852,82.9009341 83.1893338,83.1446667 83.3822367,83.4109473 C84.3296868,84.6366695 85.2042561,86.0611574 85.1114988,87.6071133 C85.1154976,88.0614088 84.9382524,88.4985607 84.6190014,88.821793 C84.2280954,89.1552777 83.6671342,89.1707373 83.1547603,89.1707373 C82.5982162,89.1707373 82.0129614,89.1707373 81.5315066,88.8836312 C81.0500517,88.5965251 80.6481032,88.0377725 80.078308,88.0510235 C79.9978759,88.0643288 79.9158042,88.0643288 79.8353721,88.0510235 C79.6388148,87.9869768 79.5990617,87.7285813 79.4709682,87.5651517 C79.2501173,87.27142 78.7841221,87.3443008 78.4373862,87.4723943 C78.0906504,87.6004878 77.7063699,87.792628 77.3640511,87.644658 C77.1653259,87.539812 77.0029018,87.3773879 76.8980558,87.1786627 C76.0786992,85.8535576 75.904227,84.261223 75.7496314,82.7218926 C75.6546656,81.785485 74.9302748,78.5919818 76.928975,79.3185811 C77.8123783,79.6366063 78.6383605,80.2726568 79.4422576,80.738652 L82.0571316,82.2536888 Z" id="Path" fill="#3F3D56"></path>
                <path d="M80.082725,82.5695055 C80.4500649,82.8337313 80.9501768,82.8136904 81.2951962,82.5209184 C81.6240513,82.2237626 81.8336305,81.8171631 81.8848679,81.376911 C82.1057188,81.3084472 82.2183527,81.5977618 82.3596972,81.7744425 C82.6070502,82.0747996 83.1105901,82.0703826 83.335858,82.3906164 C83.4926621,82.6114672 83.4573259,82.9184499 83.5677514,83.1680113 C83.7113044,83.4904536 84.0668743,83.6583002 84.3098102,83.9189042 C84.5392138,84.2036335 84.7048955,84.5342438 84.7956821,84.8884394 L85.1578774,85.9750256 C85.3311798,86.426899 85.4426139,86.9001222 85.4891537,87.3818455 C85.5352929,87.8683023 85.3841031,88.3529055 85.0695371,88.7268271 C84.5836653,89.2502436 83.7863937,89.3054563 83.0818795,89.2899968 C82.8465983,89.2949978 82.6117527,89.2675 82.3839908,89.208282 C81.7589829,89.0139332 81.3592429,88.3845083 81.1936048,87.7506664 C81.0279666,87.1168244 81.0456347,86.4520634 80.9484603,85.8027619 C80.8435026,85.1649672 80.6579762,84.5430827 80.3963332,83.9520318 C80.2019845,83.4926621 79.6675254,82.8080245 79.6763595,82.3199441 C79.8353721,82.3199441 79.9502145,82.4657056 80.082725,82.5695055 Z" id="Path" fill="#3F3D56"></path>
                <path d="M80.8755796,80.3322865 C80.7723316,80.0186972 80.7121519,79.6925381 80.6966904,79.3627513 C80.6966904,78.7001987 80.999256,78.0773993 81.3040302,77.4855191 L78.779705,77.8278379 C78.4749309,77.8697996 78.1348206,77.9316378 77.9625569,78.1856163 C77.8297757,78.4410369 77.8297757,78.7451352 77.9625569,79.0005559 C78.0891041,79.2525248 78.1897393,79.5166922 78.2629141,79.7889934 C78.2686393,80.02729 78.2959899,80.2645745 78.3446289,80.4979246 C78.4231862,80.6693415 78.5333223,80.8244312 78.6692796,80.9550859 C79.3914619,81.7545659 79.9325464,82.697599 80.4714225,83.6317981 C80.455963,83.605296 81.9930848,82.4149099 81.9312466,82.0262125 C81.8959105,81.8053616 81.4520003,81.5403406 81.3106557,81.3283238 C81.1154113,81.0205866 80.9686697,80.6846453 80.8755796,80.3322865 L80.8755796,80.3322865 Z" id="Path" fill="#BE6F72"></path>
                <polygon id="Path" fill="#F1C0C0" points="102.518962 71.703644 102.518962 73.8790248 65.2680503 81.1450176 63.3356054 82.3155271 56.6681184 82.3155271 56.6681184 81.0898049 93.2675205 72.246937"></polygon>
                <polygon id="Path" fill="#000000" opacity="0.1" points="102.518962 73.8790248 65.2680503 81.1450176 63.3356054 82.3155271 56.6681184 82.3155271 93.539167 74.4245264"></polygon>
                <path d="M72.6113409,133.457957 C71.7567429,132.422981 70.3015148,132.11363 69.0998125,132.711481 C68.9748947,132.770298 68.8647219,132.856324 68.7773703,132.963251 C68.5565194,133.272443 68.6978639,133.698685 68.7177405,134.080757 C68.7685362,135.012747 68.0264774,135.770266 67.3595078,136.421776 C67.0017295,136.77072 66.6373256,137.143958 66.4761044,137.618787 C66.3148833,138.093617 66.4341428,138.696539 66.8670104,138.943892 C67.0559133,139.038591 67.2614484,139.095601 67.4721418,139.111739 C68.1780705,139.249447 68.901899,139.269595 69.614395,139.171369 C70.3189092,139.03665 71.0101723,138.63691 71.3149465,137.987608 C71.3737456,137.811567 71.4710751,137.65086 71.5998441,137.517196 C71.9885415,137.210213 72.5848388,137.5702 73.0265405,137.351558 C73.3909444,137.17046 73.406404,136.885562 73.410821,136.510116 C73.424072,135.472117 73.2694764,134.297191 72.6113409,133.457957 Z" id="Path" fill="#C42EA5"></path>
                <path d="M77.9117612,133.418204 C78.1834078,134.133761 78.2209524,134.913364 78.2562885,135.677508 C78.2761651,136.11921 78.2894162,136.591831 78.0508972,136.965069 C77.8123783,137.338307 77.346383,137.534864 76.9002643,137.627621 C75.9793163,137.817553 74.9126067,137.638664 74.318518,136.907648 C73.8635652,136.348895 73.7685994,135.582542 73.8525227,134.858152 C73.9231949,134.264063 74.0733735,133.568383 73.6471314,133.146558 C73.536706,133.033924 73.3931529,132.954417 73.2915615,132.832949 C73.0707107,132.563511 73.1060468,132.157146 73.2253063,131.82587 C73.3806264,131.509054 73.4970507,131.174612 73.5720421,130.829832 C73.5897102,130.666403 76.5623625,130.944675 76.8362176,131.079394 C77.2094555,131.2627 77.1520343,131.569683 77.2646682,131.940712 C77.4214723,132.457503 77.7218295,132.923498 77.9117612,133.418204 Z" id="Path" fill="#C42EA5"></path>
                <path d="M78.4572628,101.690772 C79.040309,102.068427 79.2655769,102.810486 79.3561257,103.49954 C79.6056872,105.387815 79.1684025,107.295966 79.1352749,109.201909 C79.1043558,111.871996 79.8773337,114.59067 79.2169897,117.176833 C78.8216667,118.722789 79.15736,120.489596 78.7863306,122.051011 C78.6759051,122.514798 78.4727224,122.952083 78.366714,123.415869 C78.1458631,124.420741 78.3777565,125.471991 78.6891562,126.454777 C78.7885763,126.719651 78.8517228,126.996753 78.8768794,127.278551 C78.8619062,127.712352 78.751832,128.13757 78.5544372,128.524149 L77.2293321,131.658023 C77.081362,132.009176 76.4983158,132.066597 76.1250779,132.112976 C75.4227722,132.196899 74.6387517,132.256529 74.079999,131.821453 C73.5212464,131.386376 73.3865274,130.657569 73.3003956,129.977348 C73.1351932,128.6715 73.0613967,127.355709 73.0795447,126.039577 C73.103819,125.696085 73.0732535,125.350919 72.9889959,125.017038 C72.8675279,124.639383 72.6002984,124.312524 72.5274176,123.912784 C72.4346602,123.395993 72.6974728,122.888036 72.7946471,122.366828 C72.8612911,121.890777 72.8538412,121.407278 72.772562,120.933506 C72.6864302,120.226783 72.5870473,119.52006 72.4744134,118.817755 C72.3154008,117.834969 72.5428772,116.865433 72.6952642,115.880439 C72.8388173,114.955074 72.6555111,114.01204 72.4744134,113.093301 C72.4900703,113.838967 72.3970737,114.582941 72.1983498,115.301809 C72.0812989,115.652962 71.9134523,115.988655 71.8118609,116.346434 C71.3591166,117.952019 72.3242348,119.637111 72.1873073,121.300118 C72.1232606,122.077513 71.8184864,122.846074 71.9046182,123.612427 C71.9642479,124.173388 72.2248519,124.68797 72.4037411,125.222429 C72.5826303,125.756888 72.6753877,126.368645 72.4037411,126.867768 C71.6859759,128.223792 72.2226434,130.067897 72.8653194,131.459257 C72.9957691,131.706022 73.1093979,131.961318 73.2054297,132.223401 C73.3953614,132.850617 73.2363488,133.524213 73.2871445,134.177931 C72.9123424,134.239284 72.5301876,134.124393 72.251354,133.866531 C72.1541797,133.76494 72.0746734,133.645681 71.9797075,133.539672 C71.7143636,133.286786 71.4002483,133.090652 71.056551,132.963251 C70.8547517,132.850311 70.6248625,132.797436 70.3939984,132.810864 C70.1512881,132.878665 69.9329432,133.014269 69.7645735,133.20177 C69.5461455,133.393839 69.3144105,133.570223 69.0711019,133.729604 C68.967464,133.809235 68.8463234,133.862991 68.7177405,133.886408 C68.5851399,133.906904 68.4543206,133.840159 68.3930898,133.72077 C68.37929,133.683921 68.3711009,133.645208 68.3687962,133.605927 C68.2867699,132.939074 68.2432637,132.268047 68.2384942,131.596185 C68.2384942,130.441135 66.8559679,129.646072 66.6814957,128.504273 C66.5423597,127.583325 66.8007552,126.644709 66.7146234,125.717135 C66.6726617,125.240097 66.5401512,124.771894 66.5489852,124.294856 C66.5489852,123.985665 66.6196575,123.683099 66.6439511,123.376116 C66.6641985,123.035359 66.659031,122.693566 66.6284915,122.353577 L66.5600278,121.286867 C66.4937725,120.233409 66.4208917,119.157865 66.0056921,118.194955 C65.5133371,117.070599 65.2218221,115.868661 65.1443738,114.643674 C65.1002037,113.870696 65.1289143,113.097718 65.0405739,112.322531 C64.9610676,111.622434 64.784387,110.926754 64.8351827,110.224448 C64.8771443,109.681155 65.0560335,109.15553 65.0979952,108.612237 C65.184127,107.567613 64.7865955,106.551699 64.4751958,105.551245 C64.1637961,104.55079 63.9341112,103.442119 64.3426853,102.477001 C64.4010738,102.318584 64.4982699,102.177346 64.6253744,102.066218 C64.7820276,101.962559 64.9603049,101.896082 65.1465824,101.871869 C68.935829,101.075881 72.8197524,100.828208 76.6794135,101.136436 C77.3086145,101.172114 77.9192862,101.362522 78.4572628,101.690772 Z" id="Path" fill="#3F3D56"></path>
                <circle id="Oval" fill="#BE6F72" cx="65.9195603" cy="74.6961729" r="3.53803054"></circle>
                <path d="M65.2349227,79.1153983 C65.2857816,79.3176412 65.2857816,79.5293293 65.2349227,79.7315722 C65.179287,79.8728914 65.1009597,80.0041831 65.0030293,80.1202697 C64.6605442,80.5620489 64.2815571,80.9742805 63.8700645,81.3526174 C64.0796918,81.8208341 64.4571182,82.1935329 64.92794,82.3972419 C65.395411,82.596221 65.885765,82.7364281 66.3877641,82.81465 C66.6383321,82.8805304 66.8990854,82.8985133 67.156325,82.8676542 C67.3933985,82.8080708 67.6178222,82.7063321 67.8188776,82.567297 L69.7844501,81.390162 C70.0810277,81.2295155 70.3556713,81.0313268 70.6015982,80.8004903 C70.9620921,80.4299646 71.1661305,79.9348947 71.1713934,79.417964 C71.1805469,79.3253724 71.1553995,79.2326413 71.1007211,79.15736 C71.0253805,79.0917809 70.9308813,79.0522772 70.8312831,79.0447261 C70.14002,78.892339 69.5945184,78.3313778 69.2853272,77.6953274 C69.0058209,77.0433157 68.8249489,76.3533222 68.7486596,75.64804 L66.6527851,76.7522943 C66.3413854,76.9179324 66.0321942,77.0835705 65.709752,77.2271236 C65.5043607,77.3198809 65.0891611,77.3971787 64.9433996,77.584902 C64.6651275,77.9316378 65.1620419,78.6979902 65.2349227,79.1153983 Z" id="Path" fill="#BE6F72"></path>
                <path d="M63.8833155,80.7099414 C63.5849022,80.9545932 63.3519243,81.2695308 63.2053034,81.6264724 C63.0683759,82.0681741 63.2053034,82.5341694 63.3289799,82.9714541 C63.9086159,84.8352816 64.3514933,86.738916 64.654085,88.6671974 C64.8395997,89.9923025 64.9080634,91.3372841 64.9986123,92.6778487 C65.184127,95.4119822 65.453565,99.7715779 65.8135519,102.488043 C67.138657,102.547673 68.4306344,102.161184 69.744697,102.019839 C72.2005584,101.759235 74.7293005,102.355533 77.1343662,101.798989 C76.55132,99.4955143 75.9682738,95.5621608 75.3852275,93.260895 C75.1272237,92.3542044 74.9483997,91.4268319 74.8507685,90.4892169 C74.7999728,89.8156218 74.8308919,89.1398182 74.839726,88.4618061 C74.8596025,87.136701 74.7867218,85.811596 74.713841,84.4864909 C74.6299177,82.940535 74.5459943,81.394579 74.1793819,79.8817508 C74.1538431,79.6889836 74.0635003,79.5106345 73.9231949,79.3760023 C73.7023441,79.2147812 73.415238,79.2722024 73.1524255,79.3075386 C72.3477183,79.4097419 71.5332462,79.2167167 70.8599937,78.7642455 C70.5684706,78.5654797 70.1775646,78.3225438 69.9059181,78.5433946 C69.7899951,78.6766145 69.7135143,78.8395186 69.6850672,79.0138069 C69.4418922,79.645879 68.938068,80.1424597 68.3025409,80.3764566 C67.6731707,80.6043818 67.0140573,80.7397753 66.3458024,80.7784052 C66.1413008,80.8223065 65.9280586,80.7982683 65.7384626,80.7099414 C65.4248544,80.5178012 65.4027693,79.826538 65.0074463,79.7801594 C64.6607105,79.7404062 64.1174174,80.4868821 63.8833155,80.7099414 Z" id="Path" fill="#3F3D56"></path>
                <path d="M69.1086465,86.1031191 C68.2937069,85.3235156 67.9359285,84.1927593 67.3418398,83.2320581 C66.9373006,82.5860474 66.4204684,82.0176068 65.8157604,81.5535917 C65.5117646,81.3528309 65.2329701,81.1163005 64.9853612,80.8490775 C64.7755529,80.590682 64.6165403,80.2461546 64.2985151,80.1467718 C64.0317467,80.0887265 63.7534897,80.1655155 63.5542478,80.3521631 C63.3595583,80.5376977 63.1752367,80.7338159 63.0021206,80.9396263 C62.0657131,81.9091615 60.4203743,82.0438805 59.6783154,83.1658028 C59.4781207,83.403669 59.3420405,83.6887533 59.2829924,83.9939935 C59.0693434,85.6269125 59.4915774,87.2794761 60.4623359,88.6097762 C60.650297,88.9181349 60.9389331,89.1521642 61.2794841,89.2723287 C61.2332997,89.684125 61.2878693,90.1009765 61.4384967,90.4870083 C61.8474158,91.8847763 62.3498811,93.2534593 62.9424909,94.5837915 C62.8007983,95.1041624 62.7018229,95.635232 62.6465508,96.1717091 C62.4919552,97.5211078 62.6355082,98.890383 62.4897467,100.24199 C62.3704872,101.346244 62.048045,102.421788 62.0370025,103.528251 C62.0370025,103.704931 62.052462,103.91474 62.2048491,104.005289 C62.2859138,104.046936 62.3766906,104.066007 62.4676616,104.060501 L65.184127,104.142216 C66.761002,104.188595 68.3533366,104.234973 69.9059181,103.94345 C70.1126686,103.912859 70.3132171,103.849489 70.5000068,103.755727 C71.0256319,103.461996 71.200104,102.799443 71.2840273,102.209771 C71.3936292,101.4449 71.4372239,100.672017 71.4143293,99.8996714 C71.7433971,100.939879 72.1343031,102.015422 73.1281319,102.465958 C73.6537569,102.704477 74.2544712,102.686809 74.8308919,102.671349 C76.0732849,102.616022 77.311406,102.488449 78.5389776,102.289278 C78.6923813,102.308329 78.8457414,102.253584 78.9524041,102.141697 C79.0590668,102.02981 79.1064214,101.874009 79.0800622,101.721691 L79.0933132,100.515845 C79.1198153,98.0666094 78.5124755,95.7255904 78.2761651,93.2873971 C78.2010758,92.5188361 78.2077013,91.7414411 78.0199781,90.9883398 C77.9426803,90.6725231 77.8300464,90.3633319 77.7615826,90.0453067 C77.7026525,89.7339488 77.6657525,89.4188228 77.6511572,89.1022735 L77.4788936,86.6729142 C77.3971787,85.5487834 77.2801278,84.4644058 77.193996,83.3424835 C77.1466612,82.2500239 76.9883056,81.1652141 76.7213752,80.1048101 C76.5292349,79.4422576 76.1294949,78.6913647 75.4382317,78.6096499 C75.0694108,78.5676882 74.7116325,78.7289093 74.3604796,78.8415433 C73.4973794,79.1132647 72.5710754,79.109405 71.7102695,78.8305007 C71.4443108,78.7254873 71.1671655,78.6513843 70.8842873,78.6096499 C70.5943676,78.5701927 70.305687,78.6900543 70.1289774,78.9232581 C70.0432759,79.0958033 70.0029896,79.2873529 70.0119265,79.4798022 C69.9081266,81.6861022 69.7159863,83.9586574 69.1086465,86.1031191 Z" id="Path" fill="#C42EA5"></path>
                <path d="M65.5551564,86.1693743 C64.537034,85.0960392 63.4924095,84.0028275 62.1805555,83.3203984 C61.6637645,83.0509604 61.0763013,82.8477776 60.5042976,82.949369 C59.9322939,83.0509604 59.4000434,83.5478748 59.4265455,84.1287125 C59.4442135,84.4886994 59.6628559,84.8067246 59.7313196,85.160086 C59.8108259,85.5576175 59.6959835,85.9816511 59.81966,86.3659316 C59.920159,86.6191543 60.0703452,86.84969 60.2613617,87.0439437 L61.8249856,88.8968823 C62.4875382,89.6698602 63.1500907,90.4538807 64.002575,90.9883398 C64.8550592,91.5227988 65.9593135,91.7723603 66.895721,91.3924968 C67.5619568,91.0828325 68.1159133,90.5743962 68.4814301,89.9370897 C68.8701276,89.3187074 69.1439827,88.6429038 69.5083865,88.0046448 C70.0755458,86.9848152 70.8239626,86.0769856 71.716895,85.3257241 C71.2575252,85.2064646 70.6811045,85.038618 70.3917899,84.6631716 C70.3094425,84.5438135 70.2391611,84.416567 70.1819816,84.2833081 L69.8242033,83.5103301 C69.5782181,83.4975097 69.3380507,83.5879728 69.1616507,83.7598916 C69.0082276,83.9372265 68.8437329,84.1046718 68.6691533,84.261223 C68.3577536,84.4953249 67.9359285,84.5593717 67.6532394,84.8266012 C67.5438625,84.9413244 67.4448311,85.0654832 67.3572993,85.1976306 C66.9247459,85.7661785 66.2678617,86.1203808 65.5551564,86.1693743 Z" id="Path" fill="#3F3D56"></path>
                <path d="M71.7986098,81.5513831 C72.5649622,80.1533973 72.5296261,78.4771394 72.7482685,76.8980558 C72.7719472,76.4798763 72.9187035,76.0780251 73.1700936,75.7430059 C73.6117953,75.243883 74.3913987,75.2372575 75.0583683,75.3013042 C75.2549255,75.3233893 75.50007,75.4161467 75.4890274,75.6127039 C75.4735397,75.6831342 75.4391857,75.7480251 75.3896446,75.8004271 C74.7431881,76.6347709 74.3630095,77.644476 74.2986414,78.6979902 C74.6453772,78.9387176 75.1820448,78.4440118 75.5155295,78.6979902 C75.7363804,78.8835049 75.634789,79.2501173 75.5022785,79.5151384 C75.1945596,80.1291037 74.8772706,80.738652 74.5504113,81.3437834 C74.2894957,81.8771544 73.9491969,82.3678699 73.541123,82.7991904 C73.2606424,83.0686285 72.9315747,83.2806453 72.6466771,83.5456663 C71.9841245,84.1662572 71.5843845,85.043035 70.8997469,85.6481663 C70.8419061,85.7108318 70.7635839,85.7507762 70.678896,85.7608003 C70.5917915,85.7545682 70.5096764,85.7178119 70.4470026,85.6570004 C70.1049958,85.3788139 69.8212959,85.0358223 69.6121864,84.647712 C69.3515824,84.1662572 69.3913356,84.0249126 69.8021182,83.6848023 C70.5706791,83.0774625 71.3193635,82.4259525 71.7986098,81.5513831 Z" id="Path" fill="#BE6F72"></path>
                <path d="M64.2742215,85.2197157 C64.406732,85.3014305 64.5701616,85.3941879 64.7159232,85.3257241 C64.7754858,85.289702 64.8260832,85.240615 64.8638933,85.182171 C65.1163718,84.8452427 65.3269866,84.4788917 65.4911097,84.0911679 C65.5193559,84.0363946 65.5351906,83.9760719 65.5374884,83.9144872 C65.5374884,83.7731426 65.4116034,83.6693428 65.2945524,83.5876279 C64.6673575,83.1878911 63.9930404,82.8674236 63.2870182,82.6335523 C62.703972,82.4127014 62.0944237,82.2205612 61.4760413,82.2757739 C61.0065292,82.3073037 60.5702124,82.5290515 60.2679872,82.8897393 C59.8262855,83.4573259 60.5661358,83.6295896 61.0299226,83.8349809 C62.1032577,84.3230613 63.2649332,84.6057503 64.2742215,85.2197157 Z" id="Path" fill="#C42EA5"></path>
                <path d="M63.5785414,88.9741801 C63.5634059,89.076414 63.5978499,89.1797462 63.6712987,89.2524521 C63.7353455,88.9388439 63.6514221,88.6075677 63.7176774,88.2917509 C63.8148518,87.8169216 64.27643,87.4591433 64.3161832,86.9821054 C63.4703244,86.8164673 63.5851669,88.4618061 63.5785414,88.9741801 Z" id="Path" fill="#000000" opacity="0.1"></path>
                <polygon id="Path" fill="#000000" opacity="0.2" points="102.518962 71.703644 102.518962 73.8790248 93.539167 74.4245264 93.2675205 72.246937"></polygon>
                <path d="M62.7348911,75.2217979 C63.2958523,74.7646367 62.9712015,73.806144 63.351065,73.1921786 C63.5719158,72.8564854 63.9451538,72.6798047 64.3117662,72.5296261 C64.7542269,72.3225985 65.2282642,72.1912118 65.714169,72.1409286 C66.2071209,72.0935678 66.6948216,72.2732042 67.0392741,72.629009 C67.1828271,72.7924386 67.2800015,72.9912044 67.4147205,73.1612595 C67.7546331,73.5654673 68.2890406,73.7503893 68.8060809,73.6427144 C69.0998125,73.5764591 69.4045867,73.3533998 69.3847101,73.0530426 C69.3515378,72.8703594 69.2582553,72.7040056 69.1196891,72.5804218 L68.4880556,71.8803246 C67.7702904,71.0852616 66.9730188,70.2416114 65.9195603,70.0428456 C65.1863355,69.9037096 64.4354426,70.1002668 63.7287199,70.3365772 C63.4438223,70.4315431 63.1235886,70.5728876 63.0440823,70.8622022 C62.9910781,71.060968 63.0705844,71.2774018 63.0242057,71.4783761 C62.9336569,71.8781161 62.4212829,72.0128351 62.182764,72.3485284 C61.9442451,72.6842217 62.0171259,73.0817532 61.9486621,73.4527826 C61.8801984,73.8238121 61.6814326,74.1860075 61.657139,74.5702879 C61.6416794,74.8021813 61.7587304,75.2328405 62.0193344,75.3167638 C62.2799384,75.4006871 62.57367,74.9457344 62.7348911,75.2217979 Z" id="Path" fill="#3F3D56"></path>
                <path d="M69.1704848,72.7350174 C68.9842653,71.76334 68.5827986,70.8457019 67.9955583,70.0494711 C67.4734,69.3055322 66.7469962,68.7287047 65.9041008,68.3886728 C65.0504547,68.0550917 64.0910575,68.1307693 63.3002693,68.594064 C62.7208293,69.0076665 62.2699316,69.5764559 61.9994578,70.2349858 C61.4274541,71.4673335 61.2154373,72.9735363 61.8801984,74.1572968 C62.1452194,73.8348546 62.6001721,73.9806162 63.0021206,73.8635652 C63.5056606,73.7200122 63.9319027,73.3843189 64.411149,73.1745106 C65.8577221,72.5362516 67.6245288,73.0530426 69.1704848,72.7350174 Z" id="Path" fill="#FED253"></path>
                <path d="M62.2181001,72.6665536 C62.1673045,72.2690221 62.1341768,71.8074438 62.4168659,71.5247548 C62.4453563,71.4896364 62.4887292,71.4699958 62.5339169,71.4717506 C62.5737412,71.4846867 62.606488,71.5134399 62.6244657,71.5512569 C62.7876344,71.8087825 62.9266266,72.0808524 63.0396653,72.363988 C62.7028777,72.2863717 62.3528128,72.4220219 62.1562619,72.7063068" id="Path" fill="#000000" opacity="0.1"></path>
                <path d="M67.3793844,71.5446313 L67.2998781,70.7561938 C67.2870566,70.6912222 67.292406,70.6239727 67.3153377,70.5618451 C67.384298,70.4541183 67.5235422,70.4159692 67.6377799,70.4735047 C67.7464311,70.5337112 67.8359689,70.623249 67.8961754,70.7319002 C68.0800149,71.0141126 68.2325656,71.3155113 68.3511281,71.6307632 C67.9954212,71.5622359 67.6294952,71.5667442 67.2755845,71.6440142" id="Path" fill="#000000" opacity="0.1"></path>
                <polygon id="Path" fill="#000000" opacity="0.1" points="69.3559995 103.54371 69.3559995 105.345853 67.8343371 105.447445 59.8307025 105.447445 59.8307025 103.54371"></polygon>
                <polygon id="Path" fill="#F1C0C0" points="69.3559995 103.54371 69.3559995 105.447445 59.8307025 105.447445 34.5256126 73.7487228 34.5256126 72.251354 39.83045 72.251354"></polygon>
                <polygon id="Path" fill="#000000" opacity="0.1" points="69.3559995 103.54371 69.3559995 105.447445 59.8307025 105.447445 34.5256126 73.7487228 34.5256126 72.251354 39.83045 72.251354"></polygon>
                <polygon id="Path" fill="#000000" opacity="0.1" points="69.3559995 103.54371 69.3559995 105.447445 59.8307025 105.447445 34.5256126 73.7487228 34.5256126 72.251354 59.96763 103.54371"></polygon>
                <path d="M37.8427923,135.315313 C37.8764479,135.496407 37.8331967,135.683339 37.7234183,135.831246 C37.6136399,135.979154 37.4472441,136.074686 37.2641631,136.094916 C36.6501978,136.302516 35.9986878,136.507907 35.5636116,136.97832 C35.1285355,137.448732 35.0424036,138.321093 35.5636116,138.703165 C35.8300335,138.863834 36.1359133,138.947186 36.447015,138.943892 C37.4474693,139.012356 38.4898853,138.999105 39.3975823,138.575071 C40.0468838,138.274714 40.6586406,137.76234 41.3719889,137.808719 C41.7408098,137.830804 42.1339243,138.003068 42.462992,137.835221 C42.7920598,137.667374 42.8848171,137.199171 42.8870257,136.808265 C42.8954072,135.992216 42.7723652,135.180138 42.5226218,134.403199 C42.4894941,134.297191 41.0848828,134.215476 40.9170361,134.182348 L39.2142761,133.961497 C38.8918339,133.919536 38.1961537,133.6766 37.9421752,133.946038 C37.6881968,134.215476 37.8427923,134.995079 37.8427923,135.315313 Z" id="Path" fill="#C42EA5"></path>
                <path d="M48.0041397,129.802876 C48.0762267,130.200605 48.193293,130.58885 48.3530841,130.960134 C48.5893945,131.560849 48.8919601,132.199108 49.4705894,132.490631 C49.9962144,132.753443 50.6410988,132.658477 51.1755579,132.408916 C51.3986221,132.31653 51.5941064,132.168205 51.7431446,131.978257 C51.9155528,131.677736 51.992572,131.33192 51.9639954,130.986636 C51.9639954,130.131944 51.9131997,129.24854 51.5222937,128.488813 C51.1866004,127.826261 50.6013457,127.256466 50.5925116,126.523241 L48.5805604,126.911938 C48.4728558,126.922293 48.3702685,126.962869 48.2846203,127.028989 C48.2208712,127.096123 48.1765915,127.179338 48.1565268,127.269717 C47.9417071,128.096194 47.8899474,128.956606 48.0041397,129.802876 L48.0041397,129.802876 Z" id="Path" fill="#C42EA5"></path>
                <path d="M23.9777763,108.822046 C23.893853,109.533185 23.9291891,110.295121 24.3002185,110.909086 C24.6712479,111.523051 25.4530599,111.929417 26.1288635,111.684272 C26.1988142,111.666408 26.2585605,111.621001 26.2945016,111.558387 C26.3124837,111.483748 26.3022591,111.405097 26.265791,111.337537 C25.9674435,110.541317 25.9920116,109.660037 26.3342548,108.881675 C26.378425,108.780084 26.4733908,108.660824 26.5771907,108.700578 C26.6206069,108.722566 26.6555442,108.75828 26.6765736,108.802169 C26.7834879,108.987144 26.8370032,109.198147 26.8311692,109.411717 C26.7999934,109.605217 26.7940544,109.801944 26.8135011,109.996972 C26.8554628,110.186904 27.0586456,110.365793 27.2353262,110.284078 C27.3385491,110.220688 27.4112087,110.117687 27.4363005,109.999181 C27.9287979,108.574693 27.7057385,107.017694 27.4804707,105.526951 C27.4842811,105.457657 27.4571509,105.390245 27.4064027,105.342908 C27.3556545,105.295571 27.2865196,105.273191 27.2176582,105.281806 C26.1752422,105.178007 25.605447,104.928445 25.0091497,105.89798 C24.4967758,106.715128 23.9777763,107.839259 23.9777763,108.822046 Z" id="Path" fill="#C42EA5"></path>
                <path d="M36.1643259,105.197883 C35.8551347,106.483235 35.543735,107.784047 35.5238585,109.104735 C35.5292918,109.927374 35.5912762,110.748668 35.7093732,111.562805 L35.9412666,113.475373 C36.0207729,114.120257 36.0980707,114.762933 36.2107046,115.401192 C36.2825573,115.730011 36.3217645,116.065122 36.3277555,116.401647 C36.306092,116.733397 36.2535975,117.062412 36.1709514,117.384433 C36.0320742,118.060708 35.9544621,118.74813 35.9390581,119.438346 C35.9147645,120.5426 36.051692,121.646854 36.1378238,122.751108 C36.3097738,124.951605 36.2839041,127.163093 36.060526,129.358966 C35.9713466,129.951677 36.1000253,130.556624 36.4227214,131.061726 C36.5536682,131.220992 36.6614764,131.397946 36.7429551,131.587351 C36.9085933,132.093099 36.5221043,132.598848 36.4227214,133.117847 C36.2903557,133.960537 36.8655568,134.751191 37.7080733,134.884654 C39.4748801,135.094462 41.290274,134.999496 42.8826086,135.80781 C43.0504553,135.317521 42.6838429,134.760977 42.8516895,134.261854 C42.9576979,133.952663 43.249221,133.751689 43.4479868,133.491085 C43.7150157,133.094013 43.8481151,132.621974 43.8278503,132.143895 C43.8356539,131.519868 43.7247309,130.900048 43.500991,130.317458 C43.3132678,129.831586 43.0438298,129.35234 43.0592893,128.831132 C43.0592893,128.574945 43.1498382,128.305507 43.0460383,128.069197 C42.9748526,127.933435 42.878115,127.812701 42.7611407,127.713627 C42.1010861,126.990531 41.6954741,126.071506 41.6060908,125.096544 C41.5199712,124.129014 41.5511162,123.15462 41.6988481,122.194564 C41.807065,121.280242 41.9528266,120.315124 42.5336643,119.601775 C42.2643094,117.438744 42.422641,115.243864 42.9996596,113.141888 C43.0570808,112.947539 43.1476297,112.722271 43.3463954,112.675893 C43.5066368,112.65947 43.66484,112.722093 43.770429,112.843739 C44.1171649,113.16839 44.282803,113.638802 44.4329816,114.089338 C44.5986197,114.577419 44.7664663,115.098627 44.6405814,115.597749 C44.5875772,115.8186 44.4815688,116.012949 44.4197305,116.224966 C44.2853753,116.651027 44.3088943,117.111217 44.4859858,117.52136 C44.5723029,117.671249 44.6264569,117.837472 44.6449984,118.009441 C44.6245186,118.157127 44.5797438,118.300406 44.5124879,118.433474 C44.3468251,118.962007 44.41346,119.536031 44.6957941,120.012558 C44.9772867,120.481543 45.3246172,120.907711 45.7271675,121.278033 C45.5348372,122.125684 45.5845791,123.010322 45.8707206,123.831069 C45.9124249,123.905742 45.9227527,123.993925 45.8994312,124.076213 C45.859678,124.160137 45.7580866,124.191056 45.6785803,124.250686 C45.4577295,124.431783 45.594657,124.774102 45.7426271,125.010412 C46.1481696,125.659028 46.5959938,126.280227 47.0831917,126.869977 C47.5248934,127.39781 47.4851403,128.415933 48.1432758,128.605864 C48.4198318,128.665594 48.7059529,128.665594 48.982509,128.605864 C49.6318105,128.506481 50.3562012,128.318758 50.6742265,127.744546 C50.8045285,127.508236 50.8575327,127.221129 51.0607154,127.044449 C51.2638982,126.867768 51.5267107,126.836849 51.6393447,126.624832 C51.7519786,126.412815 51.6260936,126.134543 51.6636382,125.889399 C51.7011829,125.644254 51.9154082,125.447697 51.983872,125.189302 C52.1473016,124.593004 51.4516214,124.102716 51.3566556,123.493167 C51.219728,122.609764 52.3328163,121.947211 52.2864376,121.063808 C52.1892633,119.144614 52.127425,117.216586 52.0280421,115.297392 C51.903315,113.578255 51.8856128,111.853026 51.9750379,110.131691 C52.0523357,109.060564 52.1958888,107.938642 51.8027743,106.942605 C51.2373961,105.537993 49.6781891,104.749556 48.1697779,104.599377 C46.6613666,104.449199 45.1573723,104.806977 43.6622121,105.041079 C41.180745,105.423508 38.659612,105.476233 36.1643259,105.197883 Z" id="Path" fill="#3F3D56"></path>
                <circle id="Oval" fill="#FBBEBE" cx="40.6475981" cy="80.5509288" r="3.53803054"></circle>
                <path d="M39.2076506,84.7493034 C38.9616223,85.3221602 38.3885162,85.68463 37.7654946,85.6614174 C37.6374011,86.1914594 37.9443837,86.7259185 38.2955366,87.1433265 C39.780302,88.8711154 42.0832606,89.661015 44.3159306,89.208282 C44.7426138,89.1318877 45.1474074,88.9630353 45.5018997,88.7135761 C45.979792,88.3145304 46.3006453,87.7589064 46.4073881,87.1455351 C46.5090355,86.5364145 46.5379488,85.9173738 46.49352,85.3014305 C46.5059099,85.1797966 46.4711248,85.0580486 46.3963456,84.9613202 C46.3080252,84.8929192 46.1988324,84.8570415 46.0871544,84.8597288 C45.3406785,84.7934736 44.5610751,84.7647629 43.9051481,84.3981505 C43.249221,84.0315381 42.7832258,83.2033475 43.0990425,82.5231269 C43.0482468,82.6291353 41.7584778,82.679931 41.5884227,82.702016 C41.0561721,82.7771053 40.5239216,82.8610287 39.9938796,82.958203 C39.7391877,82.9721842 39.4874539,83.0197092 39.2451952,83.0995476 C38.9249615,83.2651857 39.0442209,83.1834709 39.1193102,83.483828 C39.2319442,83.9431978 39.3975823,84.2722656 39.2076506,84.7493034 Z" id="Path" fill="#FBBEBE"></path>
                <path d="M41.8998224,86.9003906 C41.423317,86.9058859 40.9479207,86.8532289 40.4841685,86.7435865 C40.0159253,86.6342117 39.6032056,86.3588036 39.322493,85.9684001 C39.1590634,85.7210471 39.053055,85.4096474 38.792451,85.2705114 C38.3662088,85.0496605 37.880337,85.4228985 37.5402267,85.7652173 C37.2305594,86.1028167 36.8716782,86.3917086 36.4757256,86.6221186 C36.0031048,86.87168 35.4509777,86.9600203 35.004859,87.253752 C34.6563395,87.5170908 34.3572469,87.8401108 34.1214556,88.2078276 L30.9919991,92.4702489 C29.7353578,94.1840515 28.6421461,96.023739 27.5224323,97.8325075 C26.5528971,99.39834 26.0449402,101.200483 25.3139239,102.889992 C25.2560234,102.993385 25.2320743,103.112359 25.2454601,103.230102 C25.2719622,103.344945 25.4110983,103.437702 25.5082726,103.371447 C25.1792049,103.698306 25.4685195,104.25485 25.3912217,104.71422 C25.3033505,105.035647 25.1200791,105.322875 24.8655967,105.537993 C25.3517003,105.474586 25.845192,105.497765 26.3232123,105.606457 C26.8172427,105.746474 27.2834387,105.970606 27.7013215,106.26901 C27.9685511,106.227048 27.9442575,105.752219 28.1430232,105.575538 C28.2622827,105.471738 28.4389634,105.484989 28.5957675,105.45407 C29.1854392,105.339228 29.4195411,104.630296 29.8722853,104.230556 C30.2499403,103.897072 30.7843993,103.788855 31.1841394,103.475247 C31.8334408,102.965081 31.9725769,102.057384 32.3126872,101.304283 C32.6020018,100.666024 33.0569545,100.10948 33.310933,99.4557612 C33.4765711,99.0317276 33.5560774,98.5723578 33.7923878,98.1814518 C34.1700428,97.5498184 34.8811825,97.2141251 35.5591946,96.9115594 C35.9876452,96.7194192 36.442598,96.5206534 36.9041763,96.5515726 C36.8798827,97.578529 36.7495807,98.5900259 36.97264,99.5926887 C37.0499378,99.9460501 37.1581547,100.290577 37.2509121,100.64173 C37.6727372,102.223022 37.7721201,103.87057 37.7919967,105.500449 C38.8066977,105.268266 39.8430832,105.1439 40.8839085,105.129419 C41.7032651,105.105126 42.5204133,105.211134 43.3397699,105.195675 C44.3115136,105.178007 45.2722148,104.990283 46.2439585,104.924028 C47.2157022,104.857773 48.2316161,104.924028 49.0907259,105.36573 C49.0209701,103.966088 49.0601049,102.563141 49.2077768,101.169564 L49.4418787,98.9743063 C49.494708,98.336504 49.5928665,97.7032706 49.7356104,97.0794061 C49.8637039,96.5758662 50.0492186,96.0899943 50.1905631,95.5886629 C50.6874775,93.8218561 50.5969287,91.9357899 50.5019628,90.0961024 C50.4533756,89.1508607 50.0889717,88.2210787 49.6605211,87.379637 C49.5054453,87.0670832 49.328317,86.765965 49.1304791,86.4785655 C48.0781066,85.0286088 46.3555197,84.2198434 44.5677006,84.3363123 C44.4553536,84.3397747 44.3445835,84.363725 44.2408413,84.4069846 C44.054429,84.5263427 43.9088236,84.6996824 43.8234332,84.903899 C43.3664979,85.7251604 42.7035319,86.4132445 41.8998224,86.9003906 L41.8998224,86.9003906 Z" id="Path" fill="#3F3D56"></path>
                <path d="M37.5358097,81.7236468 C37.6351926,81.502796 37.9024221,81.4210811 38.0658517,81.2444005 C38.3794599,80.9087072 38.2381154,80.3720396 38.2867025,79.9192954 C38.3662088,79.2567429 38.9161275,78.7024072 39.5455524,78.4660968 C40.1874402,78.2600924 40.8704613,78.2168344 41.53321,78.3402119 C41.8522352,78.3634974 42.1604178,78.4659719 42.4298644,78.6383605 C42.5447068,78.7222838 42.6507152,78.8305007 42.7589322,78.9077985 C43.169178,79.1557521 43.7023106,79.0312892 43.9603608,78.627318 C43.1785488,77.6864934 42.3128135,76.6926645 41.1246359,76.4033499 C40.7170185,76.320142 40.3016511,76.2809005 39.8856627,76.286299 C39.3357441,76.2752564 38.7681574,76.2664224 38.2602004,76.4762307 C37.5689373,76.7611283 37.0830654,77.4170553 36.833504,78.123778 C36.6152608,78.8401209 36.4985458,79.5835285 36.4867682,80.3322865 C36.4414933,80.831858 36.4414933,81.3345007 36.4867682,81.8340722 C36.5721429,82.5163137 36.8256091,83.1666745 37.22441,83.726764 C37.2783271,83.8137522 37.3545952,83.8846816 37.4452608,83.9321553 C38.4523407,84.3738569 37.4540949,81.906953 37.5358097,81.7236468 Z" id="Path" fill="#3F3D56"></path>
                <path d="M43.8455183,78.0818164 C43.7240504,77.0416089 42.9819915,76.1824991 42.193554,75.4912359 C41.5580758,74.8918468 40.801106,74.4361585 39.974003,74.1550883 C39.1413953,73.9099439 38.1829026,73.9629481 37.4695544,74.4598625 C36.8953422,74.8596025 36.5309383,75.495653 36.2504578,76.1361204 C35.8819965,76.8919267 35.6995104,77.7248506 35.7182072,78.5654797 C35.7734199,79.4002959 36.1797855,80.2461546 36.9041763,80.6679798 C37.1647803,80.2836993 37.6175245,80.0849335 38.0526006,79.9281294 C39.9488633,79.2086713 41.882662,78.5923329 43.8455183,78.0818164 L43.8455183,78.0818164 Z" id="Path" fill="#FED253"></path>
                <path d="M37.1471122,77.6489487 C37.2177845,77.6489487 37.2641631,77.7218295 37.2994993,77.7814592 C37.4793171,78.0616182 37.6337885,78.3572573 37.7610775,78.6648626 C37.502682,78.7200753 37.0587718,78.7819135 36.9306784,78.5544372 C36.8622146,78.4395947 36.9439294,77.6379062 37.1471122,77.6489487 Z" id="Path" fill="#000000" opacity="0.1"></path>
                <path d="M42.1803029,77.1498258 C42.1272987,77.2006215 42.0654605,77.0968216 42.0654605,77.0217323 L42.0654605,76.164831 C42.0640188,76.1410056 42.0693804,76.1172614 42.0809201,76.0963673 C42.0994262,76.0752053 42.1257245,76.0624546 42.1538008,76.0610311 C42.33269,76.0411546 42.4806601,76.1935416 42.5955025,76.3393032 C42.7697797,76.5755307 42.9213669,76.8276831 43.0482468,77.0924046 L42.1140477,77.063694" id="Path" fill="#000000" opacity="0.1"></path>
                <path d="M53.8390191,91.3394926 C54.0422636,91.1465696 54.2592698,90.9686836 54.4883206,90.8072421 C55.1000774,90.398668 55.8399277,90.2374469 56.5267739,89.9768429 C57.21362,89.7162389 57.9115087,89.2944138 58.1787382,88.6097762 C58.3125133,88.1816653 58.356128,87.7304789 58.3068317,87.2846711 C58.3132436,87.0980211 58.2801283,86.9121238 58.2096573,86.7391695 C58.1255891,86.5863249 58.0058881,86.4560175 57.860713,86.359306 C56.9287224,85.6702514 55.6787066,85.6150387 54.5214482,85.685711 C51.9700636,85.8439311 49.4692464,86.4681997 47.1428214,87.527607 C47.0197906,87.5682533 46.9119814,87.6452599 46.8336303,87.7484579 C46.7883364,87.8441696 46.7678314,87.9497324 46.7740005,88.0554405 C46.7328507,88.706722 46.8175825,89.3598315 47.023562,89.9790514 C47.3283362,90.7652804 47.9555526,91.3991223 48.2183651,92.2008109 C48.3376245,92.5607978 48.3773777,92.9428697 48.4811776,93.3050651 C48.5663345,93.6791254 48.7875289,94.0081619 49.1017684,94.2282217 C49.9741293,94.7494297 50.7979029,94.0493325 51.4030342,93.5060394 L53.8390191,91.3394926 Z" id="Path" fill="#3F3D56"></path>
                <path d="M42.4144048,94.3982768 L41.2946911,91.9556665 C41.1305157,91.6171676 40.9888633,91.2682008 40.8706574,90.911042 C40.7425639,90.4847998 40.6807257,90.0430981 40.5614663,89.6146475 C40.1683517,88.187951 39.1767315,86.9997735 38.6930681,85.6017876 C38.6624882,85.4755597 38.600149,85.3592439 38.5119704,85.2638859 C38.3690555,85.1627958 38.1886133,85.1304295 38.019473,85.1755455 C37.3436694,85.2925965 36.8158359,85.8071789 36.1974535,86.098702 C35.9103474,86.2312126 35.6011563,86.3195529 35.3140502,86.47194 C35.0236516,86.6094786 34.8075646,86.8666866 34.7221699,87.1764542 C34.6537061,87.514356 34.8215528,87.8390067 34.9628973,88.1680745 C35.5636116,89.5240987 35.7005391,91.0391355 35.7270412,92.5232531 C35.7469178,93.521499 35.6961221,94.5926256 35.1064504,95.3943141 C33.9734855,96.94027 34.6978763,99.2106167 35.1219099,101.081223 C35.1727056,101.302074 35.2323354,101.540593 35.2676715,101.774695 C35.3050409,102.067631 35.3220136,102.36281 35.3184672,102.658098 C35.3184672,103.649719 35.2632545,104.672258 34.8480549,105.571121 C35.2579756,105.789217 35.7097597,105.917223 36.17316,105.946568 C37.4555672,106.109997 38.7431276,106.22484 40.0358412,106.291095 C40.4408631,106.329178 40.8492667,106.308349 41.2483124,106.229257 C42.2231838,105.965795 42.8951764,105.074655 42.8804001,104.064918 C42.9510724,104.676675 43.0813744,105.341436 43.5252846,105.76547 C43.9691948,106.189503 44.6162878,106.25355 45.2192106,106.286678 C46.9208453,106.376925 48.6269977,106.328916 50.3208651,106.143125 C50.428983,106.138247 50.5352842,106.113543 50.6344733,106.070244 C50.9613326,105.906814 50.9790006,105.456279 50.9524985,105.094083 C50.9039113,104.416071 50.8531156,103.738059 50.7714008,103.064464 C50.7021167,102.63504 50.6666716,102.200837 50.6653924,101.765861 C50.6990696,101.318424 50.7729853,100.87493 50.8862433,100.440756 C51.1821834,99.0626467 51.4162853,97.6558268 51.3169024,96.2445899 C51.2776253,95.9008155 51.2636005,95.5546244 51.2749408,95.2087994 C51.332362,94.4291959 51.7431446,93.6871371 51.6658468,92.9119506 C51.4449959,90.6327699 51.2661067,88.2939595 50.6300563,86.094285 C50.5152139,85.7011705 50.3694523,85.2793454 50.0271335,85.0540776 C49.5854318,84.7581374 48.9648409,84.912733 48.4590925,84.7250098 C48.2217854,84.6145723 47.9961288,84.4806581 47.7854974,84.3252698 C47.327842,84.0390514 46.8032296,83.8776322 46.2638351,83.857066 C45.8574695,83.8416064 45.4047253,83.9321553 45.1595809,84.2590145 C45.0460636,84.4430416 44.9709405,84.6481276 44.93873,84.8619373 C44.6184963,86.2091275 44.2430498,87.5408581 43.8676034,88.8725887 L43.5076165,90.1491066 L42.5424983,93.5767117 C42.4475325,93.9411156 42.5115792,94.0537495 42.4144048,94.3982768 Z" id="Path" fill="#C42EA5"></path>
                <polyline id="Path" fill="#F1C0C0" points="48.061561 81.0257581 69.4244632 103.475247 69.4244632 105.378981 59.8991663 105.378981 43.8455183 84.4268612"></polyline>
                <polyline id="Path" fill="#000000" opacity="0.1" points="48.061561 81.0257581 69.4244632 103.475247 69.4244632 105.378981 59.8991663 105.378981 43.8455183 84.4268612"></polyline>
                <polygon id="Path" fill="#000000" opacity="0.1" points="44.1856286 84.130921 44.2540924 84.1552146 60.0360938 103.475247 69.4244632 103.475247 69.4244632 105.378981 59.8991663 105.378981 43.8455183 84.4268612"></polygon>
                <path d="M46.6436985,84.6035418 C45.8707206,84.9414436 45.0116108,85.3743113 44.7797174,86.1870424 C44.7339354,86.3296685 44.7240734,86.4813915 44.7510068,86.6287441 C44.8666495,86.9834574 45.1889313,87.2302181 45.5615294,87.249335 C45.9252128,87.2581483 46.2868165,87.1919921 46.623822,87.0549862 L51.1843919,85.5487834 C51.3080684,85.5090303 51.4494129,85.4494006 51.480332,85.3279326 C51.4882731,85.2515432 51.4728726,85.1745408 51.4361619,85.1070818 C51.2948173,84.7625544 51.1556813,84.0580402 50.8597412,83.8173128 C50.6168052,83.6229641 50.1353504,83.6914278 49.8416188,83.6958449 C48.7108624,83.7046789 47.6485699,84.1618401 46.6436985,84.6035418 Z" id="Path" fill="#C42EA5"></path>
                <path d="M50.7095626,85.7276726 C51.477871,85.7254345 52.2417599,85.8439304 52.9732838,86.0788255 C53.7080846,86.3173889 54.3588972,86.7619959 54.8483074,87.3597604 C54.9908334,87.5268486 55.0921932,87.7250296 55.1442476,87.9383896 C55.1884177,88.1592404 55.9083915,88.2917509 55.7493789,88.4419295 C56.2330422,88.3646317 56.1181998,88.5921081 56.6084887,88.5876911 C57.0987776,88.5832741 57.6288196,88.4573891 57.9225512,88.0664831 C58.1266254,87.74535 58.2175706,87.3652459 58.1809467,86.9865224 C58.1873844,86.7243297 58.1376863,86.463791 58.0351851,86.2223785 C57.8143343,85.7585917 57.3063773,85.5090303 56.8381736,85.294805 L52.8937775,83.4904536 C52.6649632,83.3687392 52.4193515,83.2816587 52.1649697,83.2320581 C51.9508847,83.2118383 51.7351589,83.2170276 51.5222937,83.2475176 L49.7356104,83.4529089 C50.5305648,83.9673583 50.9948855,84.8632537 50.9569155,85.8093874" id="Path" fill="#3F3D56"></path>
            </g>
        </g>
    </g>
</svg>