<?xml version="1.0" encoding="UTF-8"?>
<svg width="56px" height="56px" viewBox="0 0 56 56" version="1.1" xmlns="http://www.w3.org/2000/svg" xmlns:xlink="http://www.w3.org/1999/xlink">
    <title>avatar/icon/large</title>
    <defs>
        <circle id="path-1" cx="28" cy="28" r="28"></circle>
        <path d="M8.58659128,10.8593186 C11.4878855,10.8593186 13.8398492,8.42837736 13.8398492,5.42965932 C13.8398492,2.43094128 11.4878855,0 8.58659128,0 C5.68529703,0 3.33333333,2.43094128 3.33333333,5.42965932 C3.33333333,8.42837736 5.68529703,10.8593186 8.58659128,10.8593186 Z M8.60888961,11.674169 C4.63938785,11.506847 1.0810581,14.1867788 0.0190470364,18.1435503 C-0.0565146211,18.5518862 0.0962923597,18.9694713 0.414386779,19.2239199 C0.791753229,19.538668 1.26463556,19.7053773 1.7494346,19.6945759 L15.4704145,19.6945759 C15.9552135,19.7053773 16.4280958,19.538668 16.8054623,19.2239199 C17.1235567,18.9694713 17.2763637,18.5518862 17.200802,18.1435503 C16.1386165,14.1859727 12.57915,11.5058306 8.60888961,11.674169 L8.60888961,11.674169 Z" id="path-3"></path>
    </defs>
    <g id="4---UI-Design-💪" stroke="none" stroke-width="1" fill="none" fill-rule="evenodd">
        <g id="Registration---Desktop---1.8---Delegate" transform="translate(-56.000000, -160.000000)">
            <g id="avatar/icon/large" transform="translate(56.000000, 160.000000)">
                <mask id="mask-2" fill="white">
                    <use xlink:href="#path-1"></use>
                </mask>
                <g id="container"></g>
                <g id="color" mask="url(#mask-2)" fill="#D9D9D9">
                    <rect id="Rectangle" x="0" y="0" width="56" height="56"></rect>
                </g>
                <g id="icon/user" mask="url(#mask-2)">
                    <g transform="translate(19.666667, 18.000000)">
                        <mask id="mask-4" fill="white">
                            <use xlink:href="#path-3"></use>
                        </mask>
                        <use id="Mask" stroke="none" fill="#595959" fill-rule="nonzero" xlink:href="#path-3"></use>
                        <g id="color" stroke="none" stroke-width="1" fill="none" fill-rule="evenodd" mask="url(#mask-4)">
                            <g transform="translate(-1.666667, 0.000000)" fill="#444444" id="Rectangle">
                                <rect x="0" y="0" width="20" height="20"></rect>
                            </g>
                        </g>
                    </g>
                </g>
            </g>
        </g>
    </g>
</svg>