<svg width="139" height="140" viewBox="0 0 139 140" fill="none" xmlns="http://www.w3.org/2000/svg">
<g id="undraw_winners_re_wr1l">
<path id="Path" d="M35.0535 134.346C34.7394 134.36 34.4498 134.177 34.3285 133.886C34.2072 133.596 34.2801 133.261 34.511 133.048C34.5299 132.973 34.5434 132.919 34.5623 132.844C34.2621 132.081 33.5292 131.577 32.7097 131.57C31.8902 131.562 31.148 132.052 30.8335 132.809C29.9462 134.886 28.7979 137.036 29.369 139.323C25.5968 131.328 26.8797 121.384 32.4544 114.547C33.9953 113.698 35.2442 112.19 35.5694 110.439C34.8067 110.697 33.8559 110.077 34.4293 109.274C34.6779 108.967 34.9288 108.662 35.1773 108.355C32.2804 105.27 28.8288 110.119 32.0175 114.283C30.9744 115.591 30.0708 117.004 29.3216 118.5C29.4946 116.911 29.2881 115.305 28.7191 113.812C28.1424 112.421 27.0614 111.249 26.1095 110.046C24.9521 108.581 22.5701 109.257 22.4143 111.117C23.4824 111.468 23.6212 113.011 22.3994 113.222C22.7194 116.681 24.9797 119.861 28.0927 121.378C26.9431 124.604 26.4942 128.037 26.7759 131.45C26.2264 127.462 21.9451 126.494 18.9526 124.908C18.5635 124.659 18.0636 124.663 17.6785 124.919C17.2933 125.174 17.0958 125.634 17.1749 126.089C17.5879 126.257 17.9832 126.466 18.355 126.712C18.712 126.952 18.8795 127.39 18.7734 127.807C18.6673 128.224 18.3106 128.529 17.8823 128.569C19.3907 132.302 23.2905 134.809 27.2958 134.795C27.6807 136.468 28.2384 138.096 28.9599 139.653H34.9046C34.9259 139.587 34.9451 139.519 34.9642 139.453C34.414 139.488 33.8616 139.455 33.3193 139.355C34.7751 137.631 35.901 136.752 35.0537 134.346L35.0535 134.346Z" fill="#F2F2F2"/>
<path id="Path_2" d="M88.0517 134.346C88.3658 134.36 88.6555 134.177 88.7768 133.886C88.8981 133.596 88.8252 133.261 88.5943 133.048C88.5754 132.973 88.5619 132.919 88.543 132.844C88.8432 132.081 89.576 131.577 90.3955 131.57C91.215 131.562 91.9573 132.052 92.2718 132.809C93.159 134.886 94.3074 137.036 93.7363 139.323C97.5084 131.328 96.2256 121.384 90.6509 114.547C89.11 113.698 87.861 112.19 87.5359 110.439C88.2985 110.697 89.2493 110.077 88.6759 109.274C88.4274 108.967 88.1764 108.662 87.9279 108.355C90.8248 105.27 94.2764 110.119 91.0878 114.283C92.1309 115.591 93.0344 117.004 93.7836 118.5C93.6106 116.911 93.8171 115.305 94.3861 113.812C94.9629 112.421 96.0438 111.249 96.9957 110.046C98.1531 108.581 100.535 109.257 100.691 111.117C99.6228 111.468 99.484 113.011 100.706 113.222C100.386 116.681 98.1256 119.861 95.0126 121.378C96.1622 124.604 96.6111 128.037 96.3294 131.45C96.8788 127.462 101.16 126.494 104.153 124.908C104.542 124.659 105.042 124.663 105.427 124.919C105.812 125.174 106.009 125.634 105.93 126.089C105.517 126.257 105.122 126.466 104.75 126.712C104.393 126.952 104.226 127.39 104.332 127.807C104.438 128.224 104.795 128.529 105.223 128.569C103.715 132.302 99.8148 134.809 95.8095 134.795C95.4246 136.468 94.8669 138.096 94.1454 139.653H88.2007C88.1794 139.587 88.1602 139.519 88.141 139.453C88.6913 139.488 89.2437 139.455 89.7859 139.355C88.3301 137.631 87.2043 136.752 88.0515 134.346L88.0517 134.346Z" fill="#F2F2F2"/>
<path id="Path_3" d="M90.2559 135.228L87.6958 135.81L84.2307 126.213L88.0093 125.353L90.2559 135.228V135.228Z" fill="#FFB6B6"/>
<path id="Path_4" d="M90.9538 137.878L83.0811 139.669L83.0585 139.57C82.6735 137.878 83.7332 136.194 85.4254 135.808L85.4256 135.808L86.6154 134.39L89.5467 134.871L90.234 134.714L90.9538 137.878Z" fill="#2F2E41"/>
<path id="Path_5" d="M131.555 88.4462L132.962 90.6625L125.083 97.1464L123.005 93.875L131.555 88.4462V88.4462Z" fill="#FFB6B6"/>
<path id="Path_6" d="M133.817 86.8997L138.145 93.7153L138.059 93.7701C136.594 94.7005 134.652 94.2671 133.722 92.8021L133.722 92.8019L131.986 92.1568L131.456 89.2341L131.078 88.6391L133.817 86.8997Z" fill="#2F2E41"/>
<path id="Path_7" d="M49.9475 64.7501L49.3152 61.0851L58.9283 56.7441L61.0044 53.0685C60.8183 52.1734 61.3378 51.2822 62.2084 51.003C63.0789 50.7239 64.0198 51.1467 64.389 51.9831C64.7582 52.8194 64.4367 53.7996 63.6438 54.2547L60.2287 59.5346L49.9475 64.7501Z" fill="#A0616A"/>
<path id="Path_8" d="M47.0253 61.754L51.3543 59.5426L52.5003 63.8456L49.4933 66.0745L47.0253 61.754V61.754Z" fill="#00BFB3"/>
<path id="Path_9" d="M37.311 134.895L39.9285 134.895L41.1737 124.798L37.3104 124.799L37.311 134.895V134.895Z" fill="#A0616A"/>
<path id="Path_10" d="M40.7996 135.13V133.356L40.1114 133.398L37.3102 133.564L36.6619 133.604L36.1663 139.547L36.1398 139.865H37.9984L38.0581 139.549L38.328 138.111L39.025 139.549L39.1777 139.865H44.1052C44.7155 139.862 45.2089 139.367 45.2115 138.757C45.4195 137.786 41.3217 135.686 40.7996 135.13Z" fill="#2F2E41"/>
<path id="Path_11" d="M6.23994 94.8268L5.62976 97.3723L15.1575 100.937L16.0579 97.1805L6.23994 94.8268V94.8268Z" fill="#A0616A"/>
<path id="Path_12" d="M5.40456 98.1644L7.13018 98.5782L7.24974 97.8992L7.74149 95.1365L7.85392 94.4968L2.19018 92.6292L1.88653 92.5291L1.45318 94.3364L1.74693 94.4683L3.08256 95.0661L1.52149 95.4086L1.17821 95.4832L0.0293049 100.275C-0.109225 100.869 0.256504 101.464 0.849328 101.609C1.7454 102.038 4.74275 98.5427 5.40456 98.1644Z" fill="#2F2E41"/>
<path id="Path_13" d="M41.3583 69.5523L37.9891 67.9773L31.2702 76.1083L27.1777 77.1433C26.3632 76.7282 25.3667 76.9947 24.8681 77.761C24.3696 78.5274 24.5298 79.5464 25.2394 80.1228C25.9491 80.6992 26.9793 80.647 27.6271 80.002L33.6199 78.0975L41.3583 69.5523Z" fill="#A0616A"/>
<path id="Shape" fill-rule="evenodd" clip-rule="evenodd" d="M85.5132 35.8415C85.5132 37.8357 87.1299 39.4524 89.1241 39.4524C91.1175 39.4501 92.7328 37.8348 92.735 35.8415C92.735 33.8472 91.1184 32.2306 89.1241 32.2306C87.1299 32.2306 85.5132 33.8472 85.5132 35.8415ZM86.1709 34.6182C86.6657 33.4238 87.8313 32.645 89.1241 32.645C90.8887 32.647 92.3186 34.0769 92.3206 35.8415C92.3206 37.1343 91.5418 38.2999 90.3474 38.7947C89.1529 39.2894 87.7781 39.0159 86.8639 38.1018C85.9497 37.1876 85.6762 35.8127 86.1709 34.6182Z" fill="#E6E6E6"/>
<path id="Path_14" d="M88.8693 37.2018C88.862 37.2018 88.8548 37.2016 88.8475 37.2012C88.7178 37.1949 88.5973 37.1323 88.5176 37.0298L87.9487 36.2985C87.8762 36.2053 87.8437 36.0871 87.8583 35.9698C87.8729 35.8526 87.9335 35.746 88.0268 35.6735L88.0473 35.6576C88.1405 35.585 88.2587 35.5524 88.376 35.5671C88.4932 35.5818 88.5999 35.6424 88.6724 35.7357C88.7305 35.8104 88.8183 35.8559 88.9128 35.8605C89.0073 35.8651 89.0991 35.8283 89.1642 35.7597L90.3192 34.5404C90.4884 34.3621 90.7701 34.3544 90.9488 34.5233L90.9677 34.5413C91.0535 34.6225 91.1035 34.7345 91.1067 34.8526C91.1099 34.9707 91.066 35.0852 90.9847 35.1709L89.1924 37.0627C89.1084 37.1515 88.9915 37.2018 88.8693 37.2018Z" fill="#E6E6E6"/>
<path id="Shape_2" fill-rule="evenodd" clip-rule="evenodd" d="M67.4875 79.559C67.4875 81.5532 69.1042 83.1699 71.0984 83.1699C73.0918 83.1677 74.7071 81.5523 74.7093 79.559C74.7093 77.5648 73.0927 75.9481 71.0984 75.9481C69.1042 75.9481 67.4875 77.5648 67.4875 79.559ZM68.1453 78.3358C68.64 77.1413 69.8056 76.3625 71.0984 76.3625C72.863 76.3645 74.2929 77.7945 74.2949 79.559C74.2949 80.8519 73.5161 82.0174 72.3217 82.5122C71.1272 83.007 69.7524 82.7335 68.8382 81.8193C67.924 80.9051 67.6505 79.5302 68.1453 78.3358Z" fill="#E6E6E6"/>
<path id="Path_15" d="M70.8436 80.9193C70.8363 80.9193 70.8291 80.9191 70.8218 80.9187C70.6921 80.9125 70.5716 80.8499 70.4919 80.7473L69.923 80.016C69.8505 79.9228 69.818 79.8046 69.8326 79.6874C69.8472 79.5702 69.9078 79.4636 70.0011 79.391L70.0216 79.3751C70.1148 79.3025 70.2331 79.27 70.3503 79.2846C70.4675 79.2993 70.5742 79.3599 70.6467 79.4532C70.7048 79.5279 70.7926 79.5735 70.8871 79.5781C70.9816 79.5827 71.0734 79.5458 71.1385 79.4772L72.2935 78.2579C72.4627 78.0796 72.7444 78.072 72.9231 78.2408L72.942 78.2589C73.0278 78.3401 73.0778 78.452 73.081 78.5701C73.0842 78.6882 73.0403 78.8027 72.959 78.8884L71.1667 80.7802C71.0827 80.869 70.9658 80.9194 70.8436 80.9193V80.9193Z" fill="#E6E6E6"/>
<path id="Shape_3" fill-rule="evenodd" clip-rule="evenodd" d="M27.9138 30.8689C27.9138 32.8632 29.5305 34.4798 31.5247 34.4798C33.518 34.4776 35.1334 32.8623 35.1356 30.8689C35.1356 28.8747 33.5189 27.2581 31.5247 27.2581C29.5305 27.2581 27.9138 28.8747 27.9138 30.8689ZM28.5715 29.6457C29.0663 28.4512 30.2318 27.6724 31.5247 27.6724C33.2893 27.6744 34.7192 29.1044 34.7212 30.8689C34.7212 32.1618 33.9424 33.3274 32.748 33.8221C31.5535 34.3169 30.1786 34.0434 29.2644 33.1292C28.3502 32.215 28.0768 30.8402 28.5715 29.6457Z" fill="#E6E6E6"/>
<path id="Path_16" d="M31.2699 32.2293C31.2627 32.2293 31.2554 32.229 31.2481 32.2287C31.1184 32.2224 30.9979 32.1598 30.9182 32.0572L30.3494 31.326C30.2768 31.2327 30.2443 31.1145 30.2589 30.9973C30.2736 30.8801 30.3342 30.7735 30.4274 30.701L30.4479 30.6851C30.5411 30.6125 30.6594 30.5799 30.7766 30.5946C30.8939 30.6092 31.0005 30.6699 31.073 30.7632C31.1311 30.8378 31.2189 30.8834 31.3134 30.888C31.4079 30.8926 31.4998 30.8558 31.5649 30.7871L32.7198 29.5678C32.8891 29.3896 33.1707 29.3819 33.3494 29.5507L33.3684 29.5688C33.4541 29.65 33.5041 29.762 33.5073 29.8801C33.5105 29.9981 33.4666 30.1126 33.3854 30.1984L31.5931 32.0902C31.509 32.179 31.3922 32.2293 31.2699 32.2293Z" fill="#E6E6E6"/>
<path id="Path_17" d="M60.4335 96.5956C52.0603 96.5956 42.4374 87.3038 33.9235 91.7186C8.14569 105.085 11.6941 82.7182 4.28839 74.3996L4.53152 73.912C12.7029 81.2389 22.9052 87.2003 34.0354 91.1514C44.0937 94.7222 54.2274 96.3767 63.3372 95.9401L63.353 96.5263C62.391 96.5727 61.4178 96.5958 60.4335 96.5956Z" fill="#F2F2F2"/>
<ellipse id="Oval" cx="48.9476" cy="31.4259" rx="1.75023" ry="2.34696" fill="#E6E6E6"/>
<path id="Path_18" d="M69.1626 70.386C68.3625 70.9191 67.5435 69.6502 68.359 69.1407C69.1592 68.6076 69.9781 69.8765 69.1626 70.386Z" fill="#E6E6E6"/>
<circle id="Oval_2" cx="64.5569" cy="25.3873" r="2.27911" fill="#FF6584"/>
<path id="Path_19" opacity="0.3" d="M72.5284 37.8766L85.4972 0L71.2566 37.4232C71.0632 37.6671 71.0504 38.0084 71.225 38.2661C71.3996 38.5239 71.7213 38.6386 72.0196 38.5494C72.3179 38.4603 72.5238 38.1879 72.5284 37.8766H72.5284Z" fill="#F0F0F0"/>
<circle id="Oval_3" cx="59.438" cy="81.8039" r="2.21744" fill="#F2F2F2"/>
<path id="Path_20" d="M37.9615 82.6497C37.9615 82.6497 32.4335 86.2493 33.8953 88.6412C33.9457 88.7237 27.2921 97.5113 27.2921 97.5113L14.7317 96.714L14.2892 100.918L25.4713 104.157C25.4713 104.157 28.2069 106.166 30.3202 103.952C32.4335 101.738 39.4728 94.9566 39.4728 94.9566L39.8123 108.647L36.2786 127.618L41.5548 127.284L46.6901 108.251L48.5857 86.6918L37.9615 82.6497Z" fill="#2F2E41"/>
<path id="Path_21" d="M41.8991 61.046L39.5745 62.8077L36.9249 68.4627L39.4727 71.923C39.4727 71.923 41.6159 75.6373 38.1854 79.2343C34.755 82.8313 32.1208 86.6731 34.8665 86.5359C37.6122 86.3987 48.7328 92.0549 48.806 87.421C48.8792 82.787 49.0273 79.2343 49.0273 79.2343L51.9428 71.8394C51.9428 71.8394 53.6799 67.4279 52.4603 66.1074C51.2408 64.7869 49.6079 63.0995 49.6079 63.0995L46.6384 60.13H43.9571L41.8991 61.046Z" fill="#00BFB3"/>
<path id="Path_22" d="M46.2387 50.1806C51.4538 53.1482 47.1724 60.9782 41.8601 58.19C36.6451 55.2225 40.9265 47.3925 46.2387 50.1806Z" fill="#A0616A"/>
<path id="Path_23" d="M49.0273 51.826C48.6619 52.3012 47.8984 52.0784 46.4034 52.4175C46.4066 51.9108 46.3481 51.4055 46.229 50.9129C46.1178 51.5228 45.874 52.1008 45.5149 52.6062C44.2167 52.7502 45.8081 56.6941 45.1434 59.5937C44.287 53.4764 42.4857 55.0791 43.3957 56.2924C43.9783 57.0692 43.5899 59.3995 41.8421 58.2344C38.9584 59.6049 34.8512 52.7969 39.4033 49.6041C39.3219 47.8783 41.2422 47.6057 42.4247 48.1363C45.2945 45.9985 48.5731 48.7377 49.0273 51.826Z" fill="#2F2E41"/>
<path id="Path_24" d="M35.6464 47.3623C34.4854 54.501 28.2621 46.0495 25.3359 53.0747C24.4159 55.6188 25.9944 57.4387 26.9929 59.5505C27.2208 61.2859 24.9631 62.1664 24.7266 63.7639C24.6608 67.4263 30.5694 67.2022 32.2212 64.8915C33.9184 62.4727 31.8917 59.2274 32.9119 56.6311C34.3457 53.0265 40.1768 52.9997 40.6848 48.8061C39.701 47.4051 37.0555 45.8005 35.6464 47.3623Z" fill="#2F2E41"/>
<path id="Path_25" d="M88.5518 87.418L86.6257 92.4411L77.5904 110.264L85.5297 130.997L89.6271 129.915L86.2499 110.264L95.939 98.4911L107.446 106.295C107.446 106.295 112.549 110.279 114.49 106.503C116.432 102.726 128.994 94.6926 128.994 94.6926L125.886 91.3775L111.42 98.1472L101.435 84.0939L88.5518 87.418Z" fill="#2F2E41"/>
<path id="Path_26" d="M98.2705 63.7247L95.0999 60.3183L89.6611 59.5701L82.997 64.2354L83.0641 69.3993L86.3585 81.5675C86.3585 81.5675 85.1037 90.3097 88.6085 90.2221C92.1134 90.1344 94.0239 88.387 95.4514 88.7427C96.8789 89.0984 102.947 90.6122 103.332 89.0266C103.716 87.4409 105.76 88.5763 105.671 87.0762C105.581 85.5762 100.137 74.7635 100.137 74.7635L101.49 63.9497L98.2705 63.7247Z" fill="#00BFB3"/>
<path id="Path_27" d="M118.346 48.0442C118.403 48.6161 118.204 49.1841 117.803 49.5952C117.401 50.0064 116.838 50.2186 116.265 50.1747L108.974 64.0414L107.016 61.0363L114.469 47.9492C114.609 46.9699 115.46 46.2505 116.449 46.2748C117.438 46.299 118.253 47.0592 118.346 48.0442H118.346Z" fill="#FFB6B6"/>
<path id="Path_28" d="M95.392 66.303C95.392 66.303 95.1028 68.7696 97.8796 69.3802C100.656 69.9908 108.35 65.595 109.611 64.9236C110.006 64.7134 110.542 63.6828 111.091 62.3664C111.338 61.7754 111.588 61.1267 111.829 60.4688C111.968 60.088 112.636 59.9841 112.768 59.6065C112.898 59.231 112.493 58.5818 112.611 58.2279C113.173 56.548 113.571 55.2153 113.571 55.2153L111.73 51.7582C109.156 53.119 107.836 56.1164 106.865 59.5696L95.392 66.303Z" fill="#00BFB3"/>
<path id="Path_29" d="M62.9622 51.2287C63.0498 51.7967 63.3844 52.2968 63.8761 52.5944C64.3678 52.892 64.966 52.9565 65.5099 52.7706L76.0393 64.3714L77.1825 60.9721L66.6919 50.1665C66.3107 49.2535 65.3068 48.7699 64.3553 49.0409C63.4038 49.3119 62.8053 50.2518 62.9622 51.2287V51.2287Z" fill="#FFB6B6"/>
<path id="Path_30" d="M89.7548 63.162C89.7548 63.162 90.6521 65.4777 88.1165 66.7638C85.5809 68.05 77.0324 65.7193 75.6433 65.3849C75.2084 65.2801 74.4316 64.4165 73.5698 63.2796C73.1829 62.7691 72.7789 62.2036 72.3809 61.6269C72.1506 61.2932 71.4781 61.3597 71.2564 61.027C71.0358 60.6962 71.2661 59.9661 71.0629 59.653C70.0986 58.1672 69.3798 56.9765 69.3798 56.9765L70.2965 53.1688C73.1291 53.8421 75.1574 56.4138 76.9616 59.5141L89.7548 63.162Z" fill="#00BFB3"/>
<circle id="Oval_4" cx="92.489" cy="53.5286" r="5.17485" fill="#FFB6B6"/>
<path id="Path_31" d="M98.3962 50.5656C97.8518 49.7235 96.8303 49.1622 95.8401 49.3199C95.6522 48.0317 94.763 46.9551 93.5336 46.5271C92.3041 46.0991 90.9386 46.3909 89.9914 47.284C89.6806 47.0651 89.278 47.0248 88.93 47.1777C88.5891 47.3327 88.2926 47.5707 88.0676 47.8699C86.9099 49.3137 86.6398 51.2772 87.3648 52.9799C87.2437 52.54 87.6846 52.1261 88.1301 52.0273C88.5756 51.9286 89.0429 52.022 89.4947 51.9577C90.0737 51.8753 90.5942 51.5394 91.1741 51.4638C91.6659 51.4319 92.1592 51.4952 92.6269 51.6505C93.0945 51.8058 93.5871 51.8719 94.0791 51.8455C94.5672 51.7876 95.1959 53.6373 95.1875 54.9401C95.1859 55.187 95.2367 55.504 95.478 55.5564C95.7751 55.6209 95.9473 55.2108 96.2302 55.0991C96.5011 55.0214 96.7848 55.1723 96.8719 55.4403C96.9442 55.7063 96.8836 55.9909 96.7091 56.2043C96.5352 56.4127 96.3288 56.5918 96.0979 56.7344L96.2144 56.8313C96.4424 57.0722 96.8092 57.1178 97.0893 56.94C97.3564 56.7591 97.5726 56.5129 97.7175 56.2247C98.2634 55.3806 98.6536 54.4455 98.8697 53.4637C99.0521 52.4777 98.9405 51.4077 98.3962 50.5656Z" fill="#2F2E41"/>
<path id="Path_32" d="M136.68 70.9755C130.005 76.031 116.724 74.4339 112.602 83.0936C100.123 109.313 89.4477 89.34 78.5216 87.1801L78.421 86.6446C89.3587 87.5518 101.091 86.1442 112.349 82.5738C122.523 79.3475 131.6 74.5481 138.599 68.6998L138.965 69.1576C138.226 69.7754 137.464 70.3814 136.68 70.9755Z" fill="#F2F2F2"/>
<path id="Path_33" d="M108.459 139.647C108.3 140.118 17.5343 140.118 17.3628 139.648C17.5216 139.176 108.287 139.176 108.459 139.647Z" fill="#CCCCCC"/>
</g>
</svg>
