<?xml version="1.0" encoding="UTF-8"?>
<svg width="18px" height="21px" viewBox="0 0 18 21" version="1.1" xmlns="http://www.w3.org/2000/svg" xmlns:xlink="http://www.w3.org/1999/xlink">
    <title>copy</title>
    <g id="---↳--Adding-Site-Contact-Information" stroke="none" stroke-width="1" fill="none" fill-rule="evenodd">
        <g id="Notifications-2-Copy-7" transform="translate(-638.000000, -361.000000)" fill="#595959">
            <g id="Group-43" transform="translate(323.000000, 161.000000)">
                <g id="Group-38" transform="translate(50.000000, 68.000000)">
                    <g id="Group-37" transform="translate(0.000000, 106.311828)">
                        <g id="copy" transform="translate(265.000000, 26.046595)">
                            <path d="M14,-3.55271368e-15 L18,4.25761649 L18,15.0268817 C18,16.1334307 17.1045695,17.0304659 16,17.0304659 L14,17.0304659 L14,18.0322581 C14,19.1388071 13.1045695,20.0358423 12,20.0358423 L2,20.0358423 C0.8954305,20.0358423 0,19.1388071 0,18.0322581 L0,5.00896057 C0,3.90241156 0.8954305,3.00537634 2,3.00537634 L4,3.00537634 L4,2.00358423 C4,0.897035214 4.8954305,-3.55271368e-15 6,-3.55271368e-15 L14,-3.55271368e-15 Z M4,5.00896057 L2,5.00896057 L2,18.0322581 L12,18.0322581 L12,17.0304659 L6,17.0304659 C4.8954305,17.0304659 4,16.1334307 4,15.0268817 L4,5.00896057 Z M13.136,2.00358423 L6,2.00358423 L6,15.0268817 L16,15.0268817 L16,5.05203763 L13.136,2.00358423 Z" id="icon-color"></path>
                        </g>
                    </g>
                </g>
            </g>
        </g>
    </g>
</svg>