<?xml version="1.0" encoding="UTF-8"?>
<svg width="20px" height="20px" viewBox="0 0 20 20" version="1.1" xmlns="http://www.w3.org/2000/svg" xmlns:xlink="http://www.w3.org/1999/xlink">
    <title>phone</title>
    <defs>
        <path d="M16.1137834,11.783089 C16.1254502,11.7947558 19.7346817,15.4048207 19.7346817,15.4048207 C20.7855339,17.0090162 18.4596588,19.0523862 17.2071363,19.7065646 C15.8037778,20.4399111 13.7704079,19.6423968 12.4253838,19.0440527 C10.0211739,17.9757002 7.93530314,16.3706714 6.08443657,14.5198048 C4.0127327,12.4639345 2.15353264,10.2672284 0.956844487,7.57468006 C0.358500408,6.22882255 -0.439013914,4.19628605 0.293499241,2.79292752 C0.947677655,1.53957168 2.99188103,-0.785470078 4.59607651,0.265382127 L8.21697487,3.88628049 C9.57699929,5.24630491 6.79028258,6.90633472 6.78944923,8.07468904 C6.78861588,8.85803644 7.23195718,9.5647158 7.63279771,10.2055606 C8.10863959,10.9647409 8.72865072,11.6280862 9.45616379,12.1497622 C10.1453428,12.6447711 11.0486924,13.2122813 11.9262081,13.211448 C13.0937291,13.2106146 14.7537589,10.4230645 16.1137834,11.783089 Z" id="path-1"></path>
    </defs>
    <g id="---↳--Adding-Site-Contact-Information" stroke="none" stroke-width="1" fill="none" fill-rule="evenodd">
        <g id="PP-Lite---About-the-Study---Dektop-1-Copy-3" transform="translate(-58.000000, -270.000000)">
            <g id="Group-12-Copy" transform="translate(32.000000, 244.000000)">
                <g id="Group-10" transform="translate(24.000000, 24.000000)">
                    <g id="phone" transform="translate(2.000000, 2.000000)">
                        <mask id="mask-2" fill="white">
                            <use xlink:href="#path-1"></use>
                        </mask>
                        <use id="icon-color" fill="#10558A" xlink:href="#path-1"></use>
                    </g>
                </g>
            </g>
        </g>
    </g>
</svg>