<?xml version="1.0" encoding="UTF-8"?>
<svg width="18px" height="20px" viewBox="0 0 18 20" version="1.1" xmlns="http://www.w3.org/2000/svg" xmlns:xlink="http://www.w3.org/1999/xlink">
    <title>phone</title>
    <g id="---↳--Adding-Site-Contact-Information" stroke="none" stroke-width="1" fill="none" fill-rule="evenodd">
        <g id="PP-Lite---About-the-Study---Dektop-1-Copy-3" transform="translate(-574.000000, -269.000000)" fill="#10558A">
            <g id="Group-12-Copy" transform="translate(32.000000, 244.000000)">
                <g id="Group-10" transform="translate(24.000000, 24.000000)">
                    <g id="Group-18-Copy" transform="translate(515.000000, 0.000000)">
                        <g id="phone" transform="translate(3.000000, 1.000000)">
                            <path d="M12.3679599,11.6324929 C15.6815363,12.9093991 18,15.9546995 18,19 C18,19.7777778 17.3950617,19.9506173 17.1262003,19.9890261 L17.0089163,19.9998285 L17.0089163,19.9998285 L0.965706447,19.9986283 L0.965706447,19.9986283 L0.873799726,19.9890261 C0.604938272,19.9506173 4.4408921e-16,19.7777778 4.4408921e-16,19 C4.4408921e-16,15.9543914 2.31893298,12.9087827 5.63209099,11.6321054 L8,14 L8,18 L10,18 L10,14 L12.3679599,11.6324929 Z M13,15 C12.4477153,15 12,15.4477153 12,16 C12,16.5522847 12.4477153,17 13,17 C13.5522847,17 14,16.5522847 14,16 C14,15.4477153 13.5522847,15 13,15 Z M9,4.4408921e-16 C11.7614237,4.4408921e-16 14,2.23857625 14,5 C14,7.76142375 11.7614237,10 9,10 C6.23857625,10 4,7.76142375 4,5 C4,2.23857625 6.23857625,4.4408921e-16 9,4.4408921e-16 Z" id="icon-color"></path>
                        </g>
                    </g>
                </g>
            </g>
        </g>
    </g>
</svg>