<?xml version="1.0" encoding="UTF-8"?>
<svg width="20px" height="28px" viewBox="0 0 20 28" version="1.1" xmlns="http://www.w3.org/2000/svg" xmlns:xlink="http://www.w3.org/1999/xlink">
    <title>hotel</title>
    <g id="---↳--Adding-Site-Contact-Information" stroke="none" stroke-width="1" fill="none" fill-rule="evenodd">
        <g id="Notifications-2-Copy-7" transform="translate(-673.000000, -231.000000)" fill="#595959">
            <g id="Group-43" transform="translate(323.000000, 161.000000)">
                <g id="Group-38" transform="translate(50.000000, 68.000000)">
                    <g id="hotel" transform="translate(300.000000, 2.666662)">
                        <path d="M0.555555556,3.88889368 L19.4444444,3.88889368 C19.6579714,3.88901654 19.8526734,3.76675005 19.9453119,3.57436534 C20.0379503,3.38198063 20.0121297,3.1535265 19.8788889,2.98667137 L17.9888889,0.625560255 C17.6737618,0.229534659 17.1949923,-0.000847589069 16.6888889,2.34345907e-06 L3.31111111,2.34345907e-06 C2.80500772,-0.000847589069 2.32623822,0.229534659 2.01111111,0.625560255 L0.122222222,2.98667137 C-0.0108937735,3.15336977 -0.0368012037,3.38156839 0.0555580214,3.57386504 C0.147917247,3.76616168 0.342229202,3.88858991 0.555555556,3.88889368 Z M19.4444444,5.55556026 L0.555555556,5.55556026 C0.248730695,5.55556026 0,5.80429095 0,6.11111581 L0,25.0000047 C0,25.9204793 0.746192084,26.6666714 1.66666667,26.6666714 L7.22222222,26.6666714 C7.52904708,26.6666714 7.77777778,26.4179407 7.77777778,26.1111158 L7.77777778,23.8888936 C7.77777778,22.6615941 8.77270056,21.6666714 10,21.6666714 C11.2272994,21.6666714 12.2222222,22.6615941 12.2222222,23.8888936 L12.2222222,26.1111158 C12.2222222,26.4179407 12.4709529,26.6666714 12.7777778,26.6666714 L18.3333333,26.6666714 C19.2538079,26.6666714 20,25.9204793 20,25.0000047 L20,6.11111581 C20,5.80429095 19.7512693,5.55556026 19.4444444,5.55556026 Z M5.55555556,18.333338 C5.55555556,18.6401629 5.30682486,18.8888936 5,18.8888936 L2.77777778,18.8888936 C2.47095292,18.8888936 2.22222222,18.6401629 2.22222222,18.333338 L2.22222222,16.1111158 C2.22222222,15.1906412 2.96841431,14.4444491 3.88888889,14.4444491 C4.80936347,14.4444491 5.55555556,15.1906412 5.55555556,16.1111158 L5.55555556,18.333338 Z M5.55555556,11.6666714 C5.55555556,11.9734962 5.30682486,12.2222269 5,12.2222269 L2.77777778,12.2222269 C2.47095292,12.2222269 2.22222222,11.9734962 2.22222222,11.6666714 L2.22222222,9.44444914 C2.22222222,8.52397456 2.96841431,7.77778248 3.88888889,7.77778248 C4.80936347,7.77778248 5.55555556,8.52397456 5.55555556,9.44444914 L5.55555556,11.6666714 Z M11.6666667,18.333338 C11.6666667,18.6401629 11.417936,18.8888936 11.1111111,18.8888936 L8.88888889,18.8888936 C8.58206403,18.8888936 8.33333333,18.6401629 8.33333333,18.333338 L8.33333333,16.1111158 C8.33333333,15.1906412 9.07952542,14.4444491 10,14.4444491 C10.9204746,14.4444491 11.6666667,15.1906412 11.6666667,16.1111158 L11.6666667,18.333338 Z M11.6666667,11.6666714 C11.6666667,11.9734962 11.417936,12.2222269 11.1111111,12.2222269 L8.88888889,12.2222269 C8.58206403,12.2222269 8.33333333,11.9734962 8.33333333,11.6666714 L8.33333333,9.44444914 C8.33333333,8.52397456 9.07952542,7.77778248 10,7.77778248 C10.9204746,7.77778248 11.6666667,8.52397456 11.6666667,9.44444914 L11.6666667,11.6666714 Z M17.7777778,18.333338 C17.7777778,18.6401629 17.5290471,18.8888936 17.2222222,18.8888936 L15,18.8888936 C14.6931751,18.8888936 14.4444444,18.6401629 14.4444444,18.333338 L14.4444444,16.1111158 C14.4444444,15.1906412 15.1906365,14.4444491 16.1111111,14.4444491 C17.0315857,14.4444491 17.7777778,15.1906412 17.7777778,16.1111158 L17.7777778,18.333338 Z M17.7777778,11.6666714 C17.7777778,11.9734962 17.5290471,12.2222269 17.2222222,12.2222269 L15,12.2222269 C14.6931751,12.2222269 14.4444444,11.9734962 14.4444444,11.6666714 L14.4444444,9.44444914 C14.4444444,8.52397456 15.1906365,7.77778248 16.1111111,7.77778248 C17.0315857,7.77778248 17.7777778,8.52397456 17.7777778,9.44444914 L17.7777778,11.6666714 Z" id="icon-color"></path>
                    </g>
                </g>
            </g>
        </g>
    </g>
</svg>